<svg width="79" height="78" viewBox="0 0 79 78" xmlns="http://www.w3.org/2000/svg"><title>fws</title><g fill="none" fill-rule="evenodd"><path d="M-9.66-10h97.783v97.784H-9.66z"/><path d="M39.232-.002C17.785-.002.339 17.446.339 38.894c0 21.445 17.446 38.887 38.893 38.887 15.246 0 29.159-8.973 35.448-22.868a38.602 38.602 0 0 0 3.442-16.018c0-5.588-1.16-10.976-3.442-16.02C68.39 8.978 54.477-.002 39.232-.002" fill="#FFF"/><path d="M39.231 7.095c-17.546 0-31.82 14.264-31.82 31.798 0 17.53 14.274 31.79 31.82 31.79 12.474 0 23.859-7.338 29.002-18.695a31.53 31.53 0 0 0 2.816-13.095c0-4.569-.948-8.973-2.816-13.096C63.088 14.435 51.705 7.095 39.231 7.095" fill="#FFBE2D"/><g fill="#FFF"><path d="M18.447 27.209c-.846 0-1.53-.022-2.106-.033v1.377c.532-.01 1.15-.021 1.9-.021.554 0 .586.39.586.618v.14c0 .23-.032.62-.587.62-.75 0-1.368-.022-1.9-.033v2.538c0 .379-.194.586-.585.586h-.467c-.412 0-.652-.14-.652-.586v-6.107c0-.52.402-.553.652-.553h3.159c.293 0 .596.11.596.553v.281c.001.228-.042.62-.596.62z"/><path d="M25.253 33h-.651c-.293 0-.532-.043-.77-.336l-1.813-2.212h-.152v1.963c0 .379-.196.586-.586.586h-.467c-.413 0-.652-.14-.652-.586v-6.107c0-.52.401-.553.652-.553h2.018c1.151 0 1.488.076 1.955.532.434.422.596 1.139.596 2.049 0 .955-.314 1.79-1.335 2.04l1.531 1.779c.228.27.325.846-.326.846zm-1.791-5.737c-.151-.065-.597-.065-.77-.065-.272 0-.554 0-.826.01v1.801h1.107c.652 0 .717-.119.717-.76 0-.205 0-.877-.228-.986z" fill-rule="nonzero"/><path d="M28.184 33h-.467c-.413 0-.652-.14-.652-.585v-6.107c0-.52.413-.553.652-.553h.467c.466 0 .586.27.586.553v6.107c0 .379-.185.586-.586.586zm6.219 0h-3.376c-.412 0-.651-.14-.651-.585v-6.107c0-.52.402-.553.651-.553h3.376c.294 0 .587.11.587.553v.281c0 .228-.033.619-.587.619-.857 0-1.682-.022-2.323-.033v1.388c.576-.01 1.238-.032 2.074-.032.554 0 .597.39.597.618v.141c0 .228-.043.619-.597.619-.836 0-1.498-.022-2.074-.033v1.702c.64-.011 1.466-.032 2.323-.032.554 0 .587.39.587.62v.28c-.001.446-.293.555-.587.555zm7.512 0h-.326c-.293 0-.51-.02-.706-.27-.738-.955-1.878-2.55-2.843-3.927v3.613c0 .379-.207.586-.598.586h-.423c-.413 0-.652-.14-.652-.586v-6.107c0-.521.402-.553.652-.553h.282c.261 0 .456.01.652.27.76.998 1.834 2.517 2.876 3.96v-3.677c0-.521.401-.553.652-.553h.434c.466 0 .586.27.586.553v6.107c0 .378-.196.585-.586.585z"/><path d="M47.95 32.87a6.843 6.843 0 0 1-1.336.13h-1.9c-.413 0-.651-.14-.651-.585v-6.107c0-.52.401-.553.652-.553h1.9c2.191 0 3.277.542 3.277 3.699 0 1.497-.216 3.026-1.943 3.417zm-.413-5.52c-.24-.098-.782-.13-1.129-.13-.326 0-.521 0-.64.01v4.296c.119.011.314.011.64.011 1.52 0 1.737-.346 1.737-2.06 0-.989.043-1.845-.608-2.127z" fill-rule="nonzero"/><path d="M54.982 33h-3.06c-.413 0-.652-.14-.652-.585v-6.107c0-.52.402-.553.652-.553h.467c.467 0 .587.27.587.553v5.26a98.834 98.834 0 0 1 2.007-.021c.554 0 .586.39.586.619v.28c0 .446-.295.555-.587.555zm5.07-2.809v2.224c0 .379-.196.586-.586.586h-.468c-.411 0-.65-.14-.65-.586v-2.137l-2.161-3.699c-.064-.12-.12-.238-.12-.368 0-.37.359-.456.544-.456h.585c.38 0 .522.14.652.369l1.369 2.375 1.398-2.386c.132-.217.273-.357.652-.357h.478c.552 0 .661.444.433.824l-2.126 3.611z"/></g><g fill="#FFF"><path d="M22.941 36.35l-1.433 6.107c-.098.402-.314.489-.662.489h-.706c-.412 0-.553-.217-.64-.478-.315-.91-.63-2.028-.912-2.929-.272.901-.597 2.018-.912 2.93-.086.26-.24.477-.663.477h-.705c-.347 0-.543-.087-.64-.489l-1.444-6.106a.656.656 0 0 1-.022-.163c0-.337.184-.488.673-.488h.542c.445 0 .532.282.587.532l.89 4.458-.076.043c.337-1.095.76-2.798.934-3.275.087-.228.271-.413.619-.413h.424c.358 0 .553.185.628.413.175.477.685 2.375 1.01 3.47l-.206.034.945-4.73c.054-.26.13-.531.575-.531h.543c.477 0 .673.174.673.466 0 .054 0 .108-.022.184z"/><path d="M27.131 43.173c-2.518 0-3.224-1.746-3.224-3.839 0-2.104.706-3.84 3.224-3.84 2.518 0 3.234 1.736 3.234 3.84 0 2.093-.716 3.84-3.234 3.84zm1.248-5.608c-.206-.433-.662-.596-1.248-.596s-1.032.164-1.238.596c-.195.412-.228 1.226-.228 1.768 0 .543.033 1.345.228 1.757.206.434.652.608 1.238.608s1.042-.174 1.248-.608c.196-.411.228-1.214.228-1.757 0-.542-.022-1.355-.228-1.768zm8.456 5.381h-.652c-.293 0-.532-.044-.77-.336L33.6 40.397h-.152v1.963c0 .38-.196.586-.586.586h-.466c-.413 0-.652-.14-.652-.586v-6.107c0-.52.401-.553.652-.553h2.018c1.151 0 1.488.076 1.954.532.434.423.597 1.139.597 2.05 0 .955-.315 1.79-1.335 2.04l1.531 1.778c.227.27.324.846-.326.846zm-1.791-5.738c-.152-.065-.597-.065-.77-.065-.272 0-.554 0-.826.01v1.8h1.107c.652 0 .717-.118.717-.758 0-.207 0-.878-.228-.987z" fill-rule="nonzero"/><path d="M43.847 42.946h-.75c-.325 0-.51-.075-.738-.315l-2.04-2.18v1.91c0 .379-.196.585-.587.585h-.466c-.413 0-.652-.14-.652-.586v-6.107c0-.52.402-.553.652-.553h.466c.467 0 .587.27.587.553v2.137l2.03-2.364c.206-.25.369-.326.705-.326h.554c.619 0 .597.532.38.77l-2.649 2.852 2.823 2.756c.303.303.303.868-.315.868z"/></g><g fill="#FFF"><path d="M19.11 52.132c-.423.77-1.51.857-2.367.857-.63 0-1.248-.044-1.617-.077-.543-.043-.673-.205-.673-.488v-.357c0-.478.108-.63.542-.63.327 0 .446.022.673.044.217.021.532.043 1.238.043s.75-.02.75-.552.054-.663-.305-.803c-.456-.184-.922-.369-1.379-.554-1.172-.487-1.433-.748-1.433-2.049 0-1.03.228-1.78 1.498-1.953.348-.044.738-.044 1.216-.044.5 0 .782.022 1.249.054.553.033.684.207.684.489v.347c0 .477-.109.629-.543.629-.39 0-.77-.054-1.172-.054-.207 0-.586-.011-.792-.011-.5 0-.468.227-.468.64 0 .304.011.379.305.509.293.12.607.24.9.36 1.585.65 1.911.823 1.911 2.081 0 .413-.012 1.14-.217 1.519z"/><path d="M24.916 50.397c-.423.195-.814.238-1.606.238h-.901v1.671c0 .38-.195.586-.586.586h-.467c-.412 0-.651-.14-.651-.586v-6.107c0-.522.401-.554.651-.554h2.019c1.15 0 1.487.076 1.954.532.435.422.597 1.139.597 2.05 0 1.063-.272 1.823-1.01 2.17zm-.912-3.243c-.152-.076-.63-.065-.803-.065-.271 0-.533 0-.793.01v2.094h1.107c.163 0 .49 0 .608-.152.119-.163.109-.716.109-.9 0-.207 0-.88-.228-.987zm8.803 5.736h-.597c-.413 0-.542-.215-.629-.444l-.336-.889c-.522.011-.825.011-1.303.011-.489 0-.89 0-1.303-.01l-.293.813c-.108.304-.228.52-.672.52h-.5c-.5 0-.553-.162-.553-.379 0-.065.044-.205.098-.357l2.236-5.998c.13-.359.282-.553.76-.553h.444c.466 0 .63.195.76.541l2.355 6.108c.022.065.044.13.044.205 0 .369-.327.433-.51.433zm-2.876-5.02l-.836 2.407c.239 0 .521-.01.847-.01.326 0 .499.01.825.01l-.836-2.408z" fill-rule="nonzero"/><path d="M38.581 52.979c-.466.032-.748.053-1.248.053-2.637 0-3.267-1.236-3.267-3.676 0-3.146 1.064-3.786 3.267-3.786.5 0 .783.022 1.248.054.555.033.685.207.685.488v.348c0 .476-.108.629-.543.629-.39 0-.77-.055-1.172-.055-.347 0-.9.033-1.14.13-.607.262-.597 1.063-.597 2.203 0 1.106.022 1.996.923 2.158.184.033.477.043.814.043.402 0 .782-.054 1.172-.054.435 0 .543.152.543.63v.346c0 .282-.13.456-.685.489zm5.938-.089h-3.376c-.413 0-.652-.14-.652-.585v-6.107c0-.521.402-.554.652-.554h3.376c.293 0 .586.11.586.554v.282c0 .228-.033.619-.586.619-.858 0-1.683-.021-2.323-.033v1.388c.575-.01 1.237-.032 2.073-.032.555 0 .598.39.598.619v.14c0 .229-.043.62-.598.62-.836 0-1.498-.023-2.073-.034v1.703c.64-.01 1.466-.032 2.323-.032.554 0 .586.39.586.619v.281c0 .445-.293.553-.586.553z"/></g><g fill="#FFBE2D"><path d="M33.361 75.082a1.246 1.246 0 1 1 .403-2.46 1.246 1.246 0 1 1-.403 2.46zm.365-2.233a1 1 0 0 0-1.15.843 1 1 0 0 0 .823 1.163.996.996 0 0 0 1.146-.842.996.996 0 0 0-.819-1.164zm-.013 1.708l-.186-.572-.17-.028-.086.528-.244-.04.216-1.33.5.082c.252.04.399.256.362.477a.373.373 0 0 1-.32.317l.204.61-.276-.044zm-.035-1.157l-.225-.037-.065.402.225.037c.13.02.232-.054.251-.166.017-.113-.057-.216-.186-.236z" fill-rule="nonzero"/><path d="M37.545 75.249a.889.889 0 0 1-.69.232.878.878 0 0 1-.625-.303c-.224-.256-.203-.526-.172-.997.032-.469.047-.74.302-.963a.878.878 0 0 1 .66-.218c.517.033.797.393.837.817l-.374-.025c-.045-.272-.212-.442-.486-.46a.488.488 0 0 0-.37.126c-.13.123-.166.26-.199.75-.032.49-.014.632.098.77.079.098.205.16.35.171a.519.519 0 0 0 .41-.145.553.553 0 0 0 .148-.376l.009-.137-.521-.035.02-.315.892.06-.025.374c-.02.314-.09.513-.264.674z"/><path d="M38.625 74.764c-.002.298.155.489.44.49a.52.52 0 0 0 .426-.176l.222.211a.814.814 0 0 1-.655.268c-.438-.003-.784-.235-.78-.9.004-.563.298-.888.745-.885.469.003.738.349.735.844v.156l-1.133-.008zm.74-.477a.361.361 0 0 0-.344-.223.364.364 0 0 0-.348.22.552.552 0 0 0-.047.236l.785.004a.55.55 0 0 0-.046-.237z" fill-rule="nonzero"/><path d="M40.902 75.524c-.285.013-.528-.026-.742-.219l.219-.24c.147.139.339.168.51.16.214-.008.378-.092.37-.257-.004-.117-.072-.189-.242-.196l-.279-.011c-.328-.015-.523-.153-.537-.459-.014-.34.269-.545.633-.56.262-.012.487.033.654.167l-.21.233c-.114-.089-.27-.115-.435-.108-.21.008-.312.106-.306.237.004.102.063.18.248.188l.277.012c.327.014.527.16.54.47.017.364-.284.566-.7.583zm2.328-.198l-.017-.174a.621.621 0 0 1-.442.24.61.61 0 0 1-.443-.114c-.146-.117-.204-.278-.223-.473l-.11-1.107.35-.034.104 1.055c.026.27.192.372.387.352.195-.019.347-.156.32-.422l-.104-1.055.35-.035.17 1.732-.342.035zm2.064-.285l-.165-1.049c-.043-.269-.214-.359-.408-.329-.193.03-.337.176-.296.44l.166 1.049-.347.054-.271-1.721.34-.053.027.174a.627.627 0 0 1 .429-.267.605.605 0 0 1 .449.09c.153.108.22.265.25.457l.174 1.1-.348.055z"/><path d="M47.274 74.653l-.039-.18a.532.532 0 0 1-.407.299.601.601 0 0 1-.45-.062c-.21-.134-.292-.422-.349-.68-.055-.261-.098-.554.037-.762a.591.591 0 0 1 .381-.242c.181-.039.333-.026.489.094l-.186-.86.343-.074.52 2.393-.339.074zm-.668-1.34c-.31.065-.3.338-.234.642.066.301.17.557.48.49.31-.066.295-.342.23-.644-.066-.303-.165-.555-.476-.488z" fill-rule="nonzero"/><path d="M49.29 74.143l-.283-1.03c-.07-.255-.25-.327-.44-.276-.189.052-.31.21-.24.461l.283 1.03-.338.093-.647-2.359.338-.092.233.848a.6.6 0 0 1 .382-.307c.375-.103.653.091.753.455l.296 1.083-.338.094z"/><path d="M50.248 73.047c.095.284.304.413.575.324a.52.52 0 0 0 .345-.305l.278.13a.826.826 0 0 1-.534.464c-.415.138-.817.03-1.027-.6-.179-.535-.005-.937.42-1.08.443-.148.81.094.966.563l.05.147-1.073.357zm.546-.689a.356.356 0 0 0-.396-.1.363.363 0 0 0-.26.318.55.55 0 0 0 .033.24l.743-.247a.532.532 0 0 0-.12-.21zm.566-1.094l-.131-.347.346-.132.133.347-.347.132zm.756 1.943l-.622-1.626.327-.126.623 1.627-.328.125z" fill-rule="nonzero"/><path d="M53.562 72.631c-.302.126-.532-.032-.628-.262l-.37-.887-.184.078-.104-.247.184-.077-.203-.489.323-.135.204.489.312-.13.102.247-.311.13.362.87c.05.118.136.162.257.113l.133-.056.116.276-.193.08zm1.219-.523c-.259.12-.497.18-.77.083l.112-.308c.188.072.376.026.531-.048.194-.09.314-.23.245-.379-.05-.105-.142-.147-.3-.088l-.263.096c-.308.114-.542.06-.672-.217-.144-.308.04-.606.37-.76.235-.11.461-.155.669-.096l-.106.295c-.139-.037-.293-.003-.443.067-.19.088-.248.219-.192.336.044.093.127.143.303.08l.259-.096c.308-.114.548-.055.678.225.157.33-.044.635-.42.81zm.834-2.052l.667 1.282-.312.162-.668-1.281-.177.092-.124-.238.178-.092-.126-.238c-.116-.223-.088-.501.2-.652l.197-.101.14.265-.139.072c-.117.062-.138.156-.078.27l.116.221.31-.16.124.239-.308.159z"/><path d="M56.077 69.09l-.187-.322.275-.159.186.321-.274.16zm1.862 1.107a.702.702 0 0 1-.349.441.697.697 0 0 1-.553.082c-.23-.065-.375-.235-.523-.49-.148-.254-.222-.465-.167-.697a.704.704 0 0 1 .346-.44.7.7 0 0 1 .557-.083c.23.066.375.236.522.488.148.255.225.468.167.699zm-1.22-1.482l-.186-.321.275-.16.186.323-.274.158zm.405.606a.355.355 0 0 0-.274.044.354.354 0 0 0-.17.214c-.038.146.042.31.136.474.095.163.2.314.346.352a.369.369 0 0 0 .443-.258c.038-.145-.041-.31-.136-.473-.095-.163-.2-.315-.345-.353z" fill-rule="nonzero"/><path d="M58.815 68.299c-.11-.026-.182-.024-.285.04-.16.1-.212.312-.084.516l.564.896-.297.187-.928-1.475.289-.183.101.16a.58.58 0 0 1 .282-.424.54.54 0 0 1 .44-.082l-.082.365z"/><path d="M60.813 68.522l-.107-.15c-.014.204-.103.324-.256.435a.6.6 0 0 1-.438.121c-.245-.04-.435-.27-.59-.487-.152-.216-.31-.47-.268-.713a.598.598 0 0 1 .254-.372c.152-.11.294-.156.486-.108l-.512-.716.287-.203 1.423 1.993-.279.2zm-1.144-.967c-.257.184-.14.43.039.682.18.252.38.445.636.261.257-.184.136-.43-.044-.684-.18-.25-.372-.443-.63-.26zm1.678-.396c.187.234.429.284.652.107a.519.519 0 0 0 .22-.405l.307.026a.82.82 0 0 1-.343.62c-.342.271-.758.307-1.173-.212-.35-.442-.325-.88.024-1.158.366-.293.794-.192 1.103.196l.098.121-.888.705zm.278-.836a.36.36 0 0 0-.406.043.364.364 0 0 0-.137.388.536.536 0 0 0 .114.214l.614-.489a.55.55 0 0 0-.185-.156z" fill-rule="nonzero"/><path d="M62.992 65.046c-.114-.005-.184.006-.274.086-.143.124-.161.343-.004.523l.702.795-.263.232-1.155-1.31.26-.226.124.14c-.014-.15.063-.333.212-.463a.533.533 0 0 1 .42-.15l-.022.373zm2.138-.194l-.122-.124a.628.628 0 0 1-.195.464.603.603 0 0 1-.418.186c-.186 0-.332-.088-.469-.228l-.779-.797.25-.245.744.76c.19.194.38.17.522.032.14-.137.174-.338-.014-.53l-.743-.76.251-.243 1.22 1.245-.247.24zm1.437-1.512l-.786-.717c-.199-.183-.388-.148-.522-.002-.133.144-.154.347.045.528l.784.716-.238.258-1.286-1.173.231-.254.129.118a.626.626 0 0 1 .168-.474.607.607 0 0 1 .408-.21c.187-.011.337.069.482.201l.821.751-.236.257z"/><path d="M68.166 62.594c-.168.204-.321.295-.57.33l-.03-.315c.15-.02.25-.062.36-.195.186-.229.096-.45-.084-.598l-.173-.142a.53.53 0 0 1-.132.474.584.584 0 0 1-.383.225c-.237.023-.444-.11-.673-.298-.228-.188-.402-.363-.424-.6a.599.599 0 0 1 .148-.423.536.536 0 0 1 .45-.222l-.144-.117.217-.264 1.341 1.099c.331.27.391.686.097 1.046zm-1.66-1.414c-.2.246-.017.45.197.624.213.174.449.315.65.07.2-.245.015-.447-.198-.62-.213-.175-.448-.318-.65-.074z" fill-rule="nonzero"/><path d="M69.463 59.698c-.208.304-.429.472-.756.531l-.063-.342c.25-.047.407-.176.55-.383.18-.263.173-.494-.023-.629a.327.327 0 0 0-.265-.065c-.083.018-.138.056-.238.163l-.196.213a.831.831 0 0 1-.426.272c-.162.034-.323-.005-.486-.118-.352-.242-.417-.662-.127-1.081.181-.267.379-.407.66-.468l.058.328c-.206.043-.342.161-.458.331-.164.238-.118.462.061.585a.29.29 0 0 0 .24.052.548.548 0 0 0 .248-.162l.192-.207c.157-.167.274-.24.41-.272.171-.045.353.001.527.12.372.256.385.71.092 1.132zm1.162-1.8c-.204.335-.61.539-1.17.199-.559-.34-.56-.791-.355-1.127a.71.71 0 0 1 .507-.364l.073.327c-.159.032-.242.083-.313.2a.387.387 0 0 0-.036.356c.043.115.134.202.307.307.175.106.299.149.42.134a.398.398 0 0 0 .3-.196c.07-.117.076-.214.032-.371l.321-.086a.717.717 0 0 1-.086.62zm1.049-1.887l-.942-.508c-.234-.126-.411-.047-.504.126-.093.173-.062.37.167.494l.942.51-.167.308-2.156-1.165.167-.31.776.42a.586.586 0 0 1 .042-.49c.185-.343.519-.409.851-.228l.991.534-.167.31zm1.186-2.451l-.125.27-1.277-.136.936.878-.127.274-1.812-.239.156-.337 1.257.208-.946-.882.114-.248 1.286.149-.975-.82.158-.341z"/><path d="M72.593 52.18c.28.108.513.029.615-.239a.518.518 0 0 0-.014-.459l.276-.132a.816.816 0 0 1 .018.708c-.157.406-.498.648-1.118.408-.527-.204-.724-.593-.564-1.01.169-.436.588-.565 1.051-.387l.144.056-.408 1.055zm-.184-.86a.359.359 0 0 0-.329.241.366.366 0 0 0 .082.403.56.56 0 0 0 .203.128l.283-.73a.541.541 0 0 0-.239-.042zm-.485-1.119l-.352-.118.12-.352.351.12-.119.35zm1.978.66l-1.65-.559.113-.331 1.65.559-.113.332z" fill-rule="nonzero"/><path d="M74.193 50.003l-.267-.079-.856-1.16-.234.785-.3-.09.358-1.198.266.08.855 1.165.25-.835.3.088z"/><path d="M10.842 19.89l-.337.074a.882.882 0 0 1-.146.517.877.877 0 0 1-.566.402c-.333.075-.562-.075-.959-.327-.399-.253-.63-.396-.704-.729a.877.877 0 0 1 .125-.683.881.881 0 0 1 .569-.405c.333-.074.558.078.956.33.352.224.57.358.668.612l.33-.076.064.285zm-1.98-.794a.5.5 0 0 0-.324.227.502.502 0 0 0-.069.39c.047.17.15.266.566.529.415.265.544.318.72.286a.496.496 0 0 0 .323-.227.416.416 0 0 0 .068-.253l-.357.079-.064-.286.328-.073c-.071-.119-.206-.217-.473-.387-.414-.262-.543-.317-.719-.285z" fill-rule="nonzero"/><path d="M11.671 18.573c-.296.4-.795.502-1.202.202l-1.306-.964.22-.3 1.292.955c.264.194.546.155.727-.091.182-.247.14-.53-.123-.725l-1.293-.954.22-.299 1.307.965c.408.3.455.81.158 1.21z"/><path d="M13.472 16.291l-.485-.19-.623.738.267.446-.255.302-1.291-2.263.194-.229 2.449.892-.256.304zm-1.863-.73l.584.993.487-.576-1.07-.416z" fill-rule="nonzero"/><path d="M13.997 15.709l-1.767-1.694.257-.266 1.526 1.464.817-.852.24.232zm1.412-1.436l-1.694-1.77.27-.256 1.692 1.77zm-.006-2.853l1.389 1.594-.28.244-1.389-1.594-.508.442-.219-.251 1.296-1.128.22.25z"/><path d="M15.999 10.149l-.229-.293.25-.195.228.293-.249.195zm.586-.458l-.23-.293.248-.195.23.293-.248.195zm2.018 1.852l-.435-.282-.762.594.17.491-.31.245-.804-2.481.236-.185 2.217 1.374-.312.244zm-1.675-1.095l.37 1.09.592-.463-.962-.627z" fill-rule="nonzero"/><path d="M18.527 9l1.21 1.734-.305.213-1.21-1.734-.554.385-.191-.274 1.411-.983.192.274zm2.715.778c-.313.192-.584.257-.908.178l.083-.338c.246.06.442.003.656-.129.272-.167.36-.38.234-.583-.056-.09-.129-.15-.215-.166-.082-.018-.15-.006-.283.052l-.268.116a.841.841 0 0 1-.498.077c-.162-.035-.293-.136-.398-.306-.223-.363-.112-.774.322-1.04.276-.17.513-.218.794-.16l-.08.323c-.205-.044-.377.01-.553.118-.247.15-.295.373-.182.558.047.077.112.13.198.145a.551.551 0 0 0 .294-.047l.26-.111c.211-.09.348-.11.485-.084.176.03.323.145.433.324.236.384.062.804-.374 1.073zm1.775-1.026c-.326.174-.6.223-.918.125l.103-.333c.242.074.441.029.662-.09.282-.15.381-.36.269-.57-.05-.093-.12-.157-.205-.178-.082-.021-.149-.015-.285.035l-.276.1a.836.836 0 0 1-.502.047c-.16-.043-.285-.152-.379-.328-.201-.376-.066-.78.382-1.02.286-.153.525-.188.802-.114l-.098.318c-.202-.056-.378-.013-.56.085-.255.137-.316.357-.214.548a.292.292 0 0 0 .19.156.56.56 0 0 0 .296-.03l.265-.095c.216-.078.354-.09.49-.057.174.041.314.164.413.349.214.4.016.81-.435 1.052zm1.237-.657l-1.057-2.206.335-.16 1.056 2.206zm.951-.453l-.954-2.254 1.44-.609.13.307-1.098.465.279.657.937-.395.129.304-.938.396.287.676 1.099-.464.13.307zm3.241-1.533c-.11.247-.3.4-.544.485a.889.889 0 0 1-.694-.033c-.307-.147-.394-.405-.55-.85-.156-.443-.25-.699-.102-1.006a.877.877 0 0 1 .52-.457c.49-.173.89.049 1.093.421l-.354.125c-.147-.233-.368-.323-.628-.232a.496.496 0 0 0-.29.262c-.071.163-.051.302.112.767.163.462.235.587.392.67a.49.49 0 0 0 .39.02.516.516 0 0 0 .32-.294.553.553 0 0 0-.012-.405l-.045-.13-.493.173-.105-.298.843-.296.125.353c.105.298.117.508.022.725zm.853 0l-.663-2.36 1.509-.422.09.322-1.15.322.193.688.982-.274.09.317-.982.276.199.707 1.15-.321.091.32zm2.033-.546l-.51-2.39.362-.078.442 2.065 1.152-.246.07.326zm41.42 40.317c.472-2.267.721-4.614.721-7.021 0-18.898-15.33-34.216-34.242-34.216-1.466 0-2.91.092-4.327.27l-.305-2.404a37.175 37.175 0 0 1 4.632-.29c20.252 0 36.67 16.404 36.67 36.64 0 2.577-.267 5.091-.772 7.516l-2.377-.495zM30.461 71.943C15.8 68.072 4.99 54.727 4.99 38.86a34.072 34.072 0 0 1 3.693-15.473L6.52 22.284A36.465 36.465 0 0 0 2.562 38.86c0 16.994 11.578 31.286 27.28 35.428l.62-2.346z"/></g></g></svg>