<svg width="82" height="61" viewBox="0 0 82 61" xmlns="http://www.w3.org/2000/svg"><title>praedikat-und</title><g fill="#952742" fill-rule="evenodd"><path d="M1.086 30.11h1.896v-2.47h.88v2.47h2.323v.981H.207v-3.45h.88z"/><path d="M6.185 23.302l-.76.256v2.246l.76.256v1.034L.207 25.027v-.692l5.978-2.066v1.033zm-4.347 1.375l2.707.828v-1.648l-2.707.82z" fill-rule="nonzero"/><path d="M6.185 15.324v.982H2.487l3.698 1.495v.743l-3.698 1.494h3.698v.982H.207v-.939l4.45-1.913-4.45-1.904v-.94h5.978zM.207 13.478v-1.016h5.978v1.016zM5.305 7.79h.88v2.827H.207v-.982h5.098zM.207 6.355V5.339h5.978v1.016zm.879-3.844h1.691V.043h.88v2.468h1.648V.043h.88v3.45H.207V.043h.88zm9.419 44.861v-.982h3.98c.683 0 1.263-.461 1.263-1.161 0-.718-.58-1.18-1.263-1.18h-3.98v-.981h3.98c1.161 0 2.143.845 2.143 2.16 0 1.29-.982 2.144-2.143 2.144h-3.98zm4.253-9.464h-4.253v-.982h5.978v1.076l-4.253 2.366h4.253v.982h-5.978v-1.076z"/><path d="M10.505 33.27c0-1.981 1.477-3.1 2.989-3.1 1.512 0 2.99 1.119 2.99 3.1v1.939h-5.98V33.27zm.88.957h4.218v-.957c0-1.332-1.042-2.092-2.11-2.092-1.067 0-2.108.76-2.108 2.092v.957zm-.88-8.337v-2.041c0-1.64.99-1.922 1.614-1.922.752 0 1.213.555 1.324 1.05 0-.384.444-1.101 1.349-1.101.623 0 1.69.325 1.69 1.964v2.05h-5.977zm2.51-2.041c0-.803-.52-.94-.81-.94-.3 0-.82.137-.82.94v1.059h1.63v-1.059zm.88 1.059h1.708v-1.11c0-.803-.495-.94-.845-.94-.3 0-.863.18-.863.931v1.119z" fill-rule="nonzero"/><path d="M11.384 19.373h1.691v-2.468h.88v2.468h1.648v-2.468h.88v3.45h-5.978v-3.45h.88z"/><path d="M10.505 15.102v-2.144c0-1.28.965-2.109 2.092-2.109.854 0 1.614.478 1.939 1.264l1.947-1.187v1.119l-1.793 1.093v.982h1.793v.982h-5.978zm2.092-3.27c-.658 0-1.213.443-1.213 1.126v1.162h2.426v-1.162c0-.683-.555-1.127-1.213-1.127z" fill-rule="nonzero"/><path d="M10.505 9.43v-.982h3.98c.683 0 1.263-.46 1.263-1.161 0-.717-.58-1.179-1.263-1.179h-3.98v-.982h3.98c1.161 0 2.143.846 2.143 2.16 0 1.29-.982 2.144-2.143 2.144h-3.98zm.879-6.918h1.896V.044h.88v2.468h2.323v.982h-5.978V.044h.88zm55.13 38.1h-1.97v9.507h1.97c2.965 0 4.685-2.31 4.685-4.754 0-2.445-1.72-4.753-4.685-4.753zM32.026 29.32c0-.624-.422-1.152-1.071-1.152H29.85v2.305h1.104c.649 0 1.07-.528 1.07-1.152zm5.323 0c0-.624-.422-1.152-1.071-1.152h-1.103v2.305h1.103c.649 0 1.07-.528 1.07-1.152zm3.343 2.134h1.566l-.779-2.571z"/><path d="M69.745.055H21.321v48.426c0 6.686 5.42 12.106 12.106 12.106h32.21c9.618 0 16.215-4.792 16.215-15.715v-32.71c0-6.687-5.42-12.107-12.107-12.107zm-6.283 27.278h3.749v.835h-1.412v4.844h-.933v-4.844h-1.404v-.835zm-12.334 0h.965v5.68h-.965v-5.68zm-6.175 0h1.841c1.883 0 2.946 1.403 2.946 2.84 0 1.436-1.063 2.84-2.946 2.84h-1.841v-5.68zm-2.54-1.915zm-1.858 0zm-6.314 1.915h2.037c1.217 0 2.004.917 2.004 1.988 0 .811-.454 1.533-1.2 1.841l1.127 1.85h-1.063l-1.038-1.704h-.933v1.704h-.934v-5.68zm-5.323 0h2.037c1.217 0 2.004.917 2.004 1.988 0 1.07-.787 1.988-2.004 1.988H29.85v1.703h-.933v-5.68zm12.29 20.545c0 3.26-2.377 5.817-6.18 5.817-3.78 0-6.157-2.558-6.157-5.817V37.443h3.668v10.412c0 1.449.996 2.671 2.49 2.671 1.493 0 2.512-1.222 2.512-2.67V37.442h3.667v10.435zm1.578-14.866l-.244-.722h-2.134l-.243.722h-.982l1.963-5.68h.658l1.963 5.68h-.981zm14.787 20.276h-3.825L48.043 43.1v10.187h-3.667V37.443h3.826l5.727 10.322V37.443h3.644v15.845zm.403-20.276h-1.169l-2.11-2.49v2.49h-.932v-5.68h.933v2.5l2.11-2.5h1.168l-2.402 2.84 2.402 2.84zm1.696 0h-.982l1.964-5.68h.657l1.963 5.68h-.982l-.243-.722h-2.134l-.243.722zm7.023 20.276h-5.818V37.443h5.818c5.251 0 8.24 3.87 8.24 7.922s-2.966 7.923-8.24 7.923z" fill-rule="nonzero"/><path d="M48.782 30.173c0-1.015-.722-2.005-1.988-2.005h-.908v4.009h.908c1.266 0 1.988-.99 1.988-2.004zM60.2 31.454h1.565l-.778-2.571z"/></g></svg>