<svg xmlns="http://www.w3.org/2000/svg" width="171" height="78" viewBox="0 0 311.81 142.58"><defs><style>.cls-1{fill:#e4032e}.cls-2{fill:#fff}</style></defs><title>Top_Employer_Switzerland_2019</title><g id="red_seal" data-name="red seal"><g id="red_back" data-name="red back"><path class="cls-1" d="M298.25 117.14H13.56A17.3 17.3 0 0 1 0 110.52v18.23a13.73 13.73 0 0 0 13.56 13.83h284.69a13.73 13.73 0 0 0 13.56-13.83v-18.23a17.29 17.29 0 0 1-13.56 6.62"/><path class="cls-1" d="M298.25 0H150.76a17.87 17.87 0 0 1 6.49 13.82v85.53a17.87 17.87 0 0 1-6.49 13.83h147.49a13.73 13.73 0 0 0 13.56-13.83V13.82A13.73 13.73 0 0 0 298.25 0"/><path class="cls-1" d="M139.81 0H0v99.35a13.73 13.73 0 0 0 13.56 13.83h126.25a13.73 13.73 0 0 0 13.56-13.83V13.82A13.73 13.73 0 0 0 139.81 0"/></g><g id="Top_Employers" data-name="Top Employers"><path class="cls-2" d="M31.65 95.12h2.58v-2.63h-2.58zm77.87-6.61h6.87v-1.76h-8.7v14.63h9v-1.75h-7.14zm17.1 6.69l-.16-.22a4 4 0 0 0 3-4 4.13 4.13 0 0 0-1.35-3.16c-.89-.79-1.79-1-3.6-1H119v14.63h1.83v-5.99h3.79a12.35 12.35 0 0 1 1.06 1.54 20.26 20.26 0 0 1 2.33 4.38h1.9a16.39 16.39 0 0 0-1.13-2.74 15.46 15.46 0 0 0-2.16-3.44zm-1.88-1.45h-3.94v-5.38h4a2.45 2.45 0 0 1 2.69 2.72c.01 1.76-.94 2.66-2.75 2.66zM30 88.51h6.86v-1.76h-8.7v14.63h9v-1.75H30zm55.6-2a6.08 6.08 0 0 0-5.12 2.13A7.54 7.54 0 0 0 78.64 94a7.64 7.64 0 0 0 1.83 5.54 6.11 6.11 0 0 0 5 2.1 6.2 6.2 0 0 0 5.14-2.15 7.7 7.7 0 0 0 1.81-5.45 7.59 7.59 0 0 0-1.81-5.46 6 6 0 0 0-5.02-2.1zM85.51 100c-3.13 0-4.93-2.25-4.93-6.09s1.74-5.77 4.9-5.77c3.32 0 5 2 5 5.95.04 3.74-1.78 5.91-4.97 5.91zm25.67-4.89h2.59v-2.62h-2.59zm-64 3.44L41 86.75h-1.84L39 101.38h1.82V90.15l5.86 11.23h.82l5.83-11.16v11.16h1.76V86.75h-1.82zm52.43-4.65l-4.78-7.15h-2.15l5.92 8.78v5.85h1.85V95.5l6.17-8.75h-2.12zM63 86.75h-5.56v14.63h1.83v-5.75h3.79a4.24 4.24 0 0 0 4.5-4.51A4.63 4.63 0 0 0 66.4 88a4.1 4.1 0 0 0-3.4-1.25zM62.76 94h-3.49v-5.58h3.51c1.89 0 2.84.92 2.84 2.76S64.69 94 62.76 94zm8.61-7.2h-1.82v14.63h8.69v-1.7h-6.87zM56.18 24.64H39.39V13.19H28.16v58h11.23V36.1h4.79a25.27 25.27 0 0 1 12-11.46m51.49 0h-1.9v11.45h1.9a11.82 11.82 0 0 1-.48 23.62h-3.56V24.62H92.39v35.11h-4a25.31 25.31 0 0 1-12 11.45h16v11.45h11.24V71.18h3.56a23.29 23.29 0 0 0 .48-46.56zM87.29 57a.61.61 0 0 1 0-.12 23.44 23.44 0 0 0 1.29-4.27.19.19 0 0 0 0-.07c.15-.75.26-1.5.34-2.27a22.82 22.82 0 0 0 .12-2.35 23.48 23.48 0 0 0-3.59-12.5 22.78 22.78 0 0 0-16.9-10.66c-.76-.07-1.54-.11-2.33-.11a22.82 22.82 0 0 0-21 14.07c0 .09-.07.17-.11.27-.26.63-.5 1.28-.71 1.95a1.05 1.05 0 0 1 0 .19c-.18.62-.34 1.25-.47 1.89 0 .11 0 .21-.07.31-.13.69-.24 1.38-.31 2.09v.28c-.06.73-.11 1.47-.11 2.22a23.81 23.81 0 0 0 1 6.95A22.69 22.69 0 0 0 87.29 57zm-20.86 2.73h-.14a11.52 11.52 0 1 1 .14 0zM14.73 36.1H26V24.64H14.73zm112.56-11.48a3.84 3.84 0 1 0 3.77 3.84 3.81 3.81 0 0 0-3.77-3.84m0 6.86a3 3 0 1 1 3-3 3 3 0 0 1-3 3z"/><path class="cls-2" d="M129 30.14a5.51 5.51 0 0 0-.28-.69 4.92 4.92 0 0 0-.42-.71 1.14 1.14 0 0 0 .59-1 1.18 1.18 0 0 0-.38-.9 1.32 1.32 0 0 0-1-.3H126v3.9h.81V29l.58-.06a4.28 4.28 0 0 1 .26.36 4.78 4.78 0 0 1 .53 1v.12h.82l-.08-.25m-1.42-2h-.76v-.91h.78c.31 0 .45.15.45.46s-.11.45-.44.45zM21.36 132.06v1a5.59 5.59 0 0 1-2.43.54 3.82 3.82 0 0 1-4.1-4.16 4.21 4.21 0 0 1 1.73-3.64 3.92 3.92 0 0 1 2.27-.59 4.29 4.29 0 0 1 2.21.53l.13.06v1a4.44 4.44 0 0 0-2.44-.68c-1.81 0-2.83 1.13-2.83 3.14a3.27 3.27 0 0 0 .71 2.36 2.87 2.87 0 0 0 2.27 1 5.57 5.57 0 0 0 2.48-.61m6.54.48v.97h-4.97v-8.1h4.82v.97h-3.81v2.46h3.38v.94h-3.38v2.76h3.96m2.74-2.31v3.28h-1v-8.11h3.05a2.6 2.6 0 0 1 2 .59 2.27 2.27 0 0 1 .75 1.75 2.2 2.2 0 0 1-1.65 2.22l.08.12a8.7 8.7 0 0 1 1.21 1.91 9.47 9.47 0 0 1 .62 1.52h-1a11 11 0 0 0-1.36-2.46 6.25 6.25 0 0 0-.61-.85h-2.09m0-1h2.18a1.33 1.33 0 0 0 1.52-1.47 1.36 1.36 0 0 0-1.49-1.51h-2.21zm5.81-3.79h6.09v.99h-2.53v7.11H39l-.02-7.11h-2.53v-.99m7.25-.01h1.01v8.1H43.7zm4.15 4.61v3.5h-1.01v-8.1h4.76v.97h-3.75v2.66h3.17v.97h-3.17m5.21-4.61h1.01v8.1h-1.01zm8.11 7.14v.97H56.2v-8.1h4.81v.97h-3.8v2.46h3.38v.94h-3.38v2.76h3.96m1.72-7.14h3.29c2.18 0 3.62 1.62 3.62 4.05a3.93 3.93 0 0 1-1.06 2.86 3.65 3.65 0 0 1-2.91 1.2h-2.94v-8.11m1 7.16h2.16c1.68 0 2.7-1.18 2.7-3.15a3.62 3.62 0 0 0-.53-2 2.24 2.24 0 0 0-2-1H63.9zm15.94-.02v.97h-4.97v-8.1h4.82v.97h-3.8v2.46h3.37v.94h-3.37v2.76h3.95m.78-7.13h1.28l2.6 3.18 2.58-3.18h1.24l-3.21 3.93 3.31 4.17h-1.27l-2.61-3.32-2.72 3.32h-1.2l3.32-4.07-3.32-4.03m14.81 6.7v1a5.59 5.59 0 0 1-2.43.54 3.82 3.82 0 0 1-4.1-4.16 4.21 4.21 0 0 1 1.73-3.64 3.92 3.92 0 0 1 2.27-.59 4.29 4.29 0 0 1 2.21.53l.13.06v1a4.44 4.44 0 0 0-2.44-.68c-1.81 0-2.83 1.13-2.83 3.14a3.23 3.23 0 0 0 .71 2.36 2.87 2.87 0 0 0 2.27 1 5.57 5.57 0 0 0 2.48-.61m6.54.48v.97h-4.97v-8.1h4.81v.97H98v2.46h3.37v.94H98v2.76h3.96m6.54.02v.95h-4.82v-8.1h1.02v7.15h3.8m5.99 0v.95h-4.82v-8.1h1.02v7.15h3.8m6.15-.02v.97h-4.97v-8.1h4.81v.97h-3.8v2.46h3.37v.94h-3.37v2.76h3.96m1.72-7.13h.92l5.03 6.34v-6.34h.96v8.1h-.82l-5.13-6.38v6.38h-.96v-8.1m15.27 6.7v1a5.59 5.59 0 0 1-2.43.54 3.82 3.82 0 0 1-4.1-4.16 4.21 4.21 0 0 1 1.73-3.64 3.93 3.93 0 0 1 2.28-.59 4.28 4.28 0 0 1 2.2.53l.13.06v1a4.44 4.44 0 0 0-2.44-.68c-1.81 0-2.82 1.13-2.82 3.14a3.23 3.23 0 0 0 .7 2.36 2.87 2.87 0 0 0 2.27 1 5.57 5.57 0 0 0 2.48-.61m6.54.48v.97h-4.97v-8.1h4.82v.97h-3.81v2.46h3.38v.94h-3.38v2.76h3.96m4.94-7.14h1.01v8.1h-1.01zm3.14.01h.91l5.03 6.34v-6.34h.97v8.1h-.83l-5.12-6.38v6.38h-.96v-8.1m17.21 7.13v.97h-4.97v-8.1h4.81v.97h-3.8v2.46h3.37v.94h-3.37v2.76h3.96m1.82-7.13h1.03l3.41 6.53 3.36-6.53h1.02v8.09l-.98.01v-6.19l-3.23 6.19h-.45l-3.25-6.22v6.22h-1.01l.1-8.1m11.96 4.91v3.19h-1v-8.11h3.08a2.26 2.26 0 0 1 1.88.67 2.54 2.54 0 0 1 .65 1.75 2.35 2.35 0 0 1-2.49 2.5h-2.1m0-.93h1.93c1.07 0 1.58-.5 1.58-1.53a1.37 1.37 0 0 0-1.57-1.53h-1.94zm10.84 3.17v.95h-4.81v-8.1h1.01v7.15h3.8m.71-3.13a4.16 4.16 0 0 1 1-3 4 4 0 0 1 5.64 0 5.06 5.06 0 0 1 0 6 3.44 3.44 0 0 1-2.85 1.19 3.38 3.38 0 0 1-2.79-1.16 4.23 4.23 0 0 1-1-3.06m1.07 0c0 2.12 1 3.36 2.73 3.36s2.78-1.2 2.78-3.27-1-3.29-2.79-3.29-2.72 1.11-2.72 3.18zm10.25.86l-3.28-4.85h1.19l2.65 3.96 2.7-3.96h1.19l-3.43 4.84v3.26h-1.02v-3.25m10.4 2.28v.97h-4.97v-8.1h4.81v.97h-3.8v2.46h3.37v.94h-3.37v2.76h3.96m6.69 0v.97h-4.97v-8.1h4.82v.97h-3.81v2.46h3.38v.94h-3.38v2.76h3.96m11.19-.43v1a5.62 5.62 0 0 1-2.43.54 3.82 3.82 0 0 1-4.1-4.16 4.22 4.22 0 0 1 1.72-3.64 4 4 0 0 1 2.28-.59 4.26 4.26 0 0 1 2.2.53l.14.06v1a4.47 4.47 0 0 0-2.45-.68c-1.81 0-2.82 1.13-2.82 3.14a3.27 3.27 0 0 0 .7 2.36 2.89 2.89 0 0 0 2.28 1 5.64 5.64 0 0 0 2.48-.61m1.12-2.63a4.16 4.16 0 0 1 1-3 4 4 0 0 1 5.64 0 5.06 5.06 0 0 1 0 6 3.44 3.44 0 0 1-2.85 1.19 3.38 3.38 0 0 1-2.79-1.16 4.23 4.23 0 0 1-1-3.06m1.07 0c0 2.12 1 3.36 2.73 3.36s2.78-1.2 2.78-3.27-1-3.29-2.79-3.29-2.72 1.11-2.72 3.18zm8.39-3.99h.92l5.03 6.34v-6.34h.96v8.1h-.82l-5.13-6.38v6.38h-.96v-8.1m9.01-.01h3.29c2.18 0 3.62 1.62 3.62 4.05a4 4 0 0 1-1.06 2.86 3.69 3.69 0 0 1-2.92 1.2H254v-8.11m1 7.16h2.16c1.68 0 2.69-1.18 2.69-3.15a3.7 3.7 0 0 0-.52-2 2.24 2.24 0 0 0-2.05-1H255zm7.77-7.16h1.01v8.1h-1.01zm2.19.01h6.09v.99h-2.52v7.11h-1.02l-.02-7.11h-2.53v-.99m7.26-.01h1.01v8.1h-1.01zm2.84 4.03a4.12 4.12 0 0 1 1-3 4 4 0 0 1 5.63 0 5.06 5.06 0 0 1 0 6 3.41 3.41 0 0 1-2.84 1.19 3.37 3.37 0 0 1-2.79-1.16 4.19 4.19 0 0 1-1-3.06m1.08 0c0 2.12 1 3.36 2.73 3.36s2.77-1.2 2.77-3.27-.95-3.29-2.79-3.29-2.71 1.11-2.71 3.18zm8.38-3.99h.92l5.03 6.34v-6.34h.96v8.1h-.82l-5.12-6.38v6.38h-.97v-8.1m8.74 6.49a9 9 0 0 0 1.72.72 3.94 3.94 0 0 0 .93.12c1 0 1.45-.4 1.45-1.2a1.22 1.22 0 0 0-.83-1.25l-1.88-1c-.79-.41-1.09-.71-1.28-1.19a2.15 2.15 0 0 1-.12-.67c0-1.34 1.11-2.16 2.9-2.16a5.18 5.18 0 0 1 2.08.39v1.1a4.73 4.73 0 0 0-2.17-.56c-1.25 0-1.75.32-1.75 1.11 0 .52.11.68.69 1l2.23 1.19a2 2 0 0 1 1.21 1.86c0 1.44-1 2.32-2.62 2.32a5.26 5.26 0 0 1-2.56-.65v-1.1"/></g><path class="cls-2" d="M167.88 89.81v-2a8 8 0 0 1 4.6-1.47c2.75 0 4.58 1.56 4.58 3.9a5.16 5.16 0 0 1-1.67 3.65c-.33.38-.75.8-1.28 1.31l-4.58 4.52h7.71v1.65h-10v-1.69l5.41-5.4a10.63 10.63 0 0 0 2.18-2.56 3 3 0 0 0 .33-1.38c0-1.56-.88-2.31-2.69-2.31a6.61 6.61 0 0 0-4.59 1.78zm11.12 4.3a11.38 11.38 0 0 1 1-5.31 5.34 5.34 0 0 1 8.93 0 12.94 12.94 0 0 1 .84 5.26 11.71 11.71 0 0 1-.93 5.28 4.56 4.56 0 0 1-4.31 2.27c-3.92-.02-5.53-2.22-5.53-7.5zm1.89 0a11.51 11.51 0 0 0 .55 4.23 3.33 3.33 0 0 0 5.77 0 9.5 9.5 0 0 0 .61-4.19 12.75 12.75 0 0 0-.52-4.48 2.75 2.75 0 0 0-2.84-1.71 3 3 0 0 0-3 1.69 12 12 0 0 0-.57 4.41zM195.47 89a8.48 8.48 0 0 1-2.7 1.38v-1.93a9 9 0 0 0 3.23-1.89h1.3v14.85h-1.81zM210 94.49a5.09 5.09 0 0 1-3.83 1.51 4.49 4.49 0 0 1-4.8-4.64 5 5 0 0 1 5.26-4.94 4.71 4.71 0 0 1 4.91 3.76 14.74 14.74 0 0 1 .37 3.61c0 2.85-.48 4.77-1.56 6.06a5.14 5.14 0 0 1-4.07 1.78 11.92 11.92 0 0 1-4-.71v-1.85a7.56 7.56 0 0 0 3.83.9 3 3 0 0 0 2.9-1.34 5.13 5.13 0 0 0 .68-1.65 8.86 8.86 0 0 0 .27-2.21zm-.2-3.39a3.12 3.12 0 0 0-3.36-3.1 2.87 2.87 0 0 0-3.09 3.19 2.83 2.83 0 0 0 3.13 3.18c2.09 0 3.28-1.09 3.28-3z"/></g><path class="cls-2" d="M167.27 49.81a17 17 0 0 0 3.14 1.28 7.12 7.12 0 0 0 1.7.22c1.77 0 2.66-.72 2.66-2.16a2.2 2.2 0 0 0-1.53-2.25l-3.44-1.81c-1.44-.74-2-1.26-2.34-2.14a3.65 3.65 0 0 1-.22-1.2c0-2.4 2-3.88 5.31-3.88a9.81 9.81 0 0 1 3.81.7v2a8.78 8.78 0 0 0-4-1c-2.29 0-3.2.57-3.2 2 0 .94.19 1.22 1.26 1.76l4.08 2.14a3.52 3.52 0 0 1 2.2 3.34c0 2.57-1.83 4.17-4.77 4.17a9.71 9.71 0 0 1-4.69-1.18zm23.73.37V52a10.2 10.2 0 0 1-4.45 1c-4.66 0-7.5-2.84-7.5-7.49a7.48 7.48 0 0 1 3.16-6.52 7.29 7.29 0 0 1 4.17-1.07 8 8 0 0 1 4 1l.24.11v1.85a8.34 8.34 0 0 0-4.48-1.22c-3.31 0-5.17 2-5.17 5.65a5.77 5.77 0 0 0 1.29 4.24 5.37 5.37 0 0 0 4.17 1.81 10.52 10.52 0 0 0 4.57-1.18zm4.34-4.18v6.69h-1.85V38.13h1.85v6.18h7.86v-6.18h1.87v14.55h-1.87V46zm11.41-7.87h1.86l3.68 11.09 3.6-11.09h1.51l3.64 11 3.69-11h1.83l-4.95 14.55h-1.31l-3.73-11.3-3.75 11.3h-1.25zM237 50.94v1.74h-9.1V38.13h8.82v1.75h-7v4.43h6.17V46h-6.17v4.95zm4.59 1.74h-1.85V38.13h1.85zm2.41-1.87l8.62-10.93h-8.25v-1.75h10.43V40l-8.6 10.93h8.88v1.74H244zm-76.73 17.45a16.38 16.38 0 0 0 3.14 1.29 7.12 7.12 0 0 0 1.7.22c1.77 0 2.66-.72 2.66-2.16a2.2 2.2 0 0 0-1.53-2.25l-3.44-1.81c-1.44-.74-2-1.26-2.34-2.14a3.65 3.65 0 0 1-.22-1.2c0-2.4 2-3.88 5.31-3.88a9.81 9.81 0 0 1 3.81.7v2a8.78 8.78 0 0 0-4-1c-2.29 0-3.2.57-3.2 2 0 .93.19 1.22 1.26 1.76l4.08 2.14a3.52 3.52 0 0 1 2.2 3.34c0 2.57-1.83 4.17-4.77 4.17a9.71 9.71 0 0 1-4.69-1.18zm12.17-11.67h1.87v9.89c0 2.09 1.45 3.33 3.91 3.33s3.95-1.24 3.95-3.33v-9.89H191v9.73c0 1.84-.37 2.82-1.51 3.75a6.08 6.08 0 0 1-4.23 1.34 6.17 6.17 0 0 1-4.12-1.27c-1.33-1.07-1.68-1.88-1.68-3.82zm16.66 14.55h-1.85V56.59h1.85zm2.9-2.88a16.38 16.38 0 0 0 3.14 1.29 7.19 7.19 0 0 0 1.7.22c1.77 0 2.66-.72 2.66-2.16a2.19 2.19 0 0 0-1.5-2.25l-3.45-1.81c-1.44-.74-2-1.26-2.33-2.14a3.41 3.41 0 0 1-.22-1.2c0-2.4 2-3.88 5.3-3.88a9.82 9.82 0 0 1 3.82.7v2a8.85 8.85 0 0 0-4-1c-2.29 0-3.21.57-3.21 2 0 .93.2 1.22 1.26 1.76l4.08 2.14a3.53 3.53 0 0 1 2.21 3.34c0 2.57-1.83 4.17-4.78 4.17a9.71 9.71 0 0 1-4.68-1.21zm11.85 0a16.92 16.92 0 0 0 3.15 1.29 7.21 7.21 0 0 0 1.71.22c1.76 0 2.66-.72 2.66-2.16a2.2 2.2 0 0 0-1.53-2.25l-3.45-1.81c-1.44-.74-2-1.26-2.33-2.14a3.65 3.65 0 0 1-.22-1.2c0-2.4 2-3.88 5.3-3.88A9.82 9.82 0 0 1 220 57v2a8.81 8.81 0 0 0-4-1c-2.29 0-3.21.57-3.21 2 0 .93.2 1.22 1.27 1.76l4.08 2.14a3.54 3.54 0 0 1 2.2 3.34c0 2.57-1.83 4.17-4.78 4.17a9.76 9.76 0 0 1-4.69-1.18zm21.45 1.14v1.74h-9.1V56.59h8.8v1.75h-7v4.43h6.18v1.68H225v5z" id="Country"/></svg>