<svg id="Layer_1" xmlns="http://www.w3.org/2000/svg" viewBox="0 0 300 300" width="80" height="95"><style>.st0{fill:#b53027}.st1{fill:url(#SVGID_1_)}.st2{fill:none;stroke:#fff;stroke-width:1.6651;stroke-miterlimit:10}.st3{fill:#fff}.st4{opacity:.3;fill:url(#SVGID_2_)}.st5{opacity:.4;fill:url(#SVGID_3_)}.st6{fill:url(#SVGID_4_)}.st7{fill:url(#SVGID_5_)}.st8{opacity:.8;fill:url(#SVGID_6_)}.st9{opacity:.5;fill:url(#SVGID_7_)}.st10{fill:url(#SVGID_8_)}.st11{fill:url(#SVGID_9_)}.st12{fill:url(#SVGID_10_)}.st13{fill:url(#SVGID_11_)}.st14{opacity:.8;fill:url(#SVGID_12_)}.st15{opacity:.5;fill:url(#SVGID_13_)}.st16{opacity:.3;fill:url(#SVGID_14_)}.st17{fill:url(#SVGID_15_)}.st18{opacity:.8;fill:url(#SVGID_16_)}.st19{fill:url(#SVGID_17_)}.st20{opacity:.6;fill:url(#SVGID_18_)}.st21{opacity:.7;fill:url(#SVGID_19_)}.st22{opacity:.8;fill:url(#SVGID_20_)}.st23{opacity:.5;fill:url(#SVGID_21_)}.st24,.st25{opacity:.5;fill:url(#SVGID_22_)}.st25{fill:url(#SVGID_23_)}.st26{opacity:.8;fill:url(#SVGID_24_)}.st27{fill:url(#SVGID_25_)}.st28{opacity:.9;fill:url(#SVGID_26_)}.st29,.st30{opacity:.8;fill:url(#SVGID_27_)}.st30{fill:url(#SVGID_28_)}.st31{opacity:.3;fill:url(#SVGID_29_)}.st32{fill:#414242}</style><path class="st0" d="M274.1 124.7C274.1 56.2 218.5.6 150 .6S25.9 56.2 25.9 124.7c0 20.4 26.5 130 26.5 130l97.6 42.7 97.6-42.7s26.5-109.6 26.5-130z"/><linearGradient id="SVGID_1_" gradientUnits="userSpaceOnUse" x1="150" y1="-15.179" x2="150" y2="320.149"><stop offset="0" stop-color="#f48f63"/><stop offset=".505" stop-color="#ef612b"/><stop offset="1" stop-color="#d34227"/></linearGradient><path class="st1" d="M274.1 124.7C274.1 56.2 218.5.6 150 .6S25.9 56.2 25.9 124.7c0 20.4 26.5 130 26.5 130l97.6 42.7 97.6-42.7s26.5-109.6 26.5-130z"/><path class="st2" d="M56.7 251.5c-7.9-33-26-111.4-26-127.2C30.7 58.5 84.2 5 150 5s119.3 53.5 119.3 119.3c0 15.8-18.1 94.2-26 127.2L150 292.4l-93.3-40.9z"/><path class="st3" d="M85.2 208.6h129.6c25.3-19.5 41.6-50 41.6-84.4 0-58.8-47.6-106.4-106.4-106.4-58.8 0-106.4 47.6-106.4 106.4 0 34.4 16.3 65 41.6 84.4zm52.5 61.3H128v-1.7l3.7-3.7c1.1-1.1 1.8-1.9 2.2-2.4s.6-.9.8-1.3.2-.8.2-1.3c0-.6-.2-1.2-.6-1.5s-.9-.6-1.6-.6c-.5 0-1.1.1-1.6.3s-1.1.6-1.8 1.1l-1.2-1.5c.8-.7 1.6-1.1 2.3-1.4s1.5-.4 2.4-.4c1.3 0 2.4.3 3.2 1s1.2 1.6 1.2 2.8c0 .6-.1 1.3-.3 1.8s-.6 1.2-1.1 1.8-1.3 1.4-2.4 2.5l-2.5 2.4v.1h6.8v2zm11.4-7.2c0 2.5-.4 4.3-1.2 5.5s-2 1.8-3.7 1.8c-1.6 0-2.8-.6-3.6-1.9s-1.2-3.1-1.2-5.5c0-2.5.4-4.4 1.2-5.6s2-1.8 3.6-1.8 2.8.6 3.6 1.9 1.3 3.2 1.3 5.6zm-7.3 0c0 1.9.2 3.3.6 4.2s1 1.2 1.9 1.2 1.5-.4 1.9-1.3.6-2.2.6-4.2c0-1.9-.2-3.3-.6-4.2s-1-1.3-1.9-1.3-1.5.4-1.9 1.3-.6 2.4-.6 4.3zm15.8 7.2h-2.3v-9.2c0-1.1 0-2 .1-2.6-.1.2-.3.3-.6.5s-.9.8-2.2 1.8l-1.2-1.5 4.2-3.3h1.9v14.3zm9.5-14.5c1.4 0 2.4.3 3.2.9s1.2 1.5 1.2 2.5c0 1.5-.9 2.6-2.6 3.5 1.1.6 1.9 1.1 2.4 1.8s.7 1.3.7 2.1c0 1.2-.4 2.1-1.3 2.8s-2 1.1-3.5 1.1-2.8-.3-3.6-1-1.3-1.6-1.3-2.8c0-.8.2-1.5.7-2.1s1.2-1.2 2.2-1.7c-.9-.5-1.5-1.1-1.9-1.7s-.6-1.2-.6-2c0-1 .4-1.9 1.2-2.5s1.9-.9 3.2-.9zm-2.6 10.8c0 .7.2 1.2.7 1.6s1.1.6 1.9.6c.8 0 1.5-.2 2-.6s.7-.9.7-1.6c0-.5-.2-1-.6-1.4s-1.1-.8-2-1.2l-.3-.1c-.9.4-1.5.8-1.9 1.2s-.5.9-.5 1.5zm2.6-9c-.7 0-1.2.2-1.6.5s-.6.8-.6 1.3c0 .3.1.6.2.9s.4.5.6.7.7.5 1.4.8c.8-.3 1.3-.7 1.7-1.1s.5-.8.5-1.3c0-.6-.2-1-.6-1.3s-.9-.5-1.6-.5z"/><radialGradient id="SVGID_2_" cx="151.061" cy="175.712" r="65.326" fx="139.583" fy="185.97" gradientTransform="matrix(1 0 0 .09221 0 159.509)" gradientUnits="userSpaceOnUse"><stop offset="0" stop-color="#221f1f"/><stop offset="1" stop-color="#221f1f" stop-opacity="0"/></radialGradient><path class="st4" d="M191.3 173.6l-44.2-1.1-41.8 1.4-7.9 2.9 32 2.1 47.8-.2 27.5-2.3z"/><radialGradient id="SVGID_3_" cx="148.09" cy="176.564" r="21.451" fx="139.128" fy="177.428" gradientTransform="matrix(1 0 0 .069 0 164.38)" gradientUnits="userSpaceOnUse"><stop offset="0" stop-color="#221f1f"/><stop offset="1" stop-color="#221f1f" stop-opacity="0"/></radialGradient><path class="st5" d="M169.7 176.6c0 1-9.6 1.8-21.5 1.8s-21.5-.8-21.5-1.8 9.6-1.8 21.5-1.8c11.8 0 21.5.8 21.5 1.8z"/><radialGradient id="SVGID_4_" cx="148.143" cy="67.833" r="105.684" gradientUnits="userSpaceOnUse"><stop offset="0" stop-color="#ef612b"/><stop offset="1" stop-color="#8d1a1e"/></radialGradient><path class="st6" d="M139.1 176.6l-21-13.1L94 133.9l-.6-3.7 5.1-25 1.5-22.7 36.6-21.8 29 6.9 27.8 12.2 13.2 40.9-16.7 40.5-21.4 9.5z"/><linearGradient id="SVGID_5_" gradientUnits="userSpaceOnUse" x1="152.375" y1="121.019" x2="153.257" y2="102.273"><stop offset="0" stop-color="#ef612b" stop-opacity=".6"/><stop offset="1" stop-color="#f48f63" stop-opacity="0"/></linearGradient><path class="st7" d="M193.4 79.8l-27.8-12.2-29-6.9L100 82.5l89.9 78.7 16.7-40.5z"/><linearGradient id="SVGID_6_" gradientUnits="userSpaceOnUse" x1="145.017" y1="121.759" x2="146.432" y2="120.126"><stop offset="0" stop-color="#fff"/><stop offset=".124" stop-color="#fff" stop-opacity=".876"/><stop offset="1" stop-color="#fff" stop-opacity="0"/></linearGradient><path class="st8" d="M193.4 79.8l-27.8-12.2-29-6.9L100 82.5l89.9 78.7 16.7-40.5z"/><linearGradient id="SVGID_7_" gradientUnits="userSpaceOnUse" x1="144.978" y1="121.805" x2="142.338" y2="124.792"><stop offset="0" stop-color="#8d1a1e" stop-opacity=".8"/><stop offset=".025" stop-color="#911d1e" stop-opacity=".788"/><stop offset=".324" stop-color="#b93a24" stop-opacity=".638"/><stop offset=".596" stop-color="#d74f28" stop-opacity=".502"/><stop offset=".831" stop-color="#e95c2a" stop-opacity=".385"/><stop offset="1" stop-color="#ef612b" stop-opacity=".3"/></linearGradient><path class="st9" d="M98.5 105.2l-5.1 25 .6 3.7 24.1 29.6 21 13.1 29.4-5.9 21.4-9.5L100 82.5z"/><linearGradient id="SVGID_8_" gradientUnits="userSpaceOnUse" x1="180.841" y1="164.047" x2="120.635" y2="95.019"><stop offset="0" stop-color="#8d1a1e" stop-opacity=".8"/><stop offset="1" stop-color="#8d1a1e" stop-opacity=".3"/></linearGradient><path class="st10" d="M99.8 84.4l89.6 77 .5-.2L100 82.5z"/><linearGradient id="SVGID_9_" gradientUnits="userSpaceOnUse" x1="93.386" y1="140.882" x2="189.902" y2="140.882"><stop offset="0" stop-color="#ef612b" stop-opacity=".6"/><stop offset="1" stop-color="#f48f63" stop-opacity="0"/></linearGradient><path class="st11" d="M118.1 163.5l21 13.1 29.4-5.9 21.4-9.5-91.4-56-5.1 25 .6 3.7z"/><linearGradient id="SVGID_10_" gradientUnits="userSpaceOnUse" x1="93.386" y1="140.882" x2="168.475" y2="140.882"><stop offset="0" stop-color="#ef612b" stop-opacity=".6"/><stop offset="1" stop-color="#f48f63" stop-opacity="0"/></linearGradient><path class="st12" d="M118.1 163.5l21 13.1 29.4-5.9-70-65.5-5.1 25 .6 3.7z"/><linearGradient id="SVGID_11_" gradientUnits="userSpaceOnUse" x1="136.574" y1="115.671" x2="206.611" y2="115.671"><stop offset="0" stop-color="#ef612b" stop-opacity=".6"/><stop offset="1" stop-color="#f48f63" stop-opacity="0"/></linearGradient><path class="st13" d="M206.6 120.7l-13.2-40.9-27.8-12.2-29-6.9 31.9 110 21.4-9.5z"/><linearGradient id="SVGID_12_" gradientUnits="userSpaceOnUse" x1="125.437" y1="109.491" x2="139.995" y2="112.813"><stop offset="0" stop-color="#fff"/><stop offset="1" stop-color="#fff" stop-opacity="0"/></linearGradient><path class="st14" d="M206.6 120.7l-13.2-40.9-27.8-12.2-29-6.9 31.9 110 21.4-9.5z"/><linearGradient id="SVGID_13_" gradientUnits="userSpaceOnUse" x1="149.583" y1="116.359" x2="193.831" y2="106.021"><stop offset="0" stop-color="#fff"/><stop offset="1" stop-color="#fff" stop-opacity="0"/></linearGradient><path class="st15" d="M206.6 120.7l-13.2-40.9-27.8-12.2-29-6.9 31.9 110 21.4-9.5z"/><linearGradient id="SVGID_14_" gradientUnits="userSpaceOnUse" x1="152.659" y1="115.634" x2="153.744" y2="115.33"><stop offset="0" stop-color="#fff"/><stop offset="1" stop-color="#fff" stop-opacity="0"/></linearGradient><path class="st16" d="M206.6 120.7l-13.2-40.9-27.8-12.2-29-6.9 31.9 110 21.4-9.5z"/><linearGradient id="SVGID_15_" gradientUnits="userSpaceOnUse" x1="99.963" y1="90.712" x2="206.611" y2="90.712"><stop offset="0" stop-color="#ef612b" stop-opacity=".6"/><stop offset="1" stop-color="#f48f63" stop-opacity="0"/></linearGradient><path class="st17" d="M165.6 67.6l-29-6.9L100 82.5l106.6 38.2-13.2-40.9z"/><linearGradient id="SVGID_16_" gradientUnits="userSpaceOnUse" x1="153.299" y1="101.612" x2="154.325" y2="98.817"><stop offset="0" stop-color="#fff"/><stop offset=".124" stop-color="#fff" stop-opacity=".876"/><stop offset="1" stop-color="#fff" stop-opacity="0"/></linearGradient><path class="st18" d="M165.6 67.6l-29-6.9L100 82.5l106.6 38.2-13.2-40.9z"/><linearGradient id="SVGID_17_" gradientUnits="userSpaceOnUse" x1="139.074" y1="128.205" x2="206.611" y2="128.205"><stop offset="0" stop-color="#8d1a1e" stop-opacity=".6"/><stop offset="1" stop-color="#ef612b" stop-opacity="0"/></linearGradient><path class="st19" d="M189.9 161.2l16.7-40.5-13.2-40.9-54.3 96.8 29.4-5.9z"/><linearGradient id="SVGID_18_" gradientUnits="userSpaceOnUse" x1="166.286" y1="128.242" x2="167.661" y2="129.006"><stop offset="0" stop-color="#fff"/><stop offset=".124" stop-color="#fff" stop-opacity=".876"/><stop offset="1" stop-color="#fff" stop-opacity="0"/></linearGradient><path class="st20" d="M189.9 161.2l16.7-40.5-13.2-40.9-54.3 96.8 29.4-5.9z"/><linearGradient id="SVGID_19_" gradientUnits="userSpaceOnUse" x1="203.007" y1="112.397" x2="180.281" y2="128.586"><stop offset="0" stop-color="#fff"/><stop offset="1" stop-color="#fff" stop-opacity="0"/></linearGradient><path class="st21" d="M193.4 79.8l-3.5 81.4 16.7-40.5z"/><linearGradient id="SVGID_20_" gradientUnits="userSpaceOnUse" x1="190.243" y1="120.393" x2="193.965" y2="120.679"><stop offset="0" stop-color="#fff"/><stop offset=".124" stop-color="#fff" stop-opacity=".876"/><stop offset="1" stop-color="#fff" stop-opacity="0"/></linearGradient><path class="st22" d="M193.4 79.8l-3.5 81.4 16.7-40.5z"/><linearGradient id="SVGID_21_" gradientUnits="userSpaceOnUse" x1="169.882" y1="169.464" x2="163.033" y2="144.558"><stop offset="0" stop-color="#8d1a1e" stop-opacity=".8"/><stop offset="1" stop-color="#ef612b" stop-opacity=".3"/></linearGradient><path class="st23" d="M168.5 170.7l21.4-9.5 16.7-40.5-88.5 42.8 21 13.1z"/><linearGradient id="SVGID_22_" gradientUnits="userSpaceOnUse" x1="150.98" y1="131.362" x2="163.031" y2="142.74"><stop offset="0" stop-color="#8d1a1e" stop-opacity=".8"/><stop offset=".025" stop-color="#911d1e" stop-opacity=".788"/><stop offset=".324" stop-color="#b93a24" stop-opacity=".638"/><stop offset=".596" stop-color="#d74f28" stop-opacity=".502"/><stop offset=".831" stop-color="#e95c2a" stop-opacity=".385"/><stop offset="1" stop-color="#ef612b" stop-opacity=".3"/></linearGradient><path class="st24" d="M168.5 170.7l21.4-9.5 16.7-40.5-88.5 42.8 21 13.1z"/><linearGradient id="SVGID_23_" gradientUnits="userSpaceOnUse" x1="98.492" y1="112.831" x2="160.483" y2="112.831"><stop offset="0" stop-color="#8d1a1e" stop-opacity=".8"/><stop offset="1" stop-color="#ef612b" stop-opacity=".25"/></linearGradient><path class="st25" d="M98.5 105.2l1.5-22.7 57.5 50.4 3 10.2z"/><linearGradient id="SVGID_24_" gradientUnits="userSpaceOnUse" x1="99.963" y1="80.195" x2="147.895" y2="80.195"><stop offset="0" stop-color="#fff"/><stop offset="1" stop-color="#fff" stop-opacity="0"/></linearGradient><path class="st26" d="M136.6 60.7l11.3 39L100 82.5z"/><linearGradient id="SVGID_25_" gradientUnits="userSpaceOnUse" x1="97.288" y1="117.082" x2="91.825" y2="130.972"><stop offset="0" stop-color="#fff"/><stop offset="1" stop-color="#fff" stop-opacity="0"/></linearGradient><path class="st27" d="M98.5 105.6l-5.1 24.6.6 3.7z"/><linearGradient id="SVGID_26_" gradientUnits="userSpaceOnUse" x1="193.768" y1="84.708" x2="161.703" y2="60.025"><stop offset="0" stop-color="#fff"/><stop offset="1" stop-color="#fff" stop-opacity="0"/></linearGradient><path class="st28" d="M165.6 67.6L192.7 81l.7-1.2z"/><linearGradient id="SVGID_27_" gradientUnits="userSpaceOnUse" x1="176.463" y1="100.287" x2="206.611" y2="100.287"><stop offset="0" stop-color="#fff"/><stop offset=".124" stop-color="#fff" stop-opacity=".876"/><stop offset="1" stop-color="#fff" stop-opacity="0"/></linearGradient><path class="st29" d="M193.4 79.8l-16.9 30.1 30.1 10.8z"/><linearGradient id="SVGID_28_" gradientUnits="userSpaceOnUse" x1="132.476" y1="156.94" x2="97.98" y2="125.443"><stop offset="0" stop-color="#fff"/><stop offset=".124" stop-color="#fff" stop-opacity=".876"/><stop offset="1" stop-color="#fff" stop-opacity="0"/></linearGradient><path class="st30" d="M94 133.9l52.3 16-28.2 13.6z"/><linearGradient id="SVGID_29_" gradientUnits="userSpaceOnUse" x1="128.557" y1="158.393" x2="128.004" y2="157.31"><stop offset="0" stop-color="#fff"/><stop offset="1" stop-color="#fff" stop-opacity="0"/></linearGradient><path class="st31" d="M94 133.9l52.3 16-28.2 13.6z"/><path class="st3" d="M149.2 222.9c-1-.8-2.9-1.3-6.4-1.3-4.2 0-6.2.7-7.3 1.6-1.3 1.1-2.1 3-2.1 6s.7 4.6 1.8 5.6 3.3 1.5 7.5 1.5c3.8 0 5.7-.3 6.4-.7.8-.4 1.4-1.5 1.5-2.1 0-.2-.1-.2-.3-.2-1.3.2-3.5.4-6.5.4-3.2 0-5.2-.2-6-.8-.7-.5-.9-1.5-.9-2.4 0-.5.2-.6 1.2-.6h12.2c.6 0 .8-.2.8-.9-.1-3.5-.8-5.3-1.9-6.1zm-1.7 4.5c-.2.2-.7.2-1.5.2h-8.1c-1 0-1.2-.1-1.2-.5 0-.7.3-1.8 1-2.3.7-.5 2.1-.9 4.9-.9 2.4 0 3.8.3 4.3.7.6.4.9 1.3.9 2.3-.2.2-.2.4-.3.5zm18.1-5.5c-.6-.3-1.8-.4-4.4-.4-2.3 0-4.6.2-7.3.5-.3 0-.4.1-.4.4v13.2c0 .3.1.4.4.4h2.5c.2 0 .3-.2.3-.4v-9.9c0-1.2.1-1.2 1-1.4 1.2-.1 3-.2 4.6-.2 2.1 0 3.7.1 4.3.2.2 0 .2-.1.2-.2.1-.5-.5-1.8-1.2-2.2zm18.1 6.7c-1.1-.8-11.1-.9-11.9-1.5-.2-.1-.2-.4-.2-.9 0-.8.3-1.4.6-1.7.5-.4 1.6-.6 5.2-.6 2.5 0 4.7.2 6.1.2.3 0 .3-.1.3-.2 0-.5-.6-1.5-1.2-1.8-.6-.3-2.4-.6-5.8-.6-4.3 0-6.3.6-7.2 1.5-.8.7-1.3 2.2-1.3 3.9 0 1 .1 2.1.5 2.4 1.2.8 10.8.8 11.7 1.5.2.2.3.5.3.9 0 .7-.2 1.3-.7 1.7-.5.3-1.7.5-4.7.5-2.4 0-4.8-.1-6.7-.4-.2 0-.3.1-.3.2 0 .5.7 1.6 1.3 2 .6.4 2.6.6 6 .6 4.5 0 6.3-.5 7.1-1.2.8-.7 1.4-2.1 1.4-4.1.1-1.1-.1-2.2-.5-2.4zm-73.6-6.9h-2.6c-.2 0-.4.1-.4.4v13.7c0 .2.1.4.3.4h2.6c.3 0 .4-.1.4-.4V222c0-.2 0-.3-.3-.3zm-27-.1h-2.5c-.2 0-.4.2-.4.4v9.8c0 .9-.2 1.1-1.2 1.3-1.2.1-2.8.2-4.1.2-2.8 0-4.2-.4-4.7-.9s-.8-1.4-.8-3.6v-6.5c0-.6-.2-.8-.7-.8h-2.1c-.2 0-.4.2-.4.5v7.9c0 2.8.3 4 1.1 4.7 1 .9 2.9 1.4 7 1.4 3.2 0 6.9-.3 8.6-.6.3-.1.4-.1.4-.4v-13c.2-.2.1-.4-.2-.4zm120.6 0h-2.5c-.2 0-.4.2-.4.4v9.7c0 .9-.2 1.1-1.2 1.3-1.2.1-2.8.2-4.1.2-2.8 0-4.2-.4-4.7-.9s-.7-1.4-.7-3.6v-6.3c0-.6-.2-.8-.7-.8h-2.1c-.2 0-.4.1-.4.3v7.9c0 2.8.3 3.9 1.1 4.7 1 .9 2.9 1.4 7 1.4 3.2 0 6.9-.3 8.6-.6.3-.1.4-.1.4-.4v-13c.1-.1 0-.3-.3-.3zm-71.1.1h-1.2c-1.5 0-1.9.3-2.3 1.4l-2.7 7.1c-.6 1.6-1.1 2.6-1.6 2.9-.4.3-1.1.4-2.1.4-1.3 0-2-.2-2.4-.5-.5-.4-.9-1-1.6-3l-2.5-7c-.3-1.1-.8-1.4-2.1-1.4h-1.5c-.3 0-.3.2-.2.4l3.3 9.2c.9 2.4 1.5 3.6 2.2 4.1.8.5 2.1.8 4.6.8 2.4 0 3.7-.3 4.5-.8.7-.5 1.4-1.7 2.4-4.2l3.5-9.2c0-.1 0-.2-.3-.2zm99.8 1.3c-1.2-1-3.9-1.5-11.6-1.5-5.9 0-10.2.4-13.1.6-.3 0-.4.1-.4.4v13.1c0 .3.1.4.3.4h2.5c.3 0 .5-.2.5-.5v-9.9c0-.9.1-1 .9-1.1 1.5-.2 3.9-.3 6.6-.3.6 0 .7.2.7.9v10.5c0 .3.1.4.3.4h2.5c.2 0 .4-.2.4-.5v-10.4c0-.6 0-.9.7-.9 4.2 0 6.2.4 6.8.9.6.6.8 1.3.8 3.9v6.2c0 .7.2.8.8.8h2.1c.2 0 .4-.1.4-.4V228c.1-3-.2-4.1-1.2-5zm-129.6-.2c-1-.9-2.7-1.3-6.7-1.3-3.3 0-6.9.3-9 .5-.3 0-.4.1-.4.4v13.3c0 .3.1.4.4.4h2.5c.2 0 .4-.1.4-.4v-10c0-.9.1-1.1.9-1.2 1.4-.1 2.9-.2 4.9-.2 2.5 0 3.7.3 4.2.9.5.5.9 1.4.9 3.8v6.4c0 .6.1.8.7.8h2.1c.2 0 .4-.1.4-.4v-8.1c0-2.9-.5-4.1-1.3-4.9z"/><path class="st32" d="M96 196c0 1.2-.4 2.1-1.3 2.8-.9.7-2 1-3.5 1-1.6 0-2.8-.2-3.7-.6v-1.5l1.8.6c.7.1 1.3.2 1.9.2 1.1 0 1.8-.2 2.4-.6.5-.4.8-1 .8-1.7 0-.5-.1-.9-.3-1.2-.2-.3-.5-.6-.9-.8-.4-.3-1.1-.5-2-.9-1.3-.5-2.2-1-2.7-1.6-.5-.6-.8-1.4-.8-2.4s.4-1.9 1.2-2.5c.8-.6 1.8-.9 3.1-.9s2.6.2 3.7.7l-.5 1.4c-1.1-.5-2.2-.7-3.3-.7-.8 0-1.5.2-2 .5-.5.4-.7.9-.7 1.5 0 .5.1.9.3 1.2.2.3.5.6.9.8.4.3 1 .5 1.9.8 1.4.5 2.4 1.1 2.9 1.6.5.6.8 1.4.8 2.3zm14.6 3.6H109l-2.7-9.1c-.1-.4-.3-.9-.4-1.5-.2-.6-.2-1-.3-1.1-.1.8-.4 1.7-.6 2.7l-2.7 9h-1.6L97.2 186h1.7l2.1 8.4c.3 1.2.5 2.2.6 3.2.2-1.1.4-2.2.7-3.3l2.4-8.2h1.7l2.6 8.3c.3 1 .5 2 .8 3.2.1-.9.3-1.9.7-3.2l2.1-8.4h1.7l-3.7 13.6zm5.8 0V186h1.6v13.6h-1.6zm9.4 0h-1.6v-12.2H120V186h10.2v1.4h-4.3v12.2zm14.6 0h-9.3v-1.2l7.2-10.9h-7V186h8.9v1.2l-7.2 10.9h7.4v1.5zm10.2 0H143V186h7.6v1.4h-6v4.4h5.6v1.4h-5.6v5h6v1.4zm4.6-5.6v5.6h-1.6V186h3.7c1.7 0 2.9.3 3.7 1 .8.6 1.2 1.6 1.2 2.9 0 1.8-.9 3-2.7 3.6l3.7 6.1h-1.9L158 194h-2.8zm0-1.4h2.2c1.1 0 1.9-.2 2.4-.7s.8-1.1.8-2c0-.9-.3-1.5-.8-1.9-.5-.4-1.4-.6-2.5-.6h-2v5.2zm10.1 7V186h1.6v12.1h6v1.4h-7.6zm18.4 0l-1.7-4.3h-5.4l-1.7 4.3h-1.6l5.4-13.6h1.3l5.3 13.6h-1.6zm-2.2-5.7l-1.6-4.2c-.2-.5-.4-1.2-.6-2-.1.6-.3 1.2-.6 2l-1.6 4.2h4.4zm16.3 5.7H196l-7.4-11.4h-.1c.1 1.3.1 2.6.1 3.7v7.7h-1.5V186h1.8l7.4 11.3h.1c0-.2 0-.7-.1-1.6 0-.9-.1-1.6 0-1.9V186h1.5v13.6zm14.6-6.9c0 2.2-.6 4-1.8 5.1-1.2 1.2-3 1.8-5.2 1.8h-3.8V186h4.2c2.1 0 3.7.6 4.9 1.8 1.1 1.2 1.7 2.8 1.7 4.9zm-1.7 0c0-1.8-.4-3.1-1.3-4s-2.2-1.3-4-1.3h-2.3v10.8h1.9c1.9 0 3.3-.5 4.2-1.4 1-.9 1.5-2.2 1.5-4.1zm-142.8-71l-12.2 4.1v.1h3.4l8.6.4-.1 1.5-13.6-.6.1-2.4 11.4-3.8v-.1l-11-4.8.1-2.4 13.6.6-.1 1.6-8.7-.4c-1 0-2.1-.1-3.3-.3v.1l11.8 5.2v1.2zm-3.1-23.6c2.1.5 3.7 1.4 4.6 2.8s1.2 3 .8 4.9c-.5 1.9-1.4 3.3-2.8 4.1-1.4.8-3.2.9-5.4.4-2.1-.5-3.7-1.4-4.6-2.8-.9-1.3-1.2-3-.7-4.9.4-1.9 1.4-3.2 2.9-4 1.3-.8 3.1-1 5.2-.5zm-2.5 10.6c1.8.4 3.2.4 4.3-.2s1.8-1.5 2.2-3c.3-1.5.1-2.7-.6-3.6-.7-1-2-1.7-3.8-2.1-1.8-.4-3.2-.4-4.3.2-1.1.5-1.8 1.5-2.2 3-.3 1.5-.1 2.7.6 3.7.8.9 2.1 1.5 3.8 2zm9.6-19.8c1.1.4 1.8 1.2 2.1 2.2.3 1.1.2 2.3-.4 3.6-.6 1.5-1.2 2.6-2 3.2l-1.4-.6c.4-.4.8-.9 1.2-1.5.4-.6.7-1.1.9-1.7.4-1 .5-1.8.3-2.4-.2-.6-.6-1.1-1.3-1.4-.4-.2-.8-.2-1.2-.2s-.7.3-1.1.6c-.4.3-.9.8-1.5 1.6-.9 1-1.7 1.6-2.5 1.9-.8.3-1.6.2-2.5-.1-1-.4-1.6-1.1-1.9-2-.3-1-.2-2 .3-3.2.5-1.3 1.2-2.3 2.1-3.2l1.1 1c-.9.9-1.5 1.8-1.9 2.8-.3.8-.4 1.4-.2 2 .2.6.5 1 1.1 1.2.4.2.8.2 1.2.2s.7-.2 1.1-.5c.4-.3.9-.8 1.5-1.4 1-1.1 1.9-1.8 2.6-2.1s1.5-.4 2.4 0zm6.4-4.5l-.8 1.4-10.7-5.9-2.1 3.8-1.1-.7 4.9-8.9 1.2.7-2.1 3.8 10.7 5.8zm11.2-15.5l-4.4-1.5-3.5 4.2 2.3 4-1 1.2L75.8 64l.8-1 13.9 4.6-1 1.3zm-5.8-2l-4.2-1.5c-.5-.2-1.2-.4-1.9-.8.4.5.7 1.1 1.1 1.7l2.2 3.9 2.8-3.3zm11-3.1l-1.2 1.1-8.2-8.9-3.2 2.9-1-1 7.5-6.9 1 1-3.2 2.9 8.3 8.9zm7.9-6.3l-1.3.9-7.1-9.9-3.4 2.5-.8-1.1 8.2-5.9.8 1.1-3.5 2.5 7.1 9.9zm3.7-9.1l2.7 5-1.4.7-6.4-11.9 3.3-1.8c1.5-.8 2.7-1.1 3.7-.9 1 .2 1.8.8 2.4 2 .9 1.6.6 3.1-.7 4.5l6.1 3.6-1.6.9-5.6-3.4-2.5 1.3zm-.7-1.2l1.9-1c1-.5 1.6-1.1 1.8-1.7.2-.6.2-1.3-.3-2.1-.4-.8-1-1.2-1.6-1.3s-1.5.1-2.5.7l-1.8 1 2.5 4.4zm21-2.2l-3.1-3.5-5.1 1.9-.1 4.6-1.5.6.3-14.6 1.2-.5 9.7 10.9-1.4.6zm-4.1-4.6l-2.9-3.4c-.4-.4-.8-1-1.3-1.6.1.6.1 1.3.1 2v4.5l4.1-1.5zm9.3-8.7c-1.4.4-2.4 1.1-2.9 2.2-.6 1.1-.6 2.5-.2 4.1.4 1.7 1.2 2.8 2.2 3.5s2.2.9 3.7.5c.9-.2 1.9-.7 2.9-1.3l.3 1.3c-.8.6-1.8 1-3.1 1.3-1.9.5-3.5.3-4.8-.6-1.3-.9-2.2-2.3-2.8-4.4-.3-1.3-.4-2.5-.2-3.6s.7-2 1.5-2.8c.8-.8 1.8-1.3 3-1.6 1.3-.3 2.6-.4 3.7-.2l-.3 1.4c-1-.1-2-.1-3 .2zm12.2 11l-1.6.1-1-12.1-4.3.3-.1-1.4 10.1-.8.1 1.4-4.3.3 1.1 12.2zm6-.2l.2-13.6h1.6l-.2 13.6H150zm14.2-12.6l1.7.2-6.3 13-1.5-.2-3.4-14 1.7.2 2.2 9.1c.2 1 .4 2 .5 3 .3-1 .7-1.9 1.2-2.9l3.9-8.4zm9 15.8l-7.4-1.8 3.2-13.2 7.4 1.8-.3 1.4-5.8-1.4-1 4.2 5.5 1.3-.3 1.4-5.5-1.3-1.2 4.9 5.8 1.4-.4 1.3zm13.9 5.5l-6.9-3.1 5.5-12.4 6.9 3.1-.6 1.3-5.5-2.4-1.8 4 5.1 2.3-.6 1.3-5.1-2.3-2 4.6 5.5 2.4-.5 1.2zm7.3 4.3l2.7-12.6h-.1c-.5.8-1 1.8-1.8 2.9l-4.7 7.2-1.2-.8 7.4-11.3 2 1.3-2.5 11.7h.1l9.8-7 2 1.3-7.4 11.3-1.3-.9 4.8-7.3c.5-.8 1.2-1.7 1.9-2.7h-.1l-10.5 7.5-1.1-.6zm21.5 5c-.9 1-2 1.5-3.2 1.4s-2.4-.7-3.7-1.9l-1.2-1.1-3.6 3.9-1.2-1.1 9.2-9.9 2.6 2.4c2.5 2.3 2.8 4.4 1.1 6.3zm-7.2-2.6l1 1c1 1 1.9 1.5 2.7 1.6.8.1 1.5-.2 2.2-1 .6-.7.8-1.3.7-2.1-.1-.7-.7-1.5-1.6-2.4l-1.3-1.2-3.7 4.1zm2.2 11.5l10.4-8.7 1 1.2-9.3 7.8 3.9 4.6-1.1.9-4.9-5.8zm18 13.7c-1.8 1.1-3.6 1.6-5.2 1.3s-3-1.2-4-2.9c-1.1-1.7-1.3-3.3-.9-4.9s1.6-2.9 3.5-4.1c1.9-1.2 3.6-1.6 5.2-1.3 1.6.3 2.9 1.3 4 3 1 1.7 1.3 3.3.8 4.9s-1.5 2.8-3.4 4zm-5.7-9.2c-1.6 1-2.5 2-2.9 3.2-.4 1.2-.2 2.4.6 3.6.8 1.3 1.8 2 3 2.1 1.2.2 2.6-.3 4.2-1.2 1.5-1 2.5-2 2.9-3.2.4-1.1.2-2.4-.6-3.6-.8-1.3-1.8-2-3-2.2-1.2 0-2.6.3-4.2 1.3zm8.6 15.6l7.7.6.7 1.6-9.4-.9-4.8 2.1-.6-1.5 4.8-2 5.9-7.5.7 1.6-5 6zm-1.7 16.3l-2.1-7.3 13-3.8 2.1 7.3-1.3.4-1.7-5.7-4.2 1.2 1.6 5.4-1.3.4-1.6-5.4-4.8 1.4 1.7 5.7-1.4.4zm6.4 3.2l-5.6.8-.2-1.6 13.4-2 .6 3.7c.2 1.6.1 2.9-.4 3.8s-1.4 1.4-2.7 1.6c-1.8.3-3.1-.5-4-2.2l-5.5 4.6-.3-1.8 5.1-4.1-.4-2.8zm1.3-.2l.3 2.1c.2 1.1.5 1.9 1 2.3s1.2.6 2.1.5c.9-.1 1.5-.5 1.8-1.1s.4-1.5.2-2.6l-.3-2-5.1.8zm-1.9 18.3c-1.2 0-2.1-.4-2.8-1.2s-1-2-1.1-3.5c0-1.6.1-2.8.5-3.7h1.5c-.2.6-.4 1.2-.5 1.8-.1.7-.2 1.3-.2 2 0 1.1.2 1.8.6 2.4s1 .8 1.7.8c.5 0 .9-.1 1.1-.3.3-.2.6-.5.8-1 .2-.4.5-1.1.8-2 .4-1.3.9-2.2 1.5-2.7s1.4-.8 2.4-.9c1 0 1.9.4 2.5 1.1s1 1.8 1 3.1-.2 2.6-.7 3.7l-1.4-.5c.4-1.1.7-2.2.6-3.3 0-.8-.2-1.5-.6-1.9-.4-.5-.9-.7-1.5-.7-.5 0-.9.1-1.1.3-.3.2-.6.5-.8.9s-.5 1.1-.8 1.9c-.5 1.4-1 2.4-1.6 3s-1 .7-1.9.7z"/></svg>