<?xml version="1.0" standalone="no"?> 
<!DOCTYPE svg PUBLIC "-//W3C//DTD SVG 1.1//EN" "http://www.w3.org/Graphics/SVG/1.1/DTD/svg11.dtd" >
<svg xmlns="http://www.w3.org/2000/svg">
<defs>
  <font id="Icons" horiz-adv-x="39">
    <font-face font-family="Icons"
      units-per-em="1001" ascent="1001"
      descent="0" />
    <missing-glyph horiz-adv-x="0" />
    <glyph glyph-name="ico_address"
      unicode="&#xEA01;"
      horiz-adv-x="1001" d=" M795.8575625 617.1165L514.889375 802.6143125C504.3163125 809.6213124999999 490.5525625 809.52746875 480.0420625 802.3327812499999L207.7075 616.8349687499999C196.35240625 609.1085 191.3786875 594.9068124999999 195.4139687500001 581.7686874999999C199.44925 568.6618437499999 211.586375 559.7154062499999 225.3188437500001 559.7154062499999H270.0197500000001V330.1110312499999C270.0197500000001 309.77821875 284.6593750000001 293.3555624999999 302.7086562500001 293.3555624999999H441.22203125L500.59384375 186.8429062499998L557.932375 293.3555624999999H694.9442499999999C712.9935312499999 293.3555624999999 727.6331562499998 309.7469375 727.6331562499998 330.1110312499999V559.7154062499999H778.6215937499999C792.4166249999998 559.7154062499999 804.6163124999998 568.7556874999999 808.5890312499998 581.9876562499999C812.56175 595.1883437500001 807.40034375 609.483875 795.8575625 617.1165zM565.40859375 369.21259375C565.40859375 358.7646562500001 561.15434375 350.31871875 555.89909375 350.31871875H441.7850937500001C436.5298437500001 350.31871875 432.2755937500001 358.7646562500001 432.2755937500001 369.21259375V500.5C432.2755937500001 510.9479375 436.52984375 519.393875 441.7850937500001 519.393875H555.89909375C561.1230625000001 519.393875 565.40859375 510.91665625 565.40859375 500.5V369.21259375z" />
    <glyph glyph-name="ico_allservices"
      unicode="&#xEA02;"
      horiz-adv-x="1067.7333333333333" d=" M266.9333333333334 934.2666666666667H1067.7333333333333V867.5333333333333H266.9333333333334V934.2666666666667z M266.9333333333334 667.3333333333333H1001V600.6H266.9333333333334V667.3333333333333z M266.9333333333334 400.4H1067.7333333333333V333.6666666666667H266.9333333333334V400.4z M266.9333333333334 133.4666666666667H867.5333333333333V66.7333333333334H266.9333333333334V133.4666666666667z M0 900.9C0 864.044197694625 29.8775310279584 834.1666666666666 66.7333333333333 834.1666666666666C103.5891356387083 834.1666666666666 133.4666666666667 864.044197694625 133.4666666666667 900.9C133.4666666666667 937.755802305375 103.5891356387083 967.6333333333334 66.7333333333333 967.6333333333334C29.8775310279584 967.6333333333334 0 937.755802305375 0 900.9z M0 633.9666666666667C0 597.1108643612918 29.8775310279584 567.2333333333333 66.7333333333333 567.2333333333333C103.5891356387083 567.2333333333333 133.4666666666667 597.1108643612918 133.4666666666667 633.9666666666667C133.4666666666667 670.8224689720416 103.5891356387083 700.7 66.7333333333333 700.7C29.8775310279584 700.7 0 670.8224689720416 0 633.9666666666667z M0 100.1C0 63.2441976946251 29.8775310279584 33.3666666666667 66.7333333333333 33.3666666666667C103.5891356387083 33.3666666666667 133.4666666666667 63.2441976946251 133.4666666666667 100.1C133.4666666666667 136.955802305375 103.5891356387083 166.8333333333334 66.7333333333333 166.8333333333334C29.8775310279584 166.8333333333334 0 136.955802305375 0 100.1z M0 367.0333333333333C0 330.1775310279584 29.8775310279584 300.3 66.7333333333333 300.3C103.5891356387083 300.3 133.4666666666667 330.1775310279584 133.4666666666667 367.0333333333333C133.4666666666667 403.8891356387083 103.5891356387083 433.7666666666667 66.7333333333333 433.7666666666667C29.8775310279584 433.7666666666667 0 403.8891356387083 0 367.0333333333333z" />
    <glyph glyph-name="ico_arrow_big_right"
      unicode="&#xEA03;"
      horiz-adv-x="2439.9375" d=" M2433.68125 481.7312499999999C2433.68125 481.7312499999999 2433.68125 481.7312499999999 2433.68125 481.7312499999999L1970.71875 6.25625C1964.4625 0 1951.95 0 1945.69375 0C1939.4375 0 1926.925 0 1920.6687500000005 6.25625C1908.1562500000005 18.76875 1908.1562500000005 37.5375 1920.6687500000005 50.05L2333.58125 462.9624999999999H31.28125C12.5125 469.21875 0 481.7312499999999 0 500.5S12.5125 531.78125 31.28125 531.78125H2333.5812499999997L1920.66875 944.69375C1908.1562499999995 957.20625 1908.1562499999995 975.975 1920.66875 988.4875C1939.4375 1001 1958.20625 1001 1970.71875 994.74375L2433.68125 525.5250000000001C2433.68125 525.5250000000001 2433.68125 525.5250000000001 2433.68125 519.2687500000001C2433.68125 519.2687500000001 2439.9375 513.0125 2439.9375 513.0125C2439.9375 506.75625 2439.9375 494.24375 2439.9375 487.9875000000001C2433.68125 487.9875000000001 2433.68125 481.7312499999999 2433.68125 481.7312499999999z" />
    <glyph glyph-name="ico_arrow_down"
      unicode="&#xEA04;"
      horiz-adv-x="632.2105263157895" d=" M7.8868263157895 302.4495157894737L315.9419421052632 0L629.4235315789473 302.2861947368422L592.8501526315788 340.2082894736842L342.3946842105263 98.6564526315789L342.4473684210526 990.3367157894738H289.7631578947368L289.7104736842105 99.5520842105262L44.7973842105263 340.0449684210526z" />
    <glyph glyph-name="ico_arrow_dropdown_breadcrumbs"
      unicode="&#xEA05;"
      horiz-adv-x="1601.6" d=" M800.8 0C780.78 0 740.74 20.02 720.72 40.0400000000001L20.02 840.84C-20.02 880.88 -20.02 940.94 20.02 980.98C60.06 1021.02 120.12 1021.02 160.16 980.98L800.8 260.26L1421.4199999999998 980.98C1461.4599999999998 1021.02 1521.5199999999998 1021.02 1561.56 980.98C1601.6 940.94 1601.6 880.88 1561.56 840.84L860.8599999999999 40.0400000000001C860.8599999999999 20.02 820.8199999999999 0 800.8 0z" />
    <glyph glyph-name="ico_arrow_mobile_navigation"
      unicode="&#xEA06;"
      horiz-adv-x="630.2592592592592" d=" M630.2592592592592 500.5C630.2592592592592 488.141975308642 624.0802469135803 481.9629629629629 617.9012345679013 475.7839506172839L49.4320987654321 6.1790123456789C43.2530864197531 -2e-13 37.0740740740741 -2e-13 30.8950617283951 -2e-13C24.7160493827161 -2e-13 12.3580246913581 6.1790123456789 6.1790123456791 12.3580246913577C-6.179012345679 24.7160493827157 0 43.2530864197528 12.3580246913581 55.6111111111107L556.1111111111111 500.5L12.358024691358 945.388888888889C0 957.7469135802468 0 976.283950617284 6.179012345679 988.641975308642C18.537037037037 1001 37.0740740740741 1001 49.4320987654321 994.820987654321L617.9012345679013 525.2160493827159C624.0802469135803 519.037037037037 630.2592592592592 512.858024691358 630.2592592592592 500.5z" />
    <glyph glyph-name="ico_arrow_small_right"
      unicode="&#xEA07;"
      horiz-adv-x="1787.5" d=" M1780.35 479.0500000000001L1780.35 479.0500000000001C1780.35 471.9 1780.35 471.9 1780.35 479.0500000000001L1329.8999999999999 14.3C1322.7499999999998 7.15 1315.6 0 1301.3 0C1294.1499999999999 0 1279.85 0 1279.85 7.15C1265.55 21.4499999999999 1265.55 42.9 1279.85 57.1999999999999L1673.1 464.7499999999999H35.75C14.3 464.75 0 479.0500000000001 0 500.5S14.3 536.25 35.75 536.25H1665.95L1272.7 943.8C1258.4 958.1 1258.4 979.55 1272.7 993.85C1287 1001 1308.45 1001 1322.75 986.7L1773.2 521.95C1773.2 521.95 1773.2 521.95 1773.2 521.95L1773.2 521.95C1773.2 521.95 1773.2 521.95 1773.2 514.8C1773.2 514.8 1780.3500000000001 507.65 1780.3500000000001 507.65C1780.3500000000001 500.5000000000001 1780.3500000000001 500.5000000000001 1780.3500000000001 493.35C1780.3500000000001 493.35 1780.3500000000001 493.35 1780.3500000000001 493.35S1780.3500000000001 493.35 1780.3500000000001 493.35C1780.3500000000001 486.2 1780.3500000000001 486.2 1780.3500000000001 479.0500000000001C1780.35 486.1999999999999 1780.35 479.0500000000001 1780.35 479.0500000000001C1780.35 479.0500000000001 1780.35 479.0500000000001 1780.35 479.0500000000001z" />
    <glyph glyph-name="ico_arrow_up"
      unicode="&#xEA08;"
      horiz-adv-x="632.2105263157895" d=" M7.8868263157895 687.8872L315.9419421052632 990.3367157894738L629.4182631578947 688.0557894736842L592.8448842105263 650.133694736842L342.3946842105263 891.6802631578947L342.4473684210526 0H289.7631578947368L289.7104736842105 890.7846315789474L44.7973842105263 650.291747368421z" />
    <glyph glyph-name="ico_arrow_xsmall"
      unicode="&#xEA09;"
      horiz-adv-x="1580.0909090909092" d=" M1563.5454545454545 471.5454545454545L1116.8181818181818 16.5454545454544C1108.5454545454545 8.2727272727273 1100.2727272727273 0 1083.7272727272727 0C1075.4545454545455 0 1058.9090909090908 0 1058.9090909090908 8.2727272727273C1042.3636363636363 24.8181818181816 1042.3636363636363 49.6363636363635 1058.9090909090908 66.181818181818L1439.4545454545455 454.9999999999999H41.3636363636364C16.5454545454545 463.2727272727273 0 479.8181818181818 0 504.6363636363636S16.5454545454545 546 41.3636363636364 546H1439.4545454545455L1058.909090909091 934.8181818181818C1042.3636363636365 951.3636363636364 1042.3636363636365 976.1818181818182 1058.909090909091 992.7272727272727C1075.4545454545455 1001 1100.2727272727275 1001 1116.818181818182 984.4545454545454L1563.5454545454545 529.4545454545454C1580.0909090909092 512.9090909090908 1580.0909090909092 488.090909090909 1563.5454545454545 471.5454545454545z" />
    <glyph glyph-name="ico_basket"
      unicode="&#xEA0A;"
      horiz-adv-x="1053.6842105263158" d=" M948.3157894736842 210.7368421052632C943.0473684210526 210.7368421052632 937.778947368421 210.7368421052632 932.5105263157894 210.7368421052632C927.2421052631578 210.7368421052632 927.2421052631578 210.7368421052632 921.9736842105262 210.7368421052632H384.5947368421053L368.7894736842105 263.421052631579H921.9736842105262C932.5105263157894 263.421052631579 943.0473684210526 273.9578947368422 948.3157894736842 284.4947368421054L1053.6842105263158 758.6526315789474C1053.6842105263158 763.921052631579 1053.6842105263158 774.4578947368421 1048.415789473684 779.7263157894737C1043.1473684210525 784.9947368421053 1037.878947368421 790.2631578947369 1027.342105263158 790.2631578947369H242.3473684210526L210.7368421052632 906.1684210526316C200.2 953.5842105263158 158.0526315789474 1001 110.6368421052632 1001H26.3421052631579C10.5368421052632 1001 0 990.4631578947368 0 974.657894736842S10.5368421052632 948.3157894736842 26.3421052631579 948.3157894736842H110.6368421052632C131.7105263157895 948.3157894736842 152.7842105263158 921.9736842105264 158.0526315789474 895.6315789473684L326.6421052631579 205.4684210526316C289.7631578947368 189.6631578947369 263.421052631579 152.7842105263158 263.421052631579 105.3684210526316C263.421052631579 47.4157894736842 310.8368421052632 0 368.7894736842105 0S474.1578947368421 47.4157894736842 474.1578947368421 105.3684210526316C474.1578947368421 126.4421052631578 468.8894736842105 142.2473684210527 458.3526315789473 158.0526315789474H858.7526315789472C848.215789473684 142.2473684210527 842.9473684210524 126.4421052631578 842.9473684210524 105.3684210526316C842.9473684210524 47.4157894736842 890.3631578947366 0 948.315789473684 0S1053.6842105263156 47.4157894736842 1053.6842105263156 105.3684210526316S1006.2684210526317 210.7368421052632 948.3157894736842 210.7368421052632zM995.7315789473683 737.578947368421L900.8999999999997 316.1052631578948H358.2526315789474L252.8842105263158 737.578947368421H995.7315789473683zM421.4736842105263 105.3684210526316C421.4736842105263 73.7578947368421 400.4 52.6842105263158 368.7894736842105 52.6842105263158S316.1052631578948 73.7578947368421 316.1052631578948 105.3684210526316S337.1789473684211 158.0526315789474 368.7894736842105 158.0526315789474S421.4736842105263 136.9789473684211 421.4736842105263 105.3684210526316zM948.3157894736842 52.6842105263158C916.7052631578946 52.6842105263158 895.6315789473684 73.7578947368421 895.6315789473684 105.3684210526316S916.7052631578946 158.0526315789474 948.3157894736842 158.0526315789474S1001 136.9789473684211 1001 105.3684210526316S979.9263157894738 52.6842105263158 948.3157894736842 52.6842105263158z" />
    <glyph glyph-name="ico_beginning"
      unicode="&#xEA0B;"
      horiz-adv-x="1309" d=" M15.4 685.3L331.1 985.6C346.5 1008.7 369.6 1001 385 985.6C400.4000000000001 970.2 400.4000000000001 947.1 385 931.7L130.9 700.7H608.3000000000001C985.6 700.7 1285.9000000000003 408.1 1285.9000000000003 46.1999999999999C1285.9000000000003 23.0999999999999 1270.5000000000002 7.6999999999999 1247.4000000000003 7.6999999999999S1208.9000000000003 23.0999999999999 1208.9000000000003 46.1999999999999C1208.9000000000003 361.9 939.4000000000002 623.7 608.3000000000002 623.7H130.9L385 385C400.4000000000001 369.6 400.4000000000001 346.5 385 331.1C377.3 323.4 369.6 315.7 354.2 315.7C346.5 315.7 338.8 315.7 331.1 323.4L15.4 631.4000000000001C7.7 639.0999999999999 0 646.8 0 662.2C0 669.9000000000001 7.7 677.5999999999999 15.4 685.3z" />
    <glyph glyph-name="ico_bell"
      unicode="&#xEA0C;"
      horiz-adv-x="895.6315789473684" d=" M895.6315789473684 300.3C895.6315789473684 342.4473684210526 869.2894736842105 368.7894736842105 842.9473684210526 400.4C811.3368421052631 437.278947368421 774.457894736842 479.4263157894737 763.921052631579 563.7210526315789C763.921052631579 574.257894736842 758.6526315789473 590.0631578947368 758.6526315789473 611.1368421052632C748.1157894736842 695.4315789473684 737.578947368421 827.1421052631579 690.1631578947369 900.9C626.9421052631579 995.7315789473683 484.6947368421052 1001 447.8157894736842 1001V1001C421.4736842105263 1001 273.9578947368421 1001 205.4684210526316 900.9C158.0526315789474 821.8736842105263 142.2473684210527 695.4315789473685 136.9789473684211 611.1368421052632C136.9789473684211 595.3315789473684 131.7105263157895 579.5263157894738 131.7105263157895 563.7210526315789C121.1736842105263 479.4263157894737 84.2947368421053 437.2789473684211 52.6842105263158 400.4C26.3421052631579 368.7894736842105 0 342.4473684210526 0 300.3C0 237.0789473684211 89.5631578947368 194.9315789473684 279.2263157894737 184.3947368421053C279.2263157894737 179.1263157894738 279.2263157894737 179.1263157894738 279.2263157894737 173.8578947368421C279.2263157894737 79.0263157894738 358.2526315789474 0 458.3526315789473 0S637.478947368421 79.0263157894738 637.478947368421 173.8578947368421C637.478947368421 179.1263157894738 637.478947368421 179.1263157894738 637.478947368421 184.3947368421053C811.3368421052631 200.2000000000001 895.6315789473684 237.0789473684211 895.6315789473684 300.3zM453.0842105263158 52.6842105263158C384.5947368421053 52.6842105263158 326.6421052631579 110.6368421052632 326.6421052631579 173.8578947368421C326.6421052631579 173.8578947368421 326.6421052631579 173.8578947368421 326.6421052631579 179.1263157894738C389.8631578947368 179.1263157894738 437.278947368421 179.1263157894738 437.278947368421 179.1263157894738H442.5473684210526C447.8157894736841 179.1263157894738 500.4999999999999 179.1263157894738 579.5263157894735 179.1263157894738C579.5263157894735 179.1263157894738 579.5263157894735 179.1263157894738 579.5263157894735 173.8578947368421C584.7947368421052 105.3684210526316 526.8421052631579 52.6842105263158 453.0842105263158 52.6842105263158zM558.4526315789474 231.8105263157895C495.2315789473684 226.542105263158 447.8157894736842 231.8105263157895 442.5473684210526 231.8105263157895C442.5473684210526 231.8105263157895 400.3999999999999 231.8105263157895 347.7157894736842 231.8105263157895C115.9052631578947 237.0789473684211 52.6842105263158 279.2263157894738 52.6842105263158 300.3C52.6842105263158 321.3736842105264 68.4894736842105 337.178947368421 89.5631578947368 368.7894736842105C121.1736842105263 405.6684210526315 168.5894736842105 458.3526315789474 179.1263157894737 558.4526315789474C179.1263157894737 568.9894736842105 184.3947368421053 590.0631578947368 184.3947368421053 605.8684210526317C194.9315789473684 684.8947368421052 205.4684210526316 806.0684210526316 252.8842105263158 869.2894736842105C305.5684210526316 953.5842105263158 432.0105263157895 948.3157894736842 447.8157894736842 948.3157894736842V948.3157894736842L447.8157894736842 948.3157894736842V948.3157894736842V948.3157894736842L447.8157894736842 948.3157894736842V948.3157894736842C447.8157894736842 948.3157894736842 447.8157894736842 948.3157894736842 447.8157894736842 948.3157894736842L458.3526315789473 948.3157894736842L458.3526315789473 948.3157894736842C495.2315789473683 948.3157894736842 595.3315789473684 937.778947368421 642.7473684210526 869.2894736842105C684.8947368421052 806.0684210526316 695.4315789473684 684.8947368421052 705.9684210526315 600.6C705.9684210526315 584.7947368421053 711.236842105263 568.9894736842106 711.236842105263 553.1842105263158C721.7736842105262 453.0842105263158 769.1894736842104 400.4 800.7999999999998 363.521052631579C827.1421052631578 337.1789473684211 837.6789473684208 316.1052631578948 837.6789473684208 295.0315789473684C842.9473684210526 279.2263157894738 784.9947368421052 242.3473684210527 558.4526315789474 231.8105263157895z" />
    <glyph glyph-name="ico_calendar"
      unicode="&#xEA0D;"
      horiz-adv-x="1001" d=" M971.5588235294118 883.2352941176471H706.5882352941177V971.5588235294118C706.5882352941177 989.2235294117648 688.9235294117647 1001 677.1470588235294 1001S647.7058823529412 989.2235294117648 647.7058823529412 971.5588235294118V883.2352941176471H353.2941176470589V971.5588235294118C353.2941176470589 989.2235294117648 335.6294117647059 1001 323.8529411764706 1001S294.4117647058824 989.2235294117648 294.4117647058824 971.5588235294118V883.2352941176471H29.4411764705882C11.7764705882353 883.2352941176471 0 865.5705882352942 0 853.7941176470588V29.4411764705882C0 11.7764705882353 11.7764705882353 0 29.4411764705882 0H971.5588235294118C989.2235294117648 0 1001 11.7764705882353 1001 29.4411764705882V853.7941176470588C1001 865.5705882352942 989.2235294117648 883.2352941176471 971.5588235294118 883.2352941176471zM942.1176470588236 58.8823529411765H58.8823529411765V824.3529411764706H294.4117647058824V741.9176470588235C294.4117647058824 718.364705882353 306.1882352941177 706.5882352941176 323.8529411764706 706.5882352941176S353.2941176470589 718.364705882353 353.2941176470589 736.0294117647059V824.3529411764706H647.7058823529412V741.9176470588235C647.7058823529412 718.364705882353 659.4823529411765 706.5882352941176 677.1470588235294 706.5882352941176S706.5882352941177 718.364705882353 706.5882352941177 736.0294117647059V824.3529411764706H942.1176470588236V58.8823529411765zM323.8529411764706 582.9352941176471V494.6117647058824C323.8529411764706 476.9470588235293 312.0764705882353 465.1705882352942 294.4117647058824 465.1705882352942H206.0882352941177C188.4235294117647 465.1705882352942 176.6470588235294 476.9470588235293 176.6470588235294 494.6117647058824V582.9352941176471C176.6470588235294 600.6 188.4235294117647 612.3764705882353 206.0882352941177 612.3764705882353H294.4117647058824C312.0764705882353 612.3764705882353 323.8529411764706 594.7117647058824 323.8529411764706 582.9352941176471zM571.1588235294117 582.9352941176471V494.6117647058824C571.1588235294117 476.9470588235293 559.3823529411765 465.1705882352942 541.7176470588234 465.1705882352942H459.2823529411764C441.6176470588236 465.1705882352942 429.8411764705882 476.9470588235293 429.8411764705882 494.6117647058824V582.9352941176471C429.8411764705882 600.6 441.6176470588236 612.3764705882353 459.2823529411764 612.3764705882353H547.6058823529412C559.3823529411765 612.3764705882353 571.1588235294117 594.7117647058824 571.1588235294117 582.9352941176471zM706.5882352941177 612.3764705882353H794.9117647058823C812.5764705882353 612.3764705882353 824.3529411764706 600.6 824.3529411764706 582.9352941176471V494.6117647058824C824.3529411764706 476.9470588235293 812.5764705882353 465.1705882352942 794.9117647058823 465.1705882352942H706.5882352941177C688.9235294117647 465.1705882352942 677.1470588235294 476.9470588235293 677.1470588235294 494.6117647058824V582.9352941176471C677.1470588235294 594.7117647058824 688.9235294117647 612.3764705882353 706.5882352941177 612.3764705882353zM323.8529411764706 323.8529411764706V235.5294117647059C323.8529411764706 217.864705882353 312.0764705882353 206.0882352941177 294.4117647058824 206.0882352941177H206.0882352941177C188.4235294117647 206.0882352941177 176.6470588235294 217.864705882353 176.6470588235294 235.5294117647059V323.8529411764706C176.6470588235294 341.5176470588235 188.4235294117647 353.2941176470588 206.0882352941177 353.2941176470588H294.4117647058824C312.0764705882353 353.2941176470588 323.8529411764706 341.5176470588235 323.8529411764706 323.8529411764706zM571.1588235294117 323.8529411764706V235.5294117647059C571.1588235294117 217.864705882353 559.3823529411765 206.0882352941177 541.7176470588234 206.0882352941177H459.2823529411764C441.6176470588236 206.0882352941177 429.8411764705882 217.864705882353 429.8411764705882 235.5294117647059V323.8529411764706C429.8411764705882 341.5176470588235 441.6176470588236 353.2941176470588 459.2823529411764 353.2941176470588H547.6058823529412C559.3823529411765 353.2941176470588 571.1588235294117 341.5176470588235 571.1588235294117 323.8529411764706zM824.3529411764706 323.8529411764706V235.5294117647059C824.3529411764706 217.864705882353 812.5764705882353 206.0882352941177 794.9117647058823 206.0882352941177H706.5882352941177C688.9235294117647 206.0882352941177 677.1470588235294 217.864705882353 677.1470588235294 235.5294117647059V323.8529411764706C677.1470588235294 341.5176470588235 688.9235294117647 353.2941176470588 706.5882352941177 353.2941176470588H794.9117647058823C812.5764705882353 353.2941176470588 824.3529411764706 341.5176470588235 824.3529411764706 323.8529411764706z" />
    <glyph glyph-name="ico_check"
      unicode="&#xEA0E;"
      horiz-adv-x="1001" d=" M500.5 1001C224.0333333333333 1001 0 776.9666666666667 0 500.5S224.0333333333333 0 500.5 0S1001 224.0333333333333 1001 500.5S776.9666666666667 1001 500.5 1001zM500.5 47.6666666666667C252.6333333333334 47.6666666666667 47.6666666666667 252.6333333333335 47.6666666666667 500.5S252.6333333333334 953.3333333333334 500.5 953.3333333333334S953.3333333333331 748.3666666666667 953.3333333333331 500.5S748.3666666666666 47.6666666666667 500.5 47.6666666666667zM757.9 710.2333333333333C767.4333333333334 700.7 767.4333333333334 686.4000000000001 757.9 676.8666666666667L429 319.3666666666667C424.2333333333334 314.6 419.4666666666667 309.8333333333334 409.9333333333333 309.8333333333334C409.9333333333333 309.8333333333334 409.9333333333333 309.8333333333334 409.9333333333333 309.8333333333334C405.1666666666667 309.8333333333334 395.6333333333333 314.6 390.8666666666666 314.6L238.3333333333333 467.1333333333334C228.8 476.6666666666667 228.8 490.9666666666668 238.3333333333333 500.5S262.1666666666667 510.0333333333333 271.7 500.5L409.9333333333333 362.2666666666667L719.7666666666667 700.7C734.0666666666666 715 748.3666666666666 719.7666666666667 757.9 710.2333333333333z" />
    <glyph glyph-name="ico_check_checkbox"
      unicode="&#xEA0F;"
      horiz-adv-x="1307.1882352941177" d=" M1295.4117647058824 906.7882352941176L482.835294117647 23.5529411764705C471.0588235294118 11.7764705882353 459.2823529411764 0 435.7294117647059 0C435.7294117647059 0 435.7294117647059 0 435.7294117647059 0C423.9529411764706 0 400.4000000000001 11.7764705882353 388.6235294117648 11.7764705882353L11.7764705882353 400.4000000000001C0 423.9529411764705 0 459.2823529411766 11.7764705882353 482.835294117647S70.6588235294118 506.3882352941176 94.2117647058824 482.835294117647L435.7294117647059 141.3176470588235L1201.1999999999998 977.4470588235292C1224.7529411764704 1000.9999999999998 1260.0823529411764 1000.9999999999998 1283.635294117647 977.4470588235292C1307.1882352941177 965.670588235294 1318.964705882353 930.3411764705882 1295.4117647058824 906.7882352941176z" />
    <glyph glyph-name="ico_circle_arrow"
      unicode="&#xEA10;"
      horiz-adv-x="883.2352941176471" d=" M883.2352941176471 553.4941176470588C883.2352941176471 388.6235294117648 794.9117647058823 235.5294117647059 647.7058823529412 158.9823529411764C635.929411764706 153.0941176470589 618.2647058823529 158.9823529411764 606.4882352941177 170.7588235294117C600.6 182.5352941176469 606.4882352941177 200.1999999999999 618.2647058823529 211.9764705882352C747.8058823529411 282.6352941176471 824.3529411764706 412.1764705882353 824.3529411764706 553.4941176470588C824.3529411764706 771.3588235294118 653.5941176470589 942.1176470588236 441.6176470588236 942.1176470588236S58.8823529411765 771.3588235294118 58.8823529411765 553.4941176470588C58.8823529411765 353.2941176470588 206.0882352941177 194.3117647058824 400.4 170.7588235294118L329.7411764705883 264.9705882352942C317.9647058823529 276.7470588235294 323.8529411764706 294.4117647058823 335.6294117647058 306.1882352941176C347.4058823529412 317.9647058823529 365.0705882352941 312.0764705882352 376.8470588235294 300.3L482.835294117647 153.0941176470589C494.6117647058823 141.3176470588236 488.7235294117647 123.6529411764706 476.9470588235294 111.8764705882353L329.7411764705883 5.8882352941177C323.8529411764706 0 317.964705882353 0 312.0764705882353 0C300.3 0 294.4117647058824 5.8882352941177 288.5235294117647 11.7764705882353C276.7470588235294 23.5529411764705 282.6352941176471 41.2176470588234 294.4117647058823 52.9941176470587L382.7352941176471 117.7647058823529C164.8705882352941 147.2058823529412 0 329.7411764705883 0 553.4941176470588C0 800.8 200.2 1001 441.6176470588236 1001S883.2352941176471 800.8 883.2352941176471 553.4941176470588z" />
    <glyph glyph-name="ico_close"
      unicode="&#xEA11;"
      horiz-adv-x="1201.1999999999998" d=" M100.1 49.4320987160024L1051.6679012839975 1001 M1051.6679012839975 49.4320987160024L100.1 1001" />
    <glyph glyph-name="ico_cross"
      unicode="&#xEA12;"
      horiz-adv-x="1001" d=" M500.5 1001C224.0333333333333 1001 0 776.9666666666667 0 500.5S224.0333333333333 0 500.5 0S1001 224.0333333333333 1001 500.5S776.9666666666667 1001 500.5 1001zM500.5 47.6666666666667C252.6333333333334 47.6666666666667 47.6666666666667 252.6333333333335 47.6666666666667 500.5C47.6666666666667 748.3666666666667 252.6333333333334 953.3333333333334 500.5 953.3333333333334S953.3333333333331 748.3666666666667 953.3333333333331 500.5C953.3333333333331 252.6333333333335 748.3666666666666 47.6666666666667 500.5 47.6666666666667zM686.4 653.0333333333333L533.8666666666666 500.5L686.3999999999999 347.9666666666667C695.9333333333332 338.4333333333334 695.9333333333332 324.1333333333335 686.3999999999999 314.6000000000002C681.6333333333332 309.8333333333335 676.8666666666666 309.8333333333335 667.3333333333333 309.8333333333335S653.0333333333332 309.8333333333335 648.2666666666665 314.6000000000002L495.7333333333332 467.1333333333334L347.9666666666666 319.3666666666668C343.2 314.6000000000002 338.4333333333333 314.6000000000002 328.8999999999999 314.6000000000002S314.5999999999999 314.6000000000002 309.8333333333333 319.3666666666668C300.2999999999999 328.9000000000001 300.2999999999999 343.2000000000001 309.8333333333333 352.7333333333334L457.5999999999999 500.5L314.6 648.2666666666667C305.0666666666666 657.8 305.0666666666666 672.1 314.6 681.6333333333333S338.4333333333333 691.1666666666667 347.9666666666667 681.6333333333333L495.7333333333333 533.8666666666667L648.2666666666667 686.4C657.8 695.9333333333334 672.1 695.9333333333334 681.6333333333333 686.4S695.9333333333333 662.5666666666667 686.4 653.0333333333333z" />
    <glyph glyph-name="ico_cross_simple"
      unicode="&#xEA13;"
      horiz-adv-x="1001" d=" M565.11 500.5L965.51 100.1L900.8999999999997 35.49L500.5 435.89L100.1 35.49L35.49 100.1L435.89 500.5L35.49 900.9L100.1 965.51L500.5 565.11L900.9 965.51L965.51 900.9z" />
    <glyph glyph-name="ico_document"
      unicode="&#xEA14;"
      horiz-adv-x="750.75" d=" M750.75 735.735C750.75 735.735 750.75 740.74 745.745 740.74C745.745 740.74 745.745 740.74 745.745 740.74L500.5 990.99C500.5 990.99 500.5 990.99 500.5 990.99C500.5 990.99 495.495 995.995 490.49 995.995C485.485 1001 480.48 1001 480.48 1001H25.025C10.01 1001 0 990.99 0 975.975V25.0250000000001C0 10.01 10.01 0 25.025 0H725.7249999999999C740.74 0 750.75 10.01 750.75 25.0250000000001V725.725C750.75 730.73 750.75 735.735 750.75 735.735zM505.5049999999999 915.915L665.665 750.75H505.5050000000001V915.915zM50.05 50.0500000000001V950.95H455.455V725.725C455.455 715.715 465.465 700.7 480.48 700.7H700.6999999999999V50.0500000000001H50.05z" />
    <glyph glyph-name="ico_dots"
      unicode="&#xEA15;"
      horiz-adv-x="5038.366666666667" d=" M1001 500.5C1001 233.5666666666667 767.4333333333333 0 500.5 0C233.5666666666667 0 0 233.5666666666667 0 500.5S233.5666666666667 1001 500.5 1001C767.4333333333333 1001 1001 767.4333333333334 1001 500.5zM2535.866666666667 1001C2235.566666666667 1001 2035.3666666666663 767.4333333333334 2035.3666666666663 500.5S2235.566666666667 0 2535.866666666667 0C2802.8 0 3036.366666666667 233.5666666666667 3036.366666666667 500.5S2802.8 1001 2535.866666666667 1001zM4537.866666666667 1001C4270.933333333333 1001 4037.3666666666663 767.4333333333334 4037.3666666666663 500.5S4237.566666666667 0 4537.866666666667 0C4804.8 0 5038.366666666667 233.5666666666667 5038.366666666667 500.5S4804.8 1001 4537.866666666667 1001z" />
    <glyph glyph-name="ico_download"
      unicode="&#xEA16;"
      horiz-adv-x="1001" d=" M477.75 1001C213.85 1001 0 787.15 0 523.25C0 259.35 213.85 45.5 477.75 45.5S955.5 259.35 955.5 523.25C955.5 787.15 741.65 1001 477.75 1001zM477.75 91C241.15 91 45.5 286.65 45.5 523.25S241.15 955.5 477.75 955.5S910 759.85 910 523.25S714.35 91 477.75 91zM655.2 500.5C664.3 491.4 664.3 477.75 655.2 468.65L495.95 309.4C491.4 304.85 486.85 304.85 477.75 304.85S464.1 309.4 459.55 309.4L300.3 468.65C291.2 477.75 291.2 491.4 300.3 500.5S323.05 509.6 332.15 500.5L455 377.65V723.45C455 737.1 464.1 746.2 477.75 746.2S500.5 737.1 500.5 723.45V377.65L623.35 500.5C632.45 509.6 646.1 509.6 655.2 500.5z" />
    <glyph glyph-name="ico_download_cloud"
      unicode="&#xEA17;"
      horiz-adv-x="1053.6842105263158" d=" M953.5842105263158 995.7315789473683H100.1C47.4157894736842 995.7315789473683 0 953.5842105263158 0 900.9V100.1000000000001C0 47.4157894736844 42.1473684210526 2e-13 100.1 2e-13H953.5842105263156C1006.2684210526314 2e-13 1053.6842105263156 42.1473684210529 1053.6842105263156 100.1000000000001V900.9C1048.415789473684 953.5842105263158 1006.2684210526317 995.7315789473683 953.5842105263158 995.7315789473683zM937.778947368421 100.0999999999999H110.6368421052632C105.3684210526316 100.0999999999999 100.1 105.3684210526316 100.1 110.6368421052631V885.0947368421052C100.1 895.6315789473684 105.3684210526316 900.9 110.6368421052632 900.9H937.778947368421C943.0473684210529 900.9 948.3157894736842 895.6315789473684 948.3157894736842 890.3631578947368V115.9052631578948C953.5842105263158 105.3684210526316 948.3157894736842 100.0999999999999 937.778947368421 100.0999999999999zM853.4842105263157 331.9105263157896V284.4947368421054C853.4842105263157 268.6894736842105 842.9473684210526 258.1526315789474 827.1421052631579 258.1526315789474H421.4736842105263C405.6684210526316 258.1526315789474 395.1315789473684 268.6894736842105 395.1315789473684 284.4947368421054V331.9105263157896C395.1315789473684 347.7157894736843 405.6684210526316 358.2526315789475 421.4736842105263 358.2526315789475H832.4105263157895C842.9473684210526 358.2526315789475 853.4842105263157 347.7157894736843 853.4842105263157 331.9105263157896zM853.4842105263157 526.8421052631579V479.4263157894737C853.4842105263157 463.6210526315789 842.9473684210526 453.0842105263158 827.1421052631579 453.0842105263158H421.4736842105263C405.6684210526316 453.0842105263158 395.1315789473684 463.6210526315789 395.1315789473684 479.4263157894737V526.8421052631579C395.1315789473684 542.6473684210528 405.6684210526316 553.1842105263158 421.4736842105263 553.1842105263158H832.4105263157895C842.9473684210526 553.1842105263158 853.4842105263157 542.6473684210528 853.4842105263157 526.8421052631579zM853.4842105263157 727.042105263158V679.6263157894737C853.4842105263157 663.8210526315789 842.9473684210526 653.2842105263157 827.1421052631579 653.2842105263157H421.4736842105263C405.6684210526316 653.2842105263157 395.1315789473684 663.8210526315789 395.1315789473684 679.6263157894737V727.042105263158C395.1315789473684 737.578947368421 405.6684210526316 748.1157894736842 421.4736842105263 748.1157894736842H832.4105263157895C842.9473684210526 748.1157894736842 853.4842105263157 737.578947368421 853.4842105263157 727.042105263158zM337.1789473684211 700.7C337.1789473684211 658.5526315789474 305.5684210526316 626.9421052631579 263.421052631579 626.9421052631579S189.6631578947368 658.5526315789474 189.6631578947368 700.7S221.2736842105263 774.4578947368421 263.421052631579 774.4578947368421S337.1789473684211 742.8473684210526 337.1789473684211 700.7zM337.1789473684211 505.7684210526316C337.1789473684211 463.6210526315789 305.5684210526316 432.0105263157895 263.421052631579 432.0105263157895S189.6631578947368 463.6210526315789 189.6631578947368 505.7684210526316S221.2736842105263 579.5263157894738 263.421052631579 579.5263157894738S337.1789473684211 542.6473684210528 337.1789473684211 505.7684210526316zM337.1789473684211 305.5684210526316C337.1789473684211 263.421052631579 305.5684210526316 231.8105263157895 263.421052631579 231.8105263157895S189.6631578947368 263.421052631579 189.6631578947368 305.5684210526316S221.2736842105263 379.3263157894737 263.421052631579 379.3263157894737S337.1789473684211 347.7157894736843 337.1789473684211 305.5684210526316z" />
    <glyph glyph-name="ico_drag_drop"
      unicode="&#xEA18;"
      horiz-adv-x="1001" d=" M884.2166666666667 496.3291666666667L734.0666666666666 346.1791666666667L709.0416666666667 375.375L813.3125 479.6458333333333H521.3541666666667V196.0291666666666L621.4541666666668 296.1291666666665L650.65 266.9333333333333L500.5 116.7833333333332L350.35 266.9333333333333L379.5458333333334 296.1291666666665L479.6458333333334 196.0291666666666V479.6458333333333H196.0291666666667L300.3 375.375L271.1041666666667 346.1791666666667L116.7833333333333 496.3291666666667L266.9333333333334 646.4791666666666L296.1291666666667 617.2833333333333L196.0291666666667 521.3541666666666H479.6458333333334V804.9708333333333L379.5458333333334 704.8708333333334L350.35 734.0666666666666L500.5 884.2166666666667L650.65 734.0666666666666L621.4541666666668 704.8708333333333L521.3541666666667 804.9708333333333V521.3541666666666H804.9708333333334L704.8708333333335 621.4541666666667L734.0666666666667 650.65L884.2166666666667 496.3291666666667z" />
    <glyph glyph-name="ico_expand"
      unicode="&#xEA19;"
      horiz-adv-x="734.0666666666667" d=" M734.0666666666667 967.6333333333334L734.0666666666667 967.6333333333334L734.0666666666667 633.9666666666667C734.0666666666667 613.9466666666667 720.72 600.6 700.7 600.6S667.3333333333334 613.9466666666667 667.3333333333334 633.9666666666667V887.5533333333333L253.5866666666667 473.8066666666666C246.9133333333334 467.1333333333333 240.24 467.1333333333333 233.5666666666667 467.1333333333333S213.5466666666667 467.1333333333333 206.8733333333333 473.8066666666666C193.5266666666667 487.1533333333333 193.5266666666667 507.1733333333333 206.8733333333333 520.52L620.62 934.2666666666667H367.0333333333334C347.0133333333334 934.2666666666667 333.6666666666667 947.6133333333333 333.6666666666667 967.6333333333334S347.0133333333334 1001 367.0333333333334 1001H700.7C700.7 1001 700.7 1001 700.7 1001C707.3733333333333 1001 707.3733333333333 1001 714.0466666666666 1001C720.7199999999999 1001 720.7199999999999 994.3266666666668 720.7199999999999 994.3266666666668C720.7199999999999 994.3266666666668 720.7199999999999 994.3266666666668 720.7199999999999 994.3266666666668C720.7199999999999 994.3266666666668 720.7199999999999 994.3266666666668 720.7199999999999 994.3266666666668C720.7199999999999 994.3266666666668 727.3933333333332 987.6533333333334 727.3933333333332 987.6533333333334C734.0666666666667 974.3066666666666 734.0666666666667 974.3066666666666 734.0666666666667 967.6333333333334zM480.48 527.1933333333334L66.7333333333333 113.4466666666666V367.0333333333333C66.7333333333333 387.0533333333334 53.3866666666667 400.4 33.3666666666667 400.4S0 387.0533333333334 0 367.0333333333333V33.3666666666667L0 33.3666666666667C0 26.6933333333334 0 26.6933333333334 0 20.02C6.6733333333333 13.3466666666667 6.6733333333333 6.6733333333334 20.02 0C26.6933333333333 0 26.6933333333333 0 33.3666666666667 0H367.0333333333334C387.0533333333334 0 400.4 13.3466666666666 400.4 33.3666666666667S387.0533333333334 66.7333333333334 367.0333333333334 66.7333333333334H113.4466666666667L527.1933333333334 480.48C540.54 493.8266666666667 540.54 513.8466666666667 527.1933333333334 527.1933333333334C513.8466666666667 540.54 493.8266666666667 540.54 480.48 527.1933333333334z" />
    <glyph glyph-name="ico_external_links"
      unicode="&#xEA1A;"
      horiz-adv-x="1295.4117647058824" d=" M1295.4117647058824 741.9176470588235C1295.4117647058824 736.0294117647059 1289.5235294117647 724.2529411764706 1283.6352941176472 718.3647058823528L1042.2176470588238 488.7235294117646C1036.329411764706 482.835294117647 1030.4411764705885 482.835294117647 1024.5529411764708 482.835294117647C1018.664705882353 482.835294117647 1006.8882352941177 488.7235294117646 1001.0000000000002 494.6117647058823C989.223529411765 506.3882352941175 989.223529411765 524.0529411764705 1001.0000000000002 535.8294117647058L1189.4235294117648 718.3647058823528H824.3529411764708C571.158823529412 718.3647058823528 365.0705882352944 518.1647058823528 365.0705882352944 276.7470588235294C365.0705882352944 259.0823529411764 353.294117647059 247.3058823529412 335.6294117647061 247.3058823529412S306.1882352941179 259.0823529411764 306.1882352941179 276.7470588235294C306.1882352941179 553.4941176470588 541.7176470588237 777.2470588235294 824.3529411764708 777.2470588235294H1189.4235294117648L1001 948.0058823529412C989.2235294117648 959.7823529411764 989.2235294117648 977.4470588235293 1001 989.2235294117648C1012.7764705882352 1001 1030.4411764705883 1001 1042.2176470588236 989.2235294117648L1283.635294117647 759.5823529411765C1289.5235294117647 753.6941176470589 1295.4117647058824 747.8058823529411 1295.4117647058824 741.9176470588235zM1124.6529411764707 359.1823529411764C1106.9882352941177 359.1823529411764 1095.2117647058824 347.4058823529412 1095.2117647058824 329.7411764705883V58.8823529411765H58.8823529411765V771.3588235294118H388.6235294117647C406.2882352941176 771.3588235294118 418.064705882353 783.135294117647 418.064705882353 800.8S406.2882352941177 830.2411764705882 388.6235294117647 830.2411764705882H0V0H1154.094117647059V329.7411764705883C1154.094117647059 341.5176470588235 1142.3176470588235 359.1823529411764 1124.6529411764707 359.1823529411764z" />
    <glyph glyph-name="ico_facebook"
      unicode="&#xEA1B;"
      horiz-adv-x="563.0625" d=" M531.78125 673.798125L515.515 504.879375H363.488125V0H145.145V500.5H31.28125V673.798125H145.145V808.3075C145.145 934.68375 218.343125 1001 380.38 1001H531.78125V825.825H413.5381250000001C371.6212500000001 825.825 362.8625000000001 810.184375 362.8625000000001 770.144375V673.798125z" />
    <glyph glyph-name="ico_facebook_comment"
      unicode="&#xEA1C;"
      horiz-adv-x="1080.2158273381294" d=" M835.3669064748201 1001H244.8489208633094C108.021582733813 1001 0 892.9784172661871 0 756.1510791366907V489.6978417266188C0 352.8705035971224 108.021582733813 244.8489208633095 244.8489208633094 244.8489208633095H273.6546762589928L381.6762589928057 28.8057553956835C388.8776978417266 14.4028776978419 396.0791366906475 7.2014388489209 410.4820143884892 7.2014388489209C410.4820143884892 7.2014388489209 410.4820143884892 7.2014388489209 410.4820143884892 7.2014388489209C424.8848920863309 7.2014388489209 432.0863309352518 14.4028776978417 439.2877697841727 21.6043165467626L604.9208633093525 244.8489208633094H820.9640287769784C957.7913669064748 244.8489208633094 1065.8129496402878 352.8705035971223 1065.8129496402878 489.6978417266187V756.1510791366907C1080.2158273381294 892.9784172661871 972.1942446043166 1001 835.3669064748201 1001zM1008.2014388489208 489.6978417266188C1008.2014388489208 396.0791366906475 928.9856115107912 316.8633093525181 835.3669064748201 316.8633093525181H597.7194244604317C590.5179856115107 309.6618705035973 576.115107913669 309.6618705035973 568.9136690647482 295.2589928057554L424.8848920863309 100.8201438848921L331.2661870503597 295.2589928057554C324.0647482014388 302.4604316546763 316.863309352518 309.6618705035973 302.4604316546763 309.6618705035973H244.8489208633094C151.2302158273381 309.6618705035973 72.0143884892086 388.8776978417267 72.0143884892086 489.6978417266188V756.1510791366907C72.0143884892086 849.7697841726618 151.2302158273381 928.9856115107914 244.8489208633094 928.9856115107914H835.3669064748201C928.9856115107912 928.9856115107914 1008.2014388489208 849.7697841726618 1008.2014388489208 756.1510791366907V489.6978417266188z" />
    <glyph glyph-name="ico_facebook_like"
      unicode="&#xEA1D;"
      horiz-adv-x="941.7302631578948" d=" M895.6315789473684 375.375C895.6315789473684 375.375 902.217105263158 381.9605263157894 902.217105263158 388.5460526315789C921.9736842105264 408.3026315789473 948.3157894736842 434.6447368421051 935.1447368421052 493.9144736842104C921.9736842105264 559.7697368421052 842.9473684210526 566.3552631578946 777.0921052631578 572.9407894736842C744.1644736842105 579.5263157894735 698.0657894736842 579.5263157894735 684.8947368421052 592.6973684210525C671.7236842105262 619.0394736842104 684.8947368421052 665.1381578947367 698.065789473684 711.2368421052631C704.6513157894735 750.7499999999999 717.8223684210526 783.6776315789473 717.8223684210526 823.1907894736842C717.8223684210526 869.2894736842104 698.065789473684 935.1447368421052 651.9671052631578 974.657894736842C625.625 994.4144736842106 599.2828947368421 1007.5855263157894 566.3552631578947 1001C493.9144736842105 987.828947368421 500.5 902.217105263158 500.5 862.703947368421C500.5 849.5328947368421 500.5 842.9473684210526 500.5 836.3618421052631C500.5 796.8486842105262 460.9868421052632 737.578947368421 441.2302631578947 704.6513157894736C434.6447368421053 684.8947368421052 428.0592105263159 671.7236842105262 421.4736842105264 665.1381578947369C395.1315789473685 612.453947368421 302.9342105263158 553.1842105263158 289.7631578947369 546.5986842105262C276.5921052631579 540.0131578947369 270.0065789473684 540.0131578947369 256.8355263157895 533.4276315789474C230.4934210526316 533.4276315789474 210.7368421052632 540.0131578947369 190.9802631578948 540.0131578947369C177.8092105263158 540.0131578947369 164.6381578947369 540.0131578947369 158.0526315789474 546.5986842105262C125.125 553.1842105263158 92.1973684210526 540.0131578947369 59.2697368421053 513.671052631579C32.9276315789474 493.9144736842105 0 441.2302631578947 0 355.6184210526315C0 256.8355263157894 26.3421052631579 197.5657894736841 46.0986842105263 164.6381578947368C65.8552631578947 138.2960526315789 118.5394736842105 125.1249999999999 118.5394736842105 125.1249999999999C125.125 125.1249999999999 144.8815789473685 125.1249999999999 164.6381578947369 125.1249999999999C197.5657894736842 125.1249999999999 243.6644736842106 125.1249999999999 270.0065789473684 125.1249999999999C283.1776315789474 125.1249999999999 302.9342105263158 118.5394736842104 329.2763157894737 111.953947368421C342.4473684210527 105.3684210526316 355.6184210526316 98.7828947368421 368.7894736842105 85.6118421052631C388.5460526315789 65.8552631578946 414.8881578947368 46.0986842105262 480.7434210526316 26.3421052631578C520.2565789473684 13.171052631579 599.2828947368421 -6.5855263157896 671.7236842105262 -6.5855263157896C704.6513157894736 -6.5855263157896 737.578947368421 -1e-13 757.3355263157895 13.171052631579C783.6776315789474 39.5131578947369 783.6776315789474 65.8552631578948 783.6776315789474 85.6118421052631C783.6776315789474 92.1973684210525 783.6776315789474 98.782894736842 783.6776315789474 98.782894736842C783.6776315789474 98.782894736842 790.2631578947369 105.3684210526315 796.8486842105264 105.3684210526315C816.6052631578948 111.9539473684209 842.9473684210526 125.1249999999999 849.5328947368422 158.0526315789473C856.1184210526317 184.3947368421052 849.5328947368422 204.1513157894735 842.9473684210527 217.3223684210526C842.9473684210527 217.3223684210526 842.9473684210527 217.3223684210526 842.9473684210527 217.3223684210526C842.9473684210527 217.3223684210526 849.5328947368422 223.907894736842 856.1184210526317 223.907894736842C875.8750000000001 230.4934210526315 902.217105263158 250.2499999999999 902.217105263158 289.7631578947368C902.217105263158 316.1052631578947 895.6315789473684 335.861842105263 889.046052631579 349.0328947368421C895.6315789473684 362.2039473684211 895.6315789473684 368.7894736842105 895.6315789473684 375.375zM171.2236842105263 190.9802631578947C151.4671052631579 190.9802631578947 138.296052631579 190.9802631578947 131.7105263157895 190.9802631578947C125.125 190.9802631578947 105.3684210526316 197.5657894736841 105.3684210526316 197.5657894736841C92.1973684210526 223.907894736842 65.8552631578947 276.5921052631579 65.8552631578947 355.6184210526315C65.8552631578947 408.3026315789473 79.0263157894737 447.8157894736842 105.3684210526316 467.5723684210525C118.5394736842105 480.7434210526314 138.296052631579 480.7434210526314 144.8815789473685 480.7434210526314C151.4671052631579 480.7434210526314 164.6381578947369 480.7434210526314 177.8092105263158 474.157894736842C184.3947368421053 474.1578947368421 190.9802631578948 474.1578947368421 197.5657894736842 474.1578947368421C184.3947368421053 447.8157894736842 171.2236842105263 408.3026315789473 171.2236842105263 349.0328947368421C171.2236842105263 276.5921052631579 184.3947368421053 230.4934210526315 204.1513157894737 190.9802631578947C190.9802631578948 190.9802631578947 184.3947368421053 190.9802631578947 171.2236842105263 190.9802631578947zM856.1184210526317 428.0592105263159C842.9473684210527 414.8881578947369 829.7763157894736 401.7171052631579 829.7763157894736 381.9605263157896C829.7763157894736 355.6184210526317 836.3618421052631 342.4473684210527 836.3618421052631 329.2763157894738C842.9473684210526 316.1052631578948 842.9473684210526 316.1052631578948 842.9473684210526 302.9342105263159C842.9473684210526 296.3486842105264 842.9473684210526 296.3486842105264 829.7763157894736 289.7631578947369C816.6052631578948 283.1776315789474 803.4342105263157 276.5921052631581 796.8486842105264 263.421052631579C777.0921052631578 237.0789473684211 783.6776315789474 210.7368421052631 790.2631578947369 197.5657894736843C790.2631578947369 190.9802631578948 796.8486842105264 184.3947368421053 790.2631578947369 177.8092105263157C790.2631578947369 171.2236842105264 790.2631578947369 171.2236842105264 770.5065789473684 164.6381578947369C757.3355263157895 158.0526315789474 744.1644736842105 151.4671052631579 730.9934210526316 138.296052631579C711.2368421052631 118.5394736842104 717.8223684210527 98.7828947368421 717.8223684210527 79.0263157894736C717.8223684210527 65.8552631578948 717.8223684210527 65.8552631578948 717.8223684210527 59.2697368421052C698.0657894736842 46.0986842105262 599.2828947368421 52.6842105263157 507.0855263157895 79.0263157894736C454.4013157894738 92.1973684210525 434.6447368421053 111.953947368421 421.4736842105264 125.1249999999999C408.3026315789474 138.2960526315789 395.1315789473685 151.4671052631578 368.7894736842106 158.0526315789473C349.0328947368422 164.6381578947368 335.8618421052633 171.2236842105261 316.1052631578948 177.8092105263157L316.1052631578948 177.8092105263157C316.1052631578948 177.8092105263157 316.1052631578948 177.8092105263157 309.5197368421054 177.8092105263157C296.3486842105264 177.8092105263157 289.763157894737 184.3947368421052 276.592105263158 184.3947368421052C263.421052631579 210.7368421052631 237.0789473684212 256.8355263157894 237.0789473684212 335.861842105263C237.0789473684212 408.3026315789472 263.421052631579 454.4013157894736 309.5197368421054 467.5723684210525C342.4473684210527 480.7434210526314 441.2302631578949 553.1842105263156 480.7434210526317 619.0394736842104C487.3289473684211 625.6249999999998 493.9144736842106 638.7960526315787 500.5000000000001 645.3815789473683C526.8421052631579 691.4802631578946 566.3552631578949 750.7499999999999 572.9407894736843 810.0197368421052C572.9407894736843 816.6052631578947 572.9407894736843 829.7763157894735 572.9407894736843 842.9473684210525C572.9407894736843 869.2894736842104 572.9407894736843 915.3881578947368 586.1118421052632 915.3881578947368C586.1118421052632 915.3881578947368 592.6973684210527 915.3881578947368 592.6973684210527 915.3881578947368C592.6973684210527 935.1447368421052 599.2828947368421 935.1447368421052 612.4539473684212 921.9736842105264C638.7960526315791 895.6315789473684 658.5526315789474 849.5328947368421 651.9671052631579 823.1907894736842C651.9671052631579 796.8486842105262 638.7960526315791 757.3355263157895 632.2105263157895 724.4078947368421C619.0394736842106 665.1381578947369 599.2828947368421 605.8684210526316 632.2105263157895 559.7697368421052C658.5526315789474 520.2565789473684 717.8223684210527 513.671052631579 770.5065789473684 507.0855263157895C810.0197368421052 500.5 862.703947368421 493.9144736842105 869.2894736842105 474.1578947368421C875.8750000000001 454.4013157894736 869.2894736842105 447.8157894736842 856.1184210526317 428.0592105263159z" />
    <glyph glyph-name="ico_facebook_share_arrow"
      unicode="&#xEA1E;"
      horiz-adv-x="1078" d=" M1078 654.5C1078 646.8 1070.3 631.4000000000001 1062.6000000000001 623.7L739.2000000000002 315.7C731.5 315.7 723.8000000000001 315.7 716.1 315.7C708.4 315.7 693 315.7 685.3000000000001 323.4C669.9 338.8000000000001 677.6 361.9 693 377.3000000000001L939.4 616H616C246.4 616 77 323.4 77 38.5C77 15.4 61.6 0 38.5 0S0 15.4 0 38.5C0 423.5 254.1 693 616 693H947.1L693 931.7C677.6 947.1 677.6 970.2 693 985.6C708.4 1001 731.5 1001 746.9 985.6L1070.3 677.5999999999999C1070.3 677.5999999999999 1078 669.9000000000001 1078 654.5z" />
    <glyph glyph-name="ico_facebook_share_small"
      unicode="&#xEA1F;"
      horiz-adv-x="500.5" d=" M500.5 694.4437499999999L481.73125 538.0374999999999H344.09375V0H137.6375V538.0374999999999H0V694.4437499999999H137.6375V782.03125C137.6375 869.61875 162.6625 1001 319.06875 1001L481.7312499999999 1001V825.825H381.63125C362.8625 825.825 344.09375 813.3125 344.09375 769.51875V688.1875H500.5" />
    <glyph glyph-name="ico_feedback"
      unicode="&#xEA20;"
      horiz-adv-x="1001" d=" M275.275 291.9583333333333H792.4583333333334C817.4833333333335 291.9583333333333 834.1666666666667 308.6416666666666 834.1666666666667 333.6666666666667V750.75C834.1666666666667 775.775 817.4833333333335 792.4583333333333 792.4583333333334 792.4583333333333H208.5416666666667C183.5166666666667 792.4583333333333 166.8333333333334 775.775 166.8333333333334 750.75V183.5166666666666L275.275 291.9583333333333zM291.9583333333334 250.25L125.125 83.4166666666666V750.75C125.125 796.6291666666666 162.6625 834.1666666666666 208.5416666666667 834.1666666666666H792.4583333333334C838.3375000000001 834.1666666666666 875.875 796.6291666666666 875.875 750.75V333.6666666666667C875.875 287.7874999999999 838.3375000000001 250.25 792.4583333333334 250.25H291.9583333333334zM458.7916666666667 709.0416666666666V500.5H542.2083333333334V709.0416666666666H458.7916666666667zM458.7916666666667 458.7916666666666V375.375H542.2083333333334V458.7916666666666H458.7916666666667z" />
    <glyph glyph-name="ico_fullscreen"
      unicode="&#xEA21;"
      horiz-adv-x="1001" d=" M0 1001L0 625.625L125.125 625.625L125.125 875.875L375.375 875.875L375.375 1001L0 1001zM625.625 1001L625.625 875.875L875.875 875.875L875.875 625.625L1001 625.625L1001 1001L625.625 1001zM0 375.375L0 0L375.375 0L375.375 125.125L125.125 125.125L125.125 375.375L0 375.375zM875.875 375.375L875.875 125.125L625.625 125.125L625.625 0L1001 0L1001 375.375L875.875 375.375z" />
    <glyph glyph-name="ico_fullscreen_enabled"
      unicode="&#xEA22;"
      horiz-adv-x="1001" d=" M0 1001L0 625.625L125.125 625.625L125.125 875.875L375.375 875.875L375.375 1001L0 1001zM625.625 1001L625.625 875.875L875.875 875.875L875.875 625.625L1001 625.625L1001 1001L625.625 1001zM312.8125 688.1875L312.8125 312.8125L688.1875 312.8125L688.1875 688.1875L312.8125 688.1875zM0 375.375L0 0L375.375 0L375.375 125.125L125.125 125.125L125.125 375.375L0 375.375zM875.875 375.375L875.875 125.125L625.625 125.125L625.625 0L1001 0L1001 375.375L875.875 375.375z" />
    <glyph glyph-name="ico_gearwheel"
      unicode="&#xEA23;"
      horiz-adv-x="1001" d=" M950.95 605.605L880.88 615.615C875.875 640.64 865.865 660.6600000000001 850.8499999999999 685.685L890.89 745.745C910.91 770.77 905.905 805.8050000000001 885.8849999999999 825.825L825.8249999999999 885.885C815.8149999999999 895.895 800.8 905.905 780.78 905.905C765.7649999999999 905.905 755.755 900.9 745.745 895.895L685.685 850.85C660.66 860.86 640.6399999999999 870.87 615.6149999999999 880.88L605.6049999999999 950.95C600.5999999999999 980.98 575.5749999999999 1001 545.545 1001H455.455C425.425 1001 400.4 980.98 395.395 950.95L380.38 875.875C360.36 870.87 335.335 860.86 315.315 850.85L255.255 890.89C245.245 900.9 235.235 900.9 220.22 900.9C205.205 900.9 190.19 895.895 175.175 885.885L115.115 820.8199999999999C90.09 800.8 90.09 765.765 105.105 740.74L150.15 685.685C135.135 660.6600000000001 130.13 640.64 120.12 615.615L50.05 605.605C20.02 600.6 0 570.57 0 540.5400000000001V450.45C0 420.4200000000001 20.02 395.3950000000001 50.05 390.3900000000001L120.12 380.3800000000001C125.125 355.3550000000002 135.135 335.3350000000001 150.15 310.3100000000001L110.11 255.2550000000001C90.09 230.2300000000002 95.095 195.1950000000002 115.115 175.1750000000001L175.175 115.1150000000001C185.185 105.1050000000001 200.2 95.0950000000001 220.22 95.0950000000001C235.235 95.0950000000001 245.245 100.1000000000003 255.255 105.1050000000001L315.315 150.1500000000001C335.335 140.1400000000001 360.36 130.1300000000001 380.38 125.125L395.395 50.0500000000001C400.4 20.02 425.425 0 455.455 0H545.545C575.5749999999999 0 600.5999999999999 20.02 605.6049999999999 50.0500000000001L615.6149999999999 120.12C640.6399999999999 125.125 660.66 135.135 685.685 150.1500000000001L745.7449999999999 110.11C755.7549999999999 100.1 770.7699999999999 100.1 780.7799999999999 100.1L780.7799999999999 100.1C795.7949999999998 100.1 810.81 105.1050000000001 825.8249999999998 120.12L885.8849999999998 180.18C905.9049999999996 200.1999999999998 910.9099999999999 235.2349999999999 890.8899999999998 260.2599999999999L850.8499999999999 315.3150000000001C860.8599999999999 335.3350000000001 870.8699999999999 360.3600000000002 880.88 385.3850000000001L950.95 395.3950000000001C980.98 400.4000000000001 1001 425.4250000000001 1001 455.455V545.5450000000001C1001 575.575 980.98 600.6 950.95 605.605zM945.9449999999998 455.455C945.9449999999998 450.45 945.9449999999998 450.45 940.9399999999998 450.45L850.8499999999999 435.435C840.84 435.435 830.83 425.4250000000001 825.8249999999999 415.415C815.8149999999999 385.385 805.8050000000001 355.355 790.79 325.325C785.785 315.315 785.785 305.305 790.79 295.295L840.84 220.22C840.84 220.22 840.84 215.215 840.84 215.215L780.78 155.155C780.78 155.155 775.7750000000001 155.155 775.7750000000001 155.155C775.7750000000001 155.155 775.7750000000001 155.155 770.7700000000001 155.155L700.7 205.2049999999999C690.69 210.2099999999999 680.6800000000001 210.2099999999999 670.6700000000001 205.2049999999999C645.6450000000001 190.19 615.6150000000001 175.1749999999999 580.58 170.17C570.57 165.1649999999999 560.5600000000001 160.16 560.5600000000001 145.145L550.55 60.0600000000001C550.55 55.055 545.545 55.055 545.545 55.055H455.455C450.45 55.055 450.45 55.055 450.45 60.0600000000001L435.435 150.1500000000001C435.435 160.16 425.425 170.17 415.4149999999999 175.1750000000001C385.385 185.1850000000001 355.3549999999999 195.1949999999999 330.33 210.21C325.325 215.215 320.32 215.215 315.315 215.215C310.31 215.215 305.3049999999999 215.215 300.3 210.21L225.225 160.16C225.225 160.16 225.225 160.16 220.22 160.16C220.22 160.16 215.215 160.16 215.215 160.16L155.155 220.22C155.155 220.22 155.155 225.2249999999999 155.155 225.2249999999999L205.205 295.295C210.21 305.305 210.21 315.315 205.205 325.325C190.19 350.3499999999999 175.175 380.3799999999999 170.17 410.4099999999999C165.165 420.4199999999999 160.16 430.43 145.145 430.43L60.06 450.45C55.055 450.45 55.055 455.455 55.055 455.455V540.5400000000001C55.055 545.5450000000001 55.055 545.5450000000001 60.06 545.5450000000001L150.15 560.56C160.16 560.56 170.17 570.5699999999999 175.175 580.5799999999999C185.185 610.61 195.195 640.64 210.21 670.6700000000001C215.215 680.6800000000001 215.215 690.69 210.21 700.7L160.16 775.775C160.16 775.775 160.16 780.78 160.16 780.78L220.22 840.8399999999999C220.22 840.8399999999999 225.225 840.8399999999999 225.225 840.8399999999999C225.225 840.8399999999999 225.225 840.8399999999999 230.23 840.8399999999999L300.3 790.79C310.31 785.785 320.32 785.785 330.33 790.79C355.355 805.805 385.385 820.8199999999999 415.4149999999999 825.8249999999999C425.425 830.83 430.43 840.84 435.435 850.85L450.45 940.94C450.45 940.94 450.45 945.945 455.455 945.945H545.545C550.55 945.945 550.55 945.945 550.55 940.94L565.565 850.85C565.565 840.84 575.5749999999999 830.83 585.585 825.825C615.615 815.815 645.645 805.8050000000001 675.6750000000001 790.79C685.6850000000001 785.7850000000001 695.695 785.7850000000001 705.705 790.79L775.7750000000001 840.84C775.7750000000001 840.84 775.7750000000001 840.84 780.78 840.84C780.78 840.84 785.785 840.84 785.785 840.84L845.845 780.78C845.845 780.78 845.845 775.775 845.845 775.775L795.7950000000001 705.7049999999999C790.7900000000001 695.6949999999999 790.7900000000001 685.685 795.7950000000001 675.675C810.8100000000001 650.6500000000001 825.8250000000002 620.6200000000001 830.83 585.585C835.8350000000002 575.575 840.84 565.565 855.855 565.565L940.94 550.55C945.945 550.55 945.945 545.5450000000001 945.945 545.5450000000001L945.9449999999998 455.455L945.9449999999998 455.455zM500.5 715.715C380.38 715.715 285.285 620.6200000000001 285.285 500.5S380.38 285.285 500.5 285.285S715.715 380.38 715.715 500.5S620.62 715.715 500.5 715.715zM500.5 340.3400000000001C410.41 340.3400000000001 340.34 410.4100000000001 340.34 500.5S410.41 660.6600000000001 500.5 660.6600000000001S660.66 590.59 660.66 500.5S590.59 340.3400000000001 500.5 340.3400000000001z" />
    <glyph glyph-name="ico_googleplus"
      unicode="&#xEA24;"
      horiz-adv-x="1430" d=" M1424.995 556.985V439.01H1276.99V291.005H1159.015V439.01H1011.01V556.985H1159.015V703.56H1276.99V556.985zM472.615 589.1600000000001V411.8400000000001H739.31A281.71 281.71 0 0 0 637.065 261.6900000000001A264.55 264.55 0 0 0 478.335 209.495A286 286 0 0 0 208.78 406.12A280.28 280.28 0 0 0 214.5 589.875A286 286 0 0 0 478.335 778.635A264.55 264.55 0 0 0 652.7950000000001 715L780.78 843.7A437.58000000000004 437.58000000000004 0 0 1 472.615 968.825A472.615 472.615 0 0 1 55.055 709.28A460.46000000000004 460.46000000000004 0 0 1 57.915 286A471.90000000000003 471.90000000000003 0 0 1 473.3299999999999 32.175A436.865 436.865 0 0 1 775.775 152.295A476.19 476.19 0 0 1 922.35 500.5A500.5000000000001 500.5000000000001 0 0 1 914.485 589.1600000000001z" />
    <glyph glyph-name="ico_googleplus_share_small"
      unicode="&#xEA25;"
      horiz-adv-x="1540" d=" M954.8 569.8C962.5 546.7 962.5 515.9000000000001 962.5 485.1C962.5 200.2000000000002 777.6999999999999 -7.6999999999999 492.8 -7.6999999999999C215.6 0 0 223.3000000000001 0 500.5C0 777.7 215.6 1001 492.8 1001C623.6999999999999 1001 739.2000000000002 954.8 823.9 870.1L685.3000000000001 739.2C646.8000000000001 777.7 585.2 816.2 492.8 816.2C323.4000000000001 816.2 192.5 677.5999999999999 192.5 500.5S331.1000000000001 184.8000000000001 492.8 184.8000000000001C685.3000000000001 184.8000000000001 762.3000000000001 331.1 770 400.4H492.8V569.8H954.8zM1401.3999999999999 569.8V716.0999999999999H1262.8V569.8H1124.1999999999998V423.5H1262.8V277.2H1401.3999999999999V423.5H1540V569.8H1401.3999999999999z" />
    <glyph glyph-name="ico_grid"
      unicode="&#xEA26;"
      horiz-adv-x="1001" d=" M331.58125 1001H106.35625C50.05 1001 0 950.95 0 894.64375V675.675C0 613.1125 50.05 563.0625 106.35625 563.0625H325.325C387.8875 563.0625 437.9375 613.1125 437.9375 669.41875V894.64375C437.9375 950.95 387.8875 1001 331.58125 1001zM375.375 669.41875C375.375 644.39375 356.60625 625.625 331.58125 625.625H106.35625C81.33125 625.625 62.5625 644.39375 62.5625 669.41875V894.64375C62.5625 919.66875 81.33125 938.4375 106.35625 938.4375H325.325C356.60625 938.4375 375.375 919.66875 375.375 894.64375V669.41875zM894.6437500000001 1001H675.6750000000001C613.1125000000001 1001 563.0625 950.95 563.0625 894.64375V675.675C563.0625 613.1125 613.1125000000001 563.0625 669.4187499999999 563.0625H888.3874999999999C950.95 563.0625 994.7437499999997 613.1125 994.7437499999997 669.41875V894.64375C1001 950.95 950.95 1001 894.6437500000001 1001zM938.4375 669.41875C938.4375 644.39375 919.66875 625.625 894.6437500000001 625.625H675.6750000000001C644.3937500000001 625.625 625.625 644.39375 625.625 669.41875V894.64375C625.625 919.66875 644.3937500000001 938.4375 669.4187499999999 938.4375H888.3874999999999C919.66875 938.4375 938.4375 919.66875 938.4375 894.64375V669.41875zM331.58125 437.9375H106.35625C50.05 437.9375 0 387.8875 0 331.5812500000001V112.6125000000001C0 50.0500000000001 50.05 6.2562500000001 106.35625 6.2562500000001H325.325C387.8875 6.2562500000001 431.6812500000001 56.3062500000001 431.6812500000001 112.6125000000001V331.5812500000001C437.9375 387.8875 387.8875 437.9375 331.58125 437.9375zM375.375 106.3562499999999C375.375 81.3312500000001 356.60625 62.5625 331.58125 62.5625H106.35625C81.33125 62.5625 62.5625 81.3312500000001 62.5625 106.3562499999999V325.325C62.5625 356.60625 81.33125 375.375 106.35625 375.375H325.325C356.60625 375.375 375.375 356.60625 375.375 331.5812500000001V106.3562499999999zM894.6437500000001 437.9375H675.6750000000001C613.1125000000001 437.9375 563.0625 387.8875 563.0625 331.5812500000001V112.6125000000001C563.0625 50.0500000000001 613.1125000000001 6.2562500000001 669.4187499999999 6.2562500000001H888.3874999999999C950.95 6.2562500000001 994.7437499999997 56.3062500000001 994.7437499999997 112.6125000000001V331.5812500000001C1001 387.8875 950.95 437.9375 894.6437500000001 437.9375zM938.4375 106.3562499999999C938.4375 81.33125 919.66875 62.5625 894.6437500000001 62.5625H675.6750000000001C650.65 62.5625 631.8812500000001 81.3312500000001 631.8812500000001 106.3562499999999V325.325C631.8812500000001 350.35 650.6500000000001 369.1187499999999 675.6750000000001 369.1187499999999H894.6437500000001C919.66875 369.1187499999999 938.4375 350.3499999999999 938.4375 325.325V106.3562499999999z" />
    <glyph glyph-name="ico_heart"
      unicode="&#xEA27;"
      horiz-adv-x="1118.764705882353" d=" M1095.2117647058824 853.7941176470588C1036.329411764706 912.6764705882352 965.6705882352944 942.1176470588236 883.2352941176472 942.1176470588236C806.6882352941177 942.1176470588236 730.1411764705883 912.6764705882352 677.1470588235295 853.7941176470588L618.264705882353 794.9117647058823H618.264705882353L559.3823529411766 853.7941176470588C500.5 912.6764705882352 429.8411764705882 942.1176470588236 353.2941176470589 942.1176470588236C270.8588235294117 942.1176470588236 200.2 912.6764705882352 141.3176470588235 853.7941176470588C88.3235294117647 794.9117647058823 58.8823529411765 724.2529411764706 58.8823529411765 641.8176470588235S88.3235294117647 488.7235294117647 141.3176470588235 429.8411764705883L612.3764705882353 -58.8823529411766L1089.3235294117646 429.8411764705883H1089.3235294117646C1142.3176470588235 488.7235294117647 1171.7588235294118 559.3823529411766 1171.7588235294118 641.8176470588235C1177.6470588235295 724.2529411764706 1148.2058823529412 794.9117647058824 1095.2117647058822 853.7941176470588zM1095.2117647058824 853.7941176470588C1036.329411764706 912.6764705882352 965.6705882352944 942.1176470588236 883.2352941176472 942.1176470588236C806.6882352941177 942.1176470588236 730.1411764705883 912.6764705882352 677.1470588235295 853.7941176470588L618.264705882353 794.9117647058823H618.264705882353L559.3823529411766 853.7941176470588C500.5 912.6764705882352 429.8411764705882 942.1176470588236 353.2941176470589 942.1176470588236C270.8588235294117 942.1176470588236 200.2 912.6764705882352 141.3176470588235 853.7941176470588C88.3235294117647 794.9117647058823 58.8823529411765 724.2529411764706 58.8823529411765 641.8176470588235S88.3235294117647 488.7235294117647 141.3176470588235 429.8411764705883L612.3764705882353 -58.8823529411766L1089.3235294117646 429.8411764705883H1089.3235294117646C1142.3176470588235 488.7235294117647 1171.7588235294118 559.3823529411766 1171.7588235294118 641.8176470588235C1177.6470588235295 724.2529411764706 1148.2058823529412 794.9117647058824 1095.2117647058822 853.7941176470588z" />
    <glyph glyph-name="ico_home"
      unicode="&#xEA28;"
      horiz-adv-x="1001" d=" M994.3266666666668 460.46L527.1933333333334 987.6533333333334C513.8466666666667 1001 487.1533333333333 1001 473.8066666666667 987.6533333333334L93.4266666666667 560.56C93.4266666666667 560.56 86.7533333333333 553.8866666666668 86.7533333333333 553.8866666666668L6.6733333333333 460.46C-6.6733333333333 447.1133333333334 -6.6733333333333 427.0933333333334 6.6733333333333 413.7466666666668C26.6933333333333 400.4 46.7133333333333 400.4 60.06 413.7466666666666L86.7533333333334 440.44V26.6933333333333C86.7533333333334 6.6733333333332 100.1 -6.6733333333334 120.12 -6.6733333333334H326.9933333333334C347.0133333333334 -6.6733333333334 360.36 6.6733333333332 360.36 26.6933333333333V300.2999999999999H653.9866666666667V26.6933333333333C653.9866666666667 6.6733333333332 667.3333333333334 -6.6733333333334 687.3533333333334 -6.6733333333334H887.5533333333334C907.5733333333334 -6.6733333333334 920.92 6.6733333333332 920.92 26.6933333333333V447.1133333333333L947.6133333333333 413.7466666666666C954.2866666666667 407.0733333333333 960.96 400.4 974.3066666666668 400.4C980.9800000000002 400.4 987.6533333333334 400.4 994.3266666666668 407.0733333333333C1001 427.0933333333334 1007.6733333333332 447.1133333333333 994.3266666666668 460.46zM847.5133333333333 66.7333333333334H714.0466666666666V340.3399999999999C714.0466666666666 360.36 700.7 373.7066666666666 680.68 373.7066666666666H320.32C300.3 373.7066666666666 286.9533333333333 360.36 286.9533333333333 340.3399999999999V66.7333333333334H153.4866666666667V520.52L500.5 914.2466666666666L847.5133333333333 520.52V66.7333333333334z" />
    <glyph glyph-name="ico_hotspot"
      unicode="&#xEA29;"
      horiz-adv-x="834.1666666666667" d=" M-1377.2230114012557 2628.0696455070556C-1377.2230114012557 2628.0696455070556 -1386.224463206713 2628.8682161160064 -1377.2230114012557 2628.0696455070556C-1377.2230114012557 2628.0696455070556 -1377.2230114012557 2628.0696455070556 -1377.2230114012557 2628.0696455070556C-1376.424440718591 2637.0710981434167 -1376.424440718591 2637.0710981434167 -1376.424440718591 2637.0710981434167C-1376.424440718591 2637.0710981434167 -1376.424440718591 2637.0710981434167 -1375.6258701096408 2646.072549948874C-1375.6258701096408 2646.072549948874 -1375.6258701096408 2646.072549948874 -1375.6258701096408 2646.072549948874C-1375.6258701096408 2646.072549948874 -1374.8272995006905 2655.074001754331 -1365.8258468643296 2654.275431071667C-1365.8258468643296 2654.275431071667 -1365.027276181665 2663.2768837080275 -1356.0258243762073 2662.4783130990772C-1356.0258243762073 2662.4783130990772 -1356.0258243762073 2662.4783130990772 -1356.0258243762073 2662.4783130990772C-1356.0258243762073 2662.4783130990772 -1356.0258243762073 2662.4783130990772 -1356.0258243762073 2662.4783130990772C-1356.0258243762073 2662.4783130990772 -1347.02437257075 2661.679742490127 -1346.2258019617996 2670.6811942955837C-1346.2258019617996 2670.6811942955837 -1346.2258019617996 2670.6811942955837 -1337.224349325439 2669.88262361292C-1337.224349325439 2669.88262361292 -1337.224349325439 2669.88262361292 -1337.224349325439 2669.88262361292C-1337.224349325439 2669.88262361292 -1328.2228975199816 2669.084053003969 -1328.2228975199816 2669.084053003969C-1328.2228975199816 2669.084053003969 -1328.2228975199816 2669.084053003969 -1319.2214457145242 2668.285482395019C-1319.2214457145242 2668.285482395019 -1319.2214457145242 2668.285482395019 -1319.2214457145242 2668.285482395019C-1319.2214457145242 2668.285482395019 -1319.2214457145242 2668.285482395019 -1319.2214457145242 2668.285482395019L-870.7459826079132 2610.3540462525402C-843.7416263606378 2607.9583343519744 -827.3358631367201 2588.358289449445 -829.7315750372857 2561.353933202169C-832.127286937851 2534.349576954894 -851.7273326712842 2517.9438138046908 -878.7316889185597 2520.339525705256L-1228.9897495241908 2560.485232218063L-769.6283883087618 2011.6839606765125C-753.2226254909198 1992.0839149725648 -755.6183373914853 1965.0795587252896 -775.2183827704426 1948.6737957948717C-794.8184282251192 1932.2680329549155 -821.8227844723947 1934.663744855481 -838.2285476520836 1954.2637902565525L-1297.5899082342805 2503.065062328136L-1319.7327111361724 2151.209860504604C-1322.128423036738 2124.2055042573284 -1341.728468770171 2107.7997411071256 -1368.7328250174464 2110.1954530076905C-1395.7371812647218 2112.5911649082564 -1412.1429435840216 2132.191210567975 -1409.7472316834564 2159.1955668152505L-1377.2230114012557 2628.0696455070556C-1387.0230338156632 2619.866764310549 -1378.0215820102062 2619.068193701599 -1377.2230114012557 2628.0696455070556C-1378.0215820102062 2619.068193701599 -1377.2230114012557 2628.0696455070556 -1377.2230114012557 2628.0696455070556z" />
    <glyph glyph-name="ico_hotspot_info"
      unicode="&#xEA2A;"
      horiz-adv-x="143" d=" M125.125 578.2291665150001L125.125 100.4791716499999C125.125 76.59166515 109.200000195 60.6666632 85.312499415 60.6666632C61.4249999935 60.6666632 45.499999974 76.59166515 45.499999974 100.4791716499999L45.499999974 578.2291665150001C45.499999974 602.11666658 61.4249999935 618.041666385 85.312499415 618.041666385C109.200000195 618.041666385 125.125 602.11666658 125.125 578.2291665150001zM141.049999805 904.691667165L141.049999805 840.991666515C141.049999805 809.141666905 117.16249974 777.29166658 77.34999987 777.29166658C37.5375 777.29166658 29.575000026 809.141666905 29.575000026 840.991666515L29.575000026 904.691667165C29.575000026 936.541666632 53.4625000195 968.391666671 93.27500039 968.391666671C133.08750026 968.391666671 141.049999805 944.5041666775 141.049999805 904.691667165z" />
    <glyph glyph-name="ico_info"
      unicode="&#xEA2B;"
      horiz-adv-x="1001" d=" M500.5 1001C224.0333333333333 1001 0 776.9666666666667 0 500.5S224.0333333333333 0 500.5 0S1001 224.0333333333333 1001 500.5S776.9666666666667 1001 500.5 1001zM500.5 47.6666666666667C252.6333333333334 47.6666666666667 47.6666666666667 252.6333333333335 47.6666666666667 500.5C47.6666666666667 748.3666666666667 252.6333333333334 953.3333333333334 500.5 953.3333333333334S953.3333333333331 748.3666666666667 953.3333333333331 500.5C953.3333333333331 252.6333333333335 748.3666666666666 47.6666666666667 500.5 47.6666666666667zM524.3333333333333 548.1666666666667V262.1666666666668C524.3333333333333 247.8666666666667 514.8 238.3333333333334 500.5 238.3333333333334S476.6666666666666 247.8666666666667 476.6666666666666 262.1666666666668V548.1666666666667C476.6666666666666 562.4666666666667 486.1999999999999 572 500.5 572S524.3333333333333 562.4666666666667 524.3333333333333 548.1666666666667zM533.8666666666666 743.6V705.4666666666667C533.8666666666666 686.4 519.5666666666666 667.3333333333334 495.7333333333332 667.3333333333334S467.1333333333333 686.4000000000001 467.1333333333333 705.4666666666667V743.6C467.1333333333333 762.6666666666667 481.4333333333334 781.7333333333333 505.2666666666667 781.7333333333333S533.8666666666666 767.4333333333334 533.8666666666666 743.6z" />
    <glyph glyph-name="ico_instagram"
      unicode="&#xEA2C;"
      horiz-adv-x="1001" d=" M500.5 910.7987777777778C634.1335 910.7987777777778 649.9826666666668 910.2982777777778 702.7576111111111 907.8513888888888C751.5285555555556 905.6269444444443 778.0550555555556 897.4521111111111 795.6837777777778 890.6119444444445C819.0404444444445 881.4917222222222 835.7237777777779 870.7031666666667 853.2412777777778 853.1856666666666S881.6029444444445 818.9848333333333 890.6675555555555 795.6281666666666C897.5077222222222 777.9994444444444 905.6825555555554 751.4729444444445 907.907 702.702C910.2982777777778 649.9826666666667 910.7987777777778 634.1334999999999 910.7987777777778 500.5S910.2982777777778 351.0173333333333 907.8513888888888 298.2423888888889C905.6269444444443 249.4714444444444 897.4521111111111 222.9449444444445 890.6119444444445 205.3162222222222C881.4917222222223 181.9595555555556 870.7031666666667 165.2762222222222 853.1856666666667 147.7587222222222S818.9848333333334 119.3970555555556 795.6281666666667 110.3324444444445C777.9994444444445 103.4922777777778 751.4729444444445 95.3174444444445 702.7020000000001 93.0930000000001C649.9270555555556 90.7017222222224 634.1335 90.1456111111112 500.444388888889 90.1456111111112S350.9617222222223 90.6461111111112 298.1867777777778 93.0930000000001C249.4158333333334 95.3174444444445 222.8893333333334 103.492277777778 205.2606111111111 110.3324444444445C181.9039444444445 119.4526666666667 165.2206111111111 130.2412222222223 147.7031111111111 147.7587222222222S119.3414444444445 181.9595555555557 110.2768333333333 205.3162222222223C103.4366666666667 222.9449444444446 95.2618333333333 249.4714444444445 93.0373888888889 298.242388888889C90.7017222222222 351.0173333333333 90.2012222222222 366.8665 90.2012222222222 500.5S90.7017222222222 649.9826666666667 93.1486111111111 702.7576111111111C95.3730555555556 751.5285555555556 103.5478888888889 778.0550555555556 110.3880555555556 795.6837777777778C119.5082777777778 819.0404444444445 130.2968333333334 835.7237777777777 147.8143333333334 853.2412777777778S182.0151666666667 881.6029444444445 205.3718333333334 890.6675555555556C223.0005555555556 897.5077222222222 249.5270555555556 905.6825555555556 298.2980000000001 907.907C351.0173333333334 910.2982777777778 366.8665000000001 910.7987777777778 500.5 910.7987777777778M500.5 1001C364.5864444444445 1001 347.5138333333333 1000.4438888888888 294.1827777777778 997.997C240.9073333333334 995.5501111111112 204.4820555555556 987.0972222222222 172.6168888888889 974.6959444444444C139.7507222222222 961.9053888888888 111.8339444444445 944.8327777777778 84.0283888888889 916.971611111111C56.2228333333333 889.1660555555555 39.0946111111111 861.2492777777777 26.3040555555556 828.3275C13.9027777777778 796.5179444444444 5.4498888888889 760.0926666666667 3.003 706.8172222222222C0.5561111111111 653.4861666666667 0 636.4135555555556 0 500.5S0.5561111111111 347.5694444444445 3.003 294.1827777777777C5.3942777777778 240.9073333333332 13.9027777777778 204.5376666666666 26.2484444444444 172.6724999999999C39.039 139.7507222222221 56.1672222222222 111.8339444444443 83.9727777777778 84.0283888888888C111.7783333333333 56.2228333333333 139.6951111111111 39.094611111111 172.6168888888889 26.3040555555555C204.4820555555556 13.9027777777777 240.8517222222223 5.4498888888887 294.1271666666667 3.0586111111111C347.5138333333333 0.5561111111111 364.5864444444445 0 500.5 0S653.4305555555555 0.5561111111111 706.8172222222223 3.0029999999998C760.0926666666668 5.3942777777776 796.4623333333334 13.9027777777777 828.3275000000001 26.2484444444443C861.2492777777779 39.0389999999999 889.1660555555557 56.1672222222221 916.9716111111112 83.9727777777777C944.7771666666667 111.7783333333332 961.905388888889 139.695111111111 974.6959444444446 172.6168888888888C987.0972222222222 204.4820555555554 995.5501111111112 240.8517222222221 997.941388888889 294.1271666666666C1000.4438888888888 347.5694444444445 1001 364.5864444444444 1001 500.5S1000.4438888888888 653.4861666666666 997.9970000000002 706.8172222222222C995.6057222222224 760.0926666666667 987.0972222222222 796.4623333333334 974.7515555555556 828.3275C961.9610000000002 861.2492777777777 944.8327777777778 889.1660555555555 917.0272222222223 916.971611111111C889.2216666666668 944.7771666666666 861.304888888889 961.9053888888888 828.3831111111112 974.6959444444444C796.5179444444447 987.0972222222222 760.1482777777779 995.5501111111112 706.8728333333335 997.941388888889C653.4305555555555 1000.4438888888888 636.4135555555556 1001 500.5 1001L500.5 1001z M500.5 757.5345555555555C358.5804444444445 757.5345555555555 243.4654444444445 642.4195555555555 243.4654444444445 500.5S358.5804444444445 243.4654444444444 500.5 243.4654444444444S757.5345555555556 358.5804444444444 757.5345555555556 500.5S642.4195555555556 757.5345555555555 500.5 757.5345555555555zM500.5 333.6666666666667C408.3523888888889 333.6666666666667 333.6666666666667 408.3523888888889 333.6666666666667 500.5S408.3523888888889 667.3333333333333 500.5 667.3333333333333S667.3333333333334 592.647611111111 667.3333333333334 500.5S592.6476111111111 333.6666666666667 500.5 333.6666666666667z M707.5957777777778 767.6557777777778C707.5957777777778 734.4855557029402 734.4855557029404 707.5957777777778 767.6557777777779 707.5957777777778C800.8259998526153 707.5957777777778 827.7157777777778 734.4855557029402 827.7157777777778 767.6557777777778C827.7157777777778 800.8259998526153 800.8259998526153 827.7157777777778 767.6557777777779 827.7157777777778C734.4855557029404 827.7157777777778 707.5957777777778 800.8259998526153 707.5957777777778 767.6557777777778z" />
    <glyph glyph-name="ico_left"
      unicode="&#xEA2D;"
      horiz-adv-x="600.5999999999999" d=" M531.3007699999999 0L600.5999999999999 69.29923L169.39923 500.5L600.5999999999999 931.70077L531.3007699999999 1001L30.80077 500.5z" />
    <glyph glyph-name="ico_linkedin"
      unicode="&#xEA2E;"
      horiz-adv-x="1072.5" d=" M1064.635 387.53V0H838.695V361.0750000000001C838.695 451.88 805.805 514.085 723.58 514.085A122.97999999999999 122.97999999999999 0 0 1 607.75 429A149.43499999999997 149.43499999999997 0 0 1 600.6 374.66V0H373.23S373.23 612.04 373.23 674.96H599.885V579.865A224.51 224.51 0 0 0 803.66 691.405C953.095 691.405 1064.635 594.88 1064.635 387.53zM21.45 0H248.105V674.96H21.45zM135.85 1001A117.26 117.26 0 1 1 135.85 767.1949999999999H135.85A117.26 117.26 0 1 1 135.85 1001z" />
    <glyph glyph-name="ico_location_small"
      unicode="&#xEA2F;"
      horiz-adv-x="722.9444444444445" d=" M361.4722222222223 1001C161.2722222222223 1001 0 839.7277777777778 0 645.0888888888888C0 456.0111111111111 328.1055555555556 44.4888888888887 339.2277777777778 27.8055555555555L361.4722222222223 0L383.7166666666667 27.8055555555555C394.8388888888889 44.4888888888888 722.9444444444445 461.5722222222222 722.9444444444445 645.0888888888888C722.9444444444445 839.7277777777778 561.6722222222222 1001 361.4722222222223 1001zM361.4722222222223 88.9777777777778C261.3722222222223 222.4444444444444 55.6111111111111 517.1833333333334 55.6111111111111 645.0888888888888C55.6111111111111 811.9222222222222 194.6388888888889 945.388888888889 361.4722222222223 945.388888888889S667.3333333333334 811.9222222222222 667.3333333333334 645.0888888888888C667.3333333333334 517.1833333333334 461.5722222222223 222.4444444444444 361.4722222222223 88.9777777777778zM361.4722222222223 850.85C250.25 850.85 155.7111111111111 761.8722222222221 155.7111111111111 650.6499999999999S250.25 444.8888888888889 361.4722222222223 444.8888888888889S567.2333333333333 533.8666666666666 567.2333333333333 645.0888888888888S472.6944444444445 850.85 361.4722222222223 850.85zM361.4722222222223 500.5C278.0555555555556 500.5 211.3222222222222 567.2333333333333 211.3222222222222 645.0888888888888S278.0555555555556 795.2388888888888 361.4722222222223 795.2388888888888S511.6222222222222 728.5055555555555 511.6222222222222 650.6499999999999S444.8888888888889 500.5 361.4722222222223 500.5z" />
    <glyph glyph-name="ico_magnifier"
      unicode="&#xEA30;"
      horiz-adv-x="1001" d=" M993.3 69.3000000000001L639.1 415.8000000000001C693 477.4 723.8000000000001 554.4000000000001 723.8000000000001 639.0999999999999C723.8000000000001 839.3 562.1 1001 361.9000000000001 1001S0 839.3 0 639.0999999999999C0 438.9 161.7 277.2 361.9000000000001 277.2C446.6000000000001 277.2 523.6 308 585.1999999999999 361.9L931.7 15.4C939.4 7.6999999999999 947.1 7.6999999999999 962.5 7.6999999999999S985.6 7.6999999999999 993.3 15.4C1001 23.1 1001 53.9 993.3 69.3000000000001zM77 639.0999999999999C77 793.1 207.9 924 361.9000000000001 924S646.8000000000001 793.1 646.8000000000001 639.0999999999999S515.9 354.2 361.9000000000001 354.2S77 485.1 77 639.0999999999999z" />
    <glyph glyph-name="ico_mail"
      unicode="&#xEA31;"
      horiz-adv-x="1001" d=" M166.8333333333334 709.0416666666666V291.9583333333333H834.1666666666667V709.0416666666666H166.8333333333334zM166.8333333333334 750.75H834.1666666666667C859.1916666666667 750.75 875.875 734.0666666666666 875.875 709.0416666666666V291.9583333333333C875.875 266.9333333333333 859.1916666666667 250.25 834.1666666666667 250.25H166.8333333333334C141.8083333333333 250.25 125.125 266.9333333333333 125.125 291.9583333333333V709.0416666666666C125.125 734.0666666666666 141.8083333333333 750.75 166.8333333333334 750.75zM137.6375 704.8708333333334L162.6625 738.2375L487.9875 496.3291666666667C496.3291666666667 492.1583333333334 504.6708333333333 492.1583333333334 513.0124999999999 496.3291666666667L838.3375 738.2375L863.3625000000001 704.8708333333334L538.0375 462.9625C517.1833333333333 446.2791666666667 483.8166666666666 446.2791666666667 462.9624999999999 462.9625L137.6375 704.8708333333334z" />
    <glyph glyph-name="ico_marker"
      unicode="&#xEA32;"
      horiz-adv-x="737.578947368421" d=" M368.7894736842105 1001C165.9552631578947 1001 0 842.9473684210526 0 648.0157894736842S368.7894736842105 0 368.7894736842105 0S737.578947368421 455.7184210526316 737.578947368421 648.0157894736842S571.6236842105262 1001 368.7894736842105 1001zM368.7894736842105 460.9868421052631C260.7868421052632 460.9868421052631 173.8578947368421 545.2815789473684 173.8578947368421 648.0157894736842S260.7868421052632 835.0447368421053 368.7894736842105 835.0447368421053C476.7921052631579 835.0447368421053 563.7210526315789 750.75 563.7210526315789 648.0157894736842S476.7921052631579 460.9868421052631 368.7894736842105 460.9868421052631z" />
    <glyph glyph-name="ico_minimize"
      unicode="&#xEA33;"
      horiz-adv-x="1001" d=" M994.74375 944.69375L619.36875 563.0625H850.8500000000001C869.6187500000001 563.0625 882.1312500000001 550.55 882.1312500000001 531.78125S869.6187500000001 500.5 850.8500000000001 500.5H538.0375C538.0375 500.5 538.0375 500.5 538.0375 500.5C531.78125 500.5 531.78125 500.5 525.525 500.5C519.2687500000001 513.0125 513.0124999999999 519.26875 506.75625 525.5250000000001C506.75625 525.5250000000001 506.75625 525.5250000000001 506.75625 525.5250000000001C506.75625 531.78125 506.75625 531.78125 506.75625 538.0375V844.59375C506.75625 863.3625 519.2687500000001 875.875 538.0375 875.875S569.31875 863.3625 569.31875 844.59375V613.1125L944.69375 994.74375C957.20625 1007.25625 975.975 1007.25625 988.4875 994.74375C1001 982.23125 1001 957.20625 994.74375 944.69375zM494.24375 475.475C487.9875 481.7312499999999 481.73125 487.9875000000001 475.475 494.24375C469.21875 494.24375 469.21875 494.24375 462.9625 494.24375C462.9625 494.24375 462.9625 494.24375 462.9625 494.24375H156.40625C137.6375 494.24375 125.125 481.7312499999999 125.125 462.9625S137.6375 431.68125 156.40625 431.68125H387.8875L12.5125 50.0500000000001C0 37.5375000000001 0 18.7687500000001 12.5125 6.2562500000001C12.5125 0 25.025 0 31.28125 0S50.05 0 56.30625 6.25625L431.6812500000001 387.8875V156.40625C431.6812500000001 137.6374999999999 444.19375 125.125 462.9625 125.125S494.24375 137.6374999999999 494.24375 156.40625V462.9625C494.24375 469.21875 494.24375 469.21875 494.24375 475.475C494.24375 475.475 494.24375 475.475 494.24375 475.475z" />
    <glyph glyph-name="ico_motion"
      unicode="&#xEA34;"
      horiz-adv-x="1001" d=" M62.5625 500.5C62.5625 258.6337973709768 258.6337973709769 62.5625 500.5 62.5625C742.3662026290232 62.5625 938.4375 258.6337973709768 938.4375 500.5C938.4375 742.3662026290233 742.3662026290232 938.4375 500.5 938.4375C258.6337973709769 938.4375 62.5625 742.3662026290233 62.5625 500.5z M339.58925 229.6043749999992L339.58925 590.5899999999999L652.4017500000001 771.3956250000008L652.4017500000001 410.4100000000002L339.58925 229.6043749999992zM402.15175 337.8375000000003L589.8392500000001 446.0706249999997L402.0891875 554.9293750000003L402.15175 337.8375000000003z" />
    <glyph glyph-name="ico_motion_enabled"
      unicode="&#xEA35;"
      horiz-adv-x="1001" d=" M62.5625 500.5C62.5625 258.6337973709768 258.6337973709769 62.5625 500.5 62.5625C742.3662026290232 62.5625 938.4375 258.6337973709768 938.4375 500.5C938.4375 742.3662026290233 742.3662026290232 938.4375 500.5 938.4375C258.6337973709769 938.4375 62.5625 742.3662026290233 62.5625 500.5z M344.09375 500.5C344.09375 414.119213346778 414.1192133467775 344.09375 500.5 344.09375C586.8807866532226 344.09375 656.90625 414.119213346778 656.90625 500.5C656.90625 586.880786653222 586.8807866532226 656.90625 500.5 656.90625C414.1192133467775 656.90625 344.09375 586.880786653222 344.09375 500.5z" />
    <glyph glyph-name="ico_mute"
      unicode="&#xEA36;"
      horiz-adv-x="706.5882352941177" d=" M653.5941176470589 1001C647.7058823529412 1001 635.929411764706 1001 624.1529411764706 995.1117647058824L276.7470588235294 718.364705882353H105.9882352941176C47.1058823529412 718.364705882353 0 671.2588235294118 0 618.2647058823529V382.7352941176471C0 329.7411764705883 47.1058823529412 282.6352941176471 105.9882352941176 282.6352941176471H276.7470588235294L624.1529411764707 5.8882352941177C630.0411764705883 0 635.929411764706 0 641.8176470588237 0C647.7058823529413 0 647.7058823529413 0 653.594117647059 0C665.3705882352941 5.8882352941177 671.2588235294119 17.664705882353 671.2588235294119 29.4411764705882V971.5588235294118C671.2588235294118 983.335294117647 665.3705882352941 995.1117647058824 653.5941176470589 1001zM612.3764705882353 88.3235294117648L300.3 335.6294117647059C294.4117647058825 341.5176470588235 288.5235294117648 341.5176470588235 282.6352941176471 341.5176470588235H105.9882352941177C82.4352941176471 341.5176470588235 58.8823529411765 359.1823529411764 58.8823529411765 382.735294117647V618.2647058823528C58.8823529411765 641.8176470588235 82.4352941176471 659.4823529411764 105.9882352941177 659.4823529411764H282.6352941176471C288.5235294117648 659.4823529411764 294.4117647058825 659.4823529411764 300.3 665.370588235294L612.3764705882353 912.6764705882352V88.3235294117648z" />
    <glyph glyph-name="ico_myservices"
      unicode="&#xEA37;"
      horiz-adv-x="1001" d=" M331.58125 1001H106.35625C50.05 1001 0 950.95 0 894.64375V675.675C0 613.1125 50.05 563.0625 106.35625 563.0625H325.325C387.8875 563.0625 437.9375 613.1125 437.9375 669.41875V894.64375C437.9375 950.95 387.8875 1001 331.58125 1001zM375.375 669.41875C375.375 644.39375 356.60625 625.625 331.58125 625.625H106.35625C81.33125 625.625 62.5625 644.39375 62.5625 669.41875V894.64375C62.5625 919.66875 81.33125 938.4375 106.35625 938.4375H325.325C356.60625 938.4375 375.375 919.66875 375.375 894.64375V669.41875zM894.6437500000001 1001H675.6750000000001C613.1125000000001 1001 563.0625 950.95 563.0625 894.64375V675.675C563.0625 613.1125 613.1125000000001 563.0625 669.4187499999999 563.0625H888.3874999999999C950.95 563.0625 994.7437499999997 613.1125 994.7437499999997 669.41875V894.64375C1001 950.95 950.95 1001 894.6437500000001 1001zM938.4375 669.41875C938.4375 644.39375 919.66875 625.625 894.6437500000001 625.625H675.6750000000001C644.3937500000001 625.625 625.625 644.39375 625.625 669.41875V894.64375C625.625 919.66875 644.3937500000001 938.4375 669.4187499999999 938.4375H888.3874999999999C919.66875 938.4375 938.4375 919.66875 938.4375 894.64375V669.41875zM331.58125 437.9375H106.35625C50.05 437.9375 0 387.8875 0 331.5812500000001V112.6125000000001C0 50.0500000000001 50.05 6.2562500000001 106.35625 6.2562500000001H325.325C387.8875 6.2562500000001 431.6812500000001 56.3062500000001 431.6812500000001 112.6125000000001V331.5812500000001C437.9375 387.8875 387.8875 437.9375 331.58125 437.9375zM375.375 106.3562499999999C375.375 81.3312500000001 356.60625 62.5625 331.58125 62.5625H106.35625C81.33125 62.5625 62.5625 81.3312500000001 62.5625 106.3562499999999V325.325C62.5625 356.60625 81.33125 375.375 106.35625 375.375H325.325C356.60625 375.375 375.375 356.60625 375.375 331.5812500000001V106.3562499999999zM894.6437500000001 437.9375H675.6750000000001C613.1125000000001 437.9375 563.0625 387.8875 563.0625 331.5812500000001V112.6125000000001C563.0625 50.0500000000001 613.1125000000001 6.2562500000001 669.4187499999999 6.2562500000001H888.3874999999999C950.95 6.2562500000001 994.7437499999997 56.3062500000001 994.7437499999997 112.6125000000001V331.5812500000001C1001 387.8875 950.95 437.9375 894.6437500000001 437.9375zM938.4375 106.3562499999999C938.4375 81.33125 919.66875 62.5625 894.6437500000001 62.5625H675.6750000000001C650.65 62.5625 631.8812500000001 81.3312500000001 631.8812500000001 106.3562499999999V325.325C631.8812500000001 350.35 650.6500000000001 369.1187499999999 675.6750000000001 369.1187499999999H894.6437500000001C919.66875 369.1187499999999 938.4375 350.3499999999999 938.4375 325.325V106.3562499999999z" />
    <glyph glyph-name="ico_north"
      unicode="&#xEA38;"
      horiz-adv-x="616.5579710144928" d=" M616.5579710144928 500.5C616.5579710144928 500.5 609.304347826087 507.7536231884058 616.5579710144928 500.5C616.5579710144928 507.7536231884058 616.5579710144928 515.0072463768116 609.304347826087 515.0072463768116L609.304347826087 515.0072463768116L609.304347826087 515.0072463768116L340.9202898550725 986.4927536231884C333.6666666666667 993.7463768115942 319.1594202898551 1001 304.6521739130435 1001S282.8913043478261 993.7463768115942 275.6376811594203 986.4927536231884L7.2536231884058 515.0072463768116L7.2536231884058 515.0072463768116L7.2536231884058 515.0072463768116C7.2536231884058 515.0072463768116 7.2536231884058 507.7536231884058 7.2536231884058 500.5V493.2463768115942L0 493.2463768115942C0 485.9927536231885 0 485.9927536231885 0 478.7391304347826L0 478.7391304347826L0 478.7391304347826L268.3840579710145 14.5072463768115C275.6376811594203 0 290.1449275362319 0 297.3985507246377 0S319.1594202898551 7.2536231884058 326.413043478261 14.5072463768115L594.7971014492754 478.7391304347825L594.7971014492754 478.7391304347825L594.7971014492754 478.7391304347825C609.304347826087 485.9927536231885 609.304347826087 493.2463768115942 616.5579710144928 500.5C609.304347826087 493.2463768115942 616.5579710144928 500.5 616.5579710144928 500.5zM304.6521739130435 108.8043478260869L101.5507246376812 464.231884057971H515.0072463768115L304.6521739130435 108.8043478260869z" />
    <glyph glyph-name="ico_pause"
      unicode="&#xEA39;"
      horiz-adv-x="583.9166666666667" d=" M41.7083333333333 0C16.6833333333333 0 0 16.6833333333332 0 41.7083333333333V959.2916666666666C0 984.3166666666668 16.6833333333333 1001 41.7083333333333 1001S83.4166666666667 984.3166666666668 83.4166666666667 959.2916666666666V41.7083333333333C83.4166666666667 16.6833333333332 66.7333333333333 0 41.7083333333333 0zM583.9166666666667 41.7083333333333V959.2916666666666C583.9166666666667 984.3166666666668 567.2333333333333 1001 542.2083333333334 1001S500.5 984.3166666666668 500.5 959.2916666666666V41.7083333333333C500.5 16.6833333333332 517.1833333333334 0 542.2083333333334 0S583.9166666666667 16.6833333333332 583.9166666666667 41.7083333333333z" />
    <glyph glyph-name="ico_pencil"
      unicode="&#xEA3A;"
      horiz-adv-x="1001" d=" M834.1666666666667 704.8708333333334L713.2125000000001 825.825C704.8708333333335 834.1666666666667 692.3583333333335 834.1666666666667 684.0166666666668 825.825L304.4708333333335 450.45C304.4708333333335 450.45 300.3000000000002 446.2791666666667 300.3000000000002 442.1083333333334L208.5416666666667 229.3958333333333C208.5416666666667 221.0541666666667 208.5416666666667 212.7125 212.7125 208.5416666666666S221.0541666666667 204.3708333333333 229.3958333333334 204.3708333333333C233.5666666666667 204.3708333333333 233.5666666666667 204.3708333333333 237.7375 204.3708333333333L450.45 291.9583333333333C454.6208333333334 291.9583333333333 454.6208333333334 296.1291666666667 458.7916666666667 296.1291666666667L834.1666666666667 675.675C842.5083333333333 684.0166666666667 842.5083333333333 700.7 834.1666666666667 704.8708333333334zM442.1083333333334 342.0083333333332L350.35 433.7666666666666L621.4541666666667 704.8708333333333L713.2125 613.1125L442.1083333333334 342.0083333333332zM325.325 396.2291666666667L404.5708333333334 316.9833333333334L266.9333333333334 258.5916666666667L325.325 396.2291666666667zM742.4083333333334 642.3083333333334L650.6500000000001 734.0666666666666L700.7 784.1166666666667L792.4583333333334 692.3583333333333L742.4083333333334 642.3083333333334z" />
    <glyph glyph-name="ico_pencil2"
      unicode="&#xEA3B;"
      horiz-adv-x="1001" d=" M834.1666666666667 704.8708333333334L713.2125000000001 825.825C704.8708333333335 834.1666666666667 692.3583333333335 834.1666666666667 684.0166666666668 825.825L304.4708333333335 450.45C304.4708333333335 450.45 300.3000000000002 446.2791666666667 300.3000000000002 442.1083333333334L208.5416666666667 229.3958333333333C208.5416666666667 221.0541666666667 208.5416666666667 212.7125 212.7125 208.5416666666666S221.0541666666667 204.3708333333333 229.3958333333334 204.3708333333333C233.5666666666667 204.3708333333333 233.5666666666667 204.3708333333333 237.7375 204.3708333333333L450.45 291.9583333333333C454.6208333333334 291.9583333333333 454.6208333333334 296.1291666666667 458.7916666666667 296.1291666666667L834.1666666666667 675.675C842.5083333333333 684.0166666666667 842.5083333333333 700.7 834.1666666666667 704.8708333333334zM442.1083333333334 342.0083333333332L350.35 433.7666666666666L621.4541666666667 704.8708333333333L713.2125 613.1125L442.1083333333334 342.0083333333332zM325.325 396.2291666666667L404.5708333333334 316.9833333333334L266.9333333333334 258.5916666666667L325.325 396.2291666666667zM742.4083333333334 642.3083333333334L650.6500000000001 734.0666666666666L700.7 784.1166666666667L792.4583333333334 692.3583333333333L742.4083333333334 642.3083333333334z" />
    <glyph glyph-name="ico_phone"
      unicode="&#xEA3C;"
      horiz-adv-x="1001" d=" M989.8777777777779 205.7611111111111L772.9944444444445 394.8388888888889C761.8722222222224 400.4 750.75 405.961111111111 745.188888888889 400.4L589.4777777777779 322.5444444444444L322.5444444444445 589.4777777777778L400.4 745.1888888888889C405.9611111111111 756.3111111111111 405.9611111111111 767.4333333333333 394.8388888888889 772.9944444444444L205.7611111111111 989.8777777777779C200.2 995.4388888888888 194.6388888888889 1001 189.0777777777778 1001C183.5166666666667 1001 172.3944444444445 1001 166.8333333333334 995.4388888888888L11.1222222222222 856.411111111111C5.5611111111111 850.85 0 845.2888888888889 0 839.7277777777778C0 834.1666666666666 -16.6833333333333 717.3833333333333 100.1 550.55C205.7611111111111 400.4 294.7388888888889 316.9833333333333 305.8611111111112 305.8611111111111C316.9833333333334 294.738888888889 400.4000000000001 205.7611111111111 550.5500000000001 100.1C678.4555555555555 11.1222222222221 778.5555555555557 0 817.4833333333333 0C828.6055555555555 0 834.1666666666667 0 834.1666666666667 0C839.7277777777778 0 845.2888888888889 5.5611111111111 850.8500000000001 11.1222222222221L989.8777777777779 166.8333333333333C995.438888888889 172.3944444444444 995.438888888889 177.9555555555555 995.438888888889 189.0777777777778C1001 194.6388888888888 995.4388888888888 200.1999999999999 989.8777777777779 205.7611111111111zM817.4833333333333 55.6111111111111C817.4833333333333 55.6111111111111 817.4833333333333 55.6111111111111 817.4833333333333 55.6111111111111C789.6777777777778 55.6111111111111 700.7 61.1722222222222 578.3555555555555 144.5888888888889C422.6444444444444 250.25 344.7888888888889 339.2277777777778 339.2277777777777 344.7888888888888C339.2277777777777 344.7888888888888 339.2277777777777 344.7888888888888 339.2277777777777 344.7888888888888C339.2277777777777 344.7888888888888 244.6888888888888 428.2055555555555 139.0277777777777 583.9166666666665C61.1722222222222 706.2611111111112 55.6111111111111 795.2388888888888 55.6111111111111 817.4833333333333L183.5166666666667 928.7055555555556L339.2277777777778 745.1888888888889L261.3722222222223 595.0388888888889C255.8111111111111 583.9166666666666 261.3722222222223 572.7944444444445 266.9333333333334 561.6722222222222L561.6722222222222 266.9333333333333C572.7944444444444 255.8111111111112 583.9166666666667 255.8111111111112 595.0388888888889 261.3722222222223L750.75 339.2277777777779L934.2666666666668 183.5166666666667L817.4833333333333 55.6111111111111z" />
    <glyph glyph-name="ico_play"
      unicode="&#xEA3D;"
      horiz-adv-x="917.5833333333334" d=" M867.5333333333334 533.8666666666667L58.3916666666667 992.6583333333334C50.05 1001 33.3666666666667 1001 16.6833333333333 992.6583333333334C8.3416666666667 984.3166666666668 0 975.975 0 959.2916666666666V41.7083333333333C0 25.025 8.3416666666667 16.6833333333332 16.6833333333333 8.3416666666666C25.025 0 33.3666666666667 0 41.7083333333333 0C50.05 0 58.3916666666667 0 58.3916666666667 8.3416666666666L859.1916666666666 467.1333333333333C875.8749999999999 475.4749999999999 884.2166666666667 492.1583333333332 884.2166666666667 500.5S875.875 525.525 867.5333333333334 533.8666666666667zM83.4166666666667 116.7833333333333V884.2166666666667L759.0916666666667 500.5L83.4166666666667 116.7833333333333z" />
    <glyph glyph-name="ico_plus_small"
      unicode="&#xEA3E;"
      horiz-adv-x="1001" d=" M1001 462H539V0H462V462H0V539H462V1001H539V539H1001V462z" />
    <glyph glyph-name="ico_poi"
      unicode="&#xEA3F;"
      horiz-adv-x="1001" d=" M692.16021875 766.766H382.63225V766.92240625C382.63225 792.82328125 361.61125 813.84428125 335.710375 813.84428125S288.7885 792.82328125 288.7885 766.92240625V259.0713125L335.710375 185.5603749999999L382.63225 259.0713125V425.2373125000001H692.16021875C707.3316249999999 425.2373125000001 719.6251562499999 442.316875 719.6251562499999 463.4630000000001V728.5403125C719.6251562499999 749.6864375 707.3316249999999 766.766 692.16021875 766.766z" />
    </font>
</defs>
</svg>
