<svg id="Ebene_1" xmlns="http://www.w3.org/2000/svg" viewBox="0 0 1000 423"><style>.st0{fill:#003763}.st1{fill:#78b725}</style><path class="st0" d="M226.6 175.6H74.2c.6 47.6 13.6 69.7 41.3 69.7 18.1 0 31.7-14.2 36.8-39.6h71.4c-7.4 64-48.2 102-107.6 102C43.6 307.6 0 251.5 0 158 0 60 44.8 0 117.3 0c70.8 0 109.9 56.1 109.9 159.2-.1 3.4-.1 9-.6 16.4zm-73.7-54.9c-.6-37.4-15.3-58.3-39.6-58.3-24.9 0-38.5 20.4-38.5 58.3h78.1zm159.4-115L334.4 123c5.7 30.6 9.1 56.6 11.3 88.9 2.3-27.2 7.4-57.8 15.3-92.9L388.2 5.7h58.9l23.8 98.6c13.6 55.5 15.3 62.9 18.7 107.6 4-47.6 5.1-56.6 14.7-107.6l19.3-98.6h73.6L523.6 302h-67.4l-38.5-194.3L379.2 302h-66.8L238.1 5.7h74.2z"/><path class="st1" d="M0 362.4h807.6V423H0z"/><path class="st0" d="M807.6 362.4H1000V423H807.6zm-.1-121.1v60.6H613.2v-65.1L723.1 66.3h-98V5.7h182.4v64.6l-110.4 171h110.4z"/></svg>