<svg xmlns="http://www.w3.org/2000/svg" width="304" height="53" viewBox="0 0 304 53"><path d="M90.231 13.299c0 2.49 1.94 3.461 4.143 3.461 1.443 0 3.646-.42 3.646-2.334 0-2.02-2.806-2.36-5.56-3.094-2.78-.734-5.586-1.81-5.586-5.325 0-3.828 3.62-5.664 7.003-5.664 3.908 0 7.501 1.704 7.501 6.033h-3.987c-.131-2.256-1.731-2.833-3.698-2.833-1.311 0-2.832.551-2.832 2.125 0 1.443.892 1.626 5.586 2.832 1.364.342 5.561 1.208 5.561 5.456 0 3.436-2.702 6.007-7.79 6.007-4.143 0-8.025-2.046-7.973-6.662h3.986zm18.803-7.344h2.728v2.492h-2.728v6.714c0 1.26.315 1.575 1.574 1.575a5.77 5.77 0 0 0 1.154-.105v2.91c-.629.105-1.442.132-2.177.132-2.281 0-4.275-.524-4.275-3.226v-8h-2.255V5.955h2.255V1.89h3.725v4.065zm5.272 4.17c.21-3.488 3.331-4.538 6.374-4.538 2.701 0 5.953.604 5.953 3.856v7.055c0 1.233.131 2.465.472 3.016h-3.776a5.547 5.547 0 0 1-.264-1.311c-1.179 1.231-2.91 1.678-4.562 1.678-2.571 0-4.616-1.286-4.616-4.065 0-3.068 2.308-3.803 4.616-4.117 2.282-.342 4.405-.262 4.405-1.783 0-1.6-1.101-1.837-2.413-1.837-1.416 0-2.334.577-2.465 2.046h-3.724zm8.602 2.753c-.629.551-1.94.578-3.094.788-1.154.235-2.203.629-2.203 1.993 0 1.391 1.075 1.731 2.281 1.731 2.911 0 3.016-2.308 3.016-3.121v-1.391zm16.42 4.906h-.051c-.866 1.469-2.388 2.098-4.119 2.098-4.092 0-6.084-3.514-6.084-7.266 0-3.646 2.02-7.029 6.005-7.029 1.6 0 3.173.683 4.013 2.02h.054V.788h3.725v18.727h-3.542v-1.731zm-3.252-9.39c-2.439 0-3.278 2.099-3.278 4.327 0 2.125.97 4.354 3.278 4.354 2.466 0 3.201-2.15 3.201-4.38 0-2.202-.788-4.301-3.201-4.301zm14.843-2.439h2.73v2.492h-2.73v6.714c0 1.26.314 1.575 1.574 1.575.395 0 .761-.027 1.156-.105v2.91c-.63.105-1.444.132-2.179.132-2.281 0-4.273-.524-4.273-3.226v-8h-2.257V5.955h2.257V1.89h3.722v4.065zm12.038 10.307L173.002 4.25h-9.257V.788h14.738v3.253l-10.045 12.011h10.309v3.463h-15.79v-3.253zm30.791 3.253h-3.539v-1.888h-.078c-.946 1.521-2.571 2.255-4.145 2.255-3.961 0-4.956-2.229-4.956-5.586V5.955h3.722v7.659c0 2.229.656 3.331 2.389 3.331 2.02 0 2.886-1.128 2.886-3.882V5.955h3.722v13.56zM182.918.788h3.539v3.069h-3.539V.788zm5.403 0h3.539v3.069h-3.539V.788zm8.783 5.167h3.54v2.519h.054c.681-1.705 2.517-2.886 4.327-2.886.261 0 .575.052.812.132v3.461a6.875 6.875 0 0 0-1.337-.131c-2.729 0-3.674 1.967-3.674 4.354v6.11h-3.723V5.955zm14.688-2.098h-3.723V.788h3.723v3.069zm-3.723 2.098h3.723v13.56h-3.723V5.955zm16.022 4.773c-.234-1.521-1.205-2.334-2.754-2.334-2.386 0-3.174 2.414-3.174 4.406 0 1.94.761 4.275 3.096 4.275 1.731 0 2.727-1.101 2.964-2.754h3.593c-.471 3.593-2.964 5.561-6.53 5.561-4.09 0-6.845-2.885-6.845-6.95 0-4.224 2.518-7.345 6.923-7.345 3.2 0 6.138 1.68 6.374 5.141h-3.647zm6.086-9.94h3.723v7.056h.08c.944-1.521 2.568-2.256 3.959-2.256 3.962 0 4.957 2.229 4.957 5.587v8.34h-3.723v-7.658c0-2.229-.656-3.331-2.388-3.331-2.021 0-2.886 1.128-2.886 3.881v7.108h-3.723V.788zM88.21 41.83c-.078 3.854 2.701 5.035 6.111 5.035 1.966 0 4.955-1.076 4.955-3.803 0-2.125-2.123-2.964-3.855-3.384l-4.169-1.021c-2.203-.552-4.222-1.601-4.222-4.511 0-1.837 1.18-5.271 6.452-5.271 3.697 0 6.948 1.993 6.923 5.823h-1.783c-.105-2.859-2.466-4.301-5.114-4.301-2.438 0-4.694.944-4.694 3.723 0 1.756 1.312 2.492 2.832 2.858l4.564 1.127c2.648.707 4.851 1.863 4.851 4.93 0 1.286-.524 5.35-7.158 5.35-4.432 0-7.684-1.993-7.474-6.555h1.781zm28.008-.602c0 3.879-2.255 7.157-6.398 7.157s-6.398-3.278-6.398-7.157c0-3.883 2.255-7.159 6.398-7.159s6.398 3.276 6.398 7.159zm-11.144 0c0 2.884 1.573 5.767 4.746 5.767 3.173 0 4.747-2.883 4.747-5.767 0-2.886-1.574-5.771-4.747-5.771-3.173-.001-4.746 2.885-4.746 5.771zm14.949 5.374h9.31v1.391H118.03v-1.337l8.838-10.804h-8.234v-1.391h10.332v1.181l-8.943 10.96zm11.882-17.331h1.651v2.646h-1.651v-2.646zm0 5.19h1.651v13.531h-1.651V34.461zm5.193 4.143c.156-3.172 2.386-4.535 5.479-4.535 2.388 0 4.983.734 4.983 4.352v7.187c0 .629.314.995.971.995.183 0 .393-.051.524-.104v1.39a4.572 4.572 0 0 1-1.076.105c-1.678 0-1.941-.944-1.941-2.359h-.051c-1.154 1.757-2.334 2.752-4.93 2.752-2.49 0-4.537-1.231-4.537-3.959 0-3.803 3.698-3.935 7.265-4.354 1.363-.156 2.125-.339 2.125-1.834 0-2.229-1.6-2.781-3.542-2.781-2.044 0-3.566.947-3.617 3.147h-1.653zm8.811 1.995h-.054c-.21.393-.944.521-1.391.603-2.805.497-6.293.471-6.293 3.12 0 1.651 1.468 2.673 3.017 2.673 2.518 0 4.745-1.598 4.72-4.247v-2.149zm5.508-11.328h1.651v18.722h-1.651V29.271zm17.256 18.721h-1.521v-2.568h-.052c-.708 1.756-2.859 2.961-4.825 2.961-4.118 0-6.084-3.33-6.084-7.157 0-3.829 1.966-7.159 6.084-7.159 2.02 0 3.985 1.022 4.693 2.964h.054v-7.762h1.651v18.721zm-6.399-.998c3.515 0 4.747-2.961 4.747-5.767 0-2.808-1.232-5.771-4.747-5.771-3.146 0-4.433 2.964-4.433 5.771.001 2.806 1.287 5.767 4.433 5.767zm11.043-5.322c.026 2.412 1.285 5.322 4.456 5.322 2.412 0 3.725-1.415 4.249-3.459h1.651c-.707 3.066-2.49 4.85-5.9 4.85-4.301 0-6.108-3.303-6.108-7.157 0-3.566 1.808-7.159 6.108-7.159 4.354 0 6.084 3.803 5.954 7.604h-10.41zm8.757-1.391c-.078-2.49-1.625-4.825-4.301-4.825-2.7 0-4.195 2.361-4.456 4.825h8.757zm4.407-5.82h1.522v2.571h.051c.762-1.837 2.649-2.964 4.825-2.964 4.117 0 6.084 3.33 6.084 7.159 0 3.827-1.967 7.157-6.084 7.157-2.018 0-3.985-1.022-4.693-2.961h-.051V53h-1.654V34.461zm6.399.995c-3.645 0-4.744 2.703-4.744 5.771 0 2.806 1.231 5.767 4.744 5.767 3.146 0 4.433-2.961 4.433-5.767-.001-2.807-1.287-5.771-4.433-5.771zm9.023 3.148c.158-3.172 2.388-4.535 5.48-4.535 2.389 0 4.983.734 4.983 4.352v7.187c0 .629.315.995.971.995.184 0 .394-.051.522-.104v1.39a4.551 4.551 0 0 1-1.073.105c-1.679 0-1.941-.944-1.941-2.359h-.052c-1.153 1.757-2.334 2.752-4.93 2.752-2.493 0-4.537-1.231-4.537-3.959 0-3.803 3.698-3.935 7.265-4.354 1.363-.156 2.122-.339 2.122-1.834 0-2.229-1.598-2.781-3.54-2.781-2.044 0-3.565.947-3.617 3.147h-1.653zm8.811 1.995h-.052c-.209.393-.943.521-1.39.603-2.806.497-6.294.471-6.294 3.12 0 1.651 1.469 2.673 3.018 2.673 2.518 0 4.744-1.598 4.718-4.247v-2.149zm5.483-6.138h1.522v3.174h.051c.839-2.179 2.676-3.461 5.115-3.356v1.651c-2.99-.156-5.035 2.044-5.035 4.852v7.211h-1.653V34.461zm11.408 0h2.754v1.391h-2.754v9.125c0 1.076.159 1.705 1.337 1.783.474 0 .944-.026 1.417-.078v1.415c-.497 0-.971.054-1.468.054-2.203 0-2.964-.736-2.938-3.044v-9.255h-2.361v-1.391h2.361v-4.063h1.651v4.063zm6.635 7.211c.027 2.412 1.286 5.322 4.459 5.322 2.413 0 3.723-1.415 4.247-3.459h1.654c-.71 3.066-2.493 4.85-5.901 4.85-4.3 0-6.11-3.303-6.11-7.157 0-3.566 1.811-7.159 6.11-7.159 4.352 0 6.084 3.803 5.952 7.604H234.24zm8.76-1.391c-.078-2.49-1.627-4.825-4.301-4.825-2.7 0-4.195 2.361-4.459 4.825H243zm4.408-5.82h1.52v2.281h.08c.863-1.625 2.281-2.674 4.43-2.674 1.783 0 3.384.866 3.881 2.646.815-1.78 2.518-2.646 4.301-2.646 2.964 0 4.486 1.547 4.486 4.744v9.18h-1.654v-9.099c0-2.229-.839-3.438-3.198-3.438-2.858 0-3.671 2.361-3.671 4.879v7.657h-1.651v-9.18c.024-1.834-.734-3.356-2.832-3.356-2.858 0-4.013 2.152-4.039 4.984v7.552h-1.651v-13.53zm23.341 7.211c.027 2.412 1.286 5.322 4.459 5.322 2.41 0 3.723-1.415 4.247-3.459h1.651c-.707 3.066-2.49 4.85-5.898 4.85-4.303 0-6.11-3.303-6.11-7.157 0-3.566 1.808-7.159 6.11-7.159 4.353 0 6.084 3.803 5.952 7.604h-10.411zm8.758-1.391c-.078-2.49-1.625-4.825-4.299-4.825-2.702 0-4.195 2.361-4.459 4.825h8.758zm4.383-5.82h1.651v2.335h.054c.603-1.627 2.413-2.728 4.325-2.728 3.803 0 4.956 1.993 4.956 5.218v8.706h-1.651V39.55c0-2.335-.761-4.094-3.435-4.094-2.622 0-4.195 1.996-4.249 4.643v7.894h-1.651V34.461zm17.256 0h2.754v1.391h-2.754v9.125c0 1.076.158 1.705 1.339 1.783.471 0 .944-.026 1.415-.078v1.415c-.498 0-.971.054-1.469.054-2.202 0-2.964-.736-2.937-3.044v-9.255h-2.359v-1.391h2.359v-4.063h1.651v4.063zM68.279 31.876a1.904 1.904 0 0 0-.502.083l-.852-3.079.432-.556c1.303-1.693 2.079-2.674 2.662-3.796.895-1.712.778-3.42.49-4.498-.651-2.419-2.562-2.995-3.698-2.937-1.703.083-2.744 1.032-3.183 2.112-.463 1.166-.38 2.371-.166 3.234l1.491 5.949c-.458.598-.856 1.223-1.129 1.566L60.998 18.94l6.315-4.656c3.62-2.659 3.59-6.938 2.41-9.25-1.132-2.21-2.727-3.327-4.115-3.837a7.035 7.035 0 0 0-.947-.295c-.007-.19-.012-.327-.017-.388-.027-.285-.366-.417-.654-.476-.644-.137-.827.132-.827.229l-.022.381C61.597.482 58.304.499 58.304.499l.005.905V3.66l1.312.151c.122.007.293.139.291.374-.002.244-.19.38-.374.429-.153.044-.231.059-.297.049h-.015l-4.037-.447.495 1.537c1.566.178 2.806.286 3.716.332a.755.755 0 0 0 .124.007 1.903 1.903 0 0 0 1.903-1.907c0-1.018-.8-1.852-1.805-1.903v-.375c.544.012 1.21.039 1.935.104.068.273.209.607.502.91.317.332.651.59.944.778l-.015.471s.039.78-.032 1.429-.458 1.142-1.878 1.193c-1.352.046-3.013-.217-3.013-.217l.09 1c-.546.303-1.093.751-1.788 1.374-.463.412-.915.99-1.315 1.642l-1.7-3.278a2.935 2.935 0 0 0 .573-1.727c0-1.615-1.485-2.927-3.042-2.927-1.049 0-1.925.466-2.471 1.188l.264-3.083H22.047l.256 3.083c-.539-.722-1.42-1.188-2.466-1.188-1.556 0-3.042 1.312-3.042 2.927 0 .644.217 1.234.578 1.727L15.67 10.59c-.402-.651-.854-1.229-1.317-1.642-.698-.622-1.242-1.071-1.791-1.374l.095-1s-1.664.264-3.015.217c-1.418-.05-1.807-.542-1.88-1.191-.068-.649-.024-1.43-.024-1.43l-.02-.471c.292-.188.626-.446.944-.778.29-.303.434-.637.5-.91a28.362 28.362 0 0 1 1.937-.104v.375a1.907 1.907 0 0 0 .1 3.81c.039 0 .078 0 .12-.007.91-.046 2.149-.154 3.718-.332l.493-1.537-4.035.447h-.017c-.063.01-.142-.005-.298-.049-.183-.049-.368-.186-.371-.429-.005-.234.168-.366.291-.374l1.31-.151V1.404l.012-.905S9.124.482 7.578.648l-.02-.381c0-.097-.183-.366-.827-.229-.29.059-.627.19-.654.476-.005.061-.008.197-.019.387a7.158 7.158 0 0 0-.945.296c-1.388.51-2.985 1.627-4.107 3.837-1.181 2.312-1.22 6.591 2.405 9.25l6.313 4.656-2.828 11.016c-.271-.344-.664-.969-1.125-1.566l1.489-5.95c.215-.863.298-2.068-.168-3.234-.437-1.081-1.474-2.03-3.181-2.112-1.142-.059-3.049.517-3.698 2.937-.291 1.078-.41 2.786.49 4.498.583 1.122 1.359 2.103 2.659 3.796l.432.556-.847 3.079a1.936 1.936 0 0 0-.51-.083 1.72 1.72 0 0 0-1.8 1.717c0 1.003.81 1.801 1.8 1.801.646 0 1.208-.33 1.522-.84.273-.409.529-1.466.825-2.483l.397-1.38 1.168 1.517c-.725 2.725-3.381 12.699-3.42 12.855-.456 1.939 1.281 3.61 3.083 3.598 1.603-.017 3.142-1.303 3.078-3.11-.034-.849-.371-1.473-.905-1.883l2.937-4.645 5.525 7.815c.432.62.771.903.827.946a3.068 3.068 0 0 0 2.193.918c1.532 0 3.118-1.376 3.118-3.084 0-1.702-1.347-3.142-3.125-2.824-.049.015-.09.02-.134.029l-3.91-11.175c-.312-.851-.747-1.5-1.142-1.873-.566-.539-1.391-.534-1.72-.515a3.042 3.042 0 0 0-.532.088l2.929-6.33 3.671 2.769a3.102 3.102 0 0 0 2.322.664l1.015 10.401c.329 3.488 2.022 6.552 4.522 8.708v.024h.029c2.325 1.988 5.334 3.213 8.645 3.213 6.906 0 12.572-5.208 13.197-11.945l1.017-10.401a3.104 3.104 0 0 0 2.328-.664l3.666-2.769 2.932 6.33a3.077 3.077 0 0 0-.534-.088c-.329-.02-1.151-.024-1.72.515-.395.373-.827 1.022-1.139 1.873l-3.91 11.175c-.046-.01-.088-.015-.134-.029-1.778-.317-3.125 1.122-3.125 2.824 0 1.708 1.583 3.084 3.12 3.084a3.07 3.07 0 0 0 2.191-.918c.056-.043.393-.326.829-.946l5.527-7.815 2.93 4.645c-.537.41-.868 1.034-.902 1.883-.061 1.808 1.48 3.094 3.078 3.11 1.8.013 3.544-1.658 3.083-3.598-.034-.156-2.695-10.131-3.422-12.855l1.168-1.517.397 1.38c.295 1.018.549 2.074.827 2.483.317.51.878.84 1.517.84 1 0 1.805-.798 1.805-1.801a1.717 1.717 0 0 0-1.802-1.718zM5.525 22.309L4.42 26.565c-.363-.475-.65-.856-.77-1.026-.468-.681-1.678-2.386-1.678-4.488 0-1.044.897-2.225 2.017-2.118 1.407.129 1.964 1.736 1.536 3.376zM50.831 4.551c.683 0 1.31.654 1.31 1.332 0 .488-.256.913-.651 1.146l2.708 5.254a8.318 8.318 0 0 0-.48 1.629c-.083.498-.134.837-.168 1.063L49.669 6.52a1.421 1.421 0 0 1-.154-.639 1.321 1.321 0 0 1 1.316-1.33zm-7.636-2.413h1.247l-.1 2.129h1.22l.103-2.129h1.251l-.208 3.298h-3.666l.153-3.298zm-.199 4.493h3.637l-.107 1.71h-3.613l.083-1.71zm-7.848 2.915h11.299l-.132 2.112H24.406l-.129-2.112h10.871zm-1.527-2.915H37.1l-.024 1.71h-3.432l-.023-1.71zm4.85-4.493h1.183l-.076 2.129h1.208l.076-2.129h1.076l-.112 3.298H38.4l.071-3.298zm-.096 4.493h3.408l-.059 1.71h-3.388l.039-1.71zm-3.67-4.493l.007 2.129h1.31V2.138h1.134l-.044 3.298h-3.503l-.046-3.298h1.142zm-2.32 6.203h-3.388l-.059-1.71h3.408l.039 1.71zM29.86 2.138l.073 2.129h1.21l-.073-2.129h1.183l.066 3.298h-3.422l-.112-3.298h1.075zm-2.051 6.203h-3.61l-.11-1.71h3.637l.083 1.71zM25.06 2.138l.098 2.129h1.222l-.097-2.129h1.244l.154 3.298h-3.668l-.208-3.298h1.255zm-5.831 4.891a1.331 1.331 0 0 1-.649-1.146c0-.678.627-1.332 1.31-1.332.727 0 1.317.595 1.317 1.332 0 .234-.061.449-.156.639l-3.883 8.455a30.448 30.448 0 0 0-.164-1.063 8.072 8.072 0 0 0-.483-1.629l2.708-5.256zm-6.695 23.652c.834.173 1.208.854 1.364 1.259.124.324 2.927 8.298 4.071 11.555l.049.134.434 1.228.085-.135c.227-.283.59-.448 1.061-.448a1.29 1.29 0 0 1 1.293 1.297c0 .718-.578 1.303-1.293 1.303a1.33 1.33 0 0 1-.9-.36c-.229-.195-.783-.933-.783-.933l-.753-1.054-.212-.307-4.81-6.786c.502-.806.871-1.581.871-2.239 0-1.559-1.037-2.601-2.291-2.601l.854-1.839c.14-.084.43-.187.96-.074zm-3.835 2.624l-.217.49c.266-.153.576-.241.905-.241.985 0 1.785.793 1.785 1.786 0 .102-.007.204-.024.307a.458.458 0 0 0-.024.093c-.01.049-.024.107-.042.159l-.007.024c-.117.358-.354.738-.354.738l-1.356 2.127-.437.679-2.083 3.273-.214.337-.742 1.146h.081c.773-.02 1.322.604 1.322 1.326 0 .537-.446 1.273-1.246 1.273-.817 0-1.356-.556-1.356-1.273 0-.061-.007-.251.034-.402l6.566-25.02 2.583 1.922-5.174 11.256zm12.277-8.606a1.018 1.018 0 0 1-.317.049 1.43 1.43 0 0 1-.832-.249l-2.149-1.6-1.332-.98-11.93-8.865c-1.132-.849-2.693-2.566-2.473-5.42.183-2.332 2.042-4.43 4.076-5.064 0 .546 0 1.088.017 1.503.051 1.21.197 2.122.292 2.502.147.605.703 1.532 2.237 1.566.529.015 1.156 0 1.754-.024.317.112.668.261 1.029.446 1.983 1.017 3.049 2.681 3.461 3.422a7.662 7.662 0 0 1 .72 5.244l-2.893-2.186-.419 1.769 5.576 4.12.568.417 1.322.98a1.53 1.53 0 0 1 1.005-.407l.019-.005c.983-.02 1.444.712 1.42 1.454-.014.543-.548 1.157-1.151 1.328zm1.52-3.986c-.202-1.415-.327-2.825-.327-2.825l2.766 2.957h-2.271c-.056-.041-.105-.1-.168-.132zm1.38 1.879h2.869l1.603 1.537h-4.525a2.99 2.99 0 0 0 .144-.863c0-.235-.039-.462-.091-.674zm-1.009 3.278h7.291l1.607 1.547h-8.787c-.034-.52-.075-1.052-.111-1.547zm.234 3.291h10.475l1.603 1.539H23.215c-.039-.512-.075-1.029-.114-1.539zm.244 3.28h13.641l1.603 1.542H23.501c-.056-.507-.12-1.019-.156-1.542zm.395 3.284h16.655l1.608 1.542H24.018c-.11-.494-.193-1.015-.278-1.542zm11.716 11.596c-1.958 0-4.069-.396-6.24-1.737h12.189c-1.508 1.035-3.986 1.737-5.949 1.737zm7.815-3.478H27.14a9.714 9.714 0 0 1-1.242-1.547h18.724c-.358.474-.785.995-1.351 1.547zm-18.275-3.288c-.193-.474-.383-.98-.549-1.547h19.36l1.608 1.547H24.996zm23.222-19.932a3.095 3.095 0 0 0-1.366 2.574c0 .893.371 1.695.968 2.259l-.117 1.385-.251 3.103-.51 6.198a11.382 11.382 0 0 1-.522 2.732L23.462 16.801h25.073l-.317 3.822zM20.04 15.081l.502 5.145a2.976 2.976 0 0 0-.81.166l-2.476-1.864 5.32-11.433.493 5.862h24.583l.488-5.862 5.327 11.433-2.478 1.864a2.977 2.977 0 0 0-.808-.166l.5-5.145H20.04zm34.333 6.837l-1.327.98-2.154 1.6a1.42 1.42 0 0 1-.832.249c-.107 0-.212-.015-.317-.049-.6-.171-1.132-.786-1.144-1.327-.027-.741.432-1.473 1.415-1.454l.015.005c.393.01.747.164 1.01.407l1.327-.98.563-.417 5.574-4.12-.417-1.769-2.896 2.186a7.697 7.697 0 0 1 .72-5.244c.412-.742 1.478-2.405 3.466-3.422a8.31 8.31 0 0 1 1.022-.446c.605.024 1.232.039 1.759.024 1.529-.034 2.09-.961 2.237-1.566.1-.38.241-1.292.292-2.502.017-.415.02-.957.017-1.503 2.035.634 3.893 2.732 4.079 5.064.217 2.854-1.342 4.571-2.479 5.42l-11.93 8.864zm-.601 22.301l-.212.307-.751 1.054s-.559.737-.788.933a1.32 1.32 0 0 1-.9.36c-.712 0-1.29-.585-1.29-1.303a1.29 1.29 0 0 1 1.29-1.297c.471 0 .834.165 1.061.448l.09.135.43-1.228.048-.134c1.146-3.257 3.949-11.23 4.079-11.555.151-.405.524-1.086 1.359-1.259.529-.112.819-.01.961.073l.854 1.839c-1.259 0-2.288 1.042-2.288 2.601 0 .658.363 1.434.868 2.239l-4.811 6.787zm12.224.928c.044.151.044.342.044.402 0 .718-.544 1.273-1.359 1.273-.805 0-1.254-.736-1.254-1.273 0-.722.552-1.346 1.322-1.326h.078l-.737-1.146-.214-.337-2.083-3.273-.434-.679L60 36.661s-.237-.38-.352-.738l-.007-.024a.775.775 0 0 1-.044-.159.415.415 0 0 0-.024-.093 1.595 1.595 0 0 1-.024-.307c0-.993.8-1.786 1.786-1.786.33 0 .637.088.903.241l-.22-.49-5.175-11.255 2.591-1.922 6.562 25.019zm.302-18.582l-1.103-4.257c-.424-1.639.127-3.247 1.535-3.376 1.122-.107 2.027 1.073 2.027 2.118 0 2.103-1.215 3.808-1.686 4.488a35.93 35.93 0 0 1-.773 1.027z" fill="#0F05A0"/></svg>