<svg xmlns="http://www.w3.org/2000/svg" width="242" height="53" viewBox="-262.5 539 242 53"><path d="M-172.934 552.203c0 2.472 1.928 3.437 4.114 3.437 1.434 0 3.618-.417 3.618-2.318 0-2.006-2.787-2.343-5.518-3.071-2.761-.729-5.545-1.798-5.545-5.286 0-3.802 3.593-5.624 6.952-5.624 3.879 0 7.446 1.69 7.446 5.987h-3.959c-.128-2.237-1.719-2.812-3.671-2.812-1.3 0-2.811.549-2.811 2.109 0 1.435.886 1.614 5.545 2.812 1.354.34 5.518 1.197 5.518 5.415 0 3.409-2.683 5.964-7.731 5.964-4.114 0-7.969-2.031-7.916-6.612l3.958-.001zm18.666-7.291h2.707v2.476h-2.707v6.665c0 1.25.312 1.562 1.562 1.562.393 0 .756-.026 1.146-.104v2.889c-.624.104-1.431.13-2.162.13-2.265 0-4.242-.521-4.242-3.203v-7.94h-2.239v-2.474h2.239v-4.035h3.697l-.001 4.034zm5.233 4.143c.208-3.461 3.306-4.506 6.327-4.506 2.684 0 5.908.601 5.908 3.828v7.002c0 1.226.131 2.446.469 2.994h-3.75a5.45 5.45 0 0 1-.26-1.301c-1.172 1.224-2.889 1.666-4.529 1.666-2.553 0-4.582-1.277-4.582-4.034 0-3.048 2.291-3.772 4.582-4.086 2.266-.341 4.373-.261 4.373-1.771 0-1.589-1.092-1.823-2.395-1.823-1.408 0-2.318.573-2.449 2.032h-3.694v-.001zm8.538 2.731c-.625.547-1.926.572-3.072.781-1.146.232-2.188.624-2.188 1.979 0 1.382 1.068 1.719 2.264 1.719 2.893 0 2.996-2.291 2.996-3.101v-1.378zm16.301 4.869h-.053c-.861 1.458-2.369 2.083-4.088 2.083-4.061 0-6.041-3.489-6.041-7.214 0-3.617 2.006-6.977 5.961-6.977 1.588 0 3.152.677 3.982 2.006h.051v-6.77h3.697v18.588h-3.51l.001-1.716zm-3.229-9.323c-2.424 0-3.254 2.084-3.254 4.295 0 2.109.963 4.321 3.254 4.321 2.445 0 3.176-2.134 3.176-4.346 0-2.184-.781-4.27-3.176-4.27zm14.733-2.42h2.711v2.476h-2.711v6.665c0 1.25.312 1.562 1.561 1.562.393 0 .76-.026 1.15-.104v2.889c-.623.104-1.434.13-2.162.13-2.264 0-4.242-.521-4.242-3.203v-7.94h-2.24v-2.474h2.24v-4.035h3.693v4.034zm11.951 10.232l9.971-11.923h-9.188v-3.438h14.627v3.229l-9.969 11.922h10.232v3.438h-15.674l.001-3.228zm30.566 3.227h-3.514v-1.872h-.078c-.939 1.511-2.553 2.239-4.113 2.239-3.934 0-4.918-2.215-4.918-5.544v-8.282h3.691v7.604c0 2.211.654 3.306 2.371 3.306 2.008 0 2.865-1.121 2.865-3.854v-7.056h3.695l.001 13.459zm-10.752-18.589h3.514v3.048h-3.514v-3.048zm5.363 0h3.514v3.048h-3.514v-3.048zm8.719 5.13h3.514v2.5h.055c.672-1.692 2.498-2.863 4.293-2.863.258 0 .57.052.805.132v3.436a6.911 6.911 0 0 0-1.326-.128c-2.709 0-3.646 1.954-3.646 4.322v6.062h-3.695v-13.461zm14.58-2.082h-3.697v-3.048h3.695v3.048h.002zm-3.697 2.082h3.695v13.461h-3.695v-13.461zm15.902 4.738c-.232-1.51-1.193-2.318-2.732-2.318-2.369 0-3.152 2.396-3.152 4.374 0 1.928.758 4.242 3.072 4.242 1.719 0 2.707-1.093 2.943-2.733h3.564c-.465 3.564-2.941 5.52-6.482 5.52-4.061 0-6.791-2.865-6.791-6.898 0-4.191 2.498-7.289 6.869-7.289 3.178 0 6.092 1.668 6.328 5.104h-3.619v-.002zm6.045-9.868h3.695v7.005h.076c.938-1.51 2.551-2.238 3.93-2.238 3.934 0 4.922 2.214 4.922 5.547v8.277h-3.695v-7.602c0-2.214-.652-3.305-2.371-3.305-2.004 0-2.861 1.121-2.861 3.853v7.057h-3.695l-.001-18.594zm-160.712 30.86a2.142 2.142 0 0 0-.499.082l-.845-3.054.429-.556c1.293-1.679 2.063-2.65 2.642-3.768.889-1.7.772-3.395.487-4.465-.649-2.403-2.542-2.975-3.671-2.916-1.69.082-2.724 1.022-3.157 2.098-.463 1.159-.378 2.354-.165 3.211l1.479 5.908c-.455.591-.85 1.211-1.121 1.555l-2.804-10.937 6.269-4.622c3.593-2.64 3.566-6.886 2.392-9.182-1.124-2.194-2.707-3.303-4.083-3.809a6.746 6.746 0 0 0-.939-.293c-.01-.188-.015-.324-.019-.384-.027-.283-.361-.414-.649-.472-.64-.138-.821.131-.821.229l-.021.376c-1.533-.163-4.804-.147-4.804-.147l.007.897v2.238l1.3.15c.121.007.291.14.288.369-.002.243-.189.378-.371.428-.152.044-.23.058-.295.05h-.014l-4.005-.444.489 1.523c1.555.178 2.785.283 3.688.331.043.008.082.008.124.008a1.89 1.89 0 0 0 1.889-1.896 1.892 1.892 0 0 0-1.792-1.889v-.372c.54.013 1.201.039 1.92.104.065.271.208.603.499.902.315.329.646.586.937.773l-.017.466s.042.772-.031 1.419c-.073.645-.455 1.133-1.864 1.185-1.342.047-2.991-.216-2.991-.216l.09.992c-.542.3-1.087.746-1.775 1.363-.462.408-.908.981-1.305 1.63l-1.683-3.254a2.905 2.905 0 0 0 .567-1.715c0-1.602-1.475-2.904-3.02-2.904-1.041 0-1.911.464-2.453 1.181l.261-3.06h-26.432l.254 3.06c-.538-.72-1.409-1.181-2.448-1.181-1.545 0-3.02 1.302-3.02 2.904 0 .642.216 1.227.572 1.715l-1.688 3.257c-.399-.648-.847-1.222-1.308-1.63-.695-.62-1.232-1.064-1.777-1.363l.094-.993s-1.651.261-2.993.216c-1.412-.051-1.794-.542-1.867-1.184-.068-.646-.024-1.419-.024-1.419l-.022-.469c.291-.187.623-.444.937-.773.288-.301.434-.633.497-.902a29.35 29.35 0 0 1 1.925-.104v.372a1.895 1.895 0 0 0 .1 3.785c.039 0 .078 0 .119-.008a63.248 63.248 0 0 0 3.69-.331l.487-1.523-4.002.444h-.017c-.063.01-.141-.006-.295-.05-.182-.05-.366-.185-.368-.428-.005-.229.167-.362.288-.369l1.298-.15v-2.238l.015-.897s-3.274-.019-4.809.147l-.019-.379c0-.098-.182-.362-.821-.229-.288.058-.623.188-.649.472-.005.062-.007.198-.022.387a6.818 6.818 0 0 0-.937.293c-1.375.506-2.961 1.613-4.075 3.809-1.172 2.296-1.211 6.542 2.387 9.182l6.267 4.622-2.806 10.937c-.269-.344-.661-.964-1.116-1.555l1.477-5.908c.213-.856.295-2.052-.167-3.211-.434-1.071-1.463-2.014-3.158-2.096-1.133-.058-3.027.514-3.673 2.917-.286 1.07-.407 2.764.489 4.465.579 1.113 1.349 2.088 2.639 3.77l.429.554-.84 3.051a2.012 2.012 0 0 0-.506-.082 1.711 1.711 0 0 0-1.79 1.709c0 .993.804 1.787 1.79 1.787.642 0 1.196-.329 1.508-.833.271-.407.525-1.458.818-2.465l.395-1.371 1.16 1.504c-.719 2.705-3.356 12.605-3.395 12.759-.453 1.926 1.273 3.584 3.061 3.572 1.591-.019 3.119-1.291 3.056-3.088-.036-.843-.368-1.464-.898-1.869l2.916-4.611 5.484 7.76c.429.619.768.898.823.939.557.562 1.322.91 2.177.91 1.521 0 3.095-1.365 3.095-3.06 0-1.693-1.337-3.121-3.102-2.807-.048.018-.089.021-.133.031l-3.884-11.094c-.31-.847-.741-1.49-1.133-1.858-.562-.537-1.38-.532-1.705-.513a3.23 3.23 0 0 0-.528.087l2.908-6.282 3.644 2.748a3.078 3.078 0 0 0 2.303.658l1.007 10.325c.327 3.461 2.01 6.504 4.492 8.644v.024h.029c2.307 1.974 5.295 3.188 8.581 3.188 6.855 0 12.48-5.168 13.1-11.855l1.01-10.325a3.096 3.096 0 0 0 2.308-.658l3.639-2.748 2.911 6.282a2.955 2.955 0 0 0-.53-.087c-.327-.021-1.143-.024-1.705.513-.393.368-.821 1.013-1.131 1.858l-3.881 11.094c-.046-.011-.087-.015-.133-.031-1.765-.314-3.102 1.113-3.102 2.807 0 1.697 1.571 3.06 3.097 3.06a3.06 3.06 0 0 0 2.174-.91c.053-.045.39-.324.823-.939l5.487-7.76 2.908 4.611c-.533.406-.862 1.026-.896 1.869-.058 1.797 1.472 3.069 3.056 3.088 1.787.012 3.519-1.646 3.061-3.572-.037-.152-2.676-10.057-3.397-12.759l1.16-1.504.395 1.371c.293 1.007.545 2.058.821 2.465.315.504.872.833 1.503.833.993 0 1.794-.792 1.794-1.787a1.722 1.722 0 0 0-1.799-1.71zm-62.292-9.495l-1.095 4.224c-.363-.471-.649-.85-.768-1.019-.462-.674-1.663-2.368-1.663-4.456 0-1.036.891-2.208 2.005-2.102 1.395.129 1.945 1.726 1.521 3.353zm44.975-17.626c.675 0 1.298.649 1.298 1.321 0 .482-.254.903-.646 1.138l2.688 5.217a8.37 8.37 0 0 0-.477 1.616c-.08.494-.133.832-.165 1.057l-3.855-8.393a1.436 1.436 0 0 1-.152-.635 1.314 1.314 0 0 1 1.309-1.321zm-7.582-2.397h1.237l-.099 2.115h1.211l.102-2.115h1.242l-.204 3.272h-3.639l.15-3.272zm-.198 4.462h3.61l-.107 1.696h-3.583l.08-1.696zm-7.787 2.893h11.218l-.133 2.097h-21.749l-.128-2.097h10.792zm-1.518-2.893h3.453l-.027 1.696h-3.41l-.016-1.696zm4.816-4.462h1.174l-.073 2.115h1.196l.075-2.115h1.067l-.111 3.272h-3.399l.071-3.272zm-.095 4.462h3.383l-.058 1.696h-3.361l.036-1.696zm-3.644-4.462l.007 2.115h1.298v-2.115h1.126l-.043 3.272h-3.477l-.046-3.272h1.135zm-2.305 6.156h-3.361l-.058-1.698h3.383l.036 1.698zm-2.503-6.156l.072 2.115h1.199l-.07-2.115h1.174l.065 3.272h-3.397l-.111-3.272h1.068zm-2.039 6.156h-3.581l-.109-1.694h3.61l.08 1.694zm-2.727-6.156l.097 2.115h1.213l-.097-2.115h1.235l.152 3.272h-3.642l-.206-3.272h1.248zm-5.787 4.855a1.317 1.317 0 0 1-.644-1.138c0-.672.623-1.321 1.298-1.321.722 0 1.308.59 1.308 1.321 0 .232-.061.445-.152.635l-3.855 8.393c-.029-.225-.083-.562-.162-1.057-.083-.495-.257-1.056-.479-1.616l2.686-5.217zm-6.647 23.48c.828.17 1.196.848 1.354 1.249.124.319 2.906 8.235 4.042 11.469l.048.137.433 1.215.083-.133c.228-.279.586-.445 1.056-.445.707 0 1.283.568 1.283 1.289 0 .713-.574 1.291-1.283 1.291-.341 0-.656-.137-.894-.361-.228-.192-.777-.924-.777-.924l-.748-1.047-.21-.305-4.777-6.734c.499-.796.864-1.567.864-2.22 0-1.55-1.029-2.582-2.273-2.582l.847-1.825c.139-.087.427-.187.952-.074zm-3.806 2.602l-.216.488c.262-.154.569-.239.896-.239a1.77 1.77 0 0 1 1.748 2.077.512.512 0 0 0-.024.093 1.18 1.18 0 0 1-.042.157l-.007.023c-.116.355-.354.73-.354.73l-1.342 2.115-.433.67-2.068 3.252-.213.336-.736 1.139h.08c.768-.02 1.31.603 1.31 1.314 0 .535-.443 1.268-1.237 1.268-.811 0-1.346-.555-1.346-1.268 0-.062-.007-.248.036-.398l6.519-24.837 2.564 1.909-5.135 11.171zm12.187-8.541c-.102.034-.21.05-.315.05-.327 0-.603-.092-.826-.248l-2.133-1.59-1.325-.972-11.84-8.801c-1.124-.844-2.673-2.546-2.456-5.38.182-2.312 2.027-4.396 4.046-5.025 0 .543 0 1.081.017 1.492.053 1.2.196 2.107.291 2.483.146.602.698 1.521 2.223 1.555.525.017 1.147 0 1.738-.023.315.111.666.258 1.022.444 1.969 1.009 3.029 2.659 3.438 3.396a7.602 7.602 0 0 1 .712 5.207l-2.872-2.172-.417 1.755 5.536 4.089.566.414 1.308.976a1.51 1.51 0 0 1 .998-.404l.02-.005c.978-.021 1.436.707 1.412 1.442-.015.537-.545 1.148-1.143 1.317zm1.506-3.958c-.201-1.403-.325-2.802-.325-2.802l2.746 2.936h-2.251c-.059-.043-.105-.101-.17-.134zm1.373 1.865h2.845l1.593 1.524h-4.492c.083-.275.146-.559.146-.857a2.998 2.998 0 0 0-.092-.667zm-1.003 3.256h7.238l1.596 1.535h-8.722c-.034-.518-.078-1.044-.112-1.535zm.233 3.264h10.397l1.591 1.525h-11.877c-.036-.506-.072-1.021-.111-1.525zm.242 3.257h13.541l1.591 1.53h-14.976c-.057-.503-.12-1.008-.156-1.53zm.39 3.258h16.533l1.598 1.529h-17.853c-.109-.485-.191-1.005-.278-1.529zm11.632 11.514c-1.944 0-4.039-.389-6.194-1.721h12.1c-1.497 1.026-3.957 1.721-5.906 1.721zm7.758-3.455h-16.013a9.545 9.545 0 0 1-1.232-1.533h18.586c-.356.471-.781.991-1.341 1.533zm-18.143-3.262a17.977 17.977 0 0 1-.544-1.531h19.218l1.598 1.531h-20.272zm23.054-19.786a3.08 3.08 0 0 0-1.358 2.555c0 .885.368 1.684.964 2.241l-.117 1.376-.251 3.079-.506 6.149c-.061.939-.24 1.851-.518 2.716l-22.788-21.909h24.889l-.315 3.793zm-27.972-5.499l.499 5.107a2.783 2.783 0 0 0-.804.163l-2.458-1.853 5.281-11.35.489 5.819h24.402l.484-5.819 5.289 11.35-2.46 1.85a2.896 2.896 0 0 0-.801-.163l.496-5.106h-30.417v.002zm34.081 6.786l-1.317.975-2.138 1.59c-.22.153-.497.248-.826.248-.106 0-.211-.016-.315-.05-.596-.17-1.124-.778-1.136-1.317-.026-.735.429-1.463 1.405-1.442l.014.005c.39.011.741.161 1.002.404l1.315-.976.562-.416 5.53-4.089-.414-1.755-2.872 2.169a7.65 7.65 0 0 1 .711-5.207c.41-.735 1.47-2.387 3.443-3.396a8.262 8.262 0 0 1 1.015-.443c.598.024 1.22.04 1.743.024 1.519-.034 2.078-.954 2.223-1.556.099-.377.24-1.283.291-2.483.017-.412.02-.949.017-1.493 2.017.631 3.864 2.714 4.048 5.026.215 2.834-1.332 4.536-2.46 5.381l-11.841 8.801zm-.596 22.138l-.21.305-.746 1.045s-.557.732-.782.927a1.306 1.306 0 0 1-.894.356 1.29 1.29 0 0 1-1.281-1.293 1.28 1.28 0 0 1 1.281-1.287c.467 0 .828.164 1.056.445l.09.135.426-1.219.049-.131c1.138-3.236 3.92-11.149 4.048-11.475.152-.401.521-1.076 1.349-1.248.525-.111.813-.011.957.071l.848 1.825c-1.25 0-2.271 1.032-2.271 2.582 0 .653.361 1.424.862 2.22l-4.782 6.742zm12.131.92c.046.15.046.338.046.398 0 .713-.54 1.268-1.349 1.268-.799 0-1.245-.731-1.245-1.268 0-.713.547-1.334 1.31-1.314h.077l-.731-1.139-.213-.336-2.065-3.252-.431-.67-1.349-2.115s-.237-.375-.351-.73l-.007-.023a.877.877 0 0 1-.044-.157c-.004-.042-.014-.065-.024-.093a1.769 1.769 0 0 1 1.748-2.077c.327 0 .632.085.894.239l-.218-.483-5.136-11.174 2.571-1.909 6.517 24.835zm.301-18.448l-1.092-4.224c-.421-1.628.126-3.225 1.521-3.354 1.114-.105 2.015 1.065 2.015 2.103 0 2.088-1.206 3.779-1.673 4.456-.12.17-.406.548-.771 1.019z" fill="#0070bc"/></svg>