<svg xmlns="http://www.w3.org/2000/svg" width="287" height="53" viewBox="-262.5 619 287 53"><path d="M-166.764 627.437c-4.659-1.197-5.545-1.378-5.545-2.812 0-1.562 1.511-2.109 2.811-2.109 1.952 0 3.542.573 3.671 2.812h3.959c0-4.297-3.567-5.987-7.446-5.987-3.358 0-6.952 1.822-6.952 5.624 0 3.488 2.784 4.559 5.545 5.286 2.731.729 5.518 1.065 5.518 3.071 0 1.901-2.184 2.318-3.618 2.318-2.186 0-4.114-.965-4.114-3.437h-3.959c-.053 4.581 3.802 6.612 7.916 6.612 5.049 0 7.731-2.555 7.731-5.964.001-4.217-4.164-5.076-5.517-5.414zm8.799 7.888c0 2.684 1.978 3.203 4.242 3.203.731 0 1.538-.025 2.162-.13v-2.889c-.39.076-.753.104-1.146.104-1.249 0-1.562-.312-1.562-1.562v-6.665h2.707v-2.476h-2.707v-4.035h-3.697v4.035h-2.239v2.474h2.239l.001 7.941zm13.095-4.708c-2.291.312-4.582 1.038-4.582 4.086 0 2.758 2.029 4.034 4.582 4.034 1.641 0 3.357-.442 4.529-1.666.025.44.129.885.26 1.301h3.75c-.338-.548-.469-1.77-.469-2.994v-7.001c0-3.229-3.225-3.829-5.908-3.829-3.021 0-6.119 1.045-6.327 4.506v.003h3.694c.131-1.459 1.041-2.032 2.449-2.032 1.303 0 2.395.234 2.395 1.823 0 1.508-2.108 1.428-4.373 1.769zm4.373 2.546c0 .81-.104 3.101-2.996 3.101-1.195 0-2.264-.337-2.264-1.72 0-1.354 1.041-1.744 2.188-1.978 1.146-.209 2.447-.234 3.072-.781v1.378zm16.248 3.491h.053v1.718h3.51v-18.588h-3.697v6.77h-.051c-.83-1.329-2.395-2.006-3.982-2.006-3.955 0-5.961 3.358-5.961 6.977 0 3.725 1.98 7.214 6.041 7.214 1.718-.002 3.226-.627 4.087-2.085zm-6.43-5.028c0-2.211.83-4.295 3.254-4.295 2.395 0 3.176 2.086 3.176 4.271 0 2.212-.73 4.346-3.176 4.346-2.291-.001-3.254-2.213-3.254-4.322zm20.698 3.885a5.879 5.879 0 0 1-1.15.104c-1.248 0-1.561-.312-1.561-1.562v-6.665h2.711v-2.476h-2.711v-4.035h-3.693v4.035h-2.24v2.474h2.24v7.94c0 2.684 1.979 3.203 4.242 3.203.729 0 1.539-.025 2.162-.13v-2.888zm24.914-.577H-95.3l9.969-11.922v-3.231h-14.627v3.439h9.187l-9.97 11.923v3.227h15.674zm14.892 3.436v-13.459h-3.695v7.056c0 2.731-.857 3.854-2.865 3.854-1.717 0-2.371-1.095-2.371-3.306v-7.604h-3.691v8.282c0 3.329.984 5.544 4.918 5.544 1.561 0 3.174-.729 4.113-2.239h.078v1.872h3.513zm-10.752-18.589h3.514v3.048h-3.514zm5.363 0h3.514v3.048h-3.514zm12.288 7.63h-.055v-2.5h-3.516v13.461h3.695v-6.062c0-2.368.938-4.322 3.646-4.322.441 0 .988.052 1.326.128v-3.436a2.693 2.693 0 0 0-.805-.132c-1.793 0-3.62 1.171-4.291 2.863zm7.314-2.5h3.695v13.461h-3.695zm0-5.13h3.695v3.048h-3.695zm16.033 13.433c-.236 1.642-1.225 2.733-2.943 2.733-2.314 0-3.072-2.314-3.072-4.242 0-1.978.783-4.374 3.152-4.374 1.539 0 2.5.81 2.732 2.318v-.002h3.619c-.236-3.436-3.15-5.104-6.328-5.104-4.371 0-6.869 3.098-6.869 7.289 0 4.033 2.73 6.898 6.791 6.898 3.541 0 6.018-1.954 6.482-5.52h-3.564v.004zm18.537 5.158v-8.277c0-3.333-.988-5.547-4.922-5.547-1.379 0-2.992.729-3.93 2.238h-.076v-7.005h-3.695v18.595h3.695v-7.058c0-2.73.857-3.853 2.861-3.853 1.719 0 2.371 1.091 2.371 3.305v7.602h3.696zM-193 643.347c.889-1.7.772-3.395.487-4.465-.649-2.403-2.542-2.975-3.671-2.916-1.69.082-2.724 1.022-3.157 2.098-.463 1.159-.378 2.354-.165 3.211l1.479 5.908c-.455.591-.85 1.211-1.121 1.555l-2.804-10.937 6.269-4.622c3.593-2.64 3.566-6.885 2.392-9.182-1.124-2.194-2.707-3.303-4.083-3.809a6.746 6.746 0 0 0-.939-.293c-.01-.188-.015-.324-.019-.384-.027-.283-.361-.414-.649-.472-.64-.138-.821.131-.821.229l-.021.376c-1.533-.163-4.804-.147-4.804-.147l.007.897v2.238l1.3.15c.121.007.291.14.288.369-.002.243-.189.378-.371.428-.152.044-.23.058-.295.05h-.014l-4.005-.444.489 1.523c1.555.178 2.785.283 3.688.331.043.008.082.008.124.008a1.89 1.89 0 0 0 1.889-1.896 1.892 1.892 0 0 0-1.792-1.889v-.372c.54.013 1.201.039 1.92.104.065.271.208.603.499.902.315.329.646.586.937.773l-.017.466s.042.772-.031 1.419c-.073.645-.455 1.133-1.864 1.185-1.342.047-2.991-.216-2.991-.216l.09.992c-.542.3-1.087.746-1.775 1.363-.462.408-.908.981-1.305 1.63l-1.683-3.255a2.9 2.9 0 0 0 .567-1.714c0-1.602-1.475-2.904-3.02-2.904-1.041 0-1.911.464-2.453 1.181l.261-3.06h-26.432l.254 3.06c-.538-.72-1.409-1.181-2.448-1.181-1.545 0-3.02 1.302-3.02 2.904 0 .642.216 1.227.572 1.714l-1.688 3.258c-.399-.648-.847-1.222-1.308-1.63-.695-.62-1.232-1.064-1.777-1.363l.094-.993s-1.651.261-2.993.216c-1.412-.051-1.794-.542-1.867-1.184-.068-.646-.024-1.419-.024-1.419l-.022-.469c.291-.187.623-.444.937-.773.288-.301.434-.633.497-.902a29.35 29.35 0 0 1 1.925-.104v.372a1.895 1.895 0 0 0 .1 3.785c.039 0 .078 0 .119-.008a63.248 63.248 0 0 0 3.69-.331l.487-1.523-4.002.444h-.017c-.063.01-.141-.006-.295-.05-.182-.05-.366-.185-.368-.428-.005-.229.167-.362.288-.369l1.298-.15v-2.238l.015-.897s-3.274-.019-4.809.147l-.019-.379c0-.098-.182-.362-.821-.229-.288.058-.623.188-.649.472-.005.062-.007.198-.022.387a6.818 6.818 0 0 0-.937.293c-1.375.506-2.961 1.613-4.075 3.809-1.172 2.297-1.211 6.542 2.387 9.182l6.267 4.622-2.806 10.937c-.269-.344-.661-.964-1.116-1.555l1.477-5.908c.213-.857.295-2.052-.167-3.211-.434-1.071-1.463-2.014-3.158-2.096-1.133-.058-3.027.514-3.673 2.917-.286 1.07-.407 2.764.489 4.465.579 1.113 1.349 2.088 2.639 3.77l.429.554-.84 3.051a2.012 2.012 0 0 0-.506-.082 1.711 1.711 0 0 0-1.79 1.709c0 .993.804 1.787 1.79 1.787.642 0 1.196-.329 1.508-.833.271-.407.525-1.458.818-2.465l.395-1.371 1.16 1.504c-.719 2.705-3.356 12.605-3.395 12.759-.453 1.926 1.273 3.584 3.061 3.572 1.591-.019 3.119-1.291 3.056-3.088-.036-.842-.368-1.463-.898-1.869l2.916-4.611 5.484 7.76c.429.619.768.898.823.939.557.562 1.322.91 2.177.91 1.521 0 3.095-1.365 3.095-3.06 0-1.693-1.337-3.121-3.102-2.807-.048.018-.089.021-.133.031l-3.884-11.094c-.31-.847-.741-1.49-1.133-1.858-.562-.537-1.38-.532-1.705-.514a3.352 3.352 0 0 0-.528.088l2.908-6.282 3.644 2.748a3.078 3.078 0 0 0 2.303.658l1.007 10.325c.327 3.461 2.01 6.504 4.492 8.644v.024h.029c2.307 1.974 5.295 3.188 8.581 3.188 6.855 0 12.48-5.168 13.1-11.855l1.01-10.325a3.096 3.096 0 0 0 2.308-.658l3.639-2.748 2.911 6.282a2.955 2.955 0 0 0-.53-.087c-.327-.021-1.143-.024-1.705.513-.393.368-.821 1.013-1.131 1.858l-3.881 11.094c-.046-.01-.087-.015-.133-.031-1.765-.314-3.102 1.113-3.102 2.807 0 1.697 1.571 3.06 3.097 3.06a3.06 3.06 0 0 0 2.174-.91c.053-.045.39-.324.823-.939l5.487-7.76 2.908 4.611c-.533.406-.862 1.026-.896 1.869-.058 1.797 1.472 3.069 3.056 3.088 1.787.012 3.519-1.646 3.061-3.572-.037-.151-2.676-10.057-3.397-12.759l1.16-1.504.395 1.371c.293 1.007.545 2.058.821 2.465.315.504.872.833 1.503.833.993 0 1.794-.792 1.794-1.787 0-.91-.741-1.738-1.794-1.709a2.142 2.142 0 0 0-.499.082l-.845-3.054.429-.556c1.288-1.68 2.058-2.653 2.637-3.769zm-64.019-2.201l-1.095 4.224c-.363-.471-.649-.85-.768-1.019-.462-.674-1.663-2.368-1.663-4.456 0-1.036.891-2.208 2.005-2.102 1.395.129 1.945 1.726 1.521 3.353zm44.975-17.626c.675 0 1.298.649 1.298 1.321 0 .482-.254.903-.646 1.138l2.688 5.217a8.37 8.37 0 0 0-.477 1.616c-.08.494-.133.832-.165 1.057l-3.855-8.393a1.436 1.436 0 0 1-.152-.635 1.314 1.314 0 0 1 1.309-1.321zm-7.582-2.397h1.237l-.099 2.115h1.211l.102-2.115h1.242l-.204 3.272h-3.639l.15-3.272zm-.198 4.462h3.61l-.107 1.696h-3.583l.08-1.696zm-7.787 2.894h11.218l-.133 2.097h-21.749l-.128-2.097h10.792zm-1.518-2.894h3.453l-.027 1.696h-3.41l-.016-1.696zm4.816-4.462h1.174l-.073 2.115h1.196l.075-2.115h1.067l-.111 3.272h-3.399l.071-3.272zm-.095 4.462h3.383l-.058 1.696h-3.361l.036-1.696zm-3.644-4.462l.007 2.115h1.298v-2.115h1.126l-.043 3.272h-3.477l-.046-3.272h1.135zm-2.305 6.156h-3.361l-.058-1.698h3.383l.036 1.698zm-2.503-6.156l.072 2.115h1.199l-.07-2.115h1.174l.065 3.272h-3.397l-.111-3.272h1.068zm-2.039 6.156h-3.581l-.109-1.694h3.61l.08 1.694zm-2.727-6.156l.097 2.115h1.213l-.097-2.115h1.235l.152 3.272h-3.642l-.206-3.272h1.248zm-5.787 4.856a1.317 1.317 0 0 1-.644-1.138c0-.672.623-1.321 1.298-1.321.722 0 1.308.59 1.308 1.321 0 .232-.061.445-.152.635l-3.855 8.393c-.029-.225-.083-.562-.162-1.057-.083-.495-.257-1.056-.479-1.616l2.686-5.217zm-6.647 23.479c.828.17 1.196.848 1.354 1.25.124.318 2.906 8.234 4.042 11.468l.048.137.433 1.215.083-.133c.228-.279.586-.445 1.056-.445.707 0 1.283.568 1.283 1.289 0 .713-.574 1.291-1.283 1.291-.341 0-.656-.137-.894-.36-.228-.193-.777-.925-.777-.925l-.748-1.047-.21-.305-4.777-6.734c.499-.796.864-1.567.864-2.22 0-1.55-1.029-2.582-2.273-2.582l.847-1.825c.139-.087.427-.187.952-.074zm-3.806 2.602l-.216.488c.262-.154.569-.239.896-.239a1.77 1.77 0 0 1 1.748 2.077.512.512 0 0 0-.024.093 1.18 1.18 0 0 1-.042.157l-.007.023c-.116.355-.354.73-.354.73l-1.342 2.114-.433.671-2.068 3.252-.213.336-.736 1.139h.08c.768-.021 1.31.602 1.31 1.314 0 .534-.443 1.268-1.237 1.268-.811 0-1.346-.555-1.346-1.268 0-.062-.007-.248.036-.398l6.519-24.837 2.564 1.909-5.135 11.171zm12.187-8.541c-.102.034-.21.05-.315.05-.327 0-.603-.092-.826-.248l-2.133-1.59-1.325-.972-11.84-8.801c-1.124-.844-2.673-2.546-2.456-5.38.182-2.312 2.027-4.396 4.046-5.025 0 .543 0 1.081.017 1.492.053 1.2.196 2.107.291 2.483.146.602.698 1.521 2.223 1.555.525.017 1.147 0 1.738-.023.315.111.666.258 1.022.444 1.969 1.009 3.029 2.659 3.438 3.396a7.602 7.602 0 0 1 .712 5.207l-2.872-2.172-.417 1.755 5.536 4.089.566.414 1.308.975c.259-.242.612-.394.998-.403l.02-.005c.978-.021 1.436.707 1.412 1.442-.015.537-.545 1.148-1.143 1.317zm1.506-3.957c-.201-1.403-.325-2.802-.325-2.802l2.746 2.936h-2.251c-.059-.044-.105-.102-.17-.134zm1.373 1.864h2.845l1.593 1.524h-4.492c.083-.275.146-.559.146-.857a2.998 2.998 0 0 0-.092-.667zm-1.003 3.256h7.238l1.596 1.535h-8.722c-.034-.518-.078-1.044-.112-1.535zm.233 3.264h10.397l1.591 1.525h-11.877c-.036-.506-.072-1.021-.111-1.525zm.242 3.257h13.541l1.591 1.53h-14.976c-.057-.503-.12-1.008-.156-1.53zm.39 3.257h16.533l1.598 1.53h-17.853c-.109-.485-.191-1.005-.278-1.53zm11.632 11.515c-1.944 0-4.039-.389-6.194-1.721h12.1c-1.497 1.026-3.957 1.721-5.906 1.721zm7.758-3.455h-16.013a9.545 9.545 0 0 1-1.232-1.533h18.586c-.356.471-.781.992-1.341 1.533zm-18.143-3.262a17.977 17.977 0 0 1-.544-1.531h19.218l1.598 1.531h-20.272zm23.054-19.786a3.08 3.08 0 0 0-1.358 2.555c0 .885.368 1.684.964 2.241l-.117 1.376-.251 3.079-.506 6.149c-.061.939-.24 1.851-.518 2.716l-22.788-21.909h24.889l-.315 3.793zm-27.972-5.501v.002l.499 5.107a2.783 2.783 0 0 0-.804.163l-2.458-1.853 5.281-11.35.489 5.819h24.402l.484-5.819 5.289 11.35-2.46 1.85a2.896 2.896 0 0 0-.801-.163l.496-5.106h-30.417zm34.081 6.788l-1.317.975-2.138 1.59c-.22.153-.497.248-.826.248-.106 0-.211-.016-.315-.05-.596-.17-1.124-.778-1.136-1.317-.026-.735.429-1.463 1.405-1.442l.014.005c.39.011.741.161 1.002.404l1.315-.976.562-.416 5.53-4.089-.414-1.755-2.872 2.169a7.65 7.65 0 0 1 .711-5.207c.41-.735 1.47-2.387 3.443-3.396a8.262 8.262 0 0 1 1.015-.443c.598.024 1.22.04 1.743.024 1.519-.034 2.078-.954 2.223-1.556.099-.377.24-1.283.291-2.483.017-.412.02-.949.017-1.493 2.017.631 3.864 2.714 4.048 5.026.215 2.834-1.332 4.536-2.46 5.381l-11.841 8.801zm-.596 22.138l-.21.305-.746 1.045s-.557.732-.782.927a1.306 1.306 0 0 1-.894.356 1.29 1.29 0 0 1-1.281-1.293 1.28 1.28 0 0 1 1.281-1.287c.467 0 .828.164 1.056.445l.09.135.426-1.219.049-.131c1.138-3.236 3.92-11.149 4.048-11.475.152-.401.521-1.076 1.349-1.249.525-.11.813-.01.957.072l.848 1.825c-1.25 0-2.271 1.032-2.271 2.582 0 .653.361 1.424.862 2.22l-4.782 6.742zm12.131.92c.046.15.046.338.046.398 0 .713-.54 1.268-1.349 1.268-.799 0-1.245-.731-1.245-1.268 0-.713.547-1.334 1.31-1.314h.077l-.731-1.139-.213-.336-2.065-3.252-.431-.67-1.349-2.115s-.237-.375-.351-.73l-.007-.023a.877.877 0 0 1-.044-.157c-.004-.042-.014-.065-.024-.093a1.769 1.769 0 0 1 1.748-2.077c.327 0 .632.085.894.239l-.218-.483-5.136-11.174 2.571-1.909 6.517 24.835zm.301-18.448l-1.092-4.224c-.421-1.628.126-3.225 1.521-3.354 1.114-.105 2.015 1.065 2.015 2.103 0 2.088-1.206 3.779-1.673 4.456-.12.171-.406.548-.771 1.019zm33.217 13.07c-.442-.373-.953-.685-1.534-.937s-1.201-.465-1.859-.638l-4.524-1.118a6.729 6.729 0 0 1-1.079-.338 3.197 3.197 0 0 1-.897-.546 2.389 2.389 0 0 1-.611-.819c-.147-.319-.221-.696-.221-1.131 0-.692.13-1.273.39-1.741.26-.469.602-.846 1.027-1.132a4.424 4.424 0 0 1 1.482-.624 7.777 7.777 0 0 1 1.755-.194 6.47 6.47 0 0 1 1.885.272 4.898 4.898 0 0 1 1.586.807c.459.354.832.798 1.118 1.325.286.529.446 1.148.481 1.859h1.768c0-.953-.187-1.79-.559-2.51-.373-.719-.871-1.321-1.495-1.807s-1.352-.85-2.184-1.093-1.708-.363-2.626-.363c-1.3 0-2.366.187-3.198.56-.832.372-1.486.827-1.963 1.364-.477.538-.802 1.108-.975 1.716-.173.607-.26 1.136-.26 1.587 0 .728.117 1.343.351 1.846s.542.929.923 1.273c.381.348.828.624 1.339.832.511.208 1.036.382 1.573.521l4.134 1.015c.433.104.875.237 1.326.402.45.165.862.377 1.235.638.373.26.676.581.91.962.234.382.351.832.351 1.353 0 .676-.165 1.252-.494 1.729-.33.478-.741.866-1.235 1.17s-1.027.523-1.599.663a6.75 6.75 0 0 1-1.586.208c-.85 0-1.647-.082-2.392-.247-.746-.164-1.391-.438-1.937-.818a3.93 3.93 0 0 1-1.287-1.534c-.312-.641-.459-1.438-.442-2.393h-1.768c-.052 1.145.1 2.124.455 2.938a5.103 5.103 0 0 0 1.521 2.002c.658.521 1.456.906 2.392 1.157s1.95.377 3.042.377c1.092 0 2.028-.101 2.808-.299.78-.199 1.434-.46 1.963-.78.528-.319.944-.681 1.248-1.079.303-.397.537-.793.702-1.183.165-.391.269-.759.312-1.104.043-.348.065-.624.065-.832 0-.764-.126-1.412-.377-1.95a3.969 3.969 0 0 0-1.04-1.366zm13.611 4.954a4.23 4.23 0 0 1-.858 1.209 3.824 3.824 0 0 1-1.196.793c-.451.19-.928.286-1.43.286-.78 0-1.465-.164-2.054-.494a4.502 4.502 0 0 1-1.469-1.3 5.873 5.873 0 0 1-.884-1.833 7.47 7.47 0 0 1 0-4.187c.199-.685.494-1.296.884-1.833s.879-.971 1.469-1.3c.59-.329 1.274-.494 2.054-.494 1.092 0 1.941.286 2.548.857.606.571 1.022 1.36 1.248 2.366h1.638c-.191-1.542-.785-2.695-1.781-3.458-.996-.764-2.214-1.145-3.653-1.145-1.023 0-1.929.19-2.717.571a5.938 5.938 0 0 0-1.989 1.534 6.638 6.638 0 0 0-1.222 2.249 8.863 8.863 0 0 0-.416 2.742c0 .972.139 1.886.416 2.743a6.655 6.655 0 0 0 1.222 2.249 5.754 5.754 0 0 0 1.989 1.521c.788.373 1.694.56 2.717.56 1.525 0 2.773-.455 3.744-1.365.97-.909 1.568-2.18 1.794-3.809h-1.638a4.476 4.476 0 0 1-.416 1.538zm14.716-9.139c-.382-.442-.889-.784-1.521-1.027-.633-.242-1.417-.363-2.353-.363-.954 0-1.829.247-2.626.74-.798.494-1.352 1.148-1.664 1.964h-.052v-7.463h-1.638v18.564h1.638v-7.826a5.899 5.899 0 0 1 .325-1.833c.199-.562.477-1.049.832-1.456s.789-.729 1.3-.962c.511-.233 1.096-.352 1.755-.352.659 0 1.209.104 1.651.312.442.208.793.494 1.053.857.26.364.442.793.546 1.287s.156 1.026.156 1.6v8.372h1.638v-8.633c0-.797-.078-1.517-.234-2.157-.156-.641-.425-1.183-.806-1.624zm13.909 6.045c0 .676-.078 1.339-.234 1.988a5.446 5.446 0 0 1-.728 1.729c-.33.503-.746.906-1.248 1.209-.503.304-1.109.455-1.82.455-1.3 0-2.214-.312-2.743-.937s-.811-1.543-.845-2.756v-8.735h-1.638v8.71c0 .798.086 1.508.26 2.132.174.624.446 1.152.819 1.586s.858.768 1.456 1.001c.598.233 1.322.352 2.171.352 1.005 0 1.919-.237 2.743-.715.824-.477 1.452-1.166 1.885-2.067h.052v2.419h1.508v-13.416h-1.638v7.045zm5.304-12.195h1.638v18.564h-1.638zm16.354 9.53c-.208-.91-.55-1.717-1.027-2.418a5.483 5.483 0 0 0-1.859-1.703c-.763-.434-1.682-.649-2.756-.649-1.057 0-1.972.203-2.743.61-.771.408-1.4.945-1.885 1.611a7.009 7.009 0 0 0-1.079 2.275 9.748 9.748 0 0 0-.351 2.6c0 .953.117 1.859.351 2.718a6.711 6.711 0 0 0 1.079 2.263 5.05 5.05 0 0 0 1.885 1.533c.771.373 1.686.56 2.743.56 1.699 0 3.012-.416 3.939-1.248.927-.832 1.564-2.011 1.911-3.536h-1.638c-.26 1.04-.728 1.872-1.404 2.496-.676.624-1.612.937-2.808.937-.78 0-1.447-.164-2.002-.494a4.528 4.528 0 0 1-1.378-1.248c-.364-.502-.628-1.069-.793-1.702s-.247-1.244-.247-1.833h10.322a10.65 10.65 0 0 0-.26-2.772zm-10.062 1.39c.069-.607.212-1.2.429-1.781a5.273 5.273 0 0 1 .871-1.533 4.178 4.178 0 0 1 1.326-1.066c.52-.27 1.118-.402 1.794-.402.659 0 1.248.135 1.768.402.52.27.962.624 1.326 1.066.364.441.646.948.845 1.521.199.572.308 1.171.325 1.795l-8.684-.002zm26.598-10.92l-7.462 18.564h1.872l2.236-5.772h8.45l2.262 5.772h1.898l-7.28-18.564h-1.976zm-2.808 11.285l3.718-9.517 3.588 9.517h-7.306zm25.012-1.755c-.208-.91-.55-1.717-1.027-2.418a5.483 5.483 0 0 0-1.859-1.703c-.763-.434-1.682-.649-2.756-.649-1.057 0-1.972.203-2.743.61-.771.408-1.4.945-1.885 1.611a7.009 7.009 0 0 0-1.079 2.275 9.748 9.748 0 0 0-.351 2.6c0 .953.117 1.859.351 2.718a6.711 6.711 0 0 0 1.079 2.263 5.05 5.05 0 0 0 1.885 1.533c.771.373 1.686.56 2.743.56 1.699 0 3.012-.416 3.939-1.248.927-.832 1.564-2.011 1.911-3.536h-1.638c-.26 1.04-.728 1.872-1.404 2.496-.676.624-1.612.937-2.808.937-.78 0-1.447-.164-2.002-.494a4.528 4.528 0 0 1-1.378-1.248c-.364-.502-.628-1.069-.793-1.702s-.247-1.244-.247-1.833h10.322a10.65 10.65 0 0 0-.26-2.772zm-10.062 1.39c.069-.607.212-1.2.429-1.781a5.273 5.273 0 0 1 .871-1.533 4.178 4.178 0 0 1 1.326-1.066c.52-.27 1.118-.402 1.794-.402.659 0 1.248.135 1.768.402.52.27.962.624 1.326 1.066.364.441.646.948.845 1.521.199.572.308 1.171.325 1.795l-8.684-.002zm27.17-6.162c-.884 0-1.716.217-2.496.649-.78.434-1.369 1.092-1.768 1.977-.243-.885-.724-1.543-1.443-1.977-.719-.434-1.521-.649-2.405-.649-1.092 0-1.989.233-2.691.702-.702.468-1.27 1.117-1.703 1.949h-.078v-2.263h-1.508v13.416h1.638v-7.487c0-.71.078-1.364.234-1.963a4.607 4.607 0 0 1 .715-1.561 3.33 3.33 0 0 1 1.248-1.04c.511-.251 1.113-.377 1.807-.377.52 0 .962.087 1.326.26.364.175.654.412.871.716.217.304.373.659.468 1.065.095.407.143.836.143 1.287v9.1h1.638v-7.592c0-.624.056-1.227.169-1.808.113-.58.308-1.096.585-1.547.277-.45.65-.811 1.118-1.079.468-.27 1.057-.402 1.768-.402 1.178 0 2.002.29 2.47.871.468.581.702 1.426.702 2.534v9.022h1.638v-9.101c0-3.132-1.482-4.702-4.446-4.702zm10.711-3.639h-1.638v4.03H-37v1.378h2.34v9.178c-.018 1.145.19 1.929.624 2.354.433.426 1.196.638 2.288.638.243 0 .485-.01.728-.026.242-.017.485-.025.728-.025v-1.378c-.468.053-.936.078-1.404.078-.589-.035-.958-.204-1.105-.507-.147-.304-.221-.724-.221-1.262v-9.048h2.73v-1.378h-2.73v-4.032zm5.668-1.119h1.638v18.564h-1.638zm16.354 9.53a7.063 7.063 0 0 0-1.027-2.418 5.47 5.47 0 0 0-1.858-1.703c-.763-.434-1.682-.649-2.756-.649-1.058 0-1.973.203-2.743.61-.771.408-1.4.945-1.885 1.611a6.968 6.968 0 0 0-1.079 2.275 9.749 9.749 0 0 0-.352 2.6c0 .953.117 1.859.352 2.718a6.674 6.674 0 0 0 1.079 2.263 5.035 5.035 0 0 0 1.885 1.533c.771.373 1.686.56 2.743.56 1.698 0 3.011-.416 3.938-1.248.927-.832 1.564-2.011 1.911-3.536h-1.638c-.261 1.04-.729 1.872-1.404 2.496-.675.624-1.612.937-2.808.937-.78 0-1.448-.164-2.002-.494a4.52 4.52 0 0 1-1.379-1.248 5.048 5.048 0 0 1-.793-1.702 7.3 7.3 0 0 1-.246-1.833h10.321a10.564 10.564 0 0 0-.259-2.772zm-10.062 1.39a7.44 7.44 0 0 1 .429-1.781 5.296 5.296 0 0 1 .871-1.533 4.167 4.167 0 0 1 1.326-1.066c.52-.27 1.117-.402 1.794-.402.658 0 1.248.135 1.768.402.521.27.962.624 1.326 1.066.364.441.646.948.845 1.521.199.572.308 1.171.325 1.795l-8.684-.002zm14.638-2.626h-.052v-3.146h-1.509v13.416h1.639v-7.15c0-.71.121-1.364.363-1.963a4.533 4.533 0 0 1 1.027-1.547 4.536 4.536 0 0 1 1.573-1.001c.606-.233 1.282-.333 2.028-.3v-1.638c-1.214-.053-2.259.217-3.134.807-.873.591-1.519 1.431-1.935 2.522zm22.672-8.294h-1.977l-7.462 18.564h1.872l2.236-5.772h8.45l2.262 5.772h1.897l-7.278-18.564zm-4.784 11.285l3.718-9.517 3.588 9.517h-7.306z" fill="#0070bc"/></svg>