<svg xmlns="http://www.w3.org/2000/svg" width="562" height="53" viewBox="-262.5 779 562 53"><path d="M-172.935 792.201c0 2.469 1.927 3.436 4.112 3.436 1.434 0 3.618-.416 3.618-2.318 0-2.006-2.787-2.342-5.518-3.072-2.76-.729-5.545-1.797-5.545-5.287 0-3.801 3.594-5.623 6.952-5.623 3.879 0 7.446 1.691 7.446 5.988h-3.959c-.128-2.237-1.719-2.811-3.67-2.811-1.3 0-2.811.549-2.811 2.109 0 1.434.886 1.615 5.545 2.812 1.352.34 5.518 1.195 5.518 5.414 0 3.41-2.684 5.963-7.732 5.963-4.113 0-7.967-2.031-7.914-6.611h3.958zm18.664-7.291h2.708v2.475h-2.708v6.664c0 1.252.312 1.564 1.562 1.564.391 0 .754-.029 1.145-.105v2.889c-.625.104-1.431.129-2.163.129-2.263 0-4.242-.52-4.242-3.201v-7.941h-2.24v-2.473h2.24v-4.037h3.697v4.036zm5.233 4.142c.208-3.46 3.303-4.507 6.326-4.507 2.683 0 5.908.6 5.908 3.83v7.002c0 1.225.131 2.445.469 2.994h-3.75a5.42 5.42 0 0 1-.26-1.301c-1.171 1.223-2.887 1.664-4.53 1.664-2.55 0-4.579-1.275-4.579-4.031 0-3.049 2.29-3.773 4.579-4.088 2.268-.338 4.374-.26 4.374-1.77 0-1.59-1.093-1.822-2.394-1.822-1.407 0-2.318.571-2.449 2.03h-3.694v-.001zm8.537 2.733c-.624.547-1.925.572-3.072.779-1.146.232-2.187.625-2.187 1.979 0 1.381 1.066 1.719 2.265 1.719 2.89 0 2.994-2.293 2.994-3.1v-1.377zm16.3 4.869h-.053c-.859 1.455-2.368 2.08-4.088 2.08-4.061 0-6.04-3.486-6.04-7.211 0-3.618 2.007-6.979 5.961-6.979 1.588 0 3.152.677 3.982 2.008h.052v-6.77h3.697v18.588h-3.512v-1.716zm-3.229-9.324c-2.422 0-3.252 2.083-3.252 4.295 0 2.109.963 4.322 3.252 4.322 2.447 0 3.176-2.135 3.176-4.346 0-2.186-.779-4.271-3.176-4.271zm14.732-2.42h2.712v2.475h-2.712v6.664c0 1.252.312 1.564 1.562 1.564.393 0 .758-.029 1.149-.105v2.889c-.624.104-1.432.129-2.161.129-2.265 0-4.241-.52-4.241-3.201v-7.941h-2.241v-2.473h2.241v-4.037h3.69v4.036zm11.951 10.231l9.971-11.922h-9.188v-3.438h14.627v3.229l-9.968 11.922h10.231v3.436h-15.673v-3.227zm30.564 3.226h-3.514v-1.871h-.078c-.938 1.51-2.551 2.238-4.113 2.238-3.933 0-4.918-2.213-4.918-5.543v-8.281h3.693v7.604c0 2.209.653 3.305 2.37 3.305 2.008 0 2.864-1.121 2.864-3.854v-7.055h3.695v13.457zm-10.752-18.586h3.514v3.047h-3.514v-3.047zm5.365 0h3.513v3.047h-3.513v-3.047zm8.718 5.129h3.513v2.5h.053c.675-1.695 2.501-2.865 4.294-2.865a2.7 2.7 0 0 1 .806.133v3.436a6.928 6.928 0 0 0-1.326-.128c-2.71 0-3.646 1.954-3.646 4.321v6.064h-3.695V784.91h.001zm14.579-2.082h-3.696v-3.047h3.694v3.047h.002zm-3.697 2.082h3.694v13.461h-3.694V784.91zm15.903 4.738c-.233-1.509-1.193-2.318-2.733-2.318-2.368 0-3.153 2.396-3.153 4.375 0 1.926.759 4.242 3.073 4.242 1.719 0 2.707-1.094 2.944-2.736h3.564c-.465 3.566-2.942 5.52-6.481 5.52-4.061 0-6.792-2.863-6.792-6.896 0-4.193 2.498-7.291 6.868-7.291 3.177 0 6.092 1.668 6.327 5.104h-3.617zm6.044-9.867h3.695v7.005h.077c.936-1.512 2.548-2.241 3.93-2.241 3.931 0 4.919 2.215 4.919 5.549v8.277h-3.694v-7.602c0-2.214-.652-3.305-2.37-3.305-2.005 0-2.861 1.12-2.861 3.852v7.057h-3.695v-18.592zm-140.918 40.74c-.077 3.824 2.683 4.998 6.068 4.998 1.952 0 4.917-1.064 4.917-3.771 0-2.111-2.108-2.943-3.826-3.357l-4.138-1.018c-2.186-.547-4.188-1.588-4.188-4.479 0-1.822 1.169-5.229 6.401-5.229 3.67 0 6.898 1.977 6.875 5.777h-1.771c-.104-2.842-2.446-4.271-5.075-4.271-2.423 0-4.657.938-4.657 3.697 0 1.744 1.299 2.477 2.811 2.838l4.53 1.119c2.63.701 4.813 1.848 4.813 4.896 0 1.277-.52 5.312-7.104 5.312-4.399 0-7.63-1.98-7.421-6.51h1.764v-.002zm25.251-3.099c-.443-2.008-1.665-3.227-3.801-3.227-3.149 0-4.709 2.859-4.709 5.725 0 2.867 1.562 5.729 4.709 5.729 2.032 0 3.696-1.588 3.905-3.824h1.643c-.443 3.23-2.553 5.207-5.548 5.207-4.11 0-6.351-3.254-6.351-7.105 0-3.855 2.24-7.107 6.351-7.107 2.864 0 5.081 1.535 5.443 4.607h-1.642v-.005zm4.53-9.375h1.641v7.473h.051c.6-1.615 2.396-2.707 4.298-2.707 3.774 0 4.919 1.979 4.919 5.182v8.643h-1.642v-8.383c0-2.32-.757-4.061-3.407-4.061-2.604 0-4.168 1.98-4.219 4.604v7.836h-1.641v-18.587zm25.409 18.59h-1.508v-2.424h-.051c-.861 1.799-2.633 2.814-4.634 2.814-3.386 0-4.712-1.979-4.712-5.105v-8.721h1.641v8.748c.078 2.422.99 3.693 3.594 3.693 2.81 0 4.036-2.65 4.036-5.387V813.2h1.639v13.436h-.005zm3.643-18.59h1.641v18.59h-1.641v-18.59zm6.275 12.316c.025 2.395 1.275 5.283 4.426 5.283 2.393 0 3.697-1.402 4.219-3.436h1.64c-.704 3.045-2.474 4.816-5.858 4.816-4.269 0-6.064-3.283-6.064-7.107 0-3.539 1.798-7.107 6.064-7.107 4.322 0 6.041 3.777 5.909 7.551h-10.336zm8.697-1.384c-.08-2.471-1.612-4.785-4.271-4.785-2.682 0-4.165 2.34-4.426 4.785h8.697zm12.444-10.932h1.769v8.072h11.039v-8.072h1.771v18.59h-1.771v-9.008h-11.039v9.008h-1.769v-18.59zm18.557 0h1.643v2.631h-1.643v-2.631zm0 5.158h1.643v13.432h-1.643v-13.432zm5.315 0h1.507v3.148h.053c.832-2.158 2.653-3.438 5.074-3.33v1.639c-2.965-.154-4.997 2.029-4.997 4.812v7.162h-1.637v-13.431zm16.764 3.932c-.079-2.033-1.642-2.943-3.516-2.943-1.457 0-3.177.572-3.177 2.314 0 1.461 1.669 1.982 2.787 2.264l2.186.496c1.878.283 3.829 1.379 3.829 3.725 0 2.914-2.891 4.035-5.389 4.035-3.125 0-5.26-1.461-5.519-4.74h1.639c.131 2.215 1.77 3.357 3.957 3.357 1.537 0 3.67-.672 3.67-2.547 0-1.566-1.46-2.086-2.944-2.451l-2.108-.467c-2.133-.57-3.751-1.303-3.751-3.59 0-2.734 2.683-3.773 5.051-3.773 2.68 0 4.815 1.402 4.919 4.32h-1.634zm14.474.285c-.441-2.008-1.664-3.227-3.8-3.227-3.15 0-4.71 2.859-4.71 5.725 0 2.867 1.562 5.729 4.71 5.729 2.032 0 3.696-1.588 3.904-3.824h1.64c-.442 3.23-2.552 5.207-5.544 5.207-4.112 0-6.352-3.254-6.352-7.105 0-3.855 2.239-7.107 6.352-7.107 2.864 0 5.079 1.535 5.44 4.607h-1.641v-.005zm4.529-9.375h1.641v7.473h.051c.601-1.615 2.399-2.707 4.296-2.707 3.771 0 4.922 1.979 4.922 5.182v8.643h-1.642v-8.383c0-2.32-.757-4.061-3.408-4.061-2.608 0-4.17 1.98-4.219 4.604v7.836h-1.641v-18.587zm15.491 12.316c.025 2.395 1.275 5.283 4.425 5.283 2.396 0 3.696-1.402 4.217-3.436h1.639c-.701 3.045-2.472 4.816-5.855 4.816-4.274 0-6.067-3.283-6.067-7.107 0-3.539 1.797-7.107 6.067-7.107 4.32 0 6.039 3.777 5.909 7.551h-10.335zm8.694-1.384c-.076-2.471-1.613-4.785-4.269-4.785-2.682 0-4.168 2.34-4.425 4.785h8.694zm4.349-5.774H1.12v2.314h.052c.6-1.615 2.4-2.707 4.294-2.707 3.775 0 4.923 1.979 4.923 5.182v8.643H8.748v-8.383c0-2.32-.757-4.061-3.41-4.061-2.603 0-4.168 1.98-4.218 4.604v7.836H-.519v-13.428zm25.874 12.338c-.026 4.008-1.562 6.457-5.961 6.457-2.681 0-5.338-1.199-5.568-4.062h1.637c.362 1.975 2.109 2.68 3.932 2.68 3.021 0 4.321-1.799 4.321-5.076v-1.818h-.054c-.757 1.633-2.344 2.754-4.27 2.754-4.296 0-6.066-3.068-6.066-6.895 0-3.701 2.187-6.77 6.066-6.77 1.953 0 3.618 1.227 4.27 2.707h.054v-2.314h1.64v12.337zm-1.639-5.781c0-2.625-1.225-5.566-4.321-5.566-3.125 0-4.423 2.783-4.423 5.566 0 2.713 1.403 5.34 4.423 5.34 2.835 0 4.321-2.606 4.321-5.34zm5.286-6.557h1.51v3.148h.052c.832-2.158 2.654-3.438 5.076-3.33v1.639c-2.968-.154-4.994 2.029-4.994 4.812v7.162h-1.644v-13.431zm8.561 4.113c.155-3.152 2.372-4.502 5.442-4.502 2.368 0 4.945.729 4.945 4.32v7.131c0 .627.311.988.962.988.184 0 .395-.051.526-.102v1.381c-.364.08-.63.102-1.072.102-1.665 0-1.924-.934-1.924-2.34h-.052c-1.145 1.746-2.318 2.734-4.895 2.734-2.474 0-4.506-1.223-4.506-3.93 0-3.773 3.673-3.91 7.21-4.326 1.358-.154 2.113-.336 2.113-1.82 0-2.213-1.587-2.754-3.516-2.754-2.029 0-3.541.936-3.59 3.123H37.56v-.005zm8.749 1.975h-.055c-.207.391-.938.52-1.375.598-2.789.494-6.254.471-6.254 3.102 0 1.637 1.457 2.652 2.995 2.652 2.497 0 4.712-1.59 4.684-4.217v-2.135h.005zm5.441-11.246h1.642v7.711h.054c.701-1.93 2.652-2.947 4.66-2.947 4.087 0 6.04 3.305 6.04 7.104 0 3.805-1.951 7.113-6.04 7.113-2.163 0-4.035-1.121-4.796-2.945h-.048v2.551h-1.512v-18.587zm6.353 6.148c-3.487 0-4.712 2.941-4.712 5.725s1.225 5.729 4.712 5.729c3.122 0 4.396-2.945 4.396-5.729s-1.273-5.725-4.396-5.725zm10.078 6.168c.021 2.395 1.272 5.283 4.421 5.283 2.396 0 3.698-1.402 4.218-3.436h1.642c-.703 3.045-2.476 4.816-5.859 4.816-4.266 0-6.064-3.283-6.064-7.107 0-3.539 1.801-7.107 6.064-7.107 4.321 0 6.045 3.777 5.909 7.551H68.184zm8.69-1.384c-.077-2.471-1.615-4.785-4.271-4.785-2.681 0-4.162 2.34-4.421 4.785h8.692zm4.346-5.774h1.642v2.314h.054c.6-1.615 2.394-2.707 4.291-2.707 3.776 0 4.922 1.979 4.922 5.182v8.643h-1.64v-8.383c0-2.32-.755-4.061-3.409-4.061-2.607 0-4.166 1.98-4.218 4.604v7.836H81.22v-13.428zm14.528 7.025v-1.51h6.511v1.51h-6.511zm11.296.291c-.073 3.824 2.683 4.998 6.066 4.998 1.954 0 4.919-1.064 4.919-3.771 0-2.111-2.106-2.943-3.825-3.357l-4.141-1.018c-2.189-.547-4.188-1.588-4.188-4.479 0-1.822 1.169-5.229 6.401-5.229 3.67 0 6.9 1.977 6.875 5.777h-1.771c-.106-2.842-2.448-4.271-5.079-4.271-2.422 0-4.66.938-4.66 3.697 0 1.744 1.303 2.477 2.812 2.838l4.528 1.119c2.631.701 4.819 1.848 4.819 4.896 0 1.277-.523 5.312-7.111 5.312-4.399 0-7.626-1.98-7.419-6.51h1.772v-.002zm25.256-3.099c-.442-2.008-1.668-3.227-3.798-3.227-3.151 0-4.712 2.859-4.712 5.725 0 2.867 1.563 5.729 4.712 5.729 2.026 0 3.691-1.588 3.901-3.824h1.643c-.448 3.23-2.553 5.207-5.544 5.207-4.117 0-6.354-3.254-6.354-7.105 0-3.855 2.236-7.107 6.354-7.107 2.859 0 5.074 1.535 5.438 4.607h-1.64v-.005zm4.528-9.375h1.641v7.473h.052c.6-1.615 2.396-2.707 4.294-2.707 3.774 0 4.919 1.979 4.919 5.182v8.643h-1.639v-8.383c0-2.32-.755-4.061-3.412-4.061-2.603 0-4.164 1.98-4.214 4.604v7.836h-1.641v-18.587zm14.371 9.271c.155-3.152 2.37-4.502 5.437-4.502 2.372 0 4.947.729 4.947 4.32v7.131c0 .627.314.988.968.988.18 0 .387-.051.52-.102v1.381c-.362.08-.625.102-1.069.102-1.667 0-1.924-.934-1.924-2.34h-.054c-1.145 1.746-2.315 2.734-4.893 2.734-2.477 0-4.503-1.223-4.503-3.93 0-3.773 3.67-3.91 7.211-4.326 1.353-.154 2.109-.336 2.109-1.82 0-2.213-1.59-2.754-3.518-2.754-2.027 0-3.539.936-3.588 3.123h-1.644v-.005zm8.744 1.975h-.049c-.21.391-.938.52-1.378.598-2.789.494-6.25.471-6.25 3.102 0 1.637 1.456 2.652 2.993 2.652 2.499 0 4.712-1.59 4.684-4.217v-2.135zm5.418-6.088h1.641v2.314h.052c.598-1.615 2.394-2.707 4.296-2.707 3.77 0 4.915 1.979 4.915 5.182v8.643h-1.637v-8.383c0-2.32-.757-4.061-3.41-4.061-2.604 0-4.166 1.98-4.216 4.604v7.836h-1.641v-13.428zm15.333 12.051h9.242v1.381h-11.22v-1.324l8.772-10.729h-8.176v-1.379h10.259v1.172l-8.877 10.879zm12.73-4.893c.026 2.395 1.279 5.283 4.425 5.283 2.398 0 3.694-1.402 4.217-3.436h1.641c-.705 3.045-2.476 4.816-5.857 4.816-4.271 0-6.065-3.283-6.065-7.107 0-3.539 1.796-7.107 6.065-7.107 4.32 0 6.043 3.777 5.911 7.551h-10.337zm8.695-1.384c-.078-2.471-1.613-4.785-4.271-4.785-2.683 0-4.168 2.34-4.425 4.785h8.696zm4.348-5.774h1.641v2.314h.052c.6-1.615 2.396-2.707 4.296-2.707 3.77 0 4.919 1.979 4.919 5.182v8.643h-1.643v-8.383c0-2.32-.755-4.061-3.41-4.061-2.603 0-4.164 1.98-4.214 4.604v7.836h-1.641v-13.428zm25.876 12.338c-.026 4.008-1.562 6.457-5.959 6.457-2.683 0-5.339-1.199-5.572-4.062h1.642c.362 1.975 2.106 2.68 3.931 2.68 3.018 0 4.315-1.799 4.315-5.076v-1.818h-.052c-.755 1.633-2.342 2.754-4.266 2.754-4.296 0-6.068-3.068-6.068-6.895 0-3.701 2.189-6.77 6.068-6.77 1.947 0 3.617 1.227 4.266 2.707h.052v-2.314h1.644v12.337zm-1.644-5.781c0-2.625-1.221-5.566-4.315-5.566-3.129 0-4.427 2.783-4.427 5.566 0 2.713 1.403 5.34 4.427 5.34 2.836 0 4.315-2.606 4.315-5.34zm5.288-6.557h1.51v3.148h.054c.832-2.158 2.654-3.438 5.076-3.33v1.639c-2.97-.154-5.001 2.029-5.001 4.812v7.162h-1.639v-13.431zm8.564 4.113c.157-3.152 2.37-4.502 5.443-4.502 2.367 0 4.942.729 4.942 4.32v7.131c0 .627.311.988.964.988.182 0 .391-.051.522-.102v1.381a4.41 4.41 0 0 1-1.07.102c-1.665 0-1.926-.934-1.926-2.34h-.05c-1.145 1.746-2.317 2.734-4.891 2.734-2.476 0-4.505-1.223-4.505-3.93 0-3.773 3.668-3.91 7.209-4.326 1.354-.154 2.111-.336 2.111-1.82 0-2.213-1.589-2.754-3.518-2.754-2.024 0-3.538.936-3.59 3.123h-1.644v-.005zm8.751 1.975h-.052c-.209.391-.94.52-1.382.598-2.789.494-6.252.471-6.252 3.102 0 1.637 1.46 2.652 2.995 2.652 2.5 0 4.71-1.59 4.688-4.217v-2.135h.003zm5.441-11.246h1.639v7.711h.052c.701-1.93 2.657-2.947 4.66-2.947 4.089 0 6.04 3.305 6.04 7.104 0 3.805-1.949 7.113-6.04 7.113-2.161 0-4.037-1.121-4.792-2.945h-.052v2.551h-1.507v-18.587zm6.349 6.148c-3.487 0-4.71 2.941-4.71 5.725s1.223 5.729 4.71 5.729c3.127 0 4.399-2.945 4.399-5.729s-1.272-5.725-4.399-5.725zm10.077 6.168c.023 2.395 1.274 5.283 4.423 5.283 2.398 0 3.696-1.402 4.217-3.436h1.643c-.705 3.045-2.476 4.816-5.859 4.816-4.27 0-6.066-3.283-6.066-7.107 0-3.539 1.799-7.107 6.066-7.107 4.32 0 6.041 3.777 5.911 7.551h-10.335zm8.695-1.384c-.08-2.471-1.615-4.785-4.272-4.785-2.678 0-4.166 2.34-4.423 4.785h8.695zm4.346-5.774h1.643v2.314h.052c.596-1.615 2.395-2.707 4.294-2.707 3.774 0 4.921 1.979 4.921 5.182v8.643h-1.641v-8.383c0-2.32-.759-4.061-3.412-4.061-2.603 0-4.164 1.98-4.214 4.604v7.836h-1.643v-13.428zm-482.937-2.568a2.127 2.127 0 0 0-.498.084l-.847-3.053.431-.557c1.292-1.68 2.062-2.65 2.641-3.766.888-1.701.772-3.395.486-4.465-.648-2.404-2.542-2.975-3.669-2.918-1.691.082-2.725 1.025-3.158 2.098-.463 1.158-.378 2.354-.165 3.211l1.479 5.906c-.455.594-.849 1.215-1.122 1.555l-2.804-10.934 6.269-4.621c3.593-2.639 3.567-6.885 2.392-9.182-1.124-2.195-2.706-3.303-4.081-3.808a6.63 6.63 0 0 0-.94-.292c-.009-.189-.014-.326-.018-.385-.027-.284-.361-.414-.649-.471-.639-.139-.821.131-.821.226l-.021.378c-1.532-.162-4.804-.148-4.804-.148l.007.898v2.237l1.299.151c.122.006.291.141.288.368-.002.245-.188.378-.37.429-.152.046-.229.057-.295.051h-.014l-4.006-.445.489 1.525c1.555.174 2.785.283 3.688.328.043.009.083.009.124.009a1.89 1.89 0 0 0 1.889-1.896 1.89 1.89 0 0 0-1.793-1.888v-.371c.54.013 1.201.039 1.921.104.065.271.208.602.499.902.313.33.646.586.937.774l-.018.466s.041.773-.031 1.419c-.073.645-.456 1.131-1.864 1.183-1.341.047-2.99-.216-2.99-.216l.09.992c-.542.301-1.087.746-1.776 1.364-.461.41-.908.982-1.304 1.631l-1.683-3.256a2.901 2.901 0 0 0 .567-1.713c0-1.602-1.475-2.904-3.02-2.904-1.041 0-1.911.463-2.453 1.178l.262-3.059h-26.432l.254 3.059c-.537-.717-1.408-1.178-2.446-1.178-1.545 0-3.021 1.301-3.021 2.904 0 .641.216 1.225.572 1.713l-1.688 3.258c-.399-.648-.848-1.221-1.308-1.631-.693-.62-1.231-1.062-1.776-1.361l.093-.994s-1.65.26-2.991.217c-1.413-.051-1.793-.542-1.866-1.185-.069-.645-.025-1.419-.025-1.419l-.021-.468a5.17 5.17 0 0 0 .937-.774c.287-.301.433-.631.495-.902a30.157 30.157 0 0 1 1.927-.104v.371c-1 .051-1.797.879-1.797 1.888 0 1.048.848 1.896 1.896 1.896.039 0 .078 0 .119-.009.904-.045 2.134-.154 3.691-.328l.485-1.525-4.001.445h-.017c-.062.008-.139-.005-.294-.051-.182-.051-.366-.184-.368-.429-.006-.228.166-.362.288-.368l1.297-.151v-2.237l.014-.898s-3.272-.019-4.807.148l-.021-.381c0-.097-.181-.361-.821-.227-.288.059-.623.188-.648.472-.005.062-.007.198-.022.388a6.693 6.693 0 0 0-.937.292c-1.375.505-2.96 1.612-4.074 3.808-1.173 2.297-1.211 6.543 2.387 9.182l6.266 4.621-2.807 10.934c-.268-.34-.661-.961-1.117-1.555l1.477-5.906c.214-.857.296-2.053-.166-3.211-.435-1.07-1.461-2.014-3.157-2.096-1.134-.057-3.027.514-3.674 2.918-.286 1.07-.407 2.764.49 4.465.578 1.113 1.348 2.088 2.64 3.768l.429.555-.841 3.051a2.06 2.06 0 0 0-.505-.084 1.71 1.71 0 0 0-1.791 1.709 1.789 1.789 0 0 0 3.299.955c.27-.406.525-1.461.817-2.465l.396-1.371 1.158 1.504c-.717 2.705-3.354 12.605-3.395 12.758-.452 1.924 1.276 3.582 3.062 3.572 1.589-.018 3.117-1.291 3.056-3.088-.038-.844-.37-1.463-.899-1.869l2.915-4.611 5.484 7.76c.429.621.768.896.824.938a3.042 3.042 0 0 0 2.176.912c1.521 0 3.096-1.367 3.096-3.059 0-1.693-1.337-3.123-3.102-2.807-.048.02-.089.023-.133.031l-3.884-11.09c-.31-.85-.742-1.492-1.133-1.859-.563-.539-1.38-.533-1.705-.516a3.128 3.128 0 0 0-.527.09l2.907-6.285 3.645 2.75a3.072 3.072 0 0 0 2.303.657l1.007 10.324c.326 3.459 2.008 6.504 4.49 8.641v.027h.029c2.309 1.973 5.296 3.184 8.582 3.184 6.855 0 12.479-5.162 13.099-11.852l1.01-10.324a3.102 3.102 0 0 0 2.306-.657l3.639-2.75 2.911 6.285a2.982 2.982 0 0 0-.53-.09c-.327-.018-1.143-.023-1.704.516-.394.367-.822 1.01-1.132 1.859l-3.881 11.09c-.047-.008-.087-.012-.134-.031-1.764-.316-3.102 1.113-3.102 2.807 0 1.695 1.572 3.059 3.098 3.059.852 0 1.614-.35 2.175-.912.053-.043.39-.324.823-.938l5.486-7.76 2.908 4.611c-.534.406-.863 1.025-.896 1.869-.059 1.797 1.472 3.07 3.055 3.088 1.787.01 3.518-1.648 3.061-3.572-.037-.152-2.675-10.055-3.397-12.758l1.16-1.504.396 1.371c.292 1.004.544 2.059.821 2.465a1.786 1.786 0 0 0 3.297-.955 1.724 1.724 0 0 0-1.799-1.709zm-62.289-9.494l-1.093 4.225a39.99 39.99 0 0 1-.769-1.018c-.462-.674-1.663-2.367-1.663-4.457 0-1.037.891-2.207 2.004-2.1 1.395.127 1.945 1.723 1.521 3.35zm44.972-17.623c.675 0 1.297.648 1.297 1.32 0 .482-.253.904-.646 1.136l2.687 5.218a8.426 8.426 0 0 0-.476 1.615 57.75 57.75 0 0 0-.166 1.057l-3.854-8.393a1.422 1.422 0 0 1-.153-.633 1.316 1.316 0 0 1 1.311-1.32zm-7.581-2.398h1.238l-.101 2.116h1.212l.101-2.116h1.242l-.204 3.271h-3.639l.151-3.271zm-.199 4.461h3.61l-.106 1.698h-3.584l.08-1.698zm-7.786 2.894h11.217l-.132 2.096h-21.747l-.128-2.096h10.79zm-1.519-2.894h3.454l-.027 1.698h-3.408l-.019-1.698zm4.817-4.461h1.174l-.072 2.116h1.196l.076-2.116h1.067l-.111 3.271h-3.399l.069-3.271zm-.095 4.461h3.382l-.057 1.698h-3.361l.036-1.698zm-3.644-4.461l.008 2.116h1.297v-2.116h1.127l-.044 3.271h-3.476l-.046-3.271h1.134zm-2.304 6.157h-3.361l-.058-1.699h3.381l.038 1.699zm-2.505-6.157l.073 2.116h1.198l-.071-2.116h1.176l.064 3.271h-3.396l-.11-3.271h1.066zm-2.039 6.157h-3.58l-.109-1.696h3.609l.08 1.696zm-2.726-6.157l.098 2.116h1.212l-.096-2.116h1.234l.152 3.271h-3.64l-.206-3.271h1.246zm-5.787 4.854a1.313 1.313 0 0 1-.644-1.136c0-.672.623-1.32 1.299-1.32.72 0 1.306.588 1.306 1.32 0 .234-.06.446-.153.633l-3.854 8.393a35.987 35.987 0 0 0-.162-1.057c-.082-.496-.256-1.055-.478-1.615l2.686-5.218zm-6.645 23.479c.828.174 1.196.85 1.354 1.25.124.318 2.905 8.232 4.041 11.467l.049.137.433 1.215.082-.135c.229-.277.585-.443 1.057-.443a1.28 1.28 0 0 1 1.282 1.291c0 .709-.574 1.289-1.282 1.289-.344 0-.658-.137-.895-.359-.228-.193-.778-.926-.778-.926l-.748-1.045-.21-.305-4.776-6.734c.499-.799.865-1.572.865-2.219 0-1.551-1.03-2.584-2.274-2.584l.848-1.824c.138-.087.426-.188.952-.075zm-3.806 2.602l-.217.49c.262-.156.569-.242.897-.242a1.768 1.768 0 0 1 1.746 2.076.897.897 0 0 0-.024.094.898.898 0 0 1-.041.156l-.006.025a3.821 3.821 0 0 1-.354.732l-1.342 2.115-.434.67-2.066 3.248-.215.34-.735 1.137h.08c.769-.018 1.311.6 1.311 1.314 0 .537-.445 1.268-1.238 1.268-.813 0-1.347-.557-1.347-1.268 0-.061-.009-.248.036-.396l6.519-24.838 2.563 1.91-5.133 11.169zm12.185-8.541a.98.98 0 0 1-.315.051c-.326 0-.603-.092-.826-.25l-2.132-1.588-1.324-.973-11.841-8.797c-1.123-.846-2.673-2.549-2.453-5.381.181-2.314 2.025-4.396 4.044-5.025 0 .543 0 1.079.019 1.49.053 1.203.194 2.108.29 2.484.143.6.696 1.521 2.222 1.555.525.016 1.147 0 1.738-.025.314.113.664.259 1.021.444 1.968 1.009 3.029 2.66 3.438 3.397a7.59 7.59 0 0 1 .712 5.207l-2.871-2.172-.417 1.756 5.533 4.088.567.414 1.309.973c.259-.242.61-.393.996-.402l.02-.006c.979-.018 1.436.707 1.412 1.443-.013.539-.543 1.149-1.142 1.317zm1.507-3.957c-.201-1.402-.325-2.801-.325-2.801l2.745 2.934h-2.251c-.057-.042-.105-.102-.169-.133zm1.373 1.863h2.845l1.592 1.527h-4.491c.083-.277.145-.557.145-.859a3.023 3.023 0 0 0-.091-.668zm-1.002 3.258h7.237l1.595 1.535h-8.721c-.034-.516-.078-1.045-.111-1.535zm.231 3.263h10.397l1.591 1.529h-11.877a255.63 255.63 0 0 0-.111-1.529zm.242 3.26h13.54l1.593 1.527h-14.977c-.056-.501-.119-1.007-.156-1.527zm.39 3.256h16.533l1.597 1.527h-17.852c-.108-.484-.19-1.004-.278-1.527zm11.631 11.512c-1.943 0-4.038-.389-6.193-1.721h12.1c-1.497 1.025-3.956 1.721-5.907 1.721zm7.759-3.455h-16.011a9.527 9.527 0 0 1-1.232-1.531h18.585c-.357.47-.783.99-1.342 1.531zm-18.142-3.262a17.54 17.54 0 0 1-.545-1.533h19.219l1.597 1.533h-20.271zm23.052-19.783a3.07 3.07 0 0 0-1.358 2.553c0 .887.369 1.682.965 2.242l-.118 1.377-.251 3.078-.506 6.15a11.205 11.205 0 0 1-.519 2.713l-22.786-21.908h24.887l-.314 3.795zm-27.97-5.502l.5 5.111c-.279.01-.555.072-.803.162l-2.458-1.854 5.281-11.348.489 5.82h24.4l.484-5.82 5.288 11.348-2.459 1.852a2.818 2.818 0 0 0-.802-.164l.497-5.109h-30.416v.002zm34.079 6.787l-1.317.975-2.138 1.59c-.22.154-.497.248-.826.248-.105 0-.21-.016-.313-.049-.597-.17-1.124-.779-1.137-1.318-.026-.736.429-1.461 1.405-1.443l.015.006c.39.012.74.16 1.002.404l1.315-.973.561-.418 5.531-4.088-.414-1.756-2.873 2.17a7.66 7.66 0 0 1 .712-5.209c.409-.735 1.47-2.387 3.444-3.396a8.49 8.49 0 0 1 1.013-.443c.598.025 1.22.041 1.743.025 1.52-.034 2.078-.955 2.224-1.556.099-.375.24-1.28.291-2.483.016-.412.018-.949.016-1.493 2.018.632 3.864 2.713 4.049 5.028.216 2.832-1.332 4.535-2.459 5.379l-11.844 8.8zm-.596 22.139l-.21.305-.747 1.045s-.556.732-.782.926a1.309 1.309 0 0 1-.894.361c-.704 0-1.28-.586-1.28-1.295a1.28 1.28 0 0 1 1.28-1.289c.467 0 .828.164 1.056.445l.089.135.427-1.219.049-.131c1.138-3.236 3.918-11.146 4.048-11.473.152-.4.521-1.074 1.348-1.25.526-.111.815-.01.957.074l.849 1.824c-1.249 0-2.272 1.033-2.272 2.584 0 .648.361 1.42.862 2.219l-4.78 6.739zm12.13.921c.046.148.046.336.046.396 0 .711-.54 1.268-1.349 1.268-.799 0-1.245-.73-1.245-1.268 0-.715.547-1.332 1.309-1.314h.078l-.731-1.137-.213-.34-2.065-3.248-.43-.67-1.348-2.115s-.238-.373-.353-.732l-.006-.025a.74.74 0 0 1-.044-.156c-.004-.041-.015-.066-.025-.094a1.769 1.769 0 0 1 1.749-2.076c.327 0 .632.086.893.242l-.217-.484-5.136-11.174 2.572-1.91 6.515 24.837zm.3-18.449l-1.091-4.225c-.421-1.627.126-3.223 1.521-3.35 1.114-.107 2.014 1.062 2.014 2.1 0 2.09-1.206 3.781-1.672 4.457-.12.169-.406.547-.772 1.018z" fill="#0070bc"/></svg>