<svg viewBox="0 0 280 67" fill="none" xmlns="http://www.w3.org/2000/svg"><path d="M122.814 16.384c0 2.712 2.034 3.729 4.407 3.729 1.581 0 3.954-.452 3.954-2.486 0-2.146-3.051-2.485-5.988-3.276-2.938-.791-5.988-1.921-5.988-5.763 0-4.067 3.841-6.1 7.57-6.1 4.18 0 8.022 1.807 8.022 6.44h-4.294c-.113-2.486-1.808-3.051-3.954-3.051-1.356 0-3.051.565-3.051 2.26 0 1.581.904 1.694 5.988 3.05 1.469.34 5.988 1.243 5.988 5.875 0 3.729-2.937 6.44-8.36 6.44-4.407 0-8.587-2.146-8.587-7.118h4.293zm19.664-7.919h2.937v2.712h-2.937v7.231c0 1.356.339 1.695 1.694 1.695.452 0 .791 0 1.243-.113v3.163c-.678.113-1.581.113-2.372.113-2.486 0-4.633-.565-4.633-3.502v-8.587h-2.372V8.465h2.372V4.172h3.955v4.293h.113zm4.965 4.529c.226-3.728 3.615-4.858 6.892-4.858 2.937 0 6.44.678 6.44 4.18v7.57c0 1.356.113 2.599.565 3.277h-4.068c-.113-.452-.226-.904-.226-1.356-1.242 1.356-3.163 1.808-4.858 1.808-2.712 0-4.971-1.356-4.971-4.407 0-3.276 2.485-4.067 4.971-4.406 2.486-.34 4.745-.226 4.745-1.92 0-1.696-1.129-2.035-2.598-2.035-1.469 0-2.486.565-2.599 2.147h-4.293zm9.265 2.938c-.678.565-2.034.565-3.277.904-1.243.226-2.373.678-2.373 2.146 0 1.47 1.13 1.808 2.486 1.808 3.164 0 3.277-2.486 3.277-3.39v-1.468h-.113zm17.182 5.313c-1.017 1.582-2.599 2.26-4.519 2.26-4.407 0-6.553-3.729-6.553-7.796 0-3.955 2.146-7.57 6.44-7.57 1.695 0 3.389.678 4.293 2.146V2.941h3.955v20.112h-3.842v-1.808h.226zm-3.502-10.056c-2.599 0-3.503 2.26-3.503 4.633 0 2.26 1.017 4.632 3.503 4.632 2.598 0 3.389-2.26 3.389-4.745 0-2.26-.791-4.52-3.389-4.52zm15.466-2.724h2.938v2.712h-2.938v7.231c0 1.356.339 1.695 1.695 1.695.452 0 .791 0 1.243-.113v3.163c-.678.113-1.582.113-2.373.113-2.485 0-4.632-.565-4.632-3.502v-8.587h-2.373V8.465h2.373V4.172h3.954v4.293h.113zm10.511 11.198l10.847-12.88h-9.943V2.94h15.818v3.503L202.24 19.437h11.073v3.729h-16.948v-3.503zm32.316 3.503h-3.842v-2.034c-1.017 1.695-2.711 2.373-4.406 2.373-4.294 0-5.31-2.373-5.31-5.989V8.478h3.954v8.248c0 2.372.678 3.615 2.599 3.615 2.146 0 3.05-1.243 3.05-4.18V8.478h3.955v14.688zM217.043 2.94h3.842v3.277h-3.842V2.941zm5.876 0h3.841v3.277h-3.841V2.941zm8.81 5.535h3.842v2.711h.113c.678-1.807 2.712-3.05 4.632-3.05.226 0 .565 0 .904.113v3.728c-.339-.113-1.017-.113-1.469-.113-2.937 0-3.954 2.147-3.954 4.633v6.553h-3.955V8.475h-.113zm15.368-2.257h-3.955V2.941h3.955v3.277zm-4.068 2.26h3.955v14.575h-3.955V8.478zm16.609 5.194c-.226-1.582-1.243-2.485-2.937-2.485-2.599 0-3.39 2.598-3.39 4.745 0 2.034.791 4.632 3.277 4.632 1.807 0 2.937-1.13 3.163-2.937h3.842c-.565 3.841-3.164 5.988-7.005 5.988-4.407 0-7.344-3.05-7.344-7.457 0-4.52 2.711-7.909 7.457-7.909 3.389 0 6.553 1.808 6.892 5.536h-3.955v-.113zm6.105-10.731h3.955v7.57h.113c1.016-1.694 2.711-2.372 4.293-2.372 4.293 0 5.31 2.372 5.31 5.988v8.926h-3.954v-8.248c0-2.373-.678-3.616-2.599-3.616-2.146 0-3.05 1.243-3.05 4.18v7.684h-3.955V2.94h-.113zM93.777 44.064c-.339 0-.677.113-1.017.226-.451-1.582-.903-3.163-1.242-4.745l1.808-2.486c.225-.339 3.276-4.18 3.276-7.796 0-5.31-4.52-5.423-4.971-5.423-1.13 0-2.825.452-3.842 1.808-1.017 1.242-1.243 2.937-.79 4.97.112.34 1.13 4.407 2.259 8.475l-1.808 2.372-3.954-15.14 9.039-6.666c2.485-1.92 3.954-4.971 3.954-8.134 0-4.859-3.39-9.04-8.022-10.056V.452L86.66 0v1.13L81.462.79h-1.695v4.181h1.695c.452 0 .904.452.904.904s-.339.904-.904.904l-5.65-.565.453 1.808 5.084.452h.113c1.469 0 2.599-1.13 2.599-2.599 0-1.469-1.13-2.598-2.599-2.598v-.678l5.084.339v4.858c0 .565-.226 1.017-.565 1.356a1.67 1.67 0 0 1-1.468.452l-5.763-.34.452 1.696a14.248 14.248 0 0 0-3.954 3.841l-2.26-4.858c.34-.565.452-1.243.452-1.808a4.05 4.05 0 0 0-4.067-4.068c-1.47 0-2.712.791-3.39 1.808l.452-4.745H30.167l.339 4.858c-.678-1.13-2.034-1.808-3.39-1.808a4.05 4.05 0 0 0-4.067 4.068c0 .678.113 1.243.452 1.808l-2.26 4.858a12.464 12.464 0 0 0-3.841-3.841l.452-1.695-5.763.339c-.565 0-1.017-.113-1.468-.452-.452-.565-.565-1.017-.565-1.582V2.825l5.084-.34v.679c-1.469 0-2.599 1.242-2.599 2.598 0 1.469 1.13 2.599 2.599 2.599h.113l5.084-.34.452-1.807-5.649.565c-.452 0-.904-.452-.904-.904s.452-.904.904-.904h1.695V.904H15.14l-5.084.226V0L8.248.452v.904C3.503 2.373.226 6.553.226 11.412c0 3.163 1.469 6.214 3.954 8.134l9.04 6.666-3.955 15.253-1.808-2.372a289.473 289.473 0 0 0 2.26-8.474c.452-2.034.226-3.729-.791-4.971-1.017-1.356-2.712-1.808-3.842-1.808-.565 0-5.084.226-5.084 5.536 0 3.503 3.05 7.344 3.277 7.796l1.807 2.373c-.452 1.581-.904 3.163-1.243 4.745a2.128 2.128 0 0 0-.903-.226A2.508 2.508 0 0 0 .452 46.55a2.508 2.508 0 0 0 2.486 2.485c1.13 0 2.146-.79 2.372-1.807.113-.565.791-2.825 1.47-5.424l1.807 2.373L3.84 62.03c-.113.339-.113.565-.113.903A4.05 4.05 0 0 0 7.796 67a4.05 4.05 0 0 0 4.067-4.068c0-1.016-.338-1.92-1.016-2.711l4.18-6.78 8.36 11.751c.792 1.13 2.035 1.695 3.39 1.695a4.05 4.05 0 0 0 4.068-4.067 4.05 4.05 0 0 0-4.068-4.068h-.226l-5.649-16.044c-.565-1.468-1.808-2.485-3.39-2.711h-.677l3.841-8.361 5.085 3.728a3.948 3.948 0 0 0 2.485.904c.226 0 .452 0 .791-.113l1.469 14.801c.452 4.068 2.599 8.022 5.988 11.073 3.503 3.163 7.683 4.858 11.977 4.858 4.293 0 8.586-1.695 11.976-4.858 3.39-3.05 5.536-7.118 5.988-11.073l1.356-14.688c.226 0 .452.113.79.113.905 0 1.808-.339 2.486-.904l5.085-3.728 3.841 8.36h-.79c-1.582.227-2.825 1.243-3.39 2.712l-5.65 16.044h-.225a4.05 4.05 0 0 0-4.068 4.067A4.05 4.05 0 0 0 69.938 67c1.355 0 2.598-.678 3.39-1.695l8.36-11.75 4.18 6.779c-.79.678-1.13 1.582-1.13 2.598A4.05 4.05 0 0 0 88.807 67a4.05 4.05 0 0 0 4.068-4.068c0-.338 0-.564-.114-.903l-4.632-17.852 1.808-2.373c.678 2.599 1.356 4.859 1.469 5.424.226 1.017 1.243 1.807 2.372 1.807a2.508 2.508 0 0 0 2.486-2.485 2.508 2.508 0 0 0-2.486-2.486zM5.875 36.946l-.79-1.13C4.292 34.8 2.26 31.75 2.26 29.376c0-2.938 2.033-3.277 2.824-3.277.678 0 1.582.227 2.26 1.017.565.678.678 1.808.452 3.164-.226.226-1.017 3.05-1.92 6.666zM69.6 6.214c1.13 0 1.92.904 1.92 1.92 0 .453-.113.792-.339 1.13l-.339.453 3.503 7.344c-.452 1.242-.79 2.485-.79 3.841L67.903 8.7c-.113-.226-.113-.452-.113-.678-.226-.904.678-1.808 1.808-1.808zm-12.09 5.423h-4.971V9.265h5.084l-.113 2.372zm-6.666 0h-4.971V9.265h4.971v2.372zm-6.666 0h-4.971l-.113-2.372h4.971l.113 2.372zm-6.779 0h-4.632l-.226-2.372h4.858v2.372zm26.438 1.808l-.225 2.825H33.105l-.226-2.825h30.957zm.113-1.808h-4.745l.113-2.372h4.858l-.226 2.372zm-2.711-8.7l-.113 3.051h1.695l.112-3.05h1.695l-.339 4.632h-4.971l.113-4.632h1.808zm-6.892 0l-.113 3.051h1.695l.113-3.05h1.694l-.113 4.632h-5.084l.113-4.632h1.695zm-6.892 0v3.051h1.694v-3.05h1.695V7.57H45.76l-.113-4.632h1.808zm-6.892 0l.113 3.051h1.694l-.113-3.05h1.808V7.57H38.98l-.113-4.632h1.695zm-6.892 0l.225 3.051h1.695l-.113-3.05h1.695l.113 4.632h-4.971l-.34-4.632h1.695zM30.845 9.83l.678 8.135h33.67l.677-8.135 7.344 15.818-3.728 2.711c-.226-.113-.565-.113-.904-.113l.678-7.344H27.455l.678 7.344c-.339 0-.678 0-1.017.113l-3.728-2.711L30.845 9.83zm1.243 21.128h4.406l2.825 2.712h-7.231c.113-.453.226-.904.226-1.356 0-.452-.113-.904-.226-1.356zm-1.13-1.695c-.226-.113-.34-.339-.565-.452l-.339-4.067 4.632 4.52h-3.728zM25.874 9.83l-.34-.452a2.18 2.18 0 0 1-.338-1.13c0-1.13.903-1.92 1.92-1.92s1.921.903 1.921 1.92c0 .226 0 .452-.113.678l-5.65 12.202c-.112-1.356-.338-2.599-.79-3.841l3.39-7.457zm-8.7 32.426c.452.113 1.355.34 1.695 1.356l6.327 17.852 1.016-.34c.226-.112.452-.112.565-.112 1.13 0 1.921.904 1.921 1.92 0 1.13-.904 1.921-1.92 1.921a1.977 1.977 0 0 1-1.582-.79L16.383 51.52l.565-1.017c.339-.678.565-1.356.565-2.033 0-1.808-1.243-3.39-2.938-3.842l.904-2.034c.339-.226 1.017-.452 1.695-.339zm-5.085 2.712l1.243 1.695h.34c1.016 0 1.807.79 1.807 1.808 0 .338-.113.677-.226.903L8.135 60.673l.904.565c.565.339.904 1.017.904 1.582 0 1.13-.904 1.92-1.921 1.92-1.13 0-1.92-.904-1.92-1.92v-.452l9.151-34.913 3.841 2.825-7.005 14.688zm16.157-10.734c-.452 0-.904-.113-1.243-.452L5.536 17.852a8.133 8.133 0 0 1-3.163-6.44 8.272 8.272 0 0 1 5.875-7.91V7.57c0 1.017.452 1.92 1.13 2.599.678.79 1.582 1.13 2.485 1.13h.226l1.582-.114c.34.114.678.226.791.226 4.294 1.695 7.118 5.876 7.118 10.508 0 .678-.113 1.469-.226 2.147l-4.52-3.277-.564 2.26 10.507 7.796.565-.226c.452-.226 1.017-.226 1.582 0 .678.339 1.243 1.017 1.243 1.808 0 .678-.339 1.242-.904 1.581-.339.113-.678.226-1.017.226zm2.712 1.13h10.056l2.824 2.712H31.297l-.34-2.712zm.452 4.407h14.236l2.825 2.711H31.748l-.34-2.711zm.452 4.406h18.416l2.825 2.712H32.088l-.226-2.712zm.678 6.78l-.226-2.26H54.91l2.824 2.711H32.54v-.452zm.339 2.146H59.43l2.825 2.712H34.008c-.452-.904-.79-1.808-1.13-2.712zm15.479 11.863c-3.164 0-6.328-1.13-8.926-2.937h17.851c-2.598 1.807-5.762 2.937-8.925 2.937zm10.959-4.745H37.285c-.904-.791-1.582-1.695-2.26-2.712H61.69a13.632 13.632 0 0 1-2.373 2.712zm4.858-9.265a14.8 14.8 0 0 1-.677 3.05L31.297 23.05h35.59l-.565 5.762c-1.243.791-1.92 2.034-1.92 3.503 0 1.13.451 2.26 1.242 2.937l-1.469 15.705zm5.537-17.174c-.34.34-.791.452-1.243.452a2.18 2.18 0 0 1-1.13-.339c-.565-.339-.904-1.016-.904-1.581 0-.791.452-1.47 1.243-1.808.452-.226 1.017-.226 1.582 0l.565.226 10.507-7.796-.565-2.26-4.52 3.277c-.112-.678-.225-1.356-.225-2.147 0-4.632 2.825-8.7 7.118-10.508.113 0 .452-.113.79-.226l1.583.114h.226a3.51 3.51 0 0 0 2.485-1.017c.678-.678 1.13-1.582 1.13-2.599V3.503c3.503 1.016 5.875 4.18 5.875 7.909a8.133 8.133 0 0 1-3.163 6.44l-21.354 15.93zm1.807 30.28c-.339.565-1.017.791-1.581.791-1.13 0-1.921-.904-1.921-1.92 0-1.13.904-1.921 1.92-1.921.227 0 .453 0 .566.113l1.016.339 6.328-17.852c.339-1.017 1.242-1.243 1.694-1.356.678-.113 1.356.113 1.582.34l.904 2.033c-1.695.452-2.938 2.034-2.938 3.955 0 .677.226 1.468.565 2.033l.565 1.017-8.7 12.428zm19.208-1.468v.451c0 1.13-.904 1.921-1.92 1.921-1.13 0-1.922-.904-1.922-1.92 0-.678.34-1.243.904-1.582l.904-.565L81.575 49.6c-.226-.339-.226-.565-.226-.904 0-1.016.791-1.807 1.808-1.807h.339l1.243-1.695-6.78-14.575 3.842-2.825 8.926 34.8zm-1.695-32.427c-.339-1.469-.226-2.486.452-3.164.565-.677 1.582-1.017 2.26-1.017.904 0 2.824.34 2.824 3.277 0 2.825-2.824 6.327-2.824 6.44l-.904 1.13c-.904-3.502-1.695-6.327-1.808-6.666z" fill="#0F05A0"/></svg>