<svg xmlns="http://www.w3.org/2000/svg" width="208" height="53" viewBox="0 0 208 53"><path fill="#0096CC" d="M83.004 53c-14.612-.022-26.451-11.876-26.451-26.498C56.553 11.867 68.358 0 83.012 0h98.538C196.163.022 208 11.875 208 26.498c0 14.635-11.809 26.5-26.464 26.5L83.004 53zM0 26.5C0 11.864 11.86 0 26.492 0s26.492 11.864 26.492 26.5S41.124 53 26.492 53 0 41.136 0 26.5z"/><path d="M12.653 30.818l-4.148-12.59h-2.73l5.51 15.616h2.648l5.553-15.616h-2.645zm17.882-5.289c1.174-.696 1.835-1.884 1.835-3.342 0-1.423-.693-2.652-1.9-3.372-.97-.587-2.722-.587-4.129-.587h-5.733v15.616h7.552c2.408 0 4.845-1.578 4.845-4.594 0-1.815-.911-3.167-2.47-3.721zm-3.644-.809h-3.758v-4.283h3.758c1.825 0 2.956.356 2.956 2.131-.001 1.002-.337 2.152-2.956 2.152zm-3.758 2.209h4.329c2.003 0 3.018.76 3.018 2.258 0 1.51-.986 2.448-2.574 2.448h-4.773v-4.706zm13.887 4.706l9.085-11.366v-2.041H34.554v2.209h8.388l-9.05 11.294-.057.072v2.041h12.524v-2.209zm50.082-11.366v-2.041H75.551v2.209h8.387l-9.049 11.294-.056.072v2.041h12.523v-2.209h-9.339zm15.903 3.792v-1.667h-2.208v11.45h2.314v-5.122c0-2.878 1.139-4.162 3.695-4.162h.258v-2.411l-.25-.008c-1.677-.055-2.899.555-3.809 1.92zm5.568-5.833h2.313v2.716h-2.313zm0 4.166h2.313v11.45h-2.313zm-12.579 6.433c0 1.983-1.113 3.167-2.977 3.167-1.21 0-1.961-.743-1.961-1.94v-7.66h-2.314v7.448c0 2.863 1.316 4.255 4.022 4.255 1.425 0 2.544-.492 3.335-1.467v1.214h2.208v-11.45h-2.312v6.433zm-1.762-10.591h2.291v2.566h-2.291zm-3.705 0h2.29v2.566h-2.29zm57.828-.008h-2.524v15.616h10.517v-2.209h-7.993zm9.094 0h2.313v2.716h-2.313zm0 4.166h2.313v11.45h-2.313zm10.493-.253c-1.425 0-2.544.492-3.335 1.465v-1.212h-2.208v11.45h2.313V27.41c0-1.983 1.113-3.167 2.977-3.167 1.21 0 1.962.744 1.962 1.941v7.66h2.313v-7.449c.001-2.863-1.316-4.254-4.022-4.254zm6.578.253h2.314v11.45h-2.314zm0-4.166h2.314v2.716h-2.314zm14.959 10.44c.081-2.025-.545-3.937-1.674-5.112-.902-.939-2.09-1.415-3.531-1.415-3.126 0-5.396 2.5-5.395 5.954.12 3.814 2.125 6.002 5.5 6.002 2.626 0 4.422-1.432 4.926-3.929l.062-.31h-2.299l-.046.202c-.356 1.599-1.6 1.934-2.58 1.934-.977 0-1.753-.291-2.309-.865-.524-.542-.817-1.32-.838-2.213h8.173l.011-.248zm-5.311-4.425c1.506 0 2.674 1.066 2.868 2.571h-5.707c.201-1.321 1.125-2.571 2.839-2.571zm-51.141 2.132l-.112-.542.258-.523.429-.446.181-1.868h-10.109l.187 1.869.428.445.258.523-.113.542-.371.511c.146 1.475.279 2.813.281 2.854.149 1.958 1.442 4.257 4.387 4.26 2.904.003 4.293-2.269 4.436-4.189.058-.78.151-1.849.247-2.908l-.387-.528zm-4.197 7.09c-2.353 0-3.772-1.997-3.896-3.321-.073-.775-.21-2.333-.563-6.484l7.873 7.526c-.001 0-1.103 2.279-3.414 2.279z" fill="#FFF"/><path fill="#FFF" d="M124.795 25.428s-.085-.221-.354-.412c-.259-.183-.575-.152-.575-.152-.225.014-.387.092-.387.092s-.018.009-.024.009c-.012 0-.021-.005-.021-.005l-1.459-.868 2.131-3.309.024-.047s.139-.24.13-.562c0 0 .023-.186-.216-.523-.241-.339-.716-.489-1.173-.332-.463.153-.638.61-.62.903.011.208.092.402.092.402s.011.027.011.046c0 .021-.032.06-.032.06l-.858 1.221s-.218-.46-.729-.887c-.443-.37-.758-.508-.758-.508s-.012-.004-.017-.011v-.015l.021-.159c.003-.024.006-.095.006-.095s0-.037-.011-.051c-.012-.019-.084-.004-.084-.004s-.379.076-.981.057c-.319-.009-.504-.154-.561-.428-.08-.384-.055-.625-.055-.625s.004-.069.025-.092c.023-.022.102-.028.102-.028s.138-.016.189-.11c.039-.071.033-.19.033-.19s0-.053.026-.078c.024-.025.101-.024.101-.024l.625-.006s.066-.005.066.05c0 .056-.052.061-.052.061s-.403.04-.53.418c-.109.329.035.573.255.735.208.153.709.075.709.075l1.007-.115s.131-.009.154-.059a3.18 3.18 0 0 0 .055-.149l.074-.252s.012-.036-.002-.048c-.021-.021-.074-.006-.074-.006s-.409.062-.566.083c-.158.021-.577.068-.577.068s-.392.05-.519-.029c-.07-.042-.068-.161-.008-.201.068-.045.148-.041.148-.041l.259-.017s.074.002.079-.036l.006-.096-.001-.819s.006-.048-.021-.067c-.028-.019-.093-.011-.093-.011l-1.419.016s-.021.002-.032-.011c-.009-.012-.001-.035-.001-.035l.001-.087s-.001-.032-.019-.051c-.016-.015-.053-.006-.053-.006s-.134.022-.19.033c-.056.012-.17.037-.21.06-.01.006-.02.029-.031.092-.003.01-.007.025-.01.031-.008.015-.187.023-.187.023s-.206.006-.394.033c-.4.062-.737.146-1.064.336-.433.25-.803.618-.988 1.088-.171.433-.208.759-.116 1.222.068.334.288.747.759 1.062l3.103 2.061-1.275 4.004-.452-.614.648-1.958c.077-.229.177-.748.045-1.109-.194-.527-.688-.801-1.396-.801-.502 0-1.09.229-1.332.621s-.141.865-.031 1.101c.283.603.874 1.452 1.4 2.116.023.027.045.057.045.057a.02.02 0 0 1 .002.021l-.021.058-.316.859s-.017.037-.036.046c-.014.007-.065-.006-.065-.006s-.215-.041-.401.035a.566.566 0 0 0-.323.447.555.555 0 0 0 .111.427.586.586 0 0 0 .983-.101c.068-.135.131-.321.131-.321l.288-.833.035-.114.486.668c.007.009-.008.052-.013.072l-1.092 3.571s-.142.484-.104.77c.044.315.213.562.465.729.313.209.718.169.957.073a.98.98 0 0 0 .6-.899c0-.447-.309-.626-.309-.626l1.608-2.04s.018-.023.039-.023.042.026.042.026l2.769 3.2s.616.708 1.397.281c.529-.292.527-.858.473-1.074 0 0-.065-.395-.499-.641-.208-.116-.488-.093-.592-.078-.02.002-.045.017-.06.014-.018-.005-.035-.033-.046-.057l-2.085-4.051c-.092-.179-.214-.481-.44-.653-.153-.116-.414-.153-.411-.156l.988-1.725 2.127 1.294s.392.245.814.183c0 0 .258-.06.434-.181.195-.135.313-.373.313-.373s.094-.208.094-.472c0-.263-.114-.447-.114-.447zm-7.987 1.548l-.648-.885s-.414-.547-.561-1.029c-.146-.482.018-.681.281-.827.265-.145.78-.153 1.06-.085.278.071.494.241.494.591 0 .34-.123.751-.123.751l-.503 1.484zm6.135-6.33s-.168-.231-.103-.488c.063-.254.358-.393.657-.209.384.234.084.658.084.658l-1.78 2.774s-.013-.245-.033-.447c-.021-.203-.066-.399-.066-.399l1.241-1.889zm-2.604 7.397l2.493 4.68s.076-.101.153-.139c.095-.048.255-.137.476.003.188.117.211.345.16.506-.047.149-.213.279-.428.279-.216 0-.437-.274-.437-.274l-2.823-3.323s.076-.149.13-.273c.054-.123.131-.312.095-.596a.817.817 0 0 0-.317-.549.752.752 0 0 0-.313-.133l.296-.523s.019-.033.032-.033c.033 0 .041-.002.102.01a.31.31 0 0 1 .14.067.82.82 0 0 1 .241.298zm-1.601.471s-.032.043-.022.058c.013.015.062.005.09.002.07-.005.334-.028.471.067.139.096.29.282.278.558-.013.266-.45.843-.45.843l-1.868 2.454s.324.092.396.308c.054.163.022.423-.213.541a.426.426 0 0 1-.585-.216c-.075-.179.019-.538.019-.538l2.546-8.223 1.27.795-1.932 3.351zm5.41-2.238c-.27.198-.59-.001-.59-.001l-2.058-1.232-5.257-3.299c-.53-.333-.767-.772-.767-1.252 0-.582.323-1.025.81-1.32.71-.431 1.459-.365 1.459-.365l.034.598c.011.224.046.875.276 1.105.299.299.784.229 1.106.229.43 0 1.048.424 1.631 1.054.65.7.48 1.864.48 1.864l-1.312-.799-.18.526 3.708 2.225s.107-.099.25-.137c.139-.04.444-.048.561.217a.494.494 0 0 1-.151.587zm16.771 1.194c.526-.664 1.117-1.514 1.4-2.116.109-.236.212-.709-.031-1.101-.242-.391-.831-.621-1.332-.621-.707 0-1.2.274-1.395.801-.133.361-.033.88.045 1.109l.648 1.958-.453.614-1.275-4.004 3.102-2.061c.473-.315.692-.728.761-1.062.092-.462.055-.789-.116-1.222-.187-.471-.558-.838-.988-1.088-.328-.19-.664-.275-1.065-.336-.187-.027-.393-.033-.393-.033s-.18-.008-.187-.023a.113.113 0 0 1-.01-.031c-.012-.063-.021-.086-.031-.092a1.063 1.063 0 0 0-.21-.06c-.057-.011-.191-.033-.191-.033s-.037-.009-.053.006a.097.097 0 0 0-.019.051l.002.087s.007.022-.002.035c-.01.014-.031.011-.031.011l-1.42-.016s-.063-.007-.092.011c-.027.019-.021.067-.021.067l-.001.819s.002.057.006.096.079.036.079.036l.259.017s.079-.004.148.041c.061.04.061.158-.008.201-.127.079-.52.029-.52.029s-.418-.047-.576-.068c-.157-.02-.567-.083-.567-.083s-.054-.015-.074.006c-.013.013-.002.048-.002.048l.075.252s.042.125.055.149c.023.05.154.059.154.059l1.007.115s.499.078.708-.075c.22-.162.364-.406.255-.735-.127-.378-.529-.418-.529-.418s-.053-.005-.053-.061c0-.055.067-.05.067-.05l.624.006s.076-.001.1.024c.026.025.026.078.026.078s-.005.12.035.19c.052.095.189.11.189.11s.078.005.101.028.026.092.026.092.024.241-.055.625c-.058.274-.242.418-.562.428-.601.02-.98-.057-.98-.057s-.072-.015-.083.004c-.012.015-.012.051-.012.051s.003.071.007.095c.004.023.02.159.02.159v.015c-.005.007-.016.011-.016.011s-.314.139-.758.508c-.512.427-.73.887-.73.887l-.859-1.221s-.032-.039-.032-.06c0-.019.011-.046.011-.046s.082-.194.093-.402c.018-.293-.158-.75-.619-.903-.457-.158-.932-.008-1.174.332-.239.337-.215.523-.215.523-.009.322.13.562.13.562l.024.047 2.129 3.309-1.458.868s-.008.005-.02.005c-.008 0-.025-.009-.025-.009s-.161-.078-.386-.092c0 0-.317-.031-.575.152-.27.191-.354.412-.354.412s-.113.185-.113.449c0 .265.094.472.094.472s.117.238.313.373c.175.122.433.181.433.181.423.062.815-.183.815-.183l2.126-1.294.988 1.725c.003.003-.258.04-.41.156-.227.172-.35.475-.441.653l-2.084 4.051c-.011.023-.029.052-.046.057-.015.003-.04-.012-.06-.014-.104-.015-.384-.038-.592.078-.434.246-.5.641-.5.641-.054.216-.056.782.474 1.074.781.427 1.396-.281 1.396-.281l2.77-3.2s.021-.026.042-.026.038.023.038.023l1.608 2.04s-.308.179-.308.626c0 .504.36.805.6.899.239.096.644.136.957-.073.252-.168.421-.414.465-.729.037-.285-.104-.77-.104-.77l-1.092-3.571c-.005-.021-.02-.063-.014-.072l.487-.668.035.114.287.833s.063.187.132.321a.585.585 0 0 0 .982.101.551.551 0 0 0 .111-.427.568.568 0 0 0-.323-.447c-.188-.076-.401-.035-.401-.035s-.051.013-.064.006c-.02-.009-.036-.046-.036-.046l-.316-.859-.021-.058c-.004-.007-.003-.016.002-.021a.239.239 0 0 1 .042-.059zm-7.06-6.864s-.301-.423.083-.658c.3-.183.595-.045.657.209.066.256-.102.488-.102.488l1.241 1.888s-.047.196-.066.399c-.021.203-.033.447-.033.447l-1.78-2.773zm2.08 4.437l-2.057 1.232s-.321.199-.59.001a.497.497 0 0 1-.152-.588c.115-.265.422-.257.56-.217.143.038.251.137.251.137l3.708-2.225-.18-.526-1.313.799s-.169-1.164.481-1.864c.583-.629 1.201-1.054 1.629-1.054.323 0 .809.069 1.107-.229.231-.23.266-.881.277-1.105.011-.222.033-.598.033-.598s.75-.065 1.459.365c.485.295.81.738.81 1.32 0 .48-.236.918-.766 1.252l-5.257 3.3zm1.662 3.313a.818.818 0 0 0-.318.549 1.06 1.06 0 0 0 .095.596c.054.124.131.273.131.273l-2.824 3.323s-.221.274-.437.274c-.215 0-.381-.13-.427-.279-.051-.161-.027-.389.159-.506.221-.14.382-.051.476-.003.078.038.154.139.154.139l2.493-4.68a.814.814 0 0 1 .242-.299.295.295 0 0 1 .14-.067c.06-.012.068-.01.102-.01.014 0 .031.033.031.033l.297.523c-.001.002-.186.03-.314.134zm2.988 4.234s.094.359.018.538a.425.425 0 0 1-.584.216c-.236-.118-.267-.378-.213-.541.071-.216.396-.308.396-.308l-1.87-2.454s-.437-.577-.448-.843c-.013-.275.14-.462.276-.558s.401-.072.471-.067c.028.003.078.013.09-.002.011-.015-.021-.058-.021-.058l-1.929-3.351 1.27-.795 2.544 8.223zm.045-5.614l-.503-1.484s-.124-.412-.124-.751c0-.35.216-.52.494-.591.279-.068.796-.06 1.059.085.264.146.427.345.281.827-.146.482-.559 1.029-.559 1.029l-.648.885z" fill-rule="evenodd" clip-rule="evenodd"/><path fill="#FFF" d="M123.894 18.244l.348 4.089h8.984l.38-4.089h-9.712zm8.847 3.64h-8.015l-.211-3.17h.766c.021.252.094 1.157.102 1.21a.46.46 0 0 0 .502.385c.396-.016.503-.326.493-.486-.004-.061-.072-.872-.093-1.109h.965c.008.247.033 1.121.037 1.176a.46.46 0 0 0 .499.419.466.466 0 0 0 .496-.452l-.028-1.143h.959l-.028 1.143c0 .142.105.447.496.452a.46.46 0 0 0 .499-.419c.004-.056.029-.929.037-1.176h.965c-.021.237-.089 1.048-.093 1.109-.01.16.098.47.493.486a.458.458 0 0 0 .501-.385c.008-.053.082-.958.102-1.21h.82l-.264 3.17z"/></svg>