<svg xmlns="http://www.w3.org/2000/svg" width="133" height="53" viewBox="0 0 133 53"><path d="M31.121 48.465h5.64c-.457-3.188-.457-6.005-.457-9.732v-20.46C36.302 6.184 31.485 1 20.028 1 15.935 1 9.935 2.455 6.39 4.184v5.545c4.272-2.726 8.817-3.821 13.639-3.821 7.728 0 10.546 4.004 10.546 11.916v2.36h-1.091c-12 0-28.551.728-28.551 16.273 0 4.182 2.092 13.093 15.273 13.093 5.729 0 12.186-2.997 14.732-8.547h.183v7.462zm-.547-20.547c0 4.994-.271 16.725-13.728 16.725-5.274 0-9.64-2.271-9.64-8.365 0-10.184 11.817-11.185 21.729-11.185h1.638v2.825h.001zm17.123-2.643c0 12.638 6.641 24.275 21.642 24.275 15.004 0 21.645-11.638 21.645-24.275C90.981 12.641 84.343 1 69.339 1 54.338 1 47.697 12.641 47.697 25.275zm6.275 0c0-10.729 5.365-19.368 15.367-19.368s15.363 8.64 15.363 19.368-5.361 19.367-15.363 19.367-15.367-8.638-15.367-19.367zm43.541 23.19h34.552V43.55h-27.914l27.914-36.547V2.092H98.61v4.911h26.815L97.513 43.645z" fill="#A51A0F"/></svg>