<svg xmlns="http://www.w3.org/2000/svg" width="148.819" height="26.779" viewBox="0 0 148.81876 26.778749"><defs><clipPath id="a"><path d="M0 21.423h119.04V0H0v21.423z"/></clipPath></defs><path d="M17.679 2.649h.467c1.544 0 4.469-.274 4.469-1.313C22.615.295 19.69.02 18.146.02h-.467c-1.545 0-4.466.275-4.466 1.316 0 1.039 2.92 1.313 4.466 1.313m-.003 5.302h.47c2.151 0 4.468-.412 4.468-1.316 0-1.039-2.923-1.316-4.468-1.316h-.47c-1.543 0-4.465.277-4.465 1.316 0 .904 2.313 1.316 4.465 1.316m.472 2.668h-.472c-2.151 0-4.466.413-4.466 1.316 0 .904 2.315 1.315 4.466 1.315h.472c1.543 0 4.466-.275 4.466-1.315 0-.903-2.315-1.316-4.467-1.316" fill="#0092cf"/><path d="M71.205 26.779c-.981 0-1.779-.263-2.427-.664l.14-.7c.657.43 1.384.664 2.287.664 1.355 0 2.047-.664 2.047-1.768 0-2.292-4.383-1.287-4.383-4.1 0-1.288.816-2.267 2.653-2.267.833 0 1.583.17 2.185.458l-.134.667c-.65-.27-1.276-.43-2.016-.43-1.413 0-1.972.717-1.972 1.528 0 2.174 4.399 1.147 4.399 4.1 0 1.558-.96 2.512-2.779 2.512m7.282-7.967v7.812h-.748v-7.812H75.06l.024-.73h6.079l.01.73h-2.685m5.781.705l-1.516 4.179h3.625l-1.492-4.179-.285-.878h-.038l-.294.878zm2.347 4.85h-4.11l-.811 2.255h-.809l3.245-8.54h.888l3.245 8.54h-.84l-.808-2.254m5.701-5.557H90.3v7.096h2.029c1.879 0 2.811-.768 2.811-3.589 0-2.699-.844-3.507-2.822-3.507m.028 7.811h-2.795v-8.54h2.788c2.517 0 3.587 1.203 3.587 4.236 0 3.12-1.152 4.304-3.58 4.304m7.792-7.81v7.812h-.756v-7.812h-2.67l.02-.73h6.082l.01.73h-2.686m7.774 7.81v-.515l4.28-6.546.513-.74-.013-.025h-4.632l.034-.714h5.521v.587l-4.249 6.47-.507.729.01.038h4.756l-.031.716h-5.682m11.843-9.199c-.259 0-.398-.116-.398-.421 0-.275.14-.423.398-.423.265 0 .39.148.39.423 0 .282-.125.42-.39.42m-2.136 0c-.263 0-.4-.115-.4-.42 0-.275.137-.423.4-.423.26 0 .387.148.387.423 0 .282-.127.42-.387.42m4.211 6.114c0 2.289-1.161 3.243-3.143 3.243-1.99 0-3.155-.954-3.155-3.243V18.08h.755v5.455c0 1.752.795 2.514 2.4 2.514 1.595 0 2.392-.78 2.392-2.514V18.08h.751v5.455m4.962-4.78h-2.015v3.414h1.948c1.242 0 1.795-.499 1.795-1.742 0-1.197-.529-1.672-1.728-1.672m.685 3.891l2.382 3.977h-.914l-2.184-3.837h-1.984v3.837h-.75V18.08h2.765c1.72 0 2.505.75 2.505 2.312 0 1.389-.635 2.117-1.82 2.253m4.444 3.977h.75v-8.539h-.75v8.54zm8.198-7.575c-.465-.215-1.151-.385-1.855-.385-1.946 0-2.855.887-2.855 3.6 0 2.89.922 3.801 2.89 3.801a3.86 3.86 0 0 0 1.844-.445l.123.65c-.51.271-1.298.51-2.06.51-2.482 0-3.573-1.376-3.573-4.515 0-2.995 1.116-4.32 3.596-4.32.717 0 1.551.197 1.991.411l-.101.693m7.146 7.575V22.51h-4.612v4.112h-.752v-8.54h.751v3.723h4.613v-3.723h.75v8.54h-.75M5.343 2.459c-1.147 0-2.055.467-2.608 1.251v5.915c.446.721 1.272 1.294 2.524 1.294 1.696 0 2.86-.805 2.86-4.347 0-3.243-.91-4.113-2.776-4.113m.595 10.771c-1.21 0-2.334-.298-3.181-1.188l-.065.02.043 1.72v2.415H0V.17h2.437l.002 1.229C3.35.53 4.622.02 6.042.02c3.14 0 4.856 1.674 4.856 6.572 0 4.602-1.93 6.638-4.96 6.638m27.263-.233V4.75c0-1.612-.868-2.288-2.438-2.288-.954 0-2.014.424-2.544 1.164v9.372h-2.691V.171h2.353L27.88 1.38C28.834.488 30.129 0 31.505 0c2.692 0 4.387 1.634 4.387 4.729v8.269h-2.69m9.05.252c-1.527 0-2.903-.316-3.963-.954l.317-2.29c.997.658 2.48.999 3.647.999 1.547 0 2.205-.7 2.205-1.634 0-2.417-6.213-1.166-6.213-5.576 0-2.226 1.549-3.774 4.664-3.774a8.79 8.79 0 0 1 3.541.721l-.234 2.248c-1.057-.446-2.375-.658-3.348-.658-1.272 0-2.037.508-2.037 1.357 0 2.248 6.128.996 6.128 5.427 0 2.48-1.399 4.134-4.707 4.134m7.462-.254h2.736V.17h-2.736v12.826zm11.189-1.971c2.1 0 2.885-1.018 2.885-4.368 0-3.35-.785-4.367-2.885-4.367-2.12 0-2.927 1.016-2.927 4.367 0 3.35.828 4.368 2.927 4.368m0 2.267c-3.943 0-5.724-1.907-5.724-6.635C55.179 1.95 56.96 0 60.902 0c3.967 0 5.66 1.949 5.66 6.657 0 4.728-1.693 6.635-5.66 6.635m15.883-.295V4.75c0-1.612-.869-2.288-2.436-2.288-.955 0-2.017.424-2.547 1.164v9.372H69.11V.171h2.355V1.38C72.418.488 73.711 0 75.09 0c2.69 0 4.385 1.634 4.385 4.729v8.269h-2.69m9.051.252c-1.527 0-2.904-.316-3.964-.954l.317-2.29c.997.658 2.481.999 3.647.999 1.546 0 2.206-.7 2.206-1.634 0-2.417-6.215-1.166-6.215-5.576 0-2.226 1.55-3.774 4.664-3.774a8.78 8.78 0 0 1 3.543.721L89.8 2.99c-1.059-.446-2.373-.658-3.351-.658-1.27 0-2.033.508-2.033 1.357 0 2.248 6.128.996 6.128 5.427 0 2.48-1.399 4.134-4.708 4.134m26.479-5.873c-.319-.148-1.104-.36-2.161-.36-1.74 0-2.523.7-2.523 1.994 0 1.484.888 2.014 2.138 2.014 1.336 0 2.546-.849 2.546-1.781V7.377zm.381 4.263l-.064-.023c-.785.997-2.077 1.59-3.605 1.59-2.373 0-3.943-1.315-3.943-4.155 0-2.396 1.611-3.942 4.581-3.942a8.77 8.77 0 0 1 2.65.404v-.957c0-1.59-.762-2.225-2.67-2.225-1.379 0-2.376.212-3.542.72L105.87.826c1.251-.551 2.671-.825 4.261-.825 3.564 0 4.854 1.525 4.854 4.959v8.036h-2.055l-.234-1.356m8.88 1.61c-1.527 0-2.904-.316-3.964-.954l.318-2.29c.996.658 2.48.999 3.646.999 1.548 0 2.205-.7 2.205-1.634 0-2.417-6.212-1.166-6.212-5.576 0-2.226 1.548-3.774 4.665-3.774a8.8 8.8 0 0 1 3.541.721l-.233 2.248c-1.062-.446-2.375-.658-3.353-.658-1.269 0-2.033.508-2.033 1.357 0 2.248 6.128.996 6.128 5.427 0 2.48-1.4 4.134-4.708 4.134m10.263 0c-1.528 0-2.906-.316-3.965-.954l.316-2.29c.996.658 2.484.999 3.649.999 1.546 0 2.202-.7 2.202-1.634 0-2.417-6.21-1.166-6.21-5.576 0-2.226 1.546-3.774 4.663-3.774 1.272 0 2.48.254 3.542.721l-.234 2.248c-1.06-.446-2.373-.658-3.35-.658-1.27 0-2.036.508-2.036 1.357 0 2.248 6.129.996 6.129 5.427 0 2.48-1.402 4.134-4.706 4.134" fill="#5f6062"/><g clip-path="url(#a)" transform="matrix(1.25 0 0 -1.25 0 26.779)"><path d="M117.07 17.098c-.034 1.798-.847 2.476-2.119 2.476-1.477 0-2.104-.746-2.205-2.476h4.324zm-6.513-.78c0 3.239 1.424 5.088 4.377 5.088 2.509 0 4.121-1.475 4.121-4.732 0-.323-.017-.729-.053-1.034h-6.207c.103-2.138 1.002-2.884 2.951-2.884 1.003 0 1.884.187 2.748.559l.256-1.78c-.866-.424-1.986-.695-3.256-.695-3.445 0-4.937 1.813-4.937 5.478" fill="#5f6062"/></g><path d="M95.694 4.966h1.431l3.538-4.795h3.076L99.45 5.99l4.383 7.006h-3.098l-3.61-5.766h-1.431v5.767h-2.715V.171h2.715v4.795" fill="#5f6062"/></svg>