<svg width="157" height="27" viewBox="0 0 157 27" xmlns="http://www.w3.org/2000/svg" xmlns:xlink="http://www.w3.org/1999/xlink"><title>Page 1</title><defs><path id="a" d="M156.616 0v26.694H0V0h156.616z"/></defs><g fill="none" fill-rule="evenodd"><mask id="b" fill="#fff"><use xlink:href="#a"/></mask><path d="M36.174 14.496l-.601-2.325c-.232-.894.068-1.768.837-1.84.612-.06 1.104.59 1.104 1.16 0 1.143-.662 2.082-.916 2.446-.066.09-.224.3-.424.56zm-.164 10.14a.871.871 0 0 1 .023.222c0 .388-.297.692-.74.692-.44 0-.685-.403-.685-.692 0-.394.3-.74.722-.727h.04l-.398-.623-.12-.188-1.135-1.787-.238-.368-.742-1.158s-.129-.212-.192-.405l-.002-.013a.382.382 0 0 1-.023-.088.137.137 0 0 0-.015-.048.974.974 0 0 1 .96-1.143c.18 0 .347.048.493.13l-.119-.267-2.823-6.138 1.414-1.05 3.58 13.652zm-6.669-.508l-.117.173-.409.572s-.306.396-.432.506a.706.706 0 0 1-.49.198.709.709 0 0 1-.704-.708c0-.395.315-.713.704-.713.256 0 .456.096.578.247l.049.073.233-.669.027-.073c.628-1.776 2.157-6.13 2.228-6.303.083-.223.285-.593.74-.69.289-.06.449-.005.525.04l.467 1.003c-.688 0-1.25.57-1.25 1.42 0 .358.198.786.473 1.222l-2.622 3.702zm.326-12.164l-.725.538-1.174.87a.8.8 0 0 1-.626.103c-.33-.087-.618-.42-.624-.713-.016-.413.235-.809.77-.798l.01.004a.853.853 0 0 1 .55.217l.721-.534.31-.224 3.042-2.253-.228-.963-1.582 1.191a4.225 4.225 0 0 1 .396-2.863c.224-.402.807-1.311 1.89-1.865.195-.101.389-.18.558-.245.328.015.673.024.96.015.835-.02 1.141-.525 1.219-.855.056-.206.134-.706.16-1.364.009-.226.01-.522.009-.822 1.111.347 2.127 1.493 2.226 2.763.118 1.558-.73 2.495-1.352 2.958l-6.51 4.84zM10.933 8.229l.275 2.805a1.506 1.506 0 0 0-.441.094l-1.35-1.016 2.9-6.24.27 3.2H26l.266-3.2 2.908 6.24-1.353 1.016a1.524 1.524 0 0 0-.441-.094l.272-2.805h-16.72zm15.377 3.024c-.45.304-.746.82-.746 1.403 0 .489.202.933.528 1.238l-.064.754-.136 1.693-.279 3.382a6.228 6.228 0 0 1-.286 1.49L12.801 9.166h13.68l-.171 2.086zM13.638 22.13a9.39 9.39 0 0 1-.299-.841h10.566l.874.841h-11.14zm9.976 1.794h-8.806a5.338 5.338 0 0 1-.676-.845h10.216c-.196.26-.427.542-.734.845zm-4.269 1.895c-1.068 0-2.22-.214-3.404-.943h6.65c-.822.564-2.173.943-3.246.943zm-6.392-6.324h9.088l.876.84h-9.811c-.06-.27-.106-.553-.153-.84zm-.215-1.79h7.443l.874.84h-8.231c-.031-.278-.066-.557-.086-.84zm-.133-1.796h5.715l.874.841h-6.529l-.06-.84zm-.129-1.785h3.979l.876.842h-4.793c-.019-.282-.042-.575-.062-.842zm.552-1.794h1.566l.873.836h-2.469a1.55 1.55 0 0 0 .08-.475 1.54 1.54 0 0 0-.05-.36zm-.753-1.03a31.39 31.39 0 0 1-.178-1.538l1.51 1.613h-1.242c-.03-.024-.056-.06-.09-.075zm-.83 2.175a.56.56 0 0 1-.174.025.806.806 0 0 1-.453-.128l-1.173-.87-.726-.538-6.51-4.84C1.791 6.66.94 5.724 1.061 4.166c.098-1.27 1.114-2.416 2.223-2.763 0 .3 0 .596.01.822.028.658.106 1.158.16 1.364.077.33.382.835 1.22.855.288.01.631 0 .956-.015a5.3 5.3 0 0 1 .562.245c1.082.554 1.664 1.463 1.888 1.865a4.174 4.174 0 0 1 .392 2.863L6.895 8.211l-.23.963 3.043 2.253.311.224.72.534a.852.852 0 0 1 .55-.217l.01-.004c.536-.01.788.385.775.798-.01.293-.3.626-.628.713zm-6.698 4.698l-.12.267c.146-.082.316-.13.496-.13a.972.972 0 0 1 .924 1.279l-.005.013c-.062.193-.192.405-.192.405l-.742 1.158-.236.368-1.137 1.787-.116.188-.404.623h.043c.422-.012.72.333.72.727 0 .289-.243.692-.679.692-.447 0-.74-.304-.74-.692 0-.038-.005-.144.018-.221L6.16 10.984l1.41 1.051-2.822 6.138zm2.092-1.432c.455.097.659.467.743.69.069.173 1.597 4.527 2.224 6.303l.025.073.235.669.049-.073c.123-.151.322-.247.578-.247.39 0 .706.318.706.713a.709.709 0 0 1-.706.708.72.72 0 0 1-.493-.198c-.123-.11-.425-.506-.425-.506l-.412-.572-.117-.173-2.623-3.702c.275-.436.475-.864.475-1.221 0-.851-.565-1.421-1.25-1.421l.466-1.003c.078-.045.237-.1.525-.04zm3.654-12.905a.725.725 0 0 1-.356-.625c0-.368.344-.726.716-.726.397 0 .719.326.719.726a.783.783 0 0 1-.085.349l-2.12 4.614c-.015-.124-.044-.31-.087-.582a4.549 4.549 0 0 0-.264-.888l1.477-2.868zm3.18-2.666l.054 1.16h.667l-.054-1.16h.68l.082 1.798h-2l-.114-1.798h.685zm1.5 3.384h-1.97l-.06-.933h1.985l.045.933zm1.12-3.384l.04 1.16h.659l-.04-1.16h.646l.036 1.798h-1.867l-.06-1.798h.586zm1.376 3.384h-1.847l-.033-.933h1.86l.02.933zm1.267-3.384l.004 1.16h.714V1.17h.619l-.025 1.798h-1.91l-.025-1.798h.623zm2.002 2.451h1.863l-.038.933h-1.846l.021-.933zm.054-2.451h.644l-.04 1.16h.66l.04-1.16h.584l-.058 1.798h-1.87l.04-1.798zm-2.646 2.45h1.895l-.013.933h-1.87l-.012-.933zm.832 1.588h6.166l-.073 1.154H13.316l-.07-1.154h5.932zm4.278-1.588h1.988l-.059.933h-1.971l.042-.933zm.11-2.451h.681l-.052 1.16h.665l.054-1.16h.686l-.116 1.798h-1.996l.079-1.798zm4.169 1.315c.373 0 .714.358.714.726a.72.72 0 0 1-.355.625l1.476 2.868c-.122.31-.214.614-.261.888-.046.272-.073.458-.09.582L27.1 3.56a.766.766 0 0 1-.084-.35c0-.399.322-.725.719-.725zM3.016 12.17l-.604 2.325c-.198-.259-.355-.47-.421-.56-.255-.363-.915-1.302-.915-2.446 0-.569.488-1.218 1.1-1.16.769.073 1.072.947.84 1.84zm34.237 5.224c-.09.002-.184.018-.274.045l-.464-1.68.239-.303c.707-.927 1.132-1.461 1.45-2.07.49-.941.426-1.867.267-2.452-.355-1.323-1.397-1.639-2.018-1.605-.929.043-1.495.56-1.735 1.147-.254.64-.21 1.3-.093 1.773l.814 3.246c-.249.323-.466.661-.616.855l-1.542-6.013 3.448-2.542c1.974-1.452 1.96-3.785 1.315-5.048-.617-1.206-1.489-1.813-2.246-2.092a3.954 3.954 0 0 0-.516-.164c-.005-.102-.006-.176-.009-.21-.016-.156-.2-.229-.356-.26-.355-.077-.453.073-.453.124l-.013.21c-.841-.09-2.637-.083-2.637-.083l.003.494V2l.715.082c.066.003.16.078.158.204-.001.134-.104.21-.205.236a.45.45 0 0 1-.162.026h-.008l-2.204-.243.271.837c.856.095 1.533.154 2.027.179a.256.256 0 0 0 .07.006c.575 0 1.038-.465 1.038-1.041a1.04 1.04 0 0 0-.985-1.039v-.204c.298.007.659.02 1.055.058.039.146.114.33.275.495.173.181.355.32.514.426l-.007.257s.02.424-.02.781c-.038.35-.247.62-1.023.648-.738.026-1.645-.118-1.645-.118l.049.546c-.298.164-.594.411-.975.75a4.18 4.18 0 0 0-.716.894l-.929-1.79a1.6 1.6 0 0 0 .314-.942c0-.881-.812-1.596-1.661-1.596a1.67 1.67 0 0 0-1.346.646l.142-1.68H12.03l.14 1.68a1.663 1.663 0 0 0-1.345-.646c-.849 0-1.66.715-1.66 1.596 0 .35.119.674.317.942L8.55 5.78a4.119 4.119 0 0 0-.718-.896c-.381-.338-.678-.585-.977-.749l.051-.546s-.907.144-1.644.118c-.775-.028-.986-.298-1.026-.648-.038-.357-.014-.78-.014-.78l-.01-.258c.16-.105.342-.245.515-.426.158-.165.236-.349.272-.495.399-.039.76-.05 1.058-.058v.204a1.04 1.04 0 0 0 .053 2.08c.022 0 .043 0 .066-.006a34.53 34.53 0 0 0 2.03-.179l.266-.837-2.2.243h-.01a.452.452 0 0 1-.161-.026c-.1-.027-.203-.102-.203-.236-.002-.126.092-.201.159-.204l.714-.082V.767l.006-.494S4.98.265 4.134.355l-.01-.209c0-.051-.099-.201-.452-.125-.158.032-.342.105-.355.26-.003.035-.004.11-.012.211-.141.032-.289.08-.516.164-.757.279-1.629.886-2.24 2.092A4.068 4.068 0 0 0 1.86 7.796l3.446 2.542-1.545 6.013c-.146-.194-.362-.532-.613-.855l.812-3.246c.118-.474.162-1.133-.092-1.773-.238-.586-.803-1.104-1.736-1.147C1.51 9.296.47 9.612.115 10.935a3.414 3.414 0 0 0 .268 2.453c.318.608.741 1.142 1.45 2.069l.237.303-.462 1.68a1.055 1.055 0 0 0-.277-.045.937.937 0 0 0-.984.936.98.98 0 0 0 .984.982.97.97 0 0 0 .829-.456c.149-.225.288-.802.45-1.358l.217-.753.637.828c-.396 1.487-1.844 6.928-1.865 7.013-.248 1.059.698 1.974 1.683 1.969.873-.01 1.715-.717 1.678-1.698-.017-.466-.202-.808-.493-1.028l1.602-2.536 3.015 4.265c.235.338.421.492.452.519.305.304.725.499 1.196.499.836 0 1.701-.757 1.701-1.68 0-.935-.735-1.718-1.705-1.545a.497.497 0 0 1-.074.013l-2.132-6.097c-.17-.461-.41-.82-.623-1.02-.31-.295-.76-.292-.94-.281a1.54 1.54 0 0 0-.289.05l1.598-3.453 2.002 1.503a1.697 1.697 0 0 0 1.268.37l.553 5.67a7.175 7.175 0 0 0 2.47 4.756v.013h.014a7.24 7.24 0 0 0 4.717 1.753c3.77 0 6.86-2.843 7.2-6.521l.556-5.671a1.724 1.724 0 0 0 1.27-.37l2-1.503 1.6 3.452a1.695 1.695 0 0 0-.29-.05c-.182-.01-.628-.013-.94.283-.216.198-.45.558-.621 1.02l-2.134 6.096a.47.47 0 0 1-.073-.013c-.97-.173-1.705.61-1.705 1.545 0 .923.863 1.68 1.702 1.68.468 0 .888-.195 1.193-.5.032-.026.216-.18.455-.518l3.018-4.265 1.596 2.536c-.292.22-.475.562-.49 1.028-.036.981.807 1.688 1.677 1.698.982.005 1.933-.91 1.681-1.969-.017-.085-1.47-5.526-1.867-7.013l.64-.828.215.753c.163.556.3 1.133.451 1.358a.98.98 0 0 0 .827.456.98.98 0 0 0 .986-.982.937.937 0 0 0-.986-.936zm106.483-1.16h.905v4.117h.03c.33-.89 1.318-1.49 2.365-1.49 2.081 0 2.712 1.089 2.712 2.853v4.764h-.903v-4.621c0-1.277-.417-2.237-1.881-2.237-1.434 0-2.294 1.09-2.323 2.539v4.32h-.905V16.234zM141.24 21.4c-.244-1.106-.917-1.78-2.094-1.78-1.737 0-2.597 1.579-2.597 3.157s.86 3.156 2.597 3.156c1.119 0 2.038-.875 2.152-2.11h.905c-.245 1.78-1.407 2.87-3.057 2.87-2.267 0-3.5-1.793-3.5-3.916s1.233-3.916 3.5-3.916c1.578 0 2.798.846 2.999 2.539h-.905zm-8.147 5.08h.904v-7.404h-.904v7.403zm0-8.796h.904v-1.449h-.904v1.45zm-4.82 1.392h.831v1.735h.029c.459-1.19 1.462-1.893 2.796-1.836v.903c-1.634-.086-2.753 1.12-2.753 2.655v3.946h-.904v-7.403zm-4.22-1.278h.978V16.35h-.977v1.45zm-2.538 0h.977V16.35h-.977v1.45zm4.762 8.681h-.832v-1.335h-.028c-.474.99-1.448 1.55-2.552 1.55-1.867 0-2.598-1.091-2.598-2.813v-4.805h.904v4.82c.043 1.334.545 2.037 1.98 2.037 1.55 0 2.223-1.463 2.223-2.97v-3.887h.903v7.403zM111.43 16.235h7.374v.86l-6.742 8.552h6.887v.832h-7.978v-.861l6.743-8.55h-6.284v-.833zm-7.043 2.84h1.507v.76h-1.507v4.994c0 .587.087.932.731.975.258 0 .518-.015.776-.043v.774c-.273 0-.53.029-.804.029-1.205 0-1.623-.402-1.608-1.664v-5.065h-1.29v-.76h1.29v-2.224h.905v2.225zm-6.945 6.858c1.923 0 2.598-1.622 2.598-3.156 0-1.535-.675-3.156-2.598-3.156-1.72 0-2.423 1.62-2.423 3.156 0 1.534.703 3.156 2.423 3.156zm3.503.546h-.832v-1.406h-.03c-.388.96-1.563 1.62-2.64 1.62-2.252 0-3.327-1.822-3.327-3.916 0-2.095 1.075-3.916 3.326-3.916 1.106 0 2.182.558 2.569 1.621h.03v-4.247h.904V26.48zm-9.513-4.047h-.03c-.113.215-.515.287-.759.33-1.535.272-3.443.259-3.443 1.708 0 .905.804 1.463 1.65 1.463 1.377 0 2.596-.875 2.582-2.324v-1.177zm-4.82-1.09c.086-1.736 1.306-2.48 2.998-2.48 1.306 0 2.727.4 2.727 2.38v3.93c0 .345.17.545.53.545.1 0 .214-.028.287-.056v.76c-.2.043-.345.058-.59.058-.916 0-1.06-.518-1.06-1.292h-.029c-.63.962-1.276 1.507-2.697 1.507-1.362 0-2.481-.675-2.481-2.166 0-2.081 2.022-2.154 3.974-2.383.745-.085 1.161-.185 1.161-1.004 0-1.218-.875-1.52-1.938-1.52-1.117 0-1.95.516-1.977 1.721h-.905zM83.6 19.076h1.505v.76H83.6v4.993c0 .587.085.932.73.975.26 0 .518-.015.775-.043v.774c-.272 0-.53.029-.802.029-1.205 0-1.621-.402-1.606-1.664v-5.065h-1.293v-.76h1.293v-2.224h.903v2.225zm-10.129 4.03c-.043 2.109 1.478 2.756 3.343 2.756 1.076 0 2.712-.59 2.712-2.081 0-1.161-1.164-1.621-2.11-1.85l-2.281-.56c-1.205-.302-2.31-.875-2.31-2.468 0-1.004.646-2.884 3.53-2.884 2.022 0 3.801 1.091 3.787 3.186h-.975c-.057-1.565-1.35-2.354-2.797-2.354-1.334 0-2.569.517-2.569 2.037 0 .962.717 1.363 1.549 1.565l2.497.616c1.45.387 2.654 1.02 2.654 2.697 0 .704-.287 2.928-3.917 2.928-2.425 0-4.204-1.091-4.088-3.587h.975zm-9.712-4.03h.832v1.735h.03c.458-1.19 1.462-1.893 2.796-1.836v.903c-1.636-.086-2.755 1.12-2.755 2.655v3.946h-.903v-7.403zm-2.41 3.184c-.043-1.362-.89-2.64-2.353-2.64-1.477 0-2.296 1.292-2.44 2.64h4.793zm-4.792.761c.014 1.32.703 2.912 2.44 2.912 1.318 0 2.036-.776 2.323-1.895h.903c-.386 1.679-1.363 2.656-3.227 2.656-2.353 0-3.342-1.81-3.342-3.917 0-1.951.989-3.916 3.342-3.916 2.38 0 3.328 2.079 3.257 4.16h-5.696zm-6.04 2.912c1.923 0 2.598-1.622 2.598-3.156 0-1.535-.675-3.156-2.598-3.156-1.722 0-2.425 1.62-2.425 3.156 0 1.534.703 3.156 2.425 3.156zm3.5.546h-.831v-1.406h-.028c-.388.96-1.565 1.62-2.641 1.62-2.252 0-3.328-1.822-3.328-3.916 0-2.095 1.076-3.916 3.328-3.916 1.106 0 2.18.558 2.568 1.621h.03v-4.247h.903V26.48zm96.59-23.185h.904v1.278h.03c.33-.89 1.318-1.493 2.365-1.493 2.081 0 2.712 1.091 2.712 2.856v4.762h-.903V6.078c0-1.277-.417-2.238-1.879-2.238-1.436 0-2.296 1.09-2.325 2.539v4.318h-.905V3.294zM148.21 6.48c-.043-1.364-.89-2.64-2.352-2.64-1.478 0-2.296 1.291-2.438 2.64h4.79zm-4.79.76c.013 1.32.701 2.912 2.438 2.912 1.32 0 2.037-.774 2.324-1.893h.904c-.389 1.679-1.363 2.653-3.228 2.653-2.354 0-3.343-1.808-3.343-3.916 0-1.95.99-3.917 3.343-3.917 2.382 0 3.329 2.08 3.257 4.16h-5.695zm-12.77-3.946h.832v1.25h.045c.472-.89 1.246-1.465 2.423-1.465.977 0 1.85.474 2.123 1.45.445-.976 1.378-1.45 2.353-1.45 1.621 0 2.453.847 2.453 2.597v5.021h-.904V5.72c0-1.22-.458-1.879-1.748-1.879-1.565 0-2.01 1.291-2.01 2.668v4.19h-.904V5.675c.015-1.004-.4-1.836-1.548-1.836-1.565 0-2.196 1.176-2.21 2.726v4.131h-.905V3.294zm-8.005-2.84h.904v4.118h.03c.33-.89 1.319-1.493 2.365-1.493 2.082 0 2.712 1.091 2.712 2.856v4.762h-.903V6.078c0-1.277-.417-2.238-1.878-2.238-1.436 0-2.296 1.09-2.326 2.539v4.318h-.904V.455zm-2.396 6.026c-.043-1.364-.89-2.64-2.352-2.64-1.477 0-2.296 1.291-2.438 2.64h4.79zm-4.79.76c.015 1.32.702 2.912 2.438 2.912 1.32 0 2.037-.774 2.324-1.893h.905c-.388 1.679-1.364 2.653-3.229 2.653-2.354 0-3.343-1.808-3.343-3.916 0-1.95.99-3.917 3.343-3.917 2.382 0 3.33 2.08 3.257 4.16h-5.695zm-8.536-3.946h.905v1.278h.026c.33-.89 1.32-1.493 2.369-1.493 2.078 0 2.71 1.091 2.71 2.856v4.762h-.904V6.078c0-1.277-.415-2.238-1.879-2.238-1.434 0-2.296 1.09-2.322 2.539v4.318h-.905V3.294zm-5.048 0h.832V5.03h.03c.457-1.19 1.462-1.893 2.796-1.835v.903c-1.634-.086-2.754 1.119-2.754 2.654v3.945h-.904V3.294zm-2.41 3.186c-.043-1.364-.89-2.64-2.352-2.64-1.48 0-2.296 1.291-2.439 2.64h4.791zm-4.79.76c.012 1.32.701 2.912 2.438 2.912 1.319 0 2.037-.774 2.324-1.893h.903c-.388 1.679-1.362 2.653-3.227 2.653-2.354 0-3.343-1.808-3.343-3.916 0-1.95.989-3.917 3.343-3.917 2.382 0 3.329 2.08 3.256 4.16h-5.695zm-3.63-3.946h1.505v.76h-1.505v4.993c0 .589.086.932.731.977.258 0 .515-.015.774-.045v.776c-.272 0-.531.028-.803.028-1.204 0-1.621-.401-1.607-1.664V4.055h-1.29v-.761h1.29V1.071h.905v2.223zm-9.44 0h.903v1.278h.03c.33-.89 1.318-1.493 2.366-1.493 2.08 0 2.71 1.091 2.71 2.856v4.762h-.902V6.078c0-1.277-.416-2.238-1.88-2.238-1.435 0-2.295 1.09-2.324 2.539v4.318h-.903V3.294zM71.577.454h.975v6.341c-.015 2.382 1.12 3.285 2.998 3.285 1.893 0 3.027-.903 3.013-3.285V.455h.975V7.01c0 2.11-1.132 3.902-3.988 3.902-2.84 0-3.973-1.793-3.973-3.902V.455zm-12.352 2.84h.903v1.278h.03c.33-.89 1.318-1.493 2.366-1.493 2.08 0 2.711 1.091 2.711 2.856v4.762h-.903V6.078c0-1.277-.416-2.238-1.88-2.238-1.435 0-2.295 1.09-2.324 2.539v4.318h-.903V3.294zm-2.914 7.403h.905V3.294h-.905v7.403zm0-8.793h.905V.454h-.905v1.45zM47.675.454h7.073v.833h-6.097v3.7h5.71v.832h-5.71v4.046h6.168v.832h-7.144V.455z" fill="#666" mask="url(#b)"/></g></svg>