<svg xmlns="http://www.w3.org/2000/svg" width="22" height="22" viewBox="0 0 22 22"><path d="M5.5 1.5h-3c-.6 0-1 .4-1 1v3c0 .6.4 1 1 1h3c.6 0 1-.4 1-1v-3c0-.6-.4-1-1-1zm0 4h-3v-3h3v3zm14-4h-3c-.6 0-1 .4-1 1v3c0 .6.4 1 1 1h3c.6 0 1-.4 1-1v-3c0-.6-.4-1-1-1zm0 4h-3v-3h3v3zm-14 10h-3c-.6 0-1 .4-1 1v3c0 .6.4 1 1 1h3c.6 0 1-.4 1-1v-3c0-.6-.4-1-1-1zm0 4h-3v-3h3v3zm14-4h-3c-.6 0-1 .4-1 1v3c0 .6.4 1 1 1h3c.6 0 1-.4 1-1v-3c0-.6-.4-1-1-1zm0 4h-3v-3h3v3zm-14-11h-3c-.6 0-1 .4-1 1v3c0 .6.4 1 1 1h3c.6 0 1-.4 1-1v-3c0-.6-.4-1-1-1zm0 4h-3v-3h3v3zm7-11h-3c-.6 0-1 .4-1 1v3c0 .6.4 1 1 1h3c.6 0 1-.4 1-1v-3c0-.6-.4-1-1-1zm0 4h-3v-3h3v3zm0 10h-3c-.6 0-1 .4-1 1v3c0 .6.4 1 1 1h3c.6 0 1-.4 1-1v-3c0-.6-.4-1-1-1zm0 4h-3v-3h3v3zm0-11h-3c-.6 0-1 .4-1 1v3c0 .6.4 1 1 1h3c.6 0 1-.4 1-1v-3c0-.6-.4-1-1-1zm0 4h-3v-3h3v3zm7-4h-3c-.6 0-1 .4-1 1v3c0 .6.4 1 1 1h3c.6 0 1-.4 1-1v-3c0-.6-.4-1-1-1zm0 4h-3v-3h3v3z"/></svg>