<svg xmlns="http://www.w3.org/2000/svg" width="19" height="19" viewBox="0 0 19 19"><path d="M11.5 6.1c-.9-.5-1.9-.7-2.9-.4-1.1.3-1.9.9-2.4 1.8-1.1 1.9-.5 4.2 1.4 5.3.6.4 1.3.5 2 .5.3 0 .7 0 1-.1 1-.3 1.8-.9 2.4-1.8.9-1.8.3-4.2-1.5-5.3zM12 11c-.4.7-1 1.1-1.8 1.3-.7.2-1.5.1-2.2-.3-1.4-.8-1.8-2.6-1-4 .4-.7 1-1.1 1.8-1.3.2-.1.5-.1.7-.1.5 0 1 .1 1.4.4 1.4.8 1.9 2.6 1.1 4zm6.9-4.1c-.1-.1-.2-.1-.4-.1h-1.7c-.3-.8-.6-1.5-1.2-2.2l.8-1.5c.1-.2.1-.5-.2-.7L12.3.1s-.1-.1-.3 0c-.1 0-.2.1-.3.2l-.8 1.5c-.8-.2-1.7-.2-2.6 0L7.5.3C7.4.1 7.3.1 7.2 0c-.2 0-.3 0-.4.1L2.9 2.3c-.3.1-.4.4-.2.7l.8 1.5c-.3.3-.5.7-.7 1l-.6 1.2H.5c-.1 0-.3.1-.4.1 0 .1-.1.2-.1.4v4.5c0 .3.2.5.5.5h1.7c.3.9.7 1.6 1.3 2.3L2.7 16c-.1.2-.1.5.2.7L6.8 19h.3c.1 0 .2-.1.3-.2l.8-1.5c.9.2 1.7.1 2.5 0l.8 1.5c.1.1.2.2.3.2h.4l3.9-2.2c.2-.1.3-.4.2-.7l-.8-1.5c.3-.3.5-.7.7-1.1l.6-1.2h1.7c.1 0 .3-.1.4-.1.1-.1.1-.2.1-.4V7.3c0-.2-.1-.3-.1-.4zm-.9 4.4h-1.5c-.2 0-.4.1-.5.3-.2.5-.3.9-.6 1.3-.2.4-.5.8-.8 1.2-.1.2-.2.4-.1.6l.8 1.4-3 1.7-.7-1.3c-.1-.2-.3-.3-.4-.3h-.1c-1 .2-1.8.3-2.8 0-.2-.1-.4 0-.6.2l-.8 1.3-3-1.8.8-1.3c.1-.2.1-.4-.1-.6-.7-.7-1.1-1.5-1.4-2.5-.1-.2-.3-.3-.5-.3H1.1V7.7h1.5c.2 0 .4-.2.4-.4.2-.4.4-.9.6-1.3.2-.4.5-.8.9-1.2.1-.2.2-.4.1-.6l-.8-1.3 3-1.7.8 1.4c.1.2.3.3.5.2 1.1-.2 1.9-.2 2.9 0 .2.1.4 0 .6-.2l.8-1.3 3 1.8-.8 1.3c-.1.2-.1.4.1.6.7.8 1.1 1.5 1.4 2.5.1.2.3.4.5.4h1.5l-.1 3.4z"/></svg>