<svg width="40" height="40" viewBox="0 0 40 40" xmlns="http://www.w3.org/2000/svg"><path d="M28.426 21.306a8.505 8.505 0 0 0 0-2.609l1.871-1.813a.667.667 0 0 0 .114-.812l-1.81-3.14a.665.665 0 0 0-.758-.308l-2.554.732a8.397 8.397 0 0 0-2.183-1.237l-.651-2.613A.667.667 0 0 0 21.809 9h-3.618a.664.664 0 0 0-.645.505l-.677 2.711c-.716.3-1.388.699-1.995 1.184l-2.717-.777a.664.664 0 0 0-.759.307l-1.809 3.14a.668.668 0 0 0 .114.813l2.068 2.003c-.1.74-.1 1.489 0 2.228l-2.068 2.003a.667.667 0 0 0-.114.813l1.809 3.14a.666.666 0 0 0 .76.308l2.716-.778a8.397 8.397 0 0 0 1.995 1.185l.677 2.712a.667.667 0 0 0 .645.503h3.618a.664.664 0 0 0 .646-.505l.651-2.612a8.397 8.397 0 0 0 2.183-1.238l2.554.732a.664.664 0 0 0 .759-.307l1.809-3.14a.668.668 0 0 0-.114-.813l-1.87-1.81zm-8.315 3.507a4.796 4.796 0 0 1-4.437-2.971 4.822 4.822 0 0 1 1.041-5.245 4.8 4.8 0 0 1 5.234-1.043 4.82 4.82 0 0 1 1.558 7.85 4.798 4.798 0 0 1-3.396 1.409z"/></svg>