<svg viewBox="0 0 20 20" xmlns="http://www.w3.org/2000/svg"><path d="M5.9 3.8a.54.54 0 0 1-.5-.5.54.54 0 0 1 .5-.5h13.5a.47.47 0 0 1 .5.5.47.47 0 0 1-.5.5H5.9zm13.6 5.7a.4.4 0 0 1 .4.5.47.47 0 0 1-.5.5H5.9a.5.5 0 1 1 0-1h13.6zm0 6.7a.4.4 0 0 1 .4.5.47.47 0 0 1-.5.5H5.9a.5.5 0 1 1 0-1h13.6zM1.7 8.9a.47.47 0 0 1 .5.5v1.2a.47.47 0 0 1-.5.5H.5a.47.47 0 0 1-.5-.5V9.4a.54.54 0 0 1 .5-.5h1.2zm0 6.7a.54.54 0 0 1 .5.5v1.2a.47.47 0 0 1-.5.5H.5a.47.47 0 0 1-.5-.5v-1.2a.47.47 0 0 1 .5-.5h1.2zm0-13.4a.47.47 0 0 1 .5.5v1.2a.47.47 0 0 1-.5.5H.5a.47.47 0 0 1-.5-.5V2.7a.54.54 0 0 1 .5-.5h1.2z" fill="currentColor"/></svg>