<svg xmlns="http://www.w3.org/2000/svg" viewBox="0 0 20 20"><path fill="currentColor" d="M19.4 2.4h-5.3V.6c0-.4-.4-.6-.6-.6-.2 0-.6.2-.6.6v1.8H7.1V.6c0-.4-.4-.6-.6-.6s-.6.2-.6.6v1.8H.6c-.4 0-.6.3-.6.5v16.5c0 .4.2.6.6.6h18.8c.4 0 .6-.2.6-.6V2.9c0-.2-.2-.5-.6-.5zm-.6 16.4H1.2V3.5h4.7v1.6c0 .5.2.7.6.7s.6-.2.6-.6V3.5H13v1.6c0 .5.2.7.6.7.4 0 .6-.2.6-.6V3.5h4.7v15.3zM6.5 8.4v1.8c0 .4-.2.6-.6.6H4.1c-.4 0-.6-.2-.6-.6V8.4c0-.4.2-.6.6-.6h1.8c.3 0 .6.3.6.6zm4.9 0v1.8c0 .4-.2.6-.6.6H9.2c-.4 0-.6-.2-.6-.6V8.4c0-.4.2-.6.6-.6H11c.2 0 .4.3.4.6zm2.7-.6h1.8c.4 0 .6.2.6.6v1.8c0 .4-.2.6-.6.6h-1.8c-.4 0-.6-.2-.6-.6V8.4c0-.3.3-.6.6-.6zm-7.6 5.7v1.8c0 .4-.2.6-.6.6H4.1c-.4 0-.6-.2-.6-.6v-1.8c0-.4.2-.6.6-.6h1.8c.3 0 .6.3.6.6zm4.9 0v1.8c0 .4-.2.6-.6.6H9.2c-.4 0-.6-.2-.6-.6v-1.8c0-.4.2-.6.6-.6H11c.2 0 .4.3.4.6zm5.1 0v1.8c0 .4-.2.6-.6.6h-1.8c-.4 0-.6-.2-.6-.6v-1.8c0-.4.2-.6.6-.6h1.8c.3 0 .6.3.6.6z"/></svg>