<svg xmlns="http://www.w3.org/2000/svg" width="22" height="22" viewBox="0 0 22 22"><path d="M19.8 7.4C17.7 2.4 12-.1 7 2c-1 .3-1.9.8-2.7 1.4l.2-1.5c.1-.4-.1-.7-.5-.8s-.7.1-.8.5v.1l-.5 3.5v.4l.1.1.1.1.1.1h3.6c.4.1.8-.2.8-.6s-.2-.8-.6-.8H5c.8-.5 1.6-1 2.5-1.3 4.3-1.7 9.3.3 11 4.7s-.3 9.3-4.7 11c-4.3 1.7-9.3-.3-11-4.7-.2-.3-.6-.5-.9-.3-.3.2-.4.5-.3.8 2 5 7.8 7.5 12.8 5.4s7.4-7.7 5.4-12.7zM9.3 11.3v.2c0 .1.1.1.1.2 0 0 .1.1.2.1l5.6 2.4c.4.1.8 0 .9-.4s0-.8-.4-.9l-5-2.1V7c0-.4-.4-.6-.8-.6-.2 0-.5.3-.5.6l-.1 4.3z"/></svg>