<svg width="40" height="40" viewBox="0 0 40 40" xmlns="http://www.w3.org/2000/svg"><path d="M27.844 20.5a5.484 5.484 0 0 0-2.644-4.735.787.787 0 0 0-1.184.381.79.79 0 0 0 .355.96 3.947 3.947 0 0 1 0 6.748.807.807 0 0 0 .533 1.487.803.803 0 0 0 .296-.106 5.485 5.485 0 0 0 2.644-4.735z"/><path d="M27.527 13.555a.789.789 0 1 0-.947 1.263 7.104 7.104 0 0 1 0 11.364.79.79 0 0 0 .947 1.263 8.681 8.681 0 0 0 0-13.89zm-17.046 3.788a.79.79 0 0 0-.789.79v4.735a.79.79 0 0 0 .79.789h4.32a1 1 0 0 1 .707.293l5.103 5.102c.63.63 1.707.184 1.707-.707v-15.69c0-.891-1.077-1.337-1.707-.707l-5.103 5.102a1 1 0 0 1-.707.293h-4.32z"/></svg>