<svg width="16" height="16" viewBox="0 0 16 16" xmlns="http://www.w3.org/2000/svg"><title>ico_settings2</title><path d="M5.4 2C5.3 1.3 4.7.7 4 .6 2.9.3 1.8.9 1.6 2H0v1h1.6c.1.7.7 1.3 1.4 1.4 1.1.3 2.2-.3 2.4-1.4H16V2H5.4zM3.5 3.5c-.6 0-1-.4-1-1s.4-1 1-1 1 .4 1 1-.4 1-1 1zm6.4 4c-.2-.7-.7-1.3-1.4-1.4-1.1-.3-2.2.4-2.4 1.4H0v1h6.1c.2.7.7 1.3 1.4 1.4 1.1.3 2.2-.4 2.4-1.4H16v-1H9.9zM8 9c-.6 0-1-.4-1-1s.4-1 1-1 1 .4 1 1-.4 1-1 1zm6.4 4c-.2-.7-.7-1.3-1.4-1.4-1.1-.3-2.2.4-2.4 1.4H0v1h10.6c.2.7.7 1.3 1.4 1.4 1.1.3 2.2-.4 2.4-1.4H16v-1h-1.6zm-1.9 1.5c-.6 0-1-.4-1-1s.4-1 1-1 1 .4 1 1-.4 1-1 1z" fill="#0070BC"/></svg>