<svg xmlns="http://www.w3.org/2000/svg" width="16" height="16" viewBox="0 0 16 16"><path fill="#fff" d="M5.3 0H1.7C.8 0 0 .8 0 1.7v3.5C0 6.2.8 7 1.7 7h3.5C6.2 7 7 6.2 7 5.3V1.7C7 .8 6.2 0 5.3 0zM6 5.3c0 .4-.3.7-.7.7H1.7c-.4 0-.7-.3-.7-.7V1.7c0-.4.3-.7.7-.7h3.5c.5 0 .8.3.8.7v3.6zM14.3 0h-3.5C9.8 0 9 .8 9 1.7v3.5c0 1 .8 1.8 1.7 1.8h3.5c1 0 1.7-.8 1.7-1.7V1.7C16 .8 15.2 0 14.3 0zm.7 5.3c0 .4-.3.7-.7.7h-3.5c-.5 0-.8-.3-.8-.7V1.7c0-.4.3-.7.7-.7h3.5c.5 0 .8.3.8.7v3.6zM5.3 9H1.7C.8 9 0 9.8 0 10.7v3.5c0 1 .8 1.7 1.7 1.7h3.5c1 0 1.7-.8 1.7-1.7v-3.5C7 9.8 6.2 9 5.3 9zm.7 5.3c0 .4-.3.7-.7.7H1.7c-.4 0-.7-.3-.7-.7v-3.5c0-.5.3-.8.7-.8h3.5c.5 0 .8.3.8.7v3.6zM14.3 9h-3.5c-1 0-1.8.8-1.8 1.7v3.5c0 1 .8 1.7 1.7 1.7h3.5c1 0 1.7-.8 1.7-1.7v-3.5c.1-.9-.7-1.7-1.6-1.7zm.7 5.3c0 .4-.3.7-.7.7h-3.5c-.4 0-.7-.3-.7-.7v-3.5c0-.4.3-.7.7-.7h3.5c.4 0 .7.3.7.7v3.5z"/></svg>