<svg xmlns="http://www.w3.org/2000/svg" width="14.3" height="15.2" viewBox="0 0 14.3 15.2"><path fill="#070250" d="M13.6 9.5s.1-.1.1-.2c.3-.3.7-.7.5-1.6-.2-1-1.4-1.1-2.4-1.2-.5-.1-1.2-.1-1.4-.3-.2-.4 0-1.1.2-1.8.1-.6.3-1.1.3-1.7 0-.7-.3-1.7-1-2.3-.4-.3-.8-.5-1.3-.4-1.1.2-1 1.5-1 2.1v.4c0 .6-.6 1.5-.9 2-.1.3-.2.5-.3.6-.4.8-1.8 1.7-2 1.8-.2.1-.3.1-.5.2-.4 0-.7-.1-1-.1-.2 0-.4 0-.5-.1-.5-.1-1 .1-1.5.5-.4.3-.9 1.1-.9 2.4 0 1.5.4 2.4.7 2.9.3.4 1.1.6 1.1.6h2.3c.2 0 .5.1.9.2.2.1.4.2.6.4.3.3.7.6 1.7.9.6.2 1.8.5 2.9.5.5 0 1-.1 1.3-.3.4-.4.4-.8.4-1.1v-.2s.1-.1.2-.1c.3-.1.7-.3.8-.8.1-.4 0-.7-.1-.9 0 0 .1-.1.2-.1.3-.1.7-.4.7-1 0-.4-.1-.7-.2-.9.1-.2.1-.3.1-.4zm-11 2.8H2c-.1 0-.4-.1-.4-.1-.2-.4-.6-1.2-.6-2.4 0-.8.2-1.4.6-1.7.2-.2.5-.2.6-.2.1 0 .3 0 .5.1H3c-.2.4-.4 1-.4 1.9 0 1.1.2 1.8.5 2.4h-.5zM13 8.7c-.2.2-.4.4-.4.7 0 .4.1.6.1.8.1.2.1.2.1.4 0 .1 0 .1-.2.2s-.4.2-.5.4c-.3.4-.2.8-.1 1 0 .1.1.2 0 .3 0 .1 0 .1-.3.2-.2.1-.4.2-.6.4-.3.3-.2.6-.2.9v.3c-.3.2-1.8.1-3.2-.3-.8-.2-1.1-.5-1.3-.7-.2-.2-.4-.4-.8-.5-.3-.1-.5-.2-.8-.3h-.1c-.2 0-.3-.1-.5-.1-.2-.4-.6-1.1-.6-2.3 0-1.1.4-1.8 1.1-2 .5-.2 2-1.3 2.6-2.3.1-.1.2-.3.3-.4.4-.7 1-1.6 1.1-2.5v-.5c0-.4 0-1.1.2-1.1H9c0-.3.1-.3.3-.1.4.4.7 1.1.6 1.5 0 .4-.2 1-.3 1.5-.2.9-.5 1.8 0 2.5.4.6 1.3.7 2.1.8.6.1 1.4.2 1.5.5.1.3 0 .4-.2.7z"/></svg>