<svg xmlns="http://www.w3.org/2000/svg" width="15" height="15" viewBox="0 0 15 15"><path fill="#0070bc" d="M14.9 14.6c0 .3-.2.4-.5.4h-.1c-.3 0-.5-.3-.4-.6.5-3.9-.7-7.9-3-10.3C8.5 1.7 4.5.5.6 1.1.3 1.2 0 1 0 .7 0 .4.2.2.4.1 4.6-.4 9 .9 11.6 3.4c2.5 2.6 3.8 7 3.3 11.2zM.8 5.5c-.3.1-.5.4-.4.6 0 .3.3.5.6.4 1.8-.4 4.3-.4 6.1 1.4s1.8 4.3 1.4 6.1c-.1.3.1.5.4.6H9c.2 0 .4-.2.5-.4.6-2.9 0-5.4-1.7-7C6.1 5.6 3.7 5 .8 5.5zm3.1 5.6c.4.4.6.9.6 1.5s-.2 1.1-.6 1.5c-.4.4-.9.6-1.5.6s-1-.3-1.4-.7c-.8-.8-.8-2.1 0-2.9.8-.8 2.1-.8 2.9 0zm-.4 1.5c0-.3-.1-.5-.3-.8-.2-.2-.5-.3-.8-.3s-.6.1-.8.3c-.4.4-.4 1.1 0 1.5.4.4 1.1.4 1.5 0 .3-.2.4-.5.4-.7z"/></svg>