<svg xmlns="http://www.w3.org/2000/svg" width="20" height="17" viewBox="0 0 20 17"><path fill="#520419" d="M11.1 0c-.1 0-.3 0-.5.1L4.7 4.8H1.8c-1 0-1.8.8-1.8 1.7v4c0 .9.8 1.7 1.8 1.7h2.9l5.9 4.7c.1.1.2.1.3.1h.2c.2-.1.3-.3.3-.5V.5c0-.2-.1-.4-.3-.5zm-.7 15.5l-5.3-4.2c-.1-.1-.2-.1-.3-.1h-3c-.4 0-.8-.3-.8-.7v-4c0-.4.4-.7.8-.7h3c.1 0 .2 0 .3-.1l5.3-4.2v14zm9.6-7c0 2.2-1.3 4.6-3.3 6.2-.1.1-.2.1-.3.1-.2 0-.3-.1-.4-.2-.2-.2-.1-.5.1-.7 1.8-1.4 2.9-3.5 2.9-5.4 0-1.9-1.1-4-2.9-5.4-.2-.1-.3-.4-.1-.7.2-.2.5-.3.7-.1 2 1.6 3.3 4 3.3 6.2zm-3.1 0c0 1.4-.8 2.8-2.3 3.8-.1.1-.2.1-.3.1-.2 0-.3-.1-.4-.2-.2-.2-.1-.5.1-.7.8-.6 1.9-1.5 1.9-2.9s-1-2.4-1.9-2.9c-.2-.2-.3-.5-.1-.7.2-.2.5-.3.7-.1 1.5.8 2.3 2.2 2.3 3.6z"/></svg>