<svg xmlns="http://www.w3.org/2000/svg" width="20" height="19" viewBox="0 0 20 19"><path fill="#89072A" d="M18 15H7.3L7 14h10.5c.2 0 .4-.2.5-.4l2-9c0-.1 0-.3-.1-.4-.1-.1-.2-.2-.4-.2H4.6L4 1.8C3.8.9 3 0 2.1 0H.5C.2 0 0 .2 0 .5s.2.5.5.5h1.6c.4 0 .8.5.9 1l3.2 13.1c-.7.3-1.2 1-1.2 1.9 0 1.1.9 2 2 2s2-.9 2-2c0-.4-.1-.7-.3-1h7.6c-.2.3-.3.6-.3 1 0 1.1.9 2 2 2s2-.9 2-2-.9-2-2-2zm.9-10l-1.8 8H6.8l-2-8h14.1zM8 17c0 .6-.4 1-1 1s-1-.4-1-1 .4-1 1-1 1 .4 1 1zm10 1c-.6 0-1-.4-1-1s.4-1 1-1 1 .4 1 1-.4 1-1 1z"/></svg>