<svg xmlns="http://www.w3.org/2000/svg" width="18" height="18" viewBox="0 0 18 18"><path fill="#2C5A78" d="M17.8 14.3l-3.9-3.4c-.2-.1-.4-.2-.5-.1l-2.8 1.4-4.8-4.8 1.4-2.8c.1-.2.1-.4-.1-.5L3.7.2C3.6.1 3.5 0 3.4 0c-.1 0-.3 0-.4.1L.2 2.6c-.1.1-.2.2-.2.3C0 3-.3 5.1 1.8 8.1c1.9 2.7 3.5 4.2 3.7 4.4.2.2 1.7 1.8 4.4 3.7 2.3 1.6 4.1 1.8 4.8 1.8h.3c.1 0 .2-.1.3-.2l2.5-2.8c.1-.1.1-.2.1-.4.1-.1 0-.2-.1-.3zM14.7 17c-.5 0-2.1-.1-4.3-1.6-2.8-1.9-4.2-3.5-4.3-3.6 0 0-1.7-1.5-3.6-4.3C1.1 5.3 1 3.7 1 3.3l2.3-2 2.8 3.3-1.4 2.7c-.1.2 0 .4.1.6l5.3 5.3c.2.2.4.2.6.1l2.8-1.4 3.3 2.8-2.1 2.3z"/></svg>