<svg xmlns="http://www.w3.org/2000/svg" width="19" height="17.2" viewBox="0 0 19 17.2"><path fill="#0F05A0" d="M18.5 4H16V1.9c0-1-.9-1.9-1.9-1.9H4.9C3.9 0 3 .9 3 1.9V4H.5c-.3 0-.5.2-.5.5v10c0 .3.2.5.5.5H4v1.8c0 .3.2.5.5.5h10c.3 0 .5-.2.5-.5V15h3.5c.3 0 .5-.2.5-.5v-10c0-.3-.2-.5-.5-.5zM4 1.9c0-.5.4-.9.9-.9H14c.6 0 1 .4 1 .9V4H4V1.9zm1 14.3v-5h9v5H5zM18 14h-3v-2.8h1.5c.3 0 .5-.2.5-.5s-.2-.5-.5-.5h-14c-.3 0-.5.2-.5.5s.2.5.5.5H4V14H1V5h17v9zm-3.1-7.6c.5 0 .9.4.9.9s-.4.9-.9.9-.9-.4-.9-.9.4-.9.9-.9z"/></svg>