<svg xmlns="http://www.w3.org/2000/svg" width="15.9" height="15.5" viewBox="0 0 15.9 15.5"><path fill="#0070BC" d="M5.7 3.6C2.4 3.6 1 6.1 1 8.5c0 .3-.2.5-.5.5S0 8.8 0 8.5c0-3.4 2.3-5.9 5.7-5.9h3.5L7.2.8C7.1.7 7 .4 7.2.2c.2-.2.5-.2.7 0l2.9 2.6c.1.1.2.2.2.3 0 .1-.1.3-.2.4L7.9 6.2c-.1 0-.2.1-.3.1-.1 0-.3-.1-.4-.2-.2-.2-.1-.5.1-.7l2-1.8H5.7zm9.7 2.9c-.3 0-.5.2-.5.5 0 2.4-1.4 4.9-4.7 4.9H6.6l2-1.8c.2-.2.2-.5 0-.7-.2-.2-.5-.2-.7 0L5 11.9c-.1.1-.2.2-.2.4 0 .1.1.3.2.4l2.9 2.6c.1.1.2.1.3.1.1 0 .3-.1.4-.2.2-.2.2-.5 0-.7l-2-1.8h3.5c3.3 0 5.7-2.4 5.7-5.9.1-.1-.2-.3-.4-.3z"/></svg>