<svg xmlns="http://www.w3.org/2000/svg" viewBox="0 0 20 19"><path fill="#2C5A78" d="M18.1.1H1.9C.9.1 0 .9 0 1.9v15.2c0 1 .8 1.9 1.9 1.9h16.2c1 0 1.9-.8 1.9-1.9V1.9c-.1-1-.9-1.8-1.9-1.8zm-.3 17H2.1c-.1 0-.2-.1-.2-.2V2.2c0-.2.1-.3.2-.3h15.7c.1 0 .2.1.2.2v14.7c.1.2 0 .3-.2.3zm-1.6-4.4v.9c0 .3-.2.5-.5.5H8c-.3 0-.5-.2-.5-.5v-.9c0-.3.2-.5.5-.5h7.8c.2 0 .4.2.4.5zm0-3.7v.9c0 .3-.2.5-.5.5H8c-.3 0-.5-.2-.5-.5V9c0-.3.2-.5.5-.5h7.8c.2 0 .4.2.4.5zm0-3.8v.9c0 .3-.2.5-.5.5H8c-.3 0-.5-.2-.5-.5v-.9c0-.2.2-.4.5-.4h7.8c.2 0 .4.2.4.4zm-9.8.5c0 .8-.6 1.4-1.4 1.4s-1.4-.6-1.4-1.4.6-1.4 1.4-1.4 1.4.6 1.4 1.4zm0 3.7c0 .8-.6 1.4-1.4 1.4s-1.4-.6-1.4-1.4S4.2 8 5 8s1.4.7 1.4 1.4zm0 3.8c0 .8-.6 1.4-1.4 1.4s-1.4-.6-1.4-1.4.6-1.4 1.4-1.4 1.4.6 1.4 1.4z"/></svg>