<svg xmlns="http://www.w3.org/2000/svg" width="22" height="16" viewBox="0 0 22 16"><path fill="#0F05A0" d="M21.78 3.453s-.215-1.57-.875-2.258C20.069.289 19.131.281 18.701.23 15.623 0 11.005 0 11.005 0h-.01S6.377 0 3.298.23c-.43.051-1.367.059-2.204.965C.435 1.883.22 3.453.22 3.453S0 5.293 0 7.133V8.86c0 1.84.22 3.68.22 3.68s.214 1.57.874 2.262c.837.902 1.937.875 2.425.973C5.28 15.945 11 16 11 16s4.623-.008 7.701-.238c.43-.051 1.368-.059 2.204-.961.66-.691.875-2.262.875-2.262s.22-1.84.22-3.68V7.133c0-1.84-.22-3.68-.22-3.68zM8.729 10.949V4.558l5.944 3.207-5.944 3.184z"/></svg>