<svg xmlns="http://www.w3.org/2000/svg" width="18" height="18" viewBox="0 0 18 18"><g fill="#0070BC"><path d="M9 1.622c2.403 0 2.688.009 3.637.053.877.04 1.354.187 1.671.31.42.164.72.358 1.035.673s.51.615.673 1.035c.123.317.27.794.31 1.671.043.948.052 1.233.052 3.636s-.009 2.688-.053 3.637c-.04.877-.187 1.354-.31 1.671-.164.42-.358.72-.673 1.035s-.615.51-1.035.673c-.317.123-.794.27-1.671.31-.949.043-1.233.053-3.637.053s-2.688-.009-3.637-.053c-.877-.04-1.354-.187-1.671-.31-.42-.164-.72-.358-1.035-.673s-.51-.615-.673-1.035c-.123-.317-.27-.794-.31-1.671-.042-.949-.051-1.234-.051-3.637s.009-2.688.053-3.637c.04-.877.187-1.354.31-1.671.164-.42.358-.72.673-1.035s.615-.51 1.035-.673c.317-.123.794-.27 1.671-.31.948-.043 1.233-.052 3.636-.052M9 0C6.556 0 6.249.01 5.29.054 4.332.098 3.677.25 3.104.473a4.403 4.403 0 0 0-1.593 1.038c-.5.5-.808 1.002-1.038 1.594C.25 3.677.098 4.332.054 5.29.01 6.249 0 6.556 0 9s.01 2.75.054 3.71c.043.958.196 1.612.418 2.185.23.592.538 1.094 1.038 1.594s1.002.808 1.594 1.038c.573.223 1.227.375 2.185.418C6.249 17.99 6.556 18 9 18s2.75-.01 3.71-.054c.958-.043 1.612-.196 2.185-.418a4.411 4.411 0 0 0 1.594-1.038c.5-.5.808-1.002 1.038-1.594.223-.573.375-1.227.418-2.185C17.99 11.75 18 11.444 18 9s-.01-2.751-.054-3.71c-.043-.958-.196-1.612-.418-2.185a4.411 4.411 0 0 0-1.038-1.594c-.5-.5-1.002-.808-1.594-1.038-.573-.223-1.227-.375-2.185-.418C11.75.01 11.444 0 9 0z"/><path d="M9 4.378a4.623 4.623 0 1 0 .002 9.246A4.623 4.623 0 0 0 9 4.378zM9 12a3 3 0 1 1 0-6 3 3 0 0 1 0 6z"/><circle cx="13.804" cy="4.196" r="1.08"/></g></svg>