<svg width="23" height="18" viewBox="0 0 23 18" xmlns="http://www.w3.org/2000/svg" xmlns:xlink="http://www.w3.org/1999/xlink"><title>Group 23</title><defs><circle id="a" cx="4" cy="4" r="4"/></defs><g fill="none" fill-rule="evenodd"><path d="M21.5 17h-16a.5.5 0 0 1-.5-.5V7.934l7.391 4.927c.311.207.709.311 1.109.311.399 0 .798-.104 1.109-.311L22 7.934V16.5a.5.5 0 0 1-.5.5zm0-10c.03 0 .058.003.087.008l-7.532 5.021c-.29.193-.819.193-1.109 0L5.414 7.008A.494.494 0 0 1 5.501 7h16-.001zm0-1h-16C4.673 6 4 6.673 4 7.5v9c0 .827.673 1.5 1.5 1.5h16c.827 0 1.5-.673 1.5-1.5v-9c0-.827-.673-1.5-1.5-1.5z" fill="#06751E"/><g transform="translate(1 1)"><use fill="#06751E" xlink:href="#a"/><circle stroke="#06751E" cx="4" cy="4" r="4.5"/></g><path stroke="#06751E" d="M2.901 5.296L4.524 6.57l2.452-3.308"/></g></svg>