<svg xmlns="http://www.w3.org/2000/svg" width="11" height="23" viewBox="0 0 11 23"><path fill="#0070BC" d="M8.7 13V3.2C8.7 1.4 7.2 0 5.5 0 3.7 0 2.3 1.4 2.3 3.2V13C.9 14 0 15.7 0 17.5c0 3 2.5 5.5 5.5 5.5s5.5-2.5 5.5-5.5c0-1.8-.9-3.5-2.3-4.5zm-3.2 9C3 22 1 20 1 17.5c0-1.6.8-3 2.1-3.8.1-.1.2-.2.2-.4v-10C3.3 2 4.3 1 5.5 1c1.2 0 2.2 1 2.2 2.2v10c0 .2.1.3.2.4 1.3.8 2.1 2.3 2.1 3.8C10 20 8 22 5.5 22zm.5-6.8V9.3c0-.3-.2-.5-.5-.5S5 9 5 9.3v5.9c-1.1.2-1.9 1.2-1.9 2.4 0 1.3 1.1 2.4 2.4 2.4s2.4-1.1 2.4-2.4c0-1.2-.8-2.2-1.9-2.4zM5.5 19c-.8 0-1.4-.6-1.4-1.4 0-.8.6-1.4 1.4-1.4s1.4.6 1.4 1.4c0 .7-.6 1.4-1.4 1.4z"/></svg>