<svg xmlns="http://www.w3.org/2000/svg" width="17" height="17" viewBox="0 0 17 17"><path fill="#A20309" d="M16.5 2H12V.5c0-.3-.3-.5-.5-.5s-.5.2-.5.5V2H6V.5c0-.3-.3-.5-.5-.5S5 .2 5 .5V2H.5c-.3 0-.5.3-.5.5v14c0 .3.2.5.5.5h16c.3 0 .5-.2.5-.5v-14c0-.2-.2-.5-.5-.5zM16 16H1V3h4v1.4c0 .4.2.6.5.6s.5-.2.5-.5V3h5v1.4c0 .4.2.6.5.6s.5-.2.5-.5V3h4v13zM5.5 7.1v1.5c0 .3-.2.5-.5.5H3.5c-.3 0-.5-.2-.5-.5V7.1c0-.3.2-.5.5-.5H5c.3 0 .5.3.5.5zm4.2 0v1.5c0 .3-.2.5-.5.5H7.8c-.3 0-.5-.2-.5-.5V7.1c0-.3.2-.5.5-.5h1.5c.2 0 .4.3.4.5zm2.3-.5h1.5c.3 0 .5.2.5.5v1.5c0 .3-.2.5-.5.5H12c-.3 0-.5-.2-.5-.5V7.1c0-.2.2-.5.5-.5zm-6.5 4.9V13c0 .3-.2.5-.5.5H3.5c-.3 0-.5-.2-.5-.5v-1.5c0-.3.2-.5.5-.5H5c.3 0 .5.2.5.5zm4.2 0V13c0 .3-.2.5-.5.5H7.8c-.3 0-.5-.2-.5-.5v-1.5c0-.3.2-.5.5-.5h1.5c.2 0 .4.2.4.5zm4.3 0V13c0 .3-.2.5-.5.5H12c-.3 0-.5-.2-.5-.5v-1.5c0-.3.2-.5.5-.5h1.5c.3 0 .5.2.5.5z"/></svg>