<svg xmlns="http://www.w3.org/2000/svg" width="20" height="20" viewBox="0 0 20 20"><path fill="#0070BC" d="M19 7.9l-1.4-.2c-.1-.5-.3-.9-.6-1.4l.8-1.2c.4-.5.3-1.2-.1-1.6l-1.2-1.2c-.2-.2-.5-.4-.9-.4-.3 0-.5.1-.7.2l-1.2.9c-.5-.2-.9-.4-1.4-.6L12.1 1c-.1-.6-.6-1-1.2-1H9.1C8.5 0 8 .4 7.9 1l-.3 1.5c-.4.1-.9.3-1.3.5l-1.2-.8C4.9 2 4.7 2 4.4 2c-.3 0-.6.1-.9.3L2.3 3.6c-.5.4-.5 1.1-.2 1.6L3 6.3c-.3.5-.4.9-.6 1.4L1 7.9c-.6.1-1 .7-1 1.3V11c0 .6.4 1.1 1 1.2l1.4.2c.1.5.3.9.6 1.4l-.8 1.1c-.4.5-.3 1.2.1 1.6l1.2 1.2c.2.2.5.4.9.4.3 0 .5-.1.7-.2l1.2-.9c.4.2.9.4 1.3.5l.3 1.5c.1.6.6 1 1.2 1h1.8c.6 0 1.1-.4 1.2-1l.2-1.4c.5-.1.9-.3 1.4-.6l1.2.8c.2.2.5.2.7.2.3 0 .6-.1.9-.4l1.2-1.2c.4-.4.5-1.1.1-1.6l-.8-1.1c.2-.4.4-.9.6-1.4l1.4-.2c.6-.1 1-.6 1-1.2V9.1c0-.6-.4-1.1-1-1.2zm-.1 3c0 .1 0 .1-.1.1l-1.8.3c-.2 0-.4.2-.5.4-.2.6-.4 1.2-.7 1.8-.1.2-.1.4 0 .6l1 1.5v.1l-1.2 1.2h-.2l-1.4-1c-.2-.1-.4-.1-.6 0-.5.3-1.1.6-1.8.7-.2.1-.4.2-.4.5l-.2 1.7c0 .1-.1.1-.1.1H9.1c-.1 0-.1 0-.1-.1L8.7 17c0-.2-.2-.4-.4-.5-.6-.2-1.2-.4-1.7-.7-.1-.1-.2-.1-.3-.1-.1 0-.2 0-.3.1l-1.5 1h-.2l-1.2-1.2v-.1l1-1.4c.1-.2.1-.4 0-.6-.3-.5-.6-1.1-.7-1.7-.1-.2-.2-.4-.5-.4L1.2 11c-.1 0-.1-.1-.1-.1V9.2c0-.1 0-.1.1-.1L3 8.8c.2 0 .4-.2.5-.4.2-.6.4-1.2.7-1.8.1-.2.1-.4 0-.6l-1-1.5v-.1l1.2-1.2h.2l1.4 1c.2.1.4.1.6 0 .5-.3 1.1-.6 1.7-.7.2-.1.3-.3.4-.5L9 1.2s0-.1.1-.1h1.8c.1 0 .1 0 .1.1l.3 1.8c0 .2.2.4.4.5.6.2 1.2.4 1.8.7.2.1.4.1.6 0l1.4-1h.2l1.2 1.2v.1l-1 1.4c-.1.2-.1.4 0 .6.3.5.6 1.1.7 1.8.1.2.2.4.5.4l1.7.3c.1 0 .1.1.1.1v1.8zM10 5.7c-2.4 0-4.3 1.9-4.3 4.3s1.9 4.3 4.3 4.3 4.3-1.9 4.3-4.3-1.9-4.3-4.3-4.3zm0 7.5c-1.8 0-3.2-1.4-3.2-3.2S8.2 6.8 10 6.8s3.2 1.4 3.2 3.2-1.4 3.2-3.2 3.2z"/></svg>