<svg xmlns="http://www.w3.org/2000/svg" width="19" height="19" viewBox="0 0 20 20"><path fill="#004370" d="M12 1.2c0-.7-.5-1.2-1.2-1.2H8.2C7.5 0 7 .5 7 1.2v2.6C7 4.5 7.5 5 8.2 5h2.6c.7 0 1.2-.5 1.2-1.2V1.2zm-1 2.4c0 .2-.2.4-.4.4H8.4c-.2 0-.4-.2-.4-.4V1.4c0-.2.2-.4.4-.4h2.2c.2 0 .4.2.4.4v2.2zm8-2.3c0-.7-.6-1.3-1.3-1.3h-2.4c-.7 0-1.3.6-1.3 1.3v2.4c0 .7.6 1.3 1.3 1.3h2.4c.7 0 1.3-.6 1.3-1.3V1.3zm-1 2.3c0 .2-.2.4-.4.4h-2.1c-.3 0-.5-.2-.5-.4V1.4c0-.2.2-.4.4-.4h2.1c.3 0 .5.2.5.4v2.2zM5 1.2C5 .5 4.5 0 3.8 0H1.2C.5 0 0 .5 0 1.2v2.6C0 4.5.5 5 1.2 5h2.6C4.5 5 5 4.5 5 3.8V1.2zM4 3.6c0 .2-.2.4-.4.4H1.4c-.2 0-.4-.2-.4-.4V1.4c0-.2.2-.4.4-.4h2.2c.2 0 .4.2.4.4v2.2zm8 4.6c0-.7-.5-1.2-1.2-1.2H8.2C7.5 7 7 7.5 7 8.2v2.6c0 .7.5 1.2 1.2 1.2h2.6c.7 0 1.2-.5 1.2-1.2V8.2zm-1 2.4c0 .2-.2.4-.4.4H8.4c-.2 0-.4-.2-.4-.4V8.4c0-.2.2-.4.4-.4h2.2c.2 0 .4.2.4.4v2.2zm8-2.3c0-.7-.6-1.3-1.3-1.3h-2.4c-.7 0-1.3.6-1.3 1.3v2.4c0 .7.6 1.3 1.3 1.3h2.4c.7 0 1.3-.6 1.3-1.3V8.3zm-1 2.3c0 .2-.2.4-.4.4h-2.1c-.2 0-.4-.2-.4-.4V8.4c-.1-.2.1-.4.3-.4h2.1c.3 0 .5.2.5.4v2.2zM5 8.2C5 7.5 4.5 7 3.8 7H1.2C.5 7 0 7.5 0 8.2v2.6c0 .7.5 1.2 1.2 1.2h2.6c.7 0 1.2-.5 1.2-1.2V8.2zm-1 2.4c0 .2-.2.4-.4.4H1.4c-.2 0-.4-.2-.4-.4V8.4c0-.2.2-.4.4-.4h2.2c.2 0 .4.2.4.4v2.2zm8 4.6c0-.7-.5-1.2-1.2-1.2H8.2c-.7 0-1.2.5-1.2 1.2v2.6c0 .7.5 1.2 1.2 1.2h2.6c.7 0 1.2-.5 1.2-1.2v-2.6zm-1 2.4c0 .2-.2.4-.4.4H8.4c-.2 0-.4-.2-.4-.4v-2.2c0-.2.2-.4.4-.4h2.2c.2 0 .4.2.4.4v2.2zm8-2.3c0-.7-.6-1.3-1.3-1.3h-2.4c-.7 0-1.3.6-1.3 1.3v2.4c0 .7.6 1.3 1.3 1.3h2.4c.7 0 1.3-.6 1.3-1.3v-2.4zm-1 2.3c0 .2-.2.4-.4.4h-2.1c-.2 0-.4-.2-.4-.4v-2.1c0-.2.2-.4.4-.4h2.1c.2 0 .4.2.4.4v2.1zM5 15.2c0-.7-.5-1.2-1.2-1.2H1.2c-.7 0-1.2.5-1.2 1.2v2.6c0 .7.5 1.2 1.2 1.2h2.6c.7 0 1.2-.5 1.2-1.2v-2.6zm-1 2.4c0 .2-.2.4-.4.4H1.4c-.2 0-.4-.2-.4-.4v-2.2c0-.2.2-.4.4-.4h2.2c.2 0 .4.2.4.4v2.2z"/></svg>