<svg width="10" height="12" viewBox="0 0 10 12" xmlns="http://www.w3.org/2000/svg"><title>ico_hotspot</title><path d="M4.822.766s-.077-.077 0 0l.076-.077.077-.076s.077-.077.153 0c0 0 .077-.077.153 0 0 0 .077.076.154 0l.076.076.077.077.076.077 3.677 3.983c.23.23.23.536 0 .766-.23.23-.536.23-.766 0l-2.91-3.064v8.58c0 .306-.23.536-.537.536a.524.524 0 0 1-.536-.537v-8.58l-2.91 3.065c-.23.23-.537.23-.767 0-.23-.23-.23-.536 0-.766L4.822.766c-.153 0-.077.077 0 0-.077.077 0 0 0 0z" fill="#216664"/></svg>