<svg xmlns="http://www.w3.org/2000/svg" width="20" height="14" viewBox="0 0 20 14"><path fill="#fff" d="M19.93 6.21v1.65h-2.07v2.07h-1.65V7.86h-2.07V6.21h2.07V4.16h1.65v2.05zM6.61 5.76v2.48h3.73a3.94 3.94 0 0 1-1.43 2.1 3.7 3.7 0 0 1-2.22.73 4 4 0 0 1-3.77-2.75A3.92 3.92 0 0 1 3 5.75a4 4 0 0 1 3.69-2.64A3.7 3.7 0 0 1 9.13 4l1.79-1.8A6.12 6.12 0 0 0 6.61.45 6.61 6.61 0 0 0 .77 4.08 6.44 6.44 0 0 0 .81 10a6.6 6.6 0 0 0 5.81 3.55 6.11 6.11 0 0 0 4.23-1.68A6.66 6.66 0 0 0 12.9 7a7 7 0 0 0-.11-1.24z"/></svg>