<svg width="20" height="21" viewBox="0 0 20 21" xmlns="http://www.w3.org/2000/svg"><title>Group 24</title><g fill="#fff"><path d="M18.425 7.144c-2.03-5.022-7.765-7.457-12.76-5.438A11.37 11.37 0 0 0 2.97 3.175l.219-1.516a.688.688 0 0 0-1.36-.197l-.515 3.552v.02a.68.68 0 0 0 0 .112c0 .025.001.05.005.075.005.03.014.058.023.087.006.02.008.042.016.062.004.011.012.02.017.031.005.01.006.021.011.031.008.015.02.027.03.041a.705.705 0 0 0 .116.142.65.65 0 0 0 .234.141c.028.01.056.018.085.024.016.003.03.011.046.013.012.002.023-.002.035-.002.02.002.041.01.063.01L5.29 5.8a.687.687 0 1 0 0-1.374H3.598c1.153-.921 2.518-1.421 2.555-1.435 4.32-1.745 9.253.35 10.997 4.668 1.745 4.319-.349 9.252-4.668 10.997-4.318 1.745-9.251-.35-10.996-4.668a.687.687 0 1 0-1.275.515c2.03 5.022 7.765 7.456 12.786 5.428 5.022-2.03 7.457-7.766 5.428-12.787z"/><path d="M7.994 11.074a.68.68 0 0 0 .04.217c.005.015.003.032.009.046a.68.68 0 0 0 .13.199c.014.016.032.03.048.045a.687.687 0 0 0 .157.107c.012.007.02.018.034.024l5.586 2.371a.687.687 0 1 0 .537-1.265l-5.162-2.191.05-3.858a.687.687 0 1 0-1.375-.018l-.055 4.32.001.003z"/></g></svg>