<svg xmlns="http://www.w3.org/2000/svg" width="17" height="19" viewBox="0 0 18 20"><path fill="#9A5B01" d="M17 13.3c0-.8-.5-1.3-1-1.9-.6-.7-1.3-1.5-1.5-3.1 0-.2-.1-.5-.1-.9-.2-1.6-.4-4.1-1.3-5.5C11.9.1 9.2 0 8.5 0 8 0 5.2 0 3.9 1.9 3 3.4 2.7 5.8 2.6 7.4c0 .3-.1.6-.1.9-.2 1.6-.9 2.4-1.5 3.1-.5.6-1 1.1-1 1.9 0 1.2 1.7 2 5.3 2.2v.2c0 1.8 1.5 3.3 3.4 3.3s3.4-1.5 3.4-3.3v-.2c3.3-.3 4.9-1 4.9-2.2zM8.6 18c-1.3 0-2.4-1.1-2.4-2.3v-.1H11v.1c.1 1.3-1 2.3-2.4 2.3zm2-3.4c-1.2.1-2.1 0-2.2 0H6.6c-4.4-.1-5.6-.9-5.6-1.3s.3-.7.7-1.3c.6-.7 1.5-1.7 1.7-3.6 0-.2.1-.6.1-.9.2-1.5.4-3.8 1.3-5C5.8.9 8.2 1 8.5 1h.2c.7 0 2.6.2 3.5 1.5.8 1.2 1 3.5 1.2 5.1 0 .3.1.6.1.9.2 1.9 1.1 2.9 1.7 3.6.5.5.7.9.7 1.3.1.3-1 1-5.3 1.2z"/></svg>