<svg version="1" xmlns="http://www.w3.org/2000/svg" width="533.333" height="533.333" viewBox="0 0 400.000000 400.000000"><path d="M103.8 100.8c-1 .2-1.8.9-1.8 1.6 0 .7-2 2.1-4.4 3-4.9 1.9-11 8-13.2 13.2-.8 1.8-1.4 6.4-1.4 10.1 0 10.7 3 15 18.5 26.3 6.9 5.1 12.5 9.5 12.5 9.8 0 2.1-9.5 36.2-10 36.2-.4 0-1.5-1.2-2.5-2.6-1.6-2.5-1.6-3.1 1.6-15 2.9-11.1 3.1-12.8 2-16.4-2.8-9.5-17-10.8-21.6-2-3.4 6.5-1.3 14.8 6.6 26l4.1 5.8-1.3 5.6c-1.1 5.1-1.5 5.6-3.9 5.6-3.3 0-6 2.8-6 6.3 0 3.4 2.4 5.7 6 5.7 3.2 0 5.3-2.4 6.4-7.5.4-1.7 1.2-4.7 1.7-6.9l1-3.8 2.4 3.2c1.9 2.5 2.1 3.7 1.5 6.3-.5 1.8-3.2 12-6 22.7-5.6 21.2-5.8 24.5-1.3 28 4.9 3.8 12.1 2 14.8-3.7 1.5-3.1 1.5-3.9.3-7.2-1.4-3.6-1.4-3.7 3.5-11.6 2.7-4.4 5.1-8.1 5.2-8.3.2-.2 4.9 6.2 10.5 14.2 5.6 8 11.3 15.5 12.7 16.6 6 4.7 15.3.2 15.3-7.3 0-4.4-4-9.4-7.8-9.9-2.5-.3-3.1-1.4-9.9-20.8-7.5-21-9.8-25-14.4-25-1 0-1.9-.4-1.9-.9 0-1.2 8.7-20.1 9.3-20.1.2 0 3.7 2.5 7.7 5.5 4.9 3.6 8.3 5.5 10.2 5.5 2 0 2.8.5 2.8 1.7 0 1 .9 10.5 2 21.2 2.2 22.2 4 27.6 12.3 36.7 18.4 20.4 47 20.4 65.4 0 8.3-9.1 10.1-14.5 12.3-36.7 1.1-10.7 2-20.2 2-21.2 0-1.2.8-1.7 2.8-1.7 1.9 0 5.3-1.9 10.2-5.5 4-3 7.5-5.5 7.7-5.5.6 0 9.3 18.9 9.3 20.1 0 .5-.9.9-1.9.9-4.6 0-6.9 4-14.4 25-6.8 19.4-7.4 20.5-9.9 20.8-3.8.5-7.8 5.5-7.8 9.9 0 7.5 9.3 12 15.3 7.3 1.4-1.1 7.1-8.6 12.7-16.6 5.6-8 10.3-14.4 10.5-14.2.1.2 2.5 3.9 5.2 8.3 4.9 7.9 4.9 8 3.5 11.6-1.2 3.3-1.2 4.1.3 7.2 2.7 5.7 9.9 7.5 14.8 3.7 4.5-3.5 4.3-6.8-1.3-28-2.8-10.7-5.5-20.9-6-22.7-.6-2.6-.4-3.8 1.5-6.3l2.4-3.2 1 3.8c.5 2.2 1.3 5.2 1.7 6.9 1.1 5.1 3.2 7.5 6.4 7.5 3.6 0 6-2.3 6-5.9 0-3.4-2.8-6.1-6.2-6.1-2.2 0-2.6-.6-3.7-5.6l-1.3-5.6 4.1-5.8c7.9-11.2 10-19.5 6.6-26-4.6-8.8-18.8-7.5-21.6 2-1.1 3.6-.9 5.3 2 16.4 3.2 11.9 3.2 12.5 1.6 15-1 1.4-2.1 2.6-2.5 2.6-.5 0-10-34.1-10-36.2 0-.3 5.6-4.7 12.5-9.8 15.5-11.3 18.5-15.6 18.5-26.3 0-3.7-.6-8.3-1.4-10.1-2.2-5.2-8.3-11.3-13.2-13.2-2.4-.9-4.4-2.2-4.4-2.9 0-.7-.9-1.5-2-1.8-1.3-.3-2 0-2 1 0 1.1-1.3 1.4-5.7 1.3-11.9-.3-11.3-.6-11.3 4.5 0 4.1.2 4.5 2.4 4.5 2.8 0 4.8 2.1 3.7 3.9-.6.9-2.6 1.1-8.1.5-6.7-.6-7.2-.6-6.8 1.2.3 1.6 1.6 2 7.2 2.7 9 1 11.9-.6 11.4-6.1-.2-2.9-.9-4-3.1-5-4-1.9-2.2-2.9 4.6-2.4l5.7.4v6.7c0 9.5-1.3 10.6-11.6 9.6l-7.7-.7.5 2.4c.4 1.8-.5 3.2-4.3 6.6l-4.8 4.4-2.2-4.4c-1.6-3-2.3-6.1-2.4-10.1 0-5.2-.4-6.2-2.8-8.3-3.3-2.8-9.1-3.2-12.5-.8-2.2 1.5-2.2 1.5-2.2-4V103h-88v5.6c0 5.5 0 5.5-2.2 4-3.4-2.4-9.2-2-12.5.8-2.4 2-2.8 3.2-2.8 7.9-.1 3.6-.9 7.4-2.4 10.4l-2.2 4.9-4.9-4.9c-3.5-3.5-4.7-5.3-4.3-6.8.6-2 .3-2.1-7.1-1.4-10.3 1-11.6-.1-11.6-9.5v-6.8l5.8-.5c6.6-.6 8.6.5 4.5 2.5-2.2 1-2.9 2.1-3.1 5-.5 5.5 2.4 7.1 11.4 6.1 5.6-.7 6.9-1.1 7.2-2.7.4-1.8-.1-1.8-6.8-1.2-5.5.6-7.5.4-8.1-.5-1.1-1.8.9-3.9 3.7-3.9 2.2 0 2.4-.4 2.4-4.5V103h-8.4c-6 0-8.5-.4-8.8-1.3-.2-.7-1.1-1.1-2-.9zm60.6 7.8c.3.9.6 2.7.6 4 0 1.5.6 2.4 1.5 2.4 1.1 0 1.5-1.1 1.5-4 0-3.6.3-4 2.5-4 2.4 0 2.5.3 2.5 6v6h-5.9c-6.5 0-7.1-.6-7.1-8.3 0-3 .4-3.7 1.9-3.7 1 0 2.2.7 2.5 1.6zM181 111c0 3.3.3 4 2 4s2-.7 2-4.1c0-3.6.2-4 2.3-3.7 1.9.3 2.2 1 2.5 6l.3 5.8H177v-6c0-5.3.2-6 2-6 1.7 0 2 .7 2 4zm17 0c0 3.3.3 4 2 4s2-.7 2-4.1c0-3.6.2-4 2.3-3.7 1.9.3 2.2.9 2.1 4.3-.3 8 .1 7.5-6.3 7.5-6.4 0-7.1-.7-7.1-7.6 0-3.5.6-4.4 3.2-4.4 1.4 0 1.8.8 1.8 4zm17 0c0 3.3.3 4 2 4s2-.7 2-4 .3-4 2-4c1.8 0 2 .7 2 6v6h-13v-5.3c0-5.8.4-6.7 3.2-6.7 1.4 0 1.8.8 1.8 4zm17 0c0 2.9.4 4 1.5 4 .9 0 1.5-.9 1.5-2.4 0-3.7 1-5.6 3.1-5.6 1.5 0 1.9.7 1.9 3.7 0 7.7-.6 8.3-7.1 8.3H227v-6c0-5.7.1-6 2.5-6 2.3 0 2.5.4 2.5 4zm-130 4.4c0 5.4.4 7 2.4 9.2 2.2 2.7 3 2.9 12.2 3.3 2.6.2 10.5 6.6 13.3 10.8 3.4 5.1 5.7 13.8 4.7 17.8l-.7 2.6-4.9-3.6c-5-3.7-7-3.8-7-.7 0 2.4 24.7 20.5 26.8 19.7 2.2-.8 5.1.4 6.3 2.6 1.4 2.6-1.3 6.9-4.2 6.9-2.4 0-53.7-37.4-58.6-42.7-6.3-6.9-6.6-18.3-.6-25.4 2.6-3 7.9-6.9 9.6-6.9.4 0 .7 2.9.7 6.4zm199.9-5c4.2 2.2 8.9 8.1 10.2 12.8 1.6 6.1-.2 13.5-4.4 18.1-4.9 5.3-56.2 42.7-58.6 42.7-2.9 0-5.6-4.3-4.2-6.8 1.3-2.4 3.7-3.4 6.2-2.7 2.3.8 26.9-17.2 26.9-19.7 0-3.1-2-3-7 .7l-4.9 3.6-.7-2.6c-1-4 1.3-12.7 4.7-17.8 2.8-4.2 10.7-10.6 13.3-10.8 9.2-.4 10-.6 12.2-3.3 2-2.2 2.4-3.8 2.4-9.2 0-3.5.2-6.4.5-6.4.4 0 1.9.7 3.4 1.4zm-151 6.2c3.1 2.2 2.7 4-5.5 20.9l-6.8 14-.9-5c-.8-4.6-.6-5.6 3.1-13.4 3.5-7.4 3.8-8.7 2.8-11.3-1-2.6-.8-3.2 1.3-4.9 2.8-2.3 3.1-2.3 6-.3zm104.2.3c2.1 1.7 2.3 2.3 1.3 4.9-1 2.6-.7 3.9 2.8 11.3 3.7 7.8 3.9 8.8 3.1 13.4l-.9 5-6.8-14c-8.2-16.9-8.6-18.7-5.5-20.9 2.9-2 3.2-2 6 .3zm-81.7 8.3c1 3.8.8 3.9-5.6 3.6-6-.3-6.3-.4-6.6-3.1-.3-2.7-.3-2.7 5.6-2.7 5.3 0 6 .2 6.6 2.2zm16.6.8v3h-13v-6h13v3zm16 0v3h-12v-6h12v3zm17 0v3h-13v-6h13v3zm15.8-.3c-.3 2.7-.6 2.8-6.5 3.1-6.5.3-6.7.2-5.7-3.6.6-2 1.3-2.2 6.6-2.2 5.9 0 5.9 0 5.6 2.7zm-80.8 4.7c0 2.4.3 6.4.6 9l.7 4.6h81.4l.7-4.6c.3-2.6.6-6.6.6-9 0-2.3.3-4.5.8-4.7.4-.3 4.3 7.2 8.6 16.7 4.4 9.4 8.3 17.9 8.8 18.8.6 1.3-.2 2.5-3.9 5.3-2.5 1.9-5.1 3.4-5.7 3.2-1.1-.4-1.1-9.3 0-15l.6-2.7H148.8l.6 2.7c1.1 5.7 1.1 14.6 0 15-.6.2-3.2-1.3-5.7-3.2-3.7-2.8-4.5-4-3.9-5.3.5-.9 4.4-9.4 8.8-18.8 4.3-9.5 8.2-17 8.7-16.7.4.2.7 2.4.7 4.7zm80 6.1v3.5h-76v-7h76v3.5zm7.2 20c1.2 1.2-1.3 13.8-3.2 16.2-2.3 3-2.7 9-.6 11.8.7 1 1.2 3 1 4.4-.1 1.5-1 10.7-2 20.6-.9 9.9-2 19.1-2.6 20.4-.9 2.4-1.1 2.3-9.6-6-4.8-4.7-19.9-19.3-33.7-32.4-13.7-13.1-27.7-26.5-31-29.7l-6-5.8h43.6c24 0 43.8.2 44.1.5zm-83.3 15.3c-5.2.4-6-.4-6.6-6.5l-.5-4.8 5.6 5.5 5.7 5.5-4.2.3zM99 166c2.5 2.5 2.5 4.2-.1 14.3-2.6 10.2-2.8 10.5-5.1 7.6-8.7-10.8-8.8-23.9-.2-23.9 2.1 0 4.2.8 5.4 2zm212.4.2c2.3 3.2 1.9 8.5-.8 14.3-3 6-6.1 10.1-6.9 8.9-.9-1.5-4.7-17.1-4.7-19.3 0-5.5 9.3-8.4 12.4-3.9zm-188 5c2.2 1.7 4.2 3.3 4.4 3.4.1.1-3.5 8.2-8.1 18.1-8.9 19-9.1 20.1-3.9 21.7 1.2.4 2.7 1.6 3.3 2.7 1.2 2.2.7 3.2-10.5 20.7l-6.5 10.4 2 2.8c2.6 3.4 1.8 6.7-1.8 7.6-3 .8-5.6-.5-6.1-3-.4-1.8 21.8-87.6 22.6-87.6.2 0 2.3 1.4 4.6 3.2zm169.5 39.7c6.2 23.6 11.1 43.7 10.9 44.7-.5 2.5-3.1 3.8-6.1 3-3.6-.9-4.4-4.2-1.8-7.6l2-2.8-6.5-10.4c-11.2-17.5-11.7-18.5-10.5-20.7.6-1.1 2.1-2.3 3.3-2.7 5.2-1.6 5-2.7-3.9-21.7-7.8-16.7-8.3-18-6.6-19.2 1-.7 2.9-2.2 4.3-3.4 1.4-1.1 2.8-2 3.1-2.1.3 0 5.6 19.3 11.8 42.9zM175 179.5l3.4 3.5H160v-7h5.8c5.3 0 6.1.3 9.2 3.5zm9.7 9.7c1.8 1.8 3.3 3.6 3.3 4 0 .4-6.7.8-14.9.8h-14.9l-.5-3.3c-.2-1.7-.3-3.5 0-4 .2-.4 5.7-.7 12.1-.7h11.6l3.3 3.2zm12.1 11.3l3.7 3.4-20.6.1h-20.7l-.4-3c-.3-1.7-.2-3.2 0-3.5.3-.3 8.1-.5 17.4-.5H193l3.8 3.5zm-71.2 3.9c1.4 1 4.5 8.4 9.9 23.6 7.3 20.6 7.9 22.1 10 21.6 3.2-.8 6.7 2 6.3 5.1-.2 1.4-1 3-1.9 3.6-3.6 2.3-6.3-.2-17.3-15.9-9.8-14.2-10.7-15.9-9.7-18.1 2.4-5.3 1-11.3-3.4-13.5l-2.5-1.3 2-3.3c2.2-3.5 3.5-3.9 6.6-1.8zm155.4 1.8l2 3.3-2.5 1.3c-4.4 2.2-5.8 8.2-3.4 13.6 1 2.2.3 3.6-8.6 16.3-5.4 7.6-10.7 14.8-11.8 16-3.5 3.9-8.7 2.5-8.7-2.3 0-2.9 3.7-5.5 6.5-4.8 2.1.5 2.7-1 10-21.6 7.6-21.5 9.4-25 13.2-25 .7 0 2.2 1.5 3.3 3.2zm-73 5.3l3.4 3.5h-51.2l-.4-3c-.3-1.7-.2-3.2 0-3.5.3-.3 10.5-.5 22.7-.5h22.1l3.4 3.5zm12 11l3.4 3.5H161v-7h55.6l3.4 3.5zm11 11l3.4 3.5-34.9-.2-34.9-.3-1.3-3.3-1.3-3.2h65.6l3.4 3.5zm1 8.2c0 .4-1.2 2-2.7 3.5l-2.7 2.8h-53.2l-2.7-2.8c-1.5-1.5-2.7-3.1-2.7-3.5 0-.4 14.4-.7 32-.7s32 .3 32 .7zm-12.8 11.9c-4.2 2.9-13 5.4-19.2 5.4-6.2 0-15-2.5-19.2-5.4-2.1-1.5-.7-1.6 19.2-1.6s21.3.1 19.2 1.6zM0 369v31h400v-62H0v31z"/></svg>