<svg xmlns="http://www.w3.org/2000/svg" width="38.312" height="53.812" viewBox="0 0 38.312 53.812"><path fill-rule="evenodd" clip-rule="evenodd" fill="#453D3D" d="M8.41 32.78L.243 53.812l14.01-17.646L8.41 32.78z"/><path fill-rule="evenodd" clip-rule="evenodd" fill="#C51111" d="M.192 24.694c-1.165 2 3 6.7 10.5 11 7.421 4.3 13.5 5.6 14.7 3.622.481-.838 3.375-5.864 3.375-5.864L3.566 18.83c0-.03-2.166 3.87-3.366 5.864z"/><path fill-rule="evenodd" clip-rule="evenodd" fill="#E82020" d="M18.248 22.452c7.422 4.3 11.6 8.9 10.5 11-1.165 2.025-7.512 1.116-14.935-3.185-7.422-4.3-11.376-9.365-10.212-11.389C4.73 16.8 10.8 18.2 18.2 22.452z"/><path fill-rule="evenodd" clip-rule="evenodd" fill="#B30F0F" d="M21.444 29.198c-.699 1.214-2.447 1.507-6.57-.881-4.123-2.39-4.738-4.065-4.04-5.281L19.69 7.642l10.61 6.162c0-.004-8 13.996-8.9 15.394z"/><path fill-rule="evenodd" clip-rule="evenodd" fill="#C51111" d="M36.694 16.532c-1.164 2.025-5.964 1.424-13.386-2.876-7.423-4.301-10.333-8.183-9.169-10.208.472-.819 1.298-2.283 1.298-2.283l22.556 13.1c0-.065.607-1.065-1.293 2.267z"/><path fill-rule="evenodd" clip-rule="evenodd" fill="#E82020" d="M28.728 4.209c7.423 4.3 10.5 7.9 9.3 9.9-1.165 2.025-6.002 1.493-13.426-2.808-7.423-4.3-10.295-8.252-9.13-10.275C16.681-.993 21.306-.092 28.7 4.209z"/></svg>