<?xml version="1.0" encoding="UTF-8"?><!DOCTYPE svg PUBLIC "-//W3C//DTD SVG 1.1//EN" "http://www.w3.org/Graphics/SVG/1.1/DTD/svg11.dtd"><svg xmlns="http://www.w3.org/2000/svg" xmlns:xlink="http://www.w3.org/1999/xlink"><defs>
    <path d="M13 5H1V3h12v2zm-1 12H2V6.001L12 6v11zm-2-9v7H9V8h1zM7.5 8v7h-1V8h1zM5 8v7H4V8h1zm4-7v1H5V1h4zm5 2c0-.551-.448-1-1-1h-3V1c0-.551-.448-1-1-1H5c-.551 0-1 .449-1 1v1H1c-.551 0-1 .449-1 1v3.001h1V18h12V6h1V3z" id="a"/>
  </defs><symbol id="ico_allservices" viewBox="0 0 16 15">
    <!-- Generator: Sketch 52.2 (67145) - http://www.bohemiancoding.com/sketch -->
    <title>ico_allservices</title>
    <desc>Created with Sketch.</desc>
    <g id="Page-1" stroke="none" stroke-width="1" fill="none" fill-rule="evenodd">
        <g id="ico_allservices" fill="currentColor">
            <rect id="Rectangle" x="4" y="1" width="12" height="1"/>
            <rect id="Rectangle" x="4" y="5" width="11" height="1"/>
            <rect id="Rectangle" x="4" y="9" width="12" height="1"/>
            <rect id="Rectangle" x="4" y="13" width="9" height="1"/>
            <circle id="Oval" cx="1" cy="1.5" r="1"/>
            <circle id="Oval" cx="1" cy="5.5" r="1"/>
            <circle id="Oval" cx="1" cy="13.5" r="1"/>
            <circle id="Oval" cx="1" cy="9.5" r="1"/>
        </g>
    </g>
</symbol><symbol id="ico_archive_box" viewBox="0 0 14 13"><path d="M13.46,2A1.5,1.5,0,0,0,12,.5H2A1.5,1.5,0,0,0,.54,2V4.27h.64V11a1.5,1.5,0,0,0,1.5,1.5h8.65a1.5,1.5,0,0,0,1.5-1.5V4.27h.64ZM1.54,2A.5.5,0,0,1,2,1.5H12a.5.5,0,0,1,.5.5V3.27H1.54Zm10.29,9a.5.5,0,0,1-.5.5H2.67a.5.5,0,0,1-.5-.5V4.27h9.65ZM9,6H5V5H9Z"/></symbol><symbol id="ico_archive_box_open" viewBox="0 0 22 22">
<path d="M14.3,8.9c0,0.5-0.4,0.8-0.8,0.8H8.6c-0.5,0-0.8-0.4-0.8-0.8c0-0.5,0.4-0.8,0.8-0.8h4.8C13.9,8.1,14.3,8.5,14.3,8.9z
	 M20.2,5.7V19c0,0.8-0.7,1.5-1.5,1.5H3.3c-0.8,0-1.5-0.7-1.5-1.5V5.7h2V1.5h14.4v4.2H20.2z M19.2,6.7h-1H3.8h-1V19
	c0,0.3,0.2,0.5,0.5,0.5h15.3c0.3,0,0.5-0.2,0.5-0.5V6.7z"/>
</symbol><symbol id="ico_archive_box_thin" viewBox="0 0 22 22">
<path d="M21.2,3c0-0.8-0.7-1.5-1.5-1.5H2.3C1.5,1.5,0.8,2.2,0.8,3v3.7h1V19c0,0.8,0.7,1.5,1.5,1.5h15.3c0.8,0,1.5-0.7,1.5-1.5V6.7h1
	V3z M19.2,19c0,0.3-0.2,0.5-0.5,0.5H3.3c-0.3,0-0.5-0.2-0.5-0.5V6.7h16.3V19z M20.2,5.7L20.2,5.7H1.8h0V3c0-0.3,0.2-0.5,0.5-0.5
	h17.4c0.3,0,0.5,0.2,0.5,0.5V5.7z M7.7,8.9c0-0.5,0.4-0.8,0.8-0.8h4.8c0.5,0,0.8,0.4,0.8,0.8s-0.4,0.8-0.8,0.8H8.6
	C8.1,9.8,7.7,9.4,7.7,8.9z"/>
</symbol><symbol id="ico_arrow_down" viewBox="0 0 12 19">
  <path d="M.1497 13.2592L5.9969 19l5.9502-5.7377-.6942-.7198-4.7539 4.5849L6.5.2024h-1l-.001 16.908-4.6487-4.5648z" fill-rule="evenodd"/>
</symbol><symbol id="ico_arrow_small_right" viewBox="0 0 25 14">
<path fill="#0070BC" d="M24.9,7.3L24.9,7.3C24.9,7.4,24.9,7.4,24.9,7.3l-6.3,6.5c-0.1,0.1-0.2,0.2-0.4,0.2c-0.1,0-0.3,0-0.3-0.1
	c-0.2-0.2-0.2-0.5,0-0.7l5.5-5.7H0.5C0.2,7.5,0,7.3,0,7s0.2-0.5,0.5-0.5h22.8l-5.5-5.7c-0.2-0.2-0.2-0.5,0-0.7C18,0,18.3,0,18.5,0.2
	l6.3,6.5c0,0,0,0,0,0l0,0c0,0,0,0,0,0.1c0,0,0.1,0.1,0.1,0.1c0,0.1,0,0.1,0,0.2c0,0,0,0,0,0s0,0,0,0c0,0.1,0,0.1,0,0.2
	C24.9,7.2,24.9,7.3,24.9,7.3C24.9,7.3,24.9,7.3,24.9,7.3z"/>
</symbol><symbol id="ico_arrow_up" viewBox="0 0 12 19">
  <path d="M.1497 5.9432L5.9969.2024 11.947 5.94l-.6942.7198L6.499 2.075 6.5 19h-1L5.499 2.092.8503 6.6568z" fill-rule="evenodd"/>
</symbol><symbol id="ico_arrow_xsmall" viewBox="0 0 19.1 12.1">
<path fill="currentColor" d="M18.9,6.4l-5.4,5.5c-0.1,0.1-0.2,0.2-0.4,0.2c-0.1,0-0.3,0-0.3-0.1c-0.2-0.2-0.2-0.5,0-0.7l4.6-4.7H0.5
	C0.2,6.5,0,6.3,0,6s0.2-0.5,0.5-0.5h16.9l-4.6-4.7c-0.2-0.2-0.2-0.5,0-0.7C13,0,13.3,0,13.5,0.2l5.4,5.5C19.1,5.9,19.1,6.2,18.9,6.4
	z"/>
</symbol><symbol id="ico_arrow_xsmall_right_down" viewBox="0 0 8 8">
<path fill="currentColor" class="st0" d="M7.7,7.3C7.7,7.3,7.8,7.3,7.7,7.3C7.7,7.3,7.7,7.3,7.7,7.3c0,0.1,0,0.1,0,0.1c0,0,0,0,0,0.1c0,0,0,0,0,0
	c0,0,0,0.1-0.1,0.1c0,0,0,0.1-0.1,0.1c0,0,0,0,0,0c0,0,0,0,0,0c0,0-0.1,0-0.1,0.1c0,0,0,0-0.1,0c0,0,0,0,0,0c0,0-0.1,0-0.1,0
	c0,0,0,0-0.1,0c0,0,0,0,0,0s0,0,0,0L2.1,7.6c-0.3,0-0.5-0.2-0.5-0.5c0-0.3,0.2-0.5,0.5-0.5L6,6.7L0.4,1.1c-0.2-0.2-0.2-0.5,0-0.7
	s0.5-0.2,0.7,0L6.7,6L6.6,2.1c0-0.3,0.2-0.5,0.5-0.5c0.3,0,0.5,0.2,0.5,0.5L7.7,7.3C7.8,7.2,7.7,7.2,7.7,7.3
	C7.7,7.2,7.7,7.3,7.7,7.3z"/>
</symbol><symbol id="ico_bell">
  <path d="M17 13.3c0-.8-.5-1.3-1-1.9-.6-.7-1.3-1.5-1.5-3.1 0-.2-.1-.5-.1-.9-.2-1.6-.4-4.1-1.3-5.5C11.9.1 9.2 0 8.5 0 8 0 5.2 0 3.9 1.9 3 3.4 2.7 5.8 2.6 7.4c0 .3-.1.6-.1.9-.2 1.6-.9 2.4-1.5 3.1-.5.6-1 1.1-1 1.9 0 1.2 1.7 2 5.3 2.2v.2c0 1.8 1.5 3.3 3.4 3.3s3.4-1.5 3.4-3.3v-.2c3.3-.3 4.9-1 4.9-2.2zM8.6 18c-1.3 0-2.4-1.1-2.4-2.3v-.1H11v.1c.1 1.3-1 2.3-2.4 2.3zm2-3.4c-1.2.1-2.1 0-2.2 0H6.6c-4.4-.1-5.6-.9-5.6-1.3s.3-.7.7-1.3c.6-.7 1.5-1.7 1.7-3.6 0-.2.1-.6.1-.9.2-1.5.4-3.8 1.3-5C5.8.9 8.2 1 8.5 1h.2c.7 0 2.6.2 3.5 1.5.8 1.2 1 3.5 1.2 5.1 0 .3.1.6.1.9.2 1.9 1.1 2.9 1.7 3.6.5.5.7.9.7 1.3.1.3-1 1-5.3 1.2z" fill-rule="nonzero"/>
</symbol><symbol id="ico_calendar" viewBox="0 0 20 20">
<path fill="currentColor" d="M19.4,2.4h-5.3V0.6c0-0.4-0.4-0.6-0.6-0.6c-0.2,0-0.6,0.2-0.6,0.6v1.8H7.1V0.6C7.1,0.2,6.7,0,6.5,0S5.9,0.2,5.9,0.6v1.8H0.6
	C0.2,2.4,0,2.7,0,2.9v16.5C0,19.8,0.2,20,0.6,20h18.8c0.4,0,0.6-0.2,0.6-0.6V2.9C20,2.7,19.8,2.4,19.4,2.4z M18.8,18.8H1.2V3.5h4.7
	v1.6c0,0.5,0.2,0.7,0.6,0.7s0.6-0.2,0.6-0.6V3.5h5.9v1.6c0,0.5,0.2,0.7,0.6,0.7c0.4,0,0.6-0.2,0.6-0.6V3.5h4.7V18.8z M6.5,8.4v1.8
	c0,0.4-0.2,0.6-0.6,0.6H4.1c-0.4,0-0.6-0.2-0.6-0.6V8.4c0-0.4,0.2-0.6,0.6-0.6h1.8C6.2,7.8,6.5,8.1,6.5,8.4z M11.4,8.4v1.8
	c0,0.4-0.2,0.6-0.6,0.6H9.2c-0.4,0-0.6-0.2-0.6-0.6V8.4c0-0.4,0.2-0.6,0.6-0.6h1.8C11.2,7.8,11.4,8.1,11.4,8.4z M14.1,7.8h1.8
	c0.4,0,0.6,0.2,0.6,0.6v1.8c0,0.4-0.2,0.6-0.6,0.6h-1.8c-0.4,0-0.6-0.2-0.6-0.6V8.4C13.5,8.1,13.8,7.8,14.1,7.8z M6.5,13.5v1.8
	c0,0.4-0.2,0.6-0.6,0.6H4.1c-0.4,0-0.6-0.2-0.6-0.6v-1.8c0-0.4,0.2-0.6,0.6-0.6h1.8C6.2,12.9,6.5,13.2,6.5,13.5z M11.4,13.5v1.8
	c0,0.4-0.2,0.6-0.6,0.6H9.2c-0.4,0-0.6-0.2-0.6-0.6v-1.8c0-0.4,0.2-0.6,0.6-0.6h1.8C11.2,12.9,11.4,13.2,11.4,13.5z M16.5,13.5v1.8
	c0,0.4-0.2,0.6-0.6,0.6h-1.8c-0.4,0-0.6-0.2-0.6-0.6v-1.8c0-0.4,0.2-0.6,0.6-0.6h1.8C16.2,12.9,16.5,13.2,16.5,13.5z"/>
</symbol><symbol id="ico_clock_process" viewBox="0 0 22 22">
<path id="Page-1" d="M19.8,7.4C17.7,2.4,12-0.1,7,2C6,2.3,5.1,2.8,4.3,3.4l0.2-1.5C4.6,1.5,4.4,1.2,4,1.1S3.3,1.2,3.2,1.6
	c0,0,0,0.1,0,0.1L2.7,5.2l0,0c0,0,0,0.1,0,0.1c0,0,0,0.1,0,0.1c0,0,0,0.1,0,0.1v0.1l0,0l0.1,0.1l0.1,0.1L3,5.9h3.6
	C7,6,7.4,5.7,7.4,5.3S7.2,4.5,6.8,4.5H5c0.8-0.5,1.6-1,2.5-1.3c4.3-1.7,9.3,0.3,11,4.7s-0.3,9.3-4.7,11c-4.3,1.7-9.3-0.3-11-4.7
	c-0.2-0.3-0.6-0.5-0.9-0.3c-0.3,0.2-0.4,0.5-0.3,0.8c2,5,7.8,7.5,12.8,5.4S21.8,12.4,19.8,7.4z M9.3,11.3c0,0.1,0,0.1,0,0.2l0,0
	c0,0.1,0.1,0.1,0.1,0.2l0,0c0,0,0.1,0.1,0.2,0.1l0,0l5.6,2.4c0.4,0.1,0.8,0,0.9-0.4s0-0.8-0.4-0.9l-5-2.1V7c0-0.4-0.4-0.6-0.8-0.6
	C9.7,6.4,9.4,6.7,9.4,7L9.3,11.3L9.3,11.3z"/>
</symbol><symbol id="ico_cross" viewBox="0 0 11 11"><path fill="" d="M6.21,5.5l4.4,4.4-.71.71L5.5,6.21l-4.4,4.4L.39,9.9l4.4-4.4L.39,1.1,1.1.39l4.4,4.4L9.9.39l.71.71Z"/></symbol><symbol id="ico_document" viewBox="0 0 15 20">
<path fill="" d="M15,5.3c0,0,0-0.1-0.1-0.1c0,0,0,0,0,0l-4.9-5c0,0,0,0,0,0c0,0-0.1-0.1-0.2-0.1C9.7,0,9.6,0,9.6,0H0.5
	C0.2,0,0,0.2,0,0.5v19C0,19.8,0.2,20,0.5,20h14c0.3,0,0.5-0.2,0.5-0.5v-14C15,5.4,15,5.3,15,5.3z M10.1,1.7L13.3,5h-3.2V1.7z M1,19
	V1h8.1v4.5C9.1,5.7,9.3,6,9.6,6H14v13H1z"/>
</symbol><symbol id="ico_download" viewBox="0 0 40 40">
    <path d="M20 10C18.0223 10.0001 16.0889 10.5866 14.4445 11.6855C12.8 12.7843 11.5183 14.3461 10.7615 16.1733C10.0046 18.0005 9.80655 20.0111 10.1924 21.9509C10.5782 23.8907 11.5305 25.6725 12.9289 27.0711C14.0918 28.2339 15.5235 29.092 17.0971 29.5694C18.6708 30.0468 20.338 30.1287 21.9509 29.8078C23.5638 29.487 25.0727 28.7734 26.3439 27.7301C27.6151 26.6868 28.6094 25.3462 29.2388 23.8268C29.8681 22.3075 30.113 20.6564 29.9518 19.0199C29.7906 17.3833 29.2283 15.8117 28.3147 14.4443C27.401 13.077 26.1643 11.956 24.714 11.1808C23.2637 10.4056 21.6445 10 20 10ZM23.95 21.6631L20.4434 25.8L20.4428 25.8006L20 26.3225L16.0456 21.655C15.9925 21.5924 15.9523 21.52 15.9272 21.4418C15.9022 21.3636 15.8928 21.2813 15.8996 21.1995C15.9097 21.0763 15.9562 20.9588 16.0331 20.862C16.11 20.7652 16.214 20.6934 16.3317 20.6557C16.4896 20.6053 16.6611 20.6195 16.8085 20.6951C16.8815 20.7327 16.9463 20.7843 16.9994 20.8469L19.3759 23.6522V14.3741C19.376 14.2505 19.4126 14.1297 19.4813 14.0269C19.55 13.9241 19.6476 13.844 19.7618 13.7967C19.876 13.7494 20.0017 13.737 20.1229 13.7611C20.2441 13.7852 20.3555 13.8447 20.4429 13.9321C20.501 13.9901 20.547 14.0591 20.5784 14.1349C20.6098 14.2107 20.6259 14.292 20.6259 14.3741V23.6522L22.9972 20.8553C23.1058 20.7338 23.2575 20.6596 23.4201 20.6483C23.5826 20.6371 23.7431 20.6898 23.8674 20.7951C23.9916 20.9005 24.0698 21.0502 24.0853 21.2124C24.1008 21.3746 24.0524 21.5364 23.9503 21.6634L23.95 21.6631V21.6631Z"/>
</symbol><symbol id="ico_drag_drop" viewBox="0 0 24 24">
<path d="M21.2,12.1l-3.6,3.6L17,15l2.5-2.5h-7v6.8l2.4-2.4l0.7,0.7
	l-3.6,3.6l-3.6-3.6l0.7-0.7l2.4,2.4v-6.8H4.7L7.2,15l-0.7,0.7l-3.7-3.6l3.6-3.6l0.7,0.7l-2.4,2.3h6.8V4.7L9.1,7.1L8.4,6.4l3.6-3.6
	l3.6,3.6l-0.7,0.7l-2.4-2.4v6.8h6.8l-2.4-2.4l0.7-0.7L21.2,12.1z"/>
</symbol><symbol id="ico_drag_drop2">
  <g fill="#6C7982" fill-rule="evenodd">
    <circle cx="1.5" cy="1.5" r="1.5"/>
    <circle cx="1.5" cy="6.5" r="1.5"/>
    <circle cx="6.5" cy="1.5" r="1.5"/>
    <circle cx="6.5" cy="6.5" r="1.5"/>
    <circle cx="1.5" cy="11.5" r="1.5"/>
    <circle cx="11.5" cy="1.5" r="1.5"/>
  </g>
</symbol><symbol id="ico_drag_drop3" viewBox="0 0 14 18">
  <path d="M9.2426 14.1213l-2.1213 3.1213L5 14.1213h4.2426zM13.5 11v1H.5v-1h13zm0-3v1H.5V8h13zm0-3v1H.5V5h13zM7.1213 0l2.1213 3.1213H5L7.1213 0z" fill="#4C4C4C" fill-rule="evenodd"/>
</symbol><symbol id="ico_envelope_circle_inverted" viewBox="0 0 22 22">
<path d="M8,6.5c0,2.2-1.8,4-4,4s-4-1.8-4-4s1.8-4,4-4S8,4.3,8,6.5z M20.5,7.5H8.9c-0.1,0.3-0.2,0.7-0.3,1h12l-7.5,5
	c-0.3,0.2-0.8,0.2-1.1,0l-4.8-3.2c-0.3,0.2-0.6,0.4-0.9,0.6l5.1,3.4c0.7,0.4,1.5,0.4,2.2,0L21,9.4V18c0,0.3-0.2,0.5-0.5,0.5h-16
	C4.2,18.5,4,18.3,4,18v-6.5c-0.3,0-0.7,0-1-0.1V18c0,0.8,0.7,1.5,1.5,1.5h16c0.8,0,1.5-0.7,1.5-1.5V9C22,8.2,21.3,7.5,20.5,7.5z"/>
</symbol><symbol id="ico_envelope_circle_inverted_checkmark" viewBox="0 0 22 22">
<path id="Page-1" d="M8,6.5c0-2.2-1.8-4-4-4s-4,1.8-4,4s1.8,4,4,4S8,8.7,8,6.5z M1.6,7.2l0.6-0.8l1.2,1l2.1-2.9l0.8,0.6L3.6,8.8
	L1.6,7.2z M22,9v9c0,0.8-0.7,1.5-1.5,1.5h-16C3.7,19.5,3,18.8,3,18v-6.6c0.3,0.1,0.7,0.1,1,0.1V18c0,0.3,0.2,0.5,0.5,0.5h16
	c0.3,0,0.5-0.2,0.5-0.5V9.4l-7.4,4.9c-0.7,0.4-1.5,0.4-2.2,0l-5.1-3.4c0.3-0.2,0.6-0.4,0.9-0.6l4.8,3.2c0.3,0.2,0.8,0.2,1.1,0l7.5-5
	h-12c0.1-0.3,0.2-0.7,0.3-1h11.6C21.3,7.5,22,8.2,22,9z"/>
</symbol><symbol id="ico_exclamation_mark_inverted" viewBox="0 0 15 15"><path d="M7.5,0A7.5,7.5,0,1,0,15,7.5,7.5,7.5,0,0,0,7.5,0Zm0,12a1,1,0,1,1,1-1A1,1,0,0,1,7.5,12Zm.8-6L8,9H7L6.7,6,6.5,3h2Z"/></symbol><symbol id="ico_expand" viewBox="0 0 11 15">
<path fill="#0C70B7" d="M11,0.5L11,0.5l0,5C11,5.8,10.8,6,10.5,6S10,5.8,10,5.5V1.7L3.8,7.9C3.7,8,3.6,8,3.5,8S3.2,8,3.1,7.9
	c-0.2-0.2-0.2-0.5,0-0.7L9.3,1H5.5C5.2,1,5,0.8,5,0.5S5.2,0,5.5,0h5c0,0,0,0,0,0c0.1,0,0.1,0,0.2,0c0.1,0,0.1,0.1,0.1,0.1
	c0,0,0,0,0,0c0,0,0,0,0,0c0,0,0.1,0.1,0.1,0.1C11,0.4,11,0.4,11,0.5z M7.2,7.1L1,13.3V9.5C1,9.2,0.8,9,0.5,9S0,9.2,0,9.5v5l0,0
	c0,0.1,0,0.1,0,0.2c0.1,0.1,0.1,0.2,0.3,0.3c0.1,0,0.1,0,0.2,0h5C5.8,15,6,14.8,6,14.5S5.8,14,5.5,14H1.7l6.2-6.2
	c0.2-0.2,0.2-0.5,0-0.7C7.7,6.9,7.4,6.9,7.2,7.1z"/>
</symbol><symbol id="ico_external_links" viewBox="0 0 22 17">
<path fill="#0070BC" d="M22,4.4c0,0.1-0.1,0.3-0.2,0.4l-4.1,3.9c-0.1,0.1-0.2,0.1-0.3,0.1c-0.1,0-0.3-0.1-0.4-0.2
	c-0.2-0.2-0.2-0.5,0-0.7l3.2-3.1h-6.2c-4.3,0-7.8,3.4-7.8,7.5c0,0.3-0.2,0.5-0.5,0.5s-0.5-0.2-0.5-0.5c0-4.7,4-8.5,8.8-8.5h6.2
	L17,0.9c-0.2-0.2-0.2-0.5,0-0.7c0.2-0.2,0.5-0.2,0.7,0l4.1,3.9C21.9,4.2,22,4.3,22,4.4z M19.1,10.9c-0.3,0-0.5,0.2-0.5,0.5V16H1V3.9
	h5.6c0.3,0,0.5-0.2,0.5-0.5S6.9,2.9,6.6,2.9H0V17h19.6v-5.6C19.6,11.2,19.4,10.9,19.1,10.9z"/>
</symbol><symbol id="ico_facebook_comment" viewBox="0 0 15 13.9">
<path fill="#0070BC" d="M11.6,0H3.4C1.5,0,0,1.5,0,3.4v3.7c0,1.9,1.5,3.4,3.4,3.4h0.4l1.5,3c0.1,0.2,0.2,0.3,0.4,0.3c0,0,0,0,0,0
	c0.2,0,0.3-0.1,0.4-0.2l2.3-3.1h3c1.9,0,3.4-1.5,3.4-3.4V3.4C15,1.5,13.5,0,11.6,0z M14,7.1c0,1.3-1.1,2.4-2.4,2.4H8.3
	C8.2,9.6,8,9.6,7.9,9.8l-2,2.7L4.6,9.8C4.5,9.7,4.4,9.6,4.2,9.6H3.4C2.1,9.6,1,8.5,1,7.1V3.4C1,2.1,2.1,1,3.4,1h8.2
	C12.9,1,14,2.1,14,3.4V7.1z"/>
</symbol><symbol id="ico_fullscreen" viewBox="0 0 16 16">
    <!-- Generator: Sketch 52.2 (67145) - http://www.bohemiancoding.com/sketch -->
    <title>Shape</title>
    <desc>Created with Sketch.</desc>
    <g id="Page-1" stroke="none" stroke-width="1" fill="none" fill-rule="evenodd">
        <g id="download" transform="translate(-3.000000, -48.000000)" fill="#000000" fill-rule="nonzero">
            <path d="M3,48 L3,54 L5,54 L5,50 L9,50 L9,48 L3,48 Z M13,48 L13,50 L17,50 L17,54 L19,54 L19,48 L13,48 Z M3,58 L3,64 L9,64 L9,62 L5,62 L5,58 L3,58 Z M17,58 L17,62 L13,62 L13,64 L19,64 L19,58 L17,58 Z" id="Shape"/>
        </g>
    </g>
</symbol><symbol id="ico_fullscreen_enabled" viewBox="0 0 16 16">
    <!-- Generator: Sketch 52.2 (67145) - http://www.bohemiancoding.com/sketch -->
    <title>Shape</title>
    <desc>Created with Sketch.</desc>
    <g id="Page-1" stroke="none" stroke-width="1" fill="none" fill-rule="evenodd">
        <g id="download" transform="translate(-3.000000, -74.000000)" fill="#000000" fill-rule="nonzero">
            <path d="M3,74 L3,80 L5,80 L5,76 L9,76 L9,74 L3,74 Z M13,74 L13,76 L17,76 L17,80 L19,80 L19,74 L13,74 Z M8,79 L8,85 L14,85 L14,79 L8,79 Z M3,84 L3,90 L9,90 L9,88 L5,88 L5,84 L3,84 Z M17,84 L17,88 L13,88 L13,90 L19,90 L19,84 L17,84 Z" id="Shape"/>
        </g>
    </g>
</symbol><symbol id="ico_gearwheel" viewBox="0 0 19 19">
<path fill="" d="M11.5,6.1c-0.9-0.5-1.9-0.7-2.9-0.4C7.5,6,6.7,6.6,6.2,7.5c-1.1,1.9-0.5,4.2,1.4,5.3c0.6,0.4,1.3,0.5,2,0.5
	c0.3,0,0.7,0,1-0.1c1-0.3,1.8-0.9,2.4-1.8C13.9,9.6,13.3,7.2,11.5,6.1z M12,11c-0.4,0.7-1,1.1-1.8,1.3c-0.7,0.2-1.5,0.1-2.2-0.3
	c-1.4-0.8-1.8-2.6-1-4c0.4-0.7,1-1.1,1.8-1.3C9,6.6,9.3,6.6,9.5,6.6c0.5,0,1,0.1,1.4,0.4C12.3,7.8,12.8,9.6,12,11z M18.9,6.9
	c-0.1-0.1-0.2-0.1-0.4-0.1c0,0,0,0,0,0l-1.7,0c-0.3-0.8-0.6-1.5-1.2-2.2l0.8-1.5c0.1-0.2,0.1-0.5-0.2-0.7l-3.9-2.3
	C12.3,0.1,12.2,0,12,0.1c-0.1,0-0.2,0.1-0.3,0.2l-0.8,1.5c-0.8-0.2-1.7-0.2-2.6,0L7.5,0.3C7.4,0.1,7.3,0.1,7.2,0C7,0,6.9,0,6.8,0.1
	L2.9,2.3C2.6,2.4,2.5,2.7,2.7,3l0.8,1.5C3.2,4.8,3,5.2,2.8,5.5C2.6,5.9,2.4,6.3,2.2,6.7l-1.7,0c-0.1,0-0.3,0.1-0.4,0.1
	C0.1,6.9,0,7,0,7.2l0,4.5c0,0.3,0.2,0.5,0.5,0.5l1.7,0c0.3,0.9,0.7,1.6,1.3,2.3L2.7,16c-0.1,0.2-0.1,0.5,0.2,0.7l3.9,2.3
	C6.8,19,6.9,19,7,19c0,0,0.1,0,0.1,0c0.1,0,0.2-0.1,0.3-0.2l0.8-1.5c0.9,0.2,1.7,0.1,2.5,0l0.8,1.5c0.1,0.1,0.2,0.2,0.3,0.2
	c0.1,0,0.3,0,0.4,0l3.9-2.2c0.2-0.1,0.3-0.4,0.2-0.7l-0.8-1.5c0.3-0.3,0.5-0.7,0.7-1.1c0.2-0.4,0.4-0.8,0.6-1.2l1.7,0
	c0.1,0,0.3-0.1,0.4-0.1c0.1-0.1,0.1-0.2,0.1-0.4l0-4.5C19,7.1,18.9,7,18.9,6.9z M18,11.3l-1.5,0c0,0,0,0,0,0c-0.2,0-0.4,0.1-0.5,0.3
	c-0.2,0.5-0.3,0.9-0.6,1.3c-0.2,0.4-0.5,0.8-0.8,1.2c-0.1,0.2-0.2,0.4-0.1,0.6l0.8,1.4l-3,1.7l-0.7-1.3c-0.1-0.2-0.3-0.3-0.4-0.3
	c0,0-0.1,0-0.1,0c-1,0.2-1.8,0.3-2.8,0c-0.2-0.1-0.4,0-0.6,0.2l-0.8,1.3l-3-1.8l0.8-1.3c0.1-0.2,0.1-0.4-0.1-0.6
	c-0.7-0.7-1.1-1.5-1.4-2.5c-0.1-0.2-0.3-0.3-0.5-0.3l-1.6,0l0-3.5l1.5,0C2.8,7.7,3,7.5,3,7.3C3.2,6.9,3.4,6.4,3.6,6
	c0.2-0.4,0.5-0.8,0.9-1.2c0.1-0.2,0.2-0.4,0.1-0.6L3.8,2.9l3-1.7l0.8,1.4c0.1,0.2,0.3,0.3,0.5,0.2c1.1-0.2,1.9-0.2,2.9,0
	c0.2,0.1,0.4,0,0.6-0.2l0.8-1.3l3,1.8l-0.8,1.3c-0.1,0.2-0.1,0.4,0.1,0.6c0.7,0.8,1.1,1.5,1.4,2.5c0.1,0.2,0.3,0.4,0.5,0.4
	c0,0,0,0,0,0l1.5,0L18,11.3z"/>
</symbol><symbol id="ico_grid" viewBox="0 0 22 22">
<path d="M5.5,1.5h-3c-0.6,0-1,0.4-1,1v3c0,0.6,0.4,1,1,1h3c0.6,0,1-0.4,1-1v-3C6.5,1.9,6.1,1.5,5.5,1.5z M5.5,5.5h-3v-3h3V5.5z
	 M19.5,1.5h-3c-0.6,0-1,0.4-1,1v3c0,0.6,0.4,1,1,1h3c0.6,0,1-0.4,1-1v-3C20.5,1.9,20.1,1.5,19.5,1.5z M19.5,5.5h-3v-3h3V5.5z
	 M5.5,15.5h-3c-0.6,0-1,0.4-1,1v3c0,0.6,0.4,1,1,1h3c0.6,0,1-0.4,1-1v-3C6.5,15.9,6.1,15.5,5.5,15.5z M5.5,19.5h-3v-3h3V19.5z
	 M19.5,15.5h-3c-0.6,0-1,0.4-1,1v3c0,0.6,0.4,1,1,1h3c0.6,0,1-0.4,1-1v-3C20.5,15.9,20.1,15.5,19.5,15.5z M19.5,19.5h-3v-3h3V19.5z
	 M5.5,8.5h-3c-0.6,0-1,0.4-1,1v3c0,0.6,0.4,1,1,1h3c0.6,0,1-0.4,1-1v-3C6.5,8.9,6.1,8.5,5.5,8.5z M5.5,12.5h-3v-3h3V12.5z M12.5,1.5
	h-3c-0.6,0-1,0.4-1,1v3c0,0.6,0.4,1,1,1h3c0.6,0,1-0.4,1-1v-3C13.5,1.9,13.1,1.5,12.5,1.5z M12.5,5.5h-3v-3h3V5.5z M12.5,15.5h-3
	c-0.6,0-1,0.4-1,1v3c0,0.6,0.4,1,1,1h3c0.6,0,1-0.4,1-1v-3C13.5,15.9,13.1,15.5,12.5,15.5z M12.5,19.5h-3v-3h3V19.5z M12.5,8.5h-3
	c-0.6,0-1,0.4-1,1v3c0,0.6,0.4,1,1,1h3c0.6,0,1-0.4,1-1v-3C13.5,8.9,13.1,8.5,12.5,8.5z M12.5,12.5h-3v-3h3V12.5z M19.5,8.5h-3
	c-0.6,0-1,0.4-1,1v3c0,0.6,0.4,1,1,1h3c0.6,0,1-0.4,1-1v-3C20.5,8.9,20.1,8.5,19.5,8.5z M19.5,12.5h-3v-3h3V12.5z"/>
</symbol><symbol id="ico_heart" viewBox="0 0 21 18">
  <path d="M18.6 2.5c-1-1-2.2-1.5-3.6-1.5-1.3 0-2.6.5-3.5 1.5l-1 1h0l-1-1C8.5 1.5 7.3 1 6 1c-1.4 0-2.6.5-3.6 1.5C1.5 3.5 1 4.7 1 6.1s.5 2.6 1.4 3.6l8 8.3 8.1-8.3h0c.9-1 1.4-2.2 1.4-3.6.1-1.4-.4-2.6-1.3-3.6zm0 0c-1-1-2.2-1.5-3.6-1.5-1.3 0-2.6.5-3.5 1.5l-1 1h0l-1-1C8.5 1.5 7.3 1 6 1c-1.4 0-2.6.5-3.6 1.5C1.5 3.5 1 4.7 1 6.1s.5 2.6 1.4 3.6l8 8.3 8.1-8.3h0c.9-1 1.4-2.2 1.4-3.6.1-1.4-.4-2.6-1.3-3.6z" fill-rule="nonzero"/>
</symbol><symbol id="ico_hotspot" viewBox="0 0 10 12">
    <!-- Generator: Sketch 53 (72520) - https://sketchapp.com -->
    <title>ico_hotspot</title>
    <desc>Created with Sketch.</desc>
    <g id="Page-1" stroke="none" stroke-width="1" fill="none" fill-rule="evenodd">
        <g id="ico_hotspot" transform="translate(-1.000000, 0.000000)" fill="#000000" fill-rule="nonzero">
            <g id="ico_arrow_xsmall_right_down" transform="translate(6.128258, 6.128258) rotate(-135.000000) translate(-6.128258, -6.128258) translate(1.794925, 1.794925)">
                <path d="M8.34166667,7.90833333 C8.34166667,7.90833333 8.45,7.90833333 8.34166667,7.90833333 C8.34166667,7.90833333 8.34166667,7.90833333 8.34166667,7.90833333 C8.34166667,8.01666667 8.34166667,8.01666667 8.34166667,8.01666667 C8.34166667,8.01666667 8.34166667,8.01666667 8.34166667,8.125 C8.34166667,8.125 8.34166667,8.125 8.34166667,8.125 C8.34166667,8.125 8.34166667,8.23333333 8.23333333,8.23333333 C8.23333333,8.23333333 8.23333333,8.34166667 8.125,8.34166667 C8.125,8.34166667 8.125,8.34166667 8.125,8.34166667 C8.125,8.34166667 8.125,8.34166667 8.125,8.34166667 C8.125,8.34166667 8.01666667,8.34166667 8.01666667,8.45 C8.01666667,8.45 8.01666667,8.45 7.90833333,8.45 C7.90833333,8.45 7.90833333,8.45 7.90833333,8.45 C7.90833333,8.45 7.8,8.45 7.8,8.45 C7.8,8.45 7.8,8.45 7.69166667,8.45 C7.69166667,8.45 7.69166667,8.45 7.69166667,8.45 C7.69166667,8.45 7.69166667,8.45 7.69166667,8.45 L2.275,8.23333333 C1.95,8.23333333 1.73333333,8.01666667 1.73333333,7.69166667 C1.73333333,7.36666667 1.95,7.15 2.275,7.15 L6.5,7.25833333 L0.433333333,1.19166667 C0.216666667,0.975 0.216666667,0.65 0.433333333,0.433333333 C0.65,0.216666667 0.975,0.216666667 1.19166667,0.433333333 L7.25833333,6.5 L7.15,2.275 C7.15,1.95 7.36666667,1.73333333 7.69166667,1.73333333 C8.01666667,1.73333333 8.23333333,1.95 8.23333333,2.275 L8.34166667,7.90833333 C8.45,7.8 8.34166667,7.8 8.34166667,7.90833333 C8.34166667,7.8 8.34166667,7.90833333 8.34166667,7.90833333 Z" id="Path"/>
            </g>
        </g>
    </g>
</symbol><symbol id="ico_hotspot_info" viewBox="0 0 2 14">
    <!-- Generator: Sketch 53 (72520) - https://sketchapp.com -->
    <title>ico_hotspot_info</title>
    <desc>Created with Sketch.</desc>
    <g id="Page-1" stroke="none" stroke-width="1" fill="none" fill-rule="evenodd">
        <g id="ico_hotspot_info" fill="#0070BC" fill-rule="nonzero">
            <path d="M1.75,5.91287879 L1.75,12.5946969 C1.75,12.9287879 1.52727273,13.1515152 1.19318181,13.1515152 C0.859090909,13.1515152 0.636363636,12.9287879 0.636363636,12.5946969 L0.636363636,5.91287879 C0.636363636,5.57878788 0.859090909,5.35606061 1.19318181,5.35606061 C1.52727273,5.35606061 1.75,5.57878788 1.75,5.91287879 Z M1.97272727,1.34696969 L1.97272727,2.23787879 C1.97272727,2.68333333 1.63863636,3.12878788 1.08181818,3.12878788 C0.525,3.12878788 0.413636364,2.68333333 0.413636364,2.23787879 L0.413636364,1.34696969 C0.413636364,0.901515152 0.747727273,0.456060606 1.30454546,0.456060606 C1.86136364,0.456060606 1.97272727,0.790151515 1.97272727,1.34696969 Z" id="Shape"/>
        </g>
    </g>
</symbol><symbol id="ico_left" viewBox="0 0 6 10">
  <path id="a" fill="#4C4C4C" d="M5.8077 10.5L6.5 9.8077 2.1923 5.5 6.5 1.1923 5.8077.5l-5 5z" transform="translate(-.5 -.5)" fill-rule="evenodd"/>
</symbol><symbol id="ico_list" viewBox="0 0 20 20">
	<path d="M5.9,3.8 C5.63221302,3.78080041 5.41919959,3.56778698 5.4,3.3 C5.41919959,3.03221302 5.63221302,2.81919959 5.9,2.8 L19.4,2.8 C19.5351515,2.79105903 19.6675899,2.84085927 19.7633653,2.9366347 C19.8591407,3.03241012 19.908941,3.16484852 19.9,3.3 C19.908941,3.43515148 19.8591407,3.56758988 19.7633653,3.6633653 C19.6675899,3.75914073 19.5351515,3.80894097 19.4,3.8 L5.9,3.8 Z M19.5,9.5 C19.6259305,9.49598259 19.7463936,9.55153335 19.8251018,9.64991859 C19.90381,9.74830383 19.9315627,9.87802283 19.9,10 C19.908941,10.1351515 19.8591407,10.2675899 19.7633653,10.3633653 C19.6675899,10.4591407 19.5351515,10.508941 19.4,10.5 L5.9,10.5 C5.62385763,10.5 5.4,10.2761424 5.4,10 C5.4,9.72385763 5.62385763,9.5 5.9,9.5 L19.5,9.5 Z M19.5,16.2 C19.6259305,16.1959826 19.7463936,16.2515333 19.8251018,16.3499186 C19.90381,16.4483038 19.9315627,16.5780228 19.9,16.7 C19.908941,16.8351515 19.8591407,16.9675899 19.7633653,17.0633653 C19.6675899,17.1591407 19.5351515,17.208941 19.4,17.2 L5.9,17.2 C5.62385763,17.2 5.4,16.9761424 5.4,16.7 C5.4,16.4238576 5.62385763,16.2 5.9,16.2 L19.5,16.2 Z M1.7,8.9 C1.83515148,8.89105903 1.96758988,8.94085927 2.0633653,9.0366347 C2.15914073,9.13241012 2.20894097,9.26484852 2.2,9.4 L2.2,10.6 C2.20894097,10.7351515 2.15914073,10.8675899 2.0633653,10.9633653 C1.96758988,11.0591407 1.83515148,11.108941 1.7,11.1 L0.5,11.1 C0.36484852,11.108941 0.232410121,11.0591407 0.136634697,10.9633653 C0.0408592736,10.8675899 -0.00894096984,10.7351515 -3.85325452e-16,10.6 L-3.85325452e-16,9.4 C0.0191995936,9.13221302 0.232213025,8.91919959 0.5,8.9 L1.7,8.9 Z M1.7,15.6 C1.96778698,15.6191996 2.18080041,15.832213 2.2,16.1 L2.2,17.3 C2.20894097,17.4351515 2.15914073,17.5675899 2.0633653,17.6633653 C1.96758988,17.7591407 1.83515148,17.808941 1.7,17.8 L0.5,17.8 C0.36484852,17.808941 0.232410121,17.7591407 0.136634697,17.6633653 C0.0408592736,17.5675899 -0.00894096984,17.4351515 -2.92084065e-16,17.3 L-2.92084065e-16,16.1 C-0.00894096984,15.9648485 0.0408592736,15.8324101 0.136634697,15.7366347 C0.232410121,15.6408593 0.36484852,15.591059 0.5,15.6 L1.7,15.6 Z M1.7,2.2 C1.83515148,2.19105903 1.96758988,2.24085927 2.0633653,2.3366347 C2.15914073,2.43241012 2.20894097,2.56484852 2.2,2.7 L2.2,3.9 C2.20894097,4.03515148 2.15914073,4.16758988 2.0633653,4.2633653 C1.96758988,4.35914073 1.83515148,4.40894097 1.7,4.4 L0.5,4.4 C0.36484852,4.40894097 0.232410121,4.35914073 0.136634697,4.2633653 C0.0408592736,4.16758988 -0.00894096984,4.03515148 -2.86879895e-16,3.9 L-2.86879895e-16,2.7 C0.0191995936,2.43221302 0.232213025,2.21919959 0.5,2.2 L1.7,2.2 Z" fill="currentColor" fill-rule="nonzero"/>
</symbol><symbol id="ico_list_closed" viewBox="0 0 16 13">
  <path d="M15.5 12a.5.5 0 110 1H.5a.5.5 0 110-1h15zm0-3a.5.5 0 110 1H.5a.5.5 0 010-1h15zm0-3a.5.5 0 110 1H.5a.5.5 0 010-1h15zm0-3a.5.5 0 110 1H.5a.5.5 0 010-1h15zm0-3a.5.5 0 110 1H.5a.5.5 0 110-1h15z" fill="#4C4C4C" fill-rule="evenodd"/>
</symbol><symbol id="ico_list_open" viewBox="0 0 16 16">
    <path d="m15 12c.5522847 0 1 .4477153 1 1v2c0 .5522847-.4477153 1-1 1h-14c-.55228475 0-1-.4477153-1-1v-2c0-.5522847.44771525-1 1-1zm0 1h-14v2h14zm0-7c.5522847 0 1 .44771525 1 1v2c0 .55228475-.4477153 1-1 1h-14c-.55228475 0-1-.44771525-1-1v-2c0-.55228475.44771525-1 1-1zm0 1h-14v2h14zm0-7c.5522847 0 1 .44771525 1 1v2c0 .50697483-.3795071.93368395-.883.993l-.117.007h-14c-.55228475 0-1-.44771525-1-1v-2c0-.55228475.44771525-1 1-1zm0 1h-14v2h14z" fill="currentColor"/>
</symbol><symbol id="ico_location_small" viewBox="0 0 13 18">
<path fill="#0070BC" d="M6.5,0C2.9,0,0,2.9,0,6.4c0,3.4,5.9,10.8,6.1,11.1L6.5,18l0.4-0.5C7.1,17.2,13,9.7,13,6.4
	C13,2.9,10.1,0,6.5,0z M6.5,16.4C4.7,14,1,8.7,1,6.4C1,3.4,3.5,1,6.5,1S12,3.4,12,6.4C12,8.7,8.3,14,6.5,16.4z M6.5,2.7
	c-2,0-3.7,1.6-3.7,3.6S4.5,10,6.5,10s3.7-1.6,3.7-3.6S8.5,2.7,6.5,2.7z M6.5,9C5,9,3.8,7.8,3.8,6.4S5,3.7,6.5,3.7s2.7,1.2,2.7,2.6
	S8,9,6.5,9z"/>
</symbol><symbol id="ico_mail" viewBox="0 0 24 24">
<path id="Icons_x2F_24_x2F_ico_x5F_mail_x2F_v2" d="M4,7v10h16V7H4z M4,6h16c0.6,0,1,0.4,1,1v10c0,0.6-0.4,1-1,1H4c-0.6,0-1-0.4-1-1
	V7C3,6.4,3.4,6,4,6z M3.3,7.1l0.6-0.8l7.8,5.8c0.2,0.1,0.4,0.1,0.6,0l7.8-5.8l0.6,0.8l-7.8,5.8c-0.5,0.4-1.3,0.4-1.8,0L3.3,7.1z"/>
</symbol><symbol id="ico_mail2">
  <path d="M1 1v10h16V1H1zm0-1h16c.6 0 1 .4 1 1v10c0 .6-.4 1-1 1H1c-.6 0-1-.4-1-1V1c0-.6.4-1 1-1zM.3 1.1L.9.3l7.8 5.8c.2.1.4.1.6 0L17.1.3l.6.8-7.8 5.8c-.5.4-1.3.4-1.8 0L.3 1.1z" fill-rule="nonzero"/>
</symbol><symbol id="ico_map" viewBox="0 0 20 20">
    <path fill="currentColor" d="M19.66,2.77,13.33.17a.52.52,0,0,0-.37,0L6.84,2.53.71.16A.48.48,0,0,0,.25.22.48.48,0,0,0,0,.63v16.2a.5.5,0,0,0,.31.47l6.31,2.53a.41.41,0,0,0,.19,0,.57.57,0,0,0,.18,0l6.13-2.39,6.15,2.29a.48.48,0,0,0,.46-.06.49.49,0,0,0,.21-.41v-16A.48.48,0,0,0,19.66,2.77ZM7.34,3.41l5.3-2V16.57l-5.3,2.07ZM1,1.36,6.34,3.41V18.63L1,16.5ZM19,18.55l-5.33-2V1.37L19,3.56Z"/>
</symbol><symbol id="ico_marker" viewBox="0 0 28 38">
<path fill="#0070BC" d="M14,0C6.3,0,0,6,0,13.4S14,38,14,38s14-17.3,14-24.6S21.7,0,14,0z M14,20.5c-4.1,0-7.4-3.2-7.4-7.1
	S9.9,6.3,14,6.3c4.1,0,7.4,3.2,7.4,7.1S18.1,20.5,14,20.5z"/>
</symbol><symbol id="ico_messages" viewBox="0 0 18 12">
    <!-- Generator: Sketch 52.2 (67145) - http://www.bohemiancoding.com/sketch -->
    <title>ico_mail</title>
    <desc>Created with Sketch.</desc>
    <g id="Page-1" stroke="none" stroke-width="1" fill="none" fill-rule="evenodd">
        <g id="ico_mail" fill="currentColor" fill-rule="nonzero">
            <path d="M1,1 L1,11 L17,11 L17,1 L1,1 Z M1,0 L17,0 C17.6,0 18,0.4 18,1 L18,11 C18,11.6 17.6,12 17,12 L1,12 C0.4,12 0,11.6 0,11 L0,1 C0,0.4 0.4,0 1,0 Z M0.3,1.1 L0.9,0.3 L8.7,6.1 C8.9,6.2 9.1,6.2 9.3,6.1 L17.1,0.3 L17.7,1.1 L9.9,6.9 C9.4,7.3 8.6,7.3 8.1,6.9 L0.3,1.1 Z" id="Icons_x2F_24_x2F_ico_x5F_mail_x2F_v2"/>
        </g>
    </g>
</symbol><symbol id="ico_minimize" viewBox="0 0 16 16">
<path fill="#0C70B7" d="M15.9,0.9l-6,6.1h3.7c0.3,0,0.5,0.2,0.5,0.5s-0.2,0.5-0.5,0.5H8.6c0,0,0,0,0,0c-0.1,0-0.1,0-0.2,0
	C8.3,7.8,8.2,7.7,8.1,7.6c0,0,0,0,0,0c0-0.1,0-0.1,0-0.2V2.5C8.1,2.2,8.3,2,8.6,2s0.5,0.2,0.5,0.5v3.7l6-6.1c0.2-0.2,0.5-0.2,0.7,0
	C16,0.3,16,0.7,15.9,0.9z M7.9,8.4C7.8,8.3,7.7,8.2,7.6,8.1c-0.1,0-0.1,0-0.2,0c0,0,0,0,0,0H2.5C2.2,8.1,2,8.3,2,8.6
	s0.2,0.5,0.5,0.5h3.7l-6,6.1c-0.2,0.2-0.2,0.5,0,0.7C0.2,16,0.4,16,0.5,16s0.3,0,0.4-0.1l6-6.1v3.7c0,0.3,0.2,0.5,0.5,0.5
	s0.5-0.2,0.5-0.5V8.6C7.9,8.5,7.9,8.5,7.9,8.4C7.9,8.4,7.9,8.4,7.9,8.4z"/>
</symbol><symbol id="ico_motion" viewBox="0 0 16 16">
    <!-- Generator: Sketch 52.2 (67145) - http://www.bohemiancoding.com/sketch -->
    <title>Group</title>
    <desc>Created with Sketch.</desc>
    <g id="Page-1" stroke="none" stroke-width="1" fill="none" fill-rule="evenodd">
        <g id="download" transform="translate(-3.000000, -152.000000)">
            <g id="Group" transform="translate(4.000000, 153.000000)">
                <circle id="Oval" stroke="#000000" stroke-width="2" cx="7" cy="7" r="7"/>
                <path d="M4.428,11.33 L4.428,5.56 L9.428,2.67 L9.428,8.44 L4.428,11.33 Z M5.428,9.6 L8.428,7.87 L5.427,6.13 L5.428,9.6 Z" id="Shape" fill="#000000" fill-rule="nonzero"/>
            </g>
        </g>
    </g>
</symbol><symbol id="ico_motion_enabled" viewBox="0 0 16 16">
    <!-- Generator: Sketch 52.2 (67145) - http://www.bohemiancoding.com/sketch -->
    <title>Group 2</title>
    <desc>Created with Sketch.</desc>
    <g id="Page-1" stroke="none" stroke-width="1" fill="none" fill-rule="evenodd">
        <g id="download" transform="translate(-3.000000, -178.000000)">
            <g id="Group-2" transform="translate(4.000000, 179.000000)">
                <circle id="Oval" stroke="#000000" stroke-width="2" cx="7" cy="7" r="7"/>
                <circle id="Oval" fill="#000000" cx="7" cy="7" r="2.5"/>
            </g>
        </g>
    </g>
</symbol><symbol id="ico_muted" viewBox="0 0 40 40">
  <path d="M24.6682 24.2675l2.6535-2.6535 2.6535 2.6535 1.769-1.769-2.6535-2.6535 2.6535-2.6535-1.769-1.769-2.6535 2.6535-2.6535-2.6535-1.769 1.769 2.6535 2.6535-2.6535 2.6535 1.769 1.769zm-10.8847-8.2028h-3.881c-.5415 0-.9025.3801-.9025.9502v5.7013c0 .5701.361.9502.9026.9502h3.8809l5.1445 4.8745c.6318.3801 1.4441 0 1.4441-.7602V11.9505c0-.7603-.8123-1.2354-1.4441-.7603l-5.1445 4.8745z"/>
</symbol><symbol id="ico_myservices" viewBox="0 0 16 16">
<path fill="currentColor" d="M5.3,0H1.7C0.8,0,0,0.8,0,1.7v3.5C0,6.2,0.8,7,1.7,7h3.5C6.2,7,7,6.2,7,5.3V1.7C7,0.8,6.2,0,5.3,0z M6,5.3
	C6,5.7,5.7,6,5.3,6H1.7C1.3,6,1,5.7,1,5.3V1.7C1,1.3,1.3,1,1.7,1h3.5C5.7,1,6,1.3,6,1.7V5.3z M14.3,0h-3.5C9.8,0,9,0.8,9,1.7v3.5
	C9,6.2,9.8,7,10.7,7h3.5c1,0,1.7-0.8,1.7-1.7V1.7C16,0.8,15.2,0,14.3,0z M15,5.3C15,5.7,14.7,6,14.3,6h-3.5C10.3,6,10,5.7,10,5.3
	V1.7C10,1.3,10.3,1,10.7,1h3.5C14.7,1,15,1.3,15,1.7V5.3z M5.3,9H1.7C0.8,9,0,9.8,0,10.7v3.5c0,1,0.8,1.7,1.7,1.7h3.5
	c1,0,1.7-0.8,1.7-1.7v-3.5C7,9.8,6.2,9,5.3,9z M6,14.3C6,14.7,5.7,15,5.3,15H1.7C1.3,15,1,14.7,1,14.3v-3.5C1,10.3,1.3,10,1.7,10
	h3.5C5.7,10,6,10.3,6,10.7V14.3z M14.3,9h-3.5C9.8,9,9,9.8,9,10.7v3.5c0,1,0.8,1.7,1.7,1.7h3.5c1,0,1.7-0.8,1.7-1.7v-3.5
	C16,9.8,15.2,9,14.3,9z M15,14.3c0,0.4-0.3,0.7-0.7,0.7h-3.5c-0.4,0-0.7-0.3-0.7-0.7v-3.5c0-0.4,0.3-0.7,0.7-0.7h3.5
	c0.4,0,0.7,0.3,0.7,0.7V14.3z"/>
</symbol><symbol id="ico_paperclip" viewBox="0 0 8 16"><title>Artboard 1</title><path id="Page-1" d="M4,0A4,4,0,0,0,0,4v9a3,3,0,0,0,6,0V4A2,2,0,0,0,2,4v7.5a.5.5,0,0,0,1,0V4A1,1,0,0,1,5,4v9a2,2,0,0,1-4,0V4A3,3,0,0,1,7,4v7.5a.5.5,0,0,0,1,0V4A4,4,0,0,0,4,0Z"/></symbol><symbol id="ico_pause" viewBox="0 0 40 40">
  <path d="M16.1629 10h-3.8722C11.5163 10 11 10.5163 11 11.2907v18.07c0 .7744.5163 1.2907 1.2907 1.2907h3.8722c.7744 0 1.2907-.5163 1.2907-1.2907v-18.07c0-.7744-.5163-1.2907-1.2907-1.2907zm7.7442 0c-.7744 0-1.2907.5163-1.2907 1.2907v18.07c0 .7744.5163 1.2907 1.2907 1.2907h3.8722c.7744 0 1.2907-.5163 1.2907-1.2907v-18.07c0-.7744-.5163-1.2907-1.2907-1.2907h-3.8722z"/>
</symbol><symbol id="ico_pencil" viewBox="0 0 24 24">
<path d="M20,7.1l-2.9-2.9c-0.2-0.2-0.5-0.2-0.7,0l-9.1,9c0,0-0.1,0.1-0.1,0.2
	L5,18.5c0,0.2,0,0.4,0.1,0.5s0.2,0.1,0.4,0.1c0.1,0,0.1,0,0.2,0l5.1-2.1c0.1,0,0.1-0.1,0.2-0.1l9-9.1C20.2,7.6,20.2,7.2,20,7.1z
	 M10.6,15.8l-2.2-2.2l6.5-6.5l2.2,2.2L10.6,15.8z M7.8,14.5l1.9,1.9l-3.3,1.4L7.8,14.5z M17.8,8.6l-2.2-2.2l1.2-1.2L19,7.4L17.8,8.6
	z"/>
</symbol><symbol id="ico_pencil2" viewBox="0 0 18 17">
  <path d="M16.875 3.4312L13.6125.1688c-.225-.225-.5625-.225-.7875 0L2.5875 10.2937s-.1125.1125-.1125.225L0 16.2563c0 .225 0 .45.1125.5625.1125.1124.225.1124.45.1124h.225l5.7375-2.3625c.1125 0 .1125-.1124.225-.1124L16.875 4.2187c.225-.225.225-.675 0-.7875zM6.3 13.2188l-2.475-2.475 7.3125-7.3125 2.475 2.475L6.3 13.2188zm-3.15-1.4625l2.1375 2.1376-3.7125 1.575 1.575-3.7126zM14.4 5.1188l-2.475-2.475 1.35-1.35 2.475 2.475-1.35 1.35z" fill-rule="nonzero"/>
</symbol><symbol id="ico_play" viewBox="0 0 40 40">
  <path d="M11 10.7742c0-.779.8514-1.259 1.5178-.8555l16.0688 9.7258c.6429.3891.6429 1.3219 0 1.711l-16.0688 9.7258c-.6664.4034-1.5178-.0765-1.5178-.8555V10.7742z"/>
</symbol><symbol id="ico_player-fullscreen" viewBox="0 0 40 40">
<path d="M10 10.0001V17.5001H12.5V12.5001H17.5V10.0001H10ZM22.5 10.0001V12.5001H27.5V17.5001H30V10.0001H22.5ZM10 22.5001V30.0001H17.5V27.5001H12.5V22.5001H10ZM27.5 22.5001V27.5001H22.5V30.0001H30V22.5001H27.5Z"/>
</symbol><symbol id="ico_player-settings" viewBox="0 0 40 40">
<g id="settings_24px">
<path id="layer1" d="M28.4261 21.3063C28.5603 20.4418 28.5603 19.5617 28.4261 18.6972L30.297 16.8843C30.4037 16.781 30.4729 16.6449 30.4935 16.4976C30.5142 16.3504 30.4851 16.2005 30.4109 16.0717L28.6017 12.9319C28.5276 12.8031 28.4126 12.7029 28.275 12.6471C28.1375 12.5914 27.9853 12.5833 27.8426 12.6242L25.2891 13.3564C24.6274 12.8368 23.8916 12.4196 23.1064 12.1189L22.4546 9.5064C22.4189 9.3619 22.3359 9.23355 22.2189 9.14179C22.1019 9.05002 21.9576 9.00013 21.809 9.00006H18.1911C18.0427 9.00007 17.8987 9.04978 17.7817 9.14128C17.6648 9.23277 17.5818 9.36081 17.5458 9.50503L16.8694 12.2162C16.1529 12.5165 15.4813 12.9149 14.874 13.4001L12.1572 12.6225C12.0145 12.5816 11.8623 12.5896 11.7248 12.6454C11.5872 12.7011 11.4722 12.8014 11.398 12.9302L9.58923 16.07C9.515 16.1987 9.48585 16.3486 9.50643 16.4959C9.527 16.6431 9.59611 16.7792 9.70278 16.8826L11.7709 18.8863C11.6705 19.6254 11.6705 20.3747 11.7709 21.1138L9.70278 23.1175C9.59617 23.2209 9.52709 23.357 9.50652 23.5043C9.48595 23.6515 9.51506 23.8014 9.58923 23.9302L11.398 27.07C11.4722 27.1987 11.5872 27.2989 11.7248 27.3547C11.8623 27.4104 12.0145 27.4185 12.1572 27.3776L14.874 26.6001C15.4812 27.0857 16.1528 27.4846 16.8694 27.7853L17.5458 30.4965C17.5821 30.6404 17.6652 30.7682 17.7821 30.8594C17.899 30.9506 18.0429 31.0001 18.1911 31.0001H21.809C21.9574 31.0001 22.1016 30.9504 22.2185 30.8589C22.3355 30.7674 22.4186 30.6393 22.4546 30.4951L23.1064 27.8826C23.8916 27.5819 24.6274 27.1647 25.2891 26.6451L27.8426 27.3773C27.9853 27.4182 28.1375 27.4101 28.275 27.3544C28.4126 27.2986 28.5276 27.1984 28.6017 27.0696L30.4109 23.9298C30.485 23.801 30.5141 23.6511 30.4934 23.5039C30.4728 23.3566 30.4037 23.2205 30.297 23.1172L28.4261 21.3063ZM20.111 24.8126C19.1612 24.8126 18.2327 24.5303 17.4429 24.0015C16.6532 23.4727 16.0376 22.7211 15.6742 21.8417C15.3107 20.9624 15.2156 19.9947 15.4009 19.0612C15.5862 18.1277 16.0436 17.2702 16.7152 16.5971C17.3868 15.9241 18.2425 15.4657 19.1741 15.28C20.1057 15.0943 21.0713 15.1896 21.9488 15.5539C22.8264 15.9181 23.5764 16.535 24.1041 17.3264C24.6318 18.1178 24.9135 19.0482 24.9135 20.0001C24.9135 21.2764 24.4075 22.5005 23.5069 23.403C22.6062 24.3055 21.3847 24.8126 20.111 24.8126Z"/>
</g>
</symbol><symbol id="ico_plus">
  <path d="M15.7857 8.5H8.5v7.2857H7.2857V8.5H0V7.2857h7.2857V0H8.5v7.2857h7.2857z" fill-rule="nonzero"/>
</symbol><symbol id="ico_points">
  <path d="M1.5 3C.7 3 0 2.3 0 1.5S.7 0 1.5 0 3 .7 3 1.5 2.3 3 1.5 3zm0 6C.7 9 0 8.3 0 7.5S.7 6 1.5 6 3 6.7 3 7.5 2.3 9 1.5 9zm0 6C.7 15 0 14.3 0 13.5S.7 12 1.5 12s1.5.7 1.5 1.5S2.3 15 1.5 15z" fill-rule="nonzero"/>
</symbol><symbol id="ico_right" viewBox="0 0 6 10">
  <path id="a" fill="#4C4C4C" d="M14 17l.6923-.6923L10.3847 12l4.3076-4.3077L14 7l-5 5z" fill-rule="evenodd" transform="matrix(-1 0 0 1 14.6923 -7)"/>
</symbol><symbol id="ico_services" viewBox="0 0 19 19">
<path fill="currentColor" d="M12,1.2C12,0.5,11.5,0,10.8,0H8.2C7.5,0,7,0.5,7,1.2v2.6C7,4.5,7.5,5,8.2,5h2.6C11.5,5,12,4.5,12,3.8V1.2z
	 M11,3.6C11,3.8,10.8,4,10.6,4H8.4C8.2,4,8,3.8,8,3.6V1.4C8,1.2,8.2,1,8.4,1h2.2C10.8,1,11,1.2,11,1.4V3.6z M19,1.3
	C19,0.6,18.4,0,17.7,0h-2.4C14.6,0,14,0.6,14,1.3v2.4C14,4.4,14.6,5,15.3,5h2.4C18.4,5,19,4.4,19,3.7V1.3z M18,3.6
	C18,3.8,17.8,4,17.6,4h-2.1C15.2,4,15,3.8,15,3.6V1.4C15,1.2,15.2,1,15.4,1h2.1C17.8,1,18,1.2,18,1.4V3.6z M5,1.2C5,0.5,4.5,0,3.8,0
	H1.2C0.5,0,0,0.5,0,1.2v2.6C0,4.5,0.5,5,1.2,5h2.6C4.5,5,5,4.5,5,3.8V1.2z M4,3.6C4,3.8,3.8,4,3.6,4H1.4C1.2,4,1,3.8,1,3.6V1.4
	C1,1.2,1.2,1,1.4,1h2.2C3.8,1,4,1.2,4,1.4V3.6z M12,8.2C12,7.5,11.5,7,10.8,7H8.2C7.5,7,7,7.5,7,8.2v2.6C7,11.5,7.5,12,8.2,12h2.6
	c0.7,0,1.2-0.5,1.2-1.2V8.2z M11,10.6c0,0.2-0.2,0.4-0.4,0.4H8.4C8.2,11,8,10.8,8,10.6V8.4C8,8.2,8.2,8,8.4,8h2.2
	C10.8,8,11,8.2,11,8.4V10.6z M19,8.3C19,7.6,18.4,7,17.7,7h-2.4C14.6,7,14,7.6,14,8.3v2.4c0,0.7,0.6,1.3,1.3,1.3h2.4
	c0.7,0,1.3-0.6,1.3-1.3V8.3z M18,10.6c0,0.2-0.2,0.4-0.4,0.4h-2.1c-0.2,0-0.4-0.2-0.4-0.4V8.4C15,8.2,15.2,8,15.4,8h2.1
	C17.8,8,18,8.2,18,8.4V10.6z M5,8.2C5,7.5,4.5,7,3.8,7H1.2C0.5,7,0,7.5,0,8.2v2.6C0,11.5,0.5,12,1.2,12h2.6C4.5,12,5,11.5,5,10.8
	V8.2z M4,10.6C4,10.8,3.8,11,3.6,11H1.4C1.2,11,1,10.8,1,10.6V8.4C1,8.2,1.2,8,1.4,8h2.2C3.8,8,4,8.2,4,8.4V10.6z M12,15.2
	c0-0.7-0.5-1.2-1.2-1.2H8.2C7.5,14,7,14.5,7,15.2v2.6C7,18.5,7.5,19,8.2,19h2.6c0.7,0,1.2-0.5,1.2-1.2V15.2z M11,17.6
	c0,0.2-0.2,0.4-0.4,0.4H8.4C8.2,18,8,17.8,8,17.6v-2.2C8,15.2,8.2,15,8.4,15h2.2c0.2,0,0.4,0.2,0.4,0.4V17.6z M19,15.3
	c0-0.7-0.6-1.3-1.3-1.3h-2.4c-0.7,0-1.3,0.6-1.3,1.3v2.4c0,0.7,0.6,1.3,1.3,1.3h2.4c0.7,0,1.3-0.6,1.3-1.3V15.3z M18,17.6
	c0,0.2-0.2,0.4-0.4,0.4h-2.1c-0.2,0-0.4-0.2-0.4-0.4v-2.1c0-0.2,0.2-0.4,0.4-0.4h2.1c0.2,0,0.4,0.2,0.4,0.4V17.6z M5,15.2
	C5,14.5,4.5,14,3.8,14H1.2C0.5,14,0,14.5,0,15.2v2.6C0,18.5,0.5,19,1.2,19h2.6C4.5,19,5,18.5,5,17.8V15.2z M4,17.6
	C4,17.8,3.8,18,3.6,18H1.4C1.2,18,1,17.8,1,17.6v-2.2C1,15.2,1.2,15,1.4,15h2.2C3.8,15,4,15.2,4,15.4V17.6z"/>
</symbol><symbol id="ico_settings" viewBox="0 0 20 20">
<path fill="currentColor" d="M19,7.9l-1.4-0.2c-0.1-0.5-0.3-0.9-0.6-1.4l0.8-1.2c0.4-0.5,0.3-1.2-0.1-1.6l-1.2-1.2c-0.2-0.2-0.5-0.4-0.9-0.4
	c-0.3,0-0.5,0.1-0.7,0.2L13.7,3c-0.5-0.2-0.9-0.4-1.4-0.6L12.1,1c-0.1-0.6-0.6-1-1.2-1H9.1C8.5,0,8,0.4,7.9,1L7.6,2.5
	C7.2,2.6,6.7,2.8,6.3,3L5.1,2.2C4.9,2,4.7,2,4.4,2C4.1,2,3.8,2.1,3.5,2.3L2.3,3.6C1.8,4,1.8,4.7,2.1,5.2L3,6.3
	C2.7,6.8,2.6,7.2,2.4,7.7L1,7.9C0.4,8,0,8.6,0,9.2v1.8c0,0.6,0.4,1.1,1,1.2l1.4,0.2c0.1,0.5,0.3,0.9,0.6,1.4l-0.8,1.1
	c-0.4,0.5-0.3,1.2,0.1,1.6l1.2,1.2c0.2,0.2,0.5,0.4,0.9,0.4c0.3,0,0.5-0.1,0.7-0.2L6.3,17c0.4,0.2,0.9,0.4,1.3,0.5L7.9,19
	c0.1,0.6,0.6,1,1.2,1h1.8c0.6,0,1.1-0.4,1.2-1l0.2-1.4c0.5-0.1,0.9-0.3,1.4-0.6l1.2,0.8c0.2,0.2,0.5,0.2,0.7,0.2l0,0
	c0.3,0,0.6-0.1,0.9-0.4l1.2-1.2c0.4-0.4,0.5-1.1,0.1-1.6L17,13.7c0.2-0.4,0.4-0.9,0.6-1.4l1.4-0.2c0.6-0.1,1-0.6,1-1.2V9.1
	C20,8.5,19.6,8,19,7.9z M18.9,10.9c0,0.1,0,0.1-0.1,0.1L17,11.3c-0.2,0-0.4,0.2-0.5,0.4c-0.2,0.6-0.4,1.2-0.7,1.8
	c-0.1,0.2-0.1,0.4,0,0.6l1,1.5c0,0,0,0.1,0,0.1l-1.2,1.2c0,0-0.1,0-0.1,0c0,0,0,0-0.1,0l-1.4-1c-0.2-0.1-0.4-0.1-0.6,0
	c-0.5,0.3-1.1,0.6-1.8,0.7c-0.2,0.1-0.4,0.2-0.4,0.5L11,18.8c0,0.1-0.1,0.1-0.1,0.1H9.1c-0.1,0-0.1,0-0.1-0.1L8.7,17
	c0-0.2-0.2-0.4-0.4-0.5c-0.6-0.2-1.2-0.4-1.7-0.7c-0.1-0.1-0.2-0.1-0.3-0.1c-0.1,0-0.2,0-0.3,0.1l-1.5,1c0,0,0,0-0.1,0
	c0,0-0.1,0-0.1,0l-1.2-1.2c0,0,0-0.1,0-0.1l1-1.4c0.1-0.2,0.1-0.4,0-0.6c-0.3-0.5-0.6-1.1-0.7-1.7c-0.1-0.2-0.2-0.4-0.5-0.4L1.2,11
	c-0.1,0-0.1-0.1-0.1-0.1V9.2c0-0.1,0-0.1,0.1-0.1L3,8.8c0.2,0,0.4-0.2,0.5-0.4c0.2-0.6,0.4-1.2,0.7-1.8c0.1-0.2,0.1-0.4,0-0.6
	l-1-1.5c0,0,0-0.1,0-0.1l1.2-1.2c0,0,0.1,0,0.1,0c0,0,0,0,0.1,0l1.4,1c0.2,0.1,0.4,0.1,0.6,0c0.5-0.3,1.1-0.6,1.7-0.7
	C8.5,3.4,8.6,3.2,8.7,3L9,1.2C9,1.2,9,1.1,9.1,1.1h1.8c0.1,0,0.1,0,0.1,0.1L11.3,3c0,0.2,0.2,0.4,0.4,0.5c0.6,0.2,1.2,0.4,1.8,0.7
	c0.2,0.1,0.4,0.1,0.6,0l1.4-1c0,0,0,0,0.1,0c0,0,0.1,0,0.1,0l1.2,1.2c0,0,0,0.1,0,0.1l-1,1.4c-0.1,0.2-0.1,0.4,0,0.6
	c0.3,0.5,0.6,1.1,0.7,1.8c0.1,0.2,0.2,0.4,0.5,0.4L18.8,9c0.1,0,0.1,0.1,0.1,0.1L18.9,10.9L18.9,10.9z M10,5.7
	c-2.4,0-4.3,1.9-4.3,4.3s1.9,4.3,4.3,4.3s4.3-1.9,4.3-4.3S12.4,5.7,10,5.7z M10,13.2c-1.8,0-3.2-1.4-3.2-3.2S8.2,6.8,10,6.8
	s3.2,1.4,3.2,3.2S11.8,13.2,10,13.2z"/>
</symbol><symbol id="ico_settings2" viewBox="0 0 16 16">
    <!-- Generator: Sketch 52.2 (67145) - http://www.bohemiancoding.com/sketch -->
    <title>ico_settings2</title>
    <desc>Created with Sketch.</desc>
    <g id="Page-1" stroke="none" stroke-width="1" fill="none" fill-rule="evenodd">
        <g id="ico_settings2" fill-rule="nonzero" fill="currentColor">
            <path d="M5.4,2 C5.3,1.3 4.7,0.7 4,0.6 C2.9,0.3 1.8,0.9 1.6,2 L0,2 L0,3 L1.6,3 C1.7,3.7 2.3,4.3 3,4.4 C4.1,4.7 5.2,4.1 5.4,3 L16,3 L16,2 L5.4,2 Z M3.5,3.5 C2.9,3.5 2.5,3.1 2.5,2.5 C2.5,1.9 2.9,1.5 3.5,1.5 C4.1,1.5 4.5,1.9 4.5,2.5 C4.5,3.1 4.1,3.5 3.5,3.5 Z" id="Shape"/>
            <path d="M9.9,7.5 C9.7,6.8 9.2,6.2 8.5,6.1 C7.4,5.8 6.3,6.5 6.1,7.5 L0,7.5 L0,8.5 L6.1,8.5 C6.3,9.2 6.8,9.8 7.5,9.9 C8.6,10.2 9.7,9.5 9.9,8.5 L16,8.5 L16,7.5 L9.9,7.5 Z M8,9 C7.4,9 7,8.6 7,8 C7,7.4 7.4,7 8,7 C8.6,7 9,7.4 9,8 C9,8.6 8.6,9 8,9 Z" id="Shape"/>
            <path d="M14.4,13 C14.2,12.3 13.7,11.7 13,11.6 C11.9,11.3 10.8,12 10.6,13 L0,13 L0,14 L10.6,14 C10.8,14.7 11.3,15.3 12,15.4 C13.1,15.7 14.2,15 14.4,14 L16,14 L16,13 L14.4,13 Z M12.5,14.5 C11.9,14.5 11.5,14.1 11.5,13.5 C11.5,12.9 11.9,12.5 12.5,12.5 C13.1,12.5 13.5,12.9 13.5,13.5 C13.5,14.1 13.1,14.5 12.5,14.5 Z" id="Shape"/>
        </g>
    </g>
</symbol><symbol id="ico_social_media_icongroup" viewBox="0 0 54 58">
	<path fill="currentColor" d="M53.14,28.83l-.19-6-5.17.82-.2-1.29a.63.63,0,0,1,.05-.46.53.53,0,0,1,.3-.13l3.89-.62-1-6.52-5.93.92c-2.49.39-4.18,1.51-5,3.32a7.58,7.58,0,0,0-.47,4.48l.25,1.59-4.33.69.93,5.89,4.33-.69L42.85,45.5,51,44.2,48.71,29.53Zm-4.06,14-4.8.76L41.95,28.87l-4.33.69L37.22,27l4.33-.69L41,23.08a6.15,6.15,0,0,1,.33-3.48,4.6,4.6,0,0,1,3.76-2.36l4.25-.66.5,3.15-2.2.35a2.21,2.21,0,0,0-1.29.67,2.15,2.15,0,0,0-.48,1.88l.47,3,4.95-.78.08,2.56-4.63.73ZM34.79,2.71a12.42,12.42,0,0,1-1.62.93,12.51,12.51,0,0,1-1.71.67l0,0A6.39,6.39,0,0,0,33.51.37a12.57,12.57,0,0,1-1.73,1.26,12.47,12.47,0,0,1-1.93,1h0A6.25,6.25,0,0,0,25,1.39a6.38,6.38,0,0,0-4.68,8.8,17.81,17.81,0,0,1-14-4.32,6.46,6.46,0,0,0,3.4,8.07,6.21,6.21,0,0,1-3-.29A6.38,6.38,0,0,0,12.86,19a6.23,6.23,0,0,1-2.78.6A6.32,6.32,0,0,0,16.65,23,12.55,12.55,0,0,1,7.92,27.2a17.66,17.66,0,0,0,10,1.15c11.52-2,16.29-13.05,14.34-21.84A12.91,12.91,0,0,0,34.79,2.71ZM28.15,20a15.5,15.5,0,0,1-10.51,6.71,15.62,15.62,0,0,1-3.07.24,14.34,14.34,0,0,0,3.36-2.8l3.15-3.56-4.7.74a4.54,4.54,0,0,1-3-.6l.26-.12L20,17.5l-7.14-.19a4.64,4.64,0,0,1-3.37-1.63l.44-.05,5.85-.84-5.39-2.42A4.71,4.71,0,0,1,7.76,9.06a19.52,19.52,0,0,0,12.73,2.83l2.25-.28-.88-2.08a4.73,4.73,0,0,1,.2-4.12,4.54,4.54,0,0,1,6.74-1.47,4.25,4.25,0,0,1,1.81,3A17.23,17.23,0,0,1,28.15,20Zm-6.59,24.3L15.9,40.08a2.67,2.67,0,0,0-4.22,1.73l-1,6.42a2.67,2.67,0,0,0,2.22,3.05,2.63,2.63,0,0,0,.41,0,2.7,2.7,0,0,0,.85-.14l6.67-2.24a2.67,2.67,0,0,0,.73-4.68Zm-.64,2.3a1,1,0,0,1-.64.76L13.6,49.55a1,1,0,0,1-1.25-1.06l1-6.42a1,1,0,0,1,1.52-.62l5.66,4.17A1,1,0,0,1,20.92,46.55Zm10.2-7c-.86-1.43-2.74-2.25-6.48-2.84L11.06,34.54c-3.83-.61-5.9-.37-7.17.8s-1.54,3.07-2,5.74l-.8,5.08c-.82,5.16,0,8,6.67,9l13.57,2.15c3.24.51,5.11.34,6.45-.58S30,54,30.5,50.81l.8-5.08C31.75,42.92,32,41,31.12,39.53Zm-1.5,5.93-.8,5.08c-.43,2.68-1,4.17-2,4.81s-2.49.73-5.21.3L8.06,53.5c-2.68-.42-4.3-1.14-5-2.2s-.67-2.39-.28-4.88l.8-5.08c.37-2.33.63-4,1.44-4.75a3.73,3.73,0,0,1,2.56-.67,21,21,0,0,1,3.18.3l13.57,2.15c3.1.49,4.73,1.12,5.28,2h0C30.22,41.35,30,43.1,29.62,45.46Z"/>
</symbol><symbol id="ico_star" viewBox="0 0 19 18">
  <path d="M9.0476 13.8157l5.5914 3.3748-1.4838-6.3605 4.94-4.2795-6.5052-.552L9.0476 0 6.5052 5.9986 0 6.5505 4.94 10.83l-1.4838 6.3605z" fill-rule="evenodd"/>
</symbol><symbol id="ico_star2" viewBox="0 0 19 18">
  <path d="M9.0476 13.8157l5.5914 3.3748-1.4838-6.3605 4.94-4.2795-6.5052-.552L9.0476 0 6.5052 5.9986 0 6.5505 4.94 10.83l-1.4838 6.3605z" stroke="currentColor" fill="none" fill-rule="evenodd"/>
</symbol><symbol id="ico_transcript" viewBox="0 0 40 40">
<path d="M29 12.5H11C10.1716 12.5 9.5 13.1716 9.5 14V26.5C9.5 27.3284 10.1716 28 11 28H29C29.8284 28 30.5 27.3284 30.5 26.5V14C30.5 13.1716 29.8284 12.5 29 12.5Z" fill="#737373"/>
<path d="M13.3999 18H22.1999H13.3999ZM17.8 23H26.6H17.8ZM24.3999 18H26.5999H24.3999ZM13.3999 23H15.5999Z" fill="black"/>
<path d="M13.3999 23H15.5999M13.3999 18H22.1999H13.3999ZM17.8 23H26.6H17.8ZM24.3999 18H26.5999H24.3999Z" stroke="white" stroke-width="2"/>
</symbol><symbol id="ico_transcript_hover" viewBox="0 0 40 40">
<path d="M29 12.5H11C10.1716 12.5 9.5 13.1716 9.5 14V26.5C9.5 27.3284 10.1716 28 11 28H29C29.8284 28 30.5 27.3284 30.5 26.5V14C30.5 13.1716 29.8284 12.5 29 12.5Z" fill="white"/>
<path d="M13.3999 18H22.1999H13.3999ZM17.8 23H26.6H17.8ZM24.3999 18H26.5999H24.3999ZM13.3999 23H15.5999Z" fill="black"/>
<path d="M13.3999 23H15.5999M13.3999 18H22.1999H13.3999ZM17.8 23H26.6H17.8ZM24.3999 18H26.5999H24.3999Z" stroke="#0F05A0" stroke-width="2"/>
</symbol><symbol id="ico_transcript_pressed_video" viewBox="0 0 40 40">
<path d="M29 12.5H11C10.1716 12.5 9.5 13.1716 9.5 14V26.5C9.5 27.3284 10.1716 28 11 28H29C29.8284 28 30.5 27.3284 30.5 26.5V14C30.5 13.1716 29.8284 12.5 29 12.5Z" fill="white"/>
<path d="M13.3999 18H22.1999H13.3999ZM17.8 23H26.6H17.8ZM24.3999 18H26.5999H24.3999ZM13.3999 23H15.5999Z" fill="black"/>
<path d="M13.3999 23H15.5999M13.3999 18H22.1999H13.3999ZM17.8 23H26.6H17.8ZM24.3999 18H26.5999H24.3999Z" stroke="#121416" stroke-width="2"/>
</symbol><symbol id="ico_trash" viewBox="0 0 24 24">
<path fill="" d="M18,8H6V6h3h6h3V8z M17,20H7V9l10,0V20z M10,5V4h4v1H10z M14,18v-7h1v7H14z M11.5,18
	v-7h1v7H11.5z M9,18v-7h1v7H9z M19,6c0-0.6-0.4-1-1-1h-3V4c0-0.6-0.4-1-1-1h-4C9.4,3,9,3.4,9,4v1H6C5.4,5,5,5.4,5,6v3h1v12h12V9h1V6
	z"/>
</symbol><symbol id="ico_trash2" viewBox="0 0 14 18">
  
  <use xlink:href="#a" fill-rule="evenodd"/>
</symbol><symbol id="ico_volume" viewBox="0 0 40 40">
<path d="M27.8437 20.4998C27.8513 19.5491 27.6115 18.6128 27.1481 17.7827C26.6846 16.9526 26.0133 16.2572 25.2 15.7648C25.112 15.7049 25.0126 15.6634 24.9081 15.643C24.8035 15.6225 24.6959 15.6235 24.5917 15.6458C24.4614 15.6738 24.3402 15.7343 24.2395 15.8218C24.1389 15.9093 24.062 16.0208 24.0161 16.146C23.9701 16.2712 23.9567 16.406 23.9769 16.5378C23.9972 16.6696 24.0505 16.7942 24.1318 16.8998C24.1969 16.9841 24.2784 17.0543 24.3713 17.1063C24.9512 17.4581 25.4305 17.9533 25.7633 18.5443C26.096 19.1352 26.2708 19.8019 26.2708 20.4801C26.2708 21.1583 26.096 21.825 25.7633 22.4159C25.4306 23.0069 24.9512 23.5021 24.3713 23.8538C24.1883 23.9638 24.0563 24.1419 24.0044 24.349C23.966 24.5035 23.9741 24.666 24.0278 24.8159C24.0815 24.9658 24.1784 25.0964 24.3062 25.1913C24.4779 25.3184 24.693 25.3722 24.9042 25.3408C25.0089 25.3253 25.1094 25.2892 25.2 25.2348C26.0133 24.7423 26.6845 24.047 27.148 23.2169C27.6115 22.3868 27.8512 21.4505 27.8437 20.4998V20.4998Z"/>
<path d="M27.5274 13.5552C27.4026 13.4614 27.2527 13.4069 27.0969 13.3983C26.941 13.3898 26.7861 13.4278 26.6519 13.5074C26.5175 13.5868 26.4097 13.7044 26.3422 13.8452C26.2747 13.9859 26.2505 14.1436 26.2727 14.2981C26.3024 14.5053 26.413 14.6922 26.5804 14.8179C27.9109 15.816 28.849 17.2494 29.2312 18.8682C29.6133 20.487 29.4153 22.1885 28.6716 23.6763C28.1785 24.6625 27.4625 25.5204 26.5804 26.182C26.4556 26.2757 26.3615 26.4043 26.3097 26.5515C26.2579 26.6987 26.2509 26.8579 26.2895 27.0091C26.3281 27.1603 26.4108 27.2967 26.527 27.4009C26.6432 27.5051 26.7877 27.5725 26.9423 27.5945C27.0449 27.6092 27.1493 27.6035 27.2497 27.5778C27.3501 27.552 27.4445 27.5068 27.5274 27.4446C28.6055 26.636 29.4806 25.5875 30.0833 24.3821C30.6861 23.1767 30.9998 21.8476 30.9998 20.4999C30.9998 19.1522 30.686 17.8231 30.0833 16.6177C29.4806 15.4123 28.6055 14.3638 27.5274 13.5552V13.5552ZM10.4814 17.3433C10.3777 17.3433 10.2751 17.3637 10.1793 17.4033C10.0836 17.443 9.9966 17.5011 9.92332 17.5744C9.85004 17.6477 9.79192 17.7347 9.75227 17.8305C9.71263 17.9262 9.69223 18.0289 9.69226 18.1325V22.8675C9.69225 22.9711 9.71265 23.0737 9.7523 23.1695C9.79195 23.2652 9.85007 23.3523 9.92335 23.4255C9.99662 23.4988 10.0836 23.557 10.1794 23.5966C10.2751 23.6363 10.3777 23.6567 10.4814 23.6567H14.8023C14.9336 23.6567 15.0636 23.6826 15.1849 23.7328C15.3063 23.7831 15.4165 23.8567 15.5094 23.9496L20.6119 29.0521C21.2419 29.6821 22.319 29.2359 22.319 28.345V12.6549C22.319 11.764 21.2419 11.3179 20.6119 11.9478L15.5094 17.0504C15.3218 17.2379 15.0675 17.3433 14.8023 17.3433H10.4814V17.3433Z"/>
</symbol></svg>