<svg width="251" height="82" viewBox="0 0 251 82" fill="none"
    xmlns="http://www.w3.org/2000/svg">
    <g clip-path="url(#clip0_1364_300)">
        <path d="M83 39C82.6913 39.0186 82.3875 39.0861 82.1 39.2C81.7 37.8 81.3 36.4 81 35L82.6 32.8C82.8 32.5 85.5 29.1 85.5 25.9C85.5 21.2 81.5 21.1 81.1 21.1C80.4498 21.0963 79.8071 21.2381 79.2188 21.5149C78.6305 21.7918 78.1116 22.1967 77.7 22.7C77.2511 23.3294 76.9543 24.0543 76.8328 24.8177C76.7114 25.5812 76.7686 26.3624 77 27.1C77.1 27.4 78 31 79 34.6L77.4 36.7L73.9 23.3L81.9 17.4C83.2579 16.3346 84.2864 14.9066 84.8665 13.281C85.4466 11.6555 85.5546 9.89891 85.178 8.21455C84.8013 6.5302 83.9555 4.9869 82.7383 3.76324C81.5211 2.53957 79.9823 1.68556 78.3 1.3V0.4L76.7 0V1L72.1 0.7H70.6V4.4H72.1C72.3075 4.41404 72.503 4.50283 72.6501 4.64993C72.7972 4.79702 72.886 4.99245 72.9 5.2C72.886 5.40755 72.7972 5.60298 72.6501 5.75007C72.503 5.89717 72.3075 5.98596 72.1 6L67.1 5.5L67.5 7.1L72 7.5H72.1C72.4035 7.50542 72.705 7.44963 72.9865 7.33597C73.2681 7.2223 73.5238 7.05309 73.7384 6.83842C73.9531 6.62376 74.1223 6.36804 74.236 6.08655C74.3496 5.80505 74.4054 5.50353 74.4 5.2C74.4054 4.89647 74.3496 4.59495 74.236 4.31345C74.1223 4.03196 73.9531 3.77624 73.7384 3.56158C73.5238 3.34691 73.2681 3.1777 72.9865 3.06403C72.705 2.95037 72.4035 2.89458 72.1 2.9V2.3L76.6 2.6V6.9C76.6017 7.12337 76.5583 7.34479 76.4724 7.55098C76.3864 7.75718 76.2598 7.94391 76.1 8.1C75.9311 8.26576 75.7249 8.38859 75.4987 8.45819C75.2725 8.52778 75.0329 8.54212 74.8 8.5L69.7 8.2L70.1 9.7C68.7231 10.5946 67.5342 11.7496 66.6 13.1L64.6 8.8C64.8722 8.3113 65.0102 7.75928 65 7.2C65.0013 6.72687 64.9091 6.25815 64.7287 5.82078C64.5482 5.38341 64.2831 4.98603 63.9485 4.65147C63.614 4.31692 63.2166 4.0518 62.7792 3.87135C62.3419 3.6909 61.8731 3.59868 61.4 3.6C60.8035 3.57993 60.2123 3.71722 59.6856 3.99808C59.159 4.27893 58.7156 4.69346 58.4 5.2L58.8 1H26.7L27 5.3C26.6751 4.80231 26.2298 4.39472 25.7053 4.11502C25.1809 3.83532 24.5943 3.69257 24 3.7C23.5269 3.69868 23.0581 3.7909 22.6208 3.97135C22.1834 4.1518 21.786 4.41692 21.4515 4.75147C21.1169 5.08603 20.8518 5.48341 20.6713 5.92078C20.4909 6.35815 20.3987 6.82687 20.4 7.3C20.3774 7.86063 20.5162 8.41597 20.8 8.9L18.8 13.2C17.8934 11.8265 16.6992 10.6664 15.3 9.8L15.7 8.3L10.6 8.6C10.1332 8.62264 9.6733 8.48111 9.3 8.2C9.03071 7.78336 8.89147 7.29602 8.9 6.8V2.5L13.4 2.2V2.8C12.7924 2.80777 12.2119 3.05259 11.7823 3.48225C11.3526 3.91191 11.1078 4.49242 11.1 5.1C11.0946 5.40353 11.1504 5.70505 11.264 5.98655C11.3777 6.26804 11.5469 6.52376 11.7616 6.73842C11.9762 6.95309 12.232 7.1223 12.5135 7.23597C12.795 7.34963 13.0965 7.40542 13.4 7.4H13.5L18 7.1L18.4 5.5L13.4 6C13.1924 5.98596 12.997 5.89717 12.8499 5.75007C12.7028 5.60298 12.614 5.40755 12.6 5.2C12.614 4.99245 12.7028 4.79702 12.8499 4.64993C12.997 4.50283 13.1924 4.41404 13.4 4.4H14.9V0.8H13.4L8.9 1V0L7.3 0.4V1.2C5.27208 1.63785 3.45769 2.76287 2.16389 4.38468C0.870086 6.00648 0.176322 8.02548 0.2 10.1C0.199579 11.4869 0.51444 12.8558 1.12078 14.1031C1.72713 15.3504 2.60909 16.4436 3.7 17.3L11.7 23.2L8.2 36.7L6.6 34.6C7.6 31.1 8.5 27.5 8.6 27.1C8.83141 26.3624 8.88863 25.5812 8.76717 24.8177C8.64571 24.0543 8.34888 23.3294 7.9 22.7C7.48843 22.1967 6.9695 21.7918 6.38121 21.5149C5.79292 21.2381 5.15016 21.0963 4.5 21.1C4 21.1 0 21.3 0 26C0 29.1 2.7 32.5 2.9 32.9L4.5 35C4.1 36.4 3.7 37.8 3.4 39.2C3.15142 39.075 2.87818 39.0066 2.6 39C2.01652 39 1.45695 39.2318 1.04437 39.6444C0.631785 40.0569 0.4 40.6165 0.4 41.2C0.4 41.7835 0.631785 42.3431 1.04437 42.7556C1.45695 43.1682 2.01652 43.4 2.6 43.4C3.07769 43.4031 3.54292 43.2477 3.9229 42.9582C4.30287 42.6687 4.57616 42.2614 4.7 41.8C4.8 41.3 5.4 39.3 6 37L7.6 39.1L3.4 54.9C3.31767 55.1582 3.28377 55.4295 3.3 55.7C3.30305 56.2817 3.44701 56.8539 3.71954 57.3678C3.99208 57.8817 4.38508 58.3219 4.8649 58.6507C5.34473 58.9795 5.89708 59.1872 6.47469 59.2559C7.0523 59.3246 7.63796 59.2524 8.18153 59.0453C8.72511 58.8382 9.21041 58.5025 9.5959 58.0669C9.98139 57.6313 10.2556 57.1087 10.395 56.544C10.5344 55.9793 10.5349 55.3892 10.3965 54.8242C10.258 54.2593 9.98474 53.7363 9.6 53.3L13.3 47.3L20.7 57.7C21.0556 58.2123 21.5372 58.6243 22.0984 58.8964C22.6596 59.1684 23.2814 59.2913 23.9038 59.2532C24.5263 59.215 25.1284 59.0172 25.6522 58.6787C26.176 58.3402 26.6037 57.8725 26.8942 57.3206C27.1846 56.7688 27.328 56.1514 27.3105 55.528C27.293 54.9046 27.1151 54.2962 26.7941 53.7616C26.4732 53.2269 26.0198 52.7839 25.4779 52.4754C24.9359 52.1668 24.3236 52.0031 23.7 52H23.5L18.5 37.8C18.2647 37.1654 17.8612 36.6068 17.3328 36.1841C16.8043 35.7613 16.1707 35.4902 15.5 35.4H14.9L18.3 28L22.8 31.3C23.4194 31.812 24.1964 32.0946 25 32.1C25.2374 32.1085 25.4745 32.0746 25.7 32L27 45.1C27.5128 48.9036 29.3976 52.3888 32.3 54.9C35.1717 57.6078 38.9534 59.1419 42.9 59.2C46.8503 59.1605 50.6386 57.6238 53.5 54.9C56.3837 52.3738 58.2645 48.8961 58.8 45.1L60 32.1C60.2 32.1 60.4 32.2 60.7 32.2C61.5036 32.1946 62.2806 31.912 62.9 31.4L67.4 28.1L70.8 35.5H70.2C69.5293 35.5902 68.8957 35.8613 68.3672 36.2841C67.8388 36.7068 67.4353 37.2654 67.2 37.9L62.2 52.1H62C61.0452 52.1 60.1295 52.4793 59.4544 53.1544C58.7793 53.8295 58.4 54.7452 58.4 55.7C58.4 56.6548 58.7793 57.5704 59.4544 58.2456C60.1295 58.9207 61.0452 59.3 62 59.3C62.5809 59.2932 63.1528 59.1547 63.6724 58.8949C64.1921 58.635 64.646 58.2607 65 57.8L72.4 47.4L76.1 53.4C75.7414 53.6631 75.4533 54.0107 75.2614 54.412C75.0695 54.8132 74.9797 55.2557 75 55.7C75 56.6548 75.3793 57.5704 76.0544 58.2456C76.7295 58.9207 77.6452 59.3 78.6 59.3C79.5548 59.3 80.4705 58.9207 81.1456 58.2456C81.8207 57.5704 82.2 56.6548 82.2 55.7C82.2162 55.4295 82.1823 55.1582 82.1 54.9L78 39.1L79.6 37C80.2 39.3 80.8 41.3 80.9 41.8C81.0238 42.2614 81.2971 42.6687 81.6771 42.9582C82.0571 43.2477 82.5223 43.4031 83 43.4C83.5835 43.4 84.1431 43.1682 84.5556 42.7556C84.9682 42.3431 85.2 41.7835 85.2 41.2C85.2 40.6165 84.9682 40.0569 84.5556 39.6444C84.1431 39.2318 83.5835 39 83 39ZM5.2 32.7L4.5 31.7C3.8 30.8 2 28.1 2 26C2 23.4 3.8 23.1 4.5 23.1C4.8787 23.0959 5.25375 23.1743 5.59912 23.3297C5.94449 23.4851 6.25189 23.7139 6.5 24C6.75668 24.4137 6.92475 24.8761 6.9936 25.3581C7.06245 25.84 7.03058 26.331 6.9 26.8C6.19235 28.7233 5.62422 30.6951 5.2 32.7ZM61.6 5.5C61.9114 5.50581 62.2155 5.59559 62.4801 5.75987C62.7448 5.92415 62.9602 6.15683 63.1035 6.43335C63.2469 6.70987 63.313 7.01997 63.2948 7.33092C63.2765 7.64186 63.1747 7.94212 63 8.2L62.7 8.6L65.8 15.1C65.3668 16.1828 65.1298 17.3341 65.1 18.5L60.1 7.7C60.0186 7.51105 59.9842 7.30515 60 7.1C59.8 6.3 60.6 5.5 61.6 5.5ZM50.9 10.3H46.5V8.2H51L50.9 10.3ZM45 10.3H40.6V8.2H45V10.3ZM39.1 10.3H34.7L34.6 8.2H39L39.1 10.3ZM33.1 10.3H29L28.8 8.2H33.1V10.3ZM56.5 11.9L56.3 14.4H29.3L29.1 11.9H56.5ZM56.6 10.3H52.4L52.5 8.2H56.8L56.6 10.3ZM54.2 2.6L54.1 5.3H55.6L55.7 2.6H57.2L56.9 6.7H52.5L52.6 2.6H54.2ZM48.1 2.6L48 5.3H49.5L49.6 2.6H51.1L51 6.7H46.5L46.6 2.6H48.1ZM42 2.6V5.3H43.5V2.6H45V6.7H40.5L40.4 2.6H42ZM35.9 2.6L36 5.3H37.5L37.4 2.6H39V6.7H34.5L34.4 2.6H35.9ZM29.8 2.6L30 5.3H31.5L31.4 2.6H32.9L33 6.7H28.6L28.3 2.6H29.8ZM27.3 8.7L27.9 15.9H57.7L58.3 8.7L64.8 22.7L61.5 25.1C61.2429 25.0127 60.9707 24.9787 60.7 25L61.3 18.5H24.3L24.9 25C24.5965 24.9837 24.2925 25.0175 24 25.1L20.7 22.7L27.3 8.7ZM28.4 27.4H32.3L34.8 29.8H28.4C28.5153 29.4096 28.5824 29.0066 28.6 28.6C28.5824 28.1934 28.5153 27.7904 28.4 27.4ZM27.4 25.9C27.2539 25.7428 27.0854 25.608 26.9 25.5L26.6 21.9L30.7 25.8H27.4V25.9ZM22.9 8.7L22.6 8.3C22.41 8.00056 22.3062 7.65456 22.3 7.3C22.3 6.84913 22.4791 6.41673 22.7979 6.09792C23.1167 5.77911 23.5491 5.6 24 5.6C24.4509 5.6 24.8833 5.77911 25.2021 6.09792C25.5209 6.41673 25.7 6.84913 25.7 7.3C25.7158 7.50515 25.6814 7.71105 25.6 7.9L20.6 18.7C20.5215 17.5402 20.286 16.3965 19.9 15.3L22.9 8.7ZM15.2 37.4C15.5348 37.4467 15.8509 37.5828 16.1148 37.794C16.3788 38.0051 16.581 38.2836 16.7 38.6L22.3 54.4L23.2 54.1C23.3564 54.0276 23.5278 53.9933 23.7 54C23.9236 53.9987 24.1453 54.0417 24.3521 54.1267C24.559 54.2117 24.7469 54.3368 24.905 54.495C25.0632 54.6531 25.1883 54.841 25.2733 55.0479C25.3583 55.2547 25.4013 55.4764 25.4 55.7C25.3945 56.0593 25.2766 56.4079 25.0628 56.6967C24.8491 56.9856 24.5502 57.2002 24.2082 57.3106C23.8663 57.4209 23.4983 57.4213 23.156 57.3118C22.8138 57.2023 22.5144 56.9884 22.3 56.7L14.5 45.6L15 44.7C15.304 44.1469 15.4752 43.5307 15.5 42.9C15.4972 42.1272 15.2415 41.3765 14.772 40.7626C14.3026 40.1486 13.6451 39.7052 12.9 39.5L13.7 37.7C14.1496 37.4279 14.6803 37.3218 15.2 37.4ZM10.7 39.8L11.8 41.3H12.1C12.3109 41.2973 12.5201 41.3369 12.7155 41.4163C12.9108 41.4958 13.0882 41.6135 13.2374 41.7626C13.3865 41.9118 13.5042 42.0892 13.5837 42.2845C13.6631 42.4799 13.7027 42.6891 13.7 42.9C13.6934 43.1782 13.625 43.4514 13.5 43.7L7.2 53.7L8 54.2C8.2376 54.3502 8.43475 54.5564 8.57422 54.8004C8.71369 55.0445 8.79121 55.319 8.8 55.6C8.80133 55.8236 8.75826 56.0453 8.6733 56.2521C8.58834 56.459 8.46317 56.6469 8.30504 56.805C8.14692 56.9632 7.95898 57.0883 7.75213 57.1733C7.54528 57.2583 7.32362 57.3013 7.1 57.3C6.65311 57.2874 6.22799 57.1043 5.91187 56.7881C5.59575 56.472 5.4126 56.0469 5.4 55.6V55.2L13.5 24.3L16.9 26.8L10.7 39.8ZM25 30.3C24.7992 30.3105 24.5983 30.2804 24.4094 30.2117C24.2204 30.143 24.0472 30.037 23.9 29.9L4.9 15.8C4.02856 15.1272 3.32301 14.2635 2.83761 13.2754C2.3522 12.2872 2.09987 11.2009 2.1 10.1C2.10135 8.52981 2.60757 7.00166 3.54391 5.74119C4.48026 4.48073 5.7971 3.55476 7.3 3.1V6.7C7.30658 7.13041 7.39834 7.55525 7.56997 7.95001C7.74161 8.34477 7.98972 8.70163 8.3 9C8.5706 9.31822 8.90806 9.57282 9.28833 9.74568C9.6686 9.91853 10.0823 10.0054 10.5 10H10.7L12.1 9.9C12.3269 9.98739 12.5612 10.0543 12.8 10.1C14.6607 10.841 16.2559 12.1237 17.3792 13.7818C18.5025 15.44 19.1019 17.3972 19.1 19.4C19.0829 20.0376 19.016 20.6728 18.9 21.3L14.9 18.4L14.4 20.4L23.7 27.3L24.2 27.1C24.42 27.0006 24.6586 26.9492 24.9 26.9492C25.1414 26.9492 25.38 27.0006 25.6 27.1C25.9116 27.2414 26.1787 27.4651 26.3725 27.747C26.5664 28.029 26.6796 28.3585 26.7 28.7C26.7025 28.9833 26.6298 29.2622 26.4893 29.5081C26.3487 29.7541 26.1454 29.9584 25.9 30.1C25.6125 30.2139 25.3087 30.2814 25 30.3ZM27.4 31.3H36.3L38.8 33.7H27.7L27.4 31.3ZM27.8 35.2H40.4L42.9 37.6H28.1L27.8 35.2ZM28.2 39.1H44.5L47 41.5H28.4L28.2 39.1ZM28.8 45.1L28.6 43.1H48.6L51.1 45.5H28.8V45.1ZM29.1 47H52.6L55.1 49.4H30.1C29.7243 48.6183 29.3905 47.8172 29.1 47ZM42.8 57.5C39.9648 57.4492 37.2112 56.5429 34.9 54.9H50.7C48.3888 56.5429 45.6352 57.4492 42.8 57.5ZM52.5 53.3H33C32.2282 52.5938 31.5554 51.7865 31 50.9H54.6C54.0093 51.7894 53.3032 52.5965 52.5 53.3ZM56.8 45.1C56.6958 46.0187 56.4947 46.9237 56.2 47.8L27.7 20.4H59.2L58.7 25.5C58.186 25.8396 57.7626 26.2995 57.4664 26.8396C57.1702 27.3798 57.0101 27.984 57 28.6C56.9909 29.0863 57.0841 29.569 57.2736 30.0169C57.4631 30.4648 57.7447 30.8679 58.1 31.2L56.8 45.1ZM61.7 29.9C61.5528 30.037 61.3796 30.143 61.1906 30.2117C61.0017 30.2804 60.8008 30.3105 60.6 30.3C60.2454 30.2938 59.8994 30.19 59.6 30C59.3301 29.8366 59.1121 29.6001 58.9711 29.3179C58.8301 29.0356 58.7719 28.7192 58.8033 28.4053C58.8347 28.0914 58.9544 27.7928 59.1485 27.5441C59.3426 27.2954 59.6031 27.1067 59.9 27C60.12 26.9006 60.3586 26.8492 60.6 26.8492C60.8414 26.8492 61.08 26.9006 61.3 27L61.8 27.2L71.1 20.3L70.6 18.3L66.6 21.2C66.4788 20.5736 66.4118 19.9379 66.4 19.3C66.4115 17.3003 67.0163 15.349 68.1379 13.6934C69.2594 12.0378 70.8472 10.7523 72.7 10C72.9388 9.95433 73.1731 9.88739 73.4 9.8L74.8 9.9H75C75.4079 9.90209 75.8122 9.82368 76.1897 9.66924C76.5672 9.5148 76.9105 9.28737 77.2 9C77.5103 8.70163 77.7584 8.34477 77.93 7.95001C78.1017 7.55525 78.1934 7.13041 78.2 6.7V3.1C79.4797 3.48056 80.6299 4.20616 81.5244 5.19723C82.419 6.1883 83.0233 7.40656 83.2713 8.71842C83.5192 10.0303 83.401 11.3851 82.9298 12.6342C82.4586 13.8834 81.6526 14.9787 80.6 15.8L61.7 29.9ZM63.3 56.7C63.1448 56.9254 62.935 57.1079 62.6902 57.2303C62.4453 57.3527 62.1735 57.4111 61.9 57.4C61.6764 57.4013 61.4547 57.3583 61.2479 57.2733C61.041 57.1883 60.8531 57.0632 60.695 56.905C60.5368 56.7469 60.4117 56.559 60.3267 56.3521C60.2417 56.1453 60.1987 55.9236 60.2 55.7C60.2126 55.2531 60.3957 54.828 60.7119 54.5119C61.028 54.1957 61.4531 54.0126 61.9 54C62.0732 53.9739 62.2501 54.0093 62.4 54.1L63.3 54.4L68.9 38.6C69.019 38.2836 69.2212 38.0051 69.4852 37.794C69.7491 37.5828 70.0652 37.4467 70.4 37.4C70.6415 37.3533 70.89 37.3559 71.1306 37.4074C71.3711 37.4589 71.5988 37.5585 71.8 37.7L72.6 39.5C71.8408 39.7142 71.174 40.1738 70.7036 40.807C70.2333 41.4402 69.9858 42.2113 70 43C70.0117 43.6326 70.1838 44.252 70.5 44.8L71 45.7L63.3 56.7ZM80.3 55.4V55.8C80.3013 56.0236 80.2583 56.2453 80.1733 56.4521C80.0883 56.659 79.9632 56.8469 79.805 57.005C79.6469 57.1632 79.459 57.2883 79.2521 57.3733C79.0453 57.4583 78.8236 57.5013 78.6 57.5C78.1531 57.4874 77.728 57.3043 77.4119 56.9881C77.0957 56.672 76.9126 56.2469 76.9 55.8C76.8975 55.5167 76.9702 55.2378 77.1107 54.9919C77.2513 54.7459 77.4546 54.5416 77.7 54.4L78.5 53.9L72.2 43.9C72.0409 43.6653 71.9701 43.3819 72 43.1C71.9973 42.8891 72.0369 42.6799 72.1163 42.4845C72.1958 42.2892 72.3135 42.1118 72.4626 41.9626C72.6118 41.8135 72.7892 41.6958 72.9845 41.6163C73.1799 41.5369 73.3891 41.4973 73.6 41.5H73.9L75 40L69 27.1L72.4 24.6L80.3 55.4ZM78.8 26.7C78.5 25.4 78.6 24.5 79.2 23.9C79.4567 23.6245 79.7658 23.4029 80.1093 23.2484C80.4527 23.0938 80.8235 23.0094 81.2 23C82 23 83.7 23.3 83.7 25.9C83.7 28.5 81.2 31.5 81.2 31.6L80.4 32.6C79.6 29.5 78.9 27 78.8 26.7Z" fill="#0F05A0"/>
        <path d="M112.2 2.20003C114.053 2.1003 115.885 2.62882 117.4 3.70003C118.03 4.19629 118.532 4.83699 118.863 5.568C119.194 6.29901 119.344 7.09887 119.3 7.90003H115.5C115.51 7.52049 115.434 7.14365 115.278 6.79743C115.122 6.45122 114.89 6.1445 114.6 5.90003C113.826 5.40561 112.918 5.16123 112 5.20002C111.301 5.18623 110.61 5.35881 110 5.70002C109.751 5.86214 109.547 6.08473 109.407 6.34703C109.267 6.60933 109.196 6.90278 109.2 7.20003C109.187 7.41026 109.226 7.62044 109.313 7.81219C109.4 8.00393 109.533 8.17143 109.7 8.30003C110.104 8.55737 110.542 8.75918 111 8.90002C111.6 9.10002 112.6 9.30002 114 9.70003C115.17 9.98707 116.309 10.389 117.4 10.9C118.156 11.275 118.782 11.8669 119.2 12.6C119.62 13.3646 119.828 14.228 119.8 15.1C119.813 16.1949 119.483 17.2665 118.855 18.1635C118.227 19.0606 117.333 19.7379 116.3 20.1C115.051 20.5608 113.731 20.7978 112.4 20.8C110.43 20.8508 108.498 20.2536 106.9 19.1C106.206 18.5583 105.653 17.8574 105.288 17.0567C104.922 16.256 104.755 15.3791 104.8 14.5V14.4H108.6C108.58 14.8586 108.67 15.3152 108.861 15.7325C109.052 16.1497 109.34 16.5156 109.7 16.8C110.498 17.4214 111.49 17.7402 112.5 17.7C113.373 17.74 114.24 17.532 115 17.1C115.303 16.9319 115.556 16.6856 115.732 16.3866C115.908 16.0876 116.001 15.7469 116 15.4C116.002 15.1767 115.958 14.9552 115.872 14.749C115.786 14.5428 115.66 14.3561 115.5 14.2C115.098 13.8334 114.62 13.5602 114.1 13.4C113.5 13.2 112.5 12.9 111.2 12.6C109.969 12.3658 108.786 11.9263 107.7 11.3C107.042 10.8726 106.466 10.3307 106 9.70003C105.579 9.00849 105.371 8.20886 105.4 7.40003C105.363 6.34286 105.719 5.30945 106.4 4.50003C107.055 3.68455 107.919 3.06237 108.9 2.70003C109.973 2.38741 111.083 2.21926 112.2 2.20003Z" fill="#0F05A0"/>
        <path d="M126.4 3.70001V7.60001H129V10H126.4V16.4C126.35 16.8233 126.456 17.2503 126.7 17.6C127.05 17.8436 127.477 17.9504 127.9 17.9C128.27 17.9212 128.64 17.8875 129 17.8V20.6C128.304 20.6939 127.602 20.7273 126.9 20.7C125.85 20.8072 124.794 20.5609 123.9 20C123.546 19.7153 123.269 19.3465 123.095 18.9272C122.92 18.508 122.853 18.0517 122.9 17.6V9.90001H120.8V7.50001H122.9V3.70001H126.4Z" fill="#0F05A0"/>
        <path d="M137.1 7.20001C140.9 7.20001 142.7 8.40001 142.7 10.9V17.7C142.587 18.6299 142.762 19.5721 143.2 20.4H139.6C139.485 20.0096 139.418 19.6067 139.4 19.2C138.838 19.7562 138.163 20.1865 137.422 20.4624C136.681 20.7382 135.889 20.8533 135.1 20.8C133.947 20.8695 132.808 20.5137 131.9 19.8C131.501 19.4544 131.186 19.0228 130.978 18.5378C130.77 18.0529 130.675 17.5271 130.7 17C130.671 16.4965 130.755 15.9928 130.945 15.5257C131.135 15.0586 131.427 14.6399 131.8 14.3C133.043 13.4666 134.503 13.0148 136 13C136.935 13.0175 137.86 12.8118 138.7 12.4C138.884 12.3063 139.037 12.1629 139.143 11.9861C139.249 11.8092 139.304 11.6062 139.3 11.4C139.311 11.1605 139.273 10.9213 139.187 10.6975C139.101 10.4737 138.969 10.2702 138.8 10.1C138.262 9.76874 137.628 9.62787 137 9.70001C136.395 9.6825 135.799 9.85757 135.3 10.2C135.089 10.3907 134.919 10.6216 134.798 10.8792C134.678 11.1368 134.611 11.4159 134.6 11.7H131C131.016 11.0602 131.188 10.4341 131.502 9.87624C131.816 9.31843 132.262 8.84593 132.8 8.50001C134.026 7.55471 135.556 7.09213 137.1 7.20001ZM134.1 16.8C134.1 17.9 134.8 18.4 136.3 18.4C136.693 18.4507 137.092 18.4106 137.467 18.2827C137.842 18.1549 138.183 17.9428 138.463 17.6627C138.743 17.3826 138.955 17.042 139.083 16.667C139.211 16.2921 139.251 15.8929 139.2 15.5V14.1C138.576 14.5062 137.844 14.7152 137.1 14.7C136.332 14.738 135.581 14.9427 134.9 15.3C134.651 15.4621 134.447 15.6847 134.307 15.947C134.167 16.2093 134.096 16.5028 134.1 16.8Z" fill="#0F05A0"/>
        <path d="M158 2.60004V20.4H154.6V18.8C154.192 19.4555 153.614 19.9878 152.927 20.3401C152.24 20.6923 151.47 20.8513 150.7 20.8C149.899 20.8436 149.099 20.6936 148.368 20.3629C147.637 20.0322 146.996 19.5305 146.5 18.9C145.425 17.4579 144.862 15.6983 144.9 13.9C144.796 12.1538 145.369 10.4347 146.5 9.10004C147.002 8.50234 147.63 8.02236 148.339 7.69403C149.047 7.36571 149.819 7.19707 150.6 7.20004C151.36 7.21143 152.11 7.38175 152.8 7.70004C153.461 7.99708 154.018 8.48455 154.4 9.10004H154.5V2.60004H158ZM148.4 14C148.377 15.0556 148.654 16.0961 149.2 17C149.45 17.3784 149.793 17.687 150.195 17.8969C150.597 18.1068 151.046 18.2111 151.5 18.2C151.944 18.2194 152.386 18.1292 152.787 17.9374C153.188 17.7456 153.536 17.458 153.8 17.1C154.371 16.1701 154.65 15.0902 154.6 14C154.652 12.9412 154.372 11.8926 153.8 11C153.518 10.6638 153.167 10.3934 152.769 10.2079C152.372 10.0223 151.939 9.92617 151.5 9.92617C151.061 9.92617 150.628 10.0223 150.231 10.2079C149.833 10.3934 149.482 10.6638 149.2 11C148.628 11.8926 148.348 12.9412 148.4 14Z" fill="#0F05A0"/>
        <path d="M165.5 3.70001V7.60001H168.1V10H165.5V16.4C165.45 16.8233 165.556 17.2503 165.8 17.6C166.15 17.8436 166.577 17.9504 167 17.9C167.37 17.9212 167.74 17.8875 168.1 17.8V20.6C167.404 20.6939 166.702 20.7273 166 20.7C164.95 20.8072 163.894 20.5609 163 20C162.646 19.7153 162.369 19.3465 162.195 18.9272C162.02 18.508 161.953 18.0517 162 17.6V9.90001H159.9V7.50001H162V3.70001H165.5Z" fill="#0F05A0"/>
        <path d="M190 2.60004V5.70004L180.4 17.1H190.2V20.4H175.2V17.3L184.8 5.90004H176V2.60004H190Z" fill="#0F05A0"/>
        <path d="M195.6 7.50004V14.8C195.565 15.597 195.738 16.3894 196.1 17.1C196.305 17.3774 196.579 17.5968 196.895 17.737C197.21 17.8772 197.556 17.9334 197.9 17.9C198.298 17.942 198.7 17.8813 199.067 17.7238C199.435 17.5662 199.756 17.317 200 17C200.465 16.1439 200.674 15.1717 200.6 14.2V7.50004H204.1V20.4H200.7V18.6H200.6C200.185 19.2782 199.593 19.8315 198.889 20.2011C198.185 20.5708 197.394 20.7432 196.6 20.7C194.9 20.7 193.7 20.3 193 19.4C192.197 18.2271 191.809 16.8188 191.9 15.4V7.40004L195.6 7.50004ZM197.3 2.60004V5.50004H193.9V2.60004H197.3ZM202.4 2.60004V5.50004H199V2.60004H202.4Z" fill="#0F05A0"/>
        <path d="M214.7 7.20002C214.971 7.1787 215.243 7.21273 215.5 7.30002V10.6C215.072 10.5131 214.636 10.4795 214.2 10.5C211.9 10.5 210.7 11.9 210.7 14.6V20.4H207.2V7.50002H210.6V9.90002C210.932 9.06507 211.529 8.36238 212.3 7.90002C213.005 7.41626 213.846 7.17094 214.7 7.20002Z" fill="#0F05A0"/>
        <path d="M220.9 2.60004V5.50004H217.4V2.60004H220.9ZM220.9 7.50004V20.4H217.4V7.50004H220.9Z" fill="#0F05A0"/>
        <path d="M229.7 7.20003C231.242 7.10767 232.767 7.56863 234 8.50003C234.54 8.9367 234.98 9.48395 235.29 10.1049C235.601 10.7259 235.775 11.4062 235.8 12.1H232.3C232.286 11.7805 232.206 11.4674 232.065 11.1803C231.924 10.8932 231.725 10.6383 231.481 10.4317C231.237 10.2251 230.952 10.0713 230.646 9.97976C230.34 9.88826 230.017 9.86111 229.7 9.90003C229.272 9.89275 228.848 9.98896 228.465 10.1805C228.082 10.372 227.751 10.6531 227.5 11C226.954 11.904 226.677 12.9444 226.7 14C226.663 15.0259 226.942 16.0384 227.5 16.9C227.743 17.2554 228.072 17.5429 228.457 17.7354C228.842 17.9279 229.27 18.0189 229.7 18C230.057 18.0246 230.416 17.9758 230.753 17.8564C231.091 17.7371 231.4 17.5498 231.663 17.3061C231.925 17.0625 232.135 16.7676 232.279 16.4398C232.423 16.112 232.498 15.7581 232.5 15.4H235.9C235.84 16.1499 235.633 16.8806 235.29 17.5499C234.947 18.2193 234.474 18.8141 233.9 19.3C232.601 20.2771 231.002 20.7716 229.378 20.6986C227.754 20.6257 226.206 19.9897 225 18.9C224.39 18.2641 223.915 17.5105 223.606 16.6853C223.297 15.86 223.158 14.9804 223.2 14.1C223.117 12.231 223.762 10.4026 225 9.00003C225.61 8.38291 226.345 7.90312 227.156 7.59271C227.966 7.28231 228.834 7.14843 229.7 7.20003Z" fill="#0F05A0"/>
        <path d="M241.5 2.60004V9.30004H241.6C241.973 8.62718 242.527 8.07273 243.2 7.70004C243.866 7.30476 244.626 7.0974 245.4 7.10004C246.05 7.05009 246.703 7.13052 247.321 7.33659C247.939 7.54267 248.51 7.87023 249 8.30004C249.819 9.42787 250.209 10.8106 250.1 12.2V20.3H246.6V13C246.635 12.2031 246.462 11.4107 246.1 10.7C245.895 10.4227 245.621 10.2033 245.305 10.0631C244.99 9.92289 244.644 9.86672 244.3 9.90004C243.903 9.86815 243.505 9.93344 243.139 10.0903C242.773 10.2471 242.451 10.4907 242.2 10.8C241.697 11.6443 241.453 12.6182 241.5 13.6V20.4H238V2.60004H241.5Z" fill="#0F05A0"/>
        <path d="M104.874 39.789C104.874 44.251 107.519 48.391 112.74 48.391C117.961 48.391 120.606 44.251 120.606 39.789C120.606 35.327 117.961 31.187 112.74 31.187C107.519 31.187 104.874 35.327 104.874 39.789ZM107.059 39.789C107.059 36.477 108.738 33.027 112.74 33.027C116.742 33.027 118.421 36.477 118.421 39.789C118.421 43.101 116.742 46.551 112.74 46.551C108.738 46.551 107.059 43.101 107.059 39.789ZM132.216 41.951C132.216 44.274 131.319 46.551 128.651 46.551C125.96 46.551 124.902 44.389 124.902 42.043C124.902 39.812 125.914 37.558 128.536 37.558C131.066 37.558 132.216 39.72 132.216 41.951ZM123.016 52.554H124.971V46.413H125.017C125.891 47.816 127.639 48.276 128.858 48.276C132.492 48.276 134.286 45.447 134.286 42.089C134.286 38.731 132.469 35.833 128.812 35.833C127.179 35.833 125.661 36.408 125.017 37.719H124.971V36.109H123.016V52.554ZM144.791 44.228C144.446 45.769 143.319 46.551 141.709 46.551C139.11 46.551 137.937 44.711 138.006 42.641H146.907C147.022 39.766 145.734 35.833 141.525 35.833C138.282 35.833 135.936 38.455 135.936 42.02C136.051 45.654 137.845 48.276 141.64 48.276C144.308 48.276 146.194 46.85 146.723 44.228H144.791ZM138.006 40.916C138.144 39.099 139.363 37.558 141.41 37.558C143.342 37.558 144.745 39.053 144.837 40.916H138.006ZM148.934 48H150.889V41.284C150.889 39.145 152.039 37.558 154.408 37.558C155.903 37.558 156.823 38.501 156.823 39.95V48H158.778V40.18C158.778 37.627 157.812 35.833 154.684 35.833C152.982 35.833 151.648 36.523 150.82 37.995H150.774V36.109H148.934V48ZM168.438 48H174.073C179.547 48 181.962 44.895 181.962 39.398C181.962 34.108 179.133 31.578 174.073 31.578H168.438V48ZM170.623 33.418H174.303C178.328 33.418 179.777 35.787 179.777 39.697C179.777 45.746 175.752 46.16 174.257 46.16H170.623V33.418ZM191.67 43.86C191.67 44.941 190.612 46.551 188.036 46.551C186.84 46.551 185.736 46.091 185.736 44.803C185.736 43.354 186.84 42.894 188.128 42.664C189.439 42.434 190.911 42.411 191.67 41.859V43.86ZM194.844 46.436C194.591 46.528 194.407 46.551 194.246 46.551C193.625 46.551 193.625 46.137 193.625 45.217V39.099C193.625 36.316 191.302 35.833 189.163 35.833C186.518 35.833 184.241 36.868 184.126 39.812H186.081C186.173 38.064 187.392 37.558 189.048 37.558C190.29 37.558 191.693 37.834 191.693 39.536C191.693 41.008 189.853 40.87 187.691 41.284C185.667 41.675 183.666 42.25 183.666 44.941C183.666 47.31 185.437 48.276 187.599 48.276C189.255 48.276 190.704 47.701 191.785 46.436C191.785 47.724 192.429 48.276 193.441 48.276C194.062 48.276 194.499 48.161 194.844 47.954V46.436ZM199.377 32.544H197.422V36.109H195.398V37.834H197.422V45.401C197.422 47.586 198.227 48 200.251 48H201.746V46.275H200.849C199.63 46.275 199.377 46.114 199.377 45.217V37.834H201.746V36.109H199.377V32.544ZM211.278 43.86C211.278 44.941 210.22 46.551 207.644 46.551C206.448 46.551 205.344 46.091 205.344 44.803C205.344 43.354 206.448 42.894 207.736 42.664C209.047 42.434 210.519 42.411 211.278 41.859V43.86ZM214.452 46.436C214.199 46.528 214.015 46.551 213.854 46.551C213.233 46.551 213.233 46.137 213.233 45.217V39.099C213.233 36.316 210.91 35.833 208.771 35.833C206.126 35.833 203.849 36.868 203.734 39.812H205.689C205.781 38.064 207 37.558 208.656 37.558C209.898 37.558 211.301 37.834 211.301 39.536C211.301 41.008 209.461 40.87 207.299 41.284C205.275 41.675 203.274 42.25 203.274 44.941C203.274 47.31 205.045 48.276 207.207 48.276C208.863 48.276 210.312 47.701 211.393 46.436C211.393 47.724 212.037 48.276 213.049 48.276C213.67 48.276 214.107 48.161 214.452 47.954V46.436Z" fill="#0F05A0"/>
    </g>
    <defs>
        <clipPath id="clip0_1364_300">
            <rect width="250.1" height="81.5" fill="white"/>
        </clipPath>
    </defs>
</svg>
