<svg xmlns="http://www.w3.org/2000/svg" width="342" height="53" viewBox="0 0 342 53"><path d="M90.223 13.298c0 2.493 1.94 3.464 4.143 3.464 1.443 0 3.646-.42 3.646-2.337 0-2.02-2.806-2.358-5.56-3.092-2.78-.734-5.585-1.81-5.585-5.325 0-3.827 3.619-5.664 7.002-5.664 3.908 0 7.5 1.705 7.5 6.032h-3.987c-.13-2.256-1.729-2.834-3.697-2.834-1.311 0-2.832.551-2.832 2.127 0 1.441.892 1.625 5.585 2.83 1.363.341 5.56 1.21 5.56 5.457 0 3.437-2.702 6.007-7.79 6.007-4.143 0-8.024-2.048-7.973-6.664h3.988v-.001zm18.801-7.339h2.727v2.489h-2.727v6.715c0 1.258.313 1.573 1.573 1.573.394 0 .761-.027 1.152-.105v2.91c-.628.105-1.44.132-2.176.132-2.28 0-4.273-.523-4.273-3.227V8.448h-2.255V5.959h2.255V1.892h3.725l-.001 4.067zm5.271 4.169c.209-3.488 3.331-4.54 6.374-4.54 2.701 0 5.953.603 5.953 3.855v7.054c0 1.234.132 2.463.472 3.014h-3.776a5.49 5.49 0 0 1-.264-1.309c-1.178 1.231-2.909 1.677-4.562 1.677-2.571 0-4.616-1.286-4.616-4.065 0-3.068 2.307-3.799 4.616-4.117 2.282-.341 4.405-.261 4.405-1.781 0-1.6-1.101-1.839-2.412-1.839-1.416 0-2.334.578-2.465 2.049l-3.725.002zm8.601 2.751c-.629.551-1.939.578-3.094.788-1.153.237-2.202.629-2.202 1.993 0 1.39 1.074 1.731 2.28 1.731 2.911 0 3.016-2.307 3.016-3.122v-1.39zm16.418 4.907h-.052c-.865 1.467-2.388 2.097-4.118 2.097-4.092 0-6.083-3.514-6.083-7.266 0-3.644 2.02-7.027 6.004-7.027 1.6 0 3.173.683 4.013 2.02h.054V.792h3.725v18.722h-3.542l-.001-1.728zm-3.251-9.389c-2.438 0-3.277 2.098-3.277 4.327 0 2.122.97 4.352 3.277 4.352 2.467 0 3.2-2.149 3.2-4.378 0-2.203-.787-4.301-3.2-4.301zm14.842-2.438h2.729v2.489h-2.729v6.715c0 1.258.314 1.573 1.573 1.573a5.79 5.79 0 0 0 1.156-.105v2.91c-.629.105-1.444.132-2.178.132-2.281 0-4.272-.523-4.272-3.227V8.448h-2.257V5.959h2.257V1.892h3.721v4.067zm12.036 10.304l10.043-12.01h-9.255V.792h14.736v3.251l-10.043 12.009h10.308v3.461h-15.789v-3.25zm30.787 3.251h-3.537v-1.888h-.078c-.945 1.522-2.57 2.255-4.145 2.255-3.963 0-4.957-2.229-4.957-5.585V5.959h3.723v7.659c0 2.227.656 3.33 2.389 3.33 2.021 0 2.885-1.129 2.885-3.881V5.959h3.723l-.003 13.555zM182.899.792h3.539v3.069h-3.539V.792zm5.405 0h3.537v3.069h-3.537V.792zm8.78 5.167h3.539v2.517h.056c.68-1.705 2.518-2.886 4.325-2.886.263 0 .576.051.812.132v3.461a6.876 6.876 0 0 0-1.336-.132c-2.729 0-3.674 1.968-3.674 4.356v6.106h-3.723l.001-13.554zm14.687-2.098h-3.723V.792h3.723v3.069zm-3.722 2.098h3.724v13.556h-3.724V5.959zm16.017 4.771c-.232-1.52-1.202-2.332-2.753-2.332-2.385 0-3.172 2.413-3.172 4.404 0 1.941.76 4.273 3.095 4.273 1.731 0 2.727-1.1 2.963-2.751h3.594c-.471 3.59-2.965 5.559-6.528 5.559-4.09 0-6.845-2.885-6.845-6.948 0-4.225 2.519-7.345 6.923-7.345 3.198 0 6.136 1.681 6.372 5.14h-3.649zm6.088-9.938h3.721v7.053h.082c.941-1.521 2.566-2.255 3.959-2.255 3.961 0 4.955 2.229 4.955 5.587v8.337h-3.723v-7.656c0-2.229-.654-3.33-2.389-3.33-2.021 0-2.886 1.127-2.886 3.877v7.106h-3.724V.792h.005zM87.362 29.268h1.784v8.129h11.119v-8.129h1.783V47.99h-1.783v-9.074H89.147v9.074h-1.785V29.268zm30.789 11.957c0 3.881-2.256 7.158-6.399 7.158-4.144 0-6.397-3.277-6.397-7.158s2.255-7.158 6.397-7.158c4.143-.003 6.399 3.277 6.399 7.158zm-11.146 0c0 2.885 1.573 5.77 4.747 5.77s4.747-2.885 4.747-5.77c0-2.886-1.573-5.769-4.747-5.769-3.172 0-4.747 2.883-4.747 5.769zm23.682-2.519c-.447-2.021-1.68-3.25-3.83-3.25-3.173 0-4.747 2.883-4.747 5.769 0 2.885 1.573 5.77 4.747 5.77 2.045 0 3.725-1.6 3.934-3.854h1.651c-.445 3.252-2.569 5.243-5.585 5.243-4.143 0-6.398-3.276-6.398-7.157s2.255-7.16 6.398-7.16c2.885 0 5.114 1.548 5.48 4.643l-1.65-.004zm4.562-9.438h1.653v7.525h.051c.603-1.627 2.412-2.729 4.327-2.729 3.803 0 4.956 1.992 4.956 5.218v8.708h-1.65v-8.445c0-2.333-.762-4.089-3.438-4.089-2.622 0-4.195 1.992-4.246 4.642v7.895h-1.653V29.268zm14.633 0h1.65v7.764h.054c.708-1.941 2.674-2.965 4.693-2.965 4.117 0 6.084 3.33 6.084 7.158s-1.968 7.158-6.084 7.158c-2.176 0-4.063-1.127-4.824-2.964h-.054v2.571h-1.52l.001-18.722zm6.399 6.188c-3.515 0-4.747 2.964-4.747 5.769s1.232 5.77 4.747 5.77c3.146 0 4.432-2.965 4.432-5.77s-1.287-5.769-4.432-5.769zm9.021 3.146c.156-3.172 2.386-4.535 5.479-4.535 2.386 0 4.982.733 4.982 4.354v7.186c0 .629.314.994.971.994.185 0 .396-.052.523-.104v1.391a4.56 4.56 0 0 1-1.074.105c-1.68 0-1.94-.944-1.94-2.361h-.052c-1.151 1.76-2.333 2.754-4.932 2.754-2.49 0-4.537-1.23-4.537-3.959 0-3.803 3.698-3.935 7.262-4.354 1.367-.157 2.125-.34 2.125-1.836 0-2.229-1.598-2.776-3.539-2.776-2.047 0-3.566.942-3.62 3.146h-1.65v-.004h.002zm8.809 1.992h-.051c-.209.396-.942.524-1.391.604-2.806.5-6.293.474-6.293 3.12 0 1.652 1.468 2.676 3.015 2.676 2.517 0 4.747-1.6 4.719-4.247v-2.153h.001zm16.445 7.396h-1.521v-2.439h-.052c-.864 1.811-2.647 2.832-4.668 2.832-3.41 0-4.748-1.992-4.748-5.14v-8.785h1.652v8.812c.077 2.438.998 3.724 3.619 3.724 2.832 0 4.062-2.675 4.062-5.429V34.46h1.652l.004 13.53zm15.55 0h-1.521v-2.571h-.051c-.711 1.759-2.858 2.964-4.828 2.964-4.117 0-6.082-3.33-6.082-7.158s1.965-7.158 6.082-7.158c2.021 0 3.985 1.021 4.695 2.965h.051v-7.764h1.653V47.99h.001zm-6.399-.998c3.515 0 4.746-2.965 4.746-5.77 0-2.806-1.231-5.769-4.746-5.769-3.146 0-4.433 2.963-4.433 5.769 0 2.805 1.286 5.77 4.433 5.77zm11.041-5.322c.024 2.412 1.283 5.322 4.457 5.322 2.414 0 3.724-1.415 4.247-3.461h1.654c-.711 3.068-2.492 4.852-5.901 4.852-4.301 0-6.108-3.303-6.108-7.158 0-3.564 1.811-7.158 6.108-7.158 4.353 0 6.085 3.804 5.952 7.604h-10.409zm8.759-1.391c-.078-2.491-1.627-4.823-4.302-4.823-2.701 0-4.194 2.356-4.457 4.823h8.759zm4.405-5.821h1.521v2.569h.051c.762-1.836 2.648-2.963 4.826-2.963 4.117 0 6.084 3.328 6.084 7.158 0 3.828-1.967 7.158-6.084 7.158-2.021 0-3.986-1.021-4.693-2.964h-.055V53h-1.65V34.458zm6.399.998c-3.646 0-4.748 2.698-4.748 5.769 0 2.805 1.233 5.77 4.748 5.77 3.146 0 4.434-2.965 4.434-5.77s-1.288-5.769-4.434-5.769zm9.021 3.146c.158-3.172 2.389-4.535 5.479-4.535 2.389 0 4.983.733 4.983 4.354v7.186c0 .629.313.994.972.994.184 0 .393-.052.522-.104v1.391a4.55 4.55 0 0 1-1.074.105c-1.68 0-1.938-.944-1.938-2.361h-.055c-1.152 1.76-2.334 2.754-4.93 2.754-2.492 0-4.537-1.23-4.537-3.959 0-3.803 3.699-3.935 7.264-4.354 1.365-.157 2.125-.34 2.125-1.836 0-2.229-1.601-2.776-3.541-2.776-2.043 0-3.563.942-3.616 3.146h-1.652l-.002-.005zm8.811 1.992h-.054c-.21.396-.944.524-1.392.604-2.805.5-6.292.474-6.292 3.12 0 1.652 1.469 2.676 3.016 2.676 2.521 0 4.747-1.6 4.722-4.247v-2.153zm5.481-6.136h1.521v3.174h.052c.84-2.176 2.676-3.462 5.114-3.354v1.649c-2.989-.155-5.037 2.048-5.037 4.851v7.215h-1.649V34.458zm11.408 0h2.754v1.392h-2.754v9.125c0 1.073.155 1.703 1.338 1.783.474 0 .942-.025 1.416-.08v1.418c-.496 0-.972.053-1.47.053-2.2 0-2.963-.734-2.937-3.043V35.85h-2.36v-1.392h2.36v-4.063h1.651l.002 4.063zm6.634 7.212c.025 2.412 1.285 5.322 4.458 5.322 2.412 0 3.725-1.415 4.248-3.461h1.65c-.707 3.068-2.488 4.852-5.898 4.852-4.3 0-6.108-3.303-6.108-7.158 0-3.564 1.81-7.158 6.108-7.158 4.354 0 6.082 3.804 5.953 7.604h-10.411zm8.759-1.391c-.078-2.491-1.625-4.823-4.301-4.823-2.702 0-4.194 2.356-4.458 4.823h8.759zm4.406-5.821h1.521v2.281h.078c.863-1.625 2.281-2.675 4.435-2.675 1.782 0 3.383.865 3.881 2.648.812-1.783 2.517-2.648 4.3-2.648 2.965 0 4.484 1.547 4.484 4.746v9.18h-1.652v-9.1c0-2.229-.84-3.436-3.197-3.436-2.858 0-3.672 2.357-3.672 4.875v7.659h-1.652v-9.181c.027-1.834-.732-3.354-2.832-3.354-2.857 0-4.012 2.148-4.038 4.979v7.556h-1.651v-13.53h-.005zm23.34 7.212c.026 2.412 1.286 5.322 4.459 5.322 2.411 0 3.723-1.415 4.247-3.461h1.652c-.709 3.068-2.492 4.852-5.899 4.852-4.304 0-6.111-3.303-6.111-7.158 0-3.564 1.811-7.158 6.111-7.158 4.354 0 6.084 3.804 5.952 7.604h-10.411zm8.76-1.391c-.078-2.491-1.627-4.823-4.301-4.823-2.701 0-4.197 2.356-4.459 4.823h8.76zm4.377-5.821h1.651v2.335h.053c.604-1.627 2.414-2.729 4.326-2.729 3.803 0 4.959 1.992 4.959 5.218v8.708h-1.654v-8.445c0-2.333-.76-4.089-3.435-4.089-2.624 0-4.196 1.992-4.249 4.642v7.895h-1.651V34.458zm17.254 0h2.756v1.392h-2.756v9.125c0 1.073.16 1.703 1.338 1.783.475 0 .945-.025 1.418-.08v1.418c-.498 0-.973.053-1.469.053-2.203 0-2.965-.734-2.938-3.043V35.85h-2.36v-1.392h2.36v-4.063h1.649l.002 4.063zM68.273 31.875a1.904 1.904 0 0 0-.502.083l-.852-3.078.432-.557c1.302-1.692 2.078-2.673 2.661-3.795.895-1.712.778-3.42.49-4.498-.651-2.418-2.561-2.994-3.698-2.937-1.703.083-2.744 1.032-3.183 2.112-.464 1.166-.381 2.371-.166 3.234l1.49 5.949c-.458.598-.856 1.223-1.129 1.564l-2.823-11.015 6.314-4.656c3.62-2.659 3.59-6.938 2.41-9.249-1.132-2.21-2.727-3.327-4.115-3.837A7.029 7.029 0 0 0 64.656.9c-.007-.19-.012-.327-.017-.388-.027-.285-.366-.417-.654-.476-.644-.137-.827.132-.827.229l-.021.381C61.593.483 58.3.5 58.3.5l.005.905v2.258l1.312.151c.122.007.293.139.291.373-.002.244-.19.38-.374.429-.153.044-.231.059-.297.049h-.015l-4.037-.446.495 1.537c1.566.178 2.805.286 3.715.332.043.007.083.007.124.007a1.903 1.903 0 0 0 1.903-1.908c0-1.017-.8-1.851-1.805-1.902v-.376c.544.012 1.21.039 1.935.104.068.273.209.607.502.91.316.332.65.59.943.778l-.014.471s.039.781-.032 1.429c-.071.649-.458 1.142-1.877 1.192-1.351.046-3.012-.217-3.012-.217l.09 1c-.545.302-1.092.751-1.788 1.373-.463.412-.915.99-1.314 1.642l-1.7-3.278a2.935 2.935 0 0 0 .573-1.727c0-1.614-1.485-2.927-3.042-2.927-1.049 0-1.924.466-2.471 1.188l.264-3.083H22.045l.256 3.085c-.539-.722-1.419-1.188-2.465-1.188-1.556 0-3.042 1.312-3.042 2.927 0 .644.217 1.233.578 1.727l-1.703 3.278c-.402-.652-.853-1.23-1.317-1.642-.698-.622-1.242-1.071-1.791-1.373l.095-1s-1.663.263-3.014.217c-1.419-.051-1.807-.544-1.88-1.193-.068-.648-.024-1.429-.024-1.429l-.02-.471c.293-.188.627-.446.944-.778.29-.302.434-.636.5-.91A27.79 27.79 0 0 1 11.1 1.91v.376a1.908 1.908 0 0 0-1.81 1.902c0 1.054.854 1.908 1.91 1.908.039 0 .078 0 .12-.007.91-.046 2.148-.154 3.717-.332l.493-1.537-4.034.446h-.017c-.063.01-.141-.005-.297-.049-.183-.048-.368-.184-.371-.428-.005-.234.168-.366.29-.373l1.31-.151V1.407l.012-.905S9.126.485 7.58.651L7.558.27c0-.097-.183-.366-.827-.229-.291.059-.627.19-.654.476-.005.061-.007.198-.02.388a7.012 7.012 0 0 0-.943.295c-1.387.51-2.985 1.627-4.107 3.837-1.181 2.312-1.22 6.589 2.405 9.249l6.312 4.656-2.827 11.013c-.271-.346-.664-.969-1.125-1.564l1.487-5.949c.215-.863.298-2.068-.168-3.234-.437-1.081-1.473-2.029-3.181-2.112-1.141-.059-3.049.517-3.698 2.937-.29 1.078-.41 2.786.49 4.498.583 1.122 1.359 2.103 2.659 3.795l.432.557-.846 3.077a1.936 1.936 0 0 0-.51-.083 1.72 1.72 0 0 0-1.8 1.719c0 1.002.81 1.801 1.8 1.801.646 0 1.208-.33 1.522-.84.273-.41.529-1.468.825-2.482l.397-1.381 1.168 1.518c-.725 2.725-3.381 12.697-3.42 12.854-.456 1.938 1.281 3.608 3.083 3.599 1.604-.019 3.142-1.304 3.078-3.11-.034-.849-.371-1.473-.905-1.883l2.937-4.645 5.524 7.813c.432.62.771.902.827.946a3.076 3.076 0 0 0 2.193.917c1.532 0 3.117-1.375 3.117-3.083 0-1.702-1.346-3.143-3.125-2.824-.049.016-.09.021-.134.029l-3.908-11.176c-.312-.853-.747-1.5-1.142-1.873-.566-.539-1.391-.533-1.72-.516a3.233 3.233 0 0 0-.531.088l2.928-6.329 3.671 2.769a3.096 3.096 0 0 0 2.32.663l1.015 10.399c.33 3.486 2.022 6.551 4.522 8.707v.023h.029c2.324 1.986 5.333 3.213 8.645 3.213 6.904 0 12.569-5.208 13.194-11.943l1.017-10.399a3.11 3.11 0 0 0 2.328-.663l3.666-2.769 2.931 6.329a3.281 3.281 0 0 0-.534-.088c-.329-.02-1.151-.023-1.72.516-.395.373-.827 1.021-1.139 1.873l-3.91 11.172c-.046-.01-.088-.014-.134-.027-1.778-.316-3.125 1.122-3.125 2.824 0 1.708 1.583 3.083 3.12 3.083.859 0 1.629-.353 2.19-.917.056-.045.393-.326.83-.946l5.526-7.813 2.93 4.645c-.537.41-.869 1.034-.902 1.883-.061 1.809 1.48 3.094 3.079 3.11 1.8.012 3.544-1.659 3.083-3.599-.034-.156-2.695-10.129-3.422-12.854l1.168-1.518.397 1.381c.295 1.017.549 2.072.827 2.482.317.51.878.84 1.517.84 1 0 1.805-.799 1.805-1.802a1.717 1.717 0 0 0-1.802-1.718zM5.526 22.31l-1.104 4.256a43.368 43.368 0 0 1-.771-1.027c-.468-.681-1.678-2.385-1.678-4.488 0-1.044.897-2.224 2.017-2.117 1.407.128 1.964 1.735 1.536 3.376zM50.827 4.553c.683 0 1.31.654 1.31 1.332 0 .488-.256.912-.651 1.146l2.708 5.254a8.29 8.29 0 0 0-.48 1.628c-.083.498-.134.836-.168 1.063l-3.88-8.454a1.415 1.415 0 0 1-.154-.639 1.32 1.32 0 0 1 1.315-1.33zm-7.635-2.412h1.247l-.1 2.129h1.218l.103-2.129h1.251l-.208 3.298h-3.666l.155-3.298zm-.199 4.492h3.637l-.107 1.709H42.91l.083-1.709zm-7.847 2.915h11.299l-.132 2.112H24.404l-.129-2.112h10.871zm-1.527-2.915h3.478l-.024 1.709h-3.432l-.022-1.709zm4.848-4.492h1.183l-.075 2.13h1.207l.076-2.129h1.076l-.112 3.298h-3.424l.069-3.299zm-.094 4.492h3.408l-.059 1.709h-3.388l.039-1.709zm-3.671-4.492l.007 2.129h1.31V2.141h1.133l-.043 3.298h-3.502l-.046-3.298h1.141zm-2.319 6.202h-3.388l-.059-1.71h3.406l.041 1.71zm-2.525-6.202l.073 2.129h1.209l-.073-2.129h1.183l.066 3.298h-3.421l-.113-3.298h1.076zm-2.051 6.202h-3.611l-.109-1.709h3.637l.083 1.709zm-2.749-6.202l.098 2.129h1.222l-.097-2.129h1.244l.154 3.298h-3.668l-.208-3.298h1.255zm-5.829 4.89a1.333 1.333 0 0 1-.649-1.146c0-.678.626-1.332 1.31-1.332.727 0 1.317.595 1.317 1.332 0 .234-.061.449-.156.639l-3.882 8.454a30.448 30.448 0 0 0-.164-1.063 8.045 8.045 0 0 0-.483-1.628l2.707-5.256zm-6.696 23.651c.834.174 1.208.854 1.364 1.258.125.324 2.927 8.297 4.071 11.555l.049.134.434 1.228.085-.133c.227-.283.59-.449 1.061-.449.715 0 1.293.576 1.293 1.297 0 .719-.578 1.304-1.293 1.304a1.33 1.33 0 0 1-.899-.36c-.229-.195-.783-.933-.783-.933l-.753-1.054-.212-.309-4.81-6.785c.501-.805.87-1.58.87-2.238 0-1.56-1.036-2.602-2.289-2.602l.854-1.839c.139-.086.429-.19.958-.074zM8.7 33.307l-.217.488c.266-.152.576-.24.905-.24.985 0 1.786.793 1.786 1.784 0 .104-.007.205-.024.31a.425.425 0 0 0-.024.093c-.01.048-.024.106-.042.157l-.007.023a4.072 4.072 0 0 1-.354.739l-1.356 2.126-.437.678-2.083 3.273-.215.337-.741 1.146h.081c.772-.02 1.322.604 1.322 1.326 0 .537-.446 1.273-1.247 1.273-.817 0-1.356-.557-1.356-1.273 0-.061-.007-.251.034-.402l6.565-25.017 2.583 1.922L8.7 33.307zM20.974 24.7a1.013 1.013 0 0 1-.317.049c-.329 0-.607-.093-.832-.249l-2.148-1.6-1.332-.98-11.929-8.863c-1.132-.849-2.693-2.565-2.474-5.42.183-2.332 2.042-4.429 4.076-5.062 0 .546 0 1.088.017 1.502.051 1.21.198 2.122.293 2.503.146.604.702 1.531 2.236 1.565.529.015 1.156 0 1.753-.024.317.112.668.261 1.03.446 1.982 1.017 3.048 2.681 3.46 3.422a7.662 7.662 0 0 1 .72 5.244l-2.893-2.186-.418 1.768 5.576 4.12.568.417 1.321.98a1.53 1.53 0 0 1 1.005-.407l.02-.005c.983-.02 1.444.712 1.419 1.454-.014.541-.548 1.154-1.151 1.326zm1.52-3.987c-.203-1.415-.327-2.824-.327-2.824l2.766 2.956h-2.271c-.056-.04-.104-.099-.168-.132zm1.382 1.879h2.869l1.603 1.537h-4.525a2.99 2.99 0 0 0 .144-.864 3.068 3.068 0 0 0-.091-.673zm-1.011 3.279h7.291l1.607 1.545h-8.786c-.034-.519-.075-1.05-.112-1.545zm.234 3.289h10.474l1.603 1.539H23.214l-.115-1.539zm.244 3.279h13.64l1.603 1.541H23.5c-.057-.503-.12-1.017-.157-1.541zm.395 3.288h16.654l1.607 1.541H24.016c-.11-.497-.193-1.017-.278-1.541zm11.715 11.591c-1.958 0-4.067-.396-6.238-1.736h12.188c-1.508 1.034-3.986 1.736-5.95 1.736zm7.816-3.477h-16.13a9.67 9.67 0 0 1-1.242-1.547h18.722c-.359.474-.785.995-1.35 1.547zm-18.275-3.288a15.78 15.78 0 0 1-.549-1.547h19.359l1.606 1.547H24.994zm23.219-19.929a3.097 3.097 0 0 0-1.366 2.574c0 .893.371 1.695.968 2.258l-.117 1.386-.251 3.104-.51 6.197a11.367 11.367 0 0 1-.522 2.729L23.46 16.801h25.07l-.317 3.823zm-28.175-5.541l.502 5.144c-.28.015-.556.078-.81.166l-2.476-1.864 5.319-11.431.493 5.86h24.58l.488-5.86 5.327 11.431-2.479 1.864a2.97 2.97 0 0 0-.807-.166l.5-5.144H20.038zm34.33 6.835l-1.327.98-2.154 1.6a1.42 1.42 0 0 1-.832.249c-.107 0-.212-.015-.317-.049-.6-.171-1.132-.786-1.144-1.327-.027-.741.432-1.473 1.415-1.454l.015.005c.393.01.747.164 1.01.407l1.327-.98.563-.417 5.572-4.12-.417-1.768-2.896 2.186a7.696 7.696 0 0 1 .72-5.244c.412-.742 1.478-2.405 3.465-3.422a8.31 8.31 0 0 1 1.022-.446c.605.024 1.231.039 1.758.024 1.529-.034 2.089-.961 2.236-1.566.1-.381.242-1.292.293-2.503.017-.415.02-.956.017-1.502 2.034.634 3.893 2.732 4.078 5.063.217 2.854-1.342 4.571-2.478 5.42l-11.926 8.864zm-.599 22.299l-.212.307-.751 1.056s-.559.735-.788.932a1.312 1.312 0 0 1-.9.361 1.299 1.299 0 0 1-1.291-1.304 1.29 1.29 0 0 1 1.291-1.297c.471 0 .834.164 1.061.447l.09.135.429-1.228.049-.134c1.146-3.258 3.949-11.229 4.078-11.555.151-.404.524-1.086 1.358-1.26.529-.111.819-.01.961.073l.854 1.839c-1.258 0-2.288 1.042-2.288 2.602 0 .658.363 1.436.868 2.238l-4.809 6.788zm12.221.929c.044.149.044.342.044.4 0 .719-.544 1.271-1.358 1.271-.805 0-1.254-.734-1.254-1.271 0-.722.551-1.346 1.322-1.324h.078l-.736-1.146-.215-.337-2.083-3.273-.434-.678-1.36-2.127s-.236-.382-.351-.739l-.007-.023a.758.758 0 0 1-.044-.157.415.415 0 0 0-.024-.093 1.614 1.614 0 0 1-.024-.31c0-.991.8-1.784 1.786-1.784.329 0 .636.088.901.24l-.218-.488-5.173-11.256 2.589-1.922 6.561 25.017zm.303-18.581L65.19 22.31c-.425-1.639.126-3.247 1.534-3.375 1.122-.107 2.027 1.072 2.027 2.117 0 2.103-1.215 3.807-1.686 4.488-.119.169-.407.549-.772 1.025z" fill="#0F05A0"/></svg>