<svg xmlns="http://www.w3.org/2000/svg" width="271" height="53" viewBox="0 0 271 53"><path d="M89.564 13.203c0 2.472 1.926 3.436 4.112 3.436 1.432 0 3.619-.417 3.619-2.317 0-2.005-2.786-2.342-5.519-3.071-2.759-.729-5.545-1.796-5.545-5.286 0-3.8 3.593-5.622 6.952-5.622 3.879 0 7.445 1.691 7.445 5.988H96.67c-.13-2.24-1.718-2.812-3.671-2.812-1.301 0-2.811.547-2.811 2.109 0 1.433.885 1.614 5.545 2.812 1.354.339 5.519 1.198 5.519 5.416 0 3.41-2.682 5.962-7.732 5.962-4.112 0-7.966-2.031-7.914-6.612h3.958v-.003zm18.665-7.29h2.707v2.473h-2.707v6.666c0 1.25.312 1.563 1.562 1.563.391 0 .756-.027 1.146-.104V19.4c-.625.104-1.431.131-2.161.131-2.264 0-4.244-.521-4.244-3.202V8.387h-2.238V5.913h2.238V1.876h3.698l-.001 4.037zm5.232 4.139c.208-3.462 3.306-4.505 6.327-4.505 2.682 0 5.909.6 5.909 3.828v7.002c0 1.224.13 2.446.468 2.994h-3.748a5.512 5.512 0 0 1-.262-1.301c-1.17 1.223-2.888 1.666-4.529 1.666-2.552 0-4.582-1.276-4.582-4.035 0-3.046 2.291-3.775 4.582-4.088 2.265-.339 4.373-.26 4.373-1.77 0-1.588-1.093-1.823-2.395-1.823-1.405 0-2.317.572-2.446 2.031h-3.697zM122 12.785c-.625.547-1.926.574-3.072.782-1.145.233-2.186.625-2.186 1.978 0 1.38 1.066 1.718 2.264 1.718 2.89 0 2.994-2.291 2.994-3.098v-1.38zm16.298 4.869h-.051c-.859 1.458-2.371 2.082-4.088 2.082-4.062 0-6.041-3.488-6.041-7.211 0-3.62 2.005-6.978 5.961-6.978 1.588 0 3.149.678 3.983 2.005h.053V.784h3.697v18.588h-3.518l.004-1.718zm-3.227-9.321c-2.421 0-3.254 2.083-3.254 4.295 0 2.109.962 4.322 3.254 4.322 2.45 0 3.177-2.134 3.177-4.347 0-2.186-.783-4.27-3.177-4.27zm14.733-2.42h2.709v2.473h-2.709v6.666c0 1.25.312 1.563 1.562 1.563.392 0 .755-.027 1.146-.104V19.4c-.625.104-1.434.131-2.162.131-2.265 0-4.242-.521-4.242-3.202V8.387h-2.239V5.913h2.239V1.876h3.694l.002 4.037zm11.949 10.231l9.972-11.922h-9.189V.784h14.629v3.229l-9.971 11.923h10.23v3.437h-15.673l.002-3.229zm30.563 3.228h-3.513v-1.874h-.077c-.938 1.51-2.553 2.238-4.113 2.238-3.933 0-4.92-2.213-4.92-5.544V5.913h3.693v7.604c0 2.212.651 3.306 2.371 3.306 2.005 0 2.864-1.12 2.864-3.854V5.913h3.694v13.459h.001zM181.566.784h3.514V3.83h-3.514V.784zm5.364 0h3.514V3.83h-3.514V.784zm8.718 5.129h3.515v2.5h.054c.678-1.692 2.499-2.864 4.295-2.864.262 0 .571.052.809.131v3.436a6.881 6.881 0 0 0-1.328-.129c-2.709 0-3.646 1.953-3.646 4.323v6.065h-3.693V5.913h-.006zm14.579-2.083h-3.695V.784h3.695V3.83zm-3.696 2.083h3.695v13.459h-3.695V5.913zm15.906 4.737c-.231-1.51-1.197-2.317-2.733-2.317-2.367 0-3.149 2.396-3.149 4.375 0 1.926.756 4.243 3.072 4.243 1.72 0 2.707-1.093 2.941-2.733h3.565c-.468 3.566-2.942 5.519-6.481 5.519-4.061 0-6.793-2.863-6.793-6.898 0-4.192 2.498-7.292 6.871-7.292 3.176 0 6.092 1.667 6.325 5.103h-3.618zm6.041-9.866h3.693v7.003h.08c.938-1.51 2.55-2.24 3.93-2.24 3.934 0 4.92 2.213 4.92 5.546v8.279h-3.693V11.77c0-2.213-.65-3.307-2.37-3.307-2.007 0-2.864 1.12-2.864 3.853v7.056h-3.693V.784h-.003zM86.725 29.057h1.77v9.994l10.801-9.994h2.395l-8.303 7.678 8.693 10.904H99.79l-7.729-9.683-3.566 3.306v6.377h-1.77V29.057zm17.078 5.151h1.51v3.149h.052c.833-2.162 2.656-3.437 5.076-3.332v1.641c-2.967-.155-4.999 2.027-4.999 4.814v7.156h-1.639V34.208zm9.219 7.157c.027 2.395 1.276 5.283 4.425 5.283 2.395 0 3.696-1.404 4.217-3.436h1.64c-.703 3.044-2.473 4.812-5.857 4.812-4.269 0-6.064-3.277-6.064-7.104 0-3.54 1.795-7.105 6.064-7.105 4.321 0 6.039 3.773 5.909 7.547h-10.334v.003zm8.693-1.381c-.077-2.473-1.614-4.789-4.269-4.789-2.68 0-4.165 2.345-4.425 4.789h8.694zm4.403-10.927h1.639v2.627h-1.639v-2.627zm0 5.151h1.639v13.431h-1.639V34.208zm13.356 3.93c-.08-2.028-1.643-2.94-3.517-2.94-1.457 0-3.174.572-3.174 2.316 0 1.457 1.666 1.979 2.785 2.264l2.186.496c1.874.287 3.826 1.379 3.826 3.724 0 2.915-2.89 4.032-5.388 4.032-3.125 0-5.257-1.457-5.519-4.734h1.641c.129 2.213 1.77 3.354 3.956 3.354 1.537 0 3.67-.676 3.67-2.549 0-1.562-1.457-2.082-2.941-2.447l-2.107-.469c-2.134-.572-3.748-1.3-3.748-3.591 0-2.733 2.681-3.774 5.048-3.774 2.681 0 4.815 1.404 4.92 4.32l-1.638-.002zm3.642-3.93h1.746l3.437 11.506h.052l3.28-11.506h1.847l3.278 11.506h.054l3.437-11.506h1.741l-4.317 13.431h-1.797l-3.306-11.295h-.053l-3.279 11.295h-1.797l-4.323-13.431zm21.01 4.11c.158-3.146 2.369-4.5 5.442-4.5 2.367 0 4.941.729 4.941 4.317v7.134c0 .625.312.987.965.987.182 0 .391-.051.521-.104v1.382a4.658 4.658 0 0 1-1.067.104c-1.666 0-1.926-.937-1.926-2.341h-.055c-1.146 1.743-2.312 2.729-4.893 2.729-2.472 0-4.502-1.223-4.502-3.93 0-3.773 3.669-3.904 7.209-4.32 1.354-.154 2.109-.338 2.109-1.82 0-2.213-1.59-2.762-3.514-2.762-2.03 0-3.539.939-3.594 3.123h-1.638v.001zm8.746 1.982h-.052c-.209.39-.938.519-1.381.599-2.783.494-6.246.469-6.246 3.099 0 1.639 1.459 2.651 2.994 2.651 2.498 0 4.711-1.586 4.685-4.215V40.3zm5.416-11.243h1.639v7.469h.054c.6-1.613 2.396-2.707 4.295-2.707 3.772 0 4.92 1.979 4.92 5.181v8.644h-1.642v-8.382c0-2.315-.755-4.062-3.409-4.062-2.603 0-4.164 1.979-4.218 4.607v7.836h-1.639V29.057zm14.552 0h1.643v18.582h-1.643V29.057zm5.31 0h1.641v7.703h.054c.702-1.927 2.653-2.941 4.658-2.941 4.087 0 6.038 3.307 6.038 7.106s-1.951 7.104-6.038 7.104c-2.16 0-4.034-1.118-4.789-2.939h-.054v2.551h-1.51V29.057zm6.353 6.138c-3.489 0-4.712 2.94-4.712 5.729 0 2.784 1.223 5.725 4.712 5.725 3.123 0 4.399-2.938 4.399-5.725s-1.276-5.729-4.399-5.729zm19.993 12.444h-1.511v-2.421h-.053c-.859 1.796-2.63 2.812-4.635 2.812-3.383 0-4.709-1.979-4.709-5.103v-8.719h1.641v8.746c.076 2.421.986 3.694 3.59 3.694 2.812 0 4.037-2.653 4.037-5.389v-7.054h1.64v13.434zm-8.642-15.748v-2.627h1.771v2.627h-1.771zm4.608 0v-2.627h1.771v2.627h-1.771zm7.652 2.317h1.512v3.149h.052c.832-2.162 2.655-3.437 5.074-3.332v1.641c-2.966-.155-4.997 2.027-4.997 4.814v7.156h-1.641V34.208zm20.285 6.717c0 3.851-2.24 7.104-6.352 7.104-4.113 0-6.352-3.254-6.352-7.104 0-3.854 2.235-7.106 6.352-7.106 4.11-.001 6.352 3.251 6.352 7.106zm-11.063 0c0 2.861 1.562 5.724 4.712 5.724 3.148 0 4.711-2.86 4.711-5.724 0-2.864-1.562-5.729-4.711-5.729-3.151-.001-4.712 2.865-4.712 5.729zm22.728.91c-.104 2.89 1.613 4.813 4.555 4.813 2.396 0 4.658-1.433 4.658-4.035 0-2.575-1.951-3.853-4.371-3.853h-1.381v-1.378h1.381c1.691.023 3.697-1.017 3.697-3.308 0-2.396-1.797-3.437-3.984-3.437-2.73 0-4.189 1.899-4.137 4.606h-1.643c.027-3.437 2.213-5.985 5.754-5.985 2.863 0 5.648 1.404 5.648 4.633 0 1.979-1.119 3.565-3.072 4.033v.053c2.369.393 3.748 2.109 3.748 4.502 0 3.566-2.916 5.545-6.271 5.545-3.774 0-6.481-2.291-6.223-6.192l1.641.003zM67.773 31.643a1.854 1.854 0 0 0-.499.082l-.845-3.057.429-.552c1.293-1.68 2.063-2.653 2.642-3.767.889-1.7.772-3.395.486-4.465-.646-2.402-2.542-2.974-3.67-2.916-1.69.083-2.724 1.024-3.16 2.097-.46 1.157-.378 2.354-.165 3.21l1.479 5.905c-.456.594-.85 1.213-1.121 1.555l-2.804-10.933 6.269-4.622c3.593-2.64 3.564-6.887 2.392-9.182-1.124-2.194-2.707-3.303-4.085-3.809a7.032 7.032 0 0 0-.939-.293c-.007-.189-.012-.325-.017-.385-.027-.283-.363-.414-.649-.472-.639-.135-.821.131-.821.228l-.021.377C61.141.479 57.873.497 57.873.497l.005.898v2.24l1.304.15c.121.007.291.138.288.371-.002.242-.189.378-.371.426-.152.043-.23.058-.296.048h-.015l-4.007-.443.491 1.525c1.555.177 2.785.283 3.688.329.043.007.082.007.123.007a1.89 1.89 0 0 0 1.889-1.894c0-1.01-.794-1.838-1.792-1.889v-.37c.54.012 1.201.039 1.92.104.068.271.208.603.499.903.314.33.646.586.937.772l-.015.467s.039.775-.032 1.419c-.07.644-.455 1.133-1.864 1.184-1.341.046-2.991-.215-2.991-.215l.09.993c-.542.3-1.085.746-1.775 1.363-.46.409-.908.983-1.305 1.63L52.957 7.26a2.908 2.908 0 0 0 .569-1.714c0-1.603-1.475-2.905-3.019-2.905-1.041 0-1.911.462-2.453 1.179l.261-3.061H21.882l.254 3.061c-.535-.717-1.409-1.179-2.448-1.179-1.545 0-3.02 1.303-3.02 2.905 0 .639.215 1.225.574 1.714l-1.69 3.254c-.399-.646-.847-1.221-1.308-1.63-.691-.618-1.231-1.063-1.775-1.363l.094-.993s-1.651.261-2.994.215c-1.408-.051-1.793-.539-1.866-1.183-.067-.644-.024-1.419-.024-1.419l-.019-.468c.291-.187.622-.443.937-.772.288-.3.431-.632.496-.903a28.624 28.624 0 0 1 1.922-.104v.373c-1 .051-1.796.879-1.796 1.889 0 1.046.848 1.894 1.896 1.894.039 0 .077 0 .119-.007a61.916 61.916 0 0 0 3.69-.329l.489-1.525-4.005.44h-.017c-.063.01-.14-.004-.295-.048-.182-.048-.366-.184-.368-.426-.005-.233.167-.363.288-.371l1.3-.15v-2.24l.012-.898S9.055.479 7.518.643l-.02-.378c0-.097-.181-.363-.821-.228-.287.06-.621.191-.647.474-.005.06-.008.196-.021.385-.257.058-.528.14-.937.293-1.376.506-2.962 1.616-4.075 3.81-1.172 2.295-1.21 6.542 2.388 9.182l6.265 4.622-2.806 10.933c-.269-.342-.659-.961-1.116-1.555l1.477-5.907c.213-.857.295-2.053-.167-3.21-.433-1.073-1.462-2.015-3.157-2.097-1.133-.058-3.026.514-3.67 2.916-.288 1.07-.407 2.765.487 4.465.579 1.114 1.349 2.087 2.639 3.767l.429.552-.84 3.057a1.954 1.954 0 0 0-.506-.082 1.71 1.71 0 0 0-1.787 1.705c0 .994.804 1.785 1.787 1.785.642 0 1.199-.324 1.511-.833.271-.405.525-1.455.818-2.465l.395-1.37 1.16 1.508c-.719 2.703-3.356 12.604-3.395 12.76-.453 1.926 1.271 3.584 3.061 3.569 1.59-.017 3.118-1.292 3.055-3.087-.034-.843-.368-1.462-.898-1.867l2.915-4.609 5.484 7.757c.429.614.765.896.821.938.555.562 1.322.91 2.177.91 1.521 0 3.095-1.365 3.095-3.061 0-1.69-1.337-3.119-3.102-2.805-.048.016-.089.02-.133.027l-3.881-11.091c-.31-.847-.741-1.489-1.133-1.86-.562-.535-1.38-.529-1.707-.511a3.089 3.089 0 0 0-.528.087l2.908-6.283 3.644 2.748a3.078 3.078 0 0 0 2.305.659L22 36.579c.327 3.462 2.007 6.503 4.489 8.644v.024h.029c2.308 1.974 5.295 3.188 8.581 3.188 6.854 0 12.479-5.17 13.099-11.856l1.01-10.324a3.08 3.08 0 0 0 2.31-.659l3.639-2.748 2.911 6.283a3.125 3.125 0 0 0-.53-.087c-.327-.021-1.143-.024-1.707.511-.392.371-.821 1.016-1.131 1.86l-3.881 11.091c-.046-.01-.087-.014-.133-.027-1.765-.314-3.102 1.112-3.102 2.805s1.571 3.061 3.097 3.061a3.05 3.05 0 0 0 2.174-.91c.056-.043.39-.324.823-.938l5.487-7.757 2.908 4.609c-.533.405-.862 1.024-.896 1.867-.061 1.795 1.47 3.07 3.056 3.087 1.787.015 3.518-1.646 3.06-3.569-.034-.154-2.675-10.057-3.397-12.76l1.16-1.508.396 1.37c.293 1.01.545 2.06.821 2.465.314.509.872.833 1.506.833.993 0 1.792-.791 1.792-1.785a1.716 1.716 0 0 0-1.798-1.706zm-62.29-9.497l-1.097 4.225a41.44 41.44 0 0 1-.765-1.02c-.465-.675-1.666-2.368-1.666-4.455 0-1.036.891-2.208 2.002-2.102 1.398.129 1.95 1.725 1.526 3.352zM50.454 4.519c.678 0 1.3.649 1.3 1.322 0 .484-.254.906-.646 1.138l2.688 5.215a8.268 8.268 0 0 0-.477 1.617c-.083.494-.133.831-.167 1.056l-3.853-8.393a1.416 1.416 0 0 1-.152-.635c0-.73.585-1.32 1.307-1.32zm-7.578-2.394h1.237l-.099 2.113h1.21l.102-2.114h1.242l-.206 3.273h-3.639l.153-3.272zm-.199 4.459h3.61l-.106 1.697h-3.586l.082-1.697zm-7.789 2.894h11.216l-.131 2.097H24.225l-.128-2.097h10.791zm-1.516-2.894h3.454l-.024 1.697h-3.407l-.023-1.697zm4.814-4.459h1.174l-.075 2.114h1.199l.075-2.114h1.068l-.111 3.273h-3.399l.069-3.273zm-.095 4.459h3.382l-.057 1.697h-3.363l.038-1.697zm-3.645-4.459l.007 2.114h1.3V2.125h1.126l-.043 3.273h-3.477l-.046-3.273h1.133zm-2.301 6.156h-3.363l-.058-1.697h3.383l.038 1.697zm-2.506-6.156l.073 2.114h1.201l-.073-2.114h1.174l.065 3.273h-3.397l-.112-3.273h1.069zm-2.036 6.156H24.02l-.109-1.697h3.61l.082 1.697zm-2.729-6.156l.097 2.114h1.213l-.097-2.114h1.235l.153 3.273h-3.642l-.206-3.273h1.247zm-5.788 4.854a1.32 1.32 0 0 1-.644-1.138c0-.673.622-1.322 1.3-1.322.721 0 1.307.591 1.307 1.322 0 .232-.061.446-.155.635l-3.854 8.393a29.72 29.72 0 0 0-.163-1.056 7.996 7.996 0 0 0-.479-1.617l2.688-5.217zm-6.647 23.476c.828.172 1.199.848 1.354 1.25.124.32 2.906 8.236 4.041 11.469l.048.135.431 1.217.085-.133c.225-.281.586-.445 1.053-.445.709 0 1.283.57 1.283 1.287 0 .713-.574 1.293-1.283 1.293-.339 0-.654-.135-.894-.356-.228-.192-.777-.925-.777-.925l-.747-1.047-.211-.306-4.774-6.735c.499-.8.864-1.569.864-2.224 0-1.548-1.029-2.582-2.273-2.582l.847-1.824c.14-.084.429-.185.953-.074zm-3.806 2.606l-.215.486c.264-.152.571-.238.898-.238.979 0 1.772.786 1.772 1.771 0 .102-.007.203-.024.305a.484.484 0 0 0-.024.092c-.01.049-.024.106-.041.158l-.007.023c-.116.354-.351.734-.351.734l-1.346 2.109-.434.673-2.068 3.25-.213.336-.736 1.139h.08c.768-.02 1.312.602 1.312 1.316 0 .533-.443 1.266-1.237 1.266-.811 0-1.346-.554-1.346-1.266 0-.061-.007-.249.034-.398l6.518-24.833 2.564 1.908-5.136 11.169zm12.186-8.542a.998.998 0 0 1-.314.048 1.42 1.42 0 0 1-.826-.247l-2.133-1.588-1.322-.973L4.382 12.96c-1.124-.843-2.673-2.547-2.455-5.38.181-2.315 2.026-4.397 4.046-5.027 0 .542 0 1.08.017 1.492.051 1.201.196 2.105.291 2.483.146.6.697 1.521 2.22 1.554.525.015 1.148 0 1.741-.024.314.111.662.259 1.021.443 1.969 1.01 3.027 2.661 3.437 3.397a7.602 7.602 0 0 1 .714 5.206l-2.872-2.169-.416 1.755 5.535 4.089.564.414 1.312.974c.259-.242.613-.395.998-.404l.02-.005c.976-.02 1.433.707 1.409 1.443-.015.538-.546 1.148-1.145 1.318zm1.51-3.957c-.201-1.404-.324-2.804-.324-2.804l2.746 2.935h-2.254c-.058-.041-.105-.099-.168-.131zm1.37 1.864h2.848l1.59 1.525h-4.491c.083-.276.143-.557.143-.857 0-.232-.039-.457-.09-.668zm-1.003 3.255h7.237l1.596 1.535h-8.722c-.034-.516-.075-1.044-.111-1.535zm.233 3.266h10.397l1.591 1.527H23.042c-.039-.508-.075-1.021-.113-1.527zm.241 3.256h13.541l1.591 1.529H23.326c-.055-.502-.118-1.009-.156-1.529zm.393 3.259h16.533l1.596 1.53H23.839c-.109-.488-.192-1.008-.276-1.53zm11.629 11.511c-1.944 0-4.039-.392-6.193-1.724h12.1c-1.497 1.026-3.957 1.724-5.907 1.724zm7.759-3.452H26.938a9.552 9.552 0 0 1-1.232-1.535h18.585c-.355.469-.779.987-1.34 1.535zm-18.14-3.264a16.16 16.16 0 0 1-.545-1.534h19.218l1.595 1.534H24.811zm23.05-19.784a3.074 3.074 0 0 0-1.356 2.554c0 .886.368 1.683.961 2.242l-.116 1.375-.25 3.081-.506 6.151a11.207 11.207 0 0 1-.518 2.712l-22.79-21.91h24.888l-.313 3.795zm-27.97-5.501l.499 5.106a2.97 2.97 0 0 0-.804.165l-2.458-1.85 5.281-11.349.489 5.818h24.401l.484-5.818 5.288 11.349-2.46 1.85a2.972 2.972 0 0 0-.801-.165l.496-5.106H19.891zm34.079 6.786l-1.317.973-2.138 1.588a1.41 1.41 0 0 1-.826.247c-.106 0-.211-.015-.315-.048-.596-.169-1.124-.78-1.136-1.317-.026-.736.429-1.462 1.404-1.443l.015.005c.39.01.741.162 1.002.404l1.317-.974.559-.414 5.533-4.089-.414-1.755-2.874 2.169a7.643 7.643 0 0 1 .714-5.206c.409-.736 1.467-2.388 3.44-3.397a8.418 8.418 0 0 1 1.015-.443c.6.024 1.223.039 1.746.024 1.518-.034 2.075-.954 2.22-1.554.099-.378.24-1.283.291-2.484.017-.412.02-.949.017-1.492 2.019.63 3.864 2.712 4.048 5.027.215 2.833-1.332 4.538-2.46 5.38L53.97 21.758zm-.596 22.137l-.211.305-.746 1.046s-.554.73-.782.925a1.288 1.288 0 0 1-2.174-.937 1.28 1.28 0 0 1 1.281-1.287c.467 0 .828.164 1.053.445l.089.133.426-1.217.048-.135c1.138-3.232 3.92-11.146 4.048-11.469.15-.402.521-1.078 1.349-1.25.525-.111.813-.01.954.072l.848 1.826c-1.25 0-2.271 1.032-2.271 2.58 0 .652.361 1.424.862 2.223l-4.774 6.74zm12.133.919c.043.149.043.34.043.398 0 .712-.54 1.266-1.349 1.266-.799 0-1.245-.73-1.245-1.266 0-.717.547-1.336 1.312-1.314h.078l-.731-1.141-.213-.334-2.068-3.249-.431-.673-1.349-2.109s-.235-.38-.349-.734l-.007-.023a.83.83 0 0 1-.043-.158c-.005-.037-.015-.065-.024-.092a1.569 1.569 0 0 1-.024-.305c0-.985.794-1.771 1.772-1.771.327 0 .632.086.896.238l-.218-.486-5.136-11.169 2.572-1.908 6.514 24.83zm.301-18.443l-1.095-4.225c-.421-1.627.126-3.223 1.523-3.351 1.114-.106 2.012 1.065 2.012 2.102 0 2.087-1.206 3.78-1.673 4.455-.118.169-.405.546-.767 1.019z" fill="#0F05A0"/></svg>