<svg xmlns="http://www.w3.org/2000/svg" width="537" height="53" viewBox="-262.5 699 537 53"><path d="M-172.935 712.203c0 2.472 1.927 3.437 4.114 3.437 1.434 0 3.618-.416 3.618-2.318 0-2.006-2.787-2.342-5.518-3.07-2.761-.729-5.545-1.799-5.545-5.288 0-3.8 3.594-5.623 6.952-5.623 3.879 0 7.446 1.69 7.446 5.987h-3.959c-.128-2.237-1.719-2.811-3.671-2.811-1.3 0-2.812.548-2.812 2.108 0 1.435.886 1.614 5.545 2.812 1.354.341 5.518 1.198 5.518 5.415 0 3.41-2.683 5.965-7.731 5.965-4.114 0-7.969-2.031-7.916-6.613l3.959-.001zm18.667-7.291h2.707v2.476h-2.707v6.666c0 1.25.312 1.562 1.562 1.562.39 0 .755-.026 1.145-.104v2.889c-.624.104-1.433.129-2.162.129-2.264 0-4.242-.52-4.242-3.203v-7.94h-2.24v-2.474h2.24v-4.035h3.698l-.001 4.034zm5.235 4.144c.208-3.462 3.306-4.507 6.327-4.507 2.683 0 5.908.601 5.908 3.828v7.003c0 1.225.131 2.446.47 2.993h-3.751a5.39 5.39 0 0 1-.259-1.301c-1.172 1.224-2.889 1.666-4.53 1.666-2.553 0-4.581-1.276-4.581-4.033 0-3.049 2.29-3.772 4.581-4.086 2.267-.342 4.373-.262 4.373-1.771 0-1.589-1.093-1.822-2.396-1.822-1.406 0-2.316.572-2.447 2.031h-3.695v-.001zm8.538 2.731c-.625.547-1.926.572-3.073.781-1.146.232-2.187.623-2.187 1.978 0 1.383 1.068 1.719 2.265 1.719 2.891 0 2.995-2.291 2.995-3.101v-1.377zm16.298 4.869h-.051c-.859 1.457-2.368 2.082-4.087 2.082-4.061 0-6.042-3.488-6.042-7.213 0-3.617 2.008-6.979 5.962-6.979 1.591 0 3.152.678 3.983 2.008h.051v-6.771h3.697v18.588h-3.514l.001-1.715zm-3.226-9.324c-2.424 0-3.254 2.084-3.254 4.295 0 2.109.964 4.322 3.254 4.322 2.446 0 3.175-2.135 3.175-4.346 0-2.185-.782-4.271-3.175-4.271zm14.733-2.42h2.712v2.476h-2.712v6.666c0 1.25.312 1.562 1.562 1.562a5.73 5.73 0 0 0 1.15-.104v2.889c-.625.104-1.434.129-2.163.129-2.264 0-4.242-.52-4.242-3.203v-7.94h-2.239v-2.474h2.239v-4.035h3.693v4.034zm11.949 10.232l9.971-11.923h-9.188v-3.438h14.627v3.229l-9.969 11.922h10.233v3.438h-15.674v-3.228zm30.564 3.227h-3.513V716.5h-.078c-.939 1.511-2.552 2.236-4.113 2.236-3.933 0-4.918-2.215-4.918-5.545v-8.279h3.692v7.604c0 2.211.654 3.305 2.371 3.305 2.007 0 2.864-1.121 2.864-3.854v-7.056h3.694l.001 13.46zm-10.75-18.588h3.513v3.047h-3.513v-3.047zm5.365 0h3.514v3.047h-3.514v-3.047zm8.717 5.129h3.514v2.5h.053c.674-1.692 2.499-2.863 4.294-2.863a2.7 2.7 0 0 1 .806.132v3.436a6.928 6.928 0 0 0-1.326-.128c-2.71 0-3.647 1.954-3.647 4.323v6.062h-3.694v-13.462zm14.579-2.082h-3.695v-3.047h3.695v3.047zm-3.695 2.082h3.695v13.461h-3.695v-13.461zm15.904 4.738c-.232-1.51-1.194-2.318-2.734-2.318-2.368 0-3.152 2.396-3.152 4.375 0 1.927.758 4.242 3.073 4.242 1.719 0 2.707-1.094 2.944-2.733h3.563c-.465 3.563-2.941 5.52-6.481 5.52-4.061 0-6.792-2.865-6.792-6.897 0-4.193 2.499-7.291 6.869-7.291 3.177 0 6.093 1.668 6.327 5.104h-3.617v-.002zm6.041-9.867h3.695v7.004h.077c.938-1.51 2.55-2.238 3.93-2.238 3.933 0 4.921 2.214 4.921 5.548v8.276h-3.695v-7.602c0-2.214-.651-3.305-2.37-3.305-2.006 0-2.862 1.121-2.862 3.854v7.057h-3.695l-.001-18.594zm-143.764 28.269h14.736v1.51h-6.484v17.08h-1.77v-17.08h-6.482v-1.51zm17.342 0h1.642v2.631h-1.642v-2.631zm0 5.155h1.642v13.435h-1.642v-13.435zm6.274 7.16c.027 2.396 1.276 5.283 4.429 5.283 2.395 0 3.697-1.402 4.218-3.436h1.637c-.699 3.047-2.475 4.813-5.854 4.813-4.274 0-6.068-3.278-6.068-7.104 0-3.539 1.794-7.105 6.068-7.105 4.322 0 6.039 3.773 5.908 7.549h-10.338zm8.697-1.383c-.08-2.475-1.615-4.789-4.269-4.789-2.683 0-4.169 2.342-4.429 4.789h8.698zm9.555-4.395h-2.656v12.053h-1.642v-12.053h-2.29v-1.382h2.29v-1.225c-.024-2.314.625-3.932 3.252-3.932.47 0 .862.026 1.383.104v1.404c-.443-.078-.809-.131-1.198-.131-1.821 0-1.771 1.146-1.797 2.604v1.172h2.656v1.381h.002v.005zm2.083-6.537h1.639v7.709h.051c.705-1.929 2.656-2.945 4.659-2.945 4.09 0 6.041 3.303 6.041 7.104s-1.951 7.109-6.041 7.109c-2.16 0-4.034-1.119-4.79-2.945h-.053v2.554h-1.509v-18.586h.003zm6.35 6.145c-3.489 0-4.709 2.943-4.709 5.728s1.223 5.729 4.709 5.729c3.124 0 4.402-2.942 4.402-5.729.001-2.783-1.278-5.728-4.402-5.728zm8.955 3.127c.154-3.151 2.37-4.504 5.44-4.504 2.368 0 4.944.729 4.944 4.32v7.133c0 .625.312.988.966.988.18 0 .391-.056.521-.103v1.379a4.495 4.495 0 0 1-1.069.103c-1.666 0-1.923-.935-1.923-2.342h-.054c-1.146 1.746-2.317 2.733-4.894 2.733-2.475 0-4.504-1.221-4.504-3.928 0-3.775 3.671-3.908 7.211-4.324 1.354-.153 2.111-.34 2.111-1.819 0-2.214-1.591-2.757-3.516-2.757-2.029 0-3.542.935-3.591 3.123h-1.644v-.003h.002zm8.75 1.976h-.053c-.208.389-.938.52-1.378.596-2.787.496-6.252.471-6.252 3.1 0 1.642 1.458 2.654 2.995 2.654 2.499 0 4.712-1.588 4.688-4.215V739.3zm16.324 7.342h-1.509v-2.424h-.056c-.857 1.799-2.63 2.812-4.632 2.812-3.383 0-4.712-1.977-4.712-5.104v-8.724h1.642v8.75c.077 2.422.985 3.693 3.593 3.693 2.812 0 4.034-2.652 4.034-5.389V733.2h1.64v13.442zm3.619-6.408v-1.508h6.509v1.508h-6.509zm28.791 6.408h-1.507v-2.424h-.053c-.857 1.799-2.63 2.812-4.633 2.812-3.382 0-4.712-1.977-4.712-5.104v-8.724h1.643v8.75c.074 2.422.985 3.693 3.591 3.693 2.813 0 4.033-2.652 4.033-5.389V733.2h1.64v13.438h-.002v.004zm3.593-13.435h1.642v2.318h.051c.599-1.615 2.397-2.707 4.296-2.707 3.774 0 4.92 1.978 4.92 5.178v8.646h-1.639v-8.383c0-2.318-.759-4.062-3.412-4.062-2.603 0-4.167 1.98-4.216 4.605v7.836h-1.642v-13.431zm26.346 13.435h-1.511v-2.551h-.051c-.702 1.743-2.84 2.942-4.789 2.942-4.09 0-6.044-3.307-6.044-7.108 0-3.8 1.951-7.104 6.044-7.104 2.002 0 3.956 1.012 4.658 2.943h.051v-7.709h1.64v18.586l.002.001zm-6.348-.992c3.484 0 4.71-2.941 4.71-5.727 0-2.783-1.226-5.729-4.71-5.729-3.128 0-4.402 2.945-4.402 5.729-.001 2.786 1.274 5.727 4.402 5.727zm18.063-17.598h12.838v1.51h-11.065v6.717H-7.25v1.51h-10.363v7.341h11.196v1.51h-12.964v-18.586l-.005-.002zm15.623 5.155h1.642v2.318h.051c.601-1.615 2.395-2.707 4.296-2.707 3.772 0 4.917 1.978 4.917 5.178v8.646H5.504v-8.383c0-2.318-.756-4.062-3.409-4.062-2.605 0-4.168 1.98-4.216 4.605v7.836h-1.642v-13.431zm17.131 0h2.733v1.382h-2.733v9.061c0 1.064.155 1.689 1.324 1.768.47 0 .938-.022 1.407-.077v1.403c-.494 0-.964.056-1.458.056-2.187 0-2.944-.73-2.915-3.021v-9.188H9.382v-1.382h2.344v-4.039h1.637v4.039l.005-.002zm13.666 3.935c-.08-2.033-1.642-2.945-3.516-2.945-1.458 0-3.177.572-3.177 2.314 0 1.463 1.668 1.979 2.787 2.268l2.187.492c1.874.287 3.828 1.381 3.828 3.725 0 2.916-2.892 4.035-5.39 4.035-3.124 0-5.26-1.459-5.519-4.735h1.637c.133 2.213 1.772 3.354 3.959 3.354 1.537 0 3.668-.674 3.668-2.547 0-1.564-1.457-2.086-2.941-2.451l-2.111-.465c-2.131-.57-3.749-1.303-3.749-3.594 0-2.732 2.684-3.771 5.052-3.771 2.68 0 4.815 1.404 4.92 4.32h-1.635zm17.027 2.783c0 3.854-2.237 7.104-6.354 7.104s-6.352-3.252-6.352-7.104c0-3.854 2.237-7.105 6.352-7.105 4.115-.001 6.354 3.254 6.354 7.105zm-11.063 0c0 2.862 1.562 5.727 4.71 5.727 3.15 0 4.712-2.859 4.712-5.727 0-2.868-1.562-5.729-4.712-5.729-3.148-.001-4.71 2.866-4.71 5.729zm14.029-6.718h1.512v3.15h.051c.835-2.16 2.656-3.436 5.08-3.332v1.639c-2.969-.153-5.003 2.029-5.003 4.814v7.162h-1.64v-13.433zm20.076 12.341c-.029 4.01-1.562 6.454-5.962 6.454-2.683 0-5.339-1.194-5.571-4.061h1.64c.363 1.979 2.108 2.68 3.932 2.68 3.02 0 4.32-1.795 4.32-5.075v-1.818h-.054c-.755 1.637-2.341 2.754-4.269 2.754-4.298 0-6.068-3.07-6.068-6.895 0-3.701 2.189-6.769 6.068-6.769 1.951 0 3.617 1.223 4.269 2.707h.054v-2.318h1.642l-.001 12.341zm-1.641-5.779c0-2.627-1.223-5.57-4.32-5.57-3.126 0-4.426 2.785-4.426 5.57 0 2.709 1.404 5.338 4.426 5.338 2.835-.001 4.32-2.607 4.32-5.338zm16.167 6.873h-1.506v-2.424h-.054c-.859 1.799-2.629 2.812-4.634 2.812-3.383 0-4.712-1.977-4.712-5.104v-8.724h1.644v8.75c.075 2.422.985 3.693 3.589 3.693 2.816 0 4.036-2.652 4.036-5.389V733.2h1.64v13.438h-.003v.004zm3.594-13.435h1.639v2.318h.052c.598-1.615 2.396-2.707 4.295-2.707 3.772 0 4.92 1.978 4.92 5.178v8.646H94.49v-8.383c0-2.318-.758-4.062-3.412-4.062-2.605 0-4.167 1.98-4.218 4.605v7.836h-1.64v-13.431h.003zm25.875 12.341c-.024 4.01-1.562 6.454-5.959 6.454-2.681 0-5.337-1.194-5.572-4.061h1.642c.361 1.979 2.109 2.68 3.931 2.68 3.02 0 4.321-1.795 4.321-5.075v-1.818h-.053c-.753 1.637-2.342 2.754-4.269 2.754-4.296 0-6.065-3.07-6.065-6.895 0-3.701 2.186-6.769 6.065-6.769 1.954 0 3.619 1.223 4.269 2.707h.053v-2.318h1.638l-.001 12.341zm-1.638-5.779c0-2.627-1.223-5.57-4.321-5.57-3.124 0-4.427 2.785-4.427 5.57 0 2.709 1.407 5.338 4.427 5.338 2.835-.001 4.321-2.607 4.321-5.338zm13.33-2.627c-.077-2.033-1.64-2.945-3.515-2.945-1.461 0-3.177.572-3.177 2.314 0 1.463 1.666 1.979 2.785 2.268l2.187.492c1.877.287 3.828 1.381 3.828 3.725 0 2.916-2.892 4.035-5.391 4.035-3.123 0-5.259-1.459-5.521-4.735h1.64c.133 2.213 1.77 3.354 3.961 3.354 1.535 0 3.669-.674 3.669-2.547 0-1.564-1.461-2.086-2.942-2.451l-2.111-.465c-2.132-.57-3.75-1.303-3.75-3.594 0-2.732 2.683-3.771 5.051-3.771 2.684 0 4.814 1.404 4.918 4.32h-1.632zm16.816 9.5h-1.51v-2.551h-.053c-.702 1.743-2.838 2.942-4.792 2.942-4.087 0-6.041-3.307-6.041-7.108 0-3.8 1.951-7.104 6.041-7.104 2.005 0 3.956 1.012 4.661 2.943h.053v-7.709h1.641v18.587zm-6.351-.992c3.488 0 4.712-2.941 4.712-5.727 0-2.783-1.224-5.729-4.712-5.729-3.123 0-4.399 2.945-4.399 5.729-.001 2.786 1.276 5.727 4.399 5.727zm10.962-5.283c.024 2.396 1.276 5.283 4.427 5.283 2.396 0 3.694-1.402 4.215-3.436h1.643c-.704 3.047-2.475 4.813-5.855 4.813-4.271 0-6.068-3.278-6.068-7.104 0-3.539 1.799-7.105 6.068-7.105 4.318 0 6.037 3.773 5.906 7.549h-10.336zm8.694-1.383c-.076-2.475-1.611-4.789-4.269-4.789-2.684 0-4.168 2.342-4.427 4.789h8.696zm4.373-5.777h1.51v2.554h.053c.756-1.826 2.631-2.945 4.792-2.945 4.087 0 6.041 3.303 6.041 7.104s-1.95 7.109-6.041 7.109c-2.005 0-3.959-1.018-4.661-2.945h-.054v7.525h-1.64v-18.402zm6.355.99c-3.62 0-4.712 2.683-4.712 5.728 0 2.784 1.223 5.729 4.712 5.729 3.124 0 4.399-2.942 4.399-5.729 0-2.783-1.278-5.728-4.399-5.728zm8.954 3.127c.155-3.151 2.371-4.504 5.438-4.504 2.371 0 4.947.729 4.947 4.32v7.133c0 .625.312.988.967.988.179 0 .388-.056.521-.103v1.379a4.5 4.5 0 0 1-1.069.103c-1.666 0-1.924-.935-1.924-2.342h-.053c-1.146 1.746-2.316 2.733-4.895 2.733-2.475 0-4.504-1.221-4.504-3.928 0-3.775 3.672-3.908 7.211-4.324 1.354-.153 2.108-.34 2.108-1.819 0-2.214-1.588-2.757-3.517-2.757-2.025 0-3.539.935-3.588 3.123h-1.645v-.003h.003zm8.746 1.976h-.051c-.208.389-.938.52-1.383.596-2.782.496-6.248.471-6.248 3.1 0 1.642 1.459 2.654 2.994 2.654 2.5 0 4.713-1.588 4.688-4.215V739.3zm5.443-6.093h1.511v3.15h.051c.833-2.16 2.656-3.436 5.078-3.332v1.639c-2.968-.153-5 2.029-5 4.814v7.162h-1.64v-13.433zm11.324 0h2.734v1.382h-2.734v9.061c0 1.064.153 1.689 1.327 1.768.468 0 .938-.022 1.404-.077v1.403c-.493 0-.964.056-1.457.056-2.187 0-2.942-.73-2.916-3.021v-9.188h-2.344v-1.382h2.344v-4.039h1.64v4.039l.002-.002zm6.584 7.16c.028 2.396 1.277 5.283 4.426 5.283 2.396 0 3.697-1.402 4.219-3.436h1.64c-.702 3.047-2.473 4.813-5.856 4.813-4.271 0-6.063-3.278-6.063-7.104 0-3.539 1.797-7.105 6.063-7.105 4.322 0 6.041 3.773 5.91 7.549H204.69zm8.698-1.383c-.076-2.475-1.611-4.789-4.271-4.789-2.684 0-4.164 2.342-4.426 4.789h8.697zm4.376-5.777h1.509v2.263h.074c.862-1.609 2.268-2.65 4.402-2.65 1.771 0 3.355.859 3.853 2.631.808-1.771 2.499-2.631 4.269-2.631 2.945 0 4.457 1.531 4.457 4.709v9.113h-1.643v-9.033c0-2.217-.833-3.41-3.175-3.41-2.838 0-3.646 2.342-3.646 4.84v7.604h-1.641v-9.113c.027-1.82-.729-3.332-2.811-3.332-2.842 0-3.983 2.133-4.01 4.945v7.496h-1.641l.003-13.432zm23.17 7.16c.026 2.396 1.278 5.283 4.427 5.283 2.396 0 3.694-1.402 4.215-3.436h1.644c-.703 3.047-2.476 4.813-5.856 4.813-4.271 0-6.068-3.278-6.068-7.104 0-3.539 1.799-7.105 6.068-7.105 4.318 0 6.041 3.773 5.908 7.549h-10.338zm8.692-1.383c-.074-2.475-1.612-4.789-4.27-4.789-2.683 0-4.166 2.342-4.426 4.789h8.696zm4.35-5.777h1.639v2.318h.055c.602-1.615 2.396-2.707 4.293-2.707 3.773 0 4.923 1.978 4.923 5.178v8.646h-1.642v-8.383c0-2.318-.756-4.062-3.409-4.062-2.604 0-4.168 1.98-4.22 4.605v7.836h-1.639v-13.431zm17.128 0h2.734v1.382h-2.734v9.061c0 1.064.156 1.689 1.328 1.768.467 0 .938-.022 1.404-.077v1.403c-.494 0-.967.056-1.458.056-2.188 0-2.944-.73-2.918-3.021v-9.188h-2.341v-1.382h2.341v-4.039h1.64v4.039l.004-.002zm-465.831-2.565a2.252 2.252 0 0 0-.499.082l-.845-3.053.429-.556c1.293-1.68 2.063-2.651 2.642-3.768.889-1.701.772-3.396.487-4.465-.649-2.404-2.542-2.976-3.671-2.916-1.69.082-2.724 1.022-3.157 2.098-.463 1.158-.378 2.354-.165 3.211l1.479 5.908c-.455.59-.85 1.211-1.121 1.555l-2.804-10.938 6.269-4.621c3.593-2.639 3.566-6.886 2.392-9.183-1.124-2.194-2.707-3.303-4.083-3.809a6.746 6.746 0 0 0-.939-.293c-.01-.188-.015-.324-.02-.384-.026-.283-.36-.414-.649-.472-.639-.138-.821.131-.821.229l-.021.377c-1.533-.164-4.804-.148-4.804-.148l.007.897v2.238l1.3.15c.121.008.291.14.288.369-.002.244-.189.378-.371.428-.152.045-.23.058-.295.05h-.014l-4.005-.443.489 1.522c1.555.179 2.785.283 3.688.331.043.008.082.008.124.008a1.894 1.894 0 1 0 .097-3.785v-.371c.54.012 1.201.039 1.92.104.065.271.208.603.499.902.315.329.646.586.937.773l-.017.467s.042.772-.031 1.418c-.073.645-.455 1.133-1.865 1.185-1.341.047-2.99-.216-2.99-.216l.09.992c-.542.3-1.087.746-1.775 1.363-.462.409-.908.981-1.305 1.631l-1.683-3.255a2.902 2.902 0 0 0 .567-1.714c0-1.603-1.475-2.904-3.02-2.904-1.041 0-1.911.463-2.453 1.18l.262-3.06h-26.432l.254 3.06c-.538-.719-1.41-1.18-2.448-1.18-1.545 0-3.02 1.301-3.02 2.904 0 .641.216 1.227.572 1.714l-1.688 3.257c-.399-.648-.847-1.221-1.308-1.63-.695-.62-1.232-1.063-1.777-1.363l.095-.993s-1.651.261-2.993.216c-1.412-.051-1.794-.542-1.867-1.184-.068-.646-.024-1.419-.024-1.419l-.022-.469c.291-.187.622-.444.937-.773.288-.301.434-.633.497-.902a30.064 30.064 0 0 1 1.925-.104v.371c-1 .053-1.797.881-1.797 1.889 0 1.047.848 1.896 1.896 1.896.039 0 .078 0 .119-.008a62.374 62.374 0 0 0 3.69-.331l.487-1.522-4.003.443h-.017c-.063.01-.141-.005-.295-.05-.182-.05-.366-.184-.368-.428-.005-.229.167-.361.288-.369l1.298-.15v-2.238l.015-.897s-3.274-.018-4.809.148l-.019-.379c0-.099-.182-.363-.821-.229-.289.058-.623.188-.649.472-.005.062-.007.198-.022.387a6.818 6.818 0 0 0-.937.293c-1.375.506-2.961 1.613-4.075 3.81-1.172 2.296-1.211 6.543 2.387 9.182l6.267 4.621-2.806 10.938c-.269-.344-.661-.965-1.116-1.555l1.477-5.908c.213-.856.295-2.053-.167-3.211-.433-1.072-1.462-2.014-3.157-2.096-1.133-.058-3.027.514-3.673 2.916-.286 1.072-.407 2.764.489 4.465.579 1.113 1.349 2.088 2.639 3.77l.429.554-.84 3.051a2.058 2.058 0 0 0-.506-.082 1.712 1.712 0 0 0-1.79 1.709c0 .994.804 1.787 1.79 1.787.642 0 1.196-.328 1.508-.832.271-.408.525-1.459.818-2.465l.395-1.371 1.16 1.504c-.719 2.705-3.356 12.604-3.395 12.758-.453 1.926 1.274 3.584 3.061 3.572 1.591-.019 3.119-1.291 3.056-3.088-.037-.842-.368-1.463-.898-1.869l2.916-4.611 5.484 7.761c.428.618.768.897.823.938.557.562 1.322.91 2.177.91 1.521 0 3.094-1.365 3.094-3.06 0-1.693-1.336-3.12-3.102-2.807-.048.018-.089.021-.133.031L-247 730.418c-.31-.849-.741-1.492-1.133-1.859-.562-.537-1.38-.533-1.705-.514a3.352 3.352 0 0 0-.528.088l2.908-6.283 3.644 2.748a3.078 3.078 0 0 0 2.303.658l1.007 10.325c.327 3.462 2.01 6.505 4.492 8.644v.025h.029c2.308 1.973 5.296 3.188 8.582 3.188 6.855 0 12.48-5.168 13.1-11.854l1.01-10.326a3.096 3.096 0 0 0 2.308-.658l3.639-2.748 2.911 6.283a2.964 2.964 0 0 0-.53-.088c-.327-.021-1.143-.023-1.705.514-.393.367-.821 1.012-1.131 1.859l-3.881 11.092c-.046-.01-.087-.014-.133-.031-1.765-.313-3.102 1.113-3.102 2.808 0 1.696 1.572 3.059 3.097 3.059.853 0 1.615-.35 2.174-.91.053-.045.39-.324.823-.938l5.487-7.761 2.908 4.611c-.533.406-.862 1.027-.896 1.869-.058 1.797 1.472 3.07 3.056 3.088 1.787.012 3.519-1.646 3.061-3.572-.036-.151-2.675-10.057-3.397-12.758l1.16-1.504.395 1.371c.293 1.006.544 2.057.821 2.465.314.504.872.832 1.503.832.993 0 1.794-.791 1.794-1.787a1.722 1.722 0 0 0-1.798-1.712zm-62.292-9.495l-1.095 4.225c-.363-.471-.649-.85-.768-1.02-.462-.674-1.663-2.367-1.663-4.455 0-1.037.891-2.209 2.005-2.103 1.395.129 1.945 1.727 1.521 3.353zm44.975-17.626c.675 0 1.298.649 1.298 1.321 0 .482-.254.903-.646 1.138l2.688 5.217a8.378 8.378 0 0 0-.477 1.617c-.08.494-.133.832-.165 1.057l-3.855-8.394a1.436 1.436 0 0 1-.152-.635 1.314 1.314 0 0 1 1.309-1.321zm-7.582-2.397h1.237l-.099 2.115h1.21l.102-2.115h1.242l-.204 3.272h-3.639l.151-3.272zm-.198 4.462h3.61l-.106 1.697h-3.583l.079-1.697zm-7.787 2.893h11.217l-.133 2.098h-21.749l-.128-2.098h10.793zm-1.519-2.893h3.453l-.027 1.697h-3.409l-.017-1.697zm4.816-4.462h1.174l-.073 2.115h1.196l.075-2.115h1.068l-.111 3.272h-3.399l.07-3.272zm-.094 4.462h3.383l-.058 1.697h-3.361l.036-1.697zm-3.644-4.462l.007 2.115h1.298v-2.115h1.126l-.043 3.272h-3.477l-.046-3.272h1.135zm-2.305 6.156h-3.361l-.058-1.698h3.383l.036 1.698zm-2.504-6.156l.073 2.115h1.199l-.07-2.115h1.174l.065 3.272h-3.397l-.111-3.272h1.067zm-2.039 6.156h-3.581l-.109-1.693h3.61l.08 1.693zm-2.727-6.156l.097 2.115h1.213l-.097-2.115h1.235l.152 3.272h-3.642l-.206-3.272h1.248zm-5.787 4.855a1.317 1.317 0 0 1-.644-1.138c0-.672.623-1.321 1.298-1.321.722 0 1.308.59 1.308 1.321 0 .232-.061.445-.152.635l-3.855 8.394c-.029-.225-.083-.562-.162-1.057-.083-.496-.257-1.057-.479-1.617l2.686-5.217zm-6.646 23.48c.828.171 1.196.849 1.354 1.25.124.318 2.906 8.234 4.041 11.468l.049.137.433 1.215.083-.133c.228-.279.586-.445 1.056-.445.707 0 1.283.568 1.283 1.289 0 .713-.574 1.291-1.283 1.291-.341 0-.656-.137-.894-.36-.228-.193-.777-.925-.777-.925l-.748-1.047-.21-.305-4.777-6.734c.499-.795.864-1.567.864-2.219 0-1.551-1.029-2.582-2.274-2.582l.848-1.826c.138-.086.426-.186.952-.074zm-3.807 2.603l-.215.488c.262-.154.569-.24.896-.24a1.77 1.77 0 0 1 1.748 2.078.446.446 0 0 0-.024.092c-.01.051-.024.106-.042.158l-.007.022c-.116.355-.354.73-.354.73l-1.341 2.115-.433.67-2.068 3.252-.213.336-.736 1.139h.08c.768-.02 1.31.602 1.31 1.314 0 .534-.443 1.268-1.237 1.268-.811 0-1.346-.555-1.346-1.268 0-.062-.007-.248.036-.398l6.519-24.836 2.564 1.908-5.137 11.172zm12.187-8.541a1.035 1.035 0 0 1-.315.049c-.327 0-.603-.092-.826-.248l-2.133-1.59-1.324-.971-11.841-8.802c-1.124-.844-2.673-2.545-2.455-5.379.182-2.313 2.027-4.396 4.046-5.026 0 .543 0 1.081.017 1.491.053 1.201.196 2.108.291 2.484.146.603.697 1.521 2.223 1.555.525.017 1.147 0 1.738-.022a8.14 8.14 0 0 1 1.022.442c1.968 1.011 3.029 2.66 3.438 3.396a7.603 7.603 0 0 1 .712 5.207l-2.872-2.172-.417 1.756 5.535 4.088.567.414 1.308.975c.259-.241.612-.393.998-.403l.019-.004c.979-.021 1.436.706 1.412 1.442-.014.537-.545 1.148-1.143 1.318zm1.506-3.958c-.201-1.404-.324-2.803-.324-2.803l2.746 2.936h-2.251c-.06-.042-.105-.101-.171-.133zm1.373 1.864h2.845l1.593 1.524h-4.492a2.95 2.95 0 0 0 .146-.856 2.941 2.941 0 0 0-.092-.668zm-1.002 3.256h7.237l1.596 1.535h-8.722c-.034-.517-.077-1.043-.111-1.535zm.232 3.264h10.397l1.591 1.525h-11.877c-.036-.506-.072-1.021-.111-1.525zm.242 3.258h13.541l1.591 1.529h-14.977c-.056-.502-.119-1.008-.155-1.529zm.39 3.256h16.533l1.598 1.531h-17.853c-.108-.485-.191-1.006-.278-1.531zm11.632 11.515c-1.944 0-4.039-.389-6.194-1.721h12.1c-1.496 1.026-3.956 1.721-5.906 1.721zm7.759-3.455h-16.013a9.545 9.545 0 0 1-1.232-1.533h18.586c-.356.471-.782.991-1.341 1.533zm-18.144-3.262a17.977 17.977 0 0 1-.544-1.531h19.218l1.598 1.531h-20.272zm23.054-19.785a3.079 3.079 0 0 0-1.358 2.555c0 .885.368 1.683.963 2.24l-.116 1.377-.251 3.078-.506 6.149c-.061.939-.24 1.851-.518 2.716l-22.788-21.908h24.889l-.315 3.793zm-27.971-5.5l.499 5.108a2.783 2.783 0 0 0-.804.162l-2.458-1.852 5.281-11.35.489 5.819h24.402l.484-5.819 5.288 11.35-2.46 1.85a2.86 2.86 0 0 0-.801-.164l.496-5.106h-30.417l.001.002zm34.08 6.787l-1.317.975-2.138 1.59a1.433 1.433 0 0 1-.826.248.98.98 0 0 1-.315-.051c-.596-.17-1.124-.777-1.136-1.316-.026-.735.429-1.463 1.405-1.442l.014.004c.39.012.741.162 1.002.404l1.315-.976.562-.416 5.531-4.088-.414-1.756-2.872 2.17a7.644 7.644 0 0 1 .712-5.207c.409-.736 1.47-2.388 3.443-3.396a8.418 8.418 0 0 1 1.015-.443c.598.024 1.22.04 1.743.024 1.519-.034 2.078-.954 2.223-1.556.099-.377.24-1.283.291-2.483.017-.412.019-.949.017-1.492 2.017.631 3.865 2.713 4.049 5.025.215 2.834-1.332 4.536-2.46 5.381l-11.844 8.801zm-.596 22.137l-.21.305-.746 1.045s-.557.732-.782.927a1.306 1.306 0 0 1-.894.356 1.29 1.29 0 0 1-1.281-1.293 1.28 1.28 0 0 1 1.281-1.287c.467 0 .828.164 1.056.445l.089.135.426-1.219.048-.131c1.138-3.236 3.92-11.148 4.049-11.474.152-.401.521-1.077 1.349-1.25.525-.11.813-.01.957.072l.847 1.826c-1.249 0-2.271 1.031-2.271 2.582 0 .652.361 1.424.862 2.219l-4.78 6.742zm12.132.92c.046.15.046.338.046.398 0 .713-.54 1.268-1.349 1.268-.799 0-1.245-.731-1.245-1.268 0-.713.547-1.334 1.31-1.314h.077l-.731-1.139-.213-.336-2.065-3.252-.431-.67-1.349-2.115s-.237-.375-.352-.73l-.007-.022a.886.886 0 0 1-.044-.158c-.005-.041-.014-.064-.024-.092a1.769 1.769 0 0 1 1.748-2.078c.327 0 .632.086.894.24l-.218-.484-5.136-11.174 2.571-1.908 6.518 24.834zm.3-18.447l-1.092-4.225c-.421-1.627.126-3.225 1.521-3.352 1.114-.107 2.015 1.063 2.015 2.102 0 2.088-1.206 3.779-1.673 4.455-.12.171-.406.549-.771 1.02z" fill="#0F05A0"/></svg>