<svg id="Ombudsfrau" xmlns="http://www.w3.org/2000/svg" viewBox="0 0 322.7494507 59.3518105"><title>Logo Stadt Zürich</title><style>.st0{fill:#0f05a0}</style><path class="st0" d="M113.092 32.76c2.099 0 3.822.5 5.17 1.5 1.346 1 2.16 2.458 2.44 4.375h-2.354c-.232-1.256-.803-2.219-1.71-2.887-.91-.67-2.092-1.004-3.546-1.004-1.835 0-3.305.677-4.413 2.032-1.107 1.355-1.661 3.182-1.661 5.48 0 2 .558 3.677 1.674 5.032 1.115 1.355 2.582 2.033 4.4 2.033 1.636 0 2.991-.504 4.066-1.513 1.074-1.008 1.611-2.338 1.611-3.991v-.273h-5.652v-1.983h7.76v9.321h-1.488l-.62-2.206a6.384 6.384 0 0 1-2.454 1.946 7.637 7.637 0 0 1-3.223.682c-2.413 0-4.422-.86-6.024-2.579-1.604-1.719-2.404-3.834-2.404-6.346 0-2.81.747-5.115 2.243-6.917 1.495-1.8 3.557-2.702 6.185-2.702zm16.355 5.008c1.817 0 3.238.653 4.263 1.958 1.025 1.307 1.537 3.017 1.537 5.132v.248h-9.593v.148c0 1.24.354 2.228 1.065 2.963s1.686 1.104 2.926 1.104c1.834 0 2.941-.835 3.321-2.504h2.083c-.281 1.437-.901 2.524-1.86 3.26-.958.735-2.164 1.103-3.618 1.103-2.017 0-3.546-.661-4.587-1.983s-1.562-2.926-1.562-4.81c0-1.9.57-3.478 1.711-4.735 1.14-1.256 2.578-1.884 4.314-1.884zm3.57 5.479c-.067-1.041-.443-1.905-1.129-2.591-.685-.686-1.549-1.029-2.59-1.029-.975 0-1.802.327-2.48.98-.677.652-1.066 1.533-1.164 2.64h7.362zm8.819-5.479c1.736 0 3.02.335 3.856 1.004.834.669 1.293 1.674 1.375 3.012h-2.107v-.025c-.066-.694-.368-1.222-.905-1.587-.537-.363-1.227-.545-2.07-.545s-1.508.141-1.995.421c-.489.282-.732.687-.732 1.215 0 .48.215.864.645 1.153s1.082.534 1.958.732l1.983.446c1.24.281 2.182.698 2.826 1.252s.967 1.318.967 2.293c0 1.273-.487 2.265-1.462 2.975s-2.305 1.066-3.992 1.066c-1.636 0-2.934-.36-3.892-1.079-.959-.719-1.471-1.805-1.537-3.26h2.108c.032.793.346 1.406.941 1.835.596.43 1.43.645 2.504.645 2.066 0 3.1-.637 3.1-1.91 0-.56-.253-1.007-.757-1.338-.504-.33-1.582-.67-3.236-1.017-1.57-.313-2.693-.752-3.37-1.313s-1.017-1.34-1.017-2.33c0-1.091.433-1.972 1.302-2.641.867-.669 2.037-1.004 3.507-1.004zm10.174.298v8.725c0 .745.232 1.352.695 1.823.462.471 1.1.707 1.909.707 1.239 0 2.181-.364 2.826-1.091s.967-1.678.967-2.852v-7.312h2.107v12.816h-1.983V48.85h-.05c-.876 1.554-2.265 2.331-4.165 2.331-2.942 0-4.412-1.52-4.412-4.561v-8.553h2.106zm17.824-.298c2.942 0 4.413 1.53 4.413 4.586v8.528h-2.107v-8.75c0-.712-.223-1.306-.669-1.786s-1.1-.719-1.959-.719c-1.206 0-2.136.364-2.789 1.091s-.98 1.678-.98 2.85v7.314h-2.106V38.066h1.984v2.032h.048c.926-1.553 2.315-2.33 4.165-2.33zm19.021-4.586v17.7h-2.108v-1.735h-.05c-.33.661-.854 1.165-1.574 1.513-.718.346-1.557.52-2.515.52-1.769 0-3.194-.62-4.277-1.86-1.083-1.24-1.624-2.866-1.624-4.883s.525-3.632 1.575-4.847c1.049-1.215 2.466-1.822 4.252-1.822.842 0 1.648.174 2.417.52s1.35.843 1.747 1.488h.05v-6.594h2.107zm-9.916 11.403c0 1.406.363 2.545 1.09 3.421.727.876 1.686 1.315 2.876 1.315 1.207 0 2.16-.443 2.863-1.326.703-.885 1.054-2.054 1.054-3.51 0-1.453-.35-2.626-1.054-3.519-.702-.892-1.706-1.339-3.012-1.339-1.223 0-2.165.443-2.826 1.327-.661.884-.991 2.094-.991 3.631zm15.183-11.403v6.768h.05c.297-.695.818-1.232 1.562-1.612.743-.38 1.57-.57 2.478-.57 2.942 0 4.413 1.53 4.413 4.586v8.528h-2.107v-8.75c0-.712-.223-1.306-.669-1.786s-1.1-.719-1.959-.719c-1.19 0-2.115.364-2.776 1.091s-.992 1.678-.992 2.85v7.314h-2.107v-17.7h2.107zm16.948 4.586c1.817 0 3.238.653 4.263 1.958 1.025 1.307 1.538 3.017 1.538 5.132v.248h-9.594v.148c0 1.24.354 2.228 1.065 2.963s1.686 1.104 2.926 1.104c1.834 0 2.941-.835 3.321-2.504h2.083c-.28 1.437-.901 2.524-1.86 3.26-.958.735-2.164 1.103-3.618 1.103-2.017 0-3.546-.661-4.587-1.983s-1.562-2.926-1.562-4.81c0-1.9.57-3.478 1.711-4.735 1.14-1.256 2.578-1.884 4.314-1.884zm3.57 5.479c-.067-1.041-.443-1.905-1.129-2.591-.685-.686-1.549-1.029-2.59-1.029-.975 0-1.802.327-2.48.98-.677.652-1.066 1.533-1.164 2.64h7.362zm6.741-10.065v2.578h-2.106v-2.578h2.106zm0 4.884v12.816h-2.106V38.066h2.106zm6.136-3.843v3.843h2.554v1.858h-2.554v8.032c0 .381.074.654.224.819.148.166.52.248 1.115.248h1.215v1.86h-1.736c-1.09 0-1.851-.182-2.28-.546-.43-.364-.645-1.074-.645-2.132v-8.28h-2.182v-1.86h2.182v-3.842h2.107zm9.098 3.545c1.735 0 3.02.335 3.855 1.004.834.669 1.293 1.674 1.375 3.012h-2.106v-.025c-.067-.694-.368-1.222-.906-1.587-.537-.363-1.227-.545-2.07-.545s-1.508.141-1.995.421c-.488.282-.731.687-.731 1.215 0 .48.214.864.644 1.153s1.082.534 1.958.732l1.983.446c1.24.281 2.182.698 2.827 1.252s.966 1.318.966 2.293c0 1.273-.487 2.265-1.461 2.975-.976.71-2.306 1.066-3.993 1.066-1.635 0-2.933-.36-3.891-1.079-.96-.719-1.472-1.805-1.537-3.26h2.107c.032.793.347 1.406.941 1.835.596.43 1.43.645 2.504.645 2.067 0 3.1-.637 3.1-1.91 0-.56-.253-1.007-.757-1.338-.504-.33-1.582-.67-3.235-1.017-1.57-.313-2.694-.752-3.371-1.313s-1.017-1.34-1.017-2.33c0-1.091.434-1.972 1.302-2.641.867-.669 2.037-1.004 3.508-1.004zm19.572-4.586v17.7h-2.107v-1.735h-.05c-.33.661-.855 1.165-1.574 1.513-.72.346-1.558.52-2.516.52-1.769 0-3.194-.62-4.276-1.86-1.083-1.24-1.625-2.866-1.625-4.883s.525-3.632 1.575-4.847c1.049-1.215 2.467-1.822 4.252-1.822.842 0 1.648.174 2.417.52s1.35.843 1.747 1.488h.05v-6.594h2.107zm-9.916 11.403c0 1.406.363 2.545 1.09 3.421.727.876 1.686 1.315 2.876 1.315 1.207 0 2.16-.443 2.863-1.326.703-.885 1.054-2.054 1.054-3.51 0-1.453-.35-2.626-1.054-3.519-.702-.892-1.706-1.339-3.012-1.339-1.223 0-2.165.443-2.826 1.327-.661.884-.991 2.094-.991 3.631zm15.235-11.403v2.578H259.4v-2.578h2.106zm0 4.884v12.816H259.4V38.066h2.106zm8.574-.298c1.817 0 3.238.653 4.263 1.958 1.025 1.307 1.537 3.017 1.537 5.132v.248h-9.593v.148c0 1.24.354 2.228 1.065 2.963s1.686 1.104 2.926 1.104c1.834 0 2.941-.835 3.321-2.504h2.083c-.281 1.437-.901 2.524-1.86 3.26-.958.735-2.164 1.103-3.618 1.103-2.017 0-3.546-.661-4.587-1.983s-1.562-2.926-1.562-4.81c0-1.9.57-3.478 1.711-4.735 1.14-1.256 2.578-1.884 4.314-1.884zm3.569 5.479c-.067-1.041-.443-1.905-1.128-2.591-.686-.686-1.549-1.029-2.59-1.029-.975 0-1.803.327-2.48.98-.677.652-1.066 1.533-1.164 2.64h7.362zm10.742-5.479c2.941 0 4.413 1.53 4.413 4.586v8.528h-2.107v-8.75c0-.712-.223-1.306-.67-1.786s-1.099-.719-1.958-.719c-1.206 0-2.136.364-2.79 1.091s-.979 1.678-.979 2.85v7.314h-2.106V38.066h1.983v2.032h.049c.926-1.553 2.314-2.33 4.165-2.33zm11.853 0c1.735 0 3.02.335 3.855 1.004.834.669 1.293 1.674 1.375 3.012h-2.106v-.025c-.067-.694-.369-1.222-.906-1.587-.537-.363-1.227-.545-2.07-.545s-1.508.141-1.995.421c-.488.282-.732.687-.732 1.215 0 .48.215.864.645 1.153s1.082.534 1.958.732l1.983.446c1.24.281 2.182.698 2.827 1.252s.966 1.318.966 2.293c0 1.273-.487 2.265-1.462 2.975s-2.305 1.066-3.992 1.066c-1.635 0-2.933-.36-3.891-1.079-.96-.719-1.472-1.805-1.537-3.26h2.107c.032.793.347 1.406.941 1.835.596.43 1.43.645 2.504.645 2.067 0 3.1-.637 3.1-1.91 0-.56-.253-1.007-.757-1.338-.504-.33-1.582-.67-3.235-1.017-1.57-.313-2.694-.752-3.371-1.313s-1.017-1.34-1.017-2.33c0-1.091.434-1.972 1.302-2.641.867-.669 2.037-1.004 3.508-1.004zm11.006-3.545v3.843h2.554v1.858h-2.554v8.032c0 .381.075.654.224.819.148.166.52.248 1.115.248h1.215v1.86h-1.735c-1.091 0-1.852-.182-2.281-.546-.43-.364-.645-1.074-.645-2.132v-8.28h-2.182v-1.86h2.182v-3.842h2.107zm9.699 3.545c1.817 0 3.238.653 4.263 1.958 1.025 1.307 1.537 3.017 1.537 5.132v.248h-9.593v.148c0 1.24.354 2.228 1.065 2.963s1.686 1.104 2.926 1.104c1.834 0 2.941-.835 3.321-2.504h2.083c-.281 1.437-.901 2.524-1.86 3.26-.958.735-2.164 1.103-3.618 1.103-2.017 0-3.546-.661-4.587-1.983s-1.562-2.926-1.562-4.81c0-1.9.57-3.478 1.711-4.735 1.14-1.256 2.578-1.884 4.314-1.884zm3.569 5.479c-.066-1.041-.442-1.905-1.128-2.591-.685-.686-1.549-1.029-2.59-1.029-.975 0-1.803.327-2.48.98-.677.652-1.066 1.533-1.164 2.64h7.362zM119.35 7.943h-3.799c-.125-1.8-1.175-2.7-3.5-2.7-1.449 0-2.723.625-2.723 2.025 0 1.299.75 1.549 4.749 2.549 2.648.675 5.873 1.574 5.873 5.348 0 3.375-2.674 5.724-7.423 5.724-3.775 0-7.599-1.8-7.599-6.224v-.125h3.799c0 2.525 2.075 3.3 3.925 3.3 1.799 0 3.499-.6 3.499-2.224 0-1.125-.875-1.826-3.074-2.375-1.326-.35-2.475-.6-3.624-.975-2.7-.9-3.925-2.424-3.925-4.698 0-3.6 3.4-5.374 6.674-5.374 3.824 0 7.148 1.699 7.148 5.749zm7.02-4.275v3.874h2.6v2.374h-2.6v6.399c0 1.2.3 1.5 1.5 1.5.4 0 .8-.025 1.1-.1v2.775c-.6.1-1.4.125-2.1.125-2.724 0-4.048-.825-4.048-3.125V9.916h-2.15V7.542h2.15V3.668h3.549zm16.346 7.199v6.848c0 1.025.125 2.225.45 2.75h-3.6a5.247 5.247 0 0 1-.25-1.25c-1 1.05-2.524 1.599-4.349 1.599-2.648 0-4.398-1.374-4.398-3.874 0-1.25.4-2.124 1.125-2.75.824-.7 2.024-1.074 4.174-1.299 2.298-.25 3.298-.45 3.298-1.6 0-1.474-1.074-1.724-2.274-1.724-1.475 0-2.249.6-2.374 1.95h-3.549c.15-2.825 2.474-4.324 6.098-4.324 3.774 0 5.65 1.274 5.65 3.674zm-6.424 7.573c1.9 0 2.874-1.025 2.874-2.925v-1.374c-.324.3-.949.475-2.149.625-1.824.225-2.9.624-2.9 2.024 0 1.025.626 1.65 2.175 1.65zM158.01 2.619v17.845h-3.375v-1.65h-.05c-.774 1.325-2.149 2-3.923 2-3.85 0-5.8-3.25-5.8-6.923 0-3.574 2-6.698 5.724-6.698 1.55 0 3.05.675 3.825 1.924h.05V2.619h3.548zm-6.473 15.521c2.024 0 3.048-1.575 3.048-4.174 0-2.35-.899-4.1-3.074-4.1-2.024 0-3.1 1.626-3.1 4.125 0 2.05.95 4.15 3.126 4.15zM165.48 3.668v3.874h2.6v2.374h-2.6v6.399c0 1.2.3 1.5 1.5 1.5.4 0 .8-.025 1.1-.1v2.775c-.6.1-1.4.125-2.1.125-2.724 0-4.048-.825-4.048-3.125V9.916h-2.15V7.542h2.15V3.668h3.549zm24.567-1.049v3.1l-9.572 11.446h9.822v3.3h-15.046v-3.1l9.573-11.448H176V2.62h14.047zm5.572 4.923v7.324c0 1.974.525 3.15 2.274 3.15 1.95 0 2.75-1.126 2.75-3.675V7.542h3.549v12.922h-3.374v-1.8h-.075c-.9 1.45-2.4 2.15-3.974 2.15-3.374 0-4.7-1.7-4.7-5.248V7.542h3.55zm1.674-4.949v2.925h-3.374V2.593h3.374zm5.149 0v2.925h-3.374V2.593h3.374zm13.02 4.725v3.299a6.095 6.095 0 0 0-1.274-.125c-2.575 0-3.5 1.774-3.5 4.15v5.822h-3.549V7.542h3.374v2.4h.05c.675-1.625 2.35-2.75 4.124-2.75.35 0 .6.076.775.126zm5.472-4.699v2.924h-3.55V2.62h3.55zm0 4.923v12.922h-3.55V7.542h3.55zm14.846 4.549h-3.475c-.224-1.474-1.1-2.224-2.624-2.224-2.15 0-3.024 2.1-3.024 4.199 0 2.124.875 4.074 2.949 4.074 1.574 0 2.574-.9 2.824-2.625h3.424c-.475 3.4-2.774 5.299-6.223 5.299-4.024 0-6.523-2.874-6.523-6.623 0-4.124 2.499-6.998 6.598-6.998 3.3 0 5.898 1.799 6.074 4.898zm5.696-9.472v6.723h.075a4.488 4.488 0 0 1 3.799-2.15c3.274 0 4.7 1.625 4.7 5.2v8.072h-3.55v-7.348c0-2.099-.625-3.124-2.274-3.124-2.175 0-2.75 1.424-2.75 3.699v6.773h-3.549V2.62h3.549zM83.007 38.994c-.303 0-.592.062-.854.173l-1.126-4.17 1.618-2.186c.245-.307 2.927-3.736 2.927-6.852 0-4.69-3.979-4.825-4.433-4.825-1.045 0-2.496.413-3.432 1.574-.888 1.1-1.135 2.595-.735 4.44.075.347 1.032 3.919 1.985 7.457L77.4 36.711l-3.53-13.439 7.951-5.885.019-.014a9.099 9.099 0 0 0 3.532-7.223 9.125 9.125 0 0 0-7.14-8.929V.406L76.715 0v1.02l-4.55-.26h-1.51v3.68h1.471a.797.797 0 0 1 0 1.592l-4.99-.546.414 1.572 4.409.485.043.003a2.316 2.316 0 0 0 2.438-2.31 2.317 2.317 0 0 0-2.267-2.314v-.641l4.542.26v4.28c0 .476-.184.912-.52 1.228-.334.316-.78.475-1.255.448l-5.095-.292.415 1.535-.028.017a11.39 11.39 0 0 0-3.45 3.426l-2-4.288a3.605 3.605 0 0 0-3.205-5.244 3.6 3.6 0 0 0-3.01 1.63l.353-4.198H26.653l.354 4.199a3.6 3.6 0 0 0-3.012-1.631 3.605 3.605 0 0 0-3.204 5.244l-2 4.288a11.404 11.404 0 0 0-3.45-3.426l-.03-.01.417-1.542-5.095.292a1.667 1.667 0 0 1-1.256-.448 1.668 1.668 0 0 1-.519-1.228v-4.28l4.543-.26v.641a2.317 2.317 0 0 0-2.268 2.314 2.316 2.316 0 0 0 2.439 2.31l4.452-.488.413-1.572-4.99.546a.797.797 0 0 1 0-1.593h1.471V.76h-1.466l-4.594.262V0L7.34.406v.815A9.125 9.125 0 0 0 .201 10.15a9.099 9.099 0 0 0 3.533 7.223l7.968 5.899-3.529 13.439-1.558-2.106c.953-3.538 1.91-7.11 1.986-7.457.4-1.845.152-3.34-.736-4.44-.936-1.16-2.387-1.574-3.432-1.574-.454 0-4.433.135-4.433 4.825 0 3.116 2.682 6.545 2.928 6.852l1.617 2.185c-.375 1.391-.76 2.82-1.126 4.17a2.193 2.193 0 1 0 1.267 2.57h.003c.14-.513.669-2.47 1.296-4.793l1.57 2.122-4.157 15.832-.008.032a3.627 3.627 0 0 0 3.535 4.423 3.622 3.622 0 1 0 2.734-6.001l3.745-5.957 7.353 10.43a3.63 3.63 0 0 0 2.956 1.528 3.628 3.628 0 0 0 3.624-3.623 3.628 3.628 0 0 0-3.845-3.617L18.46 37.915c-.482-1.316-1.571-2.188-2.988-2.393a4.106 4.106 0 0 0-.65-.04l3.432-7.36 4.48 3.316a3.588 3.588 0 0 0 2.879.698l1.273 13.115c.375 3.56 2.295 7.14 5.27 9.82 3.06 2.758 6.834 4.278 10.625 4.28h.01c3.791-.002 7.565-1.522 10.626-4.28 2.974-2.68 4.894-6.26 5.27-9.827l1.272-13.108a3.586 3.586 0 0 0 2.878-.697l4.48-3.317 3.433 7.36a4.108 4.108 0 0 0-.65.04c-1.417.205-2.506 1.078-2.992 2.403l-5.027 14.187a3.627 3.627 0 0 0-3.845 3.617 3.627 3.627 0 0 0 3.623 3.623 3.633 3.633 0 0 0 2.958-1.531l7.351-10.427 3.746 5.957a3.622 3.622 0 1 0 6.269 1.578l-4.166-15.864 1.57-2.122 1.296 4.794h.003a2.192 2.192 0 1 0 2.12-2.743zM5.174 32.658l-.732-.99-.026-.033c-.7-.866-2.519-3.575-2.519-5.676 0-2.643 1.774-2.928 2.536-2.928.58 0 1.439.227 1.956.868.51.632.63 1.59.358 2.847-.055.25-.728 2.77-1.573 5.912zM61.577 5.502a1.751 1.751 0 0 1 1.41 2.785l-.326.442 3.053 6.547a11.506 11.506 0 0 0-.742 3.38l-5.04-10.809a1.751 1.751 0 0 1 1.645-2.345zm-10.672 4.835h-4.403l.026-2.103h4.453l-.076 2.103zm-5.92 0h-4.397l-.026-2.103h4.448l-.026 2.103zm-5.915 0h-4.403l-.075-2.103h4.452l.026 2.103zm-5.921 0h-4.193l-.177-2.103h4.294l.076 2.103zm23.34 1.517l-.212 2.5H29.295l-.21-2.5h27.403zm.127-1.517h-4.192l.075-2.103h4.294l-.177 2.103zM54.215 2.6l-.129 2.707h1.52l.128-2.707h1.534l-.347 4.116h-4.367l.149-4.116h1.512zm-6.083 0l-.066 2.707h1.518L49.65 2.6h1.534l-.149 4.116h-4.488l.05-4.116h1.535zm-6.105 0v2.707h1.518V2.6h1.534l-.05 4.116h-4.486l-.05-4.116h1.534zm-6.104 0l.065 2.707h1.518L37.441 2.6h1.534l.05 4.116h-4.488L34.388 2.6h1.535zm-6.085 0l.129 2.707h1.52l-.13-2.707h1.513l.148 4.116h-4.367L28.304 2.6h1.534zm-2.544 6.082l.605 7.188h29.774l.606-7.188 6.52 13.982-3.252 2.406a3.613 3.613 0 0 0-.89-.118l.628-6.47H24.287l.628 6.47a3.612 3.612 0 0 0-.89.118l-3.251-2.406 6.52-13.982zm1.08 18.698h3.859l2.508 2.402h-6.372a3.623 3.623 0 0 0 .005-2.402zm-1.017-1.518a3.616 3.616 0 0 0-.482-.36l-.349-3.589 4.123 3.95h-3.292zM22.911 8.73l-.326-.442a1.751 1.751 0 0 1 1.41-2.784 1.751 1.751 0 0 1 1.646 2.344l-5.04 10.81a11.506 11.506 0 0 0-.743-3.38l3.053-6.548zm-7.71 28.67c.414.06 1.157.292 1.475 1.16l5.608 15.825.883-.294a1.728 1.728 0 0 1 2.273 1.638 1.728 1.728 0 0 1-3.134 1l-7.808-11.074.543-.864a3.509 3.509 0 0 0 .518-1.836 3.52 3.52 0 0 0-2.634-3.403l.845-1.812c.235-.244.805-.43 1.43-.34zm-4.505 2.444l1.068 1.52a1.64 1.64 0 0 1 .28-.027 1.62 1.62 0 0 1 1.386 2.453l-6.286 9.998.753.515a1.728 1.728 0 0 1-.973 3.153 1.728 1.728 0 0 1-1.687-2.094l8.107-30.873 3.354 2.482-6.002 12.873zm14.258-9.542c-.389 0-.756-.126-1.061-.365L4.89 15.87a7.213 7.213 0 0 1-2.792-5.72A7.232 7.232 0 0 1 7.34 3.179v3.642a3.172 3.172 0 0 0 3.38 3.191l1.43-.082c.269.092.594.206.674.238a9.917 9.917 0 0 1 6.286 9.263c0 .632-.06 1.257-.177 1.87l-3.964-2.933-.52 1.976 9.296 6.88.506-.227a1.742 1.742 0 0 1 1.365-.018 1.725 1.725 0 1 1-.662 3.321zm2.484 1h8.887l2.508 2.403H27.671l-.233-2.403zm.38 3.92h12.6l2.507 2.403H28.051l-.233-2.403zm.38 3.92H44.51l2.508 2.403H28.432l-.233-2.403zm.575 5.92l-.194-2h20.022l2.508 2.403H28.827c-.019-.135-.04-.269-.054-.404zm.373 1.92h23.548l2.507 2.403H30.095a12.867 12.867 0 0 1-.95-2.403zm13.64 10.474c-2.805-.001-5.57-.999-7.899-2.633h15.797c-2.328 1.634-5.093 2.632-7.898 2.633zm9.747-4.151H33.038a15.278 15.278 0 0 1-2.04-2.403h23.574a15.28 15.28 0 0 1-2.04 2.403zm4.266-8.251a11.828 11.828 0 0 1-.604 2.656L27.667 20.38h31.528l-.497 5.124a3.612 3.612 0 0 0-1.703 3.072c0 1.013.421 1.965 1.148 2.644l-1.344 13.834zm4.9-15.132l-.02.015a1.708 1.708 0 0 1-1.061.365 1.725 1.725 0 0 1-1.726-1.726 1.725 1.725 0 0 1 2.43-1.578l.506.227 9.294-6.88-.518-1.976-3.965 2.934a10.02 10.02 0 0 1-.176-1.87 9.916 9.916 0 0 1 6.285-9.264c.08-.032.406-.146.674-.238l1.43.082a3.162 3.162 0 0 0 2.384-.86 3.172 3.172 0 0 0 .996-2.33V3.178a7.232 7.232 0 0 1 5.242 6.97 7.214 7.214 0 0 1-2.792 5.72L61.7 29.922zm1.57 26.805a1.728 1.728 0 0 1-3.136-.997 1.728 1.728 0 0 1 2.272-1.639l.883.294 5.605-15.816c.322-.877 1.065-1.108 1.479-1.168.625-.09 1.194.095 1.43.34l.845 1.81a3.521 3.521 0 0 0-2.634 3.404c0 .65.18 1.284.523 1.845l.538.855-7.806 11.072zm17.066-1.365a1.728 1.728 0 0 1-1.687 2.094 1.728 1.728 0 0 1-.973-3.153l.754-.515-6.281-9.989a1.62 1.62 0 0 1 1.38-2.462c.095 0 .188.01.28.027l1.068-1.52-6.002-12.873 3.354-2.482 8.107 30.873zm-1.51-28.614c-.272-1.258-.151-2.216.358-2.848.518-.641 1.377-.868 1.956-.868.763 0 2.536.285 2.536 2.928 0 2.522-2.494 5.646-2.52 5.676l-.757 1.023c-.845-3.142-1.518-5.662-1.572-5.911z"/></svg>