<svg xmlns="http://www.w3.org/2000/svg" viewBox="0 0 335.9135132 76.570755"><title>Logo Stadt Zürich</title><style>.st0{fill:#0f05a0}</style><path class="st0" d="M83.007 38.994c-.303 0-.592.062-.854.173l-1.126-4.17 1.618-2.186c.245-.307 2.927-3.736 2.927-6.852 0-4.69-3.979-4.825-4.433-4.825-1.045 0-2.496.413-3.432 1.574-.888 1.1-1.135 2.595-.735 4.44.075.347 1.032 3.919 1.985 7.457L77.4 36.711l-3.53-13.439 7.951-5.885.019-.014a9.099 9.099 0 0 0 3.532-7.223 9.125 9.125 0 0 0-7.14-8.929V.406L76.715 0v1.02l-4.55-.26h-1.51v3.68h1.471a.797.797 0 0 1 0 1.592l-4.99-.546.414 1.572 4.409.485.043.003a2.316 2.316 0 0 0 2.438-2.31 2.317 2.317 0 0 0-2.267-2.314v-.641l4.542.26v4.28c0 .476-.184.912-.52 1.228-.334.316-.78.475-1.255.448l-5.095-.292.415 1.535-.028.017a11.39 11.39 0 0 0-3.45 3.426l-2-4.288a3.605 3.605 0 0 0-3.205-5.244 3.6 3.6 0 0 0-3.01 1.63l.353-4.198H26.653l.354 4.199a3.6 3.6 0 0 0-3.012-1.631 3.605 3.605 0 0 0-3.204 5.244l-2 4.288a11.404 11.404 0 0 0-3.45-3.426l-.03-.01.417-1.542-5.095.292a1.667 1.667 0 0 1-1.256-.448 1.668 1.668 0 0 1-.519-1.228v-4.28l4.543-.26v.641a2.317 2.317 0 0 0-2.268 2.314 2.316 2.316 0 0 0 2.439 2.31l4.452-.488.413-1.572-4.99.546a.797.797 0 0 1 0-1.593h1.471V.76h-1.466l-4.594.262V0L7.34.406v.815A9.125 9.125 0 0 0 .201 10.15a9.099 9.099 0 0 0 3.533 7.223l7.968 5.899-3.529 13.439-1.558-2.106c.953-3.538 1.91-7.11 1.986-7.457.4-1.845.152-3.34-.736-4.44-.936-1.16-2.387-1.574-3.432-1.574-.454 0-4.433.135-4.433 4.825 0 3.116 2.682 6.545 2.928 6.852l1.617 2.185c-.375 1.391-.76 2.82-1.126 4.17a2.193 2.193 0 1 0 1.267 2.57h.003c.14-.513.669-2.47 1.296-4.793l1.57 2.122-4.157 15.832-.008.032a3.627 3.627 0 0 0 3.535 4.423 3.622 3.622 0 1 0 2.734-6.001l3.745-5.957 7.353 10.43a3.63 3.63 0 0 0 2.956 1.528 3.628 3.628 0 0 0 3.624-3.623 3.628 3.628 0 0 0-3.845-3.617L18.46 37.915c-.482-1.316-1.571-2.188-2.988-2.393a4.106 4.106 0 0 0-.65-.04l3.432-7.36 4.48 3.316a3.588 3.588 0 0 0 2.879.698l1.273 13.115c.375 3.56 2.295 7.14 5.27 9.82 3.06 2.758 6.834 4.278 10.625 4.28h.01c3.791-.002 7.565-1.522 10.626-4.28 2.974-2.68 4.894-6.26 5.27-9.827l1.272-13.108a3.586 3.586 0 0 0 2.878-.697l4.48-3.317 3.433 7.36a4.108 4.108 0 0 0-.65.04c-1.417.205-2.506 1.078-2.992 2.403l-5.027 14.187a3.627 3.627 0 0 0-3.845 3.617 3.627 3.627 0 0 0 3.623 3.623 3.633 3.633 0 0 0 2.958-1.531l7.351-10.427 3.746 5.957a3.622 3.622 0 1 0 6.269 1.578l-4.166-15.864 1.57-2.122 1.296 4.794h.003a2.192 2.192 0 1 0 2.12-2.743zM5.174 32.658l-.732-.99-.026-.033c-.7-.866-2.519-3.575-2.519-5.676 0-2.643 1.774-2.928 2.536-2.928.58 0 1.439.227 1.956.868.51.632.63 1.59.358 2.847-.055.25-.728 2.77-1.573 5.912zM61.577 5.502a1.751 1.751 0 0 1 1.41 2.785l-.326.442 3.053 6.547a11.506 11.506 0 0 0-.742 3.38l-5.04-10.809a1.751 1.751 0 0 1 1.645-2.345zm-10.672 4.835h-4.403l.026-2.103h4.453l-.076 2.103zm-5.92 0h-4.397l-.026-2.103h4.448l-.026 2.103zm-5.915 0h-4.403l-.075-2.103h4.452l.026 2.103zm-5.921 0h-4.193l-.177-2.103h4.294l.076 2.103zm23.34 1.517l-.212 2.5H29.295l-.21-2.5h27.403zm.127-1.517h-4.192l.075-2.103h4.294l-.177 2.103zM54.215 2.6l-.129 2.707h1.52l.128-2.707h1.534l-.347 4.116h-4.367l.149-4.116h1.512zm-6.083 0l-.066 2.707h1.518L49.65 2.6h1.534l-.149 4.116h-4.488l.05-4.116h1.535zm-6.105 0v2.707h1.518V2.6h1.534l-.05 4.116h-4.486l-.05-4.116h1.534zm-6.104 0l.065 2.707h1.518L37.441 2.6h1.534l.05 4.116h-4.488L34.388 2.6h1.535zm-6.085 0l.129 2.707h1.52l-.13-2.707h1.513l.148 4.116h-4.367L28.304 2.6h1.534zm-2.544 6.082l.605 7.188h29.774l.606-7.188 6.52 13.982-3.252 2.406a3.613 3.613 0 0 0-.89-.118l.628-6.47H24.287l.628 6.47a3.612 3.612 0 0 0-.89.118l-3.251-2.406 6.52-13.982zm1.08 18.698h3.859l2.508 2.402h-6.372a3.623 3.623 0 0 0 .005-2.402zm-1.017-1.518a3.616 3.616 0 0 0-.482-.36l-.349-3.589 4.123 3.95h-3.292zM22.911 8.73l-.326-.442a1.751 1.751 0 0 1 1.41-2.784 1.751 1.751 0 0 1 1.646 2.344l-5.04 10.81a11.506 11.506 0 0 0-.743-3.38l3.053-6.548zm-7.71 28.67c.414.06 1.157.292 1.475 1.16l5.608 15.825.883-.294a1.728 1.728 0 0 1 2.273 1.638 1.728 1.728 0 0 1-3.134 1l-7.808-11.074.543-.864a3.509 3.509 0 0 0 .518-1.836 3.52 3.52 0 0 0-2.634-3.403l.845-1.812c.235-.244.805-.43 1.43-.34zm-4.505 2.444l1.068 1.52a1.64 1.64 0 0 1 .28-.027 1.62 1.62 0 0 1 1.386 2.453l-6.286 9.998.753.515a1.728 1.728 0 0 1-.973 3.153 1.728 1.728 0 0 1-1.687-2.094l8.107-30.873 3.354 2.482-6.002 12.873zm14.258-9.542c-.389 0-.756-.126-1.061-.365L4.89 15.87a7.213 7.213 0 0 1-2.792-5.72A7.232 7.232 0 0 1 7.34 3.179v3.642a3.172 3.172 0 0 0 3.38 3.191l1.43-.082c.269.092.594.206.674.238a9.917 9.917 0 0 1 6.286 9.263c0 .632-.06 1.257-.177 1.87l-3.964-2.933-.52 1.976 9.296 6.88.506-.227a1.742 1.742 0 0 1 1.365-.018 1.725 1.725 0 1 1-.662 3.321zm2.484 1h8.887l2.508 2.403H27.671l-.233-2.403zm.38 3.92h12.6l2.507 2.403H28.051l-.233-2.403zm.38 3.92H44.51l2.508 2.403H28.432l-.233-2.403zm.575 5.92l-.194-2h20.022l2.508 2.403H28.827c-.019-.135-.04-.269-.054-.404zm.373 1.92h23.548l2.507 2.403H30.095a12.867 12.867 0 0 1-.95-2.403zm13.64 10.474c-2.805-.001-5.57-.999-7.899-2.633h15.797c-2.328 1.634-5.093 2.632-7.898 2.633zm9.747-4.151H33.038a15.278 15.278 0 0 1-2.04-2.403h23.574a15.28 15.28 0 0 1-2.04 2.403zm4.266-8.251a11.828 11.828 0 0 1-.604 2.656L27.667 20.38h31.528l-.497 5.124a3.612 3.612 0 0 0-1.703 3.072c0 1.013.421 1.965 1.148 2.644l-1.344 13.834zm4.9-15.132l-.02.015a1.708 1.708 0 0 1-1.061.365 1.725 1.725 0 0 1-1.726-1.726 1.725 1.725 0 0 1 2.43-1.578l.506.227 9.294-6.88-.518-1.976-3.965 2.934a10.02 10.02 0 0 1-.176-1.87 9.916 9.916 0 0 1 6.285-9.264c.08-.032.406-.146.674-.238l1.43.082a3.162 3.162 0 0 0 2.384-.86 3.172 3.172 0 0 0 .996-2.33V3.178a7.232 7.232 0 0 1 5.242 6.97 7.214 7.214 0 0 1-2.792 5.72L61.7 29.922zm1.57 26.805a1.728 1.728 0 0 1-3.136-.997 1.728 1.728 0 0 1 2.272-1.639l.883.294 5.605-15.816c.322-.877 1.065-1.108 1.479-1.168.625-.09 1.194.095 1.43.34l.845 1.81a3.521 3.521 0 0 0-2.634 3.404c0 .65.18 1.284.523 1.845l.538.855-7.806 11.072zm17.066-1.365a1.728 1.728 0 0 1-1.687 2.094 1.728 1.728 0 0 1-.973-3.153l.754-.515-6.281-9.989a1.62 1.62 0 0 1 1.38-2.462c.095 0 .188.01.28.027l1.068-1.52-6.002-12.873 3.354-2.482 8.107 30.873zm-1.51-28.614c-.272-1.258-.151-2.216.358-2.848.518-.641 1.377-.868 1.956-.868.763 0 2.536.285 2.536 2.928 0 2.522-2.494 5.646-2.52 5.676l-.757 1.023c-.845-3.142-1.518-5.662-1.572-5.911z" id="Bildmarke"/><path class="st0" d="M112.2 2.196c2.183 0 3.92.5 5.212 1.5 1.29.999 1.936 2.416 1.936 4.248h-3.799c-.05-.9-.354-1.574-.912-2.025-.558-.449-1.42-.674-2.587-.674-.816 0-1.473.18-1.973.538s-.75.853-.75 1.486c0 .517.154.892.462 1.125.308.233.746.441 1.312.625.566.183 1.558.45 2.974.799 1.483.367 2.624.766 3.423 1.2s1.409.987 1.825 1.662c.417.675.625 1.503.625 2.486 0 1.133-.3 2.141-.9 3.024-.6.884-1.474 1.554-2.624 2.012s-2.449.687-3.898.687c-2.216 0-4.036-.554-5.461-1.662-1.424-1.107-2.137-2.628-2.137-4.56v-.126h3.799c0 1.05.358 1.863 1.074 2.437.717.575 1.666.862 2.85.862 1.049 0 1.894-.187 2.536-.562s.962-.929.962-1.662c0-.483-.175-.89-.525-1.224-.35-.334-.816-.604-1.399-.812-.584-.208-1.566-.471-2.95-.788-1.599-.4-2.765-.825-3.498-1.274-.733-.45-1.291-.996-1.674-1.638-.384-.64-.575-1.41-.575-2.311 0-1.115.321-2.091.963-2.924.64-.833 1.477-1.45 2.51-1.849 1.034-.4 2.1-.6 3.2-.6zm14.17 1.474v3.874h2.6v2.374h-2.6v6.398c0 .6.1 1 .3 1.2.2.2.599.299 1.2.299.432 0 .8-.033 1.1-.1v2.775c-.5.083-1.201.125-2.1.125-1.367 0-2.383-.234-3.05-.7-.666-.466-1-1.275-1-2.424V9.918h-2.148V7.544h2.149V3.67h3.549zm10.696 3.524c3.765.017 5.648 1.242 5.648 3.674v6.847c0 1.267.15 2.183.45 2.75h-3.6a5.208 5.208 0 0 1-.248-1.25c-1.05 1.066-2.5 1.599-4.349 1.599-1.35 0-2.42-.342-3.212-1.024-.79-.683-1.186-1.633-1.186-2.85 0-1.182.375-2.099 1.124-2.748.766-.684 2.158-1.116 4.174-1.3 1.432-.15 2.34-.337 2.723-.562.384-.225.575-.57.575-1.038 0-.583-.174-1.015-.524-1.298-.35-.284-.934-.425-1.75-.425-.749 0-1.316.153-1.7.462-.383.308-.608.803-.674 1.487h-3.549c.084-1.416.666-2.491 1.75-3.225 1.082-.732 2.532-1.1 4.348-1.1zm-2.948 9.596c0 1.1.724 1.65 2.173 1.65 1.9-.017 2.858-.991 2.874-2.924v-1.374c-.283.283-1 .491-2.149.624-.999.117-1.732.321-2.2.612-.466.292-.698.763-.698 1.412zm23.89-14.17v17.844h-3.373v-1.65h-.05c-.766 1.334-2.074 2-3.923 2-1.784 0-3.196-.65-4.237-1.95-1.04-1.298-1.561-2.956-1.561-4.972 0-1.966.528-3.574 1.587-4.823 1.057-1.25 2.436-1.875 4.135-1.875.784 0 1.52.163 2.212.487a3.654 3.654 0 0 1 1.612 1.438h.05V2.62h3.548zm-9.595 11.372c0 1.183.278 2.17.836 2.962.558.79 1.32 1.186 2.288 1.186 1.015 0 1.777-.37 2.286-1.112.508-.741.762-1.762.762-3.062 0-1.299-.266-2.306-.8-3.023-.533-.716-1.291-1.074-2.274-1.074-1.016 0-1.787.374-2.311 1.124-.526.75-.787 1.75-.787 2.999zM165.48 3.67v3.874h2.6v2.374h-2.6v6.398c0 .6.101 1 .3 1.2.2.2.6.299 1.2.299.434 0 .8-.033 1.1-.1v2.775c-.5.083-1.2.125-2.1.125-1.365 0-2.382-.234-3.048-.7-.667-.466-1-1.275-1-2.424V9.918h-2.148V7.544h2.148V3.67h3.549zm24.566-1.05v3.1l-9.571 11.445h9.821v3.3h-15.044v-3.1l9.572-11.446H176V2.621h14.045zm5.574 4.924v7.323c0 .999.159 1.774.475 2.324s.916.824 1.799.824c.983 0 1.687-.29 2.112-.875.425-.583.637-1.516.637-2.799V7.544h3.549v12.92h-3.373v-1.8h-.075c-.884 1.434-2.208 2.15-3.974 2.15-1.683 0-2.887-.429-3.611-1.287-.725-.858-1.087-2.178-1.087-3.961V7.544h3.549zm1.674-4.948V5.52h-3.373V2.596h3.373zm5.149 0V5.52h-3.374V2.596h3.374zm12.245 4.598c.3 0 .559.042.775.125v3.299a6.04 6.04 0 0 0-1.275-.125c-2.332 0-3.498 1.383-3.498 4.148v5.823h-3.549V7.544h3.374v2.399h.05a4.374 4.374 0 0 1 1.662-2c.758-.5 1.578-.75 2.46-.75zm6.248-4.574v2.924h-3.549V2.621h3.549zm0 4.924v12.92h-3.549V7.544h3.549zm8.77-.35c1.75 0 3.174.446 4.274 1.338 1.1.89 1.7 2.078 1.8 3.56h-3.474c-.233-1.482-1.108-2.223-2.624-2.223-.934 0-1.67.382-2.212 1.149-.542.767-.812 1.783-.812 3.049 0 1.216.258 2.2.775 2.95.516.748 1.24 1.123 2.174 1.123 1.616 0 2.557-.875 2.824-2.624h3.424c-.234 1.716-.897 3.028-1.987 3.937s-2.503 1.36-4.236 1.36c-1.917 0-3.482-.611-4.698-1.836-1.217-1.225-1.825-2.82-1.825-4.785 0-2.133.6-3.832 1.8-5.099 1.199-1.265 2.798-1.9 4.797-1.9zm11.772-4.574v6.723h.075c.4-.666.94-1.19 1.624-1.574a4.378 4.378 0 0 1 2.174-.575c1.65 0 2.845.417 3.587 1.25.74.833 1.111 2.15 1.111 3.948v8.072H246.5v-7.347c0-1.05-.17-1.832-.511-2.349-.342-.517-.929-.774-1.762-.774-.95 0-1.646.287-2.087.86-.441.576-.662 1.521-.662 2.838v6.772h-3.549V2.621h3.549z" id="Stadt_Zürich"/><path class="st0" d="M111.746 33.182c2.677 0 4.739.706 6.185 2.12 1.445 1.412 2.169 3.516 2.169 6.309 0 6.181-2.785 9.271-8.354 9.271h-6.223v-17.7h6.223zm.124 15.717c1.867 0 3.313-.608 4.337-1.822 1.026-1.215 1.538-2.93 1.538-5.144 0-2.347-.488-4.061-1.462-5.144-.976-1.083-2.414-1.624-4.315-1.624h-4.09v13.734h3.992zm16.205-11.131c1.817 0 3.238.653 4.263 1.958 1.025 1.307 1.537 3.017 1.537 5.132v.248h-9.593v.148c0 1.24.354 2.228 1.065 2.963s1.686 1.104 2.926 1.104c1.834 0 2.941-.835 3.321-2.504h2.083c-.281 1.437-.901 2.524-1.86 3.26-.958.735-2.164 1.103-3.618 1.103-2.017 0-3.546-.661-4.587-1.983s-1.562-2.926-1.562-4.81c0-1.9.57-3.478 1.711-4.735 1.14-1.256 2.578-1.884 4.314-1.884zm3.569 5.479c-.066-1.041-.442-1.905-1.128-2.591-.685-.686-1.549-1.029-2.59-1.029-.975 0-1.803.327-2.48.98-.677.652-1.066 1.533-1.164 2.64h7.362zm10.834-5.479c1.818 0 3.256.616 4.313 1.847 1.058 1.231 1.587 2.863 1.587 4.896 0 2-.533 3.612-1.6 4.834-1.065 1.224-2.482 1.835-4.25 1.835-.794 0-1.57-.161-2.33-.483a3.926 3.926 0 0 1-1.81-1.526h-.05v6.62h-2.107V38.065h2.107V39.8h.05c.677-1.355 2.04-2.033 4.09-2.033zm-4.215 6.693c0 1.488.352 2.67 1.054 3.545.703.876 1.698 1.315 2.987 1.315 1.224 0 2.17-.435 2.839-1.302.669-.868 1.004-2.086 1.004-3.656 0-1.406-.36-2.545-1.078-3.422-.719-.876-1.69-1.314-2.913-1.314-1.19 0-2.136.43-2.84 1.29-.701.859-1.053 2.04-1.053 3.544zm17.789-6.693c3.19 0 4.785 1.148 4.785 3.446v7.388c0 .48.223.719.67.719.214 0 .429-.041.644-.124v1.635c-.413.232-.917.348-1.512.348-1.19 0-1.785-.661-1.785-1.983-1.124 1.322-2.628 1.983-4.512 1.983-1.322 0-2.36-.31-3.111-.93-.752-.62-1.128-1.508-1.128-2.665 0-1.14.372-2.05 1.115-2.727.744-.677 2.47-1.19 5.182-1.537.925-.115 1.549-.293 1.87-.532.324-.24.485-.591.485-1.054 0-1.405-.95-2.108-2.851-2.108-1.041 0-1.823.195-2.343.582-.52.39-.806 1.005-.855 1.848h-2.107c.165-2.86 1.982-4.289 5.453-4.289zm-3.718 9.668c0 .596.214 1.059.645 1.389.43.33 1.041.496 1.834.496 1.14 0 2.078-.281 2.813-.843.736-.563 1.104-1.231 1.104-2.009v-2.206c-.38.265-.876.439-1.487.52l-2.158.323c-.941.133-1.635.385-2.082.756-.446.372-.669.897-.669 1.574zm18.542-9.668v2.231c-1.586 0-2.755.417-3.507 1.252-.752.834-1.128 2.136-1.128 3.905v5.726h-2.107V38.066h1.983v2.702h.05c.975-2 2.446-3 4.413-3h.296zm5.301-3.545v3.843h2.554v1.858h-2.554v8.032c0 .381.074.654.224.819.148.166.52.248 1.115.248h1.215v1.86h-1.735c-1.091 0-1.852-.182-2.282-.546-.43-.364-.644-1.074-.644-2.132v-8.28h-2.182v-1.86h2.182v-3.842h2.107zm9.698 3.545c1.818 0 3.239.653 4.264 1.958 1.025 1.307 1.537 3.017 1.537 5.132v.248h-9.594v.148c0 1.24.355 2.228 1.066 2.963s1.685 1.104 2.926 1.104c1.834 0 2.941-.835 3.321-2.504h2.083c-.281 1.437-.901 2.524-1.86 3.26-.958.735-2.164 1.103-3.619 1.103-2.016 0-3.545-.661-4.586-1.983s-1.562-2.926-1.562-4.81c0-1.9.57-3.478 1.711-4.735 1.14-1.256 2.578-1.884 4.313-1.884zm3.57 5.479c-.067-1.041-.443-1.905-1.128-2.591-.686-.686-1.549-1.029-2.591-1.029-.975 0-1.802.327-2.479.98-.677.652-1.066 1.533-1.165 2.64h7.363zm10.717-5.479c1.867 0 3.04.728 3.52 2.182a4.463 4.463 0 0 1 1.697-1.612c.703-.38 1.484-.57 2.343-.57 1.454 0 2.525.326 3.211.98.686.652 1.028 1.54 1.028 2.665v9.47h-2.106v-8.504c0-.925-.195-1.615-.583-2.07-.389-.454-1.02-.682-1.897-.682-.99 0-1.796.294-2.417.88-.62.587-.93 1.36-.93 2.319v8.056h-2.107V42.38c0-.925-.19-1.615-.57-2.07-.38-.454-.991-.682-1.834-.682-.612 0-1.165.141-1.661.421-.496.282-.913.707-1.252 1.278s-.509 1.078-.509 1.524v8.032h-2.106V38.066h1.983v1.884h.049c.959-1.454 2.339-2.182 4.14-2.182zm20.256 0c1.818 0 3.239.653 4.264 1.958 1.024 1.307 1.537 3.017 1.537 5.132v.248h-9.594v.148c0 1.24.355 2.228 1.066 2.963s1.685 1.104 2.926 1.104c1.834 0 2.941-.835 3.32-2.504h2.084c-.281 1.437-.901 2.524-1.86 3.26-.958.735-2.164 1.103-3.619 1.103-2.016 0-3.545-.661-4.586-1.983s-1.562-2.926-1.562-4.81c0-1.9.57-3.478 1.71-4.735 1.14-1.256 2.579-1.884 4.314-1.884zm3.57 5.479c-.067-1.041-.443-1.905-1.128-2.591-.686-.686-1.549-1.029-2.591-1.029-.975 0-1.802.327-2.479.98-.677.652-1.066 1.533-1.165 2.64h7.363zm10.742-5.479c2.941 0 4.413 1.53 4.413 4.586v8.528h-2.107v-8.75c0-.712-.223-1.306-.67-1.786s-1.099-.719-1.958-.719c-1.206 0-2.136.364-2.79 1.091s-.979 1.678-.979 2.85v7.314h-2.106V38.066h1.983v2.032h.049c.926-1.553 2.314-2.33 4.165-2.33zm10.337-3.545v3.843h2.554v1.858h-2.554v8.032c0 .381.074.654.223.819.149.166.521.248 1.116.248h1.215v1.86h-1.736c-1.09 0-1.851-.182-2.281-.546-.43-.364-.645-1.074-.645-2.132v-8.28h-2.181v-1.86h2.181v-3.842h2.108zm22.448-1.041v17.7h-2.107v-1.735h-.05c-.33.661-.855 1.165-1.574 1.513-.72.346-1.558.52-2.516.52-1.769 0-3.194-.62-4.276-1.86-1.083-1.24-1.624-2.866-1.624-4.883s.524-3.632 1.574-4.847c1.049-1.215 2.467-1.822 4.252-1.822.843 0 1.648.174 2.417.52s1.35.843 1.747 1.488h.05v-6.594h2.107zM257.6 44.585c0 1.406.363 2.545 1.09 3.421.727.876 1.686 1.315 2.876 1.315 1.207 0 2.161-.443 2.863-1.326.703-.885 1.054-2.054 1.054-3.51 0-1.453-.35-2.626-1.054-3.519-.702-.892-1.706-1.339-3.012-1.339-1.223 0-2.165.443-2.826 1.327-.66.884-.99 2.094-.99 3.631zm18.435-6.817c1.817 0 3.238.653 4.263 1.958 1.025 1.307 1.537 3.017 1.537 5.132v.248h-9.593v.148c0 1.24.354 2.228 1.065 2.963s1.686 1.104 2.926 1.104c1.834 0 2.941-.835 3.321-2.504h2.083c-.281 1.437-.901 2.524-1.86 3.26-.958.735-2.164 1.103-3.618 1.103-2.017 0-3.546-.661-4.587-1.983s-1.562-2.926-1.562-4.81c0-1.9.57-3.478 1.711-4.735 1.14-1.256 2.578-1.884 4.314-1.884zm3.569 5.479c-.066-1.041-.442-1.905-1.128-2.591-.686-.686-1.549-1.029-2.59-1.029-.975 0-1.803.327-2.48.98-.677.652-1.066 1.533-1.164 2.64h7.362zm11.253-5.479v2.231c-1.586 0-2.756.417-3.508 1.252-.752.834-1.128 2.136-1.128 3.905v5.726h-2.106V38.066h1.982v2.702h.05c.975-2 2.446-3 4.413-3h.297zm-182.88 20.805v17.7h-2.355v-17.7h2.355zm9.683 4.586c2.942 0 4.414 1.529 4.414 4.586v8.528h-2.108v-8.751c0-.711-.222-1.306-.669-1.785s-1.1-.719-1.959-.719c-1.206 0-2.135.363-2.789 1.09s-.98 1.679-.98 2.851v7.314h-2.106V63.456h1.984v2.033h.049c.925-1.553 2.314-2.33 4.165-2.33zm19.02-4.586v17.7h-2.107v-1.735h-.05c-.33.66-.855 1.165-1.574 1.512-.72.347-1.558.52-2.516.52-1.769 0-3.194-.62-4.276-1.859-1.083-1.24-1.624-2.867-1.624-4.883s.524-3.632 1.574-4.847c1.049-1.215 2.467-1.822 4.252-1.822.843 0 1.648.173 2.417.52s1.35.843 1.747 1.487h.05v-6.593h2.107zm-9.916 11.403c0 1.405.363 2.545 1.09 3.42.727.877 1.686 1.315 2.876 1.315 1.207 0 2.161-.442 2.863-1.326.703-.885 1.054-2.054 1.054-3.509 0-1.454-.35-2.627-1.054-3.52-.702-.892-1.706-1.338-3.012-1.338-1.223 0-2.165.442-2.826 1.326-.66.885-.99 2.095-.99 3.632zm15.162-6.52v8.726c0 .744.232 1.352.695 1.822.462.472 1.1.707 1.909.707 1.239 0 2.181-.363 2.826-1.09s.967-1.678.967-2.852v-7.313h2.107v12.817h-1.983V74.24h-.05c-.876 1.553-2.265 2.33-4.165 2.33-2.942 0-4.412-1.52-4.412-4.56v-8.554h2.106zm15.984-.297c1.735 0 3.02.335 3.855 1.004.834.668 1.293 1.673 1.375 3.011h-2.106v-.024c-.067-.694-.369-1.223-.906-1.587-.537-.363-1.227-.545-2.07-.545s-1.508.14-1.995.42c-.488.282-.732.687-.732 1.216 0 .48.215.864.645 1.153s1.082.533 1.958.732l1.983.446c1.24.281 2.182.698 2.827 1.252s.966 1.317.966 2.293c0 1.272-.487 2.264-1.462 2.974-.975.711-2.305 1.067-3.992 1.067-1.635 0-2.933-.36-3.891-1.08-.96-.718-1.472-1.804-1.537-3.26h2.107c.032.794.347 1.406.941 1.836.596.43 1.43.644 2.504.644 2.067 0 3.1-.636 3.1-1.909 0-.561-.253-1.008-.757-1.339-.504-.33-1.582-.669-3.235-1.016-1.57-.314-2.694-.752-3.371-1.314s-1.017-1.339-1.017-2.33c0-1.09.434-1.972 1.302-2.64.867-.67 2.037-1.004 3.508-1.004zm11.006-3.545v3.842h2.554v1.859h-2.554v8.032c0 .381.075.653.224.818.149.166.52.249 1.115.249h1.215v1.859h-1.735c-1.091 0-1.852-.182-2.281-.545-.43-.364-.645-1.074-.645-2.133v-8.28h-2.182v-1.859h2.182v-3.842h2.107zm11.425 3.545v2.231c-1.586 0-2.756.417-3.508 1.252-.752.834-1.127 2.136-1.127 3.904v5.727h-2.107V63.456h1.982v2.703h.05c.976-2 2.447-3 4.413-3h.297zm3.917-4.586v2.578h-2.106v-2.578h2.106zm0 4.883v12.817h-2.106V63.456h2.106zm8.572-.297c1.818 0 3.239.653 4.264 1.958 1.025 1.306 1.537 3.016 1.537 5.131v.249h-9.593v.148c0 1.24.354 2.228 1.065 2.963s1.686 1.103 2.926 1.103c1.834 0 2.941-.835 3.321-2.504h2.083c-.281 1.438-.901 2.525-1.86 3.26-.958.736-2.164 1.104-3.618 1.104-2.017 0-3.546-.661-4.587-1.984s-1.562-2.925-1.562-4.81c0-1.9.57-3.478 1.711-4.735 1.14-1.255 2.578-1.883 4.314-1.883zm3.57 5.478c-.067-1.04-.443-1.904-1.128-2.59-.686-.686-1.549-1.029-2.59-1.029-.976 0-1.803.326-2.48.98-.677.652-1.066 1.533-1.164 2.64h7.362zm6.743-10.064v17.7h-2.106v-17.7h2.106zm5.347 0v17.7h-2.107v-17.7h2.107zm8.573 4.586c1.817 0 3.238.653 4.264 1.958 1.024 1.306 1.537 3.016 1.537 5.131v.249h-9.594v.148c0 1.24.354 2.228 1.065 2.963s1.686 1.103 2.926 1.103c1.834 0 2.942-.835 3.321-2.504h2.083c-.28 1.438-.9 2.525-1.859 3.26-.959.736-2.165 1.104-3.619 1.104-2.017 0-3.546-.661-4.587-1.984s-1.561-2.925-1.561-4.81c0-1.9.57-3.478 1.71-4.735 1.14-1.255 2.579-1.883 4.314-1.883zm3.57 5.478c-.067-1.04-.443-1.904-1.129-2.59-.685-.686-1.548-1.029-2.59-1.029-.975 0-1.802.326-2.479.98-.678.652-1.066 1.533-1.165 2.64h7.362zm10.74-5.478c2.942 0 4.414 1.529 4.414 4.586v8.528h-2.108v-8.751c0-.711-.223-1.306-.669-1.785s-1.1-.719-1.959-.719c-1.206 0-2.136.363-2.789 1.09s-.98 1.679-.98 2.851v7.314h-2.106V63.456h1.984v2.033h.048c.926-1.553 2.315-2.33 4.165-2.33zm21.606-4.586c2.182 0 3.66.446 4.437 1.338.777.892 1.173 1.892 1.19 3 0 .942-.228 1.755-.682 2.442-.454.686-1.102 1.193-1.946 1.524v.05c1.09.232 1.926.727 2.504 1.488.579.76.868 1.685.868 2.776 0 1.454-.509 2.665-1.524 3.632-1.017.967-2.269 1.45-3.756 1.45h-8.653v-17.7h7.562zm-.372 7.61c1.19 0 2.095-.219 2.715-.657.619-.438.93-1.16.93-2.17 0-.925-.261-1.623-.782-2.094s-1.467-.707-2.839-.707h-4.858v5.628h4.834zm1.165 8.107c.958 0 1.735-.28 2.33-.843.596-.562.893-1.34.893-2.33 0-1.967-1.314-2.95-3.942-2.95h-5.28v6.123h5.999zm13.591-11.131c1.817 0 3.238.653 4.263 1.958 1.025 1.306 1.538 3.016 1.538 5.131v.249h-9.594v.148c0 1.24.354 2.228 1.065 2.963s1.686 1.103 2.926 1.103c1.834 0 2.941-.835 3.321-2.504h2.083c-.281 1.438-.901 2.525-1.86 3.26-.958.736-2.164 1.104-3.618 1.104-2.017 0-3.546-.661-4.587-1.984s-1.562-2.925-1.562-4.81c0-1.9.57-3.478 1.711-4.735 1.14-1.255 2.578-1.883 4.314-1.883zm3.57 5.478c-.067-1.04-.443-1.904-1.129-2.59-.685-.686-1.549-1.029-2.59-1.029-.975 0-1.802.326-2.48.98-.677.652-1.066 1.533-1.164 2.64h7.362zm7.225-9.023v3.842h2.553v1.859h-2.553v8.032c0 .381.074.653.223.818.149.166.52.249 1.116.249h1.214v1.859h-1.735c-1.09 0-1.852-.182-2.281-.545-.43-.364-.645-1.074-.645-2.133v-8.28h-2.181v-1.859h2.181v-3.842h2.108zm11.425 3.545v2.231c-1.586 0-2.755.417-3.507 1.252-.752.834-1.128 2.136-1.128 3.904v5.727h-2.107V63.456h1.983v2.703h.05c.975-2 2.446-3 4.413-3h.296zm3.845-4.586v2.578h-2.106v-2.578h2.106zm0 4.883v12.817h-2.106V63.456h2.106zm8.572-.297c1.818 0 3.239.653 4.264 1.958 1.025 1.306 1.537 3.016 1.537 5.131v.249h-9.594v.148c0 1.24.355 2.228 1.066 2.963s1.685 1.103 2.926 1.103c1.834 0 2.941-.835 3.321-2.504h2.083c-.281 1.438-.901 2.525-1.86 3.26-.958.736-2.164 1.104-3.619 1.104-2.016 0-3.545-.661-4.586-1.984s-1.562-2.925-1.562-4.81c0-1.9.57-3.478 1.711-4.735 1.14-1.255 2.578-1.883 4.313-1.883zm3.57 5.478c-.067-1.04-.443-1.904-1.128-2.59-.686-.686-1.549-1.029-2.591-1.029-.975 0-1.802.326-2.479.98-.677.652-1.066 1.533-1.165 2.64h7.363zm6.694-10.064v6.619h.049c.678-1.356 2.04-2.033 4.09-2.033 1.786 0 3.215.62 4.29 1.859 1.074 1.24 1.611 2.867 1.611 4.884 0 2-.533 3.611-1.6 4.834-1.065 1.223-2.482 1.835-4.25 1.835-.794 0-1.57-.161-2.33-.484a3.926 3.926 0 0 1-1.811-1.525h-.049v1.71h-2.107v-17.7h2.107zm-.075 11.279c0 1.487.351 2.669 1.054 3.545.703.876 1.698 1.314 2.987 1.314 1.224 0 2.17-.434 2.839-1.301.669-.869 1.004-2.086 1.004-3.657 0-1.405-.36-2.545-1.078-3.422-.72-.875-1.69-1.313-2.914-1.313-1.189 0-2.135.438-2.838 1.313-.703.877-1.054 2.05-1.054 3.521zm17.924-6.693c1.817 0 3.238.653 4.263 1.958 1.025 1.306 1.538 3.016 1.538 5.131v.249h-9.594v.148c0 1.24.354 2.228 1.065 2.963s1.686 1.103 2.926 1.103c1.834 0 2.941-.835 3.321-2.504h2.083c-.281 1.438-.901 2.525-1.86 3.26-.958.736-2.164 1.104-3.618 1.104-2.017 0-3.546-.661-4.587-1.984s-1.562-2.925-1.562-4.81c0-1.9.57-3.478 1.711-4.735 1.14-1.255 2.578-1.883 4.314-1.883zm3.57 5.478c-.067-1.04-.443-1.904-1.129-2.59-.685-.686-1.549-1.029-2.59-1.029-.975 0-1.802.326-2.48.98-.677.652-1.066 1.533-1.164 2.64h7.362z" id="Departement_der_Industriellen_Betriebe"/></svg>