<svg width="318" height="79" viewBox="0 0 318 79" fill="none" xmlns="http://www.w3.org/2000/svg"><path d="M116.399 47.438c-1.363 1.85-3.506 2.533-5.552 2.533-5.163 0-8.182-4.189-8.182-8.67 0-5.065 2.727-9.35 8.182-9.35 3.799 0 6.721 1.655 7.403 5.746h-2.338c-.487-2.63-2.532-3.799-5.162-3.799-4.189 0-5.942 3.604-5.942 7.306 0 3.604 2.045 6.916 5.942 6.916 3.506 0 5.649-2.533 5.552-5.65h-5.552v-1.948h7.597v9.059h-1.461l-.487-2.143zm15.683-1.844c-.584 2.727-2.532 4.286-5.357 4.286-3.994 0-5.845-2.728-5.942-6.527 0-3.701 2.435-6.526 5.844-6.526 4.384 0 5.747 4.091 5.65 7.11h-9.351c-.097 2.144 1.169 4.092 3.896 4.092 1.656 0 2.922-.78 3.215-2.435h2.045zm-1.948-3.507c-.097-1.948-1.558-3.507-3.604-3.507-2.143 0-3.409 1.656-3.604 3.507h7.208zm5.461 3.507c.098 1.85 1.656 2.435 3.312 2.435 1.266 0 3.02-.292 3.02-1.85 0-1.56-2.046-1.852-4.092-2.339-2.045-.487-4.091-1.168-4.091-3.506 0-2.533 2.533-3.507 4.676-3.507 2.727 0 4.968.877 5.163 3.896h-2.046c-.097-1.558-1.559-2.142-2.922-2.142-1.267 0-2.63.292-2.63 1.558 0 1.461 2.143 1.753 4.091 2.143 2.045.487 4.091 1.169 4.091 3.507 0 2.922-2.825 3.896-5.357 3.896-2.825 0-5.163-1.169-5.26-4.189h2.045v.098zm20.941 3.986h-1.948v-1.948c-.877 1.559-2.241 2.24-4.091 2.24-3.312 0-4.286-1.85-4.286-4.578v-8.182h2.045v8.475c0 1.558.974 2.532 2.533 2.532 2.532 0 3.701-1.656 3.701-3.896V37.21h2.046v12.37zm2.825-12.46h1.948v1.948c.877-1.559 2.241-2.24 4.092-2.24 3.311 0 4.286 1.85 4.286 4.577v8.182h-2.046v-8.474c0-1.558-.974-2.532-2.533-2.532-2.532 0-3.701 1.655-3.701 3.896v7.013h-2.046V37.12zm24.448 12.461h-2.046v-1.656c-.682 1.364-2.24 1.948-3.994 1.948-3.798 0-5.747-3.02-5.747-6.526 0-3.507 1.851-6.526 5.747-6.526 1.267 0 3.118.487 3.994 1.948v-6.43h2.046v17.242zm-5.845-1.559c2.728 0 3.799-2.337 3.799-4.675 0-2.435-1.071-4.773-3.896-4.773s-3.702 2.435-3.702 4.87c-.097 2.338 1.169 4.578 3.799 4.578zm8.667-15.682h2.045v6.623c.682-1.46 2.436-2.142 3.897-2.142 3.312 0 4.286 1.85 4.286 4.578v8.182h-2.046v-8.475c0-1.558-.974-2.532-2.533-2.532-2.532 0-3.701 1.656-3.701 3.896v7.014h-2.046V32.34h.098zm23.868 13.254c-.584 2.727-2.532 4.286-5.357 4.286-3.994 0-5.845-2.728-5.942-6.527 0-3.701 2.435-6.526 5.844-6.526 4.384 0 5.747 4.091 5.65 7.11h-9.351c-.097 2.144 1.169 4.092 3.896 4.092 1.656 0 2.922-.78 3.215-2.435h2.045zm-1.948-3.507c-.097-1.948-1.558-3.507-3.604-3.507-2.143 0-3.409 1.656-3.604 3.507h7.208zm6.33-7.215h-2.046V32.34h2.046v2.532zm-2.046 2.24h2.046v12.469h-2.046V37.113zm7.89.008h2.533v1.85h-2.533v7.793c0 .974.292 1.071 1.559 1.071h.974v1.851h-1.559c-2.143 0-2.922-.39-2.922-2.727V38.97h-2.143v-1.85h2.143v-3.702h2.046v3.702h-.098zm5.746 8.474c.097 1.85 1.656 2.435 3.312 2.435 1.266 0 3.019-.292 3.019-1.85 0-1.56-2.045-1.852-4.091-2.339-2.045-.487-4.091-1.168-4.091-3.506 0-2.533 2.533-3.507 4.676-3.507 2.727 0 4.967.877 5.162 3.896h-2.045c-.098-1.558-1.559-2.142-2.923-2.142-1.266 0-2.63.292-2.63 1.558 0 1.461 2.143 1.753 4.092 2.143 2.045.487 4.091 1.169 4.091 3.507 0 2.922-2.825 3.896-5.358 3.896-2.825 0-5.162-1.169-5.26-4.189h2.046v.098zm10.325-3.709h7.014v1.948h-7.014v-1.948zm25.719 7.695h-1.948v-1.948c-.877 1.559-2.241 2.24-4.091 2.24-3.312 0-4.286-1.85-4.286-4.578v-8.182h2.045v8.475c0 1.558.974 2.532 2.533 2.532 2.532 0 3.701-1.656 3.701-3.896V37.21h2.046v12.37zm2.822-12.46h1.948v1.948c.877-1.559 2.241-2.24 4.091-2.24 3.312 0 4.286 1.85 4.286 4.577v8.182h-2.045v-8.474c0-1.558-.974-2.532-2.533-2.532-2.532 0-3.701 1.655-3.701 3.896v7.013h-2.046V37.12zm24.448 12.461h-2.045v-1.656c-.682 1.364-2.241 1.948-3.994 1.948-3.799 0-5.747-3.02-5.747-6.526 0-3.507 1.851-6.526 5.747-6.526 1.266 0 3.117.487 3.994 1.948v-6.43h2.045v17.242zm-5.844-1.559c2.727 0 3.799-2.337 3.799-4.675 0-2.435-1.072-4.773-3.897-4.773-2.825 0-3.701 2.435-3.701 4.87 0 2.338 1.169 4.578 3.799 4.578zM117.284 68.085c0 4.383-2.533 6.623-6.819 6.623-4.48 0-7.11-2.045-7.11-6.623V57.078h2.338v11.007c0 3.02 1.753 4.675 4.772 4.675 2.923 0 4.481-1.656 4.481-4.675V57.078h2.338v11.007zm3.014-6.326h1.948v1.85c.877-1.363 2.338-2.142 3.994-2.142 1.559 0 2.922.584 3.409 2.143a4.613 4.613 0 0 1 3.897-2.143c2.532 0 4.188 1.071 4.188 3.604v9.156h-2.045v-8.182c0-1.559-.39-2.825-2.435-2.825-1.949 0-3.215 1.266-3.215 3.215v7.792h-2.045v-8.182c0-1.656-.488-2.825-2.338-2.825-2.435 0-3.312 2.24-3.312 3.215v7.792h-2.046V61.76zm32.435 12.565h-2.143l-2.533-9.936-2.532 9.936h-2.338l-3.994-12.468h2.24l2.825 10.227 2.533-10.227h2.24l2.63 10.227 2.825-10.227h2.143l-3.896 12.468zm15.876-3.998c-.584 2.728-2.532 4.286-5.357 4.286-3.994 0-5.845-2.727-5.942-6.526 0-3.702 2.435-6.526 5.845-6.526 4.383 0 5.747 4.09 5.649 7.11h-9.351c-.097 2.143 1.169 4.091 3.896 4.091 1.656 0 2.923-.779 3.215-2.435h2.045zm-1.948-3.506c-.097-1.949-1.558-3.507-3.604-3.507-2.143 0-3.409 1.656-3.604 3.507h7.208zm4.387-9.743h2.045v17.241h-2.045v-17.24zm7.796 4.683h2.532v1.85h-2.532v7.793c0 .974.292 1.071 1.558 1.071h.974v1.851h-1.558c-2.143 0-2.923-.39-2.923-2.727V63.61h-2.143v-1.85h2.143v-3.702h2.046v3.702h-.097zm15.292 12.558h-2.045v-1.656c-.682 1.364-2.241 1.948-3.994 1.948-3.799 0-5.747-3.02-5.747-6.526 0-3.507 1.851-6.526 5.747-6.526 1.266 0 3.117.487 3.994 1.948v-6.429h2.045v17.241zm-5.747-1.558c2.728 0 3.799-2.338 3.799-4.676 0-2.435-1.071-4.773-3.896-4.773s-3.702 2.435-3.702 4.87c-.097 2.338 1.072 4.579 3.799 4.579zm19.381-2.434c-.584 2.728-2.532 4.286-5.357 4.286-3.994 0-5.844-2.727-5.942-6.526 0-3.702 2.435-6.526 5.845-6.526 4.383 0 5.747 4.09 5.649 7.11h-9.351c-.097 2.143 1.169 4.091 3.896 4.091 1.656 0 2.923-.779 3.215-2.435h2.045zm-2.045-3.506c-.098-1.949-1.559-3.507-3.604-3.507-2.143 0-3.409 1.656-3.604 3.507h7.208zm4.285-5.061h2.045v1.656c.682-1.364 2.24-1.948 3.994-1.948 3.799 0 5.747 3.02 5.747 6.526 0 3.507-1.851 6.526-5.747 6.526-1.267 0-3.117-.487-3.994-1.948v6.43h-2.045V61.758zm5.844 1.559c-2.727 0-3.799 2.337-3.799 4.675 0 2.435 1.072 4.773 3.896 4.773 2.825 0 3.702-2.435 3.702-4.87.097-2.338-1.169-4.578-3.799-4.578zm19.287 10.909c-.39.195-.779.292-1.461.292-1.072 0-1.753-.584-1.753-1.948-1.169 1.364-2.63 1.948-4.384 1.948-2.24 0-4.091-.974-4.091-3.506 0-2.825 2.143-3.41 4.189-3.8 2.24-.389 4.188-.291 4.188-1.85 0-1.753-1.461-2.045-2.825-2.045-1.753 0-3.019.487-3.117 2.337h-2.045c.097-3.117 2.532-4.188 5.26-4.188 2.24 0 4.675.487 4.675 3.41v6.428c0 .974 0 1.364.682 1.364.195 0 .39 0 .585-.098v1.656h.097zm-3.409-6.429c-.779.585-2.338.585-3.702.877-1.363.195-2.532.682-2.532 2.24 0 1.364 1.169 1.851 2.435 1.851 2.727 0 3.799-1.656 3.799-2.825v-2.143zm5.164-6.04h1.948v2.63c.974-2.046 2.338-3.02 4.578-2.922v2.143c-3.312 0-4.481 1.85-4.481 5.065v5.552h-2.045V61.758zm11.494.002h2.533v1.85h-2.533v7.793c0 .974.292 1.071 1.558 1.071h.975v1.851h-1.559c-2.143 0-2.922-.39-2.922-2.727V63.61h-2.143v-1.85h2.143v-3.702h2.045v3.702h-.097zm14.709 8.566c-.585 2.728-2.533 4.286-5.358 4.286-3.993 0-5.844-2.727-5.941-6.526 0-3.702 2.435-6.526 5.844-6.526 4.383 0 5.747 4.09 5.65 7.11h-9.351c-.098 2.143 1.168 4.091 3.896 4.091 1.656 0 2.922-.779 3.214-2.435h2.046zm-1.948-3.506c-.098-1.949-1.559-3.507-3.604-3.507-2.143 0-3.41 1.656-3.604 3.507h7.208zm4.284-5.061h1.948v1.85c.877-1.363 2.338-2.142 3.994-2.142 1.558 0 2.922.584 3.409 2.143a4.612 4.612 0 0 1 3.896-2.143c2.533 0 4.189 1.071 4.189 3.604v9.156h-2.046v-8.182c0-1.559-.389-2.825-2.435-2.825-1.948 0-3.214 1.266-3.214 3.215v7.792h-2.046v-8.182c0-1.656-.487-2.825-2.338-2.825-2.435 0-3.311 2.24-3.311 3.215v7.792h-2.046V61.76zm30.976 8.567c-.584 2.728-2.533 4.286-5.357 4.286-3.994 0-5.845-2.727-5.942-6.526 0-3.702 2.435-6.526 5.844-6.526 4.384 0 5.747 4.09 5.65 7.11h-9.351c-.098 2.143 1.169 4.091 3.896 4.091 1.656 0 2.922-.779 3.215-2.435h2.045zm-1.948-3.506c-.098-1.949-1.559-3.507-3.604-3.507-2.143 0-3.409 1.656-3.604 3.507h7.208zm4.195-5.061h1.948v1.948c.877-1.558 2.24-2.24 4.091-2.24 3.312 0 4.286 1.85 4.286 4.578v8.182h-2.046v-8.474c0-1.559-.974-2.533-2.532-2.533-2.533 0-3.702 1.656-3.702 3.896v7.014h-2.045V61.759zm15.966.001h2.533v1.85h-2.533v7.793c0 .974.292 1.071 1.559 1.071h.974v1.851h-1.559c-2.143 0-2.922-.39-2.922-2.727V63.61h-2.143v-1.85h2.143v-3.702h2.045v3.702h-.097zM105.881 14.126c0 2.337 1.753 3.214 3.799 3.214 1.363 0 3.409-.39 3.409-2.143 0-1.85-2.63-2.143-5.163-2.825-2.532-.681-5.162-1.656-5.162-4.967 0-3.507 3.311-5.26 6.526-5.26 3.604 0 6.916 1.558 6.916 5.552h-3.702c-.097-2.143-1.558-2.63-3.409-2.63-1.169 0-2.63.487-2.63 1.948 0 1.364.779 1.461 5.163 2.63 1.266.292 5.162 1.071 5.162 5.065 0 3.214-2.532 5.552-7.208 5.552-3.799 0-7.403-1.85-7.403-6.136h3.702zm16.953-6.829h2.533v2.337h-2.533v6.235c0 1.168.293 1.46 1.462 1.46.389 0 .681 0 1.071-.097v2.728c-.584.097-1.364.097-2.046.097-2.142 0-3.993-.487-3.993-3.02V9.634h-2.046V7.297h2.046V3.595h3.409v3.702h.097zm4.281 3.906c.195-3.214 3.117-4.188 5.942-4.188 2.532 0 5.552.584 5.552 3.604v6.526c0 1.169.097 2.24.487 2.825h-3.507c-.097-.39-.195-.78-.195-1.17-1.071 1.17-2.727 1.56-4.188 1.56-2.338 0-4.286-1.17-4.286-3.8 0-2.824 2.143-3.506 4.286-3.798 2.143-.293 4.091-.195 4.091-1.656 0-1.461-.974-1.754-2.24-1.754-1.267 0-2.143.487-2.241 1.851h-3.701zm7.987 2.533c-.584.487-1.753.487-2.825.779-1.071.195-2.045.585-2.045 1.85 0 1.267.974 1.56 2.143 1.56 2.727 0 2.825-2.144 2.825-2.923v-1.266h-.098zm14.813 4.579c-.877 1.364-2.241 1.948-3.896 1.948-3.799 0-5.65-3.214-5.65-6.72 0-3.41 1.851-6.527 5.552-6.527 1.461 0 2.922.584 3.702 1.85v-6.33h3.409v17.338h-3.312v-1.559h.195zm-3.02-8.67c-2.24 0-3.019 1.949-3.019 3.995 0 1.948.876 3.993 3.019 3.993 2.241 0 2.922-1.948 2.922-4.09 0-1.949-.681-3.897-2.922-3.897zm13.337-2.348h2.532v2.337h-2.532v6.235c0 1.168.292 1.46 1.461 1.46.389 0 .682 0 1.071-.097v2.728c-.584.097-1.363.097-2.045.097-2.143 0-3.994-.487-3.994-3.02V9.634h-2.046V7.297h2.046V3.595h3.409v3.702h.098zm9.06 9.654l9.352-11.104h-8.572V2.535h13.637v3.02l-9.351 11.202h9.546v3.214h-14.612v-3.02zm27.86 3.02h-3.312v-1.753c-.876 1.46-2.337 2.045-3.798 2.045-3.702 0-4.579-2.045-4.579-5.162V7.308h3.41v7.11c0 2.046.584 3.118 2.24 3.118 1.851 0 2.63-1.072 2.63-3.604V7.308h3.409v12.663zM187.119 2.535h3.312V5.36h-3.312V2.535zm5.065 0h3.312V5.36h-3.312V2.535zm7.597 4.772h3.312v2.338h.098c.584-1.559 2.337-2.63 3.993-2.63.195 0 .487 0 .779.097v3.214c-.292-.097-.876-.097-1.266-.097-2.532 0-3.409 1.85-3.409 3.994v5.65h-3.409V7.306h-.098zm13.248-1.947h-3.409V2.535h3.409V5.36zm-3.507 1.948h3.409v12.566h-3.409V7.308zm14.32 4.48c-.195-1.364-1.072-2.143-2.533-2.143-2.24 0-2.922 2.24-2.922 4.091 0 1.753.682 3.994 2.825 3.994 1.558 0 2.532-.974 2.727-2.533h3.312c-.487 3.312-2.728 5.163-6.039 5.163-3.799 0-6.332-2.63-6.332-6.43 0-3.896 2.338-6.818 6.429-6.818 2.922 0 5.65 1.559 5.942 4.773h-3.409v-.097zm5.263-9.253h3.409v6.526h.098c.876-1.46 2.337-2.045 3.701-2.045 3.702 0 4.578 2.045 4.578 5.162v7.696h-3.409v-7.111c0-2.046-.584-3.117-2.24-3.117-1.851 0-2.63 1.071-2.63 3.604v6.624h-3.41V2.535h-.097zM80.848 37.989c-.292 0-.584.097-.876.195-.39-1.364-.78-2.728-1.072-4.091l1.559-2.143c.194-.293 2.824-3.604 2.824-6.721 0-4.579-3.896-4.676-4.285-4.676-.975 0-2.436.39-3.312 1.558-.877 1.072-1.072 2.533-.682 4.286.097.293.974 3.8 1.948 7.306l-1.559 2.046-3.409-13.053 7.793-5.747c2.143-1.656 3.409-4.286 3.409-7.013 0-4.189-2.922-7.793-6.916-8.67V.39L74.712 0v.974L70.23.682h-1.46v3.604h1.46c.39 0 .78.39.78.78a.768.768 0 0 1-.78.778l-4.87-.487.39 1.559 4.383.39h.098c1.266 0 2.24-.975 2.24-2.24 0-1.267-.974-2.241-2.24-2.241V2.24l4.383.293V6.72c0 .487-.195.877-.487 1.169a1.44 1.44 0 0 1-1.266.39l-4.968-.293.39 1.462a12.284 12.284 0 0 0-3.41 3.311l-1.948-4.188c.293-.487.39-1.072.39-1.559a3.492 3.492 0 0 0-3.507-3.506 3.54 3.54 0 0 0-2.922 1.558l.39-4.09H26.008l.292 4.188c-.584-.974-1.753-1.559-2.922-1.559a3.492 3.492 0 0 0-3.507 3.507c0 .584.098 1.071.39 1.558l-1.948 4.189A10.746 10.746 0 0 0 15 9.546l.39-1.461-4.968.292c-.487 0-.877-.097-1.267-.39-.39-.487-.487-.876-.487-1.363V2.435l4.384-.292v.584c-1.267 0-2.24 1.072-2.24 2.24 0 1.267.973 2.241 2.24 2.241h.097l4.383-.292.39-1.559-4.87.487c-.39 0-.78-.39-.78-.779 0-.39.39-.78.78-.78h1.46V.78h-1.46L8.669.974V0L7.111.39v.779C3.02 2.046.195 5.649.195 9.839c0 2.727 1.266 5.357 3.41 7.013l7.792 5.747-3.41 13.15-1.558-2.046a249.24 249.24 0 0 0 1.948-7.306c.39-1.753.195-3.214-.682-4.285-.876-1.17-2.338-1.559-3.312-1.559-.487 0-4.383.195-4.383 4.773 0 3.02 2.63 6.331 2.825 6.721l1.558 2.046c-.39 1.363-.779 2.727-1.071 4.09a1.834 1.834 0 0 0-.78-.194A2.162 2.162 0 0 0 .39 40.132c0 1.169.974 2.143 2.143 2.143.974 0 1.85-.682 2.045-1.559.098-.487.682-2.435 1.266-4.675l1.559 2.045-4.091 15.39c-.098.293-.098.488-.098.78a3.492 3.492 0 0 0 3.507 3.507 3.492 3.492 0 0 0 3.507-3.507c0-.877-.292-1.656-.877-2.338l3.604-5.844 7.208 10.13c.682.974 1.754 1.461 2.923 1.461a3.492 3.492 0 0 0 3.506-3.506 3.492 3.492 0 0 0-3.506-3.507h-.195L18.02 36.82c-.488-1.266-1.56-2.143-2.923-2.338h-.584l3.312-7.208 4.383 3.215a3.404 3.404 0 0 0 2.143.779c.195 0 .39 0 .682-.098L26.3 43.93c.39 3.508 2.24 6.917 5.163 9.547 3.02 2.727 6.623 4.188 10.325 4.188 3.701 0 7.403-1.46 10.325-4.188 2.922-2.63 4.773-6.137 5.163-9.546l1.168-12.663c.195 0 .39.097.682.097.78 0 1.559-.292 2.143-.779l4.384-3.214 3.311 7.208h-.681c-1.364.195-2.436 1.071-2.922 2.337L60.49 50.75h-.196a3.492 3.492 0 0 0-3.506 3.507 3.492 3.492 0 0 0 3.506 3.507c1.17 0 2.24-.585 2.922-1.462l7.209-10.13 3.604 5.845c-.682.584-.974 1.363-.974 2.24a3.492 3.492 0 0 0 3.506 3.507 3.492 3.492 0 0 0 3.507-3.507c0-.292 0-.487-.097-.78l-3.994-15.39 1.558-2.045c.585 2.24 1.17 4.188 1.267 4.675.195.877 1.071 1.559 2.045 1.559a2.162 2.162 0 0 0 2.143-2.143 2.162 2.162 0 0 0-2.143-2.143zM5.065 31.852l-.682-.974c-.682-.877-2.435-3.506-2.435-5.552 0-2.533 1.753-2.825 2.435-2.825.585 0 1.364.195 1.948.877.488.584.585 1.558.39 2.727-.195.195-.877 2.63-1.656 5.747zM60.003 5.357c.974 0 1.656.78 1.656 1.656 0 .39-.097.682-.292.974l-.292.39 3.02 6.332c-.39 1.071-.683 2.143-.683 3.311L58.542 7.5c-.098-.194-.098-.39-.098-.584-.194-.78.585-1.559 1.559-1.559zM49.58 10.033h-4.285V7.987h4.383l-.098 2.046zm-5.747 0h-4.285V7.987h4.285v2.046zm-5.747 0H33.8l-.097-2.046h4.286l.097 2.046zm-5.844 0h-3.994l-.195-2.046h4.189v2.046zm22.793 1.559l-.195 2.435h-26.3l-.194-2.435h26.69zm.098-1.559H51.04l.098-2.046h4.188l-.194 2.046zm-2.338-7.5l-.098 2.63h1.462l.097-2.63h1.461l-.292 3.993h-4.286l.097-3.993h1.559zm-5.942 0l-.097 2.63h1.46l.098-2.63h1.461l-.097 3.993h-4.383l.097-3.993h1.461zm-5.942 0v2.63h1.461v-2.63h1.461v3.993H39.45l-.097-3.993h1.558zm-5.942 0l.098 2.63h1.46l-.097-2.63h1.559v3.993h-4.383l-.098-3.993h1.461zm-5.942 0l.195 2.63h1.461l-.097-2.63h1.461l.098 3.993h-4.286l-.293-3.993h1.461zm-2.435 5.941l.585 7.014h29.027l.585-7.014 6.331 13.637-3.214 2.338c-.195-.097-.487-.097-.78-.097l.585-6.332H23.67l.584 6.332c-.292 0-.584 0-.876.097l-3.215-2.338 6.43-13.637zm1.072 18.216h3.799l2.435 2.337h-6.234c.097-.39.195-.779.195-1.168 0-.39-.098-.78-.195-1.17zm-.974-1.462c-.195-.097-.293-.292-.487-.39l-.293-3.506 3.994 3.896H26.69zM22.306 8.474l-.292-.39a1.88 1.88 0 0 1-.292-.973c0-.974.78-1.656 1.656-1.656.877 0 1.656.78 1.656 1.656 0 .195 0 .39-.098.584l-4.87 10.52c-.098-1.169-.292-2.24-.682-3.312l2.922-6.429zm-7.5 27.956c.39.098 1.169.293 1.461 1.17l5.455 15.39.877-.293c.194-.097.39-.097.487-.097.974 0 1.655.78 1.655 1.656 0 .974-.779 1.656-1.655 1.656a1.704 1.704 0 0 1-1.364-.682l-7.598-10.812.487-.877c.292-.584.487-1.169.487-1.753a3.448 3.448 0 0 0-2.532-3.312l.779-1.753c.292-.195.877-.39 1.46-.293zm-4.383 2.338l1.071 1.461h.292c.877 0 1.559.682 1.559 1.559 0 .292-.098.584-.195.78l-6.137 9.74.78.487c.487.292.779.877.779 1.364 0 .974-.78 1.656-1.656 1.656-.974 0-1.656-.78-1.656-1.656v-.39l7.89-30.099 3.312 2.435-6.04 12.663zm13.929-9.253c-.39 0-.78-.098-1.072-.39L4.773 15.39a7.012 7.012 0 0 1-2.727-5.552A7.131 7.131 0 0 1 7.11 3.02v3.506c0 .877.39 1.656.974 2.24a2.762 2.762 0 0 0 2.143.975h.195l1.363-.098c.293.098.585.195.682.195 3.702 1.461 6.137 5.065 6.137 9.06 0 .584-.098 1.265-.195 1.85l-3.896-2.825-.487 1.948 9.059 6.721.487-.195c.39-.194.876-.194 1.363 0 .585.293 1.072.877 1.072 1.559 0 .584-.292 1.071-.78 1.364-.292.097-.584.195-.876.195zm2.338.974h8.669l2.435 2.337H26.982l-.292-2.337zm.39 3.798h12.273l2.435 2.338H27.372l-.293-2.338zm.389 3.8h15.877l2.436 2.337H27.664l-.195-2.338zm.584 5.844l-.194-1.948H47.34l2.435 2.337H28.053v-.39zm.293 1.85h22.89l2.436 2.338H29.32c-.39-.779-.682-1.558-.974-2.337zM41.69 56.01c-2.727 0-5.454-.974-7.695-2.532h15.39c-2.24 1.558-4.967 2.532-7.695 2.532zm9.449-4.09H32.144c-.779-.683-1.363-1.462-1.948-2.339h22.988a11.75 11.75 0 0 1-2.045 2.338zm4.188-7.988a12.75 12.75 0 0 1-.584 2.63L26.982 19.87h30.683l-.487 4.968c-1.071.682-1.656 1.753-1.656 3.02 0 .974.39 1.948 1.072 2.532l-1.267 13.54zM60.1 29.125c-.292.292-.681.39-1.071.39a1.88 1.88 0 0 1-.974-.293 1.679 1.679 0 0 1-.78-1.363c0-.682.39-1.267 1.072-1.559.39-.195.877-.195 1.364 0l.487.195 9.059-6.721-.487-1.948-3.897 2.824c-.097-.584-.194-1.168-.194-1.85 0-3.994 2.435-7.5 6.136-9.06.098 0 .39-.097.682-.194l1.364.097h.195c.779 0 1.558-.292 2.143-.876.584-.585.974-1.364.974-2.24V3.02c3.02.876 5.065 3.604 5.065 6.818a7.012 7.012 0 0 1-2.728 5.552L60.1 29.125zm1.56 26.105c-.292.487-.877.682-1.364.682-.974 0-1.656-.78-1.656-1.656 0-.974.78-1.656 1.656-1.656.195 0 .39 0 .487.097l.877.293 5.455-15.39c.292-.877 1.071-1.072 1.46-1.17.585-.097 1.17.098 1.365.293l.779 1.753c-1.461.39-2.533 1.753-2.533 3.41 0 .584.195 1.265.487 1.753l.487.876-7.5 10.715zm16.56-1.266v.39c0 .974-.78 1.655-1.657 1.655a1.642 1.642 0 0 1-1.656-1.656c0-.584.293-1.071.78-1.363l.779-.487-6.137-9.741c-.195-.292-.195-.487-.195-.78 0-.876.682-1.558 1.559-1.558h.292l1.072-1.461-5.845-12.566 3.312-2.435 7.695 30.002zm-1.462-27.956c-.292-1.267-.195-2.143.39-2.728.487-.584 1.363-.876 1.948-.876.78 0 2.435.292 2.435 2.825 0 2.435-2.435 5.454-2.435 5.552l-.78.974c-.779-3.02-1.46-5.455-1.558-5.747z" fill="#0F05A0"/></svg>