<svg xmlns="http://www.w3.org/2000/svg" width="307" height="53" viewBox="0 0 307 53"><path fill="#0D0E0E" d="M14 3.141h-3.42v14c0 2.309-.906 4.063-3.565 4.063-2.689 0-3.595-1.754-3.595-4.063v-14H0v14c0 4.443 2.864 6.489 7.015 6.489 4.325 0 6.985-2.046 6.985-6.489v-14zm4.961 20.167h3.127V7.73h.058l8.155 15.578h3.829V3.141h-3.127v14.847h-.059L23.169 3.141h-4.208v20.167zm20.372 0h3.419V14.16h7.541v-2.601h-7.541V5.742h7.979V3.141H39.333v20.167z"/><path fill-rule="evenodd" clip-rule="evenodd" fill="#0D0E0E" d="M52.105 23.308h3.566l1.753-5.465h7.249l1.753 5.465h3.566L63.124 3.141h-4.121l-6.898 20.167zM61.02 6.386h.058l2.777 8.855h-5.612l2.777-8.855z"/><path fill="#0D0E0E" d="M73.024 23.308h11.341v-2.601h-7.921V3.141h-3.42v20.167zm14.41 0h11.34v-2.601h-7.92V3.141h-3.42v20.167zm17.917 0h4.122l6.926-20.167h-3.565l-5.349 16.221h-.059l-5.26-16.221H98.6l6.751 20.167z"/><path fill-rule="evenodd" clip-rule="evenodd" fill="#0D0E0E" d="M141.7 23.308h3.419v-8.651h1.344c3.128 0 3.537 1.082 4.238 4.296l.936 4.354h3.479l-1.229-5.67c-.468-2.134-.789-3.858-3.595-4.472v-.059c2.075-.497 4.005-1.49 4.005-4.676 0-3.946-2.69-5.29-6.49-5.29H141.7v20.168zm3.419-17.741h2.688c1.93 0 3.011 1.139 3.011 3.244 0 2.98-2.222 3.419-4.355 3.419h-1.344V5.567z"/><path fill="#0D0E0E" d="M169.583 3.375c-.73-.146-2.688-.556-4.938-.556-3.801 0-6.928 1.608-6.928 5.203 0 5.729 9.615 5.992 9.615 10.375 0 1.315-.848 2.806-3.535 2.806-2.543 0-4.502-1.228-5.699-1.958v3.537c.613.146 2.98.848 5.582.848 4.385 0 7.424-1.959 7.424-5.729 0-6.08-9.617-6.606-9.617-10.171 0-1.725 1.346-2.485 3.041-2.485 2.045 0 3.711.76 5.055 1.287V3.375zm5.259 19.933h3.42V3.141h-3.42v20.167zm21.647-3.858c-.555.321-2.455 1.491-4.705 1.491-4.119 0-5.494-3.507-5.494-8.33 0-3.156.643-7.365 4.178-7.365 2.631 0 2.982 1.842 2.982 3.42h3.801c0-3.127-2.104-5.846-6.783-5.846-5.756 0-7.949 4.385-7.949 10.318 0 6.283 2.602 10.493 8.477 10.493 2.426 0 4.529-.761 5.494-1.17V19.45h-.001zm4.006 3.858h3.42v-9.206h7.248v9.206h3.42V3.141h-3.42V11.5h-7.248V3.141h-3.42v20.167zm19.287 0h12.011v-2.601h-8.591V14.16h7.92v-2.601h-7.92V5.742h8.359V3.141h-11.779v20.167z"/><path fill-rule="evenodd" clip-rule="evenodd" fill="#0D0E0E" d="M235.766 23.308h3.42v-8.651h1.344c3.127 0 3.537 1.082 4.238 4.296l.936 4.354h3.477l-1.227-5.67c-.467-2.134-.787-3.858-3.594-4.472v-.059c2.074-.497 4.002-1.49 4.002-4.676 0-3.946-2.688-5.29-6.488-5.29h-6.107v20.168h-.001zm3.42-17.741h2.688c1.93 0 3.012 1.139 3.012 3.244 0 2.98-2.223 3.419-4.355 3.419h-1.344V5.567h-.001z"/><path fill="#0D0E0E" d="M266.719 3.141h-3.42v14c0 2.309-.904 4.063-3.566 4.063-2.688 0-3.594-1.754-3.594-4.063v-14h-3.42v14c0 4.443 2.865 6.489 7.014 6.489 4.326 0 6.986-2.046 6.986-6.489v-14zm4.961 20.167h3.127V7.73h.059l8.154 15.578h3.83V3.141h-3.129v14.847h-.058l-7.774-14.847h-4.209v20.167zm34.459-11.749h-7.219v2.425h3.799v6.43c-.322.351-1.285.79-2.924.79-4.092 0-4.82-4.326-4.82-8.008 0-4.208.729-7.95 4.207-7.95 2.193 0 2.924 1.754 2.924 3.216h3.801c0-3.303-2.018-5.642-6.725-5.642-5.756 0-7.979 3.916-7.979 10.376 0 5.933 2.572 10.435 8.592 10.435 3.188 0 5.584-1.257 6.344-1.842v-10.23z"/><path fill="#539FD1" d="M170.161 39.048c-1.273-.707-2.773-1.434-2.773-2.91 0-1.479 1.045-2.592 3.41-2.592a9.59 9.59 0 0 1 3.113.521v-1.432c-.545-.137-1.885-.387-3.113-.387-4.502 0-4.773 3.342-4.773 4.002 0 2.363 1.932 3.227 3.363 4.023l1.297.705c.953.545 2.797 1.227 2.797 3.273 0 1.842-1.797 2.887-3.662 2.887-2.092 0-3.115-.318-3.637-.477v1.387c.363.068 1.455.385 3.297.385 2.705 0 5.365-1.09 5.365-4.387 0-2.479-1.705-3.41-3.342-4.297l-1.342-.701zm10.843 9.139h1.364V33.75h3.728V32.5h-8.82v1.25h3.728v14.437z"/><path fill-rule="evenodd" clip-rule="evenodd" fill="#539FD1" d="M187.481 48.187h1.34l1.59-5.07h5.867l1.66 5.07h1.34L194.209 32.5h-1.752l-4.976 15.687zm5.728-14.574h.043l2.639 8.254h-5.07l2.388-8.254zm9.864 14.574h2.795c4.068 0 7.094-1.389 7.094-7.891 0-6-2.842-7.797-6.457-7.797h-3.432v15.688zm1.363-14.437h1.021c3.525 0 6.002.705 6.002 6.57 0 5.66-2.158 6.615-5.682 6.615h-1.342V33.75h.001z"/><path fill="#539FD1" d="M219.006 48.187h1.366V33.75h3.728V32.5h-8.82v1.25h3.726v14.437zm14.379 0h9.686v-1.252h-8.162l7.843-13.162V32.5h-8.957v1.25h7.434l-7.844 13.14v1.297z"/><path fill-rule="evenodd" clip-rule="evenodd" fill="#539FD1" d="M249.346 30.363h1.682V28.59h-1.682v1.773zm3.729 0h1.682V28.59h-1.682v1.773zm3.84 2.137h-1.363v10.504c0 1.432 0 4.137-3.615 4.137-3.295 0-3.387-2.705-3.387-4.137V32.5h-1.365v11.14c0 1.318.387 4.795 4.752 4.795 4.705 0 4.979-3.477 4.979-4.795V32.5h-.001zm5.453 15.687h1.363v-7.094h1.887c2.363 0 2.795 1.229 3.25 3.387l.795 3.707h1.363l-.885-4.229c-.342-1.729-.568-2.979-2.615-3.479v-.047c.318-.09 3.16-.408 3.16-3.91 0-3.547-3.092-4.023-5.025-4.023h-3.293v15.688zm1.363-14.437h1.795c1.068 0 3.797.023 3.797 2.773 0 2.592-2.16 3.32-4.365 3.32h-1.227V33.75z"/><path fill="#539FD1" d="M276.208 48.187h1.365V32.5h-1.365v15.687zm15.884-2.297c-.523.387-1.568 1.25-3.797 1.25-3.729 0-4.41-4.252-4.41-7.092 0-3.297.955-6.502 4.047-6.502 2.432 0 3.205 1.727 3.205 3.229h1.545c0-1.389-.363-2.434-1.227-3.229-.773-.752-1.957-1.297-3.365-1.297-4.479 0-5.705 3.955-5.705 7.684 0 4.457 1.432 8.502 5.82 8.502 2.203 0 3.295-.682 3.887-.953V45.89zm4.522 2.297h1.363v-7.48h6.754v7.48h1.363V32.5h-1.363v6.957h-6.754V32.5h-1.363v15.687z"/><path fill="#BF362B" d="M119.734 0h17.843v4.288h-17.843V0zm-.017 11.002h17.843v4.288h-17.843v-4.288zm0 10.966h17.843v4.288h-17.843v-4.288z"/></svg>