<svg id="Ombudsfrau" xmlns="http://www.w3.org/2000/svg" viewBox="0 0 434.25 59.35"><title>Logo Stadt Zürich</title><style>.st0{fill:#0f05a0}</style><path class="st0" d="M111.48 32.76c2 0 3.59.5 4.76 1.49s1.76 2.36 1.76 4.12h-2.23c-.26-2.41-1.73-3.62-4.39-3.62-1.27 0-2.25.26-2.94.78s-1.03 1.27-1.03 2.24c0 .61.26 1.15.77 1.61.51.46 2.15.98 4.91 1.54 1.9.38 3.32.97 4.25 1.77s1.4 1.91 1.4 3.33c0 1.65-.68 2.94-2.03 3.87s-2.98 1.4-4.88 1.41c-2.23 0-4.01-.56-5.33-1.67s-1.98-2.64-1.98-4.57h2.23c.02 1.37.5 2.43 1.45 3.16s2.19 1.1 3.71 1.1c1.44 0 2.54-.28 3.32-.83.78-.55 1.17-1.35 1.17-2.39 0-.86-.38-1.54-1.13-2.05-.75-.5-2.04-.93-3.85-1.28-2.6-.51-4.3-1.14-5.12-1.88-.82-.74-1.23-1.73-1.23-2.95 0-1.57.59-2.83 1.76-3.77s2.72-1.41 4.65-1.41zm15.3 5.01c1.92 0 3.43.61 4.55 1.83 1.12 1.22 1.67 2.85 1.67 4.88 0 1.95-.56 3.55-1.67 4.81-1.12 1.26-2.63 1.88-4.55 1.88-1.88 0-3.39-.61-4.52-1.82-1.13-1.21-1.7-2.84-1.7-4.87 0-2.05.56-3.68 1.67-4.9 1.12-1.2 2.64-1.81 4.55-1.81zm-3.99 6.72c0 1.44.37 2.6 1.12 3.5s1.7 1.34 2.88 1.34c1.16 0 2.11-.44 2.86-1.33.75-.88 1.13-2.05 1.13-3.51 0-1.44-.37-2.61-1.12-3.51-.74-.9-1.71-1.35-2.9-1.35-1.14 0-2.09.46-2.84 1.36-.75.91-1.13 2.07-1.13 3.5zm21.64-6.42v1.44l-7.83 9.52h8.18v1.86h-10.81v-1.61l7.74-9.35h-7.24v-1.86h9.96zm4.47-4.89v2.58h-2.11v-2.58h2.11zm0 4.89v12.82h-2.11V38.07h2.11zm8.5-.3c3.19 0 4.79 1.15 4.79 3.45v7.39c0 .48.22.72.67.72.21 0 .43-.04.64-.12v1.64c-.41.23-.92.35-1.51.35-1.19 0-1.79-.66-1.79-1.98-1.12 1.32-2.63 1.98-4.51 1.98-1.32 0-2.36-.31-3.11-.93-.75-.62-1.13-1.51-1.13-2.67 0-1.14.37-2.05 1.12-2.73.74-.68 2.47-1.19 5.18-1.54.92-.12 1.55-.29 1.87-.53.32-.24.48-.59.48-1.05 0-1.41-.95-2.11-2.85-2.11-1.04 0-1.82.19-2.34.58-.52.39-.81 1-.86 1.85h-2.11c.17-2.87 1.99-4.3 5.46-4.3zm-3.72 9.67c0 .6.21 1.06.64 1.39.43.33 1.04.5 1.83.5 1.14 0 2.08-.28 2.81-.84.74-.56 1.1-1.23 1.1-2.01v-2.21c-.38.26-.88.44-1.49.52l-2.16.32c-.94.13-1.64.38-2.08.76-.43.36-.65.89-.65 1.57zm14.04-14.26v17.7h-2.11v-17.7h2.11zm12.47 4.89v1.44l-7.83 9.52h8.18v1.86h-10.81v-1.61l7.74-9.35h-7.24v-1.86h9.96zm7.4-.3c1.82 0 3.24.65 4.26 1.96 1.02 1.31 1.54 3.02 1.54 5.13v.25h-9.59v.15c0 1.24.35 2.23 1.07 2.96s1.69 1.1 2.93 1.1c1.83 0 2.94-.83 3.32-2.5h2.08c-.28 1.44-.9 2.52-1.86 3.26-.96.74-2.17 1.1-3.62 1.1-2.02 0-3.55-.66-4.59-1.98s-1.56-2.93-1.56-4.81c0-1.9.57-3.48 1.71-4.74 1.13-1.25 2.57-1.88 4.31-1.88zm3.57 5.48c-.07-1.04-.44-1.9-1.13-2.59s-1.55-1.03-2.59-1.03c-.97 0-1.8.33-2.48.98-.68.65-1.07 1.53-1.17 2.64h7.37zm10.74-5.48c2.94 0 4.41 1.53 4.41 4.59v8.53h-2.11v-8.75c0-.71-.22-1.31-.67-1.79s-1.1-.72-1.96-.72c-1.21 0-2.14.36-2.79 1.09s-.98 1.68-.98 2.85v7.31h-2.11V38.07h1.98v2.03h.05c.94-1.55 2.33-2.33 4.18-2.33zm10.34-3.55v3.84h2.55v1.86h-2.55v8.03c0 .38.07.65.22.82.15.17.52.25 1.12.25h1.21v1.86h-1.74c-1.09 0-1.85-.18-2.28-.54-.43-.36-.64-1.07-.64-2.13v-8.28h-2.18v-1.86h2.18v-3.84h2.11zm11.42 3.55V40c-1.59 0-2.76.42-3.51 1.25-.75.83-1.13 2.14-1.13 3.9v5.73h-2.11V38.07h1.98v2.7h.05c.98-2 2.45-3 4.41-3h.31zm3.79.3v8.73c0 .74.23 1.35.69 1.82.46.47 1.1.71 1.91.71 1.24 0 2.18-.36 2.83-1.09s.97-1.68.97-2.85v-7.31h2.11V50.9h-1.98v-2.03h-.05c-.88 1.55-2.26 2.33-4.17 2.33-2.94 0-4.41-1.52-4.41-4.56v-8.55h2.1zm17.8-.3c1.87 0 3.04.73 3.52 2.18.43-.69 1-1.23 1.7-1.61.7-.38 1.48-.57 2.34-.57 1.45 0 2.52.33 3.21.98.69.65 1.03 1.54 1.03 2.67v9.47h-2.11v-8.5c0-.93-.2-1.62-.58-2.07-.39-.45-1.02-.68-1.9-.68-.99 0-1.8.29-2.42.88-.62.59-.93 1.36-.93 2.32v8.06H247v-8.5c0-.93-.19-1.62-.57-2.07-.38-.45-.99-.68-1.83-.68-.61 0-1.17.14-1.66.42-.5.28-.91.71-1.25 1.28s-.51 1.08-.51 1.52v8.03h-2.11V38.07h1.98v1.88h.05c.96-1.45 2.34-2.18 4.15-2.18zm27.94-4.59l6.92 17.7h-2.6l-1.93-5.33h-7.49l-1.98 5.33h-2.43l6.92-17.7h2.59zm-1.36 2.13l-3 8.25h6l-2.95-8.25h-.05zm12.06-2.13v17.7h-2.11v-17.7h2.11zm5.32 0v6.62h.05c.68-1.36 2.04-2.03 4.09-2.03 1.79 0 3.21.62 4.29 1.86 1.07 1.24 1.61 2.87 1.61 4.88 0 2-.53 3.61-1.6 4.83-1.07 1.22-2.48 1.83-4.25 1.83-.79 0-1.57-.16-2.33-.48a3.91 3.91 0 0 1-1.81-1.53h-.05v1.71h-2.11v-17.7h2.11zm-.08 11.28c0 1.49.35 2.67 1.05 3.54.7.88 1.7 1.31 2.99 1.31 1.22 0 2.17-.43 2.84-1.3.67-.87 1-2.09 1-3.66 0-1.41-.36-2.54-1.08-3.42-.72-.88-1.69-1.31-2.91-1.31-1.19 0-2.14.44-2.84 1.31-.7.89-1.05 2.06-1.05 3.53zm14.78-11.28v2.58h-2.11v-2.58h2.11zm0 4.89v12.82h-2.11V38.07h2.11zm7.57-.3c1.74 0 3.02.33 3.86 1 .83.67 1.29 1.67 1.38 3.01h-2.11v-.02c-.07-.69-.37-1.22-.91-1.59-.54-.36-1.23-.54-2.07-.54s-1.51.14-2 .42c-.49.28-.73.69-.73 1.21 0 .48.21.86.64 1.15s1.08.53 1.96.73l1.98.45c1.24.28 2.18.7 2.83 1.25s.97 1.32.97 2.29c0 1.27-.49 2.26-1.46 2.97-.98.71-2.31 1.07-3.99 1.07-1.64 0-2.93-.36-3.89-1.08-.96-.72-1.47-1.8-1.54-3.26h2.11c.03.79.35 1.41.94 1.83.6.43 1.43.64 2.5.64 2.07 0 3.1-.64 3.1-1.91 0-.56-.25-1.01-.76-1.34-.5-.33-1.58-.67-3.24-1.02-1.57-.31-2.69-.75-3.37-1.31s-1.02-1.34-1.02-2.33c0-1.09.43-1.97 1.3-2.64.88-.65 2.05-.98 3.52-.98zm14.87 0V40c-1.59 0-2.76.42-3.51 1.25-.75.83-1.13 2.14-1.13 3.9v5.73h-2.11V38.07h1.98v2.7h.05c.98-2 2.45-3 4.41-3h.31zm3.84-4.59v2.58h-2.11v-2.58h2.11zm0 4.89v12.82h-2.11V38.07h2.11zm8.57-.3c1.82 0 3.24.65 4.26 1.96 1.02 1.31 1.54 3.02 1.54 5.13v.25h-9.59v.15c0 1.24.35 2.23 1.07 2.96s1.69 1.1 2.93 1.1c1.83 0 2.94-.83 3.32-2.5h2.08c-.28 1.44-.9 2.52-1.86 3.26-.96.74-2.17 1.1-3.62 1.1-2.02 0-3.55-.66-4.59-1.98s-1.56-2.93-1.56-4.81c0-1.9.57-3.48 1.71-4.74 1.14-1.25 2.58-1.88 4.31-1.88zm3.57 5.48c-.07-1.04-.44-1.9-1.13-2.59s-1.55-1.03-2.59-1.03c-.97 0-1.8.33-2.48.98-.68.65-1.07 1.53-1.17 2.64h7.37zm16.07-10.07v17.7h-2.11v-1.74h-.05c-.33.66-.85 1.17-1.57 1.51-.72.35-1.56.52-2.52.52-1.77 0-3.19-.62-4.28-1.86-1.08-1.24-1.62-2.87-1.62-4.88s.52-3.63 1.57-4.85c1.05-1.21 2.47-1.82 4.25-1.82.84 0 1.65.17 2.42.52s1.35.84 1.75 1.49h.05v-6.59h2.11zm-9.92 11.41c0 1.41.36 2.54 1.09 3.42.73.88 1.69 1.31 2.88 1.31 1.21 0 2.16-.44 2.86-1.33.7-.88 1.05-2.05 1.05-3.51 0-1.45-.35-2.63-1.05-3.52-.7-.89-1.71-1.34-3.01-1.34-1.22 0-2.17.44-2.83 1.33-.66.89-.99 2.1-.99 3.64zm18.44-6.82c1.82 0 3.24.65 4.26 1.96 1.02 1.31 1.54 3.02 1.54 5.13v.25h-9.59v.15c0 1.24.35 2.23 1.07 2.96s1.69 1.1 2.93 1.1c1.83 0 2.94-.83 3.32-2.5h2.08c-.28 1.44-.9 2.52-1.86 3.26-.96.74-2.17 1.1-3.62 1.1-2.02 0-3.55-.66-4.59-1.98s-1.56-2.93-1.56-4.81c0-1.9.57-3.48 1.71-4.74 1.13-1.25 2.57-1.88 4.31-1.88zm3.57 5.48c-.07-1.04-.44-1.9-1.13-2.59s-1.55-1.03-2.59-1.03c-.97 0-1.8.33-2.48.98-.68.65-1.07 1.53-1.17 2.64h7.37zm11.25-5.48V40c-1.59 0-2.76.42-3.51 1.25-.75.83-1.13 2.14-1.13 3.9v5.73H375V38.07h1.98v2.7h.05c.98-2 2.45-3 4.41-3h.3zm3.78-4.59v6.77h.05c.3-.69.82-1.23 1.56-1.61.74-.38 1.57-.57 2.48-.57 2.94 0 4.41 1.53 4.41 4.59v8.53h-2.11v-8.75c0-.71-.22-1.31-.67-1.79s-1.1-.72-1.96-.72c-1.19 0-2.12.36-2.78 1.09s-.99 1.68-.99 2.85v7.31h-2.11v-17.7h2.12zm16.88 4.59c3.19 0 4.79 1.15 4.79 3.45v7.39c0 .48.22.72.67.72.21 0 .43-.04.64-.12v1.64c-.41.23-.92.35-1.51.35-1.19 0-1.79-.66-1.79-1.98-1.12 1.32-2.63 1.98-4.51 1.98-1.32 0-2.36-.31-3.11-.93-.75-.62-1.13-1.51-1.13-2.67 0-1.14.37-2.05 1.12-2.73.74-.68 2.47-1.19 5.18-1.54.92-.12 1.55-.29 1.87-.53.32-.24.48-.59.48-1.05 0-1.41-.95-2.11-2.85-2.11-1.04 0-1.82.19-2.34.58-.52.39-.81 1-.86 1.85h-2.11c.17-2.87 1.99-4.3 5.46-4.3zm-3.72 9.67c0 .6.21 1.06.64 1.39.43.33 1.04.5 1.83.5 1.14 0 2.08-.28 2.81-.84.74-.56 1.1-1.23 1.1-2.01v-2.21c-.38.26-.88.44-1.49.52l-2.16.32c-.94.13-1.64.38-2.08.76-.43.36-.65.89-.65 1.57zm13.78-9.37v8.73c0 .74.23 1.35.69 1.82.46.47 1.1.71 1.91.71 1.24 0 2.18-.36 2.83-1.09s.97-1.68.97-2.85v-7.31h2.11V50.9h-1.98v-2.03h-.05c-.88 1.55-2.26 2.33-4.17 2.33-2.94 0-4.41-1.52-4.41-4.56v-8.55h2.1zm15.98-.3c1.74 0 3.02.33 3.86 1 .83.67 1.29 1.67 1.38 3.01h-2.11v-.02c-.07-.69-.37-1.22-.91-1.59-.54-.36-1.23-.54-2.07-.54s-1.51.14-2 .42c-.49.28-.73.69-.73 1.21 0 .48.21.86.64 1.15s1.08.53 1.96.73l1.98.45c1.24.28 2.18.7 2.83 1.25s.97 1.32.97 2.29c0 1.27-.49 2.26-1.46 2.97-.98.71-2.31 1.07-3.99 1.07-1.64 0-2.93-.36-3.89-1.08-.96-.72-1.47-1.8-1.54-3.26h2.11c.03.79.35 1.41.94 1.83.6.43 1.43.64 2.5.64 2.07 0 3.1-.64 3.1-1.91 0-.56-.25-1.01-.76-1.34-.5-.33-1.58-.67-3.24-1.02-1.57-.31-2.69-.75-3.37-1.31s-1.02-1.34-1.02-2.33c0-1.09.43-1.97 1.3-2.64.88-.65 2.05-.98 3.52-.98zM119.35 7.94h-3.8c-.12-1.8-1.17-2.7-3.5-2.7-1.45 0-2.72.62-2.72 2.03 0 1.3.75 1.55 4.75 2.55 2.65.67 5.87 1.57 5.87 5.35 0 3.37-2.67 5.72-7.42 5.72-3.77 0-7.6-1.8-7.6-6.22v-.12h3.8c0 2.52 2.08 3.3 3.92 3.3 1.8 0 3.5-.6 3.5-2.22 0-1.12-.88-1.83-3.07-2.38-1.33-.35-2.47-.6-3.62-.97-2.7-.9-3.92-2.42-3.92-4.7 0-3.6 3.4-5.37 6.67-5.37 3.82-.02 7.14 1.68 7.14 5.73zm7.02-4.27v3.87h2.6v2.37h-2.6v6.4c0 1.2.3 1.5 1.5 1.5.4 0 .8-.03 1.1-.1v2.77c-.6.1-1.4.12-2.1.12-2.72 0-4.05-.83-4.05-3.12V9.92h-2.15V7.54h2.15V3.67h3.55zm16.35 7.2v6.85c0 1.02.12 2.22.45 2.75h-3.6c-.12-.4-.23-.83-.25-1.25-1 1.05-2.52 1.6-4.35 1.6-2.65 0-4.4-1.37-4.4-3.87 0-1.25.4-2.12 1.12-2.75.82-.7 2.02-1.08 4.17-1.3 2.3-.25 3.3-.45 3.3-1.6 0-1.47-1.07-1.72-2.27-1.72-1.47 0-2.25.6-2.37 1.95h-3.55c.15-2.82 2.47-4.32 6.1-4.32 3.77-.02 5.65 1.26 5.65 3.66zm-6.43 7.57c1.9 0 2.87-1.02 2.87-2.92v-1.37c-.32.3-.95.47-2.15.62-1.82.22-2.9.62-2.9 2.02.01 1.02.63 1.65 2.18 1.65zm21.72-15.82v17.85h-3.37v-1.65h-.05c-.77 1.32-2.15 2-3.92 2-3.85 0-5.8-3.25-5.8-6.92 0-3.57 2-6.7 5.72-6.7 1.55 0 3.05.67 3.82 1.92h.05v-6.5h3.55zm-6.47 15.52c2.02 0 3.05-1.58 3.05-4.17 0-2.35-.9-4.1-3.07-4.1-2.02 0-3.1 1.62-3.1 4.12-.01 2.05.94 4.15 3.12 4.15zm13.94-14.47v3.87h2.6v2.37h-2.6v6.4c0 1.2.3 1.5 1.5 1.5.4 0 .8-.03 1.1-.1v2.77c-.6.1-1.4.12-2.1.12-2.72 0-4.05-.83-4.05-3.12V9.92h-2.15V7.54h2.15V3.67h3.55zm24.57-1.05v3.1l-9.57 11.45h9.82v3.3h-15.05v-3.1l9.57-11.45H176v-3.3h14.05zm5.57 4.92v7.32c0 1.97.53 3.15 2.27 3.15 1.95 0 2.75-1.12 2.75-3.67v-6.8h3.55v12.92h-3.37v-1.8h-.08c-.9 1.45-2.4 2.15-3.97 2.15-3.37 0-4.7-1.7-4.7-5.25V7.54h3.55zm1.67-4.95v2.92h-3.37V2.59h3.37zm5.15 0v2.92h-3.37V2.59h3.37zm13.02 4.73v3.3c-.35-.08-.78-.12-1.27-.12-2.58 0-3.5 1.77-3.5 4.15v5.82h-3.55V7.54h3.37v2.4h.05c.67-1.62 2.35-2.75 4.12-2.75.36 0 .61.08.78.13zm5.47-4.7v2.92h-3.55V2.62h3.55zm0 4.92v12.92h-3.55V7.54h3.55zm14.85 4.55h-3.47c-.22-1.47-1.1-2.22-2.62-2.22-2.15 0-3.02 2.1-3.02 4.2 0 2.12.88 4.07 2.95 4.07 1.57 0 2.57-.9 2.82-2.63h3.42c-.47 3.4-2.77 5.3-6.22 5.3-4.02 0-6.52-2.87-6.52-6.62 0-4.12 2.5-7 6.6-7 3.29 0 5.88 1.8 6.06 4.9zm5.7-9.47v6.72h.08c.8-1.33 2.27-2.15 3.8-2.15 3.27 0 4.7 1.62 4.7 5.2v8.07h-3.55v-7.35c0-2.1-.62-3.12-2.27-3.12-2.17 0-2.75 1.42-2.75 3.7v6.77h-3.55V2.62h3.54zM83.01 38.99c-.3 0-.59.06-.85.17-.37-1.35-.75-2.78-1.13-4.17l1.62-2.19c.25-.31 2.93-3.74 2.93-6.85 0-4.69-3.98-4.82-4.43-4.82-1.05 0-2.5.41-3.43 1.57-.89 1.1-1.14 2.59-.74 4.44.08.35 1.03 3.92 1.99 7.46l-1.56 2.11-3.53-13.44 7.95-5.88.02-.01a9.11 9.11 0 0 0 3.53-7.22c0-4.31-2.98-8-7.14-8.93V.41L76.71 0v1.02L72.16.76h-1.51v3.68h1.47c.44 0 .8.36.8.8 0 .44-.36.8-.8.8-.01 0-4.99-.55-4.99-.55l.41 1.57 4.41.48h.16a2.311 2.311 0 0 0 .04-4.62v-.64l4.54.26v4.28c0 .48-.18.91-.52 1.23-.33.32-.78.47-1.26.45l-5.1-.29.41 1.54-.03.02c-1.4.89-2.57 2.06-3.45 3.43l-2-4.29c.26-.51.4-1.06.4-1.64 0-1.99-1.62-3.6-3.6-3.6-1.26 0-2.37.65-3.01 1.63l.35-4.2H26.65L27 5.3c-.64-1-1.75-1.65-3-1.65-1.99 0-3.6 1.62-3.6 3.6 0 .58.14 1.14.4 1.64l-2 4.29c-.88-1.36-2.05-2.53-3.45-3.43l-.03-.01.42-1.54-5.1.29c-.48.03-.92-.13-1.26-.45-.34-.31-.52-.74-.52-1.22V2.54l4.54-.26v.64a2.316 2.316 0 0 0-2.27 2.31c0 1.28 1.04 2.31 2.31 2.31h.12l4.45-.49.41-1.57s-4.98.55-4.99.55c-.44 0-.8-.36-.8-.8 0-.44.36-.8.8-.8h1.47V.76h-1.47l-4.57.26V0L7.34.41v.82A9.115 9.115 0 0 0 .2 10.15c0 2.84 1.29 5.48 3.53 7.22l7.97 5.9-3.53 13.44-1.56-2.11c.95-3.54 1.91-7.11 1.99-7.46.4-1.85.15-3.34-.74-4.44-.94-1.16-2.39-1.57-3.43-1.57-.45 0-4.43.14-4.43 4.83 0 3.12 2.68 6.55 2.93 6.85L4.54 35c-.37 1.39-.76 2.82-1.13 4.17a2.19 2.19 0 1 0 1.27 2.57c.14-.51.67-2.47 1.3-4.79l1.57 2.12L3.4 54.9l-.01.03a3.625 3.625 0 0 0 3.53 4.42c1.99 0 3.62-1.63 3.62-3.62 0-.88-.32-1.73-.89-2.38l3.75-5.96 7.35 10.43a3.622 3.622 0 0 0 6.58-2.09c0-1.99-1.63-3.62-3.62-3.62-.07 0-.15 0-.22.01l-5.03-14.2c-.48-1.32-1.57-2.19-2.99-2.39-.22-.03-.43-.04-.65-.04l3.43-7.36 4.48 3.32c.64.5 1.41.76 2.22.76.22 0 .44-.02.66-.06l1.27 13.12c.37 3.56 2.3 7.14 5.27 9.82 3.06 2.76 6.83 4.28 10.63 4.28h.01c3.79 0 7.56-1.52 10.63-4.28 2.97-2.68 4.89-6.26 5.27-9.83l1.27-13.11c.22.04.44.06.66.06.81 0 1.58-.26 2.22-.76l4.48-3.32 3.43 7.36c-.21 0-.43.01-.65.04-1.42.21-2.51 1.08-2.99 2.4l-5.03 14.19c-.07 0-.15-.01-.22-.01-2 0-3.62 1.63-3.62 3.62s1.63 3.62 3.62 3.62c1.17 0 2.28-.57 2.96-1.53l7.35-10.43 3.75 5.96c-.57.65-.89 1.49-.89 2.38 0 2 1.63 3.62 3.62 3.62s3.62-1.63 3.62-3.62c0-.27-.03-.54-.09-.8l-4.17-15.86 1.57-2.12c.63 2.32 1.16 4.28 1.3 4.79a2.19 2.19 0 0 0 4.31-.55c0-1.21-.97-2.2-2.18-2.2zM5.17 32.66l-.73-.99-.03-.03c-.7-.87-2.52-3.57-2.52-5.68 0-2.64 1.77-2.93 2.54-2.93.58 0 1.44.23 1.96.87.51.63.63 1.59.36 2.85-.06.25-.73 2.77-1.58 5.91zM61.58 5.5a1.752 1.752 0 0 1 1.41 2.79l-.33.44 3.05 6.55c-.41 1.07-.66 2.2-.74 3.38L59.93 7.85c-.07-.19-.1-.39-.1-.6 0-.96.78-1.75 1.75-1.75zM50.9 10.34h-4.4l.03-2.1h4.45l-.08 2.1zm-5.92 0h-4.4l-.03-2.1H45l-.02 2.1zm-5.91 0h-4.4l-.08-2.1h4.45l.03 2.1zm-5.92 0h-4.19l-.18-2.1h4.29l.08 2.1zm23.34 1.51l-.21 2.5H29.3l-.21-2.5h27.4zm.13-1.51h-4.19l.08-2.1h4.29l-.18 2.1zM54.21 2.6l-.13 2.71h1.52l.13-2.71h1.53l-.35 4.12h-4.37l.16-4.12h1.51zm-6.08 0l-.07 2.71h1.52l.07-2.71h1.53l-.15 4.12h-4.49l.06-4.12h1.53zm-6.1 0v2.71h1.52V2.6h1.53l-.05 4.12h-4.49l-.05-4.12h1.54zm-6.11 0l.07 2.71h1.52l-.07-2.71h1.53l.05 4.12h-4.49l-.14-4.12h1.53zm-6.08 0l.13 2.71h1.52l-.13-2.71h1.51l.15 4.12h-4.37L28.3 2.6h1.54zm-2.55 6.08l.61 7.19h29.77l.61-7.19 6.52 13.98-3.25 2.41a3.35 3.35 0 0 0-.89-.12l.63-6.47h-37l.63 6.47c-.3 0-.6.04-.89.12l-3.25-2.41 6.51-13.98zm1.08 18.7h3.86l2.51 2.4h-6.37c.14-.38.21-.79.21-1.21 0-.41-.07-.81-.21-1.19zm-1.01-1.52a4.29 4.29 0 0 0-.48-.36l-.35-3.59 4.12 3.95h-3.29zM22.91 8.73l-.33-.44a1.752 1.752 0 0 1 1.41-2.79c.96 0 1.75.78 1.75 1.75 0 .21-.03.41-.1.6L20.6 18.66a11.53 11.53 0 0 0-.74-3.38l3.05-6.55zM15.2 37.4c.41.06 1.16.29 1.48 1.16l5.61 15.83.88-.29a1.73 1.73 0 1 1 .55 3.37c-.56 0-1.09-.27-1.41-.73L14.5 45.65l.54-.86c.34-.55.52-1.19.52-1.84a3.52 3.52 0 0 0-2.63-3.4l.84-1.81c.24-.24.81-.43 1.43-.34zm-4.5 2.44l1.07 1.52c.09-.02.19-.03.28-.03a1.626 1.626 0 0 1 1.39 2.46l-6.29 10 .75.51a1.732 1.732 0 0 1-.98 3.16c-.96 0-1.72-.78-1.72-1.73 0-.12.01-.25.04-.37l8.11-30.87 3.35 2.48-6 12.87zm14.25-9.54c-.39 0-.76-.13-1.06-.36l-19-14.07a7.23 7.23 0 0 1-2.79-5.72c0-3.27 2.16-6.09 5.24-6.97v3.64c0 .9.35 1.73.99 2.33.6.56 1.37.87 2.19.87.06 0 .13 0 .19-.01l1.43-.08c.27.09.59.21.67.24 3.82 1.52 6.29 5.15 6.29 9.26 0 .63-.06 1.26-.18 1.87l-3.96-2.93-.52 1.98 9.3 6.88.51-.23c.43-.19.93-.2 1.37-.02.65.27 1.06.89 1.06 1.6 0 .58-.29 1.12-.77 1.44-.28.18-.61.28-.96.28zm2.49 1h8.89l2.51 2.4H27.67l-.23-2.4zm.38 3.92h12.6l2.51 2.4H28.05l-.23-2.4zm.38 3.92h16.31l2.51 2.4H28.43l-.23-2.4zm.57 5.92l-.19-2H48.6l2.51 2.4H28.83l-.06-.4zm.38 1.92H52.7l2.51 2.4H30.1c-.4-.77-.72-1.57-.95-2.4zm13.64 10.47c-2.81 0-5.57-1-7.9-2.63h15.8c-2.33 1.64-5.1 2.63-7.9 2.63zm9.74-4.15H33.04c-.76-.73-1.45-1.54-2.04-2.4h23.57c-.59.86-1.27 1.67-2.04 2.4zm4.27-8.25c-.1.91-.3 1.79-.6 2.66L27.67 20.38H59.2l-.5 5.12c-1.05.65-1.7 1.8-1.7 3.07a3.6 3.6 0 0 0 1.15 2.64L56.8 45.05zm4.9-15.13l-.02.02c-.31.24-.67.37-1.06.37a1.73 1.73 0 0 1-1.73-1.73c0-.7.42-1.33 1.06-1.6.43-.18.94-.17 1.37.02l.51.23 9.29-6.88-.52-1.98-3.96 2.93c-.12-.61-.18-1.24-.18-1.87 0-4.11 2.47-7.75 6.29-9.26.08-.03.41-.15.67-.24l1.43.08c.06 0 .13.01.19.01.82 0 1.6-.3 2.19-.87.64-.61.99-1.43.99-2.33V3.18c3.08.88 5.24 3.7 5.24 6.97a7.23 7.23 0 0 1-2.79 5.72L61.7 29.92zm1.57 26.81a1.73 1.73 0 1 1-.86-2.64l.88.29 5.61-15.82c.32-.88 1.06-1.11 1.48-1.17.62-.09 1.19.1 1.43.34l.84 1.81a3.52 3.52 0 0 0-2.11 5.25l.54.85-7.81 11.09zm17.07-1.37a1.73 1.73 0 1 1-2.67-1.06l.75-.52-6.28-9.99c-.16-.25-.24-.55-.24-.84 0-.89.73-1.62 1.62-1.62.09 0 .19.01.28.03l1.07-1.52-6-12.87 3.35-2.48 8.12 30.87zm-1.51-28.61c-.27-1.26-.15-2.22.36-2.85.52-.64 1.38-.87 1.96-.87.76 0 2.54.29 2.54 2.93 0 2.52-2.49 5.65-2.52 5.68l-.76 1.02c-.86-3.14-1.53-5.66-1.58-5.91z"/></svg>