<svg xmlns="http://www.w3.org/2000/svg" width="540" height="53" viewBox="0 0 540 53"><path d="M89.559 13.203c0 2.472 1.926 3.436 4.112 3.436 1.432 0 3.619-.417 3.619-2.317 0-2.005-2.786-2.342-5.52-3.071-2.759-.729-5.543-1.796-5.543-5.286 0-3.8 3.593-5.622 6.951-5.622 3.879 0 7.445 1.691 7.445 5.988h-3.958c-.129-2.24-1.718-2.812-3.67-2.812-1.301 0-2.811.547-2.811 2.109 0 1.433.885 1.614 5.544 2.812 1.354.339 5.52 1.198 5.52 5.415 0 3.41-2.682 5.962-7.732 5.962-4.112 0-7.966-2.031-7.914-6.612h3.958v-.002zm18.663-7.289h2.707v2.472h-2.707v6.665c0 1.25.312 1.563 1.562 1.563a5.77 5.77 0 0 0 1.146-.104v2.889c-.625.104-1.431.131-2.161.131-2.264 0-4.243-.521-4.243-3.202v-7.94h-2.238V5.914h2.238V1.876h3.697l-.001 4.038zm5.232 4.138c.208-3.461 3.306-4.504 6.327-4.504 2.681 0 5.909.6 5.909 3.828v7.002c0 1.224.131 2.446.469 2.994h-3.748a5.512 5.512 0 0 1-.262-1.301c-1.17 1.223-2.889 1.666-4.529 1.666-2.552 0-4.582-1.276-4.582-4.035 0-3.046 2.291-3.775 4.582-4.087 2.265-.339 4.373-.26 4.373-1.771 0-1.588-1.093-1.823-2.395-1.823-1.405 0-2.317.572-2.447 2.031h-3.697zm8.538 2.733c-.625.547-1.926.574-3.071.782-1.145.233-2.186.625-2.186 1.978 0 1.38 1.066 1.718 2.264 1.718 2.89 0 2.994-2.291 2.994-3.098l-.001-1.38zm16.298 4.868h-.051c-.86 1.458-2.371 2.082-4.088 2.082-4.062 0-6.04-3.488-6.04-7.211 0-3.619 2.004-6.977 5.96-6.977 1.588 0 3.15.678 3.983 2.004h.053V.785h3.697v18.587h-3.516l.002-1.719zm-3.227-9.32c-2.421 0-3.254 2.083-3.254 4.295 0 2.109.962 4.322 3.254 4.322 2.448 0 3.177-2.134 3.177-4.347-.001-2.186-.783-4.27-3.177-4.27zm14.732-2.419h2.709v2.472h-2.709v6.665c0 1.25.312 1.563 1.562 1.563a5.78 5.78 0 0 0 1.147-.104v2.889c-.625.104-1.433.131-2.162.131-2.264 0-4.242-.521-4.242-3.202v-7.94h-2.239V5.914h2.239V1.876h3.695v4.038zm11.949 10.23l9.97-11.921h-9.188V.785h14.628v3.229l-9.971 11.921h10.231v3.437h-15.671v-3.228zm30.562 3.228h-3.513v-1.874h-.078c-.94 1.51-2.552 2.238-4.114 2.238-3.932 0-4.919-2.213-4.919-5.544V5.914h3.693v7.603c0 2.212.651 3.306 2.371 3.306 2.004 0 2.865-1.12 2.865-3.854V5.914h3.694l.001 13.458zM181.557.785h3.513v3.046h-3.513V.785zm5.362 0h3.514v3.046h-3.514V.785zm8.719 5.129h3.513v2.5h.054c.675-1.691 2.498-2.864 4.295-2.864.259 0 .571.052.807.131v3.436a6.855 6.855 0 0 0-1.327-.129c-2.709 0-3.646 1.953-3.646 4.322v6.065h-3.693V5.914h-.003zm14.578-2.083h-3.695V.785h3.695v3.046zm-3.695 2.083h3.695v13.458h-3.695V5.914zm15.902 4.736c-.232-1.51-1.196-2.317-2.734-2.317-2.367 0-3.149 2.396-3.149 4.374 0 1.926.755 4.243 3.072 4.243 1.719 0 2.707-1.093 2.942-2.733h3.565c-.468 3.566-2.941 5.519-6.481 5.519-4.06 0-6.794-2.863-6.794-6.898 0-4.192 2.499-7.291 6.872-7.291 3.177 0 6.091 1.667 6.325 5.103h-3.618zm6.041-9.865h3.694v7.002h.08c.937-1.51 2.55-2.24 3.93-2.24 3.932 0 4.92 2.212 4.92 5.545v8.278h-3.695v-7.602c0-2.213-.651-3.306-2.37-3.306-2.005 0-2.864 1.12-2.864 3.852v7.056h-3.694L228.464.785zM86.72 29.057h8.25c3.332 0 5.518 1.949 5.518 5.307 0 3.359-2.187 5.312-5.518 5.312h-6.482v7.963h-1.77l.002-18.582zm1.769 9.106h6.091c2.447 0 4.139-1.249 4.139-3.802 0-2.551-1.692-3.799-4.139-3.799h-6.091v7.601zm22.882-.026c-.079-2.027-1.641-2.939-3.515-2.939-1.458 0-3.175.572-3.175 2.314 0 1.459 1.666 1.979 2.786 2.266l2.186.496c1.874.285 3.826 1.378 3.826 3.722 0 2.915-2.889 4.033-5.387 4.033-3.124 0-5.258-1.457-5.518-4.735h1.639c.131 2.213 1.77 3.354 3.957 3.354 1.536 0 3.67-.676 3.67-2.549 0-1.562-1.458-2.082-2.942-2.447l-2.107-.469c-2.134-.571-3.748-1.3-3.748-3.591 0-2.732 2.68-3.773 5.049-3.773 2.68 0 4.814 1.404 4.919 4.32l-1.64-.002zm3.49-3.93h1.742l4.425 11.451 4.139-11.451h1.639l-5.831 15.483c-.937 2.269-1.483 2.916-3.54 2.916-.65-.023-.989-.023-1.25-.131v-1.377c.391.077.755.129 1.12.129 1.458 0 1.795-.856 2.343-2.105l.573-1.535-5.36-13.38zm23.555 4.218c-.441-2.005-1.666-3.229-3.799-3.229-3.15 0-4.711 2.863-4.711 5.729 0 2.861 1.562 5.726 4.711 5.726 2.029 0 3.695-1.586 3.903-3.825h1.642c-.443 3.228-2.552 5.204-5.545 5.204-4.112 0-6.351-3.254-6.351-7.104 0-3.854 2.237-7.104 6.351-7.104 2.862 0 5.075 1.535 5.441 4.605l-1.642-.002zm4.532-9.368h1.639v7.469h.053c.598-1.614 2.395-2.707 4.295-2.707 3.772 0 4.917 1.979 4.917 5.18v8.642h-1.639v-8.38c0-2.316-.755-4.062-3.409-4.062-2.603 0-4.165 1.979-4.218 4.606v7.835h-1.639l.001-18.583zm14.551 0h1.639v2.627h-1.639v-2.627zm0 5.15h1.639v13.431h-1.639V34.207zm5.155 4.109c.157-3.146 2.368-4.5 5.44-4.5 2.367 0 4.943.729 4.943 4.318v7.132c0 .625.312.988.963.988.182 0 .39-.051.521-.104v1.38a4.552 4.552 0 0 1-1.068.104c-1.666 0-1.925-.937-1.925-2.341h-.052c-1.145 1.743-2.313 2.73-4.893 2.73-2.472 0-4.501-1.225-4.501-3.93 0-3.774 3.668-3.905 7.208-4.321 1.354-.154 2.109-.336 2.109-1.82 0-2.213-1.588-2.76-3.513-2.76-2.032 0-3.54.938-3.593 3.123h-1.639v.001zm8.746 1.983h-.051c-.208.391-.938.519-1.38.599-2.784.494-6.247.468-6.247 3.098 0 1.639 1.458 2.652 2.993 2.652 2.499 0 4.71-1.586 4.685-4.215v-2.134zm8.045-6.092h2.733v1.38h-2.733v9.059c0 1.066.155 1.691 1.327 1.771.47 0 .937-.026 1.407-.077v1.404c-.497 0-.964.053-1.458.053-2.187 0-2.942-.73-2.915-3.021V35.59h-2.344v-1.38h2.344v-4.033h1.639v4.03zm5.622 0h1.511v3.148h.051c.833-2.162 2.657-3.436 5.078-3.332v1.642c-2.968-.155-4.998 2.026-4.998 4.813v7.156h-1.642V34.207zm8.748-5.15h1.639v2.627h-1.639v-2.627zm0 5.15h1.639v13.431h-1.639V34.207zm13.352 3.93c-.077-2.027-1.639-2.939-3.513-2.939-1.458 0-3.177.572-3.177 2.314 0 1.459 1.666 1.979 2.787 2.266l2.186.496c1.874.285 3.826 1.378 3.826 3.722 0 2.915-2.889 4.033-5.388 4.033-3.123 0-5.259-1.457-5.518-4.735h1.639c.131 2.213 1.771 3.354 3.957 3.354 1.534 0 3.67-.676 3.67-2.549 0-1.562-1.457-2.082-2.941-2.447l-2.109-.469c-2.133-.571-3.748-1.3-3.748-3.591 0-2.732 2.681-3.773 5.051-3.773 2.681 0 4.812 1.404 4.918 4.32l-1.64-.002zm14.474.288c-.443-2.005-1.666-3.229-3.802-3.229-3.147 0-4.709 2.863-4.709 5.729 0 2.861 1.562 5.726 4.709 5.726 2.031 0 3.697-1.586 3.905-3.825h1.64c-.443 3.228-2.55 5.204-5.545 5.204-4.111 0-6.351-3.254-6.351-7.104 0-3.854 2.239-7.104 6.351-7.104 2.864 0 5.077 1.535 5.44 4.605l-1.638-.002zm4.532-9.368h1.64v7.469h.051c.601-1.614 2.395-2.707 4.295-2.707 3.774 0 4.92 1.979 4.92 5.18v8.642h-1.639v-8.38c0-2.316-.756-4.062-3.412-4.062-2.603 0-4.164 1.979-4.215 4.606v7.835h-1.64V29.057zm14.525 12.174v-1.507h6.506v1.507h-6.506zm10.464-12.174h8.252c3.332 0 5.518 1.949 5.518 5.307 0 3.359-2.186 5.312-5.518 5.312h-6.481v7.963h-1.771V29.057zm1.77 9.106h6.092c2.445 0 4.138-1.249 4.138-3.802 0-2.551-1.692-3.799-4.138-3.799h-6.092v7.601zm22.882-.026c-.08-2.027-1.643-2.939-3.516-2.939-1.459 0-3.175.572-3.175 2.314 0 1.459 1.666 1.979 2.784 2.266l2.188.496c1.873.285 3.824 1.378 3.824 3.722 0 2.915-2.889 4.033-5.387 4.033-3.124 0-5.257-1.457-5.519-4.735h1.64c.131 2.213 1.77 3.354 3.956 3.354 1.537 0 3.671-.676 3.671-2.549 0-1.562-1.458-2.082-2.941-2.447l-2.105-.469c-2.136-.571-3.748-1.3-3.748-3.591 0-2.732 2.681-3.773 5.05-3.773 2.681 0 4.813 1.404 4.92 4.32l-1.642-.002zm3.489-3.93h1.744l4.425 11.451 4.138-11.451h1.64l-5.83 15.483c-.937 2.269-1.479 2.916-3.538 2.916-.648-.023-.988-.023-1.25-.131v-1.377a5.81 5.81 0 0 0 1.121.129c1.457 0 1.795-.856 2.342-2.105l.574-1.535-5.366-13.38zm23.558 4.218c-.442-2.005-1.666-3.229-3.802-3.229-3.148 0-4.711 2.863-4.711 5.729 0 2.861 1.562 5.726 4.711 5.726 2.031 0 3.697-1.586 3.906-3.825h1.639c-.443 3.228-2.553 5.204-5.545 5.204-4.111 0-6.353-3.254-6.353-7.104 0-3.854 2.239-7.104 6.353-7.104 2.863 0 5.074 1.535 5.438 4.605l-1.636-.002zm4.531-9.368h1.639v7.469h.055c.598-1.614 2.396-2.707 4.294-2.707 3.771 0 4.918 1.979 4.918 5.18v8.642h-1.641v-8.38c0-2.316-.755-4.062-3.408-4.062-2.603 0-4.163 1.979-4.218 4.606v7.835h-1.639V29.057zm26.549 11.866c0 3.852-2.236 7.104-6.352 7.104-4.11 0-6.352-3.254-6.352-7.104 0-3.853 2.239-7.104 6.352-7.104 4.116-.003 6.352 3.249 6.352 7.104zm-11.062 0c0 2.861 1.562 5.725 4.711 5.725 3.15 0 4.713-2.861 4.713-5.725 0-2.862-1.562-5.728-4.713-5.728-3.15-.002-4.711 2.866-4.711 5.728zm14.06-11.866h1.639v18.581h-1.639V29.057zm17.335 11.866c0 3.852-2.24 7.104-6.354 7.104-4.111 0-6.351-3.254-6.351-7.104 0-3.853 2.237-7.104 6.351-7.104 4.114-.003 6.354 3.249 6.354 7.104zm-11.062 0c0 2.861 1.562 5.725 4.709 5.725 3.149 0 4.711-2.861 4.711-5.725 0-2.862-1.562-5.728-4.711-5.728-3.148-.002-4.709 2.866-4.709 5.728zm25.378 5.622c-.026 4.007-1.562 6.455-5.96 6.455-2.683 0-5.334-1.198-5.567-4.062h1.639c.365 1.979 2.11 2.684 3.933 2.684 3.018 0 4.316-1.797 4.316-5.075v-1.823h-.053c-.751 1.64-2.338 2.758-4.268 2.758-4.293 0-6.062-3.068-6.062-6.895 0-3.696 2.188-6.769 6.062-6.769 1.953 0 3.616 1.224 4.268 2.707h.053v-2.316h1.644v12.337l-.005-.001zm-1.641-5.778c0-2.63-1.219-5.569-4.317-5.569-3.125 0-4.426 2.785-4.426 5.569 0 2.707 1.403 5.336 4.426 5.336 2.836 0 4.317-2.604 4.317-5.336zm5.313-11.71h1.642v2.627h-1.642v-2.627zm0 5.15h1.642v13.431h-1.642V34.207zm13.355 3.93c-.076-2.027-1.642-2.939-3.516-2.939-1.457 0-3.178.572-3.178 2.314 0 1.459 1.666 1.979 2.789 2.266l2.186.496c1.874.285 3.824 1.378 3.824 3.722 0 2.915-2.885 4.033-5.385 4.033-3.123 0-5.258-1.457-5.521-4.735h1.643c.131 2.213 1.769 3.354 3.957 3.354 1.534 0 3.67-.676 3.67-2.549 0-1.562-1.457-2.082-2.943-2.447l-2.105-.469c-2.137-.571-3.748-1.3-3.748-3.591 0-2.732 2.678-3.773 5.051-3.773 2.679 0 4.812 1.404 4.914 4.32l-1.638-.002zm14.474.288c-.446-2.005-1.666-3.229-3.804-3.229-3.145 0-4.71 2.863-4.71 5.729 0 2.861 1.563 5.726 4.71 5.726 2.029 0 3.695-1.586 3.903-3.825h1.643c-.439 3.228-2.552 5.204-5.546 5.204-4.109 0-6.348-3.254-6.348-7.104 0-3.854 2.236-7.104 6.348-7.104 2.862 0 5.076 1.535 5.438 4.605l-1.634-.002zm4.531-9.368h1.639v7.469h.054c.603-1.614 2.394-2.707 4.295-2.707 3.771 0 4.92 1.979 4.92 5.18v8.642h-1.642v-8.38c0-2.316-.758-4.062-3.409-4.062-2.604 0-4.164 1.979-4.218 4.606v7.835h-1.639V29.057zm15.487 12.306c.027 2.395 1.277 5.282 4.426 5.282 2.393 0 3.694-1.403 4.217-3.435h1.639c-.702 3.044-2.471 4.813-5.854 4.813-4.271 0-6.061-3.278-6.061-7.104 0-3.539 1.792-7.105 6.061-7.105 4.319 0 6.039 3.774 5.908 7.546H420.11v.003h-.001zm8.692-1.381c-.078-2.473-1.612-4.789-4.269-4.789-2.683 0-4.163 2.346-4.425 4.789h8.694zm12.445-10.925h8.251c3.332 0 5.521 1.949 5.521 5.307 0 3.359-2.188 5.312-5.521 5.312h-6.478v7.963h-1.771V29.057h-.002zm1.773 9.106h6.091c2.444 0 4.136-1.249 4.136-3.802 0-2.551-1.688-3.799-4.136-3.799h-6.091v7.601zm26.863 2.76c0 3.852-2.241 7.104-6.354 7.104-4.109 0-6.348-3.254-6.348-7.104 0-3.853 2.236-7.104 6.348-7.104 4.113-.003 6.354 3.249 6.354 7.104zm-11.064 0c0 2.861 1.563 5.725 4.712 5.725 3.146 0 4.711-2.861 4.711-5.725 0-2.862-1.562-5.728-4.711-5.728s-4.712 2.866-4.712 5.728zm14.058-11.866h1.642v18.581h-1.642V29.057zm5.335 0h1.643v2.627h-1.643v-2.627zm0 5.15h1.643v13.431h-1.643V34.207zm5.312-5.15h1.643v11.658l7.441-6.508h2.186l-5.725 4.971 6.115 8.46h-2.059l-5.309-7.312-2.652 2.212v5.103h-1.643l.003-18.584zm13.563 0h1.644v18.581h-1.644V29.057zm5.337 0h1.642v2.627h-1.642v-2.627zm0 5.15h1.642v13.431h-1.642V34.207zm5.283 0h1.643v2.316h.054c.597-1.614 2.394-2.707 4.295-2.707 3.771 0 4.916 1.979 4.916 5.18v8.642h-1.638v-8.38c0-2.316-.756-4.062-3.409-4.062-2.604 0-4.164 1.979-4.218 4.606v7.834h-1.643V34.207zm14.551-5.15h1.642v2.627h-1.642v-2.627zm0 5.15h1.642v13.431h-1.642V34.207zm5.312-5.15h1.642v11.658l7.443-6.508h2.184l-5.725 4.971 6.116 8.46h-2.06l-5.308-7.312-2.653 2.212v5.103h-1.641l.002-18.584zM67.77 31.643a1.816 1.816 0 0 0-.499.082l-.845-3.058.429-.552c1.293-1.681 2.062-2.654 2.642-3.768.888-1.7.772-3.395.486-4.465-.646-2.402-2.542-2.974-3.67-2.916-1.69.083-2.724 1.024-3.16 2.097-.46 1.157-.378 2.354-.165 3.209l1.479 5.904c-.455.594-.85 1.213-1.121 1.555l-2.804-10.932 6.269-4.622c3.593-2.639 3.564-6.886 2.393-9.181-1.124-2.194-2.707-3.303-4.085-3.809a7.032 7.032 0 0 0-.939-.293c-.007-.189-.012-.325-.017-.385-.027-.283-.363-.414-.649-.472-.639-.135-.821.131-.821.228l-.023.38c-1.533-.165-4.8-.147-4.8-.147l.005.898v2.24l1.303.15c.121.007.291.138.288.371-.002.242-.189.378-.371.426-.152.043-.23.058-.295.048h-.015l-4.007-.442.491 1.525a61.875 61.875 0 0 0 3.812.336 1.89 1.89 0 0 0 1.889-1.894c0-1.01-.794-1.838-1.792-1.889v-.371c.54.012 1.201.039 1.919.104.068.271.208.603.499.903.315.33.646.586.937.772l-.013.467s.039.775-.032 1.419c-.071.644-.455 1.133-1.864 1.184-1.341.045-2.99-.215-2.99-.215l.087.993c-.542.3-1.084.746-1.774 1.363-.46.409-.908.983-1.305 1.63L52.954 7.26a2.903 2.903 0 0 0 .569-1.713c0-1.603-1.475-2.905-3.019-2.905-1.042 0-1.911.462-2.453 1.179L48.313.76H21.881l.254 3.061c-.535-.717-1.409-1.179-2.447-1.179-1.544 0-3.019 1.303-3.019 2.905 0 .639.215 1.225.574 1.713l-1.69 3.254c-.399-.646-.848-1.221-1.308-1.63-.692-.618-1.232-1.063-1.776-1.363l.094-.993s-1.651.261-2.993.215c-1.409-.051-1.795-.538-1.867-1.182-.068-.644-.024-1.419-.024-1.419l-.019-.469c.291-.187.622-.443.937-.772.288-.3.431-.632.496-.903a28.624 28.624 0 0 1 1.922-.104v.373c-1 .051-1.796.879-1.796 1.889 0 1.046.848 1.894 1.896 1.894.039 0 .077 0 .119-.007a62.061 62.061 0 0 0 3.69-.329l.489-1.525-4.005.44h-.017c-.063.01-.141-.004-.296-.048-.181-.048-.365-.184-.368-.426-.005-.233.167-.363.288-.371l1.3-.15v-2.24l.012-.898S9.054.479 7.518.643l-.02-.378c0-.097-.182-.363-.821-.228-.286.06-.62.191-.647.474-.005.06-.007.196-.019.385-.257.058-.528.14-.937.293C3.696 1.695 2.11 2.806.996 5c-1.172 2.294-1.21 6.542 2.388 9.181l6.266 4.622-2.807 10.931c-.268-.342-.658-.961-1.115-1.555l1.477-5.905c.213-.857.295-2.052-.167-3.209-.433-1.073-1.461-2.015-3.157-2.097-1.133-.058-3.026.514-3.67 2.916-.288 1.07-.407 2.765.486 4.465.579 1.114 1.349 2.087 2.639 3.768l.429.552-.84 3.057a1.947 1.947 0 0 0-.506-.082 1.71 1.71 0 0 0-1.787 1.705c0 .994.804 1.785 1.787 1.785.642 0 1.199-.324 1.511-.833.271-.405.525-1.454.818-2.465l.395-1.37 1.16 1.508c-.719 2.703-3.356 12.603-3.395 12.759-.453 1.924 1.271 3.584 3.06 3.569 1.591-.017 3.119-1.293 3.056-3.087-.034-.843-.368-1.462-.898-1.867l2.915-4.608 5.484 7.756c.429.614.765.896.821.938.555.562 1.322.91 2.177.91 1.521 0 3.094-1.365 3.094-3.061 0-1.69-1.336-3.119-3.102-2.805-.048.015-.089.02-.133.027L15.5 31.414c-.31-.846-.741-1.488-1.133-1.859-.562-.535-1.38-.529-1.707-.511a3.089 3.089 0 0 0-.528.087l2.908-6.282 3.644 2.748a3.076 3.076 0 0 0 2.305.659l1.007 10.325c.327 3.462 2.007 6.502 4.489 8.644v.023h.029c2.308 1.975 5.295 3.188 8.581 3.188 6.854 0 12.479-5.17 13.098-11.854l1.01-10.325a3.075 3.075 0 0 0 2.309-.659l3.639-2.748 2.911 6.282a3.14 3.14 0 0 0-.53-.087c-.327-.021-1.143-.024-1.707.511-.393.371-.821 1.016-1.131 1.859l-3.883 11.091c-.046-.01-.087-.015-.133-.027-1.765-.314-3.102 1.112-3.102 2.805s1.571 3.061 3.097 3.061a3.05 3.05 0 0 0 2.174-.91c.056-.043.39-.324.823-.938l5.486-7.756 2.907 4.608c-.533.405-.862 1.024-.896 1.867-.061 1.794 1.47 3.07 3.055 3.087 1.787.015 3.518-1.646 3.061-3.569-.034-.154-2.675-10.056-3.397-12.759l1.16-1.508.395 1.37c.293 1.011.544 2.06.821 2.465.314.509.872.833 1.506.833.993 0 1.792-.791 1.792-1.785a1.704 1.704 0 0 0-1.79-1.707zM5.483 22.146l-1.097 4.225c-.36-.472-.646-.85-.765-1.02-.465-.675-1.666-2.368-1.666-4.455 0-1.036.891-2.208 2.002-2.102 1.398.128 1.95 1.725 1.526 3.352zM50.45 4.52c.678 0 1.3.649 1.3 1.322 0 .484-.254.906-.646 1.138l2.688 5.215a8.338 8.338 0 0 0-.477 1.617c-.083.494-.133.831-.167 1.056l-3.852-8.392a1.416 1.416 0 0 1-.152-.635A1.312 1.312 0 0 1 50.45 4.52zm-7.577-2.395h1.237l-.1 2.114h1.211l.102-2.114h1.242l-.206 3.272H42.72l.153-3.272zm-.199 4.459h3.61l-.107 1.697h-3.585l.082-1.697zm-7.788 2.894h11.216l-.131 2.097H24.222l-.128-2.097h10.792zM33.37 6.584h3.453l-.025 1.697h-3.405l-.023-1.697zm4.813-4.459h1.174l-.075 2.113h1.199l.075-2.114h1.068l-.112 3.274h-3.399l.07-3.273zm-.095 4.459h3.383l-.059 1.697h-3.363l.039-1.697zm-3.644-4.459l.007 2.114h1.3V2.125h1.126l-.043 3.273h-3.476l-.046-3.273h1.132zm-2.302 6.156h-3.363l-.058-1.697h3.383l.038 1.697zm-2.506-6.156l.072 2.114h1.201l-.073-2.114h1.174l.065 3.273h-3.397l-.111-3.273h1.069zM27.6 8.281h-3.583l-.109-1.697h3.61l.082 1.697zm-2.729-6.156l.097 2.114h1.213l-.097-2.114h1.235l.153 3.273H23.83l-.206-3.273h1.247zm-5.786 4.854a1.318 1.318 0 0 1-.644-1.138c0-.673.622-1.322 1.3-1.322.721 0 1.307.591 1.307 1.322 0 .232-.061.446-.155.635l-3.854 8.392a29.72 29.72 0 0 0-.163-1.056 7.996 7.996 0 0 0-.479-1.617l2.688-5.216zm-6.647 23.475c.828.172 1.199.848 1.354 1.25.124.319 2.905 8.235 4.041 11.468l.048.136.431 1.217.084-.133c.226-.281.586-.445 1.053-.445.709 0 1.283.57 1.283 1.287 0 .713-.573 1.293-1.283 1.293-.339 0-.653-.135-.893-.357-.228-.193-.777-.925-.777-.925l-.748-1.046-.211-.305-4.774-6.735c.499-.799.864-1.569.864-2.223 0-1.549-1.029-2.582-2.273-2.582l.847-1.824c.141-.087.43-.187.954-.076zm-3.806 2.607l-.215.485c.264-.151.571-.237.898-.237.979 0 1.772.785 1.772 1.771 0 .103-.007.203-.024.305a.497.497 0 0 0-.024.093 1.46 1.46 0 0 1-.041.157l-.007.023a4.043 4.043 0 0 1-.351.733l-1.346 2.11-.434.673-2.068 3.249-.212.335-.736 1.14h.08c.768-.021 1.312.601 1.312 1.315 0 .533-.443 1.265-1.236 1.265-.811 0-1.346-.553-1.346-1.265 0-.062-.007-.249.034-.397l6.518-24.833 2.564 1.908-5.138 11.17zm12.186-8.542a1 1 0 0 1-.315.048c-.327 0-.603-.092-.824-.247l-2.133-1.588-1.322-.973-11.842-8.8c-1.124-.843-2.673-2.547-2.456-5.38.182-2.314 2.027-4.396 4.046-5.027 0 .542 0 1.08.017 1.492.051 1.203.196 2.106.291 2.484.146.6.697 1.521 2.22 1.554.525.015 1.148 0 1.741-.024a8.34 8.34 0 0 1 1.021.443c1.969 1.01 3.026 2.661 3.436 3.397a7.596 7.596 0 0 1 .714 5.206l-2.872-2.169-.417 1.755 5.535 4.088.564.414 1.312.974c.259-.242.613-.395.998-.404l.02-.005c.976-.02 1.433.707 1.409 1.443-.014.537-.545 1.149-1.143 1.319zm1.508-3.957c-.201-1.403-.324-2.804-.324-2.804l2.746 2.935h-2.254c-.056-.043-.105-.101-.168-.131zm1.371 1.862h2.847l1.591 1.525h-4.491c.082-.276.143-.557.143-.857a2.902 2.902 0 0 0-.09-.668zm-1.002 3.257h7.237l1.595 1.533h-8.721c-.034-.514-.075-1.044-.111-1.533zm.232 3.264h10.397l1.59 1.527H23.041c-.039-.507-.075-1.02-.114-1.527zm.242 3.257h13.54L38.3 33.73H23.324c-.056-.501-.119-1.007-.155-1.528zm.392 3.259h16.531l1.596 1.53h-17.85c-.11-.488-.192-1.009-.277-1.53zM35.19 46.972c-1.943 0-4.039-.393-6.192-1.725h12.099c-1.497 1.025-3.957 1.725-5.907 1.725zm7.758-3.451H26.937a9.596 9.596 0 0 1-1.232-1.535H44.29c-.356.467-.781.986-1.342 1.535zm-18.14-3.265c-.191-.47-.38-.974-.545-1.533h19.216l1.596 1.533H24.808zm23.05-19.783a3.075 3.075 0 0 0-1.355 2.554c0 .886.368 1.683.96 2.242l-.115 1.375-.249 3.081-.506 6.15c-.062.938-.24 1.852-.518 2.712l-22.789-21.91h24.887l-.315 3.796zm-27.969-5.501l.499 5.106a2.978 2.978 0 0 0-.804.165l-2.458-1.85 5.281-11.348.489 5.818h24.4l.484-5.818 5.288 11.348-2.46 1.85a2.971 2.971 0 0 0-.802-.165l.497-5.106H19.889zm34.077 6.784l-1.317.973-2.138 1.588c-.22.155-.496.247-.825.247a1.03 1.03 0 0 1-.315-.048c-.596-.169-1.124-.78-1.136-1.317-.026-.736.429-1.462 1.404-1.443l.015.005c.39.01.741.162 1.002.404l1.317-.974.56-.414 5.533-4.088-.414-1.755-2.874 2.169a7.643 7.643 0 0 1 .714-5.206c.409-.736 1.467-2.387 3.441-3.397a8.478 8.478 0 0 1 1.014-.443c.601.024 1.222.039 1.745.024 1.518-.034 2.075-.954 2.22-1.554.099-.378.24-1.284.291-2.484.017-.412.02-.949.017-1.492 2.019.63 3.864 2.712 4.048 5.027.216 2.833-1.332 4.537-2.46 5.38l-11.842 8.798zm-.595 22.138l-.211.305-.746 1.046s-.555.731-.782.925a1.305 1.305 0 0 1-.893.357c-.707 0-1.281-.58-1.281-1.293a1.28 1.28 0 0 1 1.281-1.287c.467 0 .828.164 1.053.445l.089.133.426-1.217.048-.136c1.138-3.23 3.92-11.145 4.048-11.468.15-.402.521-1.078 1.349-1.25.525-.111.813-.011.954.071l.847 1.826c-1.25 0-2.271 1.033-2.271 2.58 0 .653.361 1.424.862 2.223l-4.773 6.74zm12.132.918c.043.15.043.34.043.399 0 .712-.54 1.265-1.349 1.265-.799 0-1.245-.729-1.245-1.265 0-.717.547-1.336 1.312-1.315h.077l-.731-1.14-.213-.333-2.068-3.248-.431-.673-1.349-2.109s-.235-.379-.349-.734l-.007-.023a.83.83 0 0 1-.043-.158c-.005-.037-.015-.065-.024-.092a1.65 1.65 0 0 1-.024-.305c0-.984.794-1.771 1.771-1.771.327 0 .631.086.896.238l-.218-.486-5.133-11.172 2.571-1.908 6.514 24.83zm.301-18.441l-1.095-4.225c-.421-1.627.126-3.223 1.523-3.351 1.114-.106 2.012 1.065 2.012 2.102 0 2.087-1.206 3.78-1.673 4.455-.119.169-.404.544-.767 1.019z" fill="#0F05A0"/></svg>