<svg xmlns="http://www.w3.org/2000/svg" width="562" height="53" viewBox="0 0 562 53"><path d="M89.563 13.201c0 2.472 1.926 3.436 4.112 3.436 1.432 0 3.619-.417 3.619-2.317 0-2.005-2.786-2.342-5.52-3.071-2.759-.729-5.544-1.796-5.544-5.286 0-3.8 3.593-5.622 6.951-5.622 3.879 0 7.445 1.691 7.445 5.988h-3.958c-.129-2.24-1.718-2.813-3.67-2.813-1.301 0-2.811.547-2.811 2.109 0 1.433.885 1.614 5.544 2.812 1.354.339 5.52 1.198 5.52 5.415 0 3.41-2.682 5.962-7.732 5.962-4.112 0-7.966-2.031-7.914-6.612h3.958zm18.665-7.29h2.707v2.473h-2.707v6.665c0 1.25.312 1.563 1.562 1.563a5.77 5.77 0 0 0 1.146-.104v2.889c-.625.104-1.431.131-2.161.131-2.264 0-4.243-.521-4.243-3.202v-7.94h-2.238V5.911h2.238V1.875h3.697v4.036zm5.232 4.14c.208-3.462 3.306-4.505 6.327-4.505 2.681 0 5.909.6 5.909 3.828v7.002c0 1.224.131 2.446.469 2.994h-3.748a5.512 5.512 0 0 1-.262-1.301c-1.17 1.223-2.889 1.666-4.529 1.666-2.552 0-4.582-1.276-4.582-4.035 0-3.046 2.291-3.775 4.582-4.087 2.265-.339 4.373-.26 4.373-1.77 0-1.588-1.093-1.823-2.395-1.823-1.405 0-2.317.572-2.447 2.031h-3.697zm8.538 2.732c-.625.547-1.926.574-3.071.782-1.145.233-2.186.625-2.186 1.978 0 1.38 1.066 1.718 2.264 1.718 2.89 0 2.994-2.291 2.994-3.098v-1.38zm16.299 4.869h-.051c-.86 1.458-2.371 2.082-4.088 2.082-4.062 0-6.04-3.488-6.04-7.211 0-3.619 2.005-6.977 5.961-6.977 1.588 0 3.15.678 3.983 2.005h.053V.782h3.697V19.37h-3.516v-1.718zm-3.228-9.32c-2.421 0-3.254 2.083-3.254 4.295 0 2.109.962 4.322 3.254 4.322 2.448 0 3.177-2.134 3.177-4.347 0-2.187-.782-4.27-3.177-4.27zm14.733-2.421h2.709v2.473h-2.709v6.665c0 1.25.313 1.563 1.562 1.563a5.78 5.78 0 0 0 1.147-.104v2.889c-.625.104-1.433.131-2.162.131-2.264 0-4.242-.521-4.242-3.202v-7.94h-2.239V5.911h2.239V1.875h3.695v4.036zm11.949 10.231l9.97-11.922h-9.188V.782h14.629v3.229l-9.971 11.922h10.232v3.437h-15.672v-3.228zm30.563 3.228h-3.513v-1.874h-.078c-.939 1.51-2.552 2.238-4.113 2.238-3.932 0-4.92-2.213-4.92-5.544V5.911h3.694v7.603c0 2.212.651 3.306 2.371 3.306 2.005 0 2.864-1.12 2.864-3.854V5.911h3.695V19.37zM181.564.782h3.513v3.046h-3.513V.782zm5.363 0h3.513v3.046h-3.513V.782zm8.719 5.129h3.513v2.5h.053c.676-1.692 2.499-2.864 4.295-2.864.259 0 .571.052.806.131v3.436a6.846 6.846 0 0 0-1.327-.129c-2.709 0-3.646 1.953-3.646 4.322v6.065h-3.695V5.911zm14.579-2.083h-3.695V.782h3.695v3.046zm-3.695 2.083h3.695V19.37h-3.695V5.911zm15.902 4.738c-.232-1.51-1.196-2.317-2.733-2.317-2.368 0-3.15 2.396-3.15 4.374 0 1.926.755 4.243 3.072 4.243 1.719 0 2.707-1.093 2.942-2.733h3.566c-.467 3.566-2.942 5.519-6.481 5.519-4.061 0-6.794-2.863-6.794-6.898 0-4.192 2.499-7.291 6.871-7.291 3.177 0 6.092 1.667 6.327 5.103h-3.62zm6.041-9.867h3.695v7.003h.08c.937-1.51 2.549-2.24 3.93-2.24 3.932 0 4.92 2.213 4.92 5.546v8.278h-3.695v-7.602c0-2.213-.651-3.306-2.371-3.306-2.005 0-2.864 1.12-2.864 3.852v7.056h-3.695V.782zM87.557 41.519c-.077 3.828 2.682 5 6.066 5 1.953 0 4.92-1.068 4.92-3.775 0-2.108-2.109-2.941-3.827-3.358l-4.139-1.017c-2.186-.545-4.191-1.588-4.191-4.477 0-1.823 1.17-5.232 6.404-5.232 3.67 0 6.898 1.979 6.873 5.779h-1.771c-.104-2.838-2.447-4.271-5.076-4.271-2.421 0-4.66.939-4.66 3.697 0 1.745 1.301 2.474 2.811 2.837l4.53 1.121c2.63.702 4.816 1.848 4.816 4.894 0 1.276-.521 5.31-7.106 5.31-4.399 0-7.628-1.978-7.42-6.508h1.77zm25.253-3.097c-.443-2.005-1.666-3.228-3.801-3.228-3.15 0-4.712 2.861-4.712 5.726s1.562 5.727 4.712 5.727c2.031 0 3.697-1.586 3.905-3.825h1.641c-.443 3.228-2.552 5.205-5.546 5.205-4.112 0-6.352-3.254-6.352-7.106s2.24-7.105 6.352-7.105c2.864 0 5.077 1.534 5.442 4.607h-1.641zm4.53-9.373h1.639v7.472h.052c.6-1.614 2.396-2.706 4.297-2.706 3.774 0 4.92 1.978 4.92 5.179v8.644h-1.641v-8.382c0-2.317-.755-4.061-3.41-4.061-2.603 0-4.166 1.978-4.218 4.607v7.835h-1.639V29.049zm25.407 18.588h-1.508v-2.421h-.054c-.859 1.796-2.629 2.811-4.634 2.811-3.384 0-4.712-1.978-4.712-5.102v-8.721h1.64v8.748c.078 2.421.989 3.694 3.592 3.694 2.811 0 4.036-2.653 4.036-5.387v-7.056h1.639v13.434zm3.644-18.588h1.642v18.588h-1.642V29.049zm6.274 12.314c.026 2.395 1.276 5.283 4.426 5.283 2.395 0 3.697-1.404 4.218-3.436h1.642c-.705 3.046-2.475 4.815-5.859 4.815-4.269 0-6.065-3.278-6.065-7.106 0-3.539 1.796-7.105 6.065-7.105 4.322 0 6.041 3.774 5.91 7.549h-10.337zm8.696-1.38c-.08-2.475-1.615-4.789-4.271-4.789-2.68 0-4.165 2.341-4.426 4.789h8.697zm12.443-10.934h1.77v8.07h11.038v-8.07h1.77v18.588h-1.77V38.63h-11.038v9.007h-1.77V29.049zm18.561 0h1.642v2.63h-1.642v-2.63zm0 5.155h1.642v13.433h-1.642V34.204zm5.313 0h1.508v3.149h.053c.833-2.159 2.654-3.436 5.075-3.331v1.639c-2.966-.154-4.997 2.031-4.997 4.816v7.159h-1.639V34.204zm16.764 3.932c-.08-2.031-1.642-2.941-3.516-2.941-1.458 0-3.177.571-3.177 2.314 0 1.46 1.668 1.98 2.787 2.267l2.187.493c1.874.286 3.828 1.381 3.828 3.725 0 2.915-2.891 4.033-5.39 4.033-3.124 0-5.259-1.457-5.518-4.738h1.639c.131 2.213 1.77 3.358 3.956 3.358 1.538 0 3.671-.676 3.671-2.55 0-1.562-1.458-2.082-2.942-2.447l-2.109-.468c-2.133-.573-3.748-1.303-3.748-3.593 0-2.733 2.683-3.774 5.051-3.774 2.68 0 4.815 1.404 4.92 4.321h-1.639zm14.475.286c-.443-2.005-1.666-3.228-3.801-3.228-3.15 0-4.712 2.861-4.712 5.726s1.562 5.727 4.712 5.727c2.031 0 3.697-1.586 3.905-3.825h1.639c-.443 3.228-2.552 5.205-5.544 5.205-4.114 0-6.354-3.254-6.354-7.106s2.24-7.105 6.354-7.105c2.864 0 5.077 1.534 5.44 4.607h-1.639zm4.527-9.373h1.642v7.472h.051c.6-1.614 2.397-2.706 4.295-2.706 3.775 0 4.922 1.978 4.922 5.179v8.644h-1.642v-8.382c0-2.317-.755-4.061-3.409-4.061-2.605 0-4.167 1.978-4.218 4.607v7.835h-1.642V29.049zm15.491 12.314c.027 2.395 1.276 5.283 4.426 5.283 2.395 0 3.695-1.404 4.215-3.436h1.642c-.702 3.046-2.475 4.815-5.857 4.815-4.271 0-6.068-3.278-6.068-7.106 0-3.539 1.796-7.105 6.068-7.105 4.319 0 6.039 3.774 5.908 7.549h-10.334zm8.695-1.38c-.078-2.475-1.615-4.789-4.269-4.789-2.683 0-4.167 2.341-4.426 4.789h8.695zm4.349-5.779h1.639v2.316h.051c.6-1.614 2.397-2.706 4.295-2.706 3.775 0 4.922 1.978 4.922 5.179v8.644h-1.642v-8.382c0-2.317-.755-4.061-3.409-4.061-2.603 0-4.167 1.978-4.218 4.607v7.835h-1.639V34.204zm25.875 12.338c-.026 4.01-1.562 6.458-5.961 6.458-2.683 0-5.339-1.198-5.571-4.061h1.639c.366 1.979 2.109 2.681 3.932 2.681 3.019 0 4.319-1.797 4.319-5.078v-1.82h-.051c-.755 1.639-2.344 2.758-4.269 2.758-4.295 0-6.068-3.07-6.068-6.898 0-3.697 2.189-6.767 6.068-6.767 1.952 0 3.617 1.223 4.269 2.706h.051v-2.316h1.642v12.337zm-1.642-5.779c0-2.627-1.223-5.568-4.319-5.568-3.126 0-4.426 2.784-4.426 5.568 0 2.71 1.404 5.339 4.426 5.339 2.837 0 4.319-2.606 4.319-5.339zm5.286-6.559h1.511v3.149h.051c.833-2.159 2.656-3.436 5.078-3.331v1.639c-2.969-.154-4.998 2.031-4.998 4.816v7.159h-1.642V34.204zm8.564 4.113c.157-3.15 2.37-4.503 5.443-4.503 2.368 0 4.944.729 4.944 4.321v7.133c0 .625.312.988.963.988.184 0 .392-.051.521-.104v1.38a4.5 4.5 0 0 1-1.068.104c-1.666 0-1.925-.937-1.925-2.344h-.053c-1.145 1.746-2.317 2.733-4.893 2.733-2.472 0-4.503-1.223-4.503-3.93 0-3.774 3.67-3.905 7.21-4.321 1.353-.157 2.109-.339 2.109-1.823 0-2.213-1.588-2.758-3.513-2.758-2.032 0-3.542.937-3.593 3.123h-1.642zm8.748 1.979h-.051c-.208.39-.939.521-1.38.598-2.787.496-6.249.47-6.249 3.1 0 1.639 1.458 2.653 2.995 2.653 2.499 0 4.711-1.586 4.685-4.215v-2.136zm5.44-11.247h1.642v7.707h.051c.702-1.928 2.656-2.941 4.661-2.941 4.087 0 6.039 3.305 6.039 7.105 0 3.802-1.951 7.106-6.039 7.106-2.162 0-4.036-1.118-4.792-2.941h-.051v2.552h-1.511V29.049zm6.354 6.145c-3.489 0-4.711 2.941-4.711 5.726s1.223 5.727 4.711 5.727c3.124 0 4.399-2.941 4.399-5.727 0-2.784-1.276-5.726-4.399-5.726zm10.074 6.169c.024 2.395 1.274 5.283 4.424 5.283 2.397 0 3.697-1.404 4.218-3.436h1.642c-.705 3.046-2.475 4.815-5.859 4.815-4.269 0-6.065-3.278-6.065-7.106 0-3.539 1.797-7.105 6.065-7.105 4.322 0 6.041 3.774 5.91 7.549h-10.335zm8.695-1.38c-.08-2.475-1.615-4.789-4.271-4.789-2.68 0-4.165 2.341-4.424 4.789h8.695zm4.346-5.779h1.642v2.316h.051c.598-1.614 2.395-2.706 4.295-2.706 3.774 0 4.92 1.978 4.92 5.179v8.644h-1.639v-8.382c0-2.317-.755-4.061-3.412-4.061-2.603 0-4.165 1.978-4.215 4.607v7.835h-1.642V34.204zm14.528 7.028v-1.511h6.508v1.511h-6.508zm11.297.287c-.077 3.828 2.683 5 6.065 5 1.954 0 4.92-1.068 4.92-3.775 0-2.108-2.106-2.941-3.826-3.358l-4.14-1.017c-2.187-.545-4.191-1.588-4.191-4.477 0-1.823 1.172-5.232 6.404-5.232 3.67 0 6.9 1.979 6.874 5.779h-1.77c-.104-2.838-2.448-4.271-5.077-4.271-2.421 0-4.661.939-4.661 3.697 0 1.745 1.303 2.474 2.813 2.837l4.528 1.121c2.629.702 4.818 1.848 4.818 4.894 0 1.276-.521 5.31-7.109 5.31-4.399 0-7.627-1.978-7.418-6.508h1.77zm25.251-3.097c-.44-2.005-1.666-3.228-3.799-3.228-3.15 0-4.711 2.861-4.711 5.726s1.562 5.727 4.711 5.727c2.029 0 3.695-1.586 3.903-3.825h1.642c-.443 3.228-2.552 5.205-5.545 5.205-4.113 0-6.353-3.254-6.353-7.106s2.24-7.105 6.353-7.105c2.862 0 5.075 1.534 5.44 4.607h-1.641zm4.53-9.373h1.642v7.472h.051c.599-1.614 2.395-2.706 4.296-2.706 3.774 0 4.92 1.978 4.92 5.179v8.644h-1.64v-8.382c0-2.317-.756-4.061-3.411-4.061-2.604 0-4.165 1.978-4.216 4.607v7.835h-1.642V29.049zm14.37 9.268c.157-3.15 2.37-4.503 5.44-4.503 2.37 0 4.946.729 4.946 4.321v7.133c0 .625.313.988.964.988.182 0 .39-.051.521-.104v1.38a4.491 4.491 0 0 1-1.067.104c-1.666 0-1.925-.937-1.925-2.344h-.054c-1.146 1.746-2.317 2.733-4.894 2.733-2.474 0-4.503-1.223-4.503-3.93 0-3.774 3.671-3.905 7.21-4.321 1.354-.157 2.109-.339 2.109-1.823 0-2.213-1.589-2.758-3.516-2.758-2.029 0-3.54.937-3.591 3.123h-1.64zm8.748 1.979h-.054c-.208.39-.937.521-1.377.598-2.787.496-6.25.47-6.25 3.1 0 1.639 1.458 2.653 2.995 2.653 2.499 0 4.712-1.586 4.686-4.215v-2.136zm5.414-6.092h1.642v2.316h.051c.598-1.614 2.395-2.706 4.295-2.706 3.774 0 4.92 1.978 4.92 5.179v8.644h-1.639v-8.382c0-2.317-.756-4.061-3.412-4.061-2.603 0-4.164 1.978-4.215 4.607v7.835h-1.642V34.204zm15.333 12.053h9.242v1.38h-11.22V46.31l8.771-10.726h-8.174v-1.38h10.257v1.172l-8.876 10.881zm12.732-4.894c.024 2.395 1.275 5.283 4.426 5.283 2.395 0 3.695-1.404 4.216-3.436h1.642c-.705 3.046-2.475 4.815-5.857 4.815-4.271 0-6.067-3.278-6.067-7.106 0-3.539 1.796-7.105 6.067-7.105 4.319 0 6.039 3.774 5.908 7.549h-10.335zm8.694-1.38c-.077-2.475-1.615-4.789-4.269-4.789-2.683 0-4.167 2.341-4.426 4.789h8.695zm4.347-5.779h1.642v2.316h.051c.601-1.614 2.396-2.706 4.295-2.706 3.774 0 4.923 1.978 4.923 5.179v8.644h-1.643v-8.382c0-2.317-.755-4.061-3.408-4.061-2.605 0-4.167 1.978-4.218 4.607v7.835h-1.642V34.204zm25.878 12.338c-.026 4.01-1.562 6.458-5.961 6.458-2.683 0-5.339-1.198-5.571-4.061h1.639c.366 1.979 2.109 2.681 3.933 2.681 3.019 0 4.319-1.797 4.319-5.078v-1.82h-.051c-.756 1.639-2.344 2.758-4.269 2.758-4.296 0-6.068-3.07-6.068-6.898 0-3.697 2.189-6.767 6.068-6.767 1.951 0 3.617 1.223 4.269 2.706h.051v-2.316h1.642v12.337zm-1.642-5.779c0-2.627-1.223-5.568-4.319-5.568-3.126 0-4.427 2.784-4.427 5.568 0 2.71 1.404 5.339 4.427 5.339 2.837 0 4.319-2.606 4.319-5.339zm5.285-6.559h1.511v3.149h.051c.833-2.159 2.656-3.436 5.078-3.331v1.639c-2.969-.154-5 2.031-5 4.816v7.159h-1.64V34.204zm8.565 4.113c.157-3.15 2.37-4.503 5.442-4.503 2.368 0 4.944.729 4.944 4.321v7.133c0 .625.313.988.964.988.182 0 .39-.051.521-.104v1.38a4.5 4.5 0 0 1-1.068.104c-1.665 0-1.925-.937-1.925-2.344h-.053c-1.146 1.746-2.317 2.733-4.894 2.733-2.475 0-4.503-1.223-4.503-3.93 0-3.774 3.67-3.905 7.21-4.321 1.354-.157 2.109-.339 2.109-1.823 0-2.213-1.589-2.758-3.516-2.758-2.029 0-3.54.937-3.591 3.123h-1.64zm8.748 1.979h-.052c-.21.39-.939.521-1.38.598-2.787.496-6.249.47-6.249 3.1 0 1.639 1.458 2.653 2.995 2.653 2.499 0 4.712-1.586 4.686-4.215v-2.136zm5.44-11.247h1.642v7.707h.051c.702-1.928 2.656-2.941 4.66-2.941 4.088 0 6.039 3.305 6.039 7.105 0 3.802-1.951 7.106-6.039 7.106-2.162 0-4.036-1.118-4.791-2.941h-.051v2.552h-1.511V29.049zm6.353 6.145c-3.488 0-4.711 2.941-4.711 5.726s1.223 5.727 4.711 5.727c3.124 0 4.399-2.941 4.399-5.727 0-2.784-1.275-5.726-4.399-5.726zm10.075 6.169c.024 2.395 1.273 5.283 4.424 5.283 2.396 0 3.697-1.404 4.218-3.436h1.642c-.705 3.046-2.475 4.815-5.859 4.815-4.269 0-6.065-3.278-6.065-7.106 0-3.539 1.797-7.105 6.065-7.105 4.321 0 6.041 3.774 5.91 7.549h-10.335zm8.694-1.38c-.08-2.475-1.614-4.789-4.271-4.789-2.681 0-4.165 2.341-4.424 4.789h8.695zm4.347-5.779h1.642v2.316h.051c.598-1.614 2.395-2.706 4.295-2.706 3.774 0 4.92 1.978 4.92 5.179v8.644h-1.639v-8.382c0-2.317-.756-4.061-3.412-4.061-2.603 0-4.164 1.978-4.215 4.607v7.835h-1.642V34.204zM67.773 31.64a1.936 1.936 0 0 0-.499.082l-.845-3.056.429-.552c1.293-1.68 2.063-2.653 2.642-3.767.888-1.7.772-3.395.486-4.465-.646-2.402-2.542-2.974-3.67-2.916-1.69.083-2.724 1.024-3.16 2.097-.46 1.157-.378 2.354-.165 3.21l1.479 5.905c-.455.594-.85 1.213-1.121 1.555L60.546 18.8l6.269-4.622c3.593-2.639 3.564-6.886 2.393-9.181-1.124-2.194-2.707-3.303-4.085-3.809a7.032 7.032 0 0 0-.939-.293C64.175.706 64.17.57 64.166.51c-.027-.283-.363-.414-.649-.472-.639-.135-.821.131-.821.228l-.022.378C61.141.479 57.873.497 57.873.497l.005.898v2.24l1.303.15c.121.007.291.138.288.371-.002.242-.189.378-.371.426-.152.043-.23.058-.295.048h-.015l-4.007-.443.491 1.525a61.875 61.875 0 0 0 3.812.336 1.89 1.89 0 0 0 1.889-1.894c0-1.01-.794-1.838-1.792-1.889v-.372c.54.012 1.201.039 1.92.104.068.271.208.603.499.903.315.33.646.586.937.772l-.014.467s.039.775-.032 1.419-.455 1.133-1.864 1.184c-1.341.046-2.99-.215-2.99-.215l.089.993c-.542.3-1.084.746-1.774 1.363-.46.409-.908.983-1.305 1.63l-1.688-3.254a2.908 2.908 0 0 0 .569-1.714c0-1.603-1.475-2.905-3.019-2.905-1.042 0-1.911.462-2.453 1.179l.262-3.061H21.884l.254 3.061c-.535-.717-1.409-1.179-2.448-1.179-1.544 0-3.019 1.303-3.019 2.905 0 .639.215 1.225.574 1.714l-1.69 3.254c-.399-.646-.848-1.221-1.308-1.63-.692-.618-1.232-1.063-1.777-1.363l.094-.993s-1.651.261-2.993.215c-1.409-.051-1.794-.54-1.867-1.184-.067-.644-.023-1.419-.023-1.419l-.019-.467c.291-.187.622-.443.937-.772.288-.3.431-.632.496-.903a28.624 28.624 0 0 1 1.922-.104v.373c-1 .051-1.796.879-1.796 1.889 0 1.046.848 1.894 1.896 1.894.039 0 .077 0 .119-.007a62.061 62.061 0 0 0 3.69-.329l.489-1.525-4.005.44h-.017c-.063.01-.141-.005-.295-.048-.182-.048-.366-.184-.368-.426-.005-.232.167-.363.288-.371l1.3-.15v-2.24l.012-.898S9.057.478 7.521.642l-.02-.378c0-.097-.182-.363-.821-.228-.287.06-.621.191-.648.474-.005.06-.007.196-.019.385-.257.058-.528.14-.937.293-1.378.506-2.964 1.615-4.078 3.809-1.172 2.295-1.21 6.542 2.388 9.181L9.652 18.8 6.846 29.734c-.269-.342-.659-.961-1.116-1.555l1.477-5.905c.213-.857.295-2.053-.167-3.21-.433-1.073-1.462-2.015-3.157-2.097-1.133-.058-3.026.514-3.67 2.916-.288 1.07-.407 2.765.486 4.465.579 1.114 1.349 2.087 2.639 3.767l.429.552-.84 3.056a1.947 1.947 0 0 0-.506-.082 1.708 1.708 0 0 0-1.787 1.705c0 .995.804 1.786 1.787 1.786.642 0 1.199-.326 1.511-.833.271-.406.525-1.455.818-2.465l.395-1.37 1.16 1.506c-.719 2.705-3.356 12.605-3.395 12.76-.453 1.925 1.271 3.584 3.06 3.571 1.591-.017 3.119-1.293 3.056-3.087-.034-.843-.368-1.462-.898-1.869l2.915-4.609 5.484 7.757c.429.615.765.896.821.939a3.04 3.04 0 0 0 2.177.911c1.521 0 3.094-1.366 3.094-3.061 0-1.69-1.336-3.119-3.102-2.804-.048.014-.089.019-.133.028l-3.881-11.092c-.31-.845-.741-1.488-1.133-1.859-.562-.535-1.38-.53-1.707-.511a3.089 3.089 0 0 0-.528.087l2.908-6.283 3.644 2.748a3.076 3.076 0 0 0 2.305.659l1.007 10.324c.327 3.462 2.007 6.503 4.489 8.644v.024h.029c2.308 1.974 5.295 3.188 8.581 3.188 6.854 0 12.479-5.169 13.099-11.856l1.01-10.324a3.075 3.075 0 0 0 2.309-.659l3.639-2.748 2.911 6.283a3.125 3.125 0 0 0-.53-.087c-.327-.02-1.143-.024-1.707.511-.393.371-.821 1.015-1.131 1.859l-3.881 11.092c-.046-.01-.087-.015-.133-.028-1.765-.315-3.102 1.113-3.102 2.804 0 1.694 1.571 3.061 3.097 3.061.852 0 1.617-.349 2.174-.911.056-.043.39-.324.823-.939l5.486-7.757 2.908 4.609c-.533.407-.862 1.026-.896 1.869-.061 1.794 1.47 3.07 3.055 3.087 1.787.013 3.518-1.646 3.061-3.571a6630.66 6630.66 0 0 0-3.397-12.76l1.16-1.506.395 1.37c.293 1.01.544 2.059.821 2.465.314.507.872.833 1.506.833.993 0 1.792-.791 1.792-1.786a1.711 1.711 0 0 0-1.794-1.706zM5.485 22.144l-1.097 4.225c-.36-.472-.646-.85-.765-1.02-.465-.675-1.666-2.368-1.666-4.455 0-1.036.891-2.208 2.002-2.102 1.397.129 1.949 1.725 1.526 3.352zM50.454 4.517c.678 0 1.3.649 1.3 1.322 0 .484-.254.906-.646 1.138l2.688 5.215a8.338 8.338 0 0 0-.477 1.617c-.083.494-.133.831-.167 1.056L49.3 6.473a1.416 1.416 0 0 1-.152-.635 1.313 1.313 0 0 1 1.306-1.321zm-7.578-2.394h1.237l-.1 2.114h1.211l.102-2.114h1.242l-.206 3.273h-3.639l.153-3.273zm-.199 4.46h3.61l-.106 1.697h-3.585l.081-1.697zm-7.789 2.893h11.216l-.131 2.097H24.225l-.128-2.097h10.791zm-1.515-2.893h3.453l-.025 1.697h-3.407l-.021-1.697zm4.813-4.46h1.174l-.075 2.114h1.199l.075-2.114h1.068l-.111 3.273h-3.399l.069-3.273zm-.095 4.46h3.383l-.058 1.697h-3.363l.038-1.697zm-3.643-4.46l.007 2.114h1.3V2.123h1.126l-.043 3.273H33.36l-.046-3.273h1.134zM32.145 8.28h-3.363l-.058-1.697h3.383l.038 1.697zm-2.506-6.157l.072 2.114h1.201l-.072-2.114h1.174l.065 3.273h-3.397l-.111-3.273h1.068zM27.603 8.28H24.02l-.11-1.697h3.61l.083 1.697zm-2.729-6.157l.097 2.114h1.213l-.097-2.114h1.235l.153 3.273h-3.642l-.206-3.273h1.247zm-5.787 4.854a1.32 1.32 0 0 1-.644-1.138c0-.673.622-1.322 1.3-1.322.722 0 1.308.591 1.308 1.322 0 .232-.061.446-.155.635l-3.854 8.392a29.72 29.72 0 0 0-.163-1.056 7.996 7.996 0 0 0-.479-1.617l2.687-5.216zm-6.646 23.476c.828.172 1.199.848 1.354 1.25.124.321 2.905 8.236 4.041 11.469l.048.134.431 1.218.084-.134c.226-.28.586-.445 1.053-.445.709 0 1.284.571 1.284 1.288a1.29 1.29 0 0 1-1.284 1.293c-.339 0-.653-.136-.893-.358-.228-.193-.777-.925-.777-.925l-.748-1.046-.211-.305-4.774-6.736c.499-.799.864-1.569.864-2.223 0-1.547-1.029-2.581-2.273-2.581l.847-1.825c.14-.084.429-.185.954-.074zm-3.806 2.606l-.215.486c.264-.152.571-.239.898-.239.979 0 1.772.787 1.772 1.772 0 .102-.007.203-.024.305a.465.465 0 0 0-.024.092c-.01.049-.024.106-.041.158l-.007.023c-.116.356-.351.734-.351.734l-1.346 2.111-.434.673-2.068 3.249-.213.334-.736 1.139h.08c.768-.02 1.313.6 1.313 1.316 0 .533-.443 1.264-1.237 1.264-.811 0-1.346-.552-1.346-1.264 0-.061-.007-.249.034-.399l6.518-24.834 2.564 1.908-5.137 11.172zm12.186-8.542a1 1 0 0 1-.315.048c-.327 0-.603-.092-.825-.247l-2.133-1.588-1.322-.973-11.843-8.799c-1.123-.843-2.673-2.548-2.455-5.38.182-2.315 2.027-4.397 4.046-5.027 0 .542 0 1.08.017 1.492.051 1.201.196 2.106.291 2.484.146.6.697 1.521 2.22 1.554.525.015 1.148 0 1.741-.024.314.112.663.259 1.021.443 1.969 1.01 3.026 2.661 3.436 3.397a7.596 7.596 0 0 1 .714 5.206l-2.872-2.169-.417 1.755 5.535 4.089.564.414 1.313.974c.259-.242.613-.395.998-.404l.02-.005c.976-.02 1.433.707 1.409 1.443-.015.537-.545 1.147-1.143 1.317zm1.508-3.957c-.201-1.404-.324-2.804-.324-2.804l2.746 2.935h-2.254c-.057-.041-.105-.099-.168-.131zm1.371 1.864h2.847l1.591 1.525h-4.491c.082-.276.143-.557.143-.857a2.957 2.957 0 0 0-.09-.668zm-1.003 3.255h7.237l1.595 1.535h-8.721c-.033-.516-.075-1.044-.111-1.535zm.233 3.266h10.397l1.591 1.527H23.043l-.113-1.527zm.242 3.256h13.54l1.591 1.53H23.327c-.056-.502-.119-1.011-.155-1.53zm.392 3.259h16.532l1.596 1.53H23.84c-.109-.488-.191-1.007-.276-1.53zm11.629 11.511c-1.944 0-4.039-.392-6.193-1.724h12.099c-1.496 1.026-3.956 1.724-5.906 1.724zm7.758-3.452H26.939a9.552 9.552 0 0 1-1.232-1.535h18.585c-.355.469-.779.987-1.341 1.535zm-18.14-3.264c-.191-.47-.38-.974-.545-1.535h19.217l1.596 1.535H24.811zm23.05-19.784a3.074 3.074 0 0 0-1.356 2.554c0 .886.368 1.683.961 2.242l-.116 1.375-.249 3.08-.506 6.152c-.063.938-.24 1.851-.518 2.712l-22.789-21.91h24.888l-.315 3.795zm-27.97-5.501l.499 5.106a2.978 2.978 0 0 0-.804.165l-2.458-1.85 5.281-11.348.489 5.818h24.401l.484-5.818 5.288 11.348-2.46 1.85a2.971 2.971 0 0 0-.802-.165l.497-5.106H19.891zm34.079 6.786l-1.317.973-2.138 1.588c-.22.155-.496.247-.825.247a1.03 1.03 0 0 1-.315-.048c-.596-.169-1.124-.78-1.136-1.317-.026-.736.429-1.462 1.404-1.443l.015.005c.39.01.741.162 1.002.404l1.317-.974.56-.414 5.533-4.089-.414-1.755-2.874 2.169a7.643 7.643 0 0 1 .714-5.206c.409-.736 1.467-2.387 3.441-3.397a8.478 8.478 0 0 1 1.014-.443c.601.024 1.223.039 1.746.024 1.518-.034 2.075-.954 2.22-1.554.099-.378.24-1.284.291-2.484.017-.412.02-.949.017-1.492 2.019.63 3.864 2.712 4.048 5.027.216 2.833-1.332 4.537-2.46 5.38L53.97 21.756zm-.595 22.136l-.211.305-.746 1.046s-.555.731-.782.925a1.305 1.305 0 0 1-.893.358 1.289 1.289 0 0 1-1.281-1.293c0-.717.574-1.288 1.281-1.288.467 0 .828.165 1.053.445l.089.134.426-1.218.048-.134c1.138-3.232 3.92-11.147 4.048-11.469.15-.402.521-1.078 1.349-1.25.525-.111.813-.01.954.073l.847 1.825c-1.25 0-2.271 1.034-2.271 2.581 0 .653.361 1.424.862 2.223l-4.773 6.737zm12.132.921c.043.15.043.339.043.399 0 .712-.54 1.264-1.349 1.264-.799 0-1.245-.73-1.245-1.264 0-.717.547-1.336 1.313-1.316h.077l-.731-1.139-.213-.334-2.068-3.249-.431-.673-1.349-2.111s-.235-.378-.349-.734l-.005-.023a.83.83 0 0 1-.043-.158.42.42 0 0 0-.024-.092 1.65 1.65 0 0 1-.024-.305c0-.985.794-1.772 1.772-1.772.327 0 .632.087.896.239l-.218-.486-5.135-11.171 2.571-1.908 6.512 24.833zm.301-18.444l-1.095-4.225c-.421-1.627.126-3.223 1.523-3.351 1.114-.106 2.012 1.065 2.012 2.102 0 2.087-1.206 3.78-1.673 4.455-.119.169-.405.546-.767 1.019z" fill="#0F05A0"/></svg>