<svg xmlns="http://www.w3.org/2000/svg" width="242" height="53" viewBox="0 0 242 53"><path d="M89.564 13.201c0 2.472 1.926 3.436 4.112 3.436 1.432 0 3.619-.417 3.619-2.317 0-2.005-2.786-2.343-5.52-3.071-2.759-.729-5.544-1.797-5.544-5.286 0-3.8 3.593-5.622 6.951-5.622 3.879 0 7.445 1.691 7.445 5.988H96.67c-.13-2.24-1.718-2.812-3.671-2.812-1.301 0-2.811.547-2.811 2.109 0 1.432.885 1.613 5.545 2.811 1.354.339 5.519 1.199 5.519 5.416 0 3.41-2.682 5.962-7.732 5.962-4.112 0-7.966-2.031-7.914-6.612h3.958zm18.664-7.29h2.708v2.473h-2.708v6.665c0 1.25.313 1.563 1.562 1.563a5.77 5.77 0 0 0 1.146-.104v2.888c-.625.104-1.431.131-2.161.131-2.264 0-4.244-.521-4.244-3.202v-7.94h-2.238V5.911h2.238V1.875h3.697v4.036zm5.232 4.14c.208-3.463 3.306-4.505 6.327-4.505 2.682 0 5.909.599 5.909 3.828v7.002c0 1.224.131 2.447.469 2.994h-3.749a5.502 5.502 0 0 1-.262-1.301c-1.17 1.223-2.888 1.666-4.529 1.666-2.552 0-4.582-1.276-4.582-4.035 0-3.046 2.29-3.775 4.582-4.087 2.265-.338 4.373-.26 4.373-1.77 0-1.588-1.093-1.823-2.395-1.823-1.406 0-2.317.572-2.447 2.032h-3.696zm8.539 2.732c-.625.547-1.926.574-3.071.782-1.146.234-2.187.625-2.187 1.979 0 1.38 1.066 1.718 2.264 1.718 2.89 0 2.994-2.291 2.994-3.098v-1.381zm16.299 4.869h-.051c-.859 1.458-2.37 2.083-4.088 2.083-4.062 0-6.04-3.488-6.04-7.212 0-3.619 2.005-6.977 5.961-6.977 1.589 0 3.15.678 3.983 2.004h.053V.782h3.697V19.37h-3.516v-1.718zm-3.228-9.32c-2.421 0-3.254 2.083-3.254 4.295 0 2.109.963 4.322 3.254 4.322 2.448 0 3.177-2.135 3.177-4.348 0-2.186-.782-4.269-3.177-4.269zm14.733-2.421h2.709v2.473h-2.709v6.665c0 1.25.313 1.563 1.562 1.563a5.78 5.78 0 0 0 1.147-.104v2.888c-.625.104-1.433.131-2.162.131-2.264 0-4.242-.521-4.242-3.202v-7.94h-2.239V5.911h2.239V1.875h3.695v4.036zm11.949 10.231l9.971-11.922h-9.188V.782h14.629v3.229l-9.971 11.922h10.232v3.437h-15.672v-3.228zm30.564 3.228h-3.513v-1.874h-.078c-.939 1.51-2.552 2.239-4.114 2.239-3.932 0-4.92-2.213-4.92-5.545V5.911h3.695v7.603c0 2.212.651 3.306 2.371 3.306 2.005 0 2.864-1.12 2.864-3.854V5.911h3.695V19.37zM181.565.782h3.513v3.046h-3.513V.782zm5.364 0h3.513v3.046h-3.513V.782zm8.718 5.129h3.513v2.5h.053c.676-1.692 2.499-2.864 4.295-2.864.259 0 .571.052.806.131v3.436a6.769 6.769 0 0 0-1.327-.129c-2.709 0-3.646 1.953-3.646 4.322v6.065h-3.695V5.911zm14.579-2.083h-3.695V.782h3.695v3.046zm-3.695 2.083h3.695V19.37h-3.695V5.911zm15.903 4.738c-.232-1.51-1.196-2.317-2.733-2.317-2.368 0-3.15 2.396-3.15 4.374 0 1.926.755 4.244 3.072 4.244 1.719 0 2.707-1.094 2.942-2.734h3.566c-.467 3.567-2.942 5.52-6.481 5.52-4.061 0-6.794-2.864-6.794-6.898 0-4.192 2.499-7.29 6.872-7.29 3.177 0 6.091 1.667 6.327 5.103h-3.621zm6.041-9.867h3.695v7.004h.08c.937-1.51 2.549-2.24 3.93-2.24 3.932 0 4.92 2.213 4.92 5.546v8.278h-3.695v-7.602c0-2.213-.651-3.306-2.37-3.306-2.005 0-2.864 1.12-2.864 3.853v7.055h-3.695V.782zM67.774 31.64a1.936 1.936 0 0 0-.499.082l-.845-3.056.429-.552c1.292-1.68 2.063-2.654 2.641-3.767.889-1.7.772-3.395.487-4.465-.646-2.402-2.542-2.973-3.671-2.915-1.689.082-2.724 1.024-3.159 2.097-.46 1.157-.378 2.354-.165 3.21l1.479 5.905c-.455.594-.85 1.213-1.121 1.555L60.546 18.8l6.269-4.622c3.593-2.639 3.564-6.886 2.393-9.181-1.124-2.194-2.707-3.303-4.085-3.809a7.032 7.032 0 0 0-.939-.293c-.007-.188-.012-.324-.017-.384-.027-.284-.363-.414-.649-.472-.639-.136-.82.131-.82.228l-.022.377C61.143.479 57.875.496 57.875.496l.005.898v2.24l1.302.15c.121.007.291.138.289.37-.003.242-.189.378-.371.426-.152.043-.23.058-.295.048h-.015l-4.007-.443.492 1.526c1.554.177 2.784.283 3.688.329.043.007.083.007.124.007a1.89 1.89 0 0 0 1.889-1.894c0-1.01-.794-1.838-1.792-1.889v-.371c.54.012 1.201.039 1.92.104.065.271.206.602.496.903.315.329.646.585.937.772l-.014.467s.039.775-.032 1.419-.456 1.133-1.865 1.184c-1.341.046-2.99-.215-2.99-.215l.09.993c-.542.3-1.085.746-1.774 1.363-.46.409-.908.983-1.306 1.629l-1.688-3.254a2.909 2.909 0 0 0 .569-1.715c0-1.603-1.475-2.905-3.02-2.905-1.041 0-1.91.462-2.453 1.179l.262-3.061H21.884l.254 3.061c-.535-.717-1.409-1.179-2.448-1.179-1.545 0-3.02 1.303-3.02 2.905 0 .64.216 1.226.574 1.715l-1.689 3.254c-.4-.646-.848-1.22-1.308-1.629-.692-.618-1.232-1.063-1.777-1.363l.095-.993s-1.652.261-2.993.215c-1.409-.051-1.794-.54-1.867-1.184-.068-.644-.024-1.419-.024-1.419l-.019-.467c.29-.187.622-.443.937-.772a1.97 1.97 0 0 0 .496-.903 28.59 28.59 0 0 1 1.922-.104v.373a1.894 1.894 0 0 0 .1 3.783c.039 0 .077 0 .119-.007a62.061 62.061 0 0 0 3.69-.329l.489-1.526-4.005.443h-.017c-.063.01-.14-.005-.295-.048-.182-.048-.366-.184-.368-.426-.005-.232.167-.363.288-.37l1.3-.15v-2.24l.012-.898S9.057.481 7.521.646l-.019-.38c0-.097-.182-.363-.821-.228-.288.058-.622.189-.649.472-.005.06-.007.196-.019.385-.257.058-.528.14-.937.293-1.378.506-2.964 1.615-4.078 3.809-1.171 2.295-1.21 6.542 2.388 9.181L9.652 18.8 6.845 29.734c-.269-.342-.658-.961-1.116-1.555l1.477-5.905c.212-.857.295-2.053-.167-3.21-.434-1.073-1.463-2.015-3.158-2.097-1.133-.058-3.026.513-3.671 2.915-.288 1.07-.406 2.765.487 4.465.579 1.113 1.349 2.087 2.639 3.767l.429.552-.84 3.056a1.954 1.954 0 0 0-.506-.082 1.71 1.71 0 0 0-1.787 1.705c0 .995.804 1.786 1.787 1.786.642 0 1.199-.326 1.511-.832.271-.407.525-1.456.818-2.465l.395-1.371 1.16 1.507c-.719 2.704-3.356 12.604-3.395 12.759-.453 1.926 1.271 3.584 3.06 3.572 1.591-.017 3.119-1.293 3.056-3.087-.034-.843-.368-1.463-.898-1.87l2.915-4.609 5.484 7.757c.429.615.766.896.821.94.554.562 1.322.91 2.177.91 1.52 0 3.094-1.365 3.094-3.061 0-1.69-1.336-3.118-3.102-2.804-.048.015-.089.02-.133.029l-3.881-11.092c-.31-.845-.741-1.489-1.133-1.86-.562-.534-1.38-.529-1.707-.51a3.078 3.078 0 0 0-.528.086l2.908-6.283 3.644 2.748a3.073 3.073 0 0 0 2.306.659l1.007 10.324c.327 3.463 2.007 6.503 4.489 8.645v.023h.029c2.308 1.974 5.295 3.189 8.581 3.189 6.854 0 12.479-5.169 13.099-11.857l1.009-10.324a3.08 3.08 0 0 0 2.31-.659l3.639-2.748 2.911 6.283a3.108 3.108 0 0 0-.531-.086c-.327-.02-1.143-.024-1.707.51-.392.371-.82 1.016-1.13 1.86l-3.881 11.092c-.046-.01-.087-.015-.133-.029-1.765-.314-3.102 1.113-3.102 2.804 0 1.695 1.571 3.061 3.097 3.061a3.05 3.05 0 0 0 2.175-.91c.056-.044.389-.325.823-.94l5.486-7.757 2.908 4.609c-.532.407-.862 1.027-.896 1.87-.061 1.794 1.469 3.07 3.055 3.087 1.787.012 3.518-1.646 3.061-3.572-.034-.154-2.676-10.055-3.397-12.759l1.16-1.507.395 1.371c.293 1.009.545 2.058.821 2.465.314.506.872.832 1.506.832.993 0 1.792-.791 1.792-1.786a1.712 1.712 0 0 0-1.793-1.705zM5.485 22.144L4.388 26.37c-.36-.472-.646-.85-.765-1.02-.465-.675-1.666-2.368-1.666-4.455 0-1.037.891-2.208 2.002-2.102 1.397.128 1.95 1.724 1.526 3.351zm44.97-17.627c.678 0 1.3.649 1.3 1.322 0 .484-.254.906-.646 1.138l2.688 5.215a8.338 8.338 0 0 0-.477 1.617c-.083.494-.133.831-.167 1.056L49.3 6.474a1.404 1.404 0 0 1-.153-.635c0-.731.586-1.322 1.308-1.322zm-7.579-2.394h1.238l-.1 2.114h1.21l.102-2.114h1.242l-.206 3.273h-3.639l.153-3.273zm-.198 4.46h3.61l-.107 1.697h-3.586l.083-1.697zm-7.789 2.893h11.215l-.131 2.097H24.225l-.128-2.097h10.792zm-1.516-2.893h3.452l-.024 1.697h-3.406l-.022-1.697zm4.813-4.46h1.174l-.075 2.114h1.199l.075-2.114h1.068l-.112 3.273h-3.399l.07-3.273zm-.094 4.46h3.382l-.058 1.697h-3.363l.039-1.697zm-3.644-4.46l.007 2.114h1.3V2.123h1.125l-.043 3.273H33.36l-.046-3.273h1.134zM32.145 8.28h-3.363l-.058-1.697h3.383l.038 1.697zm-2.506-6.157l.073 2.114h1.201l-.073-2.114h1.174l.066 3.273h-3.397l-.111-3.273h1.067zM27.603 8.28H24.02l-.11-1.697h3.611l.082 1.697zm-2.729-6.157l.097 2.114h1.213l-.097-2.114h1.235l.152 3.273h-3.642l-.206-3.273h1.248zm-5.787 4.854a1.323 1.323 0 0 1-.644-1.138c0-.673.622-1.322 1.3-1.322.722 0 1.308.591 1.308 1.322 0 .232-.06.446-.155.635l-3.854 8.392c-.029-.226-.08-.562-.162-1.056a8.08 8.08 0 0 0-.479-1.617l2.686-5.216zm-6.646 23.477c.828.171 1.199.847 1.354 1.249.124.321 2.906 8.237 4.041 11.47l.048.133.431 1.218.085-.134c.225-.28.586-.445 1.053-.445.709 0 1.284.572 1.284 1.289a1.29 1.29 0 0 1-1.284 1.292c-.338 0-.653-.136-.893-.357-.228-.194-.777-.926-.777-.926l-.748-1.046-.21-.305-4.775-6.736c.499-.799.864-1.568.864-2.222 0-1.548-1.029-2.581-2.273-2.581l.847-1.826c.139-.083.428-.184.953-.073zm-3.806 2.605l-.216.486a1.8 1.8 0 0 1 .898-.238c.978 0 1.772.786 1.772 1.771 0 .102-.007.203-.024.305a.465.465 0 0 0-.024.092c-.01.05-.024.107-.042.158l-.007.024a4.005 4.005 0 0 1-.351.733l-1.346 2.111-.434.673-2.067 3.25-.213.334-.736 1.138h.08c.768-.02 1.312.601 1.312 1.317 0 .532-.443 1.264-1.237 1.264-.811 0-1.346-.553-1.346-1.264 0-.061-.007-.25.034-.4l6.519-24.834 2.564 1.908-5.136 11.172zm12.186-8.542a.998.998 0 0 1-.314.048 1.42 1.42 0 0 1-.826-.247l-2.133-1.588-1.322-.974-11.843-8.798c-1.123-.843-2.673-2.548-2.455-5.38.181-2.315 2.027-4.398 4.046-5.027 0 .542 0 1.08.017 1.491.051 1.201.196 2.106.291 2.484.146.601.697 1.521 2.221 1.555.525.014 1.147 0 1.741-.025a8.43 8.43 0 0 1 1.021.443c1.969 1.01 3.026 2.661 3.436 3.397a7.602 7.602 0 0 1 .714 5.206l-2.872-2.17-.417 1.756 5.535 4.089.564.414 1.313.973c.259-.242.613-.395.998-.404l.02-.005c.976-.019 1.433.707 1.409 1.443-.016.539-.546 1.149-1.144 1.319zm1.508-3.956c-.201-1.404-.324-2.804-.324-2.804l2.746 2.934h-2.254c-.056-.041-.105-.099-.168-.13zm1.371 1.864h2.847l1.591 1.525h-4.491c.083-.276.143-.557.143-.857 0-.232-.04-.458-.09-.668zm-1.003 3.254h7.237l1.596 1.535h-8.721c-.034-.516-.076-1.044-.112-1.535zm.233 3.265h10.397l1.591 1.528H23.043c-.038-.507-.074-1.021-.113-1.528zm.242 3.257h13.539l1.591 1.53H23.327c-.056-.502-.119-1.011-.155-1.53zm.392 3.26h16.532l1.596 1.53H23.84c-.109-.489-.191-1.008-.276-1.53zm11.629 11.51c-1.944 0-4.039-.392-6.193-1.724h12.099c-1.496 1.026-3.956 1.724-5.906 1.724zm7.758-3.452H26.939a9.563 9.563 0 0 1-1.232-1.535h18.585c-.355.469-.779.988-1.341 1.535zm-18.14-3.264a15.82 15.82 0 0 1-.544-1.535h19.217l1.595 1.535H24.811zm23.05-19.784a3.074 3.074 0 0 0-1.356 2.554c0 .886.368 1.683.961 2.242l-.116 1.375-.25 3.08-.506 6.153c-.063.937-.24 1.85-.518 2.711L23.288 16.677h24.888l-.315 3.794zm-27.97-5.502l.499 5.107a2.896 2.896 0 0 0-.804.165l-2.458-1.85 5.281-11.348.489 5.818H47.3l.484-5.818 5.288 11.348-2.459 1.85a2.98 2.98 0 0 0-.802-.165l.497-5.107H19.891zm34.08 6.787l-1.317.974-2.138 1.588c-.22.155-.497.247-.826.247a.994.994 0 0 1-.314-.048c-.596-.169-1.124-.779-1.136-1.317-.026-.736.429-1.462 1.404-1.443l.015.005c.39.01.741.163 1.002.404l1.317-.973.559-.414 5.533-4.089-.414-1.756-2.875 2.17a7.648 7.648 0 0 1 .714-5.206c.409-.736 1.467-2.387 3.44-3.397a8.418 8.418 0 0 1 1.015-.443 26.8 26.8 0 0 0 1.746.025c1.518-.034 2.075-.954 2.22-1.555.1-.378.24-1.284.291-2.484.017-.412.02-.949.017-1.491 2.02.629 3.864 2.711 4.049 5.026.215 2.833-1.332 4.537-2.46 5.38l-11.842 8.797zm-.596 22.136l-.211.305-.746 1.046s-.554.731-.782.926a1.311 1.311 0 0 1-.893.357 1.288 1.288 0 0 1-1.281-1.292c0-.717.574-1.289 1.281-1.289.467 0 .828.165 1.053.445l.09.134.426-1.218.048-.133c1.138-3.232 3.92-11.148 4.048-11.47.15-.402.521-1.078 1.349-1.249.525-.111.813-.01.954.072l.848 1.826c-1.25 0-2.271 1.033-2.271 2.581 0 .653.361 1.423.862 2.222l-4.775 6.737zm12.132.921c.044.15.044.34.044.4 0 .711-.54 1.264-1.349 1.264-.799 0-1.245-.731-1.245-1.264 0-.717.547-1.337 1.312-1.317h.078l-.731-1.138-.213-.334-2.068-3.25-.431-.673-1.349-2.111s-.235-.378-.349-.733l-.006-.024a.73.73 0 0 1-.043-.158.42.42 0 0 0-.024-.092 1.57 1.57 0 0 1-.025-.305c0-.985.794-1.771 1.772-1.771.327 0 .632.086.896.238l-.218-.486-5.136-11.171 2.571-1.908 6.514 24.833zm.301-18.444l-1.094-4.226c-.421-1.627.126-3.222 1.523-3.351 1.114-.107 2.012 1.065 2.012 2.102 0 2.087-1.206 3.78-1.673 4.455-.119.171-.405.548-.768 1.02z" fill="#0F05A0"/></svg>